<svg xmlns="http://www.w3.org/2000/svg" width="200.365" height="200.365" viewBox="0 0 200.365 200.365">
  <g id="Grupo_135027" data-name="Grupo 135027" transform="translate(3794.398 12053.793)">
    <circle id="Elipse_4817" data-name="Elipse 4817" cx="100.182" cy="100.182" r="100.182" transform="translate(-3794.398 -12053.793)" fill="#b9ddfc"/>
    <path id="Trazado_197347" data-name="Trazado 197347" d="M156.218,848.253h26.166a1.7,1.7,0,0,1,1.736,1.738v26.158a1.772,1.772,0,0,1-1.736,1.738h-1.989V875.9h.376a1.506,1.506,0,0,0,1.484-1.488V851.6a1.505,1.505,0,0,0-1.484-1.486h-22.94a1.505,1.505,0,0,0-1.484,1.486v22.813a1.506,1.506,0,0,0,1.484,1.488h1.12v1.983h-2.734a1.773,1.773,0,0,1-1.736-1.738V849.991a1.7,1.7,0,0,1,1.736-1.738Zm6.451,68.686V864.5a5.527,5.527,0,0,1,5.58-5.455h2.85a5.5,5.5,0,0,1,5.459,5.455v29.133a5.618,5.618,0,0,1,4.093-1.734H183.5a5.527,5.527,0,0,1,5.578,5.455v.867a5.557,5.557,0,0,1,4.091-1.859h2.854a5.631,5.631,0,0,1,5.578,5.578v.5a5.43,5.43,0,0,1,4.091-1.736h2.856A5.505,5.505,0,0,1,214,906.154v41.287a6.115,6.115,0,0,1-6.083,6.2H168.871a6.218,6.218,0,0,1-6.2-6.2v-4.835c-10.66-27.646-30.873-13.39-32.48-23.555a21.4,21.4,0,0,1,0-2.852c0-2.975,2.478-4.96,5.451-5.579,9.055-1.611,18.1.37,27.029,6.32Zm0,43.771v25.042a4.42,4.42,0,0,0,4.465,4.34h42.528a4.4,4.4,0,0,0,4.339-4.34V960.711a4.423,4.423,0,0,0-4.339-4.465H167.134a4.444,4.444,0,0,0-4.465,4.465Zm39.055,3.472a4.773,4.773,0,0,1,9.546,0,4.773,4.773,0,1,1-9.546,0Z" transform="translate(-3868.181 -12873.431)" fill="#084a93" fill-rule="evenodd"/>
  </g>
</svg>
