<svg xmlns="http://www.w3.org/2000/svg" width="366" height="317" viewBox="0 0 366 317">
  <g id="Grupo_135032" data-name="Grupo 135032" transform="translate(3957 9923)">
    <rect id="Rectángulo_295225" data-name="Rectángulo 295225" width="366" height="317" transform="translate(-3957 -9923)" fill="none"/>
    <g id="Grupo_133637" data-name="Grupo 133637" transform="translate(-6308.247 -10925)">
      <g id="Grupo_133464" data-name="Grupo 133464" transform="translate(2386.247 1021.079)">
        <g id="Grupo_133303" data-name="Grupo 133303" transform="translate(169.392 52.185)">
          <g id="Grupo_133291" data-name="Grupo 133291">
            <g id="Grupo_133290" data-name="Grupo 133290">
              <g id="Grupo_133287" data-name="Grupo 133287">
                <path id="Trazado_197040" data-name="Trazado 197040" d="M2555.287,1069.454l1.118-.2s8.75,2.9,8.555,1.2c-.257-2.249-8.217-4.352-8.981-4.394-1.271-.07-8.833.584-9.912,1.135s-7.621,6.676-7.621,6.676l7.852,8.563s2.163.277,5.093-2.118c1.487-1.215,3.7-3.375,3.7-3.375s-.087-.627.112-.859c.591-.7.186-1.149.186-1.149a1.469,1.469,0,0,0,1.113-1.124,1.078,1.078,0,0,0-.19-.82c-.493-.479-.717-.407-.717-.407a2.154,2.154,0,0,0,1.438-1.369c.242-1.006-1.216-1.51-1.216-1.51" transform="translate(-2538.446 -1066.056)" fill="#b78876"/>
              </g>
              <g id="Grupo_133289" data-name="Grupo 133289" transform="translate(13.423 2.741)">
                <g id="Grupo_133288" data-name="Grupo 133288">
                  <path id="Trazado_197041" data-name="Trazado 197041" d="M2563.416,1070.572a4.756,4.756,0,0,1-1.953.161,11.18,11.18,0,0,1-2.115-.311c-.761-.234-1.589-.515-2.46-.808l-1.846-.638.116.011a27.891,27.891,0,0,1-4.651.544,27.866,27.866,0,0,1,4.577-1l.054-.01.063.021,1.836.611,2.425.838a13.724,13.724,0,0,0,2.029.4C2562.667,1070.53,2563.411,1070.5,2563.416,1070.572Z" transform="translate(-2550.507 -1068.519)" fill="#aa6550"/>
                </g>
              </g>
            </g>
          </g>
          <g id="Grupo_133293" data-name="Grupo 133293" transform="translate(11.974 3.584)">
            <path id="Trazado_197042" data-name="Trazado 197042" d="M2553.441,1069.508l-2.885,2.214a3.165,3.165,0,0,0-.879.883,1.074,1.074,0,0,0,.017,1.181,1.044,1.044,0,0,0,.909.33,2.676,2.676,0,0,0,.947-.324,31.278,31.278,0,0,0,3.414-1.913" transform="translate(-2549.171 -1069.251)" fill="#b78876"/>
            <g id="Grupo_133292" data-name="Grupo 133292">
              <path id="Trazado_197043" data-name="Trazado 197043" d="M2555.2,1071.776a8.74,8.74,0,0,1-1.522,1.131,11.525,11.525,0,0,1-1.81,1.019,5.309,5.309,0,0,1-1.2.379,1.742,1.742,0,0,1-.72-.029,1,1,0,0,1-.633-.5,1.35,1.35,0,0,1,.245-1.434,6.359,6.359,0,0,1,.926-.844c.605-.484,1.165-.9,1.643-1.239a6.291,6.291,0,0,1,1.627-.978,13.213,13.213,0,0,1-1.448,1.214l-1.576,1.3a6.508,6.508,0,0,0-.849.8.957.957,0,0,0-.2.988.844.844,0,0,0,.924.313,5.253,5.253,0,0,0,1.108-.33,14.018,14.018,0,0,0,1.8-.914A8.279,8.279,0,0,1,2555.2,1071.776Z" transform="translate(-2549.205 -1069.277)" fill="#aa6550"/>
            </g>
          </g>
          <path id="Trazado_197044" data-name="Trazado 197044" d="M2553.652,1072.287s.893-.838,1.263-.774a1.149,1.149,0,0,1,1.123.839c.171.6-.077.811-1.159,1.957" transform="translate(-2536.728 -1065.44)" fill="#b78876"/>
          <g id="Grupo_133295" data-name="Grupo 133295" transform="translate(13.371 6.623)">
            <path id="Trazado_197045" data-name="Trazado 197045" d="M2553.981,1072.208l-2.374,1.921a2.717,2.717,0,0,0-.726.765.959.959,0,0,0,.006,1.013.821.821,0,0,0,.74.277,2.164,2.164,0,0,0,.777-.286,25.674,25.674,0,0,0,2.8-1.667" transform="translate(-2550.428 -1071.985)" fill="#b78876"/>
            <g id="Grupo_133294" data-name="Grupo 133294">
              <path id="Trazado_197046" data-name="Trazado 197046" d="M2556.365,1072.935a3.558,3.558,0,0,1-1.1,1.453,9.865,9.865,0,0,1-2.663,1.7,2.862,2.862,0,0,1-1.294.306.907.907,0,0,1-.691-.377,1.007,1.007,0,0,1-.134-.741,1.91,1.91,0,0,1,.706-1.05c.562-.49,1.084-.9,1.531-1.239a5.689,5.689,0,0,1,1.531-.975,12.454,12.454,0,0,1-1.345,1.205c-.418.365-.922.8-1.458,1.295a1.585,1.585,0,0,0-.561.835.487.487,0,0,0,.457.63,2.613,2.613,0,0,0,1.1-.267,10.275,10.275,0,0,0,1.022-.489,11.114,11.114,0,0,0,1.607-1.057C2555.929,1073.479,2556.306,1072.9,2556.365,1072.935Z" transform="translate(-2550.46 -1072.007)" fill="#aa6550"/>
            </g>
          </g>
          <g id="Grupo_133299" data-name="Grupo 133299" transform="translate(2.948 4.75)">
            <g id="Grupo_133296" data-name="Grupo 133296" transform="translate(0.002 0.015)">
              <path id="Trazado_197047" data-name="Trazado 197047" d="M2541.1,1075.132a2.066,2.066,0,0,0,2.366.445c.808-.3,1.491-.863,2.276-1.22,2.347-1.065,5.264-.153,7.558-1.331.319-.165.662-.468.57-.815-.086-.322-.479-.431-.807-.485l-8.425-1.388" transform="translate(-2541.097 -1070.338)" fill="#b78876"/>
            </g>
            <g id="Grupo_133298" data-name="Grupo 133298">
              <g id="Grupo_133297" data-name="Grupo 133297">
                <path id="Trazado_197048" data-name="Trazado 197048" d="M2544.635,1070.339a3.409,3.409,0,0,1,.926.057c.592.068,1.445.181,2.5.333l3.693.555,1.066.168a1.7,1.7,0,0,1,1.183.489.719.719,0,0,1-.011.808,1.483,1.483,0,0,1-.523.462,5.6,5.6,0,0,1-1.176.45,32.751,32.751,0,0,1-4.581.418,6.446,6.446,0,0,0-1.87.458c-.55.238-1.034.564-1.511.819a3,3,0,0,1-2.515.386c-.6-.237-.737-.612-.716-.609a2.52,2.52,0,0,0,.774.429,2.909,2.909,0,0,0,2.288-.507c.45-.263.925-.61,1.515-.887a6.629,6.629,0,0,1,1.982-.534,38.172,38.172,0,0,0,4.51-.444,5.234,5.234,0,0,0,1.065-.4c.313-.167.5-.437.375-.58-.115-.177-.5-.24-.864-.3l-1.063-.184-3.676-.659c-1.046-.194-1.891-.359-2.472-.485A3.431,3.431,0,0,1,2544.635,1070.339Z" transform="translate(-2541.095 -1070.324)" fill="#aa6550"/>
              </g>
            </g>
          </g>
          <path id="Trazado_197049" data-name="Trazado 197049" d="M2554.164,1074.644s.662-.622.936-.574a.853.853,0,0,1,.833.622c.128.447-.057.6-.859,1.451" transform="translate(-2536.67 -1065.151)" fill="#b78876"/>
          <g id="Grupo_133301" data-name="Grupo 133301" transform="translate(14.807 9.324)">
            <path id="Trazado_197050" data-name="Trazado 197050" d="M2554.408,1074.585c-.625.5-1.135.918-1.76,1.424a2,2,0,0,0-.538.566.716.716,0,0,0,0,.751.61.61,0,0,0,.55.2,1.6,1.6,0,0,0,.575-.211,19.234,19.234,0,0,0,2.078-1.235" transform="translate(-2551.721 -1074.417)" fill="#b78876"/>
            <g id="Grupo_133300" data-name="Grupo 133300">
              <path id="Trazado_197051" data-name="Trazado 197051" d="M2556.181,1075.124c.043.02-.169.522-.794,1.105a6.744,6.744,0,0,1-1.193.881,6.951,6.951,0,0,1-.785.4,2.15,2.15,0,0,1-.985.233.724.724,0,0,1-.551-.3.8.8,0,0,1-.11-.589,1.457,1.457,0,0,1,.542-.806c.434-.343.834-.638,1.17-.885a4.263,4.263,0,0,1,1.134-.72c.032.048-.336.411-.953.954l-1.092.937a1.121,1.121,0,0,0-.4.59c-.032.232.06.386.292.4a1.926,1.926,0,0,0,.79-.194,7.621,7.621,0,0,0,.753-.357,8.263,8.263,0,0,0,1.19-.769C2555.834,1075.509,2556.124,1075.087,2556.181,1075.124Z" transform="translate(-2551.75 -1074.434)" fill="#aa6550"/>
            </g>
          </g>
          <g id="Grupo_133302" data-name="Grupo 133302" transform="translate(9.67 8.8)">
            <path id="Trazado_197052" data-name="Trazado 197052" d="M2548.26,1077.644a10.548,10.548,0,0,0-.205-1.942,10.328,10.328,0,0,0-.915-1.725c.042-.107.964.424,1.316,1.6A2.188,2.188,0,0,1,2548.26,1077.644Z" transform="translate(-2547.134 -1073.963)" fill="#aa6550"/>
          </g>
        </g>
        <g id="Grupo_133305" data-name="Grupo 133305" transform="translate(64.501 47.654)">
          <path id="Trazado_197053" data-name="Trazado 197053" d="M2492.5,1065.154c-4.055-2.07-8.057-2.539-12.424-2.666-5.085-.148-12.255-.859-17.735-.277,0,0-17.229,1.349-17.3,14.293l2.738,47.823-3.575,21.3,50.04,1.511-.358-25.123c.161,11.274-.387-24.391-.208-33.916.77-7.026,4.121-7.854,4.667-12.424C2498.825,1071.631,2496.124,1067,2492.5,1065.154Z" transform="translate(-2444.201 -1061.985)" fill="#375a64"/>
          <path id="Trazado_197054" data-name="Trazado 197054" d="M2478.277,1062.732s7.608-.131,12.61,2.325,32.387,19.254,32.387,19.254l21.04-11.659,11.129,10.424-24.13,15.931a16.622,16.622,0,0,1-15.876,1.508l-27.209-10.8Z" transform="translate(-2440.352 -1061.901)" fill="#375a64"/>
          <g id="Grupo_133304" data-name="Grupo 133304" transform="translate(49.28 18.239)">
            <path id="Trazado_197055" data-name="Trazado 197055" d="M2488.673,1078.373c.132,0,.262,7.433.292,16.6s-.056,16.605-.188,16.605-.263-7.432-.292-16.6S2488.54,1078.374,2488.673,1078.373Z" transform="translate(-2488.479 -1078.373)" fill="#1a2e35"/>
          </g>
        </g>
        <g id="Grupo_133313" data-name="Grupo 133313" transform="translate(37.106 262.319)">
          <path id="Trazado_197056" data-name="Trazado 197056" d="M2432.632,1254.862l-4.739,18.8-8.036,13.792a1.987,1.987,0,0,0,.836,2.78h0a1.972,1.972,0,0,0,1.818-.029c3.608-1.947,16.846-9.174,17.115-10.57.313-1.616,6.315-19.5,6.315-19.5Z" transform="translate(-2419.587 -1254.862)" fill="#ffb30b"/>
          <path id="Trazado_197057" data-name="Trazado 197057" d="M2420.581,1287.849l19.283-11.86-.219.793a2.986,2.986,0,0,1-1.2,1.679c-1.573,1.066-5.979,3.917-15.989,9.376a1.986,1.986,0,0,1-1.875.012Z" transform="translate(-2419.475 -1252.475)" fill="#fff" opacity="0.6"/>
          <g id="Grupo_133306" data-name="Grupo 133306" transform="translate(17.441 16.355)" opacity="0.6">
            <path id="Trazado_197058" data-name="Trazado 197058" d="M2436.037,1269.627a1.2,1.2,0,0,0-.736,1.425,1.155,1.155,0,0,0,1.407.741,1.267,1.267,0,0,0,.771-1.512,1.2,1.2,0,0,0-1.549-.61" transform="translate(-2435.258 -1269.558)" fill="#fff"/>
          </g>
          <g id="Grupo_133307" data-name="Grupo 133307" transform="translate(4.36 25.384)">
            <path id="Trazado_197059" data-name="Trazado 197059" d="M2426.78,1280.674a4.285,4.285,0,0,0-3.275-2.913c0-.05.273-.13.728-.071a3.17,3.17,0,0,1,2.533,2.254C2426.877,1280.388,2426.831,1280.672,2426.78,1280.674Z" transform="translate(-2423.505 -1277.669)" fill="#1a2e35"/>
          </g>
          <g id="Grupo_133308" data-name="Grupo 133308" transform="translate(2.419 28.424)">
            <path id="Trazado_197060" data-name="Trazado 197060" d="M2424.954,1282.5c-.111.057-.543-.717-1.434-1.261a16.114,16.114,0,0,0-1.76-.74,2.2,2.2,0,0,1,1.986.38C2424.758,1281.5,2425.065,1282.477,2424.954,1282.5Z" transform="translate(-2421.76 -1280.401)" fill="#1a2e35"/>
          </g>
          <g id="Grupo_133309" data-name="Grupo 133309" transform="translate(6.325 22.326)">
            <path id="Trazado_197061" data-name="Trazado 197061" d="M2429.945,1278.462a10.225,10.225,0,0,0-4.674-3.509,5.435,5.435,0,0,1,4.674,3.509Z" transform="translate(-2425.271 -1274.922)" fill="#1a2e35"/>
          </g>
          <g id="Grupo_133310" data-name="Grupo 133310" transform="translate(8.101 18.552)">
            <path id="Trazado_197062" data-name="Trazado 197062" d="M2431.683,1273.249c-.081.1-.994-.618-2.324-1.038-1.324-.437-2.484-.392-2.493-.519a4.933,4.933,0,0,1,4.817,1.557Z" transform="translate(-2426.865 -1271.531)" fill="#1a2e35"/>
          </g>
          <g id="Grupo_133311" data-name="Grupo 133311" transform="translate(9.407 13.107)">
            <path id="Trazado_197063" data-name="Trazado 197063" d="M2433.081,1268.318a6.317,6.317,0,0,0-5.041-1.209c-.02-.047.249-.225.749-.355a4.332,4.332,0,0,1,3.785.907C2432.96,1268,2433.12,1268.285,2433.081,1268.318Z" transform="translate(-2428.039 -1266.638)" fill="#1a2e35"/>
          </g>
          <g id="Grupo_133312" data-name="Grupo 133312" transform="translate(10.013 8.935)">
            <path id="Trazado_197064" data-name="Trazado 197064" d="M2430.95,1266.562a1.678,1.678,0,0,1,.17-.715,5.1,5.1,0,0,1,1.074-1.7,2.263,2.263,0,0,1,1.221-.781.8.8,0,0,1,.82.412,1.294,1.294,0,0,1,.062.925,2.808,2.808,0,0,1-3.065,1.849,3.256,3.256,0,0,1-2.629-2.5,1.125,1.125,0,0,1,.2-.919.782.782,0,0,1,.9-.181,2.772,2.772,0,0,1,1.054.98,5.674,5.674,0,0,1,.874,1.8,1.722,1.722,0,0,1,.109.725,9.031,9.031,0,0,0-1.223-2.348,2.593,2.593,0,0,0-.939-.832.42.42,0,0,0-.492.1.782.782,0,0,0-.094.613,2.908,2.908,0,0,0,2.3,2.137,2.439,2.439,0,0,0,2.624-1.532.942.942,0,0,0-.015-.648.435.435,0,0,0-.45-.234,2.046,2.046,0,0,0-1.046.643A7.5,7.5,0,0,0,2430.95,1266.562Z" transform="translate(-2428.584 -1262.89)" fill="#1a2e35"/>
          </g>
        </g>
        <g id="Grupo_133340" data-name="Grupo 133340" transform="translate(97.613 264.286)">
          <g id="Grupo_133333" data-name="Grupo 133333">
            <g id="Grupo_133315" data-name="Grupo 133315">
              <g id="Grupo_133314" data-name="Grupo 133314">
                <path id="Trazado_197065" data-name="Trazado 197065" d="M2489.9,1257.135l-1.047,15.8s15.722,5.218,15.813,8.156l-30.718.221.621-24.679Z" transform="translate(-2473.953 -1256.63)" fill="#ffb30b"/>
              </g>
            </g>
            <g id="Grupo_133318" data-name="Grupo 133318" transform="translate(4.522 14.64)" opacity="0.6">
              <g id="Grupo_133317" data-name="Grupo 133317">
                <g id="Grupo_133316" data-name="Grupo 133316">
                  <path id="Trazado_197066" data-name="Trazado 197066" d="M2478.946,1269.829a1.255,1.255,0,0,0-.91,1.4,1.205,1.205,0,0,0,1.385.914,1.323,1.323,0,0,0,.956-1.492,1.252,1.252,0,0,0-1.545-.791" transform="translate(-2478.016 -1269.784)" fill="#fff"/>
                </g>
              </g>
            </g>
            <g id="Grupo_133320" data-name="Grupo 133320" transform="translate(0 22.191)" opacity="0.6">
              <g id="Grupo_133319" data-name="Grupo 133319">
                <path id="Trazado_197067" data-name="Trazado 197067" d="M2473.953,1279.058l.063-2.489,29.668.819a2.124,2.124,0,0,1,1.144,1.668Z" transform="translate(-2473.953 -1276.569)" fill="#fff"/>
              </g>
            </g>
            <g id="Grupo_133323" data-name="Grupo 133323" transform="translate(12.559 16.006)">
              <g id="Grupo_133322" data-name="Grupo 133322">
                <g id="Grupo_133321" data-name="Grupo 133321">
                  <path id="Trazado_197068" data-name="Trazado 197068" d="M2488.086,1271.166c-.01.15-.761.195-1.514.656-.765.44-1.164,1.077-1.3,1.014-.138-.033.114-.923,1.034-1.464S2488.123,1271.029,2488.086,1271.166Z" transform="translate(-2485.237 -1271.011)" fill="#1a2e35"/>
                </g>
              </g>
            </g>
            <g id="Grupo_133326" data-name="Grupo 133326" transform="translate(16.491 17.523)">
              <g id="Grupo_133325" data-name="Grupo 133325">
                <g id="Grupo_133324" data-name="Grupo 133324">
                  <path id="Trazado_197069" data-name="Trazado 197069" d="M2490.867,1272.441c.03.147-.627.382-1.155,1-.547.6-.7,1.285-.845,1.274-.142.019-.219-.863.452-1.619S2490.868,1272.3,2490.867,1272.441Z" transform="translate(-2488.77 -1272.375)" fill="#1a2e35"/>
                </g>
              </g>
            </g>
            <g id="Grupo_133329" data-name="Grupo 133329" transform="translate(20.136 18.946)">
              <g id="Grupo_133328" data-name="Grupo 133328">
                <g id="Grupo_133327" data-name="Grupo 133327">
                  <path id="Trazado_197070" data-name="Trazado 197070" d="M2492.208,1276.206c-.137.028-.323-.728.087-1.537s1.121-1.115,1.181-.988c.081.126-.387.553-.714,1.222S2492.357,1276.2,2492.208,1276.206Z" transform="translate(-2492.045 -1273.653)" fill="#1a2e35"/>
                </g>
              </g>
            </g>
            <g id="Grupo_133332" data-name="Grupo 133332" transform="translate(12.05 11.95)">
              <g id="Grupo_133331" data-name="Grupo 133331">
                <g id="Grupo_133330" data-name="Grupo 133330">
                  <path id="Trazado_197071" data-name="Trazado 197071" d="M2487.977,1267.951c-.067.135-.748-.093-1.6-.061-.851.014-1.518.279-1.593.148-.083-.11.578-.647,1.578-.67S2488.054,1267.835,2487.977,1267.951Z" transform="translate(-2484.78 -1267.367)" fill="#1a2e35"/>
                </g>
              </g>
            </g>
          </g>
          <g id="Grupo_133336" data-name="Grupo 133336" transform="translate(10.785 6.752)">
            <g id="Grupo_133335" data-name="Grupo 133335">
              <g id="Grupo_133334" data-name="Grupo 133334">
                <path id="Trazado_197072" data-name="Trazado 197072" d="M2488.257,1265.288a2.874,2.874,0,0,1-1.537-.055,6.9,6.9,0,0,1-1.594-.543,7.048,7.048,0,0,1-.869-.5,1.878,1.878,0,0,1-.453-.375.655.655,0,0,1-.045-.8.826.826,0,0,1,.667-.323,2.006,2.006,0,0,1,.574.1,5.413,5.413,0,0,1,2.336,1.33c.692.681.918,1.249.866,1.275-.069.048-.4-.432-1.11-1a6.169,6.169,0,0,0-1.348-.814,5.642,5.642,0,0,0-.875-.3c-.323-.1-.6-.106-.687.037-.032.053-.037.076.028.173a1.538,1.538,0,0,0,.334.275,8.129,8.129,0,0,0,.8.489,8.551,8.551,0,0,0,1.469.615A10.485,10.485,0,0,1,2488.257,1265.288Z" transform="translate(-2483.643 -1262.697)" fill="#1a2e35"/>
              </g>
            </g>
          </g>
          <g id="Grupo_133339" data-name="Grupo 133339" transform="translate(14.836 4.71)">
            <g id="Grupo_133338" data-name="Grupo 133338">
              <g id="Grupo_133337" data-name="Grupo 133337">
                <path id="Trazado_197073" data-name="Trazado 197073" d="M2487.645,1265.7a2.451,2.451,0,0,1-.36-1.5,4.971,4.971,0,0,1,.68-2.6,1.269,1.269,0,0,1,1-.747.719.719,0,0,1,.63.447,2.106,2.106,0,0,1,.14.569,3.412,3.412,0,0,1-.03,1.036,3.541,3.541,0,0,1-.7,1.568c-.625.777-1.256.937-1.267.886-.046-.077.484-.349.966-1.1a3.518,3.518,0,0,0,.53-1.43,3.154,3.154,0,0,0,0-.889c-.038-.327-.152-.594-.276-.564-.152-.008-.419.23-.553.487a5.018,5.018,0,0,0-.405.821,5.557,5.557,0,0,0-.345,1.525C2487.583,1265.118,2487.727,1265.684,2487.645,1265.7Z" transform="translate(-2487.283 -1260.862)" fill="#1a2e35"/>
              </g>
            </g>
          </g>
        </g>
        <g id="Grupo_133342" data-name="Grupo 133342" transform="translate(44.146 127.209)">
          <g id="Grupo_133341" data-name="Grupo 133341">
            <path id="Trazado_197074" data-name="Trazado 197074" d="M2495.333,1133.818l-46.8-.352-22.617,148.546,19.425,2.465,24.894-122.14,7.451,122.575.02.365,21.007-.367Z" transform="translate(-2425.912 -1133.466)" fill="#1a2e35"/>
          </g>
        </g>
        <g id="Grupo_133343" data-name="Grupo 133343" transform="translate(70.957 125.467)">
          <path id="Trazado_197075" data-name="Trazado 197075" d="M2487.117,1131.906a8.975,8.975,0,0,1-1.391.522c-.9.316-2.235.7-3.9,1.1a56.306,56.306,0,0,1-5.911,1.091,58.16,58.16,0,0,1-14.7.042,56.66,56.66,0,0,1-5.919-1.057c-1.665-.394-3-.77-3.9-1.082a8.728,8.728,0,0,1-1.394-.514,8.946,8.946,0,0,1,1.446.335c.918.256,2.259.58,3.924.929s3.664.686,5.9.95a62.832,62.832,0,0,0,14.594-.042c2.23-.277,4.229-.616,5.891-.983s3-.691,3.918-.952A8.656,8.656,0,0,1,2487.117,1131.906Z" transform="translate(-2450.002 -1131.901)" fill="#1a2e35"/>
        </g>
        <g id="Grupo_133430" data-name="Grupo 133430" transform="translate(78.272)">
          <g id="Grupo_133373" data-name="Grupo 133373">
            <g id="Grupo_133344" data-name="Grupo 133344" transform="translate(2.406)">
              <path id="Trazado_197076" data-name="Trazado 197076" d="M2460.423,1037.68a27.472,27.472,0,0,1-1.539-5.182,9.213,9.213,0,0,1,.565-5.305,5.585,5.585,0,0,1,4.058-3.248,21.183,21.183,0,0,0,3.323-.262c1.23-.388,2.091-1.46,3.074-2.3a9.4,9.4,0,0,1,5.514-2.206,5.6,5.6,0,0,1,3.073.593,3.14,3.14,0,0,1,1.662,2.537,14.9,14.9,0,0,1,3.823-.731,5.027,5.027,0,0,1,3.593,1.25,3.069,3.069,0,0,1,.675,3.567,2.491,2.491,0,0,1,3.161,1.054,3.209,3.209,0,0,1-.368,3.455,6,6,0,0,1-3.671,1.889,8.7,8.7,0,0,1-3.786-.287" transform="translate(-2458.736 -1019.168)" fill="#1a2e35"/>
            </g>
            <g id="Grupo_133371" data-name="Grupo 133371" transform="translate(0 8.719)">
              <g id="Grupo_133370" data-name="Grupo 133370">
                <g id="Grupo_133357" data-name="Grupo 133357" transform="translate(4.448)">
                  <g id="Grupo_133356" data-name="Grupo 133356">
                    <g id="Grupo_133355" data-name="Grupo 133355">
                      <g id="Grupo_133349" data-name="Grupo 133349">
                        <g id="Grupo_133348" data-name="Grupo 133348">
                          <g id="Grupo_133347" data-name="Grupo 133347">
                            <g id="Grupo_133346" data-name="Grupo 133346">
                              <g id="Grupo_133345" data-name="Grupo 133345">
                                <path id="Trazado_197077" data-name="Trazado 197077" d="M2469.595,1076.587h0a9.077,9.077,0,0,0,9.98-9.28c-.08-2.931-.141-5.435-.129-5.791,0,0,7.3-.785,7.734-8.027s-.039-23.943-.039-23.943h0a25.216,25.216,0,0,0-25.457,1.986l-1.113.777.857,35.467A9.074,9.074,0,0,0,2469.595,1076.587Z" transform="translate(-2460.571 -1027.002)" fill="#b78876"/>
                              </g>
                            </g>
                          </g>
                        </g>
                      </g>
                      <g id="Grupo_133354" data-name="Grupo 133354" transform="translate(9.571 31.278)">
                        <g id="Grupo_133353" data-name="Grupo 133353">
                          <g id="Grupo_133352" data-name="Grupo 133352">
                            <g id="Grupo_133351" data-name="Grupo 133351">
                              <g id="Grupo_133350" data-name="Grupo 133350">
                                <path id="Trazado_197078" data-name="Trazado 197078" d="M2478.492,1058.237a16.865,16.865,0,0,1-9.321-3.131s1.987,5.321,9.249,5.01Z" transform="translate(-2469.171 -1055.106)" fill="#aa6550"/>
                              </g>
                            </g>
                          </g>
                        </g>
                      </g>
                    </g>
                  </g>
                </g>
                <g id="Grupo_133369" data-name="Grupo 133369" transform="translate(0 12.545)">
                  <g id="Grupo_133362" data-name="Grupo 133362">
                    <g id="Grupo_133361" data-name="Grupo 133361">
                      <g id="Grupo_133360" data-name="Grupo 133360">
                        <g id="Grupo_133359" data-name="Grupo 133359">
                          <g id="Grupo_133358" data-name="Grupo 133358">
                            <path id="Trazado_197079" data-name="Trazado 197079" d="M2461.56,1038.583c-.12-.059-4.909-1.708-4.985,3.254s4.921,4.015,4.932,3.872S2461.56,1038.583,2461.56,1038.583Z" transform="translate(-2456.574 -1038.274)" fill="#b78876"/>
                          </g>
                        </g>
                      </g>
                    </g>
                  </g>
                  <g id="Grupo_133368" data-name="Grupo 133368" transform="translate(1.258 1.593)">
                    <g id="Grupo_133367" data-name="Grupo 133367">
                      <g id="Grupo_133366" data-name="Grupo 133366">
                        <g id="Grupo_133365" data-name="Grupo 133365">
                          <g id="Grupo_133364" data-name="Grupo 133364">
                            <g id="Grupo_133363" data-name="Grupo 133363">
                              <path id="Trazado_197080" data-name="Trazado 197080" d="M2459.892,1043.645c-.021-.017-.087.059-.234.124a.861.861,0,0,1-.647,0,2.137,2.137,0,0,1-.96-1.933,2.868,2.868,0,0,1,.26-1.234,1,1,0,0,1,.661-.653.439.439,0,0,1,.507.245c.064.139.031.238.057.247s.108-.081.071-.287a.547.547,0,0,0-.19-.314.653.653,0,0,0-.476-.134,1.212,1.212,0,0,0-.914.756,2.935,2.935,0,0,0-.322,1.378,2.245,2.245,0,0,0,1.229,2.163.93.93,0,0,0,.792-.119C2459.882,1043.765,2459.91,1043.654,2459.892,1043.645Z" transform="translate(-2457.705 -1039.705)" fill="#aa6550"/>
                            </g>
                          </g>
                        </g>
                      </g>
                    </g>
                  </g>
                </g>
              </g>
            </g>
            <g id="Grupo_133372" data-name="Grupo 133372" transform="translate(3.681 6.627)">
              <path id="Trazado_197081" data-name="Trazado 197081" d="M2487.474,1032a17.034,17.034,0,0,1-10.546-1.036c-3.687-1.6-7.92-2.251-8.8-1.48s-.881,4.482-4.381,5.752c0,0,.925,10.453-1.906,10.453-2.082,0-1.955-14.637-1.955-14.637l6.706-3.731,7.438-1.822,7.04-.377,6.654,1.662Z" transform="translate(-2459.882 -1025.123)" fill="#1a2e35"/>
            </g>
          </g>
          <g id="Grupo_133429" data-name="Grupo 133429" transform="translate(13.43 15.663)">
            <g id="Grupo_133428" data-name="Grupo 133428">
              <g id="Grupo_133427" data-name="Grupo 133427">
                <g id="Grupo_133426" data-name="Grupo 133426">
                  <g id="Grupo_133425" data-name="Grupo 133425">
                    <g id="Grupo_133424" data-name="Grupo 133424">
                      <g id="Grupo_133423" data-name="Grupo 133423">
                        <g id="Grupo_133412" data-name="Grupo 133412" transform="translate(0.72 3.995)">
                          <g id="Grupo_133411" data-name="Grupo 133411">
                            <g id="Grupo_133410" data-name="Grupo 133410">
                              <g id="Grupo_133385" data-name="Grupo 133385" transform="translate(11.204)">
                                <g id="Grupo_133378" data-name="Grupo 133378" transform="translate(1.842 1.347)">
                                  <g id="Grupo_133377" data-name="Grupo 133377">
                                    <g id="Grupo_133376" data-name="Grupo 133376">
                                      <g id="Grupo_133375" data-name="Grupo 133375">
                                        <g id="Grupo_133374" data-name="Grupo 133374">
                                          <path id="Trazado_197082" data-name="Trazado 197082" d="M2483.124,1039a1.059,1.059,0,0,1-1.021,1.068,1.014,1.014,0,0,1-1.092-.955,1.059,1.059,0,0,1,1.021-1.07A1.014,1.014,0,0,1,2483.124,1039Z" transform="translate(-2481.009 -1038.042)" fill="#1a2e35"/>
                                        </g>
                                      </g>
                                    </g>
                                  </g>
                                </g>
                                <g id="Grupo_133384" data-name="Grupo 133384">
                                  <g id="Grupo_133383" data-name="Grupo 133383">
                                    <g id="Grupo_133382" data-name="Grupo 133382">
                                      <g id="Grupo_133381" data-name="Grupo 133381">
                                        <g id="Grupo_133380" data-name="Grupo 133380">
                                          <g id="Grupo_133379" data-name="Grupo 133379">
                                            <path id="Trazado_197083" data-name="Trazado 197083" d="M2483.541,1037.945c-.131.138-.934-.456-2.073-.453-1.139-.014-1.974.573-2.1.433-.06-.061.073-.31.437-.576a2.909,2.909,0,0,1,1.681-.517,2.8,2.8,0,0,1,1.65.533C2483.488,1037.632,2483.606,1037.883,2483.541,1037.945Z" transform="translate(-2479.354 -1036.831)" fill="#1a2e35"/>
                                          </g>
                                        </g>
                                      </g>
                                    </g>
                                  </g>
                                </g>
                              </g>
                              <g id="Grupo_133397" data-name="Grupo 133397" transform="translate(0 0.212)">
                                <g id="Grupo_133390" data-name="Grupo 133390" transform="translate(1.884 1.402)">
                                  <g id="Grupo_133389" data-name="Grupo 133389">
                                    <g id="Grupo_133388" data-name="Grupo 133388">
                                      <g id="Grupo_133387" data-name="Grupo 133387">
                                        <g id="Grupo_133386" data-name="Grupo 133386">
                                          <path id="Trazado_197084" data-name="Trazado 197084" d="M2473.093,1039.239a1.058,1.058,0,0,1-1.021,1.068,1.013,1.013,0,0,1-1.092-.955,1.061,1.061,0,0,1,1.02-1.07A1.013,1.013,0,0,1,2473.093,1039.239Z" transform="translate(-2470.98 -1038.281)" fill="#1a2e35"/>
                                        </g>
                                      </g>
                                    </g>
                                  </g>
                                </g>
                                <g id="Grupo_133396" data-name="Grupo 133396">
                                  <g id="Grupo_133395" data-name="Grupo 133395">
                                    <g id="Grupo_133394" data-name="Grupo 133394">
                                      <g id="Grupo_133393" data-name="Grupo 133393">
                                        <g id="Grupo_133392" data-name="Grupo 133392">
                                          <g id="Grupo_133391" data-name="Grupo 133391">
                                            <path id="Trazado_197085" data-name="Trazado 197085" d="M2473.475,1038.136c-.131.138-.935-.456-2.073-.453-1.138-.013-1.975.573-2.1.433-.061-.061.071-.311.437-.575a2.9,2.9,0,0,1,1.679-.519,2.8,2.8,0,0,1,1.651.533C2473.419,1037.824,2473.539,1038.074,2473.475,1038.136Z" transform="translate(-2469.288 -1037.022)" fill="#1a2e35"/>
                                          </g>
                                        </g>
                                      </g>
                                    </g>
                                  </g>
                                </g>
                              </g>
                              <g id="Grupo_133403" data-name="Grupo 133403" transform="translate(7.79 0.282)">
                                <g id="Grupo_133402" data-name="Grupo 133402">
                                  <g id="Grupo_133401" data-name="Grupo 133401">
                                    <g id="Grupo_133400" data-name="Grupo 133400">
                                      <g id="Grupo_133399" data-name="Grupo 133399">
                                        <g id="Grupo_133398" data-name="Grupo 133398">
                                          <path id="Trazado_197086" data-name="Trazado 197086" d="M2476.82,1046.581a7.59,7.59,0,0,1,1.852-.334c.291-.03.567-.088.615-.286a1.475,1.475,0,0,0-.195-.863l-.861-2.216a38.184,38.184,0,0,1-1.933-5.8,38.121,38.121,0,0,1,2.4,5.627c.288.779.563,1.52.824,2.23a1.683,1.683,0,0,1,.151,1.142.733.733,0,0,1-.479.425,2,2,0,0,1-.5.069A7.325,7.325,0,0,1,2476.82,1046.581Z" transform="translate(-2476.287 -1037.084)" fill="#1a2e35"/>
                                        </g>
                                      </g>
                                    </g>
                                  </g>
                                </g>
                              </g>
                              <g id="Grupo_133409" data-name="Grupo 133409" transform="translate(4.784 10.567)">
                                <g id="Grupo_133408" data-name="Grupo 133408">
                                  <g id="Grupo_133407" data-name="Grupo 133407">
                                    <g id="Grupo_133406" data-name="Grupo 133406">
                                      <g id="Grupo_133405" data-name="Grupo 133405">
                                        <g id="Grupo_133404" data-name="Grupo 133404">
                                          <path id="Trazado_197087" data-name="Trazado 197087" d="M2473.772,1046.326c.185-.011.187,1.226,1.247,2.1s2.376.742,2.385.915c.018.078-.293.24-.85.255a3.073,3.073,0,0,1-1.991-.693,2.687,2.687,0,0,1-.966-1.764C2473.549,1046.625,2473.687,1046.319,2473.772,1046.326Z" transform="translate(-2473.586 -1046.326)" fill="#1a2e35"/>
                                        </g>
                                      </g>
                                    </g>
                                  </g>
                                </g>
                              </g>
                            </g>
                          </g>
                        </g>
                        <g id="Grupo_133417" data-name="Grupo 133417">
                          <g id="Grupo_133416" data-name="Grupo 133416">
                            <g id="Grupo_133415" data-name="Grupo 133415">
                              <g id="Grupo_133414" data-name="Grupo 133414">
                                <g id="Grupo_133413" data-name="Grupo 133413">
                                  <path id="Trazado_197088" data-name="Trazado 197088" d="M2473.842,1034.1c-.113.31-1.25.164-2.588.325-1.34.134-2.418.525-2.6.247-.08-.132.108-.424.544-.725a4.531,4.531,0,0,1,3.949-.435C2473.644,1033.7,2473.891,1033.949,2473.842,1034.1Z" transform="translate(-2468.641 -1033.242)" fill="#1a2e35"/>
                                </g>
                              </g>
                            </g>
                          </g>
                        </g>
                        <g id="Grupo_133422" data-name="Grupo 133422" transform="translate(11.81 0.629)">
                          <g id="Grupo_133421" data-name="Grupo 133421">
                            <g id="Grupo_133420" data-name="Grupo 133420">
                              <g id="Grupo_133419" data-name="Grupo 133419">
                                <g id="Grupo_133418" data-name="Grupo 133418">
                                  <path id="Trazado_197089" data-name="Trazado 197089" d="M2483.134,1034.988c-.2.258-.986-.01-1.93-.022-.944-.047-1.744.174-1.928-.1-.081-.131.044-.391.394-.635a2.8,2.8,0,0,1,3.108.1C2483.113,1034.595,2483.222,1034.861,2483.134,1034.988Z" transform="translate(-2479.252 -1033.807)" fill="#1a2e35"/>
                                </g>
                              </g>
                            </g>
                          </g>
                        </g>
                      </g>
                    </g>
                  </g>
                </g>
              </g>
            </g>
          </g>
        </g>
        <g id="Grupo_133455" data-name="Grupo 133455" transform="translate(0 52.277)">
          <g id="Grupo_133450" data-name="Grupo 133450" transform="translate(0 39.146)">
            <g id="Grupo_133434" data-name="Grupo 133434">
              <g id="Grupo_133431" data-name="Grupo 133431" transform="translate(0.217 0.217)">
                <rect id="Rectángulo_295028" data-name="Rectángulo 295028" width="136.893" height="55.604" fill="#fff"/>
              </g>
              <g id="Grupo_133433" data-name="Grupo 133433">
                <g id="Grupo_133432" data-name="Grupo 133432">
                  <path id="Trazado_197090" data-name="Trazado 197090" d="M2523.356,1157.133s-.011-.342-.015-.993-.01-1.623-.017-2.885c-.009-2.538-.021-6.265-.037-11.066-.019-9.6-.048-23.479-.083-40.66l.152.153-136.884.064h-.009l.216-.217c0,19.473-.005,38.267-.009,55.6l-.207-.207,98.149.1,28.472.057,7.621.027,1.973.013c.444,0,.677.012.677.012s-.216.009-.652.013l-1.949.012-7.577.027-28.426.058-98.289.1h-.208v-.208c0-17.337-.006-36.131-.009-55.6v-.217h.226l136.884.065h.153v.152c-.036,17.22-.063,31.134-.082,40.753-.017,4.787-.029,8.5-.038,11.032-.008,1.25-.013,2.2-.016,2.857S2523.356,1157.133,2523.356,1157.133Z" transform="translate(-2386.247 -1101.312)" fill="#ffb30b"/>
                </g>
              </g>
            </g>
            <g id="Grupo_133436" data-name="Grupo 133436" transform="translate(0.354 7.499)">
              <g id="Grupo_133435" data-name="Grupo 133435">
                <path id="Trazado_197091" data-name="Trazado 197091" d="M2386.565,1108.267c0-.12,30.6-.217,68.334-.217s68.342.1,68.342.217-30.592.216-68.342.216S2386.565,1108.386,2386.565,1108.267Z" transform="translate(-2386.565 -1108.05)" fill="#ffb30b"/>
              </g>
            </g>
            <g id="Grupo_133440" data-name="Grupo 133440" transform="translate(4.097 3.369)">
              <g id="Grupo_133437" data-name="Grupo 133437" opacity="0.3">
                <path id="Trazado_197092" data-name="Trazado 197092" d="M2391.916,1105.332a.994.994,0,1,1-.994-.993A.994.994,0,0,1,2391.916,1105.332Z" transform="translate(-2389.928 -1104.339)" fill="#ffb30b"/>
              </g>
              <g id="Grupo_133438" data-name="Grupo 133438" transform="translate(3.405)" opacity="0.3">
                <path id="Trazado_197093" data-name="Trazado 197093" d="M2394.974,1105.332a.993.993,0,1,1-.993-.993A.993.993,0,0,1,2394.974,1105.332Z" transform="translate(-2392.987 -1104.339)" fill="#ffb30b"/>
              </g>
              <g id="Grupo_133439" data-name="Grupo 133439" transform="translate(6.76)" opacity="0.3">
                <path id="Trazado_197094" data-name="Trazado 197094" d="M2397.989,1105.332a.993.993,0,1,1-.993-.993A.994.994,0,0,1,2397.989,1105.332Z" transform="translate(-2396.002 -1104.339)" fill="#ffb30b"/>
              </g>
            </g>
            <g id="Grupo_133441" data-name="Grupo 133441" transform="translate(11.85 16.754)">
              <rect id="Rectángulo_295029" data-name="Rectángulo 295029" width="33.065" height="33.065" fill="#ffb30b"/>
            </g>
            <g id="Grupo_133442" data-name="Grupo 133442" transform="translate(11.85 16.754)" opacity="0.5">
              <rect id="Rectángulo_295030" data-name="Rectángulo 295030" width="33.065" height="33.065" fill="#fff"/>
            </g>
            <g id="Grupo_133449" data-name="Grupo 133449" transform="translate(51.636 25.398)">
              <g id="Grupo_133444" data-name="Grupo 133444">
                <g id="Grupo_133443" data-name="Grupo 133443">
                  <path id="Trazado_197095" data-name="Trazado 197095" d="M2508.644,1124.348c0,.12-17.015.217-38,.217s-38-.1-38-.217,17.012-.216,38-.216S2508.644,1124.229,2508.644,1124.348Z" transform="translate(-2432.642 -1124.132)" fill="#ffb30b"/>
                </g>
              </g>
              <g id="Grupo_133446" data-name="Grupo 133446" transform="translate(0 6.736)">
                <g id="Grupo_133445" data-name="Grupo 133445">
                  <path id="Trazado_197096" data-name="Trazado 197096" d="M2508.644,1130.4c0,.119-17.015.217-38,.217s-38-.1-38-.217,17.012-.217,38-.217S2508.644,1130.281,2508.644,1130.4Z" transform="translate(-2432.642 -1130.184)" fill="#ffb30b"/>
                </g>
              </g>
              <g id="Grupo_133448" data-name="Grupo 133448" transform="translate(0 13.471)">
                <g id="Grupo_133447" data-name="Grupo 133447">
                  <path id="Trazado_197097" data-name="Trazado 197097" d="M2481.568,1136.453a2.166,2.166,0,0,1-.5.043l-1.425.041-5.242.069-17.3.063-17.3-.063-5.244-.069-1.424-.041a.251.251,0,1,1,0-.087l1.424-.041,5.244-.069c4.479-.015,10.567-.039,17.3-.063,6.728.025,12.818.048,17.3.063l5.242.069,1.425.041A2.16,2.16,0,0,1,2481.568,1136.453Z" transform="translate(-2432.642 -1136.236)" fill="#ffb30b"/>
                </g>
              </g>
            </g>
          </g>
          <g id="Grupo_133452" data-name="Grupo 133452" transform="translate(52.267)">
            <g id="Grupo_133451" data-name="Grupo 133451">
              <path id="Trazado_197098" data-name="Trazado 197098" d="M2451.366,1066.139s-6.675,3.438-9.638,15.774c-1.462,6.085-7.511,25.883-8.484,36.953-.6,6.878,6.9,13.29,13.734,14.3.1.016.208.023.312.045,14.2,2.847,27.922-1.008,27.922-1.008l-2.86-12.956s-18.14-3.516-20.452-4.6l7.038-27.824S2464.2,1067.325,2451.366,1066.139Z" transform="translate(-2433.209 -1066.139)" fill="#375a64"/>
            </g>
          </g>
          <g id="Grupo_133453" data-name="Grupo 133453" transform="translate(64.64 2.791)">
            <path id="Trazado_197099" data-name="Trazado 197099" d="M2451.759,1068.649a1.059,1.059,0,0,1,.251.031c.165.031.413.066.732.144a8.156,8.156,0,0,1,2.619,1.185,7.9,7.9,0,0,1,2.768,3.612,15.214,15.214,0,0,1,.923,6.011,23.23,23.23,0,0,1-.365,3.546c-.255,1.228-.6,2.453-.909,3.753-.648,2.588-1.341,5.36-2.073,8.286-1.473,5.859-3.1,12.336-4.83,19.2l-.166-.287c2.125.6,4.383,1.194,6.68,1.763,2.408.591,4.79,1.134,7.138,1.583,1.175.218,2.341.421,3.5.562a17.282,17.282,0,0,1,1.752.256,4.743,4.743,0,0,1,.869.276,1.627,1.627,0,0,1,.747.629,5.375,5.375,0,0,1,.577,1.681q.182.83.363,1.647c.227,1.093.423,2.172.613,3.233.38,2.122.742,4.169,1.214,6.1l.05.2-.2.05a67.6,67.6,0,0,1-21.527,1.774,51.89,51.89,0,0,1-8.154-1.212,3.385,3.385,0,0,1,.548.066l1.585.249c1.389.2,3.431.476,6.039.649a69.08,69.08,0,0,0,21.407-1.934l-.153.255c-.485-1.949-.858-4.006-1.244-6.124-.195-1.06-.393-2.136-.621-3.221q-.181-.81-.365-1.633a5.038,5.038,0,0,0-.515-1.53,1.956,1.956,0,0,0-1.332-.706,16.974,16.974,0,0,0-1.706-.245c-1.172-.141-2.346-.343-3.528-.562-2.362-.448-4.751-.992-7.166-1.584-2.3-.571-4.563-1.168-6.7-1.771l-.222-.063.057-.224c1.745-6.864,3.392-13.336,4.88-19.19.748-2.923,1.456-5.689,2.118-8.275.32-1.289.676-2.54.931-3.726a22.988,22.988,0,0,0,.39-3.49,15.075,15.075,0,0,0-.836-5.91,7.792,7.792,0,0,0-2.636-3.563,8.505,8.505,0,0,0-2.542-1.24c-.312-.091-.555-.14-.717-.186A1.153,1.153,0,0,1,2451.759,1068.649Z" transform="translate(-2444.326 -1068.647)" fill="#1a2e35"/>
          </g>
          <g id="Grupo_133454" data-name="Grupo 133454" transform="translate(62.227 48.437)">
            <path id="Trazado_197100" data-name="Trazado 197100" d="M2442.17,1115.195a3.311,3.311,0,0,1,.491-1.584,7.517,7.517,0,0,1,6.636-3.949,3.3,3.3,0,0,1,1.626.325c-.018.082-.634-.043-1.619.015a8.168,8.168,0,0,0-6.35,3.777C2442.435,1114.617,2442.25,1115.219,2442.17,1115.195Z" transform="translate(-2442.158 -1109.66)" fill="#1a2e35"/>
          </g>
        </g>
        <g id="Grupo_133463" data-name="Grupo 133463" transform="translate(92.168 96.407)">
          <g id="Grupo_133456" data-name="Grupo 133456">
            <path id="Trazado_197101" data-name="Trazado 197101" d="M2469.06,1115.924l5.233-.575a28.72,28.72,0,0,1,3.566-4.816c1.414-1.246,8.72-4.742,8.72-4.742a2.019,2.019,0,0,1,0,2.564,31.722,31.722,0,0,1-3.936,2.52h0a1.993,1.993,0,0,0,2.274,2.513c2.139-.393,4.632-.837,4.961-.837.365,0,2.5-2.021,4.07-3.555a1.332,1.332,0,0,1,2.245,1.221.657.657,0,0,1-.188.316s2.254-.08.244,2.95c0,0,.464,2.8-1.186,4.079,0,0-.712,3.381-1.773,4.547s-11.422,3.38-11.422,3.38l-10.795,1.048Z" transform="translate(-2469.06 -1105.79)" fill="#b78876"/>
          </g>
          <g id="Grupo_133458" data-name="Grupo 133458" transform="translate(16.785 4.696)">
            <g id="Grupo_133457" data-name="Grupo 133457">
              <path id="Trazado_197102" data-name="Trazado 197102" d="M2484.141,1116.119a6.242,6.242,0,0,0,1.854.046,9.731,9.731,0,0,0,4.357-1.145,9.021,9.021,0,0,0,3.034-3.331,6.137,6.137,0,0,0,.791-1.677,8.54,8.54,0,0,0-1.077,1.5,10.082,10.082,0,0,1-2.992,3.1,11.025,11.025,0,0,1-4.144,1.22A8.3,8.3,0,0,0,2484.141,1116.119Z" transform="translate(-2484.141 -1110.01)" fill="#aa6550"/>
            </g>
          </g>
          <g id="Grupo_133460" data-name="Grupo 133460" transform="translate(17.853 7.763)">
            <g id="Grupo_133459" data-name="Grupo 133459">
              <path id="Trazado_197103" data-name="Trazado 197103" d="M2485.1,1118.209a3.48,3.48,0,0,0,1.692.133,12.051,12.051,0,0,0,1.827-.266,5.706,5.706,0,0,0,2.135-.871,9.843,9.843,0,0,0,1.59-1.632c.394-.492.772-.964,1.14-1.42a.847.847,0,1,0-.257-.22c-.353.378-.773.838-1.22,1.356a11.248,11.248,0,0,1-1.538,1.534,5.834,5.834,0,0,1-1.955.827,17.322,17.322,0,0,1-1.758.357C2485.743,1118.164,2485.11,1118.142,2485.1,1118.209Z" transform="translate(-2485.101 -1112.765)" fill="#aa6550"/>
            </g>
          </g>
          <g id="Grupo_133462" data-name="Grupo 133462" transform="translate(19.309 11.771)">
            <g id="Grupo_133461" data-name="Grupo 133461">
              <path id="Trazado_197104" data-name="Trazado 197104" d="M2486.409,1120.473c.031.191,1.884-.2,4.073-.811a1.879,1.879,0,0,0,.8-.485,6.3,6.3,0,0,0,.563-.573,7.745,7.745,0,0,0,.8-1.082c.4-.658.513-1.134.455-1.154s-.279.382-.734.963a11.992,11.992,0,0,1-.847.975c-.168.175-.351.352-.547.519a1.526,1.526,0,0,1-.611.374c-1.119.3-2.1.615-2.815.846A5.171,5.171,0,0,0,2486.409,1120.473Z" transform="translate(-2486.409 -1116.366)" fill="#aa6550"/>
            </g>
          </g>
        </g>
      </g>
      <g id="Grupo_133636" data-name="Grupo 133636" transform="translate(2513.672 1002.257)">
        <g id="Grupo_133470" data-name="Grupo 133470" transform="translate(22.872)">
          <g id="Grupo_133469" data-name="Grupo 133469">
            <g id="Grupo_133468" data-name="Grupo 133468">
              <g id="Grupo_133467" data-name="Grupo 133467">
                <g id="Grupo_133466" data-name="Grupo 133466">
                  <g id="Grupo_133465" data-name="Grupo 133465">
                    <path id="Trazado_197105" data-name="Trazado 197105" d="M2650.234,1002.494s.2,0,.584.017a12.57,12.57,0,0,1,1.729.135,16.048,16.048,0,0,1,6.4,2.209,16.348,16.348,0,0,1,3.892,3.154,17.04,17.04,0,0,1,3.249,5.092,17.664,17.664,0,0,1,1.278,6.925q0,3.778.009,8.041c.013,22.73.033,55.611.058,96.241.007,40.633.015,89.015.023,142.735v25.565a18.24,18.24,0,0,1-.653,5.2,17.259,17.259,0,0,1-2.179,4.807,18.469,18.469,0,0,1-3.552,3.943,17.254,17.254,0,0,1-9.85,3.823c-3.577.1-7.128.027-10.721.048q-10.76,0-21.724-.01l-44.583-.022-22.8-.012-11.517-.007a18.017,18.017,0,0,1-11.109-3.067,17.457,17.457,0,0,1-6.761-9.339,18.8,18.8,0,0,1-.712-5.77q0-2.881,0-5.752,0-11.483.006-22.809.007-22.649.012-44.6c.011-29.237.021-57.439.03-84.3s.026-52.394.038-76.286q.01-17.918.02-34.571,0-2.08,0-4.138c.009-.687.059-1.382.1-2.069.12-.679.172-1.369.348-2.032a17.445,17.445,0,0,1,3.588-7.227,17.306,17.306,0,0,1,13.909-6.163l14.869.017,7.153.009,3.5,0a5.452,5.452,0,0,1,3.357.938,5.633,5.633,0,0,1,2.087,2.739,9.152,9.152,0,0,1,.346,3.369q0,.833,0,1.661a12.439,12.439,0,0,0,.052,1.626,5.4,5.4,0,0,0,1.274,2.856,5.027,5.027,0,0,0,2.607,1.618,5.765,5.765,0,0,0,1.537.151l1.573,0,6.156.009,22.493.032,9.916.017c.782-.013,1.579.036,2.323-.029a5.028,5.028,0,0,0,2.088-.735,5.4,5.4,0,0,0,2.392-3.437,9.494,9.494,0,0,0,.133-2.071q0-1.035,0-2.041a11.643,11.643,0,0,1,.09-1.989,5.746,5.746,0,0,1,.643-1.828,5.381,5.381,0,0,1,2.723-2.406,8.531,8.531,0,0,1,3.388-.362l11.064.029,6.8.028c1.533.009,2.319.027,2.319.027s-.786.016-2.319.022-3.816.011-6.8.02l-11.064.017a8.438,8.438,0,0,0-3.331.362,5.225,5.225,0,0,0-2.635,2.344,5.623,5.623,0,0,0-.62,1.776,11.591,11.591,0,0,0-.081,1.96l0,2.041a9.693,9.693,0,0,1-.132,2.11,5.591,5.591,0,0,1-2.469,3.565,5.225,5.225,0,0,1-2.17.769c-.79.069-1.554.02-2.346.035l-9.916,0-22.493.007h-7.728a6.115,6.115,0,0,1-1.6-.157,5.32,5.32,0,0,1-2.755-1.705,5.678,5.678,0,0,1-1.346-3.006,12.385,12.385,0,0,1-.058-1.664q0-.826,0-1.661a8.88,8.88,0,0,0-.333-3.267,5.334,5.334,0,0,0-1.977-2.591,5.147,5.147,0,0,0-3.184-.879H2539.34a16.966,16.966,0,0,0-13.636,6.052,17.087,17.087,0,0,0-3.507,7.08c-.172.649-.221,1.326-.339,1.99-.036.676-.083,1.348-.093,2.031q0,2.058,0,4.138,0,16.634.007,34.572c0,23.891,0,49.42.006,76.285s0,55.067,0,84.3q0,21.928,0,44.6,0,11.324,0,22.809v5.752a18.3,18.3,0,0,0,.692,5.635,16.983,16.983,0,0,0,6.574,9.079,17.543,17.543,0,0,0,10.836,2.983l11.517.007,22.8.015,44.583.029,21.724.016c3.58-.021,7.172.058,10.693-.044a16.8,16.8,0,0,0,9.588-3.719,18,18,0,0,0,3.461-3.838,16.834,16.834,0,0,0,2.122-4.679,17.762,17.762,0,0,0,.638-5.081q0-2.594,0-5.173.005-10.315.009-20.392c.029-53.721.057-102.1.079-142.735.04-40.63.072-73.511.094-96.241q.007-4.26.012-8.041a17.506,17.506,0,0,0-1.244-6.87,16.993,16.993,0,0,0-3.2-5.066,17.028,17.028,0,0,0-10.209-5.4,13.759,13.759,0,0,0-1.723-.158C2650.429,1002.512,2650.234,1002.494,2650.234,1002.494Z" transform="translate(-2521.289 -1002.257)" fill="#ffb30b"/>
                  </g>
                </g>
              </g>
            </g>
          </g>
        </g>
        <g id="Grupo_133496" data-name="Grupo 133496" transform="translate(42.006 45.37)">
          <g id="Grupo_133495" data-name="Grupo 133495" transform="translate(0.726 1.143)">
            <g id="Grupo_133471" data-name="Grupo 133471" transform="translate(109.212 35.024)">
              <path id="Trazado_197106" data-name="Trazado 197106" d="M2637.261,1078.741a11.051,11.051,0,0,1,3.223-.239c-.479.479-.134.131-.24.238h0v-.327l0-.319.013-.605c.012-.386.03-.733.051-1.025.044-.583.1-.944.17-.944s.126.361.169.944c.022.292.039.639.051,1.025.006.207.01.406.014.605l0,.319v.327h0c-.107.108.24-.238-.239.241A11.014,11.014,0,0,1,2637.261,1078.741Z" transform="translate(-2637.261 -1075.518)" fill="#ffb30b"/>
            </g>
            <g id="Grupo_133472" data-name="Grupo 133472" transform="translate(96.774 38.008)">
              <path id="Trazado_197107" data-name="Trazado 197107" d="M2626.085,1078.438a20.327,20.327,0,0,1,6.219,0,20.225,20.225,0,0,1-6.219,0Z" transform="translate(-2626.085 -1078.199)" fill="#ffb30b"/>
            </g>
            <g id="Grupo_133473" data-name="Grupo 133473" transform="translate(84.335 38.008)">
              <path id="Trazado_197108" data-name="Trazado 197108" d="M2614.909,1078.438a20.327,20.327,0,0,1,6.219,0,20.225,20.225,0,0,1-6.219,0Z" transform="translate(-2614.909 -1078.199)" fill="#ffb30b"/>
            </g>
            <g id="Grupo_133474" data-name="Grupo 133474" transform="translate(71.897 38.008)">
              <path id="Trazado_197109" data-name="Trazado 197109" d="M2603.733,1078.438a20.329,20.329,0,0,1,6.219,0,20.227,20.227,0,0,1-6.219,0Z" transform="translate(-2603.733 -1078.199)" fill="#ffb30b"/>
            </g>
            <g id="Grupo_133475" data-name="Grupo 133475" transform="translate(59.458 38.008)">
              <path id="Trazado_197110" data-name="Trazado 197110" d="M2592.557,1078.438a20.329,20.329,0,0,1,6.219,0,20.227,20.227,0,0,1-6.219,0Z" transform="translate(-2592.557 -1078.199)" fill="#ffb30b"/>
            </g>
            <g id="Grupo_133476" data-name="Grupo 133476" transform="translate(47.02 38.008)">
              <path id="Trazado_197111" data-name="Trazado 197111" d="M2581.381,1078.438a20.327,20.327,0,0,1,6.219,0,20.225,20.225,0,0,1-6.219,0Z" transform="translate(-2581.381 -1078.199)" fill="#ffb30b"/>
            </g>
            <g id="Grupo_133477" data-name="Grupo 133477" transform="translate(34.582 38.008)">
              <path id="Trazado_197112" data-name="Trazado 197112" d="M2570.205,1078.438a20.324,20.324,0,0,1,6.219,0,20.222,20.222,0,0,1-6.219,0Z" transform="translate(-2570.205 -1078.199)" fill="#ffb30b"/>
            </g>
            <g id="Grupo_133478" data-name="Grupo 133478" transform="translate(22.143 38.008)">
              <path id="Trazado_197113" data-name="Trazado 197113" d="M2559.029,1078.438a20.326,20.326,0,0,1,6.219,0,20.224,20.224,0,0,1-6.219,0Z" transform="translate(-2559.029 -1078.199)" fill="#ffb30b"/>
            </g>
            <g id="Grupo_133479" data-name="Grupo 133479" transform="translate(9.704 38.008)">
              <path id="Trazado_197114" data-name="Trazado 197114" d="M2547.853,1078.438a20.326,20.326,0,0,1,6.219,0,20.224,20.224,0,0,1-6.219,0Z" transform="translate(-2547.853 -1078.199)" fill="#ffb30b"/>
            </g>
            <g id="Grupo_133480" data-name="Grupo 133480" transform="translate(0.022 35.024)">
              <path id="Trazado_197115" data-name="Trazado 197115" d="M2539.393,1075.518a11.044,11.044,0,0,1,.24,3.223c-.479-.479-.131-.132-.238-.239h.328l.319,0,.606.014c.386.012.733.029,1.025.051.583.043.944.1.944.169s-.36.127-.944.17c-.292.021-.639.039-1.025.051l-.606.013-.319,0h-.328c-.108-.108.238.239-.242-.24A11.038,11.038,0,0,1,2539.393,1075.518Z" transform="translate(-2539.153 -1075.518)" fill="#ffb30b"/>
            </g>
            <g id="Grupo_133481" data-name="Grupo 133481" transform="translate(0.022 22.408)">
              <path id="Trazado_197116" data-name="Trazado 197116" d="M2539.393,1064.183a20.819,20.819,0,1,1-.24,3.154A10.583,10.583,0,0,1,2539.393,1064.183Z" transform="translate(-2539.153 -1064.183)" fill="#ffb30b"/>
            </g>
            <g id="Grupo_133482" data-name="Grupo 133482" transform="translate(0.022 9.793)">
              <path id="Trazado_197117" data-name="Trazado 197117" d="M2539.393,1052.848a20.825,20.825,0,1,1-.24,3.154A10.581,10.581,0,0,1,2539.393,1052.848Z" transform="translate(-2539.153 -1052.848)" fill="#ffb30b"/>
            </g>
            <g id="Grupo_133483" data-name="Grupo 133483" transform="translate(0 0.022)">
              <path id="Trazado_197118" data-name="Trazado 197118" d="M2542.618,1044.308a11.041,11.041,0,0,1-3.223.24c.479-.48.133-.132.24-.239v.328l0,.321-.015.605c-.012.385-.029.732-.051,1.024-.044.583-.1.945-.169.945s-.127-.362-.169-.945c-.022-.292-.04-.639-.052-1.024l-.013-.605,0-.321v-.328c.108-.107-.24.239.24-.24A11.045,11.045,0,0,1,2542.618,1044.308Z" transform="translate(-2539.133 -1044.069)" fill="#ffb30b"/>
            </g>
            <g id="Grupo_133484" data-name="Grupo 133484" transform="translate(9.704 0.022)">
              <path id="Trazado_197119" data-name="Trazado 197119" d="M2554.072,1044.308a20.244,20.244,0,0,1-6.219,0,20.316,20.316,0,0,1,6.219,0Z" transform="translate(-2547.853 -1044.069)" fill="#ffb30b"/>
            </g>
            <g id="Grupo_133485" data-name="Grupo 133485" transform="translate(22.143 0.022)">
              <path id="Trazado_197120" data-name="Trazado 197120" d="M2565.248,1044.308a20.244,20.244,0,0,1-6.219,0,20.316,20.316,0,0,1,6.219,0Z" transform="translate(-2559.029 -1044.069)" fill="#ffb30b"/>
            </g>
            <g id="Grupo_133486" data-name="Grupo 133486" transform="translate(34.582 0.022)">
              <path id="Trazado_197121" data-name="Trazado 197121" d="M2576.424,1044.308a20.243,20.243,0,0,1-6.219,0,20.314,20.314,0,0,1,6.219,0Z" transform="translate(-2570.205 -1044.069)" fill="#ffb30b"/>
            </g>
            <g id="Grupo_133487" data-name="Grupo 133487" transform="translate(47.02 0.022)">
              <path id="Trazado_197122" data-name="Trazado 197122" d="M2587.6,1044.308a20.246,20.246,0,0,1-6.219,0,20.317,20.317,0,0,1,6.219,0Z" transform="translate(-2581.381 -1044.069)" fill="#ffb30b"/>
            </g>
            <g id="Grupo_133488" data-name="Grupo 133488" transform="translate(59.458 0.022)">
              <path id="Trazado_197123" data-name="Trazado 197123" d="M2598.776,1044.308a20.247,20.247,0,0,1-6.219,0,20.319,20.319,0,0,1,6.219,0Z" transform="translate(-2592.557 -1044.069)" fill="#ffb30b"/>
            </g>
            <g id="Grupo_133489" data-name="Grupo 133489" transform="translate(71.897 0.022)">
              <path id="Trazado_197124" data-name="Trazado 197124" d="M2609.952,1044.308a20.247,20.247,0,0,1-6.219,0,20.319,20.319,0,0,1,6.219,0Z" transform="translate(-2603.733 -1044.069)" fill="#ffb30b"/>
            </g>
            <g id="Grupo_133490" data-name="Grupo 133490" transform="translate(84.335 0.022)">
              <path id="Trazado_197125" data-name="Trazado 197125" d="M2621.128,1044.308a20.246,20.246,0,0,1-6.219,0,20.317,20.317,0,0,1,6.219,0Z" transform="translate(-2614.909 -1044.069)" fill="#ffb30b"/>
            </g>
            <g id="Grupo_133491" data-name="Grupo 133491" transform="translate(96.774 0.022)">
              <path id="Trazado_197126" data-name="Trazado 197126" d="M2632.3,1044.308a20.246,20.246,0,0,1-6.219,0,20.317,20.317,0,0,1,6.219,0Z" transform="translate(-2626.085 -1044.069)" fill="#ffb30b"/>
            </g>
            <g id="Grupo_133492" data-name="Grupo 133492" transform="translate(109.212)">
              <path id="Trazado_197127" data-name="Trazado 197127" d="M2640.484,1047.535a11.035,11.035,0,0,1-.24-3.224c.48.479.133.134.24.24h-.328l-.321,0-.605-.013c-.385-.012-.732-.03-1.024-.051-.583-.043-.944-.1-.944-.17s.361-.126.944-.169c.292-.022.639-.039,1.024-.051l.605-.014.321,0h.328c.106.107-.238-.239.24.24A11.061,11.061,0,0,1,2640.484,1047.535Z" transform="translate(-2637.261 -1044.049)" fill="#ffb30b"/>
            </g>
            <g id="Grupo_133493" data-name="Grupo 133493" transform="translate(112.195 9.793)">
              <path id="Trazado_197128" data-name="Trazado 197128" d="M2640.181,1059.156a20.888,20.888,0,1,1,.24-3.154A10.586,10.586,0,0,1,2640.181,1059.156Z" transform="translate(-2639.941 -1052.848)" fill="#ffb30b"/>
            </g>
            <g id="Grupo_133494" data-name="Grupo 133494" transform="translate(112.195 22.408)">
              <path id="Trazado_197129" data-name="Trazado 197129" d="M2640.181,1070.49a20.882,20.882,0,1,1,.24-3.153A10.576,10.576,0,0,1,2640.181,1070.49Z" transform="translate(-2639.941 -1064.183)" fill="#ffb30b"/>
            </g>
          </g>
          <rect id="Rectángulo_295031" data-name="Rectángulo 295031" width="1.976" height="1.976" transform="translate(0.259 0.417)" fill="#ffb30b"/>
          <rect id="Rectángulo_295032" data-name="Rectángulo 295032" width="1.976" height="1.976" transform="translate(0 38.402)" fill="#ffb30b"/>
          <rect id="Rectángulo_295033" data-name="Rectángulo 295033" width="1.976" height="1.976" transform="translate(56.087 38.402)" fill="#ffb30b"/>
          <rect id="Rectángulo_295034" data-name="Rectángulo 295034" width="1.976" height="1.976" transform="translate(56.087)" fill="#ffb30b"/>
        </g>
        <g id="Grupo_133630" data-name="Grupo 133630" transform="translate(44.615 27.772)">
          <g id="Grupo_133506" data-name="Grupo 133506" transform="translate(97.905)">
            <g id="Grupo_133499" data-name="Grupo 133499">
              <g id="Grupo_133498" data-name="Grupo 133498">
                <g id="Grupo_133497" data-name="Grupo 133497">
                  <path id="Trazado_197130" data-name="Trazado 197130" d="M2641.387,1027.3c0,.073-2.818.157-6.3.185s-6.3-.007-6.3-.08,2.818-.156,6.3-.185S2641.386,1027.228,2641.387,1027.3Z" transform="translate(-2628.793 -1027.211)" fill="#1a2e35"/>
                </g>
              </g>
            </g>
            <g id="Grupo_133502" data-name="Grupo 133502" transform="translate(0.027 3.222)">
              <g id="Grupo_133501" data-name="Grupo 133501">
                <g id="Grupo_133500" data-name="Grupo 133500">
                  <path id="Trazado_197131" data-name="Trazado 197131" d="M2641.411,1030.2c0,.073-2.818.157-6.3.186s-6.3-.008-6.3-.081,2.818-.156,6.3-.185S2641.41,1030.124,2641.411,1030.2Z" transform="translate(-2628.817 -1030.106)" fill="#1a2e35"/>
                </g>
              </g>
            </g>
            <g id="Grupo_133505" data-name="Grupo 133505" transform="translate(0.054 6.444)">
              <g id="Grupo_133504" data-name="Grupo 133504">
                <g id="Grupo_133503" data-name="Grupo 133503">
                  <path id="Trazado_197132" data-name="Trazado 197132" d="M2641.435,1033.092c0,.073-2.819.156-6.3.185s-6.3-.008-6.3-.081,2.818-.156,6.3-.185S2641.434,1033.019,2641.435,1033.092Z" transform="translate(-2628.841 -1033.001)" fill="#1a2e35"/>
                </g>
              </g>
            </g>
          </g>
          <g id="Grupo_133519" data-name="Grupo 133519" transform="translate(33.144 112.638)">
            <g id="Grupo_133509" data-name="Grupo 133509">
              <g id="Grupo_133508" data-name="Grupo 133508">
                <g id="Grupo_133507" data-name="Grupo 133507">
                  <path id="Trazado_197133" data-name="Trazado 197133" d="M2609.492,1128.637c0,.122-8.707.221-19.442.221s-19.445-.1-19.445-.221,8.7-.221,19.445-.221S2609.492,1128.515,2609.492,1128.637Z" transform="translate(-2570.605 -1128.416)" fill="#e1e1e1"/>
                </g>
              </g>
            </g>
            <g id="Grupo_133512" data-name="Grupo 133512" transform="translate(0 7.981)">
              <g id="Grupo_133511" data-name="Grupo 133511">
                <g id="Grupo_133510" data-name="Grupo 133510">
                  <path id="Trazado_197134" data-name="Trazado 197134" d="M2640.5,1135.808c0,.121-15.647.22-34.945.22s-34.948-.1-34.948-.22,15.644-.221,34.948-.221S2640.5,1135.686,2640.5,1135.808Z" transform="translate(-2570.605 -1135.587)" fill="#1a2e35"/>
                </g>
              </g>
            </g>
            <g id="Grupo_133515" data-name="Grupo 133515" transform="translate(0 13.681)">
              <g id="Grupo_133514" data-name="Grupo 133514">
                <g id="Grupo_133513" data-name="Grupo 133513">
                  <path id="Trazado_197135" data-name="Trazado 197135" d="M2639.677,1140.929c0,.123-15.464.221-34.534.221s-34.538-.1-34.538-.221,15.46-.221,34.538-.221S2639.677,1140.807,2639.677,1140.929Z" transform="translate(-2570.605 -1140.708)" fill="#1a2e35"/>
                </g>
              </g>
            </g>
            <g id="Grupo_133518" data-name="Grupo 133518" transform="translate(0 19.117)">
              <g id="Grupo_133517" data-name="Grupo 133517">
                <g id="Grupo_133516" data-name="Grupo 133516">
                  <path id="Trazado_197136" data-name="Trazado 197136" d="M2611.386,1145.814c0,.122-9.13.221-20.39.221s-20.392-.1-20.392-.221,9.128-.221,20.392-.221S2611.386,1145.692,2611.386,1145.814Z" transform="translate(-2570.605 -1145.593)" fill="#1a2e35"/>
                </g>
              </g>
            </g>
          </g>
          <g id="Grupo_133532" data-name="Grupo 133532" transform="translate(33.144 199.39)">
            <g id="Grupo_133522" data-name="Grupo 133522">
              <g id="Grupo_133521" data-name="Grupo 133521">
                <g id="Grupo_133520" data-name="Grupo 133520">
                  <path id="Trazado_197137" data-name="Trazado 197137" d="M2609.492,1206.584c0,.122-8.707.221-19.442.221s-19.445-.1-19.445-.221,8.7-.221,19.445-.221S2609.492,1206.462,2609.492,1206.584Z" transform="translate(-2570.605 -1206.363)" fill="#e1e1e1"/>
                </g>
              </g>
            </g>
            <g id="Grupo_133525" data-name="Grupo 133525" transform="translate(0 7.981)">
              <g id="Grupo_133524" data-name="Grupo 133524">
                <g id="Grupo_133523" data-name="Grupo 133523">
                  <path id="Trazado_197138" data-name="Trazado 197138" d="M2640.5,1213.754c0,.122-15.647.221-34.945.221s-34.948-.1-34.948-.221,15.644-.22,34.948-.22S2640.5,1213.633,2640.5,1213.754Z" transform="translate(-2570.605 -1213.534)" fill="#1a2e35"/>
                </g>
              </g>
            </g>
            <g id="Grupo_133528" data-name="Grupo 133528" transform="translate(0 13.681)">
              <g id="Grupo_133527" data-name="Grupo 133527">
                <g id="Grupo_133526" data-name="Grupo 133526">
                  <path id="Trazado_197139" data-name="Trazado 197139" d="M2639.677,1218.876c0,.122-15.464.22-34.534.22s-34.538-.1-34.538-.22,15.46-.221,34.538-.221S2639.677,1218.754,2639.677,1218.876Z" transform="translate(-2570.605 -1218.655)" fill="#1a2e35"/>
                </g>
              </g>
            </g>
            <g id="Grupo_133531" data-name="Grupo 133531" transform="translate(0 19.117)">
              <g id="Grupo_133530" data-name="Grupo 133530">
                <g id="Grupo_133529" data-name="Grupo 133529">
                  <path id="Trazado_197140" data-name="Trazado 197140" d="M2611.386,1223.761c0,.122-9.13.221-20.39.221s-20.392-.1-20.392-.221,9.128-.221,20.392-.221S2611.386,1223.639,2611.386,1223.761Z" transform="translate(-2570.605 -1223.54)" fill="#1a2e35"/>
                </g>
              </g>
            </g>
          </g>
          <g id="Grupo_133601" data-name="Grupo 133601" transform="translate(0 70.889)">
            <g id="Grupo_133545" data-name="Grupo 133545" transform="translate(33.25 2.5)">
              <g id="Grupo_133535" data-name="Grupo 133535">
                <g id="Grupo_133534" data-name="Grupo 133534">
                  <g id="Grupo_133533" data-name="Grupo 133533">
                    <path id="Trazado_197141" data-name="Trazado 197141" d="M2609.586,1093.372c0,.122-8.706.221-19.442.221s-19.443-.1-19.443-.221,8.7-.221,19.443-.221S2609.586,1093.251,2609.586,1093.372Z" transform="translate(-2570.7 -1093.151)" fill="#ffb30b"/>
                  </g>
                </g>
              </g>
              <g id="Grupo_133538" data-name="Grupo 133538" transform="translate(0 7.981)">
                <g id="Grupo_133537" data-name="Grupo 133537">
                  <g id="Grupo_133536" data-name="Grupo 133536">
                    <path id="Trazado_197142" data-name="Trazado 197142" d="M2640.593,1100.543c0,.122-15.647.221-34.945.221s-34.948-.1-34.948-.221,15.644-.221,34.948-.221S2640.593,1100.421,2640.593,1100.543Z" transform="translate(-2570.7 -1100.322)" fill="#1a2e35"/>
                  </g>
                </g>
              </g>
              <g id="Grupo_133541" data-name="Grupo 133541" transform="translate(0 13.681)">
                <g id="Grupo_133540" data-name="Grupo 133540">
                  <g id="Grupo_133539" data-name="Grupo 133539">
                    <path id="Trazado_197143" data-name="Trazado 197143" d="M2639.771,1105.665c0,.122-15.464.221-34.534.221s-34.536-.1-34.536-.221,15.46-.222,34.536-.222S2639.771,1105.542,2639.771,1105.665Z" transform="translate(-2570.7 -1105.443)" fill="#1a2e35"/>
                  </g>
                </g>
              </g>
              <g id="Grupo_133544" data-name="Grupo 133544" transform="translate(0 19.118)">
                <g id="Grupo_133543" data-name="Grupo 133543">
                  <g id="Grupo_133542" data-name="Grupo 133542">
                    <path id="Trazado_197144" data-name="Trazado 197144" d="M2611.481,1110.549c0,.122-9.131.221-20.39.221s-20.392-.1-20.392-.221,9.127-.22,20.392-.22S2611.481,1110.428,2611.481,1110.549Z" transform="translate(-2570.7 -1110.329)" fill="#1a2e35"/>
                  </g>
                </g>
              </g>
            </g>
            <g id="Grupo_133556" data-name="Grupo 133556">
              <g id="Grupo_133555" data-name="Grupo 133555" transform="translate(0.962 1.553)">
                <g id="Grupo_133554" data-name="Grupo 133554">
                  <g id="Grupo_133553" data-name="Grupo 133553">
                    <g id="Grupo_133546" data-name="Grupo 133546" transform="translate(15.517 21.723)">
                      <path id="Trazado_197145" data-name="Trazado 197145" d="M2555.632,1112.058a21.72,21.72,0,0,1,6.446,0,21.83,21.83,0,0,1-6.446,0Z" transform="translate(-2555.632 -1111.818)" fill="#ffb30b"/>
                    </g>
                    <g id="Grupo_133547" data-name="Grupo 133547" transform="translate(2.623 21.723)">
                      <path id="Trazado_197146" data-name="Trazado 197146" d="M2544.047,1112.058a21.72,21.72,0,0,1,6.446,0,21.83,21.83,0,0,1-6.446,0Z" transform="translate(-2544.047 -1111.818)" fill="#ffb30b"/>
                    </g>
                    <g id="Grupo_133548" data-name="Grupo 133548" transform="translate(0 11.451)">
                      <path id="Trazado_197147" data-name="Trazado 197147" d="M2541.93,1102.589a21.749,21.749,0,1,1-.24,3.224A11.053,11.053,0,0,1,2541.93,1102.589Z" transform="translate(-2541.69 -1102.589)" fill="#ffb30b"/>
                    </g>
                    <g id="Grupo_133549" data-name="Grupo 133549" transform="translate(0 0.021)">
                      <path id="Trazado_197148" data-name="Trazado 197148" d="M2543.612,1092.537a4.466,4.466,0,0,1-1.682.211l.21-.21c.019.452.029.979.029,1.542a1.621,1.621,0,1,1-.48,0c0-.562.011-1.09.03-1.542l.009-.219.2.009A4.488,4.488,0,0,1,2543.612,1092.537Z" transform="translate(-2541.69 -1092.319)" fill="#ffb30b"/>
                    </g>
                    <g id="Grupo_133550" data-name="Grupo 133550" transform="translate(8.37)">
                      <path id="Trazado_197149" data-name="Trazado 197149" d="M2555.656,1092.539a21.742,21.742,0,0,1-6.446,0,21.819,21.819,0,0,1,6.446,0Z" transform="translate(-2549.21 -1092.3)" fill="#ffb30b"/>
                    </g>
                    <g id="Grupo_133551" data-name="Grupo 133551" transform="translate(21.263 0.079)">
                      <path id="Trazado_197150" data-name="Trazado 197150" d="M2561.5,1098.277a11.027,11.027,0,0,1-.24-3.223c0-1.027.036-1.943.091-2.522l.148.148c-.443-.041-.7-.092-.7-.149s.257-.107.7-.148l.133-.012.014.161c.057.579.092,1.495.092,2.522A11.036,11.036,0,0,1,2561.5,1098.277Z" transform="translate(-2560.795 -1092.371)" fill="#ffb30b"/>
                    </g>
                    <g id="Grupo_133552" data-name="Grupo 133552" transform="translate(21.724 12.433)">
                      <path id="Trazado_197151" data-name="Trazado 197151" d="M2561.448,1109.917a21.764,21.764,0,1,1,.24-3.223A11.026,11.026,0,0,1,2561.448,1109.917Z" transform="translate(-2561.209 -1103.471)" fill="#ffb30b"/>
                    </g>
                  </g>
                </g>
              </g>
              <rect id="Rectángulo_295035" data-name="Rectángulo 295035" width="2.406" height="2.406" transform="translate(21.491 22.458)" fill="#ffb30b"/>
              <rect id="Rectángulo_295036" data-name="Rectángulo 295036" width="2.406" height="2.406" transform="translate(21.491)" fill="#ffb30b"/>
              <rect id="Rectángulo_295037" data-name="Rectángulo 295037" width="2.406" height="2.406" transform="translate(0 22.458)" fill="#ffb30b"/>
              <rect id="Rectángulo_295038" data-name="Rectángulo 295038" width="2.406" height="2.406" transform="translate(0 0.59)" fill="#ffb30b"/>
            </g>
            <g id="Grupo_133567" data-name="Grupo 133567" transform="translate(0 39.995)">
              <g id="Grupo_133566" data-name="Grupo 133566" transform="translate(0.962 1.552)">
                <g id="Grupo_133565" data-name="Grupo 133565">
                  <g id="Grupo_133564" data-name="Grupo 133564">
                    <g id="Grupo_133557" data-name="Grupo 133557" transform="translate(15.517 21.724)">
                      <path id="Trazado_197152" data-name="Trazado 197152" d="M2555.632,1147.993a21.841,21.841,0,0,1,6.446,0,21.83,21.83,0,0,1-6.446,0Z" transform="translate(-2555.632 -1147.754)" fill="#e1e1e1"/>
                    </g>
                    <g id="Grupo_133558" data-name="Grupo 133558" transform="translate(2.623 21.724)">
                      <path id="Trazado_197153" data-name="Trazado 197153" d="M2544.047,1147.993a21.841,21.841,0,0,1,6.446,0,21.83,21.83,0,0,1-6.446,0Z" transform="translate(-2544.047 -1147.754)" fill="#e1e1e1"/>
                    </g>
                    <g id="Grupo_133559" data-name="Grupo 133559" transform="translate(0 11.452)">
                      <path id="Trazado_197154" data-name="Trazado 197154" d="M2541.93,1138.525a21.742,21.742,0,1,1-.24,3.223A11.048,11.048,0,0,1,2541.93,1138.525Z" transform="translate(-2541.69 -1138.525)" fill="#e1e1e1"/>
                    </g>
                    <g id="Grupo_133560" data-name="Grupo 133560" transform="translate(0 0.022)">
                      <path id="Trazado_197155" data-name="Trazado 197155" d="M2543.612,1128.473a4.506,4.506,0,0,1-1.682.21l.21-.21c.019.452.029.979.029,1.542a1.621,1.621,0,1,1-.48,0c0-.562.011-1.09.03-1.542l.009-.218.2.008A4.451,4.451,0,0,1,2543.612,1128.473Z" transform="translate(-2541.69 -1128.255)" fill="#e1e1e1"/>
                    </g>
                    <g id="Grupo_133561" data-name="Grupo 133561" transform="translate(8.37)">
                      <path id="Trazado_197156" data-name="Trazado 197156" d="M2555.656,1128.475a21.83,21.83,0,0,1-6.446,0,21.709,21.709,0,0,1,6.446,0Z" transform="translate(-2549.21 -1128.235)" fill="#e1e1e1"/>
                    </g>
                    <g id="Grupo_133562" data-name="Grupo 133562" transform="translate(21.263 0.08)">
                      <path id="Trazado_197157" data-name="Trazado 197157" d="M2561.5,1134.214a11.034,11.034,0,0,1-.24-3.223c0-1.029.036-1.943.091-2.523l.148.148c-.443-.041-.7-.092-.7-.148s.257-.108.7-.148l.133-.012.014.16c.057.58.092,1.495.092,2.523A11.043,11.043,0,0,1,2561.5,1134.214Z" transform="translate(-2560.795 -1128.307)" fill="#e1e1e1"/>
                    </g>
                    <g id="Grupo_133563" data-name="Grupo 133563" transform="translate(21.724 12.433)">
                      <path id="Trazado_197158" data-name="Trazado 197158" d="M2561.448,1145.853a21.771,21.771,0,1,1,.24-3.223A11.033,11.033,0,0,1,2561.448,1145.853Z" transform="translate(-2561.209 -1139.406)" fill="#e1e1e1"/>
                    </g>
                  </g>
                </g>
              </g>
              <rect id="Rectángulo_295039" data-name="Rectángulo 295039" width="2.406" height="2.406" transform="translate(21.491 22.458)" fill="#e1e1e1"/>
              <rect id="Rectángulo_295040" data-name="Rectángulo 295040" width="2.406" height="2.406" transform="translate(21.491)" fill="#e1e1e1"/>
              <rect id="Rectángulo_295041" data-name="Rectángulo 295041" width="2.406" height="2.406" transform="translate(0 22.458)" fill="#e1e1e1"/>
              <rect id="Rectángulo_295042" data-name="Rectángulo 295042" width="2.406" height="2.406" transform="translate(0 0.59)" fill="#e1e1e1"/>
            </g>
            <g id="Grupo_133578" data-name="Grupo 133578" transform="translate(0.116 82.349)">
              <g id="Grupo_133577" data-name="Grupo 133577" transform="translate(0.964 1.553)">
                <g id="Grupo_133576" data-name="Grupo 133576">
                  <g id="Grupo_133575" data-name="Grupo 133575">
                    <g id="Grupo_133568" data-name="Grupo 133568" transform="translate(15.516 21.723)">
                      <path id="Trazado_197159" data-name="Trazado 197159" d="M2555.736,1186.049a21.72,21.72,0,0,1,6.446,0,21.83,21.83,0,0,1-6.446,0Z" transform="translate(-2555.736 -1185.809)" fill="#ffb30b"/>
                    </g>
                    <g id="Grupo_133569" data-name="Grupo 133569" transform="translate(2.622 21.723)">
                      <path id="Trazado_197160" data-name="Trazado 197160" d="M2544.151,1186.049a21.722,21.722,0,0,1,6.447,0,21.831,21.831,0,0,1-6.447,0Z" transform="translate(-2544.151 -1185.809)" fill="#ffb30b"/>
                    </g>
                    <g id="Grupo_133570" data-name="Grupo 133570" transform="translate(0 11.451)">
                      <path id="Trazado_197161" data-name="Trazado 197161" d="M2542.034,1176.58a21.839,21.839,0,1,1-.239,3.223A11.043,11.043,0,0,1,2542.034,1176.58Z" transform="translate(-2541.795 -1176.58)" fill="#ffb30b"/>
                    </g>
                    <g id="Grupo_133571" data-name="Grupo 133571" transform="translate(0 0.021)">
                      <path id="Trazado_197162" data-name="Trazado 197162" d="M2543.716,1166.528a4.444,4.444,0,0,1-1.682.21l.211-.21c.019.452.029.981.029,1.541a1.621,1.621,0,1,1-.479,0c0-.561.01-1.09.029-1.541l.009-.218.2.008A4.507,4.507,0,0,1,2543.716,1166.528Z" transform="translate(-2541.795 -1166.31)" fill="#ffb30b"/>
                    </g>
                    <g id="Grupo_133572" data-name="Grupo 133572" transform="translate(8.368)">
                      <path id="Trazado_197163" data-name="Trazado 197163" d="M2555.76,1166.53a21.731,21.731,0,0,1-6.446,0,21.83,21.83,0,0,1,6.446,0Z" transform="translate(-2549.314 -1166.291)" fill="#ffb30b"/>
                    </g>
                    <g id="Grupo_133573" data-name="Grupo 133573" transform="translate(21.262 0.079)">
                      <path id="Trazado_197164" data-name="Trazado 197164" d="M2561.6,1172.268a11.044,11.044,0,0,1-.24-3.223c0-1.028.036-1.943.091-2.523l.148.148c-.443-.04-.7-.092-.7-.148s.257-.107.7-.148l.133-.012.014.16c.057.58.093,1.495.093,2.523A11.038,11.038,0,0,1,2561.6,1172.268Z" transform="translate(-2560.899 -1166.362)" fill="#ffb30b"/>
                    </g>
                    <g id="Grupo_133574" data-name="Grupo 133574" transform="translate(21.723 12.433)">
                      <path id="Trazado_197165" data-name="Trazado 197165" d="M2561.552,1183.908a21.742,21.742,0,1,1,.24-3.223A11.044,11.044,0,0,1,2561.552,1183.908Z" transform="translate(-2561.313 -1177.462)" fill="#ffb30b"/>
                    </g>
                  </g>
                </g>
              </g>
              <rect id="Rectángulo_295043" data-name="Rectángulo 295043" width="2.406" height="2.406" transform="translate(21.491 22.458)" fill="#ffb30b"/>
              <rect id="Rectángulo_295044" data-name="Rectángulo 295044" width="2.406" height="2.406" transform="translate(21.491)" fill="#ffb30b"/>
              <rect id="Rectángulo_295045" data-name="Rectángulo 295045" width="2.406" height="2.406" transform="translate(0 22.458)" fill="#ffb30b"/>
              <rect id="Rectángulo_295046" data-name="Rectángulo 295046" width="2.406" height="2.406" transform="translate(0 0.59)" fill="#ffb30b"/>
            </g>
            <g id="Grupo_133589" data-name="Grupo 133589" transform="translate(0 124.589)">
              <g id="Grupo_133588" data-name="Grupo 133588" transform="translate(0.962 1.552)">
                <g id="Grupo_133587" data-name="Grupo 133587">
                  <g id="Grupo_133586" data-name="Grupo 133586">
                    <g id="Grupo_133579" data-name="Grupo 133579" transform="translate(15.517 21.724)">
                      <path id="Trazado_197166" data-name="Trazado 197166" d="M2555.632,1224a21.83,21.83,0,0,1,6.446,0,21.731,21.731,0,0,1-6.446,0Z" transform="translate(-2555.632 -1223.762)" fill="#e1e1e1"/>
                    </g>
                    <g id="Grupo_133580" data-name="Grupo 133580" transform="translate(2.623 21.724)">
                      <path id="Trazado_197167" data-name="Trazado 197167" d="M2544.047,1224a21.83,21.83,0,0,1,6.446,0,21.731,21.731,0,0,1-6.446,0Z" transform="translate(-2544.047 -1223.762)" fill="#e1e1e1"/>
                    </g>
                    <g id="Grupo_133581" data-name="Grupo 133581" transform="translate(0 11.452)">
                      <path id="Trazado_197168" data-name="Trazado 197168" d="M2541.93,1214.533a21.742,21.742,0,1,1-.24,3.223A11.048,11.048,0,0,1,2541.93,1214.533Z" transform="translate(-2541.69 -1214.533)" fill="#e1e1e1"/>
                    </g>
                    <g id="Grupo_133582" data-name="Grupo 133582" transform="translate(0 0.022)">
                      <path id="Trazado_197169" data-name="Trazado 197169" d="M2543.612,1204.481a4.5,4.5,0,0,1-1.682.21l.21-.21c.019.452.029.979.029,1.541a1.621,1.621,0,1,1-.48,0c0-.562.011-1.09.03-1.541l.009-.218.2.008A4.477,4.477,0,0,1,2543.612,1204.481Z" transform="translate(-2541.69 -1204.263)" fill="#e1e1e1"/>
                    </g>
                    <g id="Grupo_133583" data-name="Grupo 133583" transform="translate(8.37)">
                      <path id="Trazado_197170" data-name="Trazado 197170" d="M2555.656,1204.483a21.83,21.83,0,0,1-6.446,0,21.731,21.731,0,0,1,6.446,0Z" transform="translate(-2549.21 -1204.243)" fill="#e1e1e1"/>
                    </g>
                    <g id="Grupo_133584" data-name="Grupo 133584" transform="translate(21.263 0.08)">
                      <path id="Trazado_197171" data-name="Trazado 197171" d="M2561.5,1210.222a11.034,11.034,0,0,1-.24-3.223c0-1.028.036-1.943.091-2.523l.148.148c-.443-.041-.7-.092-.7-.148s.257-.108.7-.148l.133-.012.014.16c.057.58.092,1.495.092,2.523A11.044,11.044,0,0,1,2561.5,1210.222Z" transform="translate(-2560.795 -1204.315)" fill="#e1e1e1"/>
                    </g>
                    <g id="Grupo_133585" data-name="Grupo 133585" transform="translate(21.724 12.433)">
                      <path id="Trazado_197172" data-name="Trazado 197172" d="M2561.448,1221.861a21.772,21.772,0,1,1,.24-3.223A11.033,11.033,0,0,1,2561.448,1221.861Z" transform="translate(-2561.209 -1215.414)" fill="#e1e1e1"/>
                    </g>
                  </g>
                </g>
              </g>
              <rect id="Rectángulo_295047" data-name="Rectángulo 295047" width="2.406" height="2.406" transform="translate(21.491 22.458)" fill="#e1e1e1"/>
              <rect id="Rectángulo_295048" data-name="Rectángulo 295048" width="2.406" height="2.406" transform="translate(21.491)" fill="#e1e1e1"/>
              <rect id="Rectángulo_295049" data-name="Rectángulo 295049" width="2.406" height="2.406" transform="translate(0 22.458)" fill="#e1e1e1"/>
              <rect id="Rectángulo_295050" data-name="Rectángulo 295050" width="2.406" height="2.406" transform="translate(0 0.59)" fill="#e1e1e1"/>
            </g>
            <g id="Grupo_133600" data-name="Grupo 133600" transform="translate(0 168.298)">
              <g id="Grupo_133599" data-name="Grupo 133599" transform="translate(0.962 1.553)">
                <g id="Grupo_133598" data-name="Grupo 133598">
                  <g id="Grupo_133597" data-name="Grupo 133597">
                    <g id="Grupo_133590" data-name="Grupo 133590" transform="translate(15.517 21.723)">
                      <path id="Trazado_197173" data-name="Trazado 197173" d="M2555.632,1263.275a21.72,21.72,0,0,1,6.446,0,21.841,21.841,0,0,1-6.446,0Z" transform="translate(-2555.632 -1263.034)" fill="#ffb30b"/>
                    </g>
                    <g id="Grupo_133591" data-name="Grupo 133591" transform="translate(2.623 21.723)">
                      <path id="Trazado_197174" data-name="Trazado 197174" d="M2544.047,1263.275a21.72,21.72,0,0,1,6.446,0,21.841,21.841,0,0,1-6.446,0Z" transform="translate(-2544.047 -1263.034)" fill="#ffb30b"/>
                    </g>
                    <g id="Grupo_133592" data-name="Grupo 133592" transform="translate(0 11.451)">
                      <path id="Trazado_197175" data-name="Trazado 197175" d="M2541.93,1253.805a21.749,21.749,0,1,1-.24,3.223A11.047,11.047,0,0,1,2541.93,1253.805Z" transform="translate(-2541.69 -1253.805)" fill="#ffb30b"/>
                    </g>
                    <g id="Grupo_133593" data-name="Grupo 133593" transform="translate(0 0.021)">
                      <path id="Trazado_197176" data-name="Trazado 197176" d="M2543.612,1243.753a4.461,4.461,0,0,1-1.682.212l.21-.21c.019.451.029.979.029,1.54a1.621,1.621,0,1,1-.48,0c0-.561.011-1.09.03-1.54l.009-.219.2.009A4.494,4.494,0,0,1,2543.612,1243.753Z" transform="translate(-2541.69 -1243.535)" fill="#ffb30b"/>
                    </g>
                    <g id="Grupo_133594" data-name="Grupo 133594" transform="translate(8.37)">
                      <path id="Trazado_197177" data-name="Trazado 197177" d="M2555.656,1243.755a21.72,21.72,0,0,1-6.446,0,21.83,21.83,0,0,1,6.446,0Z" transform="translate(-2549.21 -1243.516)" fill="#ffb30b"/>
                    </g>
                    <g id="Grupo_133595" data-name="Grupo 133595" transform="translate(21.263 0.079)">
                      <path id="Trazado_197178" data-name="Trazado 197178" d="M2561.5,1249.494a11.027,11.027,0,0,1-.24-3.223c0-1.027.036-1.943.091-2.522l.148.148c-.443-.041-.7-.092-.7-.149s.257-.107.7-.148l.133-.012.014.161c.057.578.092,1.495.092,2.522A11.036,11.036,0,0,1,2561.5,1249.494Z" transform="translate(-2560.795 -1243.587)" fill="#ffb30b"/>
                    </g>
                    <g id="Grupo_133596" data-name="Grupo 133596" transform="translate(21.724 12.433)">
                      <path id="Trazado_197179" data-name="Trazado 197179" d="M2561.448,1261.133a21.764,21.764,0,1,1,.24-3.223A11.028,11.028,0,0,1,2561.448,1261.133Z" transform="translate(-2561.209 -1254.687)" fill="#ffb30b"/>
                    </g>
                  </g>
                </g>
              </g>
              <rect id="Rectángulo_295051" data-name="Rectángulo 295051" width="2.406" height="2.406" transform="translate(21.491 22.458)" fill="#ffb30b"/>
              <rect id="Rectángulo_295052" data-name="Rectángulo 295052" width="2.406" height="2.406" transform="translate(21.491)" fill="#ffb30b"/>
              <rect id="Rectángulo_295053" data-name="Rectángulo 295053" width="2.406" height="2.406" transform="translate(0 22.458)" fill="#ffb30b"/>
              <rect id="Rectángulo_295054" data-name="Rectángulo 295054" width="2.406" height="2.406" transform="translate(0 0.59)" fill="#ffb30b"/>
            </g>
          </g>
          <g id="Grupo_133615" data-name="Grupo 133615" transform="translate(32.321 154.078)">
            <g id="Grupo_133614" data-name="Grupo 133614">
              <g id="Grupo_133604" data-name="Grupo 133604">
                <g id="Grupo_133603" data-name="Grupo 133603">
                  <g id="Grupo_133602" data-name="Grupo 133602">
                    <path id="Trazado_197180" data-name="Trazado 197180" d="M2608.753,1165.871c0,.121-8.706.22-19.442.22s-19.445-.1-19.445-.22,8.7-.221,19.445-.221S2608.753,1165.749,2608.753,1165.871Z" transform="translate(-2569.866 -1165.65)" fill="#ffb30b"/>
                  </g>
                </g>
              </g>
              <g id="Grupo_133607" data-name="Grupo 133607" transform="translate(0 7.98)">
                <g id="Grupo_133606" data-name="Grupo 133606">
                  <g id="Grupo_133605" data-name="Grupo 133605">
                    <path id="Trazado_197181" data-name="Trazado 197181" d="M2639.76,1173.042c0,.122-15.648.222-34.946.222s-34.948-.1-34.948-.222,15.644-.222,34.948-.222S2639.76,1172.919,2639.76,1173.042Z" transform="translate(-2569.866 -1172.82)" fill="#1a2e35"/>
                  </g>
                </g>
              </g>
              <g id="Grupo_133610" data-name="Grupo 133610" transform="translate(0 13.681)">
                <g id="Grupo_133609" data-name="Grupo 133609">
                  <g id="Grupo_133608" data-name="Grupo 133608">
                    <path id="Trazado_197182" data-name="Trazado 197182" d="M2638.938,1178.162c0,.122-15.463.221-34.534.221s-34.537-.1-34.537-.221,15.46-.22,34.537-.22S2638.938,1178.041,2638.938,1178.162Z" transform="translate(-2569.866 -1177.942)" fill="#1a2e35"/>
                  </g>
                </g>
              </g>
              <g id="Grupo_133613" data-name="Grupo 133613" transform="translate(0 19.117)">
                <g id="Grupo_133612" data-name="Grupo 133612">
                  <g id="Grupo_133611" data-name="Grupo 133611">
                    <path id="Trazado_197183" data-name="Trazado 197183" d="M2610.647,1183.047c0,.122-9.13.223-20.39.223s-20.392-.1-20.392-.223,9.129-.22,20.392-.22S2610.647,1182.926,2610.647,1183.047Z" transform="translate(-2569.866 -1182.827)" fill="#1a2e35"/>
                  </g>
                </g>
              </g>
            </g>
          </g>
          <g id="Grupo_133629" data-name="Grupo 133629" transform="translate(32.321 242.649)">
            <g id="Grupo_133628" data-name="Grupo 133628">
              <g id="Grupo_133618" data-name="Grupo 133618">
                <g id="Grupo_133617" data-name="Grupo 133617">
                  <g id="Grupo_133616" data-name="Grupo 133616">
                    <path id="Trazado_197184" data-name="Trazado 197184" d="M2608.753,1245.453c0,.122-8.706.221-19.442.221s-19.445-.1-19.445-.221,8.7-.222,19.445-.222S2608.753,1245.33,2608.753,1245.453Z" transform="translate(-2569.866 -1245.231)" fill="#ffb30b"/>
                  </g>
                </g>
              </g>
              <g id="Grupo_133621" data-name="Grupo 133621" transform="translate(0 7.981)">
                <g id="Grupo_133620" data-name="Grupo 133620">
                  <g id="Grupo_133619" data-name="Grupo 133619">
                    <path id="Trazado_197185" data-name="Trazado 197185" d="M2639.76,1252.623c0,.123-15.648.222-34.946.222s-34.948-.1-34.948-.222,15.644-.221,34.948-.221S2639.76,1252.5,2639.76,1252.623Z" transform="translate(-2569.866 -1252.402)" fill="#1a2e35"/>
                  </g>
                </g>
              </g>
              <g id="Grupo_133624" data-name="Grupo 133624" transform="translate(0 13.681)">
                <g id="Grupo_133623" data-name="Grupo 133623">
                  <g id="Grupo_133622" data-name="Grupo 133622">
                    <path id="Trazado_197186" data-name="Trazado 197186" d="M2638.938,1257.745c0,.122-15.463.221-34.534.221s-34.537-.1-34.537-.221,15.46-.222,34.537-.222S2638.938,1257.622,2638.938,1257.745Z" transform="translate(-2569.866 -1257.523)" fill="#1a2e35"/>
                  </g>
                </g>
              </g>
              <g id="Grupo_133627" data-name="Grupo 133627" transform="translate(0 19.117)">
                <g id="Grupo_133626" data-name="Grupo 133626">
                  <g id="Grupo_133625" data-name="Grupo 133625">
                    <path id="Trazado_197187" data-name="Trazado 197187" d="M2610.647,1262.63c0,.122-9.13.221-20.39.221s-20.392-.1-20.392-.221,9.129-.222,20.392-.222S2610.647,1262.507,2610.647,1262.63Z" transform="translate(-2569.866 -1262.408)" fill="#1a2e35"/>
                  </g>
                </g>
              </g>
            </g>
          </g>
        </g>
        <g id="Grupo_133633" data-name="Grupo 133633" transform="translate(43.252 23.662)">
          <g id="Grupo_133632" data-name="Grupo 133632">
            <g id="Grupo_133631" data-name="Grupo 133631">
              <path id="Trazado_197188" data-name="Trazado 197188" d="M2539.731,1033.742a1.834,1.834,0,0,1,.254-.017l.707-.023,2.608-.062-.073.073q-.013-.868-.03-1.891c0-.352-.03-.683,0-1.09a1,1,0,0,1,.875-.8c.42-.008.79-.028,1.245-.007a1.013,1.013,0,0,1,.856,1.007q.015,1.324.031,2.759l-.121-.119,3.29-.033-.125.127c-.012-1.326-.025-2.7-.037-4.1,0-.351-.006-.7-.009-1.044a1.063,1.063,0,0,0-.463-.778q-.729-.72-1.438-1.417t-1.387-1.369l-.672-.664c-.23-.223-.412-.453-.68-.508a.883.883,0,0,0-.755.143c-.2.168-.412.407-.612.6l-1.181,1.191c-.742.771-1.516,1.476-2.078,2.141a2.326,2.326,0,0,0-.166,1.229q0,.611,0,1.159-.006,1.067-.012,1.868l-.013,1.194a3.964,3.964,0,0,1-.016.431,3.281,3.281,0,0,1-.022-.4c-.009-.317-.02-.706-.033-1.175-.012-.538-.026-1.166-.042-1.882q-.01-.559-.022-1.182c0-.21-.006-.426-.01-.647a1.37,1.37,0,0,1,.182-.689c.608-.746,1.335-1.406,2.083-2.2l1.172-1.2c.21-.207.383-.413.635-.629a1.117,1.117,0,0,1,.954-.188,1.783,1.783,0,0,1,.79.565l.674.661,1.393,1.365,1.441,1.415a2.711,2.711,0,0,1,.367.4,1.072,1.072,0,0,1,.172.554l.009,1.049c.011,1.4.021,2.775.031,4.1v.127h-.126l-3.29.021h-.12v-.12c0-.955-.01-1.876-.014-2.758a.792.792,0,0,0-.665-.8c-.378-.021-.825-.008-1.193,0a.807.807,0,0,0-.71.64c-.031.331-.007.717-.013,1.051v1.965h-.072l-2.651-.019-.69-.012A1.308,1.308,0,0,1,2539.731,1033.742Z" transform="translate(-2539.601 -1023.517)" fill="#ffb30b"/>
            </g>
          </g>
        </g>
        <g id="Grupo_133634" data-name="Grupo 133634" transform="translate(0 61.655)">
          <path id="Trazado_197189" data-name="Trazado 197189" d="M2543,1057.894a.881.881,0,0,1-.225.025l-.66.023-2.535.045-9.325.077-13.83.051-8.166.015-2.143,0a7.266,7.266,0,0,0-2.094.16,3.93,3.93,0,0,0-2.718,2.924,12.622,12.622,0,0,0-.088,2.182q0,1.114,0,2.21,0,2.194,0,4.321c-.006,2.832-.01,5.564-.014,8.168-.019,5.2-.037,9.881-.051,13.831-.032,3.905-.058,7.081-.077,9.324q-.028,1.6-.044,2.534c-.01.266-.018.483-.023.66a.881.881,0,0,1-.024.224.718.718,0,0,1-.024-.224c-.007-.177-.014-.394-.024-.66q-.017-.928-.045-2.534c-.019-2.244-.044-5.419-.077-9.324-.014-3.95-.032-8.633-.051-13.831,0-2.6-.009-5.336-.014-8.168q0-2.125,0-4.321,0-1.1,0-2.21a12.9,12.9,0,0,1,.1-2.283,4.4,4.4,0,0,1,3.053-3.282,7.7,7.7,0,0,1,2.228-.176h2.143l8.166.015,13.83.051,9.325.077,2.535.045.66.023A.789.789,0,0,1,2543,1057.894Z" transform="translate(-2500.739 -1057.655)" fill="#ffb30b"/>
        </g>
        <path id="Trazado_197190" data-name="Trazado 197190" d="M2541.165,1057.948a1.455,1.455,0,1,1-1.455-1.455A1.455,1.455,0,0,1,2541.165,1057.948Z" transform="translate(-2496.501 -996.131)" fill="#ffb30b"/>
        <g id="Grupo_133635" data-name="Grupo 133635" transform="translate(63.551 69.776)">
          <path id="Trazado_197191" data-name="Trazado 197191" d="M2565.472,1068.852c-.045,0-.045-.329-.206-.879a3.692,3.692,0,0,0-1.357-1.923,3.49,3.49,0,1,0,0,5.6,3.692,3.692,0,0,0,1.357-1.923c.161-.551.161-.881.206-.879a1.905,1.905,0,0,1-.026.925,3.683,3.683,0,0,1-1.331,2.148,3.854,3.854,0,0,1-3.674.605,3.9,3.9,0,0,1,0-7.358,3.854,3.854,0,0,1,3.674.606,3.68,3.68,0,0,1,1.331,2.148A1.906,1.906,0,0,1,2565.472,1068.852Z" transform="translate(-2557.84 -1064.951)" fill="#ffb30b"/>
        </g>
      </g>
    </g>
  </g>
</svg>
