<svg xmlns="http://www.w3.org/2000/svg" width="366" height="317" viewBox="0 0 366 317">
  <g id="Grupo_135033" data-name="Grupo 135033" transform="translate(2650.667 9923)">
    <rect id="Rectángulo_295229" data-name="Rectángulo 295229" width="366" height="317" transform="translate(-2650.667 -9923)" fill="none"/>
    <g id="Grupo_133938" data-name="Grupo 133938" transform="translate(-5380.005 -10912.188)">
      <g id="Grupo_133645" data-name="Grupo 133645" transform="translate(2903.127 1116.289)">
        <g id="Grupo_133644" data-name="Grupo 133644">
          <g id="Grupo_133643" data-name="Grupo 133643">
            <g id="Grupo_133642" data-name="Grupo 133642">
              <g id="Grupo_133641" data-name="Grupo 133641">
                <g id="Grupo_133640" data-name="Grupo 133640">
                  <path id="Trazado_197192" data-name="Trazado 197192" d="M2940.852,1168.653a18.578,18.578,0,0,1-4.94.121l-2.551,3.805-7.073-2.726.662-4.533a18.576,18.576,0,0,1-3.582-3.4l-4.493.886-3.073-6.93,3.672-2.736a18.528,18.528,0,0,1-.12-4.941l-3.806-2.551,2.726-7.073,4.533.662a18.535,18.535,0,0,1,3.406-3.581l-.887-4.493,6.93-3.075,2.737,3.672a18.525,18.525,0,0,1,4.939-.12l2.552-3.806,7.074,2.726-.663,4.534a18.615,18.615,0,0,1,3.581,3.4l4.493-.886,3.074,6.93-3.673,2.736a18.556,18.556,0,0,1,.121,4.941l3.805,2.551-2.726,7.073-4.534-.663a18.6,18.6,0,0,1-3.406,3.582l.886,4.493-6.929,3.074-2.737-3.672Zm.052-10.876a8.132,8.132,0,1,0-10.731-4.135A8.132,8.132,0,0,0,2940.9,1157.778Z" transform="translate(-2915.547 -1127.83)" fill="#e1e1e1" fill-rule="evenodd"/>
                </g>
              </g>
            </g>
          </g>
        </g>
      </g>
      <g id="Grupo_133651" data-name="Grupo 133651" transform="translate(2996.412 1092.537)">
        <g id="Grupo_133650" data-name="Grupo 133650" transform="translate(0 0)">
          <g id="Grupo_133649" data-name="Grupo 133649">
            <g id="Grupo_133648" data-name="Grupo 133648">
              <g id="Grupo_133647" data-name="Grupo 133647">
                <g id="Grupo_133646" data-name="Grupo 133646">
                  <path id="Trazado_197193" data-name="Trazado 197193" d="M3052.587,1158.843a25.925,25.925,0,0,1-6.888.169l-3.557,5.306-9.863-3.8.923-6.322a25.886,25.886,0,0,1-4.995-4.748l-6.265,1.237-4.285-9.663,5.12-3.816a25.815,25.815,0,0,1-.168-6.889l-5.307-3.558,3.8-9.861,6.322.922a25.909,25.909,0,0,1,4.749-4.993l-1.237-6.265,9.663-4.288,3.815,5.122a25.845,25.845,0,0,1,6.889-.169l3.558-5.307,9.863,3.8-.924,6.322a25.984,25.984,0,0,1,4.993,4.748l6.265-1.236,4.286,9.663-5.121,3.815a25.821,25.821,0,0,1,.168,6.889l5.307,3.558-3.8,9.862-6.322-.923a25.935,25.935,0,0,1-4.749,4.994l1.236,6.265-9.661,4.286-3.817-5.121Zm.073-15.164a11.339,11.339,0,1,0-14.962-5.766A11.338,11.338,0,0,0,3052.661,1143.679Z" transform="translate(-3017.303 -1101.921)" fill="#e1e1e1" fill-rule="evenodd"/>
                </g>
              </g>
            </g>
          </g>
        </g>
      </g>
      <g id="Grupo_133660" data-name="Grupo 133660" transform="translate(2929.831 994.563)">
        <g id="Grupo_133655" data-name="Grupo 133655" transform="translate(17.802 14.54)">
          <g id="Grupo_133653" data-name="Grupo 133653" transform="translate(0 3.894)">
            <g id="Grupo_133652" data-name="Grupo 133652">
              <path id="Trazado_197194" data-name="Trazado 197194" d="M2964.3,1015.367a2.316,2.316,0,0,1,.023.359c.007.263.015.593.025,1,.013.912.031,2.17.054,3.747.026,3.24.062,7.785.1,13.222l-.206-.206,18.327-.033c.054-.051-.45.451-.237.235V1031.2q0-1.237,0-2.45,0-2.426.006-4.738c.008-3.076.017-5.979.024-8.646l.206.206-13.221-.105-3.747-.054-1-.024a2.417,2.417,0,0,1-.359-.023,1.423,1.423,0,0,1,.314-.024l.96-.024,3.7-.054,13.354-.105h.206v.208c.007,2.667.015,5.57.024,8.646q0,2.309.007,4.738,0,1.213,0,2.45v2.491c.213-.212-.291.3-.241.242l-18.327-.032h-.208l0-.206c.043-5.49.08-10.082.105-13.354.022-1.558.04-2.8.054-3.7.009-.391.017-.709.024-.962A1.427,1.427,0,0,1,2964.3,1015.367Z" transform="translate(-2964.094 -1015.159)" fill="#1a2e35"/>
            </g>
          </g>
          <g id="Grupo_133654" data-name="Grupo 133654" transform="translate(2.438)">
            <path id="Trazado_197195" data-name="Trazado 197195" d="M2986.674,1010.92c.306.25-3.633,5.553-8.8,11.842l-3.1,3.708-.452.541-.513-.458c-4.31-3.85-7.258-6.748-7.054-6.985s3.5,2.258,7.938,5.962l-.965.083,3.034-3.759C2981.935,1015.564,2986.369,1010.669,2986.674,1010.92Z" transform="translate(-2966.754 -1010.911)" fill="#ffb30b"/>
          </g>
        </g>
        <g id="Grupo_133659" data-name="Grupo 133659">
          <g id="Grupo_133658" data-name="Grupo 133658">
            <g id="Grupo_133657" data-name="Grupo 133657">
              <g id="Grupo_133656" data-name="Grupo 133656">
                <path id="Trazado_197196" data-name="Trazado 197196" d="M2971.3,995.061a2.552,2.552,0,0,1,.456-.007l1.342.037c.294.014.626.014.989.044l1.184.166,1.382.2,1.543.382a24.983,24.983,0,0,1,7.48,3.262,26.4,26.4,0,0,1,12.125,19.841,27.462,27.462,0,0,1,.073,3.617c-.043.611-.03,1.234-.12,1.851s-.186,1.237-.281,1.863a26.561,26.561,0,0,1-2.514,7.361,28.345,28.345,0,0,1-4.807,6.615,27.808,27.808,0,0,1-6.927,4.976,25.159,25.159,0,0,1-8.443,2.591,16.591,16.591,0,0,1-2.252.192,20.47,20.47,0,0,1-2.276.042,27.036,27.036,0,0,1-4.56-.577,26.657,26.657,0,0,1-9.077-3.819l.275.027-9.245,3.711-.548.22.157-.568q1.4-5.089,2.718-9.885l.046.244a26.536,26.536,0,0,1-4.934-11.3,24.077,24.077,0,0,1-.359-5.787,18.544,18.544,0,0,1,.263-2.78q.105-.681.21-1.352c.083-.445.218-.875.323-1.309a26.441,26.441,0,0,1,10.316-15.038,25.306,25.306,0,0,1,6.139-3.239l1.383-.495,1.313-.334,1.2-.3c.385-.074.757-.114,1.106-.168.7-.089,1.313-.209,1.851-.236l1.359-.046.831-.018a1.246,1.246,0,0,1,.281.01,1.267,1.267,0,0,1-.281.038l-.826.065-1.35.091c-.534.042-1.142.177-1.833.279a26.3,26.3,0,0,0-21.025,19.5c-.1.426-.233.85-.312,1.287s-.132.883-.2,1.328a18.109,18.109,0,0,0-.245,2.729,23.585,23.585,0,0,0,.375,5.673,26.033,26.033,0,0,0,4.866,11.05l.083.11-.037.135-2.7,9.89-.391-.348,9.242-3.722.145-.058.131.086a26.1,26.1,0,0,0,8.875,3.73,26.4,26.4,0,0,0,4.457.564,19.818,19.818,0,0,0,2.225-.039,16.315,16.315,0,0,0,2.2-.186,24.626,24.626,0,0,0,8.257-2.525,27.276,27.276,0,0,0,6.785-4.856,27.9,27.9,0,0,0,4.722-6.465,26.1,26.1,0,0,0,2.485-7.2q.141-.92.282-1.825c.09-.6.08-1.215.125-1.814a27.052,27.052,0,0,0-.056-3.549,26.126,26.126,0,0,0-11.812-19.6,25.149,25.149,0,0,0-7.359-3.318l-1.524-.406-1.366-.225-1.173-.193c-.36-.04-.689-.05-.982-.073l-1.335-.1A2.686,2.686,0,0,1,2971.3,995.061Z" transform="translate(-2944.676 -995.051)" fill="#375a64"/>
              </g>
            </g>
          </g>
        </g>
      </g>
      <g id="Grupo_133686" data-name="Grupo 133686" transform="translate(2902.333 1136.779)">
        <g id="Grupo_133665" data-name="Grupo 133665" transform="translate(0 34.754)">
          <g id="Grupo_133664" data-name="Grupo 133664">
            <g id="Grupo_133663" data-name="Grupo 133663">
              <g id="Grupo_133662" data-name="Grupo 133662">
                <g id="Grupo_133661" data-name="Grupo 133661">
                  <path id="Trazado_197197" data-name="Trazado 197197" d="M2936.994,1250.1a29.277,29.277,0,0,1-6.363-4.482l-6.8,2.42-6.391-10.087,5.092-5.114a29.283,29.283,0,0,1-1.336-7.67l-6.516-3.095,2.614-11.65,7.214-.016a29.217,29.217,0,0,1,4.484-6.363l-2.42-6.8,10.085-6.39,5.115,5.092a29.25,29.25,0,0,1,7.67-1.334l3.094-6.517,11.652,2.613.016,7.214a29.231,29.231,0,0,1,6.363,4.484l6.8-2.421,6.39,10.087-5.094,5.115a29.285,29.285,0,0,1,1.336,7.669l6.516,3.095L2983.9,1237.6l-7.214.015a29.177,29.177,0,0,1-4.484,6.364l2.421,6.8-10.085,6.391-5.115-5.093a29.281,29.281,0,0,1-7.67,1.335l-3.094,6.516-11.65-2.614-.017-7.214Zm10.272-13.709a12.809,12.809,0,1,0-9.7-15.3A12.81,12.81,0,0,0,2947.266,1236.387Z" transform="translate(-2914.681 -1188.09)" fill="#ffb30b" fill-rule="evenodd"/>
                </g>
              </g>
            </g>
          </g>
        </g>
        <g id="Grupo_133676" data-name="Grupo 133676" transform="translate(85.626 34.423)">
          <g id="Grupo_133670" data-name="Grupo 133670" transform="translate(13.114 13.374)">
            <g id="Grupo_133669" data-name="Grupo 133669">
              <g id="Grupo_133668" data-name="Grupo 133668">
                <g id="Grupo_133667" data-name="Grupo 133667">
                  <g id="Grupo_133666" data-name="Grupo 133666">
                    <path id="Trazado_197198" data-name="Trazado 197198" d="M3028.364,1217.205a5.615,5.615,0,0,1-1.756-.549,7.4,7.4,0,0,1-3.5-3.544,7.478,7.478,0,0,1-.715-3.423,7.606,7.606,0,0,1,1.178-3.838,7.611,7.611,0,0,1,3.361-2.889,7.58,7.58,0,0,1,8.813,1.976,7.623,7.623,0,0,1,1.807,4.048,7.6,7.6,0,0,1-.575,3.973,7.5,7.5,0,0,1-2.109,2.79,7.4,7.4,0,0,1-4.679,1.708,5.614,5.614,0,0,1-1.823-.253c.008-.052.65.129,1.819.088a7.411,7.411,0,0,0,4.49-1.774,7.26,7.26,0,0,0,2.487-6.482,7.267,7.267,0,0,0-1.732-3.824,7.2,7.2,0,0,0-8.331-1.867,7.254,7.254,0,0,0-3.2,2.717,7.265,7.265,0,0,0-.521,6.923,7.414,7.414,0,0,0,3.3,3.521C3027.722,1217.045,3028.38,1217.155,3028.364,1217.205Z" transform="translate(-3022.387 -1202.317)" fill="#1a2e35"/>
                  </g>
                </g>
              </g>
            </g>
          </g>
          <g id="Grupo_133675" data-name="Grupo 133675">
            <g id="Grupo_133674" data-name="Grupo 133674">
              <g id="Grupo_133673" data-name="Grupo 133673">
                <g id="Grupo_133672" data-name="Grupo 133672">
                  <g id="Grupo_133671" data-name="Grupo 133671">
                    <path id="Trazado_197199" data-name="Trazado 197199" d="M3021.215,1223.945a1.715,1.715,0,0,1,.016.26c0,.194.011.456.019.793.009.726.024,1.773.043,3.132l-.053-.066,6.768,1.477-.121.059,1.78-3.787.032-.068.076,0a16.96,16.96,0,0,0,4.412-.783l.081-.026.061.06,2.975,2.947-.188-.021,5.843-3.72-.069.2-1.412-3.942-.036-.1.073-.079a16.85,16.85,0,0,0,2.567-3.657l.052-.1h.112l4.185-.016-.185.148c.474-2.123.984-4.414,1.508-6.761l.108.223-3.781-1.792-.111-.052,0-.123a16.9,16.9,0,0,0-.769-4.394l-.038-.119.088-.089,2.953-2.969-.028.259-3.709-5.85.249.086-3.944,1.406-.122.043-.094-.088a16.815,16.815,0,0,0-3.642-2.565h0c-.052-.084.114.188-.115-.189v-1.05l0-1.05q0-1.048,0-2.087l.166.207-6.76-1.517.237-.115q-.906,1.909-1.8,3.78l-.055.115-.126,0a16.819,16.819,0,0,0-4.4.762l-.12.039-.088-.089-2.965-2.956.251.028-5.854,3.7.08-.232,1.4,3.947.039.109-.079.085a16.772,16.772,0,0,0-2.577,3.647l-.052.1h-.112l-4.184,0,.172-.139c-.538,2.377-1.047,4.62-1.531,6.756l-.089-.183,3.776,1.805.084.039,0,.093a16.931,16.931,0,0,0,.757,4.413l.025.082-.06.06-2.964,2.956.017-.156,3.682,5.867-.113-.038,3.953-1.379.04-.014.03.028a17.633,17.633,0,0,0,2.688,2.07l.719.434a1.718,1.718,0,0,1,.238.146,2.218,2.218,0,0,1-.255-.115c-.165-.084-.415-.214-.739-.4a16.473,16.473,0,0,1-2.745-2.03l.07.014-3.935,1.429-.072.027-.042-.065c-1.054-1.649-2.286-3.575-3.732-5.835l-.054-.084.071-.072,2.945-2.977-.035.141a17.114,17.114,0,0,1-.794-4.486l.087.132-3.785-1.786-.117-.056.028-.127c.475-2.138.974-4.384,1.5-6.762l.031-.138h.142l4.185-.017-.164.1a17.171,17.171,0,0,1,2.625-3.737l-.04.194q-.691-1.936-1.409-3.943l-.052-.148.132-.084,5.847-3.713.138-.087.115.115,2.969,2.952-.207-.05a17.167,17.167,0,0,1,4.5-.787l-.181.119q.889-1.872,1.793-3.782l.073-.152.165.037,6.76,1.515.166.038v.17q0,1.039,0,2.086l0,1.05v1.049c-.229-.377-.063-.1-.114-.188h0a17.165,17.165,0,0,1,3.734,2.632l-.216-.045,3.945-1.4.16-.057.091.143,3.7,5.853.09.141-.118.118-2.957,2.966.051-.208a17.336,17.336,0,0,1,.781,4.5l-.115-.175,3.778,1.8.143.068-.035.155-1.524,6.757-.034.149h-.151l-4.185,0,.162-.1a17.151,17.151,0,0,1-2.635,3.727l.037-.179c.488,1.38.964,2.725,1.4,3.948l.045.127-.113.072-5.86,3.693-.1.065-.085-.085-2.959-2.963.141.034a17.106,17.106,0,0,1-4.487.766l.107-.072-1.81,3.773-.038.078-.084-.019-6.75-1.555-.053-.013v-.054c.013-1.347.022-2.384.03-3.1.005-.342.011-.606.015-.8A1.88,1.88,0,0,1,3021.215,1223.945Z" transform="translate(-3008.082 -1187.729)" fill="#1a2e35"/>
                  </g>
                </g>
              </g>
            </g>
          </g>
        </g>
        <g id="Grupo_133685" data-name="Grupo 133685" transform="translate(54.161)">
          <g id="Grupo_133680" data-name="Grupo 133680">
            <g id="Grupo_133679" data-name="Grupo 133679">
              <g id="Grupo_133678" data-name="Grupo 133678">
                <g id="Grupo_133677" data-name="Grupo 133677">
                  <path id="Trazado_197200" data-name="Trazado 197200" d="M2984.829,1180.941a14.532,14.532,0,0,1-3.156-2.223l-3.373,1.2-3.17-5,2.526-2.537a14.561,14.561,0,0,1-.663-3.805l-3.232-1.535,1.3-5.78,3.578-.008a14.477,14.477,0,0,1,2.225-3.156l-1.2-3.374,5-3.17,2.537,2.526a14.489,14.489,0,0,1,3.805-.662l1.535-3.233,5.78,1.3.008,3.579a14.51,14.51,0,0,1,3.156,2.224l3.374-1.2,3.17,5-2.526,2.537a14.561,14.561,0,0,1,.662,3.8l3.232,1.536-1.3,5.78-3.578.007a14.472,14.472,0,0,1-2.225,3.157l1.2,3.373-5,3.17-2.538-2.527a14.52,14.52,0,0,1-3.805.663l-1.535,3.232-5.779-1.3-.009-3.579Zm5.1-6.8a6.354,6.354,0,1,0-4.809-7.591A6.355,6.355,0,0,0,2989.925,1174.139Z" transform="translate(-2973.76 -1150.18)" fill="#ffb30b" fill-rule="evenodd"/>
                </g>
              </g>
            </g>
          </g>
          <g id="Grupo_133684" data-name="Grupo 133684" opacity="0.4">
            <g id="Grupo_133683" data-name="Grupo 133683">
              <g id="Grupo_133682" data-name="Grupo 133682">
                <g id="Grupo_133681" data-name="Grupo 133681">
                  <path id="Trazado_197201" data-name="Trazado 197201" d="M2984.829,1180.941a14.532,14.532,0,0,1-3.156-2.223l-3.373,1.2-3.17-5,2.526-2.537a14.561,14.561,0,0,1-.663-3.805l-3.232-1.535,1.3-5.78,3.578-.008a14.477,14.477,0,0,1,2.225-3.156l-1.2-3.374,5-3.17,2.537,2.526a14.489,14.489,0,0,1,3.805-.662l1.535-3.233,5.78,1.3.008,3.579a14.51,14.51,0,0,1,3.156,2.224l3.374-1.2,3.17,5-2.526,2.537a14.561,14.561,0,0,1,.662,3.8l3.232,1.536-1.3,5.78-3.578.007a14.472,14.472,0,0,1-2.225,3.157l1.2,3.373-5,3.17-2.538-2.527a14.52,14.52,0,0,1-3.805.663l-1.535,3.232-5.779-1.3-.009-3.579Zm5.1-6.8a6.354,6.354,0,1,0-4.809-7.591A6.355,6.355,0,0,0,2989.925,1174.139Z" transform="translate(-2973.76 -1150.18)" fill="#fff" fill-rule="evenodd"/>
                </g>
              </g>
            </g>
          </g>
        </g>
      </g>
      <g id="Grupo_133806" data-name="Grupo 133806" transform="translate(2766.338 989.187)">
        <g id="Grupo_133694" data-name="Grupo 133694">
          <g id="Grupo_133693" data-name="Grupo 133693">
            <g id="Grupo_133689" data-name="Grupo 133689">
              <g id="Grupo_133688" data-name="Grupo 133688">
                <g id="Grupo_133687" data-name="Grupo 133687">
                  <path id="Trazado_197202" data-name="Trazado 197202" d="M2897.489,1306.187l-107.7-.064a23.46,23.46,0,0,1-23.447-23.465l.052-270.014a23.462,23.462,0,0,1,23.475-23.457l107.7.063a23.462,23.462,0,0,1,23.447,23.465l-.053,270.016A23.46,23.46,0,0,1,2897.489,1306.187Z" transform="translate(-2766.338 -989.187)" fill="#1a2e35"/>
                </g>
              </g>
            </g>
            <g id="Grupo_133692" data-name="Grupo 133692" transform="translate(7.137 9.551)">
              <g id="Grupo_133691" data-name="Grupo 133691">
                <g id="Grupo_133690" data-name="Grupo 133690">
                  <path id="Trazado_197203" data-name="Trazado 197203" d="M2898.1,999.668l-20.882-.013a5.187,5.187,0,0,0-5.071,5.3l0,3.788a5.187,5.187,0,0,1-5.072,5.3l-40.7-.024a5.193,5.193,0,0,1-5.07-5.3v-3.788a5.192,5.192,0,0,0-5.07-5.3l-7.344,0-18.276-.01a16.431,16.431,0,0,0-16.44,16.427l-.051,263.553a16.431,16.431,0,0,0,16.421,16.436l107.488.062a16.432,16.432,0,0,0,16.44-16.427l.051-263.554A16.43,16.43,0,0,0,2898.1,999.668Z" transform="translate(-2774.123 -999.605)" fill="#fff"/>
                </g>
              </g>
            </g>
          </g>
        </g>
        <g id="Grupo_133704" data-name="Grupo 133704" transform="translate(122.162 36.139)">
          <g id="Grupo_133697" data-name="Grupo 133697">
            <g id="Grupo_133696" data-name="Grupo 133696">
              <g id="Grupo_133695" data-name="Grupo 133695">
                <path id="Trazado_197204" data-name="Trazado 197204" d="M2911.724,1028.694c0,.072-2.715.151-6.064.179s-6.066-.007-6.067-.078,2.715-.15,6.065-.178S2911.724,1028.624,2911.724,1028.694Z" transform="translate(-2899.592 -1028.607)" fill="#1a2e35"/>
              </g>
            </g>
          </g>
          <g id="Grupo_133700" data-name="Grupo 133700" transform="translate(0.026 3.104)">
            <g id="Grupo_133699" data-name="Grupo 133699">
              <g id="Grupo_133698" data-name="Grupo 133698">
                <path id="Trazado_197205" data-name="Trazado 197205" d="M2911.751,1032.08c0,.071-2.714.15-6.064.178s-6.066-.006-6.067-.077,2.714-.15,6.065-.179S2911.751,1032.01,2911.751,1032.08Z" transform="translate(-2899.62 -1031.993)" fill="#1a2e35"/>
              </g>
            </g>
          </g>
          <g id="Grupo_133703" data-name="Grupo 133703" transform="translate(0.051 6.208)">
            <g id="Grupo_133702" data-name="Grupo 133702">
              <g id="Grupo_133701" data-name="Grupo 133701">
                <path id="Trazado_197206" data-name="Trazado 197206" d="M2911.78,1035.466c0,.071-2.715.15-6.064.178s-6.066-.007-6.067-.078,2.715-.15,6.065-.178S2911.78,1035.4,2911.78,1035.466Z" transform="translate(-2899.648 -1035.379)" fill="#1a2e35"/>
              </g>
            </g>
          </g>
        </g>
        <g id="Grupo_133707" data-name="Grupo 133707" transform="translate(23.826 35.822)">
          <g id="Grupo_133706" data-name="Grupo 133706">
            <g id="Grupo_133705" data-name="Grupo 133705">
              <path id="Trazado_197207" data-name="Trazado 197207" d="M2792.456,1038.416a2.012,2.012,0,0,1,.253-.017l.7-.023,2.59-.061-.072.072c-.009-.574-.019-1.2-.03-1.878,0-.349-.03-.678,0-1.081a1,1,0,0,1,.87-.8c.417-.008.785-.027,1.237-.006a1,1,0,0,1,.85,1c.01.875.02,1.791.031,2.739l-.12-.117,3.267-.034-.124.127c-.012-1.316-.024-2.677-.037-4.071q0-.521-.009-1.037a1.051,1.051,0,0,0-.459-.772l-1.428-1.408-1.378-1.36-.668-.659c-.229-.221-.409-.45-.675-.5a.877.877,0,0,0-.749.143c-.2.167-.409.4-.608.6l-1.173,1.182c-.737.766-1.505,1.466-2.064,2.128a2.315,2.315,0,0,0-.165,1.219q0,.608,0,1.152-.007,1.059-.012,1.854c-.006.474-.009.865-.013,1.186a3.96,3.96,0,0,1-.016.427,3.169,3.169,0,0,1-.022-.392c-.009-.316-.021-.7-.033-1.168q-.018-.8-.042-1.869c-.007-.37-.014-.762-.021-1.174,0-.209-.007-.423-.01-.643a1.351,1.351,0,0,1,.18-.684c.6-.741,1.326-1.4,2.069-2.185l1.163-1.192c.21-.205.381-.411.631-.625a1.112,1.112,0,0,1,.948-.186,1.762,1.762,0,0,1,.784.561l.671.656,1.383,1.356,1.431,1.405a2.709,2.709,0,0,1,.365.4,1.072,1.072,0,0,1,.171.551c0,.345.007.692.009,1.042.011,1.394.021,2.755.031,4.071v.126h-.125l-3.267.021h-.119v-.118c-.005-.949-.01-1.865-.015-2.74a.788.788,0,0,0-.66-.793c-.376-.02-.82-.007-1.185,0a.8.8,0,0,0-.7.635c-.032.328-.007.711-.014,1.044q0,1.015,0,1.879v.073H2796l-2.634-.018-.686-.012A1.151,1.151,0,0,1,2792.456,1038.416Z" transform="translate(-2792.327 -1028.262)" fill="#1a2e35"/>
            </g>
          </g>
        </g>
        <g id="Grupo_133726" data-name="Grupo 133726" transform="translate(18.862 62.168)">
          <g id="Grupo_133713" data-name="Grupo 133713">
            <g id="Grupo_133709" data-name="Grupo 133709" transform="translate(0.217 0.214)">
              <g id="Grupo_133708" data-name="Grupo 133708">
                <rect id="Rectángulo_295056" data-name="Rectángulo 295056" width="114.579" height="20.842" rx="9.586" fill="#f5f5f5"/>
              </g>
            </g>
            <g id="Grupo_133712" data-name="Grupo 133712">
              <g id="Grupo_133711" data-name="Grupo 133711">
                <g id="Grupo_133710" data-name="Grupo 133710">
                  <path id="Trazado_197208" data-name="Trazado 197208" d="M2892.92,1078.055s.224-.026.657-.055a9.429,9.429,0,0,0,1.891-.368,9.049,9.049,0,0,0,2.756-1.45,8.6,8.6,0,0,0,2.614-3.312,8.394,8.394,0,0,0,.689-2.428,22.159,22.159,0,0,0,.079-2.807,18.873,18.873,0,0,0-.135-3.054,8.674,8.674,0,0,0-6.92-7.073,24.028,24.028,0,0,0-3.983-.151l-4.234.007-90.41.063a8.59,8.59,0,0,0-8.546,7.862c-.072,1.038-.02,2.135-.037,3.194a10.017,10.017,0,0,0,.324,3.1,8.651,8.651,0,0,0,3.55,4.855,8.26,8.26,0,0,0,2.776,1.183,12.624,12.624,0,0,0,3.014.226l6.069,0,11.749.007,40.646.046,27.4.068,7.45.039,1.937.021c.437.007.66.022.66.022s-.224.015-.66.022l-1.937.021-7.45.04-27.4.068-40.646.045-11.749.007-6.069,0a12.962,12.962,0,0,1-3.108-.235,8.684,8.684,0,0,1-2.912-1.239,9.072,9.072,0,0,1-3.727-5.091,10.469,10.469,0,0,1-.342-3.214c.016-1.074-.038-2.121.038-3.229a9.014,9.014,0,0,1,8.969-8.255l90.41.063,4.234.007a24.093,24.093,0,0,1,4.034.171,8.91,8.91,0,0,1,7.088,7.3,19.025,19.025,0,0,1,.12,3.089,22.346,22.346,0,0,1-.1,2.832,8.568,8.568,0,0,1-.721,2.473,8.707,8.707,0,0,1-2.687,3.344,9.026,9.026,0,0,1-2.809,1.432,8.868,8.868,0,0,1-1.912.329C2893.143,1078.059,2892.92,1078.055,2892.92,1078.055Z" transform="translate(-2786.912 -1057)" fill="#1a2e35"/>
                </g>
              </g>
            </g>
          </g>
          <g id="Grupo_133720" data-name="Grupo 133720" transform="translate(100.013 6.181)">
            <g id="Grupo_133716" data-name="Grupo 133716">
              <g id="Grupo_133715" data-name="Grupo 133715">
                <g id="Grupo_133714" data-name="Grupo 133714">
                  <path id="Trazado_197209" data-name="Trazado 197209" d="M2903.769,1067.7c-.042,0-.037-.336-.2-.9a3.767,3.767,0,0,0-1.384-1.979,3.592,3.592,0,1,0,0,5.762,3.767,3.767,0,0,0,1.384-1.979c.162-.566.157-.9.2-.9.014,0,.025.083.031.243a2.843,2.843,0,0,1-.069.7,3.761,3.761,0,0,1-1.362,2.179,3.913,3.913,0,0,1-3.729.609,3.958,3.958,0,0,1,0-7.46,3.91,3.91,0,0,1,3.729.61,3.756,3.756,0,0,1,1.362,2.178,2.846,2.846,0,0,1,.069.7C2903.794,1067.615,2903.784,1067.7,2903.769,1067.7Z" transform="translate(-2896.006 -1063.742)" fill="#1a2e35"/>
                </g>
              </g>
            </g>
            <g id="Grupo_133719" data-name="Grupo 133719" transform="translate(6.453 6.8)">
              <g id="Grupo_133718" data-name="Grupo 133718">
                <g id="Grupo_133717" data-name="Grupo 133717">
                  <path id="Trazado_197210" data-name="Trazado 197210" d="M2906.433,1074.825a14.644,14.644,0,1,1-1.534-1.975A7.442,7.442,0,0,1,2906.433,1074.825Z" transform="translate(-2903.045 -1071.16)" fill="#1a2e35"/>
                </g>
              </g>
            </g>
          </g>
          <g id="Grupo_133725" data-name="Grupo 133725" transform="translate(13.641 8.018)">
            <g id="Grupo_133721" data-name="Grupo 133721">
              <path id="Trazado_197211" data-name="Trazado 197211" d="M2803.836,1066.278h-2.044v-.532h4.7v.532h-2.043v5.284h-.615Z" transform="translate(-2801.792 -1065.746)" fill="#e1e1e1"/>
            </g>
            <g id="Grupo_133722" data-name="Grupo 133722" transform="translate(4.662 1.413)">
              <path id="Trazado_197212" data-name="Trazado 197212" d="M2811.123,1069.688h-3.656a1.618,1.618,0,0,0,1.72,1.521,1.725,1.725,0,0,0,1.338-.574l.332.382a2.31,2.31,0,0,1-3.98-1.512,2.105,2.105,0,0,1,2.135-2.219,2.083,2.083,0,0,1,2.119,2.219C2811.131,1069.555,2811.123,1069.621,2811.123,1069.688Zm-3.656-.441h3.1a1.553,1.553,0,0,0-3.1,0Z" transform="translate(-2806.877 -1067.287)" fill="#e1e1e1"/>
            </g>
            <g id="Grupo_133723" data-name="Grupo 133723" transform="translate(9.331 1.446)">
              <path id="Trazado_197213" data-name="Trazado 197213" d="M2815.418,1071.693l-1.387-1.828-1.4,1.828h-.665l1.728-2.243-1.645-2.127h.664l1.314,1.712,1.312-1.712h.648l-1.645,2.127,1.745,2.243Z" transform="translate(-2811.97 -1067.323)" fill="#e1e1e1"/>
            </g>
            <g id="Grupo_133724" data-name="Grupo 133724" transform="translate(13.75 0.49)">
              <path id="Trazado_197214" data-name="Trazado 197214" d="M2819.774,1071.341a1.4,1.4,0,0,1-.922.308,1.158,1.158,0,0,1-1.28-1.272v-2.642h-.781v-.5h.781v-.955h.59v.955h1.329v.5h-1.329v2.608a.7.7,0,0,0,.755.8.977.977,0,0,0,.648-.225Z" transform="translate(-2816.791 -1066.281)" fill="#e1e1e1"/>
            </g>
          </g>
        </g>
        <g id="Grupo_133728" data-name="Grupo 133728" transform="translate(23.911 100.373)">
          <g id="Grupo_133727" data-name="Grupo 133727">
            <rect id="Rectángulo_295057" data-name="Rectángulo 295057" width="25.079" height="25.079" fill="#ffb30b"/>
          </g>
        </g>
        <g id="Grupo_133741" data-name="Grupo 133741" transform="translate(59.778 102.858)">
          <g id="Grupo_133731" data-name="Grupo 133731">
            <g id="Grupo_133730" data-name="Grupo 133730">
              <g id="Grupo_133729" data-name="Grupo 133729">
                <path id="Trazado_197215" data-name="Trazado 197215" d="M2869,1101.6c0,.117-8.386.213-18.728.213s-18.73-.1-18.73-.213,8.384-.214,18.73-.214S2869,1101.479,2869,1101.6Z" transform="translate(-2831.544 -1101.384)" fill="#ffb30b"/>
              </g>
            </g>
          </g>
          <g id="Grupo_133734" data-name="Grupo 133734" transform="translate(0 7.688)">
            <g id="Grupo_133733" data-name="Grupo 133733">
              <g id="Grupo_133732" data-name="Grupo 133732">
                <path id="Trazado_197216" data-name="Trazado 197216" d="M2898.872,1109.983c0,.118-15.073.214-33.663.214s-33.665-.1-33.665-.214,15.07-.213,33.665-.213S2898.872,1109.865,2898.872,1109.983Z" transform="translate(-2831.544 -1109.77)" fill="#1a2e35"/>
              </g>
            </g>
          </g>
          <g id="Grupo_133737" data-name="Grupo 133737" transform="translate(0 13.178)">
            <g id="Grupo_133736" data-name="Grupo 133736">
              <g id="Grupo_133735" data-name="Grupo 133735">
                <path id="Trazado_197217" data-name="Trazado 197217" d="M2898.08,1115.972c0,.118-14.9.214-33.266.214s-33.269-.1-33.269-.214,14.892-.213,33.269-.213S2898.08,1115.854,2898.08,1115.972Z" transform="translate(-2831.544 -1115.759)" fill="#1a2e35"/>
              </g>
            </g>
          </g>
          <g id="Grupo_133740" data-name="Grupo 133740" transform="translate(0 18.416)">
            <g id="Grupo_133739" data-name="Grupo 133739">
              <g id="Grupo_133738" data-name="Grupo 133738">
                <path id="Trazado_197218" data-name="Trazado 197218" d="M2870.828,1121.685c0,.118-8.795.214-19.642.214s-19.643-.1-19.643-.214,8.793-.213,19.643-.213S2870.828,1121.567,2870.828,1121.685Z" transform="translate(-2831.544 -1121.472)" fill="#1a2e35"/>
              </g>
            </g>
          </g>
        </g>
        <g id="Grupo_133743" data-name="Grupo 133743" transform="translate(23.911 142.156)">
          <g id="Grupo_133742" data-name="Grupo 133742">
            <rect id="Rectángulo_295058" data-name="Rectángulo 295058" width="25.079" height="25.079" fill="#ffb30b"/>
          </g>
        </g>
        <g id="Grupo_133756" data-name="Grupo 133756" transform="translate(59.778 144.642)">
          <g id="Grupo_133746" data-name="Grupo 133746">
            <g id="Grupo_133745" data-name="Grupo 133745">
              <g id="Grupo_133744" data-name="Grupo 133744">
                <path id="Trazado_197219" data-name="Trazado 197219" d="M2869,1147.175c0,.118-8.386.214-18.728.214s-18.73-.1-18.73-.214,8.384-.213,18.73-.213S2869,1147.057,2869,1147.175Z" transform="translate(-2831.544 -1146.962)" fill="#ffb30b"/>
              </g>
            </g>
          </g>
          <g id="Grupo_133749" data-name="Grupo 133749" transform="translate(0 7.688)">
            <g id="Grupo_133748" data-name="Grupo 133748">
              <g id="Grupo_133747" data-name="Grupo 133747">
                <path id="Trazado_197220" data-name="Trazado 197220" d="M2898.872,1155.561c0,.118-15.073.214-33.663.214s-33.665-.1-33.665-.214,15.07-.213,33.665-.213S2898.872,1155.443,2898.872,1155.561Z" transform="translate(-2831.544 -1155.348)" fill="#1a2e35"/>
              </g>
            </g>
          </g>
          <g id="Grupo_133752" data-name="Grupo 133752" transform="translate(0 13.178)">
            <g id="Grupo_133751" data-name="Grupo 133751">
              <g id="Grupo_133750" data-name="Grupo 133750">
                <path id="Trazado_197221" data-name="Trazado 197221" d="M2898.08,1161.55c0,.118-14.9.214-33.266.214s-33.269-.1-33.269-.214,14.892-.213,33.269-.213S2898.08,1161.432,2898.08,1161.55Z" transform="translate(-2831.544 -1161.337)" fill="#1a2e35"/>
              </g>
            </g>
          </g>
          <g id="Grupo_133755" data-name="Grupo 133755" transform="translate(0 18.415)">
            <g id="Grupo_133754" data-name="Grupo 133754">
              <g id="Grupo_133753" data-name="Grupo 133753">
                <path id="Trazado_197222" data-name="Trazado 197222" d="M2870.828,1167.263c0,.117-8.795.214-19.642.214s-19.643-.1-19.643-.214,8.793-.214,19.643-.214S2870.828,1167.145,2870.828,1167.263Z" transform="translate(-2831.544 -1167.049)" fill="#1a2e35"/>
              </g>
            </g>
          </g>
        </g>
        <g id="Grupo_133758" data-name="Grupo 133758" transform="translate(23.911 183.94)">
          <g id="Grupo_133757" data-name="Grupo 133757">
            <rect id="Rectángulo_295059" data-name="Rectángulo 295059" width="25.079" height="25.079" fill="#ffb30b"/>
          </g>
        </g>
        <g id="Grupo_133771" data-name="Grupo 133771" transform="translate(59.778 186.425)">
          <g id="Grupo_133761" data-name="Grupo 133761">
            <g id="Grupo_133760" data-name="Grupo 133760">
              <g id="Grupo_133759" data-name="Grupo 133759">
                <path id="Trazado_197223" data-name="Trazado 197223" d="M2869,1192.753c0,.117-8.386.213-18.728.213s-18.73-.1-18.73-.213,8.384-.214,18.73-.214S2869,1192.634,2869,1192.753Z" transform="translate(-2831.544 -1192.539)" fill="#ffb30b"/>
              </g>
            </g>
          </g>
          <g id="Grupo_133764" data-name="Grupo 133764" transform="translate(0 7.688)">
            <g id="Grupo_133763" data-name="Grupo 133763">
              <g id="Grupo_133762" data-name="Grupo 133762">
                <path id="Trazado_197224" data-name="Trazado 197224" d="M2898.872,1201.139c0,.117-15.073.213-33.663.213s-33.665-.1-33.665-.213,15.07-.214,33.665-.214S2898.872,1201.02,2898.872,1201.139Z" transform="translate(-2831.544 -1200.925)" fill="#1a2e35"/>
              </g>
            </g>
          </g>
          <g id="Grupo_133767" data-name="Grupo 133767" transform="translate(0 13.178)">
            <g id="Grupo_133766" data-name="Grupo 133766">
              <g id="Grupo_133765" data-name="Grupo 133765">
                <path id="Trazado_197225" data-name="Trazado 197225" d="M2898.08,1207.128c0,.117-14.9.213-33.266.213s-33.269-.1-33.269-.213,14.892-.214,33.269-.214S2898.08,1207.009,2898.08,1207.128Z" transform="translate(-2831.544 -1206.914)" fill="#1a2e35"/>
              </g>
            </g>
          </g>
          <g id="Grupo_133770" data-name="Grupo 133770" transform="translate(0 18.416)">
            <g id="Grupo_133769" data-name="Grupo 133769">
              <g id="Grupo_133768" data-name="Grupo 133768">
                <path id="Trazado_197226" data-name="Trazado 197226" d="M2870.828,1212.841c0,.117-8.795.213-19.642.213s-19.643-.1-19.643-.213,8.793-.214,19.643-.214S2870.828,1212.722,2870.828,1212.841Z" transform="translate(-2831.544 -1212.627)" fill="#1a2e35"/>
              </g>
            </g>
          </g>
        </g>
        <g id="Grupo_133773" data-name="Grupo 133773" transform="translate(23.911 225.723)">
          <g id="Grupo_133772" data-name="Grupo 133772">
            <rect id="Rectángulo_295060" data-name="Rectángulo 295060" width="25.079" height="25.079" fill="#ffb30b"/>
          </g>
        </g>
        <g id="Grupo_133786" data-name="Grupo 133786" transform="translate(59.778 228.209)">
          <g id="Grupo_133776" data-name="Grupo 133776">
            <g id="Grupo_133775" data-name="Grupo 133775">
              <g id="Grupo_133774" data-name="Grupo 133774">
                <path id="Trazado_197227" data-name="Trazado 197227" d="M2869,1238.33c0,.118-8.386.214-18.728.214s-18.73-.1-18.73-.214,8.384-.213,18.73-.213S2869,1238.212,2869,1238.33Z" transform="translate(-2831.544 -1238.117)" fill="#375a64"/>
              </g>
            </g>
          </g>
          <g id="Grupo_133779" data-name="Grupo 133779" transform="translate(0 7.688)">
            <g id="Grupo_133778" data-name="Grupo 133778">
              <g id="Grupo_133777" data-name="Grupo 133777">
                <path id="Trazado_197228" data-name="Trazado 197228" d="M2898.872,1246.716c0,.118-15.073.214-33.663.214s-33.665-.1-33.665-.214,15.07-.213,33.665-.213S2898.872,1246.6,2898.872,1246.716Z" transform="translate(-2831.544 -1246.503)" fill="#1a2e35"/>
              </g>
            </g>
          </g>
          <g id="Grupo_133782" data-name="Grupo 133782" transform="translate(0 13.178)">
            <g id="Grupo_133781" data-name="Grupo 133781">
              <g id="Grupo_133780" data-name="Grupo 133780">
                <path id="Trazado_197229" data-name="Trazado 197229" d="M2898.08,1252.7c0,.118-14.9.214-33.266.214s-33.269-.1-33.269-.214,14.892-.213,33.269-.213S2898.08,1252.587,2898.08,1252.7Z" transform="translate(-2831.544 -1252.492)" fill="#1a2e35"/>
              </g>
            </g>
          </g>
          <g id="Grupo_133785" data-name="Grupo 133785" transform="translate(0 18.416)">
            <g id="Grupo_133784" data-name="Grupo 133784">
              <g id="Grupo_133783" data-name="Grupo 133783">
                <path id="Trazado_197230" data-name="Trazado 197230" d="M2870.828,1258.418c0,.118-8.795.214-19.642.214s-19.643-.1-19.643-.214,8.793-.213,19.643-.213S2870.828,1258.3,2870.828,1258.418Z" transform="translate(-2831.544 -1258.205)" fill="#1a2e35"/>
              </g>
            </g>
          </g>
        </g>
        <g id="Grupo_133788" data-name="Grupo 133788" transform="translate(23.911 267.507)">
          <g id="Grupo_133787" data-name="Grupo 133787">
            <rect id="Rectángulo_295061" data-name="Rectángulo 295061" width="25.079" height="25.079" fill="#e1e1e1"/>
          </g>
        </g>
        <g id="Grupo_133801" data-name="Grupo 133801" transform="translate(59.778 269.993)">
          <g id="Grupo_133791" data-name="Grupo 133791">
            <g id="Grupo_133790" data-name="Grupo 133790">
              <g id="Grupo_133789" data-name="Grupo 133789">
                <path id="Trazado_197231" data-name="Trazado 197231" d="M2869,1283.908c0,.118-8.386.214-18.728.214s-18.73-.1-18.73-.214,8.384-.213,18.73-.213S2869,1283.79,2869,1283.908Z" transform="translate(-2831.544 -1283.695)" fill="#e1e1e1"/>
              </g>
            </g>
          </g>
          <g id="Grupo_133794" data-name="Grupo 133794" transform="translate(0 7.687)">
            <g id="Grupo_133793" data-name="Grupo 133793">
              <g id="Grupo_133792" data-name="Grupo 133792">
                <path id="Trazado_197232" data-name="Trazado 197232" d="M2898.872,1292.294c0,.117-15.073.214-33.663.214s-33.665-.1-33.665-.214,15.07-.214,33.665-.214S2898.872,1292.176,2898.872,1292.294Z" transform="translate(-2831.544 -1292.08)" fill="#ececec"/>
              </g>
            </g>
          </g>
          <g id="Grupo_133797" data-name="Grupo 133797" transform="translate(0 13.178)">
            <g id="Grupo_133796" data-name="Grupo 133796">
              <g id="Grupo_133795" data-name="Grupo 133795">
                <path id="Trazado_197233" data-name="Trazado 197233" d="M2898.08,1298.283c0,.117-14.9.213-33.266.213s-33.269-.1-33.269-.213,14.892-.214,33.269-.214S2898.08,1298.164,2898.08,1298.283Z" transform="translate(-2831.544 -1298.069)" fill="#ececec"/>
              </g>
            </g>
          </g>
          <g id="Grupo_133800" data-name="Grupo 133800" transform="translate(0 18.415)">
            <g id="Grupo_133799" data-name="Grupo 133799">
              <g id="Grupo_133798" data-name="Grupo 133798">
                <path id="Trazado_197234" data-name="Trazado 197234" d="M2870.828,1304c0,.117-8.795.213-19.642.213s-19.643-.1-19.643-.213,8.793-.214,19.643-.214S2870.828,1303.877,2870.828,1304Z" transform="translate(-2831.544 -1303.782)" fill="#ececec"/>
              </g>
            </g>
          </g>
        </g>
        <g id="Grupo_133803" data-name="Grupo 133803" transform="translate(23.911 225.723)" opacity="0.3">
          <g id="Grupo_133802" data-name="Grupo 133802">
            <rect id="Rectángulo_295062" data-name="Rectángulo 295062" width="25.079" height="25.079"/>
          </g>
        </g>
        <g id="Grupo_133805" data-name="Grupo 133805" transform="translate(23.911 142.156)" opacity="0.3">
          <g id="Grupo_133804" data-name="Grupo 133804">
            <rect id="Rectángulo_295063" data-name="Rectángulo 295063" width="25.079" height="25.079"/>
          </g>
        </g>
      </g>
      <g id="Grupo_133937" data-name="Grupo 133937" transform="translate(2815.186 1021.091)">
        <g id="Grupo_133825" data-name="Grupo 133825" transform="translate(100.539 266.118)">
          <g id="Grupo_133818" data-name="Grupo 133818">
            <g id="Grupo_133817" data-name="Grupo 133817">
              <g id="Grupo_133809" data-name="Grupo 133809">
                <g id="Grupo_133808" data-name="Grupo 133808">
                  <g id="Grupo_133807" data-name="Grupo 133807">
                    <path id="Trazado_197235" data-name="Trazado 197235" d="M2943.085,1314.27l4.7,17.39-15.285,1.4-3.213-16.555Z" transform="translate(-2929.29 -1314.27)" fill="#ffb30b"/>
                  </g>
                </g>
              </g>
              <g id="Grupo_133813" data-name="Grupo 133813" transform="translate(2.769 15.575)">
                <g id="Grupo_133812" data-name="Grupo 133812">
                  <g id="Grupo_133811" data-name="Grupo 133811">
                    <g id="Grupo_133810" data-name="Grupo 133810">
                      <path id="Trazado_197236" data-name="Trazado 197236" d="M2932.31,1333.052a10.74,10.74,0,0,0,2.239-.076c1.377-.11,3.275-.321,5.363-.589l5.343-.718a12.49,12.49,0,0,0,2.2-.381,10.924,10.924,0,0,0-2.238.083c-1.377.114-3.274.326-5.363.594l-5.342.712A12.654,12.654,0,0,0,2932.31,1333.052Z" transform="translate(-2932.31 -1331.259)" fill="#1a2e35"/>
                    </g>
                  </g>
                </g>
              </g>
              <g id="Grupo_133816" data-name="Grupo 133816" transform="translate(2.965 15.592)" opacity="0.6">
                <g id="Grupo_133815" data-name="Grupo 133815">
                  <g id="Grupo_133814" data-name="Grupo 133814">
                    <path id="Trazado_197237" data-name="Trazado 197237" d="M2948.057,1333.076l-15.285,1.4-.248-1.275,15.091-1.918.426,1.625" transform="translate(-2932.524 -1331.278)" fill="#fff"/>
                  </g>
                </g>
              </g>
            </g>
          </g>
          <g id="Grupo_133821" data-name="Grupo 133821" transform="translate(7.639 3.376)">
            <g id="Grupo_133820" data-name="Grupo 133820">
              <g id="Grupo_133819" data-name="Grupo 133819">
                <path id="Trazado_197238" data-name="Trazado 197238" d="M2940.888,1331.193a129.233,129.233,0,0,0-3.255-13.241,129.79,129.79,0,0,0,3.255,13.241Z" transform="translate(-2937.623 -1317.952)" fill="#1a2e35"/>
              </g>
            </g>
          </g>
          <g id="Grupo_133824" data-name="Grupo 133824" transform="translate(3.204 8.859)">
            <g id="Grupo_133823" data-name="Grupo 133823">
              <g id="Grupo_133822" data-name="Grupo 133822">
                <path id="Trazado_197239" data-name="Trazado 197239" d="M2933.195,1332.33a7.331,7.331,0,0,1-.035-3.233,6.433,6.433,0,0,1,1.672-3.026,6.258,6.258,0,0,1,3.8-1.747,6.506,6.506,0,0,1,4.093.931,7.087,7.087,0,0,1,2.381,2.528,9.029,9.029,0,0,1,.964,3.1c.013,0,.02-.079.023-.231a4.737,4.737,0,0,0-.036-.662,6.981,6.981,0,0,0-.728-2.328,7.142,7.142,0,0,0-2.427-2.688,6.736,6.736,0,0,0-4.307-1.008,6.3,6.3,0,0,0-5.689,5.076,6.05,6.05,0,0,0-.006,2.441,4.048,4.048,0,0,0,.189.637C2933.149,1332.262,2933.183,1332.333,2933.195,1332.33Z" transform="translate(-2932.785 -1323.933)" fill="#1a2e35"/>
              </g>
            </g>
          </g>
        </g>
        <g id="Grupo_133852" data-name="Grupo 133852" transform="translate(36.624 260.957)">
          <g id="Grupo_133845" data-name="Grupo 133845">
            <g id="Grupo_133827" data-name="Grupo 133827" transform="translate(0.153)">
              <g id="Grupo_133826" data-name="Grupo 133826">
                <path id="Trazado_197240" data-name="Trazado 197240" d="M2874.181,1309.135l1.023,15.449s-15.378,5.1-15.467,7.977l30.045.218-.607-24.139Z" transform="translate(-2859.738 -1308.64)" fill="#ffb30b"/>
              </g>
            </g>
            <g id="Grupo_133830" data-name="Grupo 133830" transform="translate(23.43 14.319)" opacity="0.6">
              <g id="Grupo_133829" data-name="Grupo 133829">
                <g id="Grupo_133828" data-name="Grupo 133828">
                  <path id="Trazado_197241" data-name="Trazado 197241" d="M2886.564,1324.3a1.227,1.227,0,0,1,.89,1.373,1.179,1.179,0,0,1-1.354.895,1.3,1.3,0,0,1-.935-1.459,1.224,1.224,0,0,1,1.512-.775" transform="translate(-2885.128 -1324.259)" fill="#fff"/>
                </g>
              </g>
            </g>
            <g id="Grupo_133832" data-name="Grupo 133832" transform="translate(0 21.706)" opacity="0.6">
              <g id="Grupo_133831" data-name="Grupo 133831">
                <path id="Trazado_197242" data-name="Trazado 197242" d="M2889.769,1334.75l-.061-2.433-29.018.8a2.075,2.075,0,0,0-1.118,1.632Z" transform="translate(-2859.571 -1332.317)" fill="#fff"/>
              </g>
            </g>
            <g id="Grupo_133835" data-name="Grupo 133835" transform="translate(15.127 15.656)">
              <g id="Grupo_133834" data-name="Grupo 133834">
                <g id="Grupo_133833" data-name="Grupo 133833">
                  <path id="Trazado_197243" data-name="Trazado 197243" d="M2876.073,1325.868c.009.147.745.191,1.48.641.748.43,1.139,1.054,1.272.992.134-.033-.111-.9-1.011-1.432S2876.037,1325.734,2876.073,1325.868Z" transform="translate(-2876.072 -1325.717)" fill="#1a2e35"/>
                </g>
              </g>
            </g>
            <g id="Grupo_133838" data-name="Grupo 133838" transform="translate(12.017 17.14)">
              <g id="Grupo_133837" data-name="Grupo 133837">
                <g id="Grupo_133836" data-name="Grupo 133836">
                  <path id="Trazado_197244" data-name="Trazado 197244" d="M2872.68,1327.4c-.029.143.614.373,1.131.978.534.589.68,1.257.826,1.246.138.019.215-.844-.443-1.583S2872.679,1327.261,2872.68,1327.4Z" transform="translate(-2872.679 -1327.336)" fill="#1a2e35"/>
                </g>
              </g>
            </g>
            <g id="Grupo_133841" data-name="Grupo 133841" transform="translate(9.095 18.532)">
              <g id="Grupo_133840" data-name="Grupo 133840">
                <g id="Grupo_133839" data-name="Grupo 133839">
                  <path id="Trazado_197245" data-name="Trazado 197245" d="M2870.741,1331.351c.134.027.315-.712-.085-1.5s-1.1-1.09-1.154-.966c-.08.123.379.54.7,1.2C2870.533,1330.724,2870.594,1331.341,2870.741,1331.351Z" transform="translate(-2869.492 -1328.854)" fill="#1a2e35"/>
                </g>
              </g>
            </g>
            <g id="Grupo_133844" data-name="Grupo 133844" transform="translate(15.28 11.688)">
              <g id="Grupo_133843" data-name="Grupo 133843">
                <g id="Grupo_133842" data-name="Grupo 133842">
                  <path id="Trazado_197246" data-name="Trazado 197246" d="M2876.245,1321.961c.065.132.731-.091,1.562-.06.832.015,1.484.273,1.557.145.083-.108-.564-.632-1.543-.655S2876.168,1321.848,2876.245,1321.961Z" transform="translate(-2876.239 -1321.39)" fill="#1a2e35"/>
                </g>
              </g>
            </g>
          </g>
          <g id="Grupo_133848" data-name="Grupo 133848" transform="translate(15.137 6.605)">
            <g id="Grupo_133847" data-name="Grupo 133847">
              <g id="Grupo_133846" data-name="Grupo 133846">
                <path id="Trazado_197247" data-name="Trazado 197247" d="M2876.082,1318.379a2.82,2.82,0,0,0,1.5-.053,6.785,6.785,0,0,0,1.56-.531,7.114,7.114,0,0,0,.85-.485,1.856,1.856,0,0,0,.443-.367.642.642,0,0,0,.044-.783.806.806,0,0,0-.653-.315,1.969,1.969,0,0,0-.562.094,5.428,5.428,0,0,0-.925.349,5.311,5.311,0,0,0-1.36.953c-.677.667-.9,1.221-.847,1.248.068.047.393-.423,1.086-.976a5.956,5.956,0,0,1,1.318-.8,5.686,5.686,0,0,1,.855-.292c.315-.093.586-.1.672.036.031.053.036.074-.028.17a1.526,1.526,0,0,1-.326.268,7.77,7.77,0,0,1-.78.479,8.338,8.338,0,0,1-1.437.6A10.311,10.311,0,0,0,2876.082,1318.379Z" transform="translate(-2876.082 -1315.845)" fill="#1a2e35"/>
              </g>
            </g>
          </g>
          <g id="Grupo_133851" data-name="Grupo 133851" transform="translate(13.26 4.607)">
            <g id="Grupo_133850" data-name="Grupo 133850">
              <g id="Grupo_133849" data-name="Grupo 133849">
                <path id="Trazado_197248" data-name="Trazado 197248" d="M2876.109,1318.4a2.392,2.392,0,0,0,.353-1.465,4.876,4.876,0,0,0-.255-1.64,4.952,4.952,0,0,0-.411-.9,1.245,1.245,0,0,0-.982-.731.7.7,0,0,0-.616.438,2.07,2.07,0,0,0-.137.557,3.348,3.348,0,0,0,.029,1.013,3.472,3.472,0,0,0,.689,1.534c.61.76,1.228.917,1.239.867.047-.075-.473-.343-.944-1.077a3.455,3.455,0,0,1-.519-1.4,3.11,3.11,0,0,1,0-.87c.037-.321.149-.582.27-.553.15-.007.41.225.541.477a4.955,4.955,0,0,1,.4.8,5.384,5.384,0,0,1,.337,1.492C2876.168,1317.828,2876.029,1318.382,2876.109,1318.4Z" transform="translate(-2874.035 -1313.665)" fill="#1a2e35"/>
              </g>
            </g>
          </g>
        </g>
        <g id="Grupo_133904" data-name="Grupo 133904" transform="translate(47.918 126.883)">
          <g id="Grupo_133853" data-name="Grupo 133853">
            <path id="Trazado_197249" data-name="Trazado 197249" d="M2875.192,1162.737l45.779-.345,22.121,145.292-19,2.411-24.349-119.465-7.287,119.89-.019.357-20.547-.359Z" transform="translate(-2871.891 -1162.392)" fill="#1a2e35"/>
          </g>
          <g id="Grupo_133854" data-name="Grupo 133854" transform="translate(10.288 11.644)">
            <path id="Trazado_197250" data-name="Trazado 197250" d="M2896.948,1175.568a9.634,9.634,0,0,1-1.03.03l-2.8,0-9.771-.079.215-.212c.008,2.873.018,6.083.027,9.489l-.077-.175,1.725,1.583,5.068,4.667-.307,0,6.827-5.974-.062.14c.04-2.831.073-5.161.1-6.856.019-.784.034-1.418.047-1.915a5.366,5.366,0,0,1,.041-.7,3.461,3.461,0,0,1,.04.627c.013.485.028,1.106.048,1.873.024,1.724.057,4.092.1,6.97v.082l-.063.057-6.768,6.041-.155.137-.153-.14-5.081-4.654-1.723-1.585-.078-.071v-.1c.009-3.407.018-6.616.027-9.489v-.217l.214.006,9.9.293,2.75.108A6.47,6.47,0,0,1,2896.948,1175.568Z" transform="translate(-2883.113 -1175.093)" fill="#375a64"/>
          </g>
          <g id="Grupo_133855" data-name="Grupo 133855" transform="translate(33.245 11.482)">
            <path id="Trazado_197251" data-name="Trazado 197251" d="M2920.577,1174.924a8.277,8.277,0,0,1-.914.14l-2.5.307-8.761.99.184-.231c.353,2.808.754,6.007,1.182,9.415l-.087-.157,1.975,1.574,4.86,3.886-.324.037,5.384-6.68-.04.14c-.3-2.8-.551-5.118-.733-6.809-.075-.779-.137-1.414-.185-1.911a5.246,5.246,0,0,1-.044-.7,3.418,3.418,0,0,1,.118.619c.072.484.163,1.1.275,1.858l.944,6.9.01.077-.051.064-5.318,6.732-.143.181-.181-.144-4.869-3.874-1.974-1.576-.076-.061-.012-.1c-.406-3.411-.788-6.613-1.121-9.422l-.026-.213.21-.018,8.912-.8,2.461-.193A5.3,5.3,0,0,1,2920.577,1174.924Z" transform="translate(-2908.154 -1174.917)" fill="#375a64"/>
          </g>
          <g id="Grupo_133856" data-name="Grupo 133856" transform="translate(17.659 26.517)">
            <path id="Trazado_197252" data-name="Trazado 197252" d="M2891.154,1198.342a10.321,10.321,0,0,1,1.922-1.285c1.224-.732,2.948-1.689,4.894-2.66s3.75-1.772,5.071-2.31a10.331,10.331,0,0,1,2.182-.762,11.931,11.931,0,0,1-2.045,1.071c-1.281.615-3.053,1.461-4.994,2.428s-3.681,1.874-4.943,2.529A12,12,0,0,1,2891.154,1198.342Z" transform="translate(-2891.153 -1191.317)" fill="#375a64"/>
          </g>
          <g id="Grupo_133857" data-name="Grupo 133857" transform="translate(18.248 29.336)">
            <path id="Trazado_197253" data-name="Trazado 197253" d="M2891.8,1202.126a18.55,18.55,0,0,0,7.849-7.732,12.2,12.2,0,0,1-7.849,7.732Z" transform="translate(-2891.795 -1194.392)" fill="#375a64"/>
          </g>
          <g id="Grupo_133858" data-name="Grupo 133858" transform="translate(5.319 79.052)">
            <path id="Trazado_197254" data-name="Trazado 197254" d="M2877.7,1248.623c.083-.034.421,1.042,1.427,2.506a11.928,11.928,0,0,0,12.012,5.069c1.752-.3,2.758-.809,2.792-.726a2.245,2.245,0,0,1-.684.391,10.085,10.085,0,0,1-2.043.667,11.6,11.6,0,0,1-12.359-5.214,10.043,10.043,0,0,1-.948-1.93A2.243,2.243,0,0,1,2877.7,1248.623Z" transform="translate(-2877.693 -1248.622)" fill="#375a64"/>
          </g>
          <g id="Grupo_133859" data-name="Grupo 133859" transform="translate(8.335 77.803)">
            <path id="Trazado_197255" data-name="Trazado 197255" d="M2880.983,1247.271a14.243,14.243,0,0,1,1.836.468,22.213,22.213,0,0,0,4.485.608c3.55.132,6.419-.411,6.442-.252a6.465,6.465,0,0,1-1.857.45,23.692,23.692,0,0,1-4.6.28,16.936,16.936,0,0,1-4.558-.761A5.205,5.205,0,0,1,2880.983,1247.271Z" transform="translate(-2880.982 -1247.26)" fill="#375a64"/>
          </g>
          <g id="Grupo_133860" data-name="Grupo 133860" transform="translate(42.371 78.673)">
            <path id="Trazado_197256" data-name="Trazado 197256" d="M2918.11,1248.214a24.189,24.189,0,0,0,13.373,4.98,6.722,6.722,0,0,1-2.15.07,18.305,18.305,0,0,1-9.643-3.59A6.729,6.729,0,0,1,2918.11,1248.214Z" transform="translate(-2918.108 -1248.209)" fill="#375a64"/>
          </g>
          <g id="Grupo_133861" data-name="Grupo 133861" transform="translate(46.385 77.819)">
            <path id="Trazado_197257" data-name="Trazado 197257" d="M2922.487,1247.96c.021-.141,1.882.088,4.163-.1,2.283-.173,4.083-.695,4.126-.558a12.591,12.591,0,0,1-8.289.66Z" transform="translate(-2922.487 -1247.277)" fill="#375a64"/>
          </g>
          <g id="Grupo_133862" data-name="Grupo 133862" transform="translate(28.125 29.23)">
            <path id="Trazado_197258" data-name="Trazado 197258" d="M2902.57,1194.287a43.857,43.857,0,0,0,15.033,2.407,8.253,8.253,0,0,1-2.246.263,28.256,28.256,0,0,1-10.735-1.719A8.237,8.237,0,0,1,2902.57,1194.287Z" transform="translate(-2902.57 -1194.276)" fill="#375a64"/>
          </g>
          <g id="Grupo_133869" data-name="Grupo 133869" transform="translate(28.332 6.019)">
            <g id="Grupo_133863" data-name="Grupo 133863" transform="translate(0.793 18.307)">
              <path id="Trazado_197259" data-name="Trazado 197259" d="M2903.911,1188.927c.132,0,.234.413.227.92s-.118.917-.25.914-.234-.414-.228-.92S2903.78,1188.926,2903.911,1188.927Z" transform="translate(-2903.661 -1188.927)" fill="#375a64"/>
            </g>
            <g id="Grupo_133864" data-name="Grupo 133864" transform="translate(0.8 14.64)">
              <path id="Trazado_197260" data-name="Trazado 197260" d="M2903.9,1184.927c.132,0,.243.407.248.914s-.1.919-.23.92-.243-.41-.248-.915S2903.766,1184.929,2903.9,1184.927Z" transform="translate(-2903.668 -1184.927)" fill="#375a64"/>
            </g>
            <g id="Grupo_133865" data-name="Grupo 133865" transform="translate(0.723 10.974)">
              <path id="Trazado_197261" data-name="Trazado 197261" d="M2903.8,1180.928c.132-.005.251.4.268.908s-.078.921-.21.924-.251-.4-.268-.909S2903.664,1180.933,2903.8,1180.928Z" transform="translate(-2903.584 -1180.928)" fill="#375a64"/>
            </g>
            <g id="Grupo_133866" data-name="Grupo 133866" transform="translate(0.564 7.31)">
              <path id="Trazado_197262" data-name="Trazado 197262" d="M2903.605,1176.932c.132-.008.26.4.288.9s-.058.922-.19.929-.26-.4-.288-.9S2903.473,1176.939,2903.605,1176.932Z" transform="translate(-2903.411 -1176.932)" fill="#375a64"/>
            </g>
            <g id="Grupo_133867" data-name="Grupo 133867" transform="translate(0.323 3.652)">
              <path id="Trazado_197263" data-name="Trazado 197263" d="M2903.327,1172.941c.131-.01.269.39.307.9s-.038.923-.169.932-.27-.392-.307-.9S2903.195,1172.952,2903.327,1172.941Z" transform="translate(-2903.148 -1172.941)" fill="#375a64"/>
            </g>
            <g id="Grupo_133868" data-name="Grupo 133868">
              <path id="Trazado_197264" data-name="Trazado 197264" d="M2902.959,1168.958c.131-.014.278.385.327.889s-.017.924-.149.936-.278-.386-.326-.889S2902.828,1168.972,2902.959,1168.958Z" transform="translate(-2902.795 -1168.958)" fill="#375a64"/>
            </g>
          </g>
          <g id="Grupo_133903" data-name="Grupo 133903" transform="translate(31.254 29.701)">
            <g id="Grupo_133870" data-name="Grupo 133870" transform="translate(22.945 114.593)">
              <path id="Trazado_197265" data-name="Trazado 197265" d="M2931.125,1319.79c.129-.026.314.356.414.853s.075.92-.054.945-.315-.356-.415-.852S2931,1319.816,2931.125,1319.79Z" transform="translate(-2931.01 -1319.789)" fill="#375a64"/>
            </g>
            <g id="Grupo_133871" data-name="Grupo 133871" transform="translate(22.226 110.998)">
              <path id="Trazado_197266" data-name="Trazado 197266" d="M2930.342,1315.868c.129-.026.314.356.413.852s.075.92-.054.946-.314-.356-.414-.852S2930.212,1315.894,2930.342,1315.868Z" transform="translate(-2930.226 -1315.867)" fill="#375a64"/>
            </g>
            <g id="Grupo_133872" data-name="Grupo 133872" transform="translate(21.507 107.402)">
              <path id="Trazado_197267" data-name="Trazado 197267" d="M2929.556,1311.946c.129-.027.314.355.415.852s.074.92-.055.946-.314-.356-.414-.853S2929.427,1311.972,2929.556,1311.946Z" transform="translate(-2929.441 -1311.945)" fill="#375a64"/>
            </g>
            <g id="Grupo_133873" data-name="Grupo 133873" transform="translate(20.787 103.806)">
              <path id="Trazado_197268" data-name="Trazado 197268" d="M2928.772,1308.023c.129-.026.315.356.414.853s.075.92-.054.945-.314-.355-.415-.852S2928.643,1308.049,2928.772,1308.023Z" transform="translate(-2928.657 -1308.022)" fill="#375a64"/>
            </g>
            <g id="Grupo_133874" data-name="Grupo 133874" transform="translate(20.068 100.21)">
              <path id="Trazado_197269" data-name="Trazado 197269" d="M2927.988,1304.1c.129-.026.314.356.413.853s.075.92-.054.945-.314-.356-.414-.852S2927.858,1304.127,2927.988,1304.1Z" transform="translate(-2927.872 -1304.1)" fill="#375a64"/>
            </g>
            <g id="Grupo_133875" data-name="Grupo 133875" transform="translate(19.349 96.615)">
              <path id="Trazado_197270" data-name="Trazado 197270" d="M2927.2,1300.179c.129-.026.314.356.415.852s.074.921-.055.946-.314-.356-.413-.853S2927.073,1300.2,2927.2,1300.179Z" transform="translate(-2927.088 -1300.178)" fill="#375a64"/>
            </g>
            <g id="Grupo_133876" data-name="Grupo 133876" transform="translate(18.629 93.018)">
              <path id="Trazado_197271" data-name="Trazado 197271" d="M2926.418,1296.256c.129-.026.315.356.414.853s.075.919-.054.946-.314-.356-.414-.853S2926.289,1296.282,2926.418,1296.256Z" transform="translate(-2926.302 -1296.255)" fill="#375a64"/>
            </g>
            <g id="Grupo_133877" data-name="Grupo 133877" transform="translate(17.91 89.423)">
              <path id="Trazado_197272" data-name="Trazado 197272" d="M2925.634,1292.334c.129-.026.314.356.413.853s.075.919-.054.945-.314-.356-.413-.852S2925.5,1292.36,2925.634,1292.334Z" transform="translate(-2925.518 -1292.333)" fill="#375a64"/>
            </g>
            <g id="Grupo_133878" data-name="Grupo 133878" transform="translate(17.191 85.827)">
              <path id="Trazado_197273" data-name="Trazado 197273" d="M2924.849,1288.412c.129-.026.314.356.414.852s.075.92-.055.946-.314-.356-.413-.853S2924.719,1288.438,2924.849,1288.412Z" transform="translate(-2924.733 -1288.411)" fill="#375a64"/>
            </g>
            <g id="Grupo_133879" data-name="Grupo 133879" transform="translate(16.471 82.232)">
              <path id="Trazado_197274" data-name="Trazado 197274" d="M2924.064,1284.49c.129-.026.314.356.413.852s.075.92-.054.946-.314-.356-.415-.853S2923.935,1284.516,2924.064,1284.49Z" transform="translate(-2923.949 -1284.489)" fill="#375a64"/>
            </g>
            <g id="Grupo_133880" data-name="Grupo 133880" transform="translate(15.752 78.635)">
              <path id="Trazado_197275" data-name="Trazado 197275" d="M2923.28,1280.567c.129-.026.314.356.414.852s.075.92-.054.946-.314-.356-.413-.853S2923.15,1280.594,2923.28,1280.567Z" transform="translate(-2923.164 -1280.566)" fill="#375a64"/>
            </g>
            <g id="Grupo_133881" data-name="Grupo 133881" transform="translate(15.033 75.04)">
              <path id="Trazado_197276" data-name="Trazado 197276" d="M2922.494,1276.645c.129-.026.314.356.415.852s.075.92-.054.946-.315-.356-.414-.852S2922.365,1276.671,2922.494,1276.645Z" transform="translate(-2922.379 -1276.644)" fill="#375a64"/>
            </g>
            <g id="Grupo_133882" data-name="Grupo 133882" transform="translate(14.313 71.444)">
              <path id="Trazado_197277" data-name="Trazado 197277" d="M2921.71,1272.723c.129-.026.314.356.414.852s.075.92-.054.946-.314-.356-.415-.853S2921.581,1272.749,2921.71,1272.723Z" transform="translate(-2921.595 -1272.722)" fill="#375a64"/>
            </g>
            <g id="Grupo_133883" data-name="Grupo 133883" transform="translate(13.594 67.848)">
              <path id="Trazado_197278" data-name="Trazado 197278" d="M2920.926,1268.8c.129-.026.314.356.413.853s.075.92-.054.946-.314-.356-.413-.853S2920.8,1268.827,2920.926,1268.8Z" transform="translate(-2920.81 -1268.799)" fill="#375a64"/>
            </g>
            <g id="Grupo_133884" data-name="Grupo 133884" transform="translate(12.874 64.252)">
              <path id="Trazado_197279" data-name="Trazado 197279" d="M2920.141,1264.878c.129-.026.314.356.415.853s.075.92-.054.945-.314-.356-.414-.852S2920.011,1264.9,2920.141,1264.878Z" transform="translate(-2920.026 -1264.877)" fill="#375a64"/>
            </g>
            <g id="Grupo_133885" data-name="Grupo 133885" transform="translate(12.155 60.657)">
              <path id="Trazado_197280" data-name="Trazado 197280" d="M2919.356,1260.956c.129-.026.314.356.414.852s.075.921-.054.946-.314-.356-.413-.852S2919.227,1260.982,2919.356,1260.956Z" transform="translate(-2919.241 -1260.955)" fill="#375a64"/>
            </g>
            <g id="Grupo_133886" data-name="Grupo 133886" transform="translate(11.436 57.061)">
              <path id="Trazado_197281" data-name="Trazado 197281" d="M2918.572,1257.034c.129-.027.314.356.414.852s.074.92-.055.946-.314-.356-.414-.853S2918.442,1257.06,2918.572,1257.034Z" transform="translate(-2918.457 -1257.033)" fill="#375a64"/>
            </g>
            <g id="Grupo_133887" data-name="Grupo 133887" transform="translate(10.716 53.465)">
              <path id="Trazado_197282" data-name="Trazado 197282" d="M2917.787,1253.111c.129-.026.315.356.414.853s.075.919-.054.945-.314-.355-.414-.852S2917.657,1253.138,2917.787,1253.111Z" transform="translate(-2917.671 -1253.11)" fill="#375a64"/>
            </g>
            <g id="Grupo_133888" data-name="Grupo 133888" transform="translate(9.997 49.869)">
              <path id="Trazado_197283" data-name="Trazado 197283" d="M2917,1249.189c.129-.026.314.356.414.852s.075.92-.054.946-.314-.356-.413-.852S2916.874,1249.215,2917,1249.189Z" transform="translate(-2916.887 -1249.188)" fill="#375a64"/>
            </g>
            <g id="Grupo_133889" data-name="Grupo 133889" transform="translate(9.278 46.274)">
              <path id="Trazado_197284" data-name="Trazado 197284" d="M2916.218,1245.267c.129-.026.314.356.414.852s.074.92-.055.946-.314-.356-.414-.853S2916.088,1245.293,2916.218,1245.267Z" transform="translate(-2916.102 -1245.266)" fill="#375a64"/>
            </g>
            <g id="Grupo_133890" data-name="Grupo 133890" transform="translate(8.559 42.677)">
              <path id="Trazado_197285" data-name="Trazado 197285" d="M2915.433,1241.344c.13-.026.315.356.414.853s.075.919-.054.946-.314-.356-.414-.853S2915.3,1241.371,2915.433,1241.344Z" transform="translate(-2915.318 -1241.343)" fill="#375a64"/>
            </g>
            <g id="Grupo_133891" data-name="Grupo 133891" transform="translate(7.839 39.082)">
              <path id="Trazado_197286" data-name="Trazado 197286" d="M2914.648,1237.422c.129-.026.314.356.414.853s.075.919-.054.945-.314-.356-.414-.852S2914.519,1237.448,2914.648,1237.422Z" transform="translate(-2914.533 -1237.421)" fill="#375a64"/>
            </g>
            <g id="Grupo_133892" data-name="Grupo 133892" transform="translate(7.12 35.486)">
              <path id="Trazado_197287" data-name="Trazado 197287" d="M2913.864,1233.5c.129-.026.314.356.414.852s.075.92-.055.946-.314-.356-.414-.853S2913.734,1233.526,2913.864,1233.5Z" transform="translate(-2913.749 -1233.499)" fill="#375a64"/>
            </g>
            <g id="Grupo_133893" data-name="Grupo 133893" transform="translate(6.401 31.891)">
              <path id="Trazado_197288" data-name="Trazado 197288" d="M2913.08,1229.578c.129-.027.314.356.413.852s.075.92-.054.946-.314-.356-.414-.853S2912.95,1229.6,2913.08,1229.578Z" transform="translate(-2912.964 -1229.577)" fill="#375a64"/>
            </g>
            <g id="Grupo_133894" data-name="Grupo 133894" transform="translate(5.681 28.294)">
              <path id="Trazado_197289" data-name="Trazado 197289" d="M2912.294,1225.655c.129-.026.314.356.414.853s.075.92-.054.945-.314-.355-.413-.852S2912.165,1225.681,2912.294,1225.655Z" transform="translate(-2912.179 -1225.654)" fill="#375a64"/>
            </g>
            <g id="Grupo_133895" data-name="Grupo 133895" transform="translate(4.962 24.699)">
              <path id="Trazado_197290" data-name="Trazado 197290" d="M2911.51,1221.733c.129-.026.314.356.414.852s.075.92-.054.946-.315-.356-.414-.852S2911.38,1221.759,2911.51,1221.733Z" transform="translate(-2911.395 -1221.732)" fill="#375a64"/>
            </g>
            <g id="Grupo_133896" data-name="Grupo 133896" transform="translate(4.243 21.103)">
              <path id="Trazado_197291" data-name="Trazado 197291" d="M2910.726,1217.811c.129-.026.314.356.413.852s.075.921-.054.946-.314-.356-.414-.853S2910.6,1217.837,2910.726,1217.811Z" transform="translate(-2910.61 -1217.81)" fill="#375a64"/>
            </g>
            <g id="Grupo_133897" data-name="Grupo 133897" transform="translate(3.524 17.507)">
              <path id="Trazado_197292" data-name="Trazado 197292" d="M2909.941,1213.888c.129-.026.314.356.414.853s.075.92-.054.946-.314-.356-.413-.853S2909.812,1213.914,2909.941,1213.888Z" transform="translate(-2909.825 -1213.887)" fill="#375a64"/>
            </g>
            <g id="Grupo_133898" data-name="Grupo 133898" transform="translate(2.804 13.911)">
              <path id="Trazado_197293" data-name="Trazado 197293" d="M2909.156,1209.966c.129-.026.315.356.414.853s.075.92-.054.945-.314-.356-.415-.852S2909.026,1209.992,2909.156,1209.966Z" transform="translate(-2909.04 -1209.965)" fill="#375a64"/>
            </g>
            <g id="Grupo_133899" data-name="Grupo 133899" transform="translate(2.085 10.316)">
              <path id="Trazado_197294" data-name="Trazado 197294" d="M2908.372,1206.044c.129-.026.314.356.414.852s.075.92-.054.946-.314-.356-.413-.853S2908.242,1206.07,2908.372,1206.044Z" transform="translate(-2908.256 -1206.043)" fill="#375a64"/>
            </g>
            <g id="Grupo_133900" data-name="Grupo 133900" transform="translate(1.366 6.72)">
              <path id="Trazado_197295" data-name="Trazado 197295" d="M2907.586,1202.122c.129-.027.314.356.415.852s.074.92-.055.946-.314-.356-.413-.853S2907.457,1202.148,2907.586,1202.122Z" transform="translate(-2907.471 -1202.121)" fill="#375a64"/>
            </g>
            <g id="Grupo_133901" data-name="Grupo 133901" transform="translate(0.646 3.124)">
              <path id="Trazado_197296" data-name="Trazado 197296" d="M2906.8,1198.2c.129-.026.315.356.414.853s.075.919-.054.945-.314-.355-.415-.852S2906.672,1198.225,2906.8,1198.2Z" transform="translate(-2906.687 -1198.198)" fill="#375a64"/>
            </g>
            <g id="Grupo_133902" data-name="Grupo 133902">
              <path id="Trazado_197297" data-name="Trazado 197297" d="M2906.119,1194.792c.129-.026.293.25.367.616s.027.684-.1.71-.293-.249-.366-.616S2905.989,1194.818,2906.119,1194.792Z" transform="translate(-2905.982 -1194.79)" fill="#375a64"/>
            </g>
          </g>
        </g>
        <g id="Grupo_133911" data-name="Grupo 133911" transform="translate(0 44.222)">
          <g id="Grupo_133905" data-name="Grupo 133905">
            <path id="Trazado_197298" data-name="Trazado 197298" d="M2836.067,1088.47s-5.357-8.03-5.5-8.1h0s-4.836-8.143-6.443-8.145-1.028,1.65.633,4.567a11.623,11.623,0,0,1,1.6,4.154l-3.971,2.4s-2.652-1.027-2.763,1.446a17.156,17.156,0,0,0,.457,3.358c.161.88.559,1.819,1.39,1.488a1.043,1.043,0,0,0,.711-.994c.051-1.463-.223-2-.036-2,.239,0,2.859,7.673,2.859,7.673Z" transform="translate(-2819.622 -1072.225)" fill="#ffbe9d"/>
            <path id="Trazado_197299" data-name="Trazado 197299" d="M2825.421,1082.976a7.808,7.808,0,0,0-1.274-.759,2.6,2.6,0,0,0-1.446-.225,1.3,1.3,0,0,0-.806.428,1.316,1.316,0,0,0-.152,1.22,3.9,3.9,0,0,0,.651,1.094" transform="translate(-2819.792 -1073.036)" fill="#ffbe9d"/>
            <path id="Trazado_197300" data-name="Trazado 197300" d="M2827.415,1081.214a7.332,7.332,0,0,0-1.208-.715,2.477,2.477,0,0,0-1.37-.213,1.1,1.1,0,0,0-.907,1.552,10.288,10.288,0,0,0,1.234,1.588" transform="translate(-2819.974 -1072.894)" fill="#ffbe9d"/>
          </g>
          <path id="Trazado_197301" data-name="Trazado 197301" d="M2834.515,1085l7.74,16.554-8.532,8.721-4.446-12.337s-2.384.474-3.355-1.107c-1.084-1.764-2.508-6.863-2.508-6.863Z" transform="translate(-2819.937 -1073.288)" fill="#ffbe9d"/>
          <g id="Grupo_133906" data-name="Grupo 133906" transform="translate(6.108 7.534)">
            <path id="Trazado_197302" data-name="Trazado 197302" d="M2829.224,1084.164c-.144.061-.54-.977-1.277-2.023s-1.738-1.543-1.658-1.681a3.063,3.063,0,0,1,2.043,1.4A3.933,3.933,0,0,1,2829.224,1084.164Z" transform="translate(-2826.284 -1080.443)" fill="#eb996e"/>
          </g>
          <g id="Grupo_133907" data-name="Grupo 133907" transform="translate(0.458 10.72)">
            <path id="Trazado_197303" data-name="Trazado 197303" d="M2820.125,1084.523c-.036-.045.179-.3.67-.474a2.493,2.493,0,0,1,1.986.172,3.37,3.37,0,0,1,1.312,1.474c.216.444.3.736.242.767s-.25-.208-.53-.591a4.2,4.2,0,0,0-1.254-1.231,2.638,2.638,0,0,0-1.671-.265C2820.432,1084.447,2820.164,1084.585,2820.125,1084.523Z" transform="translate(-2820.121 -1083.919)" fill="#eb996e"/>
          </g>
          <g id="Grupo_133908" data-name="Grupo 133908" transform="translate(3.342 8.927)">
            <path id="Trazado_197304" data-name="Trazado 197304" d="M2823.268,1082.025a2.361,2.361,0,0,1,2.113.732,2.777,2.777,0,0,1,1.114,1.943c-.133.064-.569-.825-1.427-1.583S2823.245,1082.167,2823.268,1082.025Z" transform="translate(-2823.268 -1081.962)" fill="#eb996e"/>
          </g>
          <g id="Grupo_133909" data-name="Grupo 133909" transform="translate(1.27 12.563)">
            <path id="Trazado_197305" data-name="Trazado 197305" d="M2821.178,1085.931c.133.022.158.521.474,1,.3.494.736.733.7.864-.013.132-.694.046-1.1-.61S2821.053,1085.885,2821.178,1085.931Z" transform="translate(-2821.008 -1085.928)" fill="#eb996e"/>
          </g>
          <path id="Trazado_197306" data-name="Trazado 197306" d="M2837.036,1089s.27-4.939-.923-6.058-4.616.043-4.616.043" transform="translate(-2820.61 -1073.077)" fill="#ffbe9d"/>
          <g id="Grupo_133910" data-name="Grupo 133910" transform="translate(10.394 7.549)">
            <path id="Trazado_197307" data-name="Trazado 197307" d="M2830.968,1080.464a23.213,23.213,0,0,1,3.881,5.385,23.225,23.225,0,0,1-3.881-5.385Z" transform="translate(-2830.959 -1080.459)" fill="#eb996e"/>
          </g>
        </g>
        <g id="Grupo_133912" data-name="Grupo 133912" transform="translate(90.004 39.964)">
          <path id="Trazado_197308" data-name="Trazado 197308" d="M2921.594,1083.891c-.119-.661-.28-1.434-.51-2.334a7.012,7.012,0,0,0-.979-2.167,10.7,10.7,0,0,0-1.894-2.28.92.92,0,0,1,.4-1.691c.83,0,2.888,1.451,4.3,4.028s2.246-1.974,2.579-3.627,1.6-6.719,2.192-7.019c.864-.44,1.5.4,1.124,2.047-.376,1.663-1.136,6.648-.254,6.782s2.447-8.306,2.447-8.306.046-1.858,1.07-1.738c1.846.217-.493,9.063-.736,9.9-.17.581.783.761.931.127.152-.652,1.379-8.453,3.261-8.249,1.445.156-1.856,7.294-1.212,9.054s1.953-5.668,3.326-5.463c.512.077.883.205-.485,4.362-.663,2.018-3.236,11.465-3.236,11.465l1.476,7.744-11.76,2.978Z" transform="translate(-2917.798 -1067.581)" fill="#ffbe9d"/>
        </g>
        <g id="Grupo_133926" data-name="Grupo 133926" transform="translate(47.127)">
          <g id="Grupo_133916" data-name="Grupo 133916" transform="translate(2.338 4.19)">
            <g id="Grupo_133915" data-name="Grupo 133915">
              <g id="Grupo_133913" data-name="Grupo 133913" transform="translate(4.422 5.387)">
                <path id="Trazado_197309" data-name="Trazado 197309" d="M2903.443,1039.179l.118,38.55-16.538.788-.479-9.376s-5.874,1.166-7.389-4.289c-.969-3.485-.727-30.417-.727-30.417Z" transform="translate(-2878.402 -1034.435)" fill="#ffbe9d"/>
              </g>
              <g id="Grupo_133914" data-name="Grupo 133914">
                <path id="Trazado_197310" data-name="Trazado 197310" d="M2875.851,1036.66c2.605.745,3.171,5,3.171,5l4.086,9.025c2.082-1.629,4.876-1.536,5.405,2.121.382,2.644-2.9,3.178-2.9,3.178,1.914,3.255,3.211,5.889,6,8.985,3.015,3.352,4.7,3.69,7.974,3.744h3.6s1.765-5.729,5.033-20.055c3.626-15.894-15.169-13.847-18.653-17.9C2883.89,1024.151,2867.639,1034.31,2875.851,1036.66Z" transform="translate(-2873.578 -1028.559)" fill="#1a2e35"/>
              </g>
            </g>
          </g>
          <path id="Trazado_197311" data-name="Trazado 197311" d="M2907.661,1049.78c3.046-2.046,3.322-7.772,1.545-11.205a11.032,11.032,0,0,0-9.384-5.835,4.473,4.473,0,0,1-1.533-.172,4.246,4.246,0,0,1-1.646-1.561c-2.723-3.54-5.4-7.019-10.473-7.018a5.776,5.776,0,0,0-3.191.791,5.013,5.013,0,0,0-1.916,2.537,10.812,10.812,0,0,0-2.969-1.068,3.666,3.666,0,0,0-2.978.726,2.241,2.241,0,0,0-.468,2.853,3.608,3.608,0,0,0-3.6,3c-.27,1.692,2.156,2.882,2.409,3.013a3.351,3.351,0,0,0,1.843,4.457,3.8,3.8,0,0,0,3.129-.236" transform="translate(-2871.027 -1023.988)" fill="#1a2e35"/>
          <g id="Grupo_133917" data-name="Grupo 133917" transform="translate(24.406 29.498)">
            <path id="Trazado_197312" data-name="Trazado 197312" d="M2897.8,1056.165c.139,0,.18,1.3.532,2.828s.856,2.721.732,2.784a7.423,7.423,0,0,1-1.263-5.612Z" transform="translate(-2897.649 -1056.165)" fill="#375a64"/>
          </g>
          <g id="Grupo_133918" data-name="Grupo 133918" transform="translate(22.463 27.607)">
            <path id="Trazado_197313" data-name="Trazado 197313" d="M2895.625,1054.1a47.729,47.729,0,0,1,1.027,5.5,10.122,10.122,0,0,1-1.027-5.5Z" transform="translate(-2895.53 -1054.102)" fill="#375a64"/>
          </g>
          <g id="Grupo_133919" data-name="Grupo 133919" transform="translate(16.828 21.239)">
            <path id="Trazado_197314" data-name="Trazado 197314" d="M2889.386,1047.161c.028-.048.572.206,1.256.878a8.883,8.883,0,0,1,1.967,3.13,16.628,16.628,0,0,1,.882,3.569,4.652,4.652,0,0,1,.1,1.517,5.091,5.091,0,0,1-.43-1.454,27.011,27.011,0,0,0-1-3.461,10.7,10.7,0,0,0-1.77-3.072C2889.8,1047.57,2889.342,1047.223,2889.386,1047.161Z" transform="translate(-2889.383 -1047.156)" fill="#375a64"/>
          </g>
          <g id="Grupo_133920" data-name="Grupo 133920" transform="translate(14.099 16.912)">
            <path id="Trazado_197315" data-name="Trazado 197315" d="M2886.823,1042.437a10.34,10.34,0,0,0,1.712,6.833,6.209,6.209,0,0,1-1.712-6.833Z" transform="translate(-2886.407 -1042.435)" fill="#375a64"/>
          </g>
          <g id="Grupo_133921" data-name="Grupo 133921" transform="translate(34.246 25.354)">
            <path id="Trazado_197316" data-name="Trazado 197316" d="M2908.389,1052.831c-.064-.115.345-.466.913-.783s1.081-.482,1.145-.367-.344.466-.912.783S2908.455,1052.947,2908.389,1052.831Z" transform="translate(-2908.383 -1051.645)" fill="#375a64"/>
          </g>
          <g id="Grupo_133922" data-name="Grupo 133922" transform="translate(26.206 22.424)">
            <path id="Trazado_197317" data-name="Trazado 197317" d="M2899.669,1048.449c.135-.029.386.677.856,1.446s.97,1.326.881,1.43-.778-.331-1.29-1.183S2899.544,1048.468,2899.669,1048.449Z" transform="translate(-2899.613 -1048.448)" fill="#375a64"/>
          </g>
          <g id="Grupo_133923" data-name="Grupo 133923" transform="translate(23.768 21.104)">
            <path id="Trazado_197318" data-name="Trazado 197318" d="M2896.99,1047.01c.133-.039.483.822,1.11,1.757s1.274,1.6,1.186,1.705-.918-.431-1.584-1.441A3.1,3.1,0,0,1,2896.99,1047.01Z" transform="translate(-2896.953 -1047.009)" fill="#375a64"/>
          </g>
          <g id="Grupo_133924" data-name="Grupo 133924" transform="translate(11.592 3.34)">
            <path id="Trazado_197319" data-name="Trazado 197319" d="M2883.673,1029.253c-.011-.012.052-.085.184-.215a4.241,4.241,0,0,1,.633-.51,5.871,5.871,0,0,1,2.846-.883,7.558,7.558,0,0,1,4.293,1.055,10.241,10.241,0,0,1,3.643,4,17.026,17.026,0,0,1,1.427,3.718l-.329-.143a8.414,8.414,0,0,1,3.888-.932,8.573,8.573,0,0,1,3.1.567,7.572,7.572,0,0,1,1.813.983,2.277,2.277,0,0,1,.548.5,14.056,14.056,0,0,0-2.458-1.21,8.61,8.61,0,0,0-6.675.5l-.253.133-.076-.276a17.291,17.291,0,0,0-1.4-3.608,10.062,10.062,0,0,0-3.451-3.848,7.41,7.41,0,0,0-4.051-1.095,6.135,6.135,0,0,0-2.766.7C2883.989,1029.023,2883.705,1029.288,2883.673,1029.253Z" transform="translate(-2883.672 -1027.631)" fill="#375a64"/>
          </g>
          <g id="Grupo_133925" data-name="Grupo 133925" transform="translate(1.544 6.487)">
            <path id="Trazado_197320" data-name="Trazado 197320" d="M2874.064,1031.636a1.438,1.438,0,0,0-1.082,1.606,1.625,1.625,0,0,0,.871,1.13,2.414,2.414,0,0,0,1.768.189,5.562,5.562,0,0,0,1.916-.979,19.525,19.525,0,0,1,2.055-1.438,8.7,8.7,0,0,1,2.572-.915,10.478,10.478,0,0,1,5.2.39,13.226,13.226,0,0,1,3.744,2.011,15.711,15.711,0,0,1,2.11,1.923,3.792,3.792,0,0,1,.645.822c-.065.066-1.023-1.091-2.955-2.473a13.694,13.694,0,0,0-3.682-1.865,10.337,10.337,0,0,0-4.972-.338,8.452,8.452,0,0,0-2.435.855,20.369,20.369,0,0,0-2.025,1.386,5.844,5.844,0,0,1-2.084,1.007,2.744,2.744,0,0,1-2.024-.282,1.89,1.89,0,0,1-.967-1.389,1.651,1.651,0,0,1,.388-1.216C2873.6,1031.5,2874.094,1031.625,2874.064,1031.636Z" transform="translate(-2872.712 -1031.064)" fill="#375a64"/>
          </g>
        </g>
        <g id="Grupo_133936" data-name="Grupo 133936" transform="translate(10.909 49.07)">
          <path id="Trazado_197321" data-name="Trazado 197321" d="M2923.99,1083.714l20.212,36.136a10.252,10.252,0,0,1-1.559,9.6l.417-.6a8.63,8.63,0,0,1-6.71,3.2h-.382a8.628,8.628,0,0,1-7.911-5.185l-4.746-7.2Z" transform="translate(-2839.162 -1078.03)" fill="#ffb30b"/>
          <path id="Trazado_197322" data-name="Trazado 197322" d="M2875.784,1080.613c3.965-2.025,7.88-2.483,12.152-2.607,4.974-.145,11.987-.841,17.346-.271,0,0,16.335-.5,16.408,12.159l-2.16,48.6,3.5,20.829-48.944,1.478.35-24.572c-.6-12.785.687-30.888.687-30.888-.754-6.873-4.514-9.968-5.049-14.436C2869.6,1086.948,2872.241,1082.422,2875.784,1080.613Z" transform="translate(-2834.725 -1077.514)" fill="#ffb30b"/>
          <g id="Grupo_133927" data-name="Grupo 133927" transform="translate(54.852 61.679)">
            <path id="Trazado_197323" data-name="Trazado 197323" d="M2891.355,1144.8c.057-.071,1.112.878,3.1,1.934a18.5,18.5,0,0,0,16.9.3c2.029-.985,3.117-1.9,3.17-1.823a3.482,3.482,0,0,1-.737.665,15.5,15.5,0,0,1-2.281,1.46,17.788,17.788,0,0,1-17.21-.3,15.548,15.548,0,0,1-2.228-1.538A3.545,3.545,0,0,1,2891.355,1144.8Z" transform="translate(-2891.354 -1144.793)" fill="#1a2e35"/>
          </g>
          <g id="Grupo_133928" data-name="Grupo 133928" transform="translate(84.812 12.38)">
            <path id="Trazado_197324" data-name="Trazado 197324" d="M2926.187,1091.018a1.845,1.845,0,0,1,.034.48c0,.369,0,.824,0,1.377-.024,1.265-.055,2.977-.092,5.06-.1,4.271-.292,10.171-.568,16.684s-.591,12.411-.887,16.675c-.151,2.131-.281,3.856-.4,5.046-.057.549-.1,1-.142,1.369a.242.242,0,1,1-.1-.007c.014-.369.032-.822.053-1.375.063-1.263.146-2.972.248-5.052.194-4.332.457-10.194.747-16.675.274-6.48.523-12.343.707-16.676.1-2.08.183-3.79.244-5.054.036-.551.065-1,.089-1.373A1.823,1.823,0,0,1,2926.187,1091.018Z" transform="translate(-2924.034 -1091.018)" fill="#1a2e35"/>
          </g>
          <path id="Trazado_197325" data-name="Trazado 197325" d="M2937,1095.6s1.852,5.436,2.18,6.172c0,0,4.571,13.214,6.06,22.135l-14.612-26.388C2930.5,1097.53,2936.8,1095.65,2937,1095.6Z" transform="translate(-2839.771 -1079.019)" fill="#ffb30b"/>
          <g id="Grupo_133929" data-name="Grupo 133929" transform="translate(90.027 14.981)">
            <path id="Trazado_197326" data-name="Trazado 197326" d="M2929.725,1093.856a10.456,10.456,0,0,1,.875,1.355c.582.951,1.355,2.214,2.29,3.743,1.925,3.166,4.758,7.432,7.594,12.342,1.42,2.46,2.607,4.884,3.632,7.123a13.048,13.048,0,0,1,1.362,6.391,9.611,9.611,0,0,1-1.3,4.216,6.924,6.924,0,0,1-.7.978c-.186.2-.289.3-.3.293-.039-.03.359-.455.84-1.363a9.975,9.975,0,0,0,1.123-4.146,12.992,12.992,0,0,0-1.427-6.191c-1.038-2.208-2.235-4.624-3.645-7.066-2.823-4.887-5.614-9.19-7.468-12.4-.94-1.6-1.671-2.911-2.163-3.825A10.4,10.4,0,0,1,2929.725,1093.856Z" transform="translate(-2929.723 -1093.856)" fill="#1a2e35"/>
          </g>
          <g id="Grupo_133933" data-name="Grupo 133933" transform="translate(0 1.616)">
            <path id="Trazado_197327" data-name="Trazado 197327" d="M2831.521,1106.138l11.326-7.408,7.148,12.383s9.91-13.774,14.412-21.845c4.143-7.428,9.5-9.428,12.089-9.967a1.148,1.148,0,0,1,1.372,1.253l-3.906,26.784c-.492,1.394-8.667,13.245-13.235,19.209-7.625,9.953-18.858,3.584-21.943-3.383C2836.336,1117.635,2832.524,1109.235,2831.521,1106.138Z" transform="translate(-2831.521 -1079.276)" fill="#ffb30b"/>
            <g id="Grupo_133930" data-name="Grupo 133930" transform="translate(15.117 31.573)">
              <path id="Trazado_197328" data-name="Trazado 197328" d="M2848.112,1125.155a6.288,6.288,0,0,1-.1-1.782,22.055,22.055,0,0,1,.425-4.3,11.708,11.708,0,0,1,1.614-4.025,3.958,3.958,0,0,1,1.2-1.334c.058.051-.389.566-.915,1.51a14.147,14.147,0,0,0-1.436,3.948,35.285,35.285,0,0,0-.555,4.213A7.061,7.061,0,0,1,2848.112,1125.155Z" transform="translate(-2848.011 -1113.716)" fill="#1a2e35"/>
            </g>
            <g id="Grupo_133931" data-name="Grupo 133931" transform="translate(11.849 31.022)">
              <path id="Trazado_197329" data-name="Trazado 197329" d="M2844.5,1119.572a3.024,3.024,0,0,1,.1-1.537,7.143,7.143,0,0,1,1.793-3.261,4.662,4.662,0,0,1,3.332-1.654c1.014.039,1.487.54,1.439.57a3.769,3.769,0,0,0-4.426,1.415,8.082,8.082,0,0,0-1.813,3.023A13.608,13.608,0,0,1,2844.5,1119.572Z" transform="translate(-2844.446 -1113.115)" fill="#1a2e35"/>
            </g>
            <g id="Grupo_133932" data-name="Grupo 133932" transform="translate(35.274 3.332)">
              <path id="Trazado_197330" data-name="Trazado 197330" d="M2880.437,1082.912c.011-.013.125.072.333.248a6.555,6.555,0,0,1,.854.833,10.569,10.569,0,0,1,2.13,3.825,14.846,14.846,0,0,1,.537,6.472,14.185,14.185,0,0,1-.978,3.737,38.107,38.107,0,0,1-1.845,3.686,141.94,141.94,0,0,1-7.823,12.084c-1.074,1.5-1.966,2.69-2.606,3.5-.316.406-.573.713-.75.918s-.277.309-.29.3a11.686,11.686,0,0,1,.891-1.329l2.478-3.579c2.06-3.043,4.911-7.257,7.683-12.123a39.529,39.529,0,0,0,1.83-3.633,14,14,0,0,0,.973-3.616,14.906,14.906,0,0,0-.423-6.313,11.107,11.107,0,0,0-1.951-3.806,9.084,9.084,0,0,0-.776-.883C2880.52,1083.034,2880.426,1082.924,2880.437,1082.912Z" transform="translate(-2869.998 -1082.911)" fill="#1a2e35"/>
            </g>
          </g>
          <g id="Grupo_133934" data-name="Grupo 133934" transform="translate(51.78 51.019)" opacity="0.3">
            <path id="Trazado_197331" data-name="Trazado 197331" d="M2894.574,1146.012c-3.612-1.648-6.465-5.424-6.57-9.247a3.82,3.82,0,0,1,.889-2.861c1.068-1.054,2.873-.859,4.2-.161,2.188,1.15,3.619,3.308,5.156,5.243s3.488,3.838,5.949,4.072a15.524,15.524,0,0,0,3.164-.237,5.371,5.371,0,0,1,3.109.375,2.35,2.35,0,0,1,1.285,2.629s-4.325,2.69-8.84,2.372A25.47,25.47,0,0,1,2894.574,1146.012Z" transform="translate(-2888.002 -1133.165)"/>
          </g>
          <g id="Grupo_133935" data-name="Grupo 133935" transform="translate(45.685 76.108)">
            <path id="Trazado_197332" data-name="Trazado 197332" d="M2881.354,1160.537a8.559,8.559,0,0,1,1.413.335c.9.254,2.207.578,3.833.929s3.58.689,5.762.961a61.535,61.535,0,0,0,14.273.04c2.184-.259,4.141-.579,5.768-.928s2.94-.658,3.838-.908a8.567,8.567,0,0,1,1.415-.326,8.5,8.5,0,0,1-1.362.505c-.885.3-2.189.673-3.818,1.059a55.537,55.537,0,0,1-5.788,1.035,56.9,56.9,0,0,1-14.379-.041,55.413,55.413,0,0,1-5.782-1.067c-1.626-.4-2.929-.771-3.812-1.081A8.392,8.392,0,0,1,2881.354,1160.537Z" transform="translate(-2881.354 -1160.533)" fill="#1a2e35"/>
          </g>
        </g>
      </g>
    </g>
  </g>
</svg>
