<svg xmlns="http://www.w3.org/2000/svg" xmlns:xlink="http://www.w3.org/1999/xlink" width="820" height="367.288" viewBox="0 0 820 367.288">
  <defs>
    <clipPath id="clip-path">
      <circle id="Elipse_4803" data-name="Elipse 4803" cx="80.715" cy="80.715" r="80.715" transform="matrix(0.005, -1, 1, 0.005, 0, 161.428)" fill="#b9ddfc"/>
    </clipPath>
    <clipPath id="clip-path-2">
      <circle id="Elipse_4807" data-name="Elipse 4807" cx="80.715" cy="80.715" r="80.715" transform="translate(0 52.82) rotate(-19.099)" fill="#00defc"/>
    </clipPath>
    <clipPath id="clip-path-3">
      <circle id="Elipse_4810" data-name="Elipse 4810" cx="80.715" cy="80.715" r="80.715" transform="matrix(0.528, -0.849, 0.849, 0.528, 0, 137.056)" fill="#ffb30b"/>
    </clipPath>
    <linearGradient id="linear-gradient" x1="0.5" x2="0.5" y2="1" gradientUnits="objectBoundingBox">
      <stop offset="0" stop-color="#fff"/>
      <stop offset="1" stop-color="#e8e8e8"/>
    </linearGradient>
    <clipPath id="clip-path-4">
      <path id="Trazado_196615" data-name="Trazado 196615" d="M893.806,1074.2c143.042,0,263.553,96.41,300.135,227.79H593.671C630.252,1170.61,750.763,1074.2,893.806,1074.2Z" transform="translate(-593.671 -1074.2)" fill="none" clip-rule="evenodd"/>
    </clipPath>
  </defs>
  <g id="Grupo_133018" data-name="Grupo 133018" transform="translate(-499.396 -975.43)">
    <circle id="Elipse_4801" data-name="Elipse 4801" cx="80.715" cy="80.715" r="80.715" transform="matrix(0.005, -1, 1, 0.005, 832.509, 1136.858)" fill="#6f8497"/>
    <g id="Grupo_133005" data-name="Grupo 133005" transform="translate(832.509 975.43)">
      <g id="Grupo_133004" data-name="Grupo 133004" transform="translate(0 0)" clip-path="url(#clip-path)">
        <g id="Grupo_133003" data-name="Grupo 133003" transform="translate(-29.267 -29.267)">
          <circle id="Elipse_4802" data-name="Elipse 4802" cx="80.715" cy="80.715" r="80.715" transform="translate(0 139.405) rotate(-59.72)" fill="#b9ddfc" stroke="#fff" stroke-miterlimit="22.926" stroke-width="14.4" opacity="0.5"/>
        </g>
      </g>
    </g>
    <circle id="Elipse_4804" data-name="Elipse 4804" cx="58.594" cy="58.594" r="58.594" transform="translate(855.049 1115.159) rotate(-90)" fill="#b9ddfc"/>
    <path id="Trazado_196607" data-name="Trazado 196607" d="M854.046,1067a324.435,324.435,0,0,1,71.416,7.929,80.735,80.735,0,0,1-142.832,0A324.427,324.427,0,0,1,854.046,1067Z" transform="translate(59.598 19.268)" fill-rule="evenodd" opacity="0.15"/>
    <circle id="Elipse_4805" data-name="Elipse 4805" cx="80.715" cy="80.715" r="80.715" transform="translate(1114.034 1181.682) rotate(-19.099)" fill="#008597"/>
    <g id="Grupo_133008" data-name="Grupo 133008" transform="translate(1114.034 1128.862)">
      <g id="Grupo_133007" data-name="Grupo 133007" transform="translate(0 0)" clip-path="url(#clip-path-2)">
        <g id="Grupo_133006" data-name="Grupo 133006" transform="translate(-8.66 -8.66)">
          <circle id="Elipse_4806" data-name="Elipse 4806" cx="80.715" cy="80.715" r="80.715" transform="matrix(0.534, -0.846, 0.846, 0.534, 0, 136.498)" fill="#00defc" stroke="#fff" stroke-linecap="round" stroke-linejoin="round" stroke-width="14.4" opacity="0.5"/>
        </g>
      </g>
    </g>
    <path id="Trazado_196608" data-name="Trazado 196608" d="M1051.46,1167.912a58.594,58.594,0,1,1,21.447,80.04A58.593,58.593,0,0,1,1051.46,1167.912Z" transform="translate(114.511 34.335)" fill="#00defc" fill-rule="evenodd"/>
    <path id="Trazado_196609" data-name="Trazado 196609" d="M1038.228,1150.842a323.245,323.245,0,0,1,73.176,124.34,80.741,80.741,0,0,1-73.176-124.34Z" transform="translate(110.665 36.91)" fill-rule="evenodd" opacity="0.15"/>
    <circle id="Elipse_4808" data-name="Elipse 4808" cx="80.715" cy="80.715" r="80.715" transform="matrix(0.528, -0.849, 0.849, 0.528, 499.396, 1257.425)" fill="#cc8f08"/>
    <g id="Grupo_133011" data-name="Grupo 133011" transform="translate(499.396 1120.368)">
      <g id="Grupo_133010" data-name="Grupo 133010" transform="translate(0 0)" clip-path="url(#clip-path-3)">
        <g id="Grupo_133009" data-name="Grupo 133009">
          <circle id="Elipse_4809" data-name="Elipse 4809" cx="80.715" cy="80.715" r="80.715" transform="matrix(0.528, -0.849, 0.849, 0.528, 0, 137.056)" fill="#ffb30b" stroke="#fff" stroke-miterlimit="22.926" stroke-width="14.4" opacity="0.5"/>
        </g>
      </g>
    </g>
    <path id="Trazado_196610" data-name="Trazado 196610" d="M550.688,1167.912a58.594,58.594,0,1,1,21.447,80.04A58.593,58.593,0,0,1,550.688,1167.912Z" transform="translate(9.139 34.335)" fill="#ffb30b" fill-rule="evenodd"/>
    <path id="Trazado_196611" data-name="Trazado 196611" d="M586.822,1275.182A323.245,323.245,0,0,1,660,1150.842a80.74,80.74,0,0,1-73.175,124.34Z" transform="translate(18.396 36.91)" fill-rule="evenodd" opacity="0.15"/>
    <path id="Trazado_196612" data-name="Trazado 196612" d="M900.261,1258.942c186.265,0,337.263,1.869,337.263,4.175s-151,4.176-337.263,4.176S563,1265.424,563,1263.117,714,1258.942,900.261,1258.942Z" transform="translate(13.383 59.656)" stroke="#2a5869" stroke-miterlimit="22.926" stroke-width="0.567" fill-rule="evenodd" opacity="0.15"/>
    <path id="Trazado_196613" data-name="Trazado 196613" d="M893.806,1074.2c143.042,0,263.553,96.41,300.135,227.79H593.671C630.252,1170.61,750.763,1074.2,893.806,1074.2Z" transform="translate(19.726 20.783)" fill-rule="evenodd" fill="url(#linear-gradient)"/>
    <g id="Grupo_133014" data-name="Grupo 133014" transform="translate(613.508 1094.983)">
      <g id="Grupo_133013" data-name="Grupo 133013" clip-path="url(#clip-path-4)">
        <g id="Grupo_133012" data-name="Grupo 133012">
          <path id="Trazado_196614" data-name="Trazado 196614" d="M593.671,1301.99c36.581-131.38,157.092-227.79,300.135-227.79s263.553,96.41,300.135,227.79" transform="translate(-593.671 -1074.2)" fill="none" stroke="#fff" stroke-linecap="round" stroke-linejoin="round" stroke-width="14.4" fill-rule="evenodd"/>
        </g>
      </g>
    </g>
    <text id="AUTOMATIZACIÓN" transform="translate(913.396 1250.151)" fill="#12263f" font-size="33" font-family="Roboto-Bold, Roboto" font-weight="700"><tspan x="-116.781" y="0">Automatización</tspan></text>
    <g id="Grupo_133015" data-name="Grupo 133015" transform="translate(882.446 1017.72)">
      <path id="Trazado_196616" data-name="Trazado 196616" d="M846.609,1063.65a22.53,22.53,0,0,1,0-45.059,1.076,1.076,0,0,1,1.075,1.075v42.909A1.076,1.076,0,0,1,846.609,1063.65Zm-1.075-42.883a20.381,20.381,0,0,0,0,40.705Z" transform="translate(-814.127 -1008.638)" fill="#12263f"/>
      <path id="Trazado_196617" data-name="Trazado 196617" d="M848.34,1075.335H843.8a3.4,3.4,0,0,1-3.393-3.394v-8.02c-.45-.169-.9-.358-1.348-.562l-5.674,5.673a3.474,3.474,0,0,1-4.8,0l-6.424-6.424a3.391,3.391,0,0,1,0-4.8l5.673-5.673q-.307-.672-.563-1.348h-8.019a3.4,3.4,0,0,1-3.394-3.394v-9.085a3.4,3.4,0,0,1,3.394-3.393h8.019q.256-.675.563-1.348l-5.673-5.673a3.4,3.4,0,0,1,0-4.8l6.424-6.424a3.471,3.471,0,0,1,4.8,0l5.674,5.673q.672-.307,1.348-.563v-8.02a3.4,3.4,0,0,1,3.393-3.393h4.543a1.075,1.075,0,0,1,1.075,1.074v62.818A1.075,1.075,0,0,1,848.34,1075.335Zm-9.507-14.347a1.077,1.077,0,0,1,.477.113,20.371,20.371,0,0,0,2.512,1.046,1.076,1.076,0,0,1,.731,1.019v8.776a1.247,1.247,0,0,0,1.244,1.245h3.468v-60.67H843.8a1.246,1.246,0,0,0-1.244,1.244v8.777a1.074,1.074,0,0,1-.731,1.018,20.157,20.157,0,0,0-2.512,1.047,1.078,1.078,0,0,1-1.237-.2l-6.211-6.21a1.245,1.245,0,0,0-1.76,0l-6.424,6.424a1.247,1.247,0,0,0,0,1.761l6.209,6.209a1.073,1.073,0,0,1,.2,1.237,20.571,20.571,0,0,0-1.047,2.513,1.073,1.073,0,0,1-1.018.73h-8.774a1.246,1.246,0,0,0-1.245,1.244v9.085a1.247,1.247,0,0,0,1.245,1.245h8.774a1.072,1.072,0,0,1,1.018.73,20.477,20.477,0,0,0,1.047,2.512,1.075,1.075,0,0,1-.2,1.238l-6.209,6.209a1.243,1.243,0,0,0,0,1.761l6.424,6.424a1.248,1.248,0,0,0,1.76,0l6.211-6.211A1.074,1.074,0,0,1,838.833,1060.988Z" transform="translate(-815.857 -1010.368)" fill="#12263f"/>
      <path id="Trazado_196618" data-name="Trazado 196618" d="M844.593,1050.037a10.932,10.932,0,0,1,0-21.864,1.075,1.075,0,0,1,1.075,1.074v19.715A1.075,1.075,0,0,1,844.593,1050.037Zm-1.075-19.65a8.784,8.784,0,0,0,0,17.435Z" transform="translate(-812.111 -1006.621)" fill="#12263f"/>
      <path id="Trazado_196619" data-name="Trazado 196619" d="M849.506,1061.294a3.626,3.626,0,1,1,3.626-3.626A3.629,3.629,0,0,1,849.506,1061.294Zm0-5.1a1.477,1.477,0,1,0,1.478,1.477A1.478,1.478,0,0,0,849.506,1056.191Z" transform="translate(-809.539 -1001.178)" fill="#12263f"/>
      <path id="Trazado_196620" data-name="Trazado 196620" d="M849.506,1046.995a3.626,3.626,0,1,1,3.626-3.626A3.629,3.629,0,0,1,849.506,1046.995Zm0-5.1a1.477,1.477,0,1,0,1.478,1.477A1.478,1.478,0,0,0,849.506,1041.891Z" transform="translate(-809.539 -1004.187)" fill="#12263f"/>
      <path id="Trazado_196621" data-name="Trazado 196621" d="M855.393,1055.842a4.665,4.665,0,0,1-3.467-7.788,1.074,1.074,0,1,1,1.6,1.438,2.517,2.517,0,1,0,3.4-.312,1.074,1.074,0,0,1,1.31-1.7,4.666,4.666,0,0,1-2.843,8.365Z" transform="translate(-808.52 -1002.606)" fill="#12263f"/>
      <path id="Trazado_196622" data-name="Trazado 196622" d="M858.361,1042.681a4.666,4.666,0,1,1,4.665-4.666A4.671,4.671,0,0,1,858.361,1042.681Zm0-7.182a2.517,2.517,0,1,0,2.517,2.516A2.519,2.519,0,0,0,858.361,1035.5Z" transform="translate(-807.895 -1005.532)" fill="#12263f"/>
      <path id="Trazado_196623" data-name="Trazado 196623" d="M853.679,1051.755h-10.8a1.074,1.074,0,1,1,0-2.148h10.8a1.074,1.074,0,1,1,0,2.148Z" transform="translate(-810.397 -1002.111)" fill="#12263f"/>
      <path id="Trazado_196624" data-name="Trazado 196624" d="M847.812,1058.3H842.88a1.075,1.075,0,1,1,0-2.15h4.932a1.075,1.075,0,1,1,0,2.15Z" transform="translate(-810.397 -1000.735)" fill="#12263f"/>
      <path id="Trazado_196625" data-name="Trazado 196625" d="M847.812,1044H842.88a1.075,1.075,0,1,1,0-2.15h4.932a1.075,1.075,0,1,1,0,2.15Z" transform="translate(-810.397 -1003.743)" fill="#12263f"/>
      <path id="Trazado_196626" data-name="Trazado 196626" d="M849.506,1021.627a3.626,3.626,0,1,1,3.626-3.625A3.628,3.628,0,0,1,849.506,1021.627Zm0-5.1a1.477,1.477,0,1,0,1.478,1.478A1.479,1.479,0,0,0,849.506,1016.523Z" transform="translate(-809.539 -1009.525)" fill="#12263f"/>
      <path id="Trazado_196627" data-name="Trazado 196627" d="M849.506,1035.927a3.626,3.626,0,1,1,3.626-3.626A3.629,3.629,0,0,1,849.506,1035.927Zm0-5.1a1.477,1.477,0,1,0,1.478,1.477A1.479,1.479,0,0,0,849.506,1030.823Z" transform="translate(-809.539 -1006.516)" fill="#12263f"/>
      <path id="Trazado_196628" data-name="Trazado 196628" d="M855.393,1029.39a4.665,4.665,0,1,1,4.666-4.665,1.074,1.074,0,1,1-2.148,0,2.517,2.517,0,1,0-2.518,2.516,1.074,1.074,0,1,1,0,2.148Z" transform="translate(-808.52 -1008.329)" fill="#12263f"/>
      <path id="Trazado_196629" data-name="Trazado 196629" d="M853.679,1025.175h-10.8a1.074,1.074,0,1,1,0-2.149h10.8a1.074,1.074,0,1,1,0,2.149Z" transform="translate(-810.397 -1007.704)" fill="#12263f"/>
      <path id="Trazado_196630" data-name="Trazado 196630" d="M847.812,1018.632H842.88a1.074,1.074,0,1,1,0-2.149h4.932a1.074,1.074,0,1,1,0,2.149Z" transform="translate(-810.397 -1009.081)" fill="#12263f"/>
      <path id="Trazado_196631" data-name="Trazado 196631" d="M847.812,1032.931H842.88a1.074,1.074,0,1,1,0-2.148h4.932a1.074,1.074,0,1,1,0,2.148Z" transform="translate(-810.397 -1006.072)" fill="#12263f"/>
      <path id="Trazado_196632" data-name="Trazado 196632" d="M857.27,1038.466H842.88a1.074,1.074,0,1,1,0-2.149H857.27a1.074,1.074,0,1,1,0,2.149Z" transform="translate(-810.397 -1004.908)" fill="#12263f"/>
    </g>
    <g id="Grupo_133016" data-name="Grupo 133016" transform="translate(577.331 1194.933)">
      <path id="Trazado_196633" data-name="Trazado 196633" d="M596.511,1214.87a32.765,32.765,0,0,1-32.728-32.729,1.075,1.075,0,0,1,1.075-1.075h63.307a1.075,1.075,0,0,1,1.075,1.075A32.766,32.766,0,0,1,596.511,1214.87Zm-30.561-31.654a30.58,30.58,0,0,0,61.121,0Z" transform="translate(-563.783 -1151.663)" fill="#12263f"/>
      <path id="Trazado_196634" data-name="Trazado 196634" d="M596.511,1198.388c-18.352,0-32.728-7.137-32.728-16.247a1.075,1.075,0,0,1,1.075-1.075h63.307a1.075,1.075,0,0,1,1.075,1.075C629.24,1191.252,614.864,1198.388,596.511,1198.388Zm-30.487-15.172c1.236,7.162,14.695,13.024,30.487,13.024s29.251-5.862,30.487-13.024Z" transform="translate(-563.783 -1151.663)" fill="#12263f"/>
      <path id="Trazado_196635" data-name="Trazado 196635" d="M593.646,1214.87c-9.111,0-16.247-14.376-16.247-32.729a1.075,1.075,0,0,1,1.075-1.075h30.345a1.075,1.075,0,0,1,1.075,1.075C609.894,1200.493,602.757,1214.87,593.646,1214.87Zm-14.089-31.654c.271,16.1,6.613,29.505,14.089,29.505s13.818-13.4,14.089-29.505Z" transform="translate(-560.918 -1151.663)" fill="#12263f"/>
      <path id="Trazado_196636" data-name="Trazado 196636" d="M592.409,1175.034a1.071,1.071,0,0,1-.76-.315l-8.055-8.055a1.073,1.073,0,0,1,0-1.519l8.055-8.056a1.075,1.075,0,0,1,1.519,0l8.057,8.056a1.073,1.073,0,0,1,0,1.519l-8.057,8.055A1.066,1.066,0,0,1,592.409,1175.034Zm-6.536-9.13,6.536,6.537,6.536-6.537-6.536-6.536Z" transform="translate(-559.681 -1156.775)" fill="#12263f"/>
      <path id="Trazado_196637" data-name="Trazado 196637" d="M608.431,1180.874a1.071,1.071,0,0,1-.76-.315l-8.057-8.056a1.076,1.076,0,0,1,0-1.519l8.057-8.056a1.075,1.075,0,0,1,1.519,0l8.057,8.056a1.075,1.075,0,0,1,0,1.519l-8.057,8.056A1.07,1.07,0,0,1,608.431,1180.874Zm-6.537-9.131,6.537,6.537,6.536-6.537-6.536-6.536Z" transform="translate(-556.31 -1155.546)" fill="#12263f"/>
      <path id="Trazado_196638" data-name="Trazado 196638" d="M607.031,1184.3a1.075,1.075,0,0,1-1.075-1.075V1177a1.074,1.074,0,1,1,2.148,0v6.224A1.075,1.075,0,0,1,607.031,1184.3Z" transform="translate(-554.909 -1152.745)" fill="#12263f"/>
      <path id="Trazado_196639" data-name="Trazado 196639" d="M591.009,1185.526a1.076,1.076,0,0,1-1.075-1.075V1171.16a1.075,1.075,0,1,1,2.15,0v13.292A1.076,1.076,0,0,1,591.009,1185.526Z" transform="translate(-558.28 -1153.974)" fill="#12263f"/>
      <path id="Trazado_196640" data-name="Trazado 196640" d="M597.664,1183.514a1.075,1.075,0,0,1-1.074-1.075v-1.719a1.074,1.074,0,1,1,2.148,0v1.719A1.075,1.075,0,0,1,597.664,1183.514Z" transform="translate(-556.88 -1151.962)" fill="#12263f"/>
      <path id="Trazado_196641" data-name="Trazado 196641" d="M597.664,1177.422a1.074,1.074,0,0,1-1.074-1.074v-1.72a1.074,1.074,0,0,1,2.148,0v1.72A1.074,1.074,0,0,1,597.664,1177.422Z" transform="translate(-556.88 -1153.243)" fill="#12263f"/>
      <path id="Trazado_196642" data-name="Trazado 196642" d="M614.819,1183.514a1.076,1.076,0,0,1-1.075-1.075v-1.719a1.075,1.075,0,0,1,2.15,0v1.719A1.076,1.076,0,0,1,614.819,1183.514Z" transform="translate(-553.27 -1151.962)" fill="#12263f"/>
      <path id="Trazado_196643" data-name="Trazado 196643" d="M614.819,1177.937a1.076,1.076,0,0,1-1.075-1.075v-1.719a1.075,1.075,0,1,1,2.15,0v1.719A1.076,1.076,0,0,1,614.819,1177.937Z" transform="translate(-553.27 -1153.136)" fill="#12263f"/>
      <path id="Trazado_196644" data-name="Trazado 196644" d="M576.387,1180.874a1.07,1.07,0,0,1-.759-.315l-8.056-8.056a1.075,1.075,0,0,1,0-1.519l8.056-8.056a1.075,1.075,0,0,1,1.519,0l8.055,8.056a1.073,1.073,0,0,1,0,1.519l-8.055,8.056A1.073,1.073,0,0,1,576.387,1180.874Zm-6.536-9.131,6.536,6.537,6.537-6.537-6.537-6.536Z" transform="translate(-563.052 -1155.546)" fill="#12263f"/>
      <path id="Trazado_196645" data-name="Trazado 196645" d="M574.987,1184.3a1.075,1.075,0,0,1-1.074-1.075V1177a1.074,1.074,0,1,1,2.149,0v6.224A1.075,1.075,0,0,1,574.987,1184.3Z" transform="translate(-561.651 -1152.745)" fill="#12263f"/>
      <path id="Trazado_196646" data-name="Trazado 196646" d="M584.354,1183.514a1.075,1.075,0,0,1-1.075-1.075v-1.719a1.074,1.074,0,1,1,2.148,0v1.719A1.075,1.075,0,0,1,584.354,1183.514Z" transform="translate(-559.681 -1151.962)" fill="#12263f"/>
      <path id="Trazado_196647" data-name="Trazado 196647" d="M584.354,1177.422a1.074,1.074,0,0,1-1.075-1.074v-1.72a1.074,1.074,0,0,1,2.148,0v1.72A1.074,1.074,0,0,1,584.354,1177.422Z" transform="translate(-559.681 -1153.243)" fill="#12263f"/>
      <path id="Trazado_196648" data-name="Trazado 196648" d="M567.2,1183.514a1.076,1.076,0,0,1-1.075-1.075v-1.719a1.074,1.074,0,1,1,2.148,0v1.719A1.075,1.075,0,0,1,567.2,1183.514Z" transform="translate(-563.29 -1151.962)" fill="#12263f"/>
      <path id="Trazado_196649" data-name="Trazado 196649" d="M567.2,1177.937a1.076,1.076,0,0,1-1.075-1.075v-1.719a1.074,1.074,0,1,1,2.148,0v1.719A1.074,1.074,0,0,1,567.2,1177.937Z" transform="translate(-563.29 -1153.136)" fill="#12263f"/>
    </g>
    <g id="Grupo_133017" data-name="Grupo 133017" transform="translate(1187.474 1197.895)">
      <path id="Trazado_196650" data-name="Trazado 196650" d="M1126.845,1207.919H1073.22a5.367,5.367,0,0,1-5.361-5.361v-37.976a5.367,5.367,0,0,1,5.361-5.361h53.625a5.367,5.367,0,0,1,5.361,5.361v2.047a1.074,1.074,0,1,1-2.148,0v-2.047a3.216,3.216,0,0,0-3.213-3.212H1073.22a3.216,3.216,0,0,0-3.213,3.212v37.976a3.215,3.215,0,0,0,3.213,3.211h53.625a3.216,3.216,0,0,0,3.213-3.211v-6.635a1.074,1.074,0,1,1,2.148,0v6.635A5.367,5.367,0,0,1,1126.845,1207.919Z" transform="translate(-1067.859 -1159.222)" fill="#12263f"/>
      <path id="Trazado_196651" data-name="Trazado 196651" d="M1120.32,1168.323a1.075,1.075,0,0,1-1.075-1.075v-1.719a1.074,1.074,0,1,1,2.149,0v1.719A1.074,1.074,0,0,1,1120.32,1168.323Z" transform="translate(-1057.046 -1158.121)" fill="#12263f"/>
      <path id="Trazado_196652" data-name="Trazado 196652" d="M1120.32,1186.292a1.075,1.075,0,0,1-1.075-1.075v-3.232a1.074,1.074,0,1,1,2.149,0v3.232A1.075,1.075,0,0,1,1120.32,1186.292Zm0-9.7a1.074,1.074,0,0,1-1.075-1.075v-3.232a1.074,1.074,0,0,1,2.149,0v3.232A1.074,1.074,0,0,1,1120.32,1176.6Z" transform="translate(-1057.046 -1156.698)" fill="#12263f"/>
      <path id="Trazado_196653" data-name="Trazado 196653" d="M1120.32,1191.1a1.074,1.074,0,0,1-1.075-1.074v-1.72a1.074,1.074,0,0,1,2.149,0v1.72A1.073,1.073,0,0,1,1120.32,1191.1Z" transform="translate(-1057.046 -1153.328)" fill="#12263f"/>
      <path id="Trazado_196654" data-name="Trazado 196654" d="M1131.132,1195.336h-62.2a1.075,1.075,0,0,1,0-2.15h62.2a1.075,1.075,0,0,1,0,2.15Z" transform="translate(-1067.859 -1152.075)" fill="#12263f"/>
      <path id="Trazado_196655" data-name="Trazado 196655" d="M1098.787,1205.424h-7.09a1.074,1.074,0,0,1-1.075-1.073v-5.6a1.076,1.076,0,0,1,1.075-1.075h7.09a1.076,1.076,0,0,1,1.075,1.075v5.6A1.074,1.074,0,0,1,1098.787,1205.424Zm-6.015-2.148h4.94v-3.448h-4.94Z" transform="translate(-1063.069 -1151.13)" fill="#12263f"/>
      <path id="Trazado_196656" data-name="Trazado 196656" d="M1104.753,1212.611H1087.5a1.074,1.074,0,0,1-1.017-1.423l2.809-8.159a1.074,1.074,0,0,1,1.016-.725h11.637a1.077,1.077,0,0,1,1.017.725l2.809,8.159a1.074,1.074,0,0,1-1.017,1.423ZM1089,1210.462h14.243l-2.07-6.011h-10.1Z" transform="translate(-1063.953 -1150.157)" fill="#12263f"/>
      <path id="Trazado_196657" data-name="Trazado 196657" d="M1117.707,1211.192h-39.326a1.074,1.074,0,1,1,0-2.149h39.326a1.074,1.074,0,1,1,0,2.149Z" transform="translate(-1065.871 -1148.739)" fill="#12263f"/>
      <path id="Trazado_196658" data-name="Trazado 196658" d="M1119.583,1192.744h-37.814a10.237,10.237,0,1,1,2.6-20.139,11.06,11.06,0,0,1,21.38-1.626,9.163,9.163,0,0,1,11.386,7.374,7.4,7.4,0,1,1,2.448,14.391Zm-37.814-18.324a8.087,8.087,0,1,0,0,16.175h37.814a5.256,5.256,0,1,0-2.83-9.678,1.075,1.075,0,0,1-1.655-.927c0-.018,0-.114.007-.132a7.014,7.014,0,0,0-9.68-6.506,1.075,1.075,0,0,1-1.458-.763,8.911,8.911,0,0,0-17.605,1.51,1.075,1.075,0,0,1-1.488.942A8.036,8.036,0,0,0,1081.769,1174.419Z" transform="translate(-1067.086 -1158.334)" fill="#12263f"/>
      <path id="Trazado_196659" data-name="Trazado 196659" d="M1106.417,1182.035a1.106,1.106,0,0,1-.316-.047,1.075,1.075,0,0,1-.712-1.344,7.366,7.366,0,0,1,7.08-5.229,1.074,1.074,0,1,1,0,2.149,5.23,5.23,0,0,0-5.026,3.712A1.075,1.075,0,0,1,1106.417,1182.035Z" transform="translate(-1059.972 -1155.815)" fill="#12263f"/>
      <path id="Trazado_196660" data-name="Trazado 196660" d="M1099.1,1178.725a1.073,1.073,0,0,1-.989-1.492,8.936,8.936,0,0,0-.876-8.538,1.074,1.074,0,1,1,1.767-1.221,11.083,11.083,0,0,1,1.088,10.6A1.074,1.074,0,0,1,1099.1,1178.725Z" transform="translate(-1061.717 -1157.583)" fill="#12263f"/>
      <path id="Trazado_196661" data-name="Trazado 196661" d="M1087.712,1176.834a1.076,1.076,0,0,1-.884-.462,8.1,8.1,0,0,0-6.652-3.487,1.074,1.074,0,1,1,0-2.149,10.248,10.248,0,0,1,8.418,4.411,1.076,1.076,0,0,1-.882,1.687Z" transform="translate(-1065.493 -1156.799)" fill="#12263f"/>
      <path id="Trazado_196662" data-name="Trazado 196662" d="M1080.832,1196.832a1.075,1.075,0,0,1-1.075-1.075v-3.344a1.075,1.075,0,0,1,.315-.759l5.262-5.262a1.074,1.074,0,0,1,1.519,1.519l-4.947,4.947v2.9A1.075,1.075,0,0,1,1080.832,1196.832Z" transform="translate(-1065.355 -1153.571)" fill="#12263f"/>
      <path id="Trazado_196663" data-name="Trazado 196663" d="M1088.456,1196.874a1.075,1.075,0,0,1-1.074-1.075v-8.851a1.074,1.074,0,1,1,2.149,0v8.851A1.075,1.075,0,0,1,1088.456,1196.874Z" transform="translate(-1063.751 -1153.614)" fill="#12263f"/>
      <path id="Trazado_196664" data-name="Trazado 196664" d="M1109.336,1196.832a1.075,1.075,0,0,1-1.075-1.075v-2.9l-4.946-4.947a1.074,1.074,0,1,1,1.519-1.519l5.26,5.262a1.069,1.069,0,0,1,.315.759v3.344A1.075,1.075,0,0,1,1109.336,1196.832Z" transform="translate(-1060.464 -1153.571)" fill="#12263f"/>
      <path id="Trazado_196665" data-name="Trazado 196665" d="M1100.8,1196.874a1.076,1.076,0,0,1-1.075-1.075v-8.851a1.074,1.074,0,1,1,2.148,0v8.851A1.074,1.074,0,0,1,1100.8,1196.874Z" transform="translate(-1061.154 -1153.614)" fill="#12263f"/>
      <path id="Trazado_196666" data-name="Trazado 196666" d="M1094.625,1196.874a1.074,1.074,0,0,1-1.073-1.075v-8.851a1.074,1.074,0,1,1,2.148,0v8.851A1.075,1.075,0,0,1,1094.625,1196.874Z" transform="translate(-1062.453 -1153.614)" fill="#12263f"/>
    </g>
  </g>
</svg>
