<svg xmlns="http://www.w3.org/2000/svg" width="400" height="491.954" viewBox="0 0 400 491.954">
  <g id="Grupo_134995" data-name="Grupo 134995" transform="translate(11623 6151.221)">
    <g id="Grupo_112908" data-name="Grupo 112908" transform="translate(-11594.197 -6088.164)">
      <g id="Grupo_112907" data-name="Grupo 112907">
        <rect id="Rectángulo_293520" data-name="Rectángulo 293520" width="262.476" height="262.476" rx="10" transform="translate(0 185.599) rotate(-45)" fill="#b9ddfc"/>
      </g>
    </g>
    <g id="Grupo_112915" data-name="Grupo 112915" transform="translate(-11305.8 -5853.367)">
      <g id="Grupo_112910" data-name="Grupo 112910" transform="translate(5.891)">
        <g id="Grupo_112909" data-name="Grupo 112909">
          <path id="Trazado_117557" data-name="Trazado 117557" d="M2270.974,2201.354a1.6,1.6,0,0,1-1.6-1.6v-9.03a12.594,12.594,0,0,0-25.188,0v9.03a1.6,1.6,0,0,1-3.208,0v-9.03a15.8,15.8,0,0,1,31.6,0v9.03A1.6,1.6,0,0,1,2270.974,2201.354Z" transform="translate(-2240.973 -2174.919)" fill="#00003e"/>
        </g>
      </g>
      <g id="Grupo_112912" data-name="Grupo 112912" transform="translate(0 23.907)">
        <g id="Grupo_112911" data-name="Grupo 112911">
          <path id="Trazado_117558" data-name="Trazado 117558" d="M2271.4,2230.711H2244.69a8.029,8.029,0,0,1-8.021-8.022v-22.284a8.029,8.029,0,0,1,8.021-8.021H2271.4a8.029,8.029,0,0,1,8.022,8.021v22.284A8.029,8.029,0,0,1,2271.4,2230.711Zm-26.705-35.119a4.818,4.818,0,0,0-4.813,4.813v22.284a4.819,4.819,0,0,0,4.813,4.814H2271.4a4.819,4.819,0,0,0,4.814-4.814v-22.284a4.818,4.818,0,0,0-4.814-4.812Z" transform="translate(-2236.669 -2192.384)" fill="#00003e"/>
        </g>
      </g>
      <g id="Grupo_112914" data-name="Grupo 112914" transform="translate(16.232 37.929)">
        <g id="Grupo_112913" data-name="Grupo 112913">
          <path id="Trazado_117559" data-name="Trazado 117559" d="M2253.67,2212.913a5.143,5.143,0,1,1,5.143-5.143A5.148,5.148,0,0,1,2253.67,2212.913Zm0-7.077a1.934,1.934,0,1,0,1.934,1.935A1.938,1.938,0,0,0,2253.67,2205.836Z" transform="translate(-2248.527 -2202.628)" fill="#00003e"/>
        </g>
      </g>
    </g>
    <g id="Grupo_112917" data-name="Grupo 112917" transform="translate(-11583.414 -5892.517)">
      <g id="Grupo_112916" data-name="Grupo 112916">
        <path id="Trazado_117560" data-name="Trazado 117560" d="M2037.04,2140.853h-12.19a1.255,1.255,0,0,1,0-2.51h12.19a1.255,1.255,0,0,1,0,2.51Zm-24.736,0h-12.546a1.255,1.255,0,0,1,0-2.51H2012.3a1.255,1.255,0,0,1,0,2.51Zm-25.091,0h-12.546a1.255,1.255,0,0,1,0-2.51h12.546a1.255,1.255,0,0,1,0,2.51Z" transform="translate(-1973.412 -2138.343)" fill="#00003e"/>
      </g>
    </g>
    <g id="Grupo_134990" data-name="Grupo 134990" transform="translate(-11544.679 -5763.703) rotate(90)">
      <g id="Grupo_112916-2" data-name="Grupo 112916">
        <path id="Trazado_117560-2" data-name="Trazado 117560" d="M2037.04,2140.853h-12.19a1.255,1.255,0,0,1,0-2.51h12.19a1.255,1.255,0,0,1,0,2.51Zm-24.736,0h-12.546a1.255,1.255,0,0,1,0-2.51H2012.3a1.255,1.255,0,0,1,0,2.51Zm-25.091,0h-12.546a1.255,1.255,0,0,1,0-2.51h12.546a1.255,1.255,0,0,1,0,2.51Z" transform="translate(-1973.412 -2138.343)" fill="#00003e"/>
      </g>
    </g>
    <g id="Grupo_112924" data-name="Grupo 112924" transform="translate(-11380.468 -6126.652)">
      <g id="Grupo_112919" data-name="Grupo 112919" transform="translate(21.732 18.493)">
        <g id="Grupo_112918" data-name="Grupo 112918">
          <path id="Trazado_117561" data-name="Trazado 117561" d="M2194.309,1964.865a1.248,1.248,0,0,1-.718-.225l-9.733-6.795a1.255,1.255,0,0,1,1.437-2.058l9.732,6.795a1.254,1.254,0,0,1-.718,2.283Z" transform="translate(-2183.322 -1955.561)" fill="#00003e"/>
        </g>
      </g>
      <g id="Grupo_112921" data-name="Grupo 112921" transform="translate(15.731)">
        <g id="Grupo_112920" data-name="Grupo 112920">
          <path id="Trazado_117562" data-name="Trazado 117562" d="M2178.97,1951.254a1.254,1.254,0,0,1-1.255-1.254v-10.461a1.255,1.255,0,0,1,2.51,0V1950A1.254,1.254,0,0,1,2178.97,1951.254Z" transform="translate(-2177.715 -1938.284)" fill="#00003e"/>
        </g>
      </g>
      <g id="Grupo_112923" data-name="Grupo 112923" transform="translate(0 18.493)">
        <g id="Grupo_112922" data-name="Grupo 112922">
          <path id="Trazado_117563" data-name="Trazado 117563" d="M2164.272,1964.865a1.254,1.254,0,0,1-.717-2.283l9.733-6.795a1.255,1.255,0,1,1,1.436,2.058l-9.733,6.795A1.249,1.249,0,0,1,2164.272,1964.865Z" transform="translate(-2163.018 -1955.561)" fill="#00003e"/>
        </g>
      </g>
    </g>
    <g id="Grupo_112967" data-name="Grupo 112967" transform="translate(-11575.01 -6038.535)">
      <g id="Grupo_112926" data-name="Grupo 112926" transform="translate(17.518 16.69)">
        <g id="Grupo_112925" data-name="Grupo 112925">
          <path id="Trazado_117564" data-name="Trazado 117564" d="M2032.937,2057.356h-31.544a3.767,3.767,0,0,1-3.763-3.764v-32.313a3.767,3.767,0,0,1,3.763-3.763h31.544a3.767,3.767,0,0,1,3.763,3.763v32.313A3.768,3.768,0,0,1,2032.937,2057.356Zm-31.544-37.331a1.257,1.257,0,0,0-1.254,1.255v32.313a1.258,1.258,0,0,0,1.254,1.255h31.544a1.257,1.257,0,0,0,1.254-1.255v-32.313a1.256,1.256,0,0,0-1.254-1.255Z" transform="translate(-1997.63 -2017.516)" fill="#00003e"/>
        </g>
      </g>
      <g id="Grupo_112928" data-name="Grupo 112928" transform="translate(30.833 23.264)">
        <g id="Grupo_112927" data-name="Grupo 112927">
          <path id="Trazado_117565" data-name="Trazado 117565" d="M2016.205,2035.932a6.137,6.137,0,1,1,6.139-6.138A6.144,6.144,0,0,1,2016.205,2035.932Zm0-9.765a3.628,3.628,0,1,0,3.63,3.626A3.631,3.631,0,0,0,2016.205,2026.167Z" transform="translate(-2010.07 -2023.658)" fill="#00003e"/>
        </g>
      </g>
      <g id="Grupo_112930" data-name="Grupo 112930" transform="translate(22.506 41.179)">
        <g id="Grupo_112929" data-name="Grupo 112929">
          <path id="Trazado_117566" data-name="Trazado 117566" d="M2029.96,2042.9h-26.414a1.255,1.255,0,1,1,0-2.509h26.414a1.255,1.255,0,1,1,0,2.509Z" transform="translate(-2002.291 -2040.395)" fill="#00003e"/>
        </g>
      </g>
      <g id="Grupo_112932" data-name="Grupo 112932" transform="translate(25.241 47.111)">
        <g id="Grupo_112931" data-name="Grupo 112931">
          <path id="Trazado_117567" data-name="Trazado 117567" d="M2027.046,2048.446H2006.1a1.255,1.255,0,0,1,0-2.509h20.946a1.255,1.255,0,0,1,0,2.509Z" transform="translate(-2004.846 -2045.937)" fill="#00003e"/>
        </g>
      </g>
      <g id="Grupo_112934" data-name="Grupo 112934" transform="translate(7.694 7.695)">
        <g id="Grupo_112933" data-name="Grupo 112933">
          <path id="Trazado_117568" data-name="Trazado 117568" d="M2040.9,2066.943h-46.172a6.279,6.279,0,0,1-6.273-6.273v-45.285a6.279,6.279,0,0,1,6.273-6.272H2040.9a6.279,6.279,0,0,1,6.272,6.272v45.285A6.279,6.279,0,0,1,2040.9,2066.943Zm-46.172-55.322a3.767,3.767,0,0,0-3.763,3.763v45.285a3.768,3.768,0,0,0,3.763,3.764H2040.9a3.768,3.768,0,0,0,3.763-3.764v-45.285a3.767,3.767,0,0,0-3.763-3.763Z" transform="translate(-1988.452 -2009.112)" fill="#00003e"/>
        </g>
      </g>
      <g id="Grupo_112942" data-name="Grupo 112942" transform="translate(11.573)">
        <g id="Grupo_112935" data-name="Grupo 112935">
          <path id="Trazado_117569" data-name="Trazado 117569" d="M1993.33,2012.127a1.254,1.254,0,0,1-1.254-1.254v-7.694a1.254,1.254,0,1,1,2.509,0v7.694A1.254,1.254,0,0,1,1993.33,2012.127Z" transform="translate(-1992.076 -2001.923)" fill="#00003e"/>
        </g>
        <g id="Grupo_112936" data-name="Grupo 112936" transform="translate(7.971)">
          <path id="Trazado_117570" data-name="Trazado 117570" d="M2000.777,2012.127a1.254,1.254,0,0,1-1.254-1.254v-7.694a1.255,1.255,0,1,1,2.51,0v7.694A1.255,1.255,0,0,1,2000.777,2012.127Z" transform="translate(-1999.523 -2001.923)" fill="#00003e"/>
        </g>
        <g id="Grupo_112937" data-name="Grupo 112937" transform="translate(15.942)">
          <path id="Trazado_117571" data-name="Trazado 117571" d="M2008.224,2012.127a1.254,1.254,0,0,1-1.254-1.254v-7.694a1.254,1.254,0,1,1,2.509,0v7.694A1.254,1.254,0,0,1,2008.224,2012.127Z" transform="translate(-2006.97 -2001.923)" fill="#00003e"/>
        </g>
        <g id="Grupo_112938" data-name="Grupo 112938" transform="translate(23.913)">
          <path id="Trazado_117572" data-name="Trazado 117572" d="M2015.671,2012.127a1.254,1.254,0,0,1-1.254-1.254v-7.694a1.255,1.255,0,1,1,2.509,0v7.694A1.254,1.254,0,0,1,2015.671,2012.127Z" transform="translate(-2014.417 -2001.923)" fill="#00003e"/>
        </g>
        <g id="Grupo_112939" data-name="Grupo 112939" transform="translate(31.884)">
          <path id="Trazado_117573" data-name="Trazado 117573" d="M2023.119,2012.127a1.254,1.254,0,0,1-1.255-1.254v-7.694a1.255,1.255,0,1,1,2.509,0v7.694A1.254,1.254,0,0,1,2023.119,2012.127Z" transform="translate(-2021.864 -2001.923)" fill="#00003e"/>
        </g>
        <g id="Grupo_112940" data-name="Grupo 112940" transform="translate(39.853)">
          <path id="Trazado_117574" data-name="Trazado 117574" d="M2030.563,2012.127a1.254,1.254,0,0,1-1.254-1.254v-7.694a1.254,1.254,0,1,1,2.509,0v7.694A1.254,1.254,0,0,1,2030.563,2012.127Z" transform="translate(-2029.309 -2001.923)" fill="#00003e"/>
        </g>
        <g id="Grupo_112941" data-name="Grupo 112941" transform="translate(47.824)">
          <path id="Trazado_117575" data-name="Trazado 117575" d="M2038.01,2012.127a1.254,1.254,0,0,1-1.254-1.254v-7.694a1.254,1.254,0,1,1,2.509,0v7.694A1.254,1.254,0,0,1,2038.01,2012.127Z" transform="translate(-2036.756 -2001.923)" fill="#00003e"/>
        </g>
      </g>
      <g id="Grupo_112950" data-name="Grupo 112950" transform="translate(64.418 10.939)">
        <g id="Grupo_112943" data-name="Grupo 112943">
          <path id="Trazado_117576" data-name="Trazado 117576" d="M2050.4,2014.652H2042.7a1.255,1.255,0,1,1,0-2.509h7.694a1.255,1.255,0,1,1,0,2.509Z" transform="translate(-2041.447 -2012.143)" fill="#00003e"/>
        </g>
        <g id="Grupo_112944" data-name="Grupo 112944" transform="translate(0 7.971)">
          <path id="Trazado_117577" data-name="Trazado 117577" d="M2050.4,2022.1H2042.7a1.254,1.254,0,1,1,0-2.509h7.694a1.254,1.254,0,1,1,0,2.509Z" transform="translate(-2041.447 -2019.59)" fill="#00003e"/>
        </g>
        <g id="Grupo_112945" data-name="Grupo 112945" transform="translate(0 15.942)">
          <path id="Trazado_117578" data-name="Trazado 117578" d="M2050.4,2029.546H2042.7a1.254,1.254,0,1,1,0-2.509h7.694a1.254,1.254,0,1,1,0,2.509Z" transform="translate(-2041.447 -2027.037)" fill="#00003e"/>
        </g>
        <g id="Grupo_112946" data-name="Grupo 112946" transform="translate(0 23.91)">
          <path id="Trazado_117579" data-name="Trazado 117579" d="M2050.4,2036.991H2042.7a1.255,1.255,0,0,1,0-2.51h7.694a1.255,1.255,0,0,1,0,2.51Z" transform="translate(-2041.447 -2034.481)" fill="#00003e"/>
        </g>
        <g id="Grupo_112947" data-name="Grupo 112947" transform="translate(0 31.881)">
          <path id="Trazado_117580" data-name="Trazado 117580" d="M2050.4,2044.438H2042.7a1.255,1.255,0,0,1,0-2.51h7.694a1.255,1.255,0,0,1,0,2.51Z" transform="translate(-2041.447 -2041.928)" fill="#00003e"/>
        </g>
        <g id="Grupo_112948" data-name="Grupo 112948" transform="translate(0 39.852)">
          <path id="Trazado_117581" data-name="Trazado 117581" d="M2050.4,2051.884H2042.7a1.255,1.255,0,1,1,0-2.509h7.694a1.255,1.255,0,1,1,0,2.509Z" transform="translate(-2041.447 -2049.375)" fill="#00003e"/>
        </g>
        <g id="Grupo_112949" data-name="Grupo 112949" transform="translate(0 47.823)">
          <path id="Trazado_117582" data-name="Trazado 117582" d="M2050.4,2059.332H2042.7a1.255,1.255,0,0,1,0-2.51h7.694a1.255,1.255,0,0,1,0,2.51Z" transform="translate(-2041.447 -2056.822)" fill="#00003e"/>
        </g>
      </g>
      <g id="Grupo_112958" data-name="Grupo 112958" transform="translate(12.855 63.017)">
        <g id="Grupo_112951" data-name="Grupo 112951" transform="translate(47.823)">
          <path id="Trazado_117583" data-name="Trazado 117583" d="M2039.207,2071a1.254,1.254,0,0,1-1.254-1.254v-7.694a1.254,1.254,0,0,1,2.509,0v7.694A1.254,1.254,0,0,1,2039.207,2071Z" transform="translate(-2037.953 -2060.797)" fill="#00003e"/>
        </g>
        <g id="Grupo_112952" data-name="Grupo 112952" transform="translate(39.852)">
          <path id="Trazado_117584" data-name="Trazado 117584" d="M2031.76,2071a1.254,1.254,0,0,1-1.254-1.254v-7.694a1.255,1.255,0,0,1,2.51,0v7.694A1.254,1.254,0,0,1,2031.76,2071Z" transform="translate(-2030.506 -2060.797)" fill="#00003e"/>
        </g>
        <g id="Grupo_112953" data-name="Grupo 112953" transform="translate(31.881)">
          <path id="Trazado_117585" data-name="Trazado 117585" d="M2024.313,2071a1.254,1.254,0,0,1-1.255-1.254v-7.694a1.255,1.255,0,0,1,2.509,0v7.694A1.254,1.254,0,0,1,2024.313,2071Z" transform="translate(-2023.059 -2060.797)" fill="#00003e"/>
        </g>
        <g id="Grupo_112954" data-name="Grupo 112954" transform="translate(23.91)">
          <path id="Trazado_117586" data-name="Trazado 117586" d="M2016.867,2071a1.254,1.254,0,0,1-1.254-1.254v-7.694a1.255,1.255,0,0,1,2.51,0v7.694A1.254,1.254,0,0,1,2016.867,2071Z" transform="translate(-2015.612 -2060.797)" fill="#00003e"/>
        </g>
        <g id="Grupo_112955" data-name="Grupo 112955" transform="translate(15.942)">
          <path id="Trazado_117587" data-name="Trazado 117587" d="M2009.422,2071a1.254,1.254,0,0,1-1.254-1.254v-7.694a1.255,1.255,0,0,1,2.509,0v7.694A1.254,1.254,0,0,1,2009.422,2071Z" transform="translate(-2008.168 -2060.797)" fill="#00003e"/>
        </g>
        <g id="Grupo_112956" data-name="Grupo 112956" transform="translate(7.971)">
          <path id="Trazado_117588" data-name="Trazado 117588" d="M2001.975,2071a1.254,1.254,0,0,1-1.254-1.254v-7.694a1.254,1.254,0,0,1,2.509,0v7.694A1.254,1.254,0,0,1,2001.975,2071Z" transform="translate(-2000.721 -2060.797)" fill="#00003e"/>
        </g>
        <g id="Grupo_112957" data-name="Grupo 112957">
          <path id="Trazado_117589" data-name="Trazado 117589" d="M1994.528,2071a1.254,1.254,0,0,1-1.254-1.254v-7.694a1.255,1.255,0,0,1,2.509,0v7.694A1.254,1.254,0,0,1,1994.528,2071Z" transform="translate(-1993.274 -2060.797)" fill="#00003e"/>
        </g>
      </g>
      <g id="Grupo_112966" data-name="Grupo 112966" transform="translate(0 10.939)">
        <g id="Grupo_112959" data-name="Grupo 112959" transform="translate(0 47.823)">
          <path id="Trazado_117590" data-name="Trazado 117590" d="M1990.212,2059.332h-7.694a1.255,1.255,0,0,1,0-2.51h7.694a1.255,1.255,0,1,1,0,2.51Z" transform="translate(-1981.264 -2056.822)" fill="#00003e"/>
        </g>
        <g id="Grupo_112960" data-name="Grupo 112960" transform="translate(0 39.852)">
          <path id="Trazado_117591" data-name="Trazado 117591" d="M1990.212,2051.884h-7.694a1.255,1.255,0,0,1,0-2.509h7.694a1.255,1.255,0,1,1,0,2.509Z" transform="translate(-1981.264 -2049.375)" fill="#00003e"/>
        </g>
        <g id="Grupo_112961" data-name="Grupo 112961" transform="translate(0 31.881)">
          <path id="Trazado_117592" data-name="Trazado 117592" d="M1990.212,2044.438h-7.694a1.255,1.255,0,0,1,0-2.51h7.694a1.255,1.255,0,1,1,0,2.51Z" transform="translate(-1981.264 -2041.928)" fill="#00003e"/>
        </g>
        <g id="Grupo_112962" data-name="Grupo 112962" transform="translate(0 23.91)">
          <path id="Trazado_117593" data-name="Trazado 117593" d="M1990.212,2036.991h-7.694a1.255,1.255,0,0,1,0-2.51h7.694a1.255,1.255,0,1,1,0,2.51Z" transform="translate(-1981.264 -2034.481)" fill="#00003e"/>
        </g>
        <g id="Grupo_112963" data-name="Grupo 112963" transform="translate(0 15.942)">
          <path id="Trazado_117594" data-name="Trazado 117594" d="M1990.212,2029.546h-7.694a1.254,1.254,0,0,1,0-2.509h7.694a1.254,1.254,0,1,1,0,2.509Z" transform="translate(-1981.264 -2027.037)" fill="#00003e"/>
        </g>
        <g id="Grupo_112964" data-name="Grupo 112964" transform="translate(0 7.971)">
          <path id="Trazado_117595" data-name="Trazado 117595" d="M1990.212,2022.1h-7.694a1.254,1.254,0,0,1,0-2.509h7.694a1.254,1.254,0,1,1,0,2.509Z" transform="translate(-1981.264 -2019.59)" fill="#00003e"/>
        </g>
        <g id="Grupo_112965" data-name="Grupo 112965">
          <path id="Trazado_117596" data-name="Trazado 117596" d="M1990.212,2014.652h-7.694a1.255,1.255,0,0,1,0-2.509h7.694a1.255,1.255,0,1,1,0,2.509Z" transform="translate(-1981.264 -2012.143)" fill="#00003e"/>
        </g>
      </g>
    </g>
    <g id="Grupo_112969" data-name="Grupo 112969" transform="translate(-11621.287 -5904.503)">
      <g id="Grupo_112968" data-name="Grupo 112968">
        <path id="Trazado_117597" data-name="Trazado 117597" d="M2000.235,2129.653h-60.952a1.254,1.254,0,0,1,0-2.509h60.952a1.254,1.254,0,1,1,0,2.509Z" transform="translate(-1938.029 -2127.144)" fill="#00003e"/>
      </g>
    </g>
    <g id="Grupo_112971" data-name="Grupo 112971" transform="translate(-11410.377 -6062.938)">
      <g id="Grupo_112970" data-name="Grupo 112970">
        <path id="Trazado_117598" data-name="Trazado 117598" d="M2190.389,1981.634h-60.95a1.254,1.254,0,0,1,0-2.509h60.95a1.254,1.254,0,1,1,0,2.509Z" transform="translate(-2128.185 -1979.125)" fill="#00003e"/>
      </g>
      <g id="Grupo_134993" data-name="Grupo 134993" transform="translate(50 355.928)">
        <path id="Trazado_117598-2" data-name="Trazado 117598" d="M2190.389,1981.634h-60.95a1.254,1.254,0,0,1,0-2.509h60.95a1.254,1.254,0,1,1,0,2.509Z" transform="translate(-2128.185 -1979.125)" fill="#00003e"/>
      </g>
    </g>
    <g id="Grupo_112973" data-name="Grupo 112973" transform="translate(-11370.421 -6050.434)">
      <g id="Grupo_112972" data-name="Grupo 112972">
        <path id="Trazado_117599" data-name="Trazado 117599" d="M2200.9,1993.316h-27.238a1.255,1.255,0,1,1,0-2.509H2200.9a1.255,1.255,0,1,1,0,2.509Z" transform="translate(-2172.404 -1990.807)" fill="#00003e"/>
      </g>
    </g>
    <g id="Grupo_134994" data-name="Grupo 134994" transform="translate(-11376.758 -5694.505)">
      <g id="Grupo_112972-2" data-name="Grupo 112972">
        <path id="Trazado_117599-2" data-name="Trazado 117599" d="M2200.9,1993.316h-27.238a1.255,1.255,0,1,1,0-2.509H2200.9a1.255,1.255,0,1,1,0,2.509Z" transform="translate(-2172.404 -1990.807)" fill="#00003e"/>
      </g>
    </g>
    <g id="Grupo_112982" data-name="Grupo 112982" transform="translate(-11589.574 -5791.132)">
      <g id="Grupo_112975" data-name="Grupo 112975" transform="translate(0 7.488)">
        <g id="Grupo_112974" data-name="Grupo 112974">
          <path id="Trazado_117600" data-name="Trazado 117600" d="M2052.993,2260.415h-80.879a4.462,4.462,0,0,1-4.457-4.455v-11.446a4.563,4.563,0,0,1,.078-.806,4.453,4.453,0,0,1,4.379-3.651h80.879a4.484,4.484,0,0,1,4.375,3.649l0,0a4.657,4.657,0,0,1,.078.806v11.446A4.462,4.462,0,0,1,2052.993,2260.415Zm-80.879-17.848a1.943,1.943,0,0,0-1.91,1.6,1.866,1.866,0,0,0-.039.352v11.446a1.949,1.949,0,0,0,1.948,1.946h80.879a1.95,1.95,0,0,0,1.948-1.946v-11.446a1.854,1.854,0,0,0-.04-.355,1.98,1.98,0,0,0-1.908-1.593Zm72.222,11.373a4.5,4.5,0,1,1,4.5-4.5A4.508,4.508,0,0,1,2044.336,2253.94Zm0-6.494a1.993,1.993,0,1,0,1.992,1.992A2,2,0,0,0,2044.336,2247.446Z" transform="translate(-1967.657 -2240.058)" fill="#00003e"/>
        </g>
      </g>
      <g id="Grupo_112977" data-name="Grupo 112977" transform="translate(0.006)">
        <g id="Grupo_112976" data-name="Grupo 112976">
          <path id="Trazado_117601" data-name="Trazado 117601" d="M1968.97,2245.682a1.312,1.312,0,0,1-1.047-.52,1.265,1.265,0,0,1-.2-1.129l3.345-10.108a1.254,1.254,0,0,1,2.382.789l-3.259,9.845A1.224,1.224,0,0,1,1968.97,2245.682Z" transform="translate(-1967.663 -2233.062)" fill="#00003e"/>
        </g>
      </g>
      <g id="Grupo_112979" data-name="Grupo 112979" transform="translate(84.413 0)">
        <g id="Grupo_112978" data-name="Grupo 112978">
          <path id="Trazado_117602" data-name="Trazado 117602" d="M2050.646,2245.682a1.259,1.259,0,0,1-1.208-.912l-2.869-10.107a1.256,1.256,0,1,1,2.416-.686l2.869,10.107a1.257,1.257,0,0,1-.865,1.551A1.277,1.277,0,0,1,2050.646,2245.682Z" transform="translate(-2046.521 -2233.063)" fill="#00003e"/>
        </g>
      </g>
      <g id="Grupo_112981" data-name="Grupo 112981" transform="translate(72.177 12.367)">
        <g id="Grupo_112980" data-name="Grupo 112980">
          <path id="Trazado_117603" data-name="Trazado 117603" d="M2039.591,2253.619a4.5,4.5,0,1,1,4.5-4.5A4.508,4.508,0,0,1,2039.591,2253.619Zm0-6.494a1.993,1.993,0,1,0,1.992,1.992A2,2,0,0,0,2039.591,2247.125Z" transform="translate(-2035.089 -2244.616)" fill="#00003e"/>
        </g>
      </g>
    </g>
    <g id="Grupo_112991" data-name="Grupo 112991" transform="translate(-11589.574 -5840.407)">
      <g id="Grupo_112984" data-name="Grupo 112984" transform="translate(0 31.239)">
        <g id="Grupo_112983" data-name="Grupo 112983">
          <path id="Trazado_117604" data-name="Trazado 117604" d="M2052.993,2236.57h-80.879a4.462,4.462,0,0,1-4.457-4.457v-11.445a4.543,4.543,0,0,1,.078-.806,4.454,4.454,0,0,1,4.379-3.649h80.879a4.477,4.477,0,0,1,4.375,3.646l0,0a4.636,4.636,0,0,1,.078.806v11.445A4.462,4.462,0,0,1,2052.993,2236.57Zm-80.879-17.848a1.942,1.942,0,0,0-1.91,1.593,1.884,1.884,0,0,0-.039.354v11.445a1.951,1.951,0,0,0,1.948,1.948h80.879a1.952,1.952,0,0,0,1.948-1.948v-11.445a1.843,1.843,0,0,0-.04-.355,1.975,1.975,0,0,0-1.908-1.591Zm72.222,11.369a4.5,4.5,0,1,1,4.5-4.5A4.506,4.506,0,0,1,2044.336,2230.091Zm0-6.493a1.992,1.992,0,1,0,1.992,1.992A2,2,0,0,0,2044.336,2223.6Z" transform="translate(-1967.657 -2216.213)" fill="#00003e"/>
        </g>
      </g>
      <g id="Grupo_112986" data-name="Grupo 112986" transform="translate(0.006)">
        <g id="Grupo_112985" data-name="Grupo 112985">
          <path id="Trazado_117605" data-name="Trazado 117605" d="M2056.195,2223.395a1.257,1.257,0,0,1-1.208-.911l-8.946-31.532a1.955,1.955,0,0,0-1.874-1.416h-61.734a1.943,1.943,0,0,0-1.85,1.335l-10.4,31.4a1.223,1.223,0,0,1-1.217,1.12,1.31,1.31,0,0,1-1.047-.519,1.264,1.264,0,0,1-.2-1.129l10.48-31.664a4.451,4.451,0,0,1,4.232-3.056h61.734a4.477,4.477,0,0,1,4.288,3.239l8.948,31.532a1.25,1.25,0,0,1-1.208,1.6Z" transform="translate(-1967.663 -2187.027)" fill="#00003e"/>
        </g>
      </g>
      <g id="Grupo_112988" data-name="Grupo 112988" transform="translate(72.177 36.115)">
        <g id="Grupo_112987" data-name="Grupo 112987">
          <path id="Trazado_117606" data-name="Trazado 117606" d="M2039.591,2229.771a4.5,4.5,0,1,1,4.5-4.5A4.506,4.506,0,0,1,2039.591,2229.771Zm0-6.493a1.992,1.992,0,1,0,1.992,1.992A2,2,0,0,0,2039.591,2223.278Z" transform="translate(-2035.089 -2220.768)" fill="#00003e"/>
        </g>
      </g>
      <g id="Grupo_112990" data-name="Grupo 112990" transform="translate(29.482 10.228)">
        <g id="Grupo_112989" data-name="Grupo 112989">
          <path id="Trazado_117607" data-name="Trazado 117607" d="M2013.114,2210.79c-8.9,0-17.912-2.458-17.912-7.157,0-9.4,35.822-9.4,35.822,0C2031.023,2208.333,2022.012,2210.79,2013.114,2210.79Zm0-11.808c-9.4,0-15.4,2.754-15.4,4.651s6,4.647,15.4,4.647,15.4-2.754,15.4-4.647S2022.516,2198.982,2013.114,2198.982Z" transform="translate(-1995.201 -2196.583)" fill="#00003e"/>
        </g>
      </g>
    </g>
    <g id="Grupo_112993" data-name="Grupo 112993" transform="translate(-11499.865 -6057.552)">
      <g id="Grupo_112992" data-name="Grupo 112992">
        <path id="Trazado_117608" data-name="Trazado 117608" d="M2058.284,1997.785a6.814,6.814,0,1,1,6.814-6.814A6.823,6.823,0,0,1,2058.284,1997.785Zm0-11.119a4.3,4.3,0,1,0,4.3,4.3A4.31,4.31,0,0,0,2058.284,1986.666Z" transform="translate(-2051.469 -1984.156)" fill="#00defc"/>
      </g>
    </g>
    <g id="Grupo_112995" data-name="Grupo 112995" transform="translate(-11259.961 -5849.845)">
      <g id="Grupo_112994" data-name="Grupo 112994">
        <path id="Trazado_117609" data-name="Trazado 117609" d="M2282.415,2191.838a6.814,6.814,0,1,1,6.814-6.815A6.821,6.821,0,0,1,2282.415,2191.838Zm0-11.12a4.3,4.3,0,1,0,4.3,4.3A4.309,4.309,0,0,0,2282.415,2180.718Z" transform="translate(-2275.603 -2178.209)" fill="#00defc"/>
      </g>
    </g>
    <g id="Grupo_134992" data-name="Grupo 134992" transform="translate(-11603.182 -5709.725)">
      <g id="Grupo_112994-2" data-name="Grupo 112994">
        <path id="Trazado_117609-2" data-name="Trazado 117609" d="M2282.415,2191.838a6.814,6.814,0,1,1,6.814-6.815A6.821,6.821,0,0,1,2282.415,2191.838Zm0-11.12a4.3,4.3,0,1,0,4.3,4.3A4.309,4.309,0,0,0,2282.415,2180.718Z" transform="translate(-2275.603 -2178.209)" fill="#00defc"/>
      </g>
    </g>
    <g id="Grupo_113002" data-name="Grupo 113002" transform="translate(-11253.799 -5731.075) rotate(90)">
      <g id="Grupo_112997" data-name="Grupo 112997">
        <g id="Grupo_112996" data-name="Grupo 112996">
          <path id="Trazado_117610" data-name="Trazado 117610" d="M2253.7,2255.818h0a3.727,3.727,0,0,1-2.659-1.1l-5.089-5.086a3.77,3.77,0,0,1,0-5.325l5.089-5.086a3.728,3.728,0,0,1,2.659-1.1h0a3.741,3.741,0,0,1,2.661,1.1l5.086,5.086a3.771,3.771,0,0,1,0,5.325l-5.086,5.086A3.74,3.74,0,0,1,2253.7,2255.818Zm0-15.195h0a1.242,1.242,0,0,0-.884.368l-5.09,5.087a1.256,1.256,0,0,0,0,1.776l5.09,5.087a1.242,1.242,0,0,0,.884.367h0a1.243,1.243,0,0,0,.886-.367l5.087-5.087a1.256,1.256,0,0,0,0-1.776l-5.087-5.087A1.243,1.243,0,0,0,2253.7,2240.623Z" transform="translate(-2244.85 -2238.114)" fill="#00defc"/>
        </g>
      </g>
      <g id="Grupo_112999" data-name="Grupo 112999" transform="translate(21.365 0.001)">
        <g id="Grupo_112998" data-name="Grupo 112998">
          <path id="Trazado_117611" data-name="Trazado 117611" d="M2273.659,2255.816a3.749,3.749,0,0,1-2.661-1.1l-5.086-5.086a3.77,3.77,0,0,1,0-5.325l5.086-5.086a3.765,3.765,0,0,1,5.325,0l5.086,5.086a3.769,3.769,0,0,1,0,5.325l-5.086,5.086A3.751,3.751,0,0,1,2273.659,2255.816Zm0-15.193a1.253,1.253,0,0,0-.889.368l-5.087,5.087a1.256,1.256,0,0,0,0,1.776l5.087,5.087a1.257,1.257,0,0,0,1.776,0l5.087-5.087a1.256,1.256,0,0,0,0-1.776l-5.087-5.087A1.247,1.247,0,0,0,2273.662,2240.623Z" transform="translate(-2264.811 -2238.115)" fill="#00defc"/>
        </g>
      </g>
      <g id="Grupo_113001" data-name="Grupo 113001" transform="translate(42.729 0.028)">
        <g id="Grupo_113000" data-name="Grupo 113000">
          <path id="Trazado_117612" data-name="Trazado 117612" d="M2293.62,2255.841a3.754,3.754,0,0,1-2.662-1.1l-5.088-5.088a3.771,3.771,0,0,1,0-5.323l5.088-5.089a3.77,3.77,0,0,1,5.323,0l5.089,5.089a3.767,3.767,0,0,1,0,5.323l-5.089,5.088A3.753,3.753,0,0,1,2293.62,2255.841Zm0-15.2a1.251,1.251,0,0,0-.887.368l-5.09,5.09a1.257,1.257,0,0,0,0,1.773l5.09,5.09a1.253,1.253,0,0,0,1.773,0l5.09-5.09a1.253,1.253,0,0,0,0-1.773l-5.09-5.09A1.251,1.251,0,0,0,2293.62,2240.646Z" transform="translate(-2284.77 -2238.141)" fill="#00defc"/>
        </g>
      </g>
    </g>
    <g id="Grupo_113009" data-name="Grupo 113009" transform="translate(-11558.938 -5681.989)">
      <g id="Grupo_113004" data-name="Grupo 113004" transform="translate(17.371 14.785)">
        <g id="Grupo_113003" data-name="Grupo 113003">
          <path id="Trazado_117613" data-name="Trazado 117613" d="M2021.542,2294.185a1.249,1.249,0,0,1-.717-.225l-7.781-5.43a1.255,1.255,0,0,1,1.437-2.058l7.779,5.43a1.254,1.254,0,0,1-.718,2.283Z" transform="translate(-2012.507 -2286.248)" fill="#00003e"/>
        </g>
      </g>
      <g id="Grupo_113006" data-name="Grupo 113006" transform="translate(12.576)">
        <g id="Grupo_113005" data-name="Grupo 113005">
          <path id="Trazado_117614" data-name="Trazado 117614" d="M2009.282,2283.3a1.254,1.254,0,0,1-1.255-1.255v-8.361a1.255,1.255,0,0,1,2.509,0v8.361A1.254,1.254,0,0,1,2009.282,2283.3Z" transform="translate(-2008.028 -2272.435)" fill="#00003e"/>
        </g>
      </g>
      <g id="Grupo_113008" data-name="Grupo 113008" transform="translate(0 14.785)">
        <g id="Grupo_113007" data-name="Grupo 113007">
          <path id="Trazado_117615" data-name="Trazado 117615" d="M1997.534,2294.185a1.254,1.254,0,0,1-.717-2.283l7.78-5.43a1.255,1.255,0,0,1,1.436,2.058l-7.781,5.43A1.248,1.248,0,0,1,1997.534,2294.185Z" transform="translate(-1996.279 -2286.248)" fill="#00003e"/>
        </g>
      </g>
    </g>
    <g id="Grupo_113011" data-name="Grupo 113011" transform="translate(-11623 -5957.737)">
      <g id="Grupo_113010" data-name="Grupo 113010">
        <path id="Trazado_117616" data-name="Trazado 117616" d="M1943.243,2091.036a6.813,6.813,0,1,1,6.815-6.812A6.821,6.821,0,0,1,1943.243,2091.036Zm0-11.117a4.3,4.3,0,1,0,4.3,4.3A4.31,4.31,0,0,0,1943.243,2079.919Z" transform="translate(-1936.429 -2077.41)" fill="#00defc"/>
      </g>
    </g>
    <g id="Grupo_113013" data-name="Grupo 113013" transform="translate(-11441.995 -5795.741)">
      <g id="Grupo_113012" data-name="Grupo 113012">
        <path id="Trazado_117617" data-name="Trazado 117617" d="M2169.518,2231.265h-12.546a1.255,1.255,0,1,1,0-2.509h12.546a1.255,1.255,0,0,1,0,2.509Zm-25.091,0h-12.546a1.255,1.255,0,0,1,0-2.509h12.546a1.255,1.255,0,0,1,0,2.509Zm-25.092,0H2106.79a1.255,1.255,0,1,1,0-2.509h12.546a1.255,1.255,0,1,1,0,2.509Z" transform="translate(-2105.535 -2228.756)" fill="#00003e"/>
      </g>
    </g>
    <g id="Grupo_113015" data-name="Grupo 113015" transform="translate(-11240.48 -6004.221)">
      <g id="Grupo_113014" data-name="Grupo 113014">
        <path id="Trazado_117618" data-name="Trazado 117618" d="M2300.617,2047.609a6.813,6.813,0,1,1,6.814-6.812A6.822,6.822,0,0,1,2300.617,2047.609Zm0-11.118a4.3,4.3,0,1,0,4.3,4.306A4.311,4.311,0,0,0,2300.617,2036.491Z" transform="translate(-2293.802 -2033.982)" fill="#00defc"/>
      </g>
    </g>
    <g id="Grupo_134988" data-name="Grupo 134988" transform="translate(-11577.347 -6151.221)">
      <g id="Grupo_113014-2" data-name="Grupo 113014">
        <path id="Trazado_117618-2" data-name="Trazado 117618" d="M2300.617,2047.609a6.813,6.813,0,1,1,6.814-6.812A6.822,6.822,0,0,1,2300.617,2047.609Zm0-11.118a4.3,4.3,0,1,0,4.3,4.306A4.311,4.311,0,0,0,2300.617,2036.491Z" transform="translate(-2293.802 -2033.982)" fill="#00defc"/>
      </g>
    </g>
    <g id="Grupo_113017" data-name="Grupo 113017" transform="translate(-11380.148 -5805.179)">
      <g id="Grupo_113016" data-name="Grupo 113016">
        <path id="Trazado_117619" data-name="Trazado 117619" d="M2164.571,2241.322a1.254,1.254,0,0,1-.735-2.271l11.194-8.1-11.23-8.765a1.255,1.255,0,0,1,1.543-1.98l12.546,9.792a1.256,1.256,0,0,1-.036,2.007l-12.546,9.081A1.262,1.262,0,0,1,2164.571,2241.322Z" transform="translate(-2163.315 -2219.939)" fill="#00003e"/>
      </g>
    </g>
    <g id="Grupo_113019" data-name="Grupo 113019" transform="translate(-11513.927 -5933.78)">
      <g id="Grupo_113018" data-name="Grupo 113018">
        <path id="Trazado_117620" data-name="Trazado 117620" d="M2042.407,2099.792a4.074,4.074,0,1,1-4.075,4.075A4.075,4.075,0,0,1,2042.407,2099.792Z" transform="translate(-2038.332 -2099.792)" fill="#00003e"/>
      </g>
    </g>
    <g id="Grupo_113021" data-name="Grupo 113021" transform="translate(-11290.859 -6037.095)">
      <g id="Grupo_113020" data-name="Grupo 113020">
        <circle id="Elipse_4765" data-name="Elipse 4765" cx="4.074" cy="4.074" r="4.074" transform="translate(0 7.535) rotate(-67.62)" fill="#00003e"/>
      </g>
    </g>
    <g id="Grupo_113023" data-name="Grupo 113023" transform="translate(-11448.889 -5777.539)">
      <g id="Grupo_113022" data-name="Grupo 113022">
        <circle id="Elipse_4766" data-name="Elipse 4766" cx="4.074" cy="4.074" r="4.074" fill="#00003e"/>
      </g>
    </g>
    <g id="Grupo_134991" data-name="Grupo 134991" transform="translate(-11448.889 -5667.416)">
      <g id="Grupo_113022-2" data-name="Grupo 113022">
        <circle id="Elipse_4766-2" data-name="Elipse 4766" cx="4.074" cy="4.074" r="4.074" fill="#00003e"/>
      </g>
    </g>
    <g id="Grupo_113025" data-name="Grupo 113025" transform="translate(-11237.741 -5949.438)">
      <g id="Grupo_113024" data-name="Grupo 113024">
        <circle id="Elipse_4767" data-name="Elipse 4767" cx="4.074" cy="4.074" r="4.074" fill="#00003e"/>
      </g>
    </g>
    <g id="Grupo_113027" data-name="Grupo 113027" transform="translate(-11594.797 -5933.78)">
      <g id="Grupo_113026" data-name="Grupo 113026">
        <path id="Trazado_117621" data-name="Trazado 117621" d="M1966.853,2099.792a4.074,4.074,0,1,1-4.075,4.075A4.075,4.075,0,0,1,1966.853,2099.792Z" transform="translate(-1962.778 -2099.792)" fill="#00003e"/>
      </g>
    </g>
    <g id="Grupo_113029" data-name="Grupo 113029" transform="translate(-11473.674 -6047.754)">
      <g id="Grupo_113028" data-name="Grupo 113028">
        <circle id="Elipse_4768" data-name="Elipse 4768" cx="4.074" cy="4.074" r="4.074" fill="#00003e"/>
      </g>
    </g>
    <g id="Grupo_134989" data-name="Grupo 134989" transform="translate(-11267.466 -6102.93)">
      <g id="Grupo_113028-2" data-name="Grupo 113028">
        <circle id="Elipse_4768-2" data-name="Elipse 4768" cx="4.074" cy="4.074" r="4.074" fill="#00003e"/>
      </g>
    </g>
    <g id="Grupo_113031" data-name="Grupo 113031" transform="translate(-11328.067 -5757.764)">
      <g id="Grupo_113030" data-name="Grupo 113030">
        <circle id="Elipse_4769" data-name="Elipse 4769" cx="4.074" cy="4.074" r="4.074" fill="#00003e"/>
      </g>
    </g>
    <g id="Grupo_113038" data-name="Grupo 113038" transform="translate(-11419.95 -5770.61)">
      <g id="Grupo_113033" data-name="Grupo 113033" transform="translate(17.371 14.782)">
        <g id="Grupo_113032" data-name="Grupo 113032">
          <path id="Trazado_117622" data-name="Trazado 117622" d="M2151.4,2273.985a1.251,1.251,0,0,1-.719-.226l-7.78-5.43a1.255,1.255,0,0,1,1.436-2.058l7.78,5.43a1.255,1.255,0,0,1-.717,2.284Z" transform="translate(-2142.36 -2266.046)" fill="#00003e"/>
        </g>
      </g>
      <g id="Grupo_113035" data-name="Grupo 113035" transform="translate(12.576)">
        <g id="Grupo_113034" data-name="Grupo 113034">
          <path id="Trazado_117623" data-name="Trazado 117623" d="M2139.135,2263.1a1.254,1.254,0,0,1-1.255-1.254v-8.361a1.255,1.255,0,0,1,2.509,0v8.361A1.254,1.254,0,0,1,2139.135,2263.1Z" transform="translate(-2137.88 -2252.235)" fill="#00003e"/>
        </g>
      </g>
      <g id="Grupo_113037" data-name="Grupo 113037" transform="translate(0 14.782)">
        <g id="Grupo_113036" data-name="Grupo 113036">
          <path id="Trazado_117624" data-name="Trazado 117624" d="M2127.386,2273.985a1.255,1.255,0,0,1-.718-2.284l7.779-5.43a1.255,1.255,0,0,1,1.437,2.058l-7.78,5.43A1.247,1.247,0,0,1,2127.386,2273.985Z" transform="translate(-2126.131 -2266.046)" fill="#00003e"/>
        </g>
      </g>
    </g>
    <g id="Grupo_113040" data-name="Grupo 113040" transform="translate(-11539.296 -6071.879)">
      <g id="Grupo_113039" data-name="Grupo 113039">
        <path id="Trazado_117625" data-name="Trazado 117625" d="M2119.941,2010.873a1.254,1.254,0,0,1-1.255-1.255v-12.546a1.255,1.255,0,0,1,2.51,0v12.546A1.254,1.254,0,0,1,2119.941,2010.873Zm-104.057-16.147a1.254,1.254,0,0,1-1.254-1.255v-12.546a1.255,1.255,0,0,1,2.509,0v12.546A1.254,1.254,0,0,1,2015.884,1994.726Zm104.057-8.944a1.254,1.254,0,0,1-1.255-1.254v-12.272a1.165,1.165,0,0,1-.021-.23,1.235,1.235,0,0,1,1.232-1.254h.044a1.254,1.254,0,0,1,1.255,1.254v12.5A1.254,1.254,0,0,1,2119.941,1985.782Zm-12.59-12.5h-12.546a1.255,1.255,0,0,1,0-2.509h12.546a1.255,1.255,0,0,1,0,2.509Zm-25.092,0h-12.546a1.255,1.255,0,1,1,0-2.509h12.546a1.255,1.255,0,0,1,0,2.509Zm-25.092,0h-12.546a1.255,1.255,0,0,1,0-2.509h12.546a1.255,1.255,0,0,1,0,2.509Zm-25.091,0h-12.546a1.255,1.255,0,0,1,0-2.509h12.546a1.255,1.255,0,0,1,0,2.509Z" transform="translate(-2014.63 -1970.771)" fill="#00003e"/>
      </g>
    </g>
    <g id="Grupo_113042" data-name="Grupo 113042" transform="translate(-11307.689 -5995.35)">
      <g id="Grupo_113041" data-name="Grupo 113041">
        <path id="Trazado_117626" data-name="Trazado 117626" d="M2269.9,2131.344h-12.546a1.255,1.255,0,0,1,0-2.509H2269.9a1.255,1.255,0,1,1,0,2.509Zm-25.091,0h-12.546a1.255,1.255,0,1,1,0-2.509h12.546a1.255,1.255,0,0,1,0,2.509Zm29.242-8.4a1.253,1.253,0,0,1-1.255-1.254v-12.546a1.255,1.255,0,0,1,2.51,0V2121.7A1.254,1.254,0,0,1,2274.055,2122.949Zm0-25.091a1.254,1.254,0,0,1-1.255-1.255v-12.546a1.255,1.255,0,0,1,2.51,0V2096.6A1.254,1.254,0,0,1,2274.055,2097.858Zm0-25.092a1.253,1.253,0,0,1-1.255-1.254v-12.546a1.255,1.255,0,1,1,2.51,0v12.546A1.254,1.254,0,0,1,2274.055,2072.767Zm0-25.091a1.254,1.254,0,0,1-1.255-1.255v-2.9a1.255,1.255,0,0,1,2.51,0v2.9A1.255,1.255,0,0,1,2274.055,2047.675Z" transform="translate(-2231.012 -2042.27)" fill="#00003e"/>
      </g>
    </g>
    <g id="Grupo_113044" data-name="Grupo 113044" transform="translate(-11545.934 -5870.311)">
      <g id="Grupo_113043" data-name="Grupo 113043">
        <path id="Trazado_117627" data-name="Trazado 117627" d="M2009.683,2182.715a1.254,1.254,0,0,1-1.255-1.255v-4.509a1.255,1.255,0,1,1,2.509,0v4.509A1.254,1.254,0,0,1,2009.683,2182.715Zm0-17.055a1.254,1.254,0,0,1-1.255-1.255v-4.062a1.254,1.254,0,0,1,1.255-1.254h8.483a1.254,1.254,0,1,1,0,2.509h-7.228v2.807A1.253,1.253,0,0,1,2009.683,2165.66Zm58.665-4.062H2055.8a1.254,1.254,0,0,1,0-2.509h12.546a1.254,1.254,0,1,1,0,2.509Zm-25.091,0h-12.546a1.254,1.254,0,1,1,0-2.509h12.546a1.254,1.254,0,1,1,0,2.509Z" transform="translate(-2008.429 -2159.089)" fill="#00003e"/>
      </g>
    </g>
    <g id="Grupo_133029" data-name="Grupo 133029" transform="translate(-11489.205 -5972.964)">
      <path id="Trazado_196668" data-name="Trazado 196668" d="M250.241,289.455a2.886,2.886,0,0,1,0-5.771,6,6,0,0,0,6-5.992V177.923a6,6,0,0,0-6-5.992H100.367a6,6,0,0,0-5.992,5.992v99.768a6,6,0,0,0,5.992,5.992,2.886,2.886,0,1,1,0,5.771,11.779,11.779,0,0,1-11.761-11.764V177.923a11.774,11.774,0,0,1,11.761-11.761H250.241a11.775,11.775,0,0,1,11.764,11.761v99.768A11.78,11.78,0,0,1,250.241,289.455Z" transform="translate(-88.606 -166.162)" fill="#12263f"/>
      <path id="Trazado_196669" data-name="Trazado 196669" d="M235.218,178.966H91.488a2.884,2.884,0,0,1,0-5.768h143.73a2.884,2.884,0,1,1,0,5.768Z" transform="translate(-88.606 -150.333)" fill="#12263f"/>
      <path id="Trazado_196670" data-name="Trazado 196670" d="M96.326,169.683a2.874,2.874,0,1,0,2.876,2.876A2.874,2.874,0,0,0,96.326,169.683Z" transform="translate(-77.702 -158.241)" fill="#12263f"/>
      <path id="Trazado_196671" data-name="Trazado 196671" d="M99.955,169.683a2.874,2.874,0,1,0,2.876,2.876A2.875,2.875,0,0,0,99.955,169.683Z" transform="translate(-69.545 -158.241)" fill="#12263f"/>
      <path id="Trazado_196672" data-name="Trazado 196672" d="M103.582,169.683a2.874,2.874,0,1,0,2.873,2.876A2.875,2.875,0,0,0,103.582,169.683Z" transform="translate(-61.385 -158.241)" fill="#12263f"/>
      <path id="Trazado_196673" data-name="Trazado 196673" d="M163.023,175.448H111.967a2.884,2.884,0,0,1,0-5.768h51.056a2.884,2.884,0,1,1,0,5.768Z" transform="translate(-42.535 -158.248)" fill="#12263f"/>
      <path id="Trazado_196674" data-name="Trazado 196674" d="M124.356,203.515a13.1,13.1,0,1,1,13.106-13.1A13.119,13.119,0,0,1,124.356,203.515Zm0-20.437a7.334,7.334,0,1,0,7.334,7.335A7.343,7.343,0,0,0,124.356,183.077Z" transform="translate(-37.658 -141.092)" fill="#12263f"/>
      <path id="Trazado_196675" data-name="Trazado 196675" d="M136.149,208.011a13.1,13.1,0,1,1,13.1-13.1A13.119,13.119,0,0,1,136.149,208.011Zm0-20.441a7.336,7.336,0,1,0,7.335,7.338A7.344,7.344,0,0,0,136.149,187.57Z" transform="translate(-11.127 -130.977)" fill="#12263f"/>
      <path id="Trazado_196676" data-name="Trazado 196676" d="M141.7,217.822a13.1,13.1,0,1,1,13.1-13.1A13.119,13.119,0,0,1,141.7,217.822Zm0-20.437a7.335,7.335,0,1,0,7.335,7.335A7.343,7.343,0,0,0,141.7,197.385Z" transform="translate(1.367 -108.897)" fill="#12263f"/>
      <path id="Trazado_196677" data-name="Trazado 196677" d="M117.28,222.156a2.883,2.883,0,0,1-2.882-2.886V203.077a2.884,2.884,0,0,1,5.768,0v16.193A2.883,2.883,0,0,1,117.28,222.156Z" transform="translate(-30.582 -89.599)" fill="#12263f"/>
      <path id="Trazado_196678" data-name="Trazado 196678" d="M117.28,198.475a2.883,2.883,0,0,1-2.882-2.886v-4.615a2.884,2.884,0,0,1,5.768,0v4.615A2.883,2.883,0,0,1,117.28,198.475Z" transform="translate(-30.582 -116.827)" fill="#12263f"/>
      <path id="Trazado_196679" data-name="Trazado 196679" d="M117.28,205a2.882,2.882,0,0,1-2.882-2.882V196.1a2.884,2.884,0,1,1,5.768,0v6.018A2.883,2.883,0,0,1,117.28,205Z" transform="translate(-30.582 -105.297)" fill="#12263f"/>
      <path id="Trazado_196680" data-name="Trazado 196680" d="M117.28,209.16a2.883,2.883,0,0,1-2.882-2.886V201.66a2.884,2.884,0,1,1,5.768,0v4.615A2.883,2.883,0,0,1,117.28,209.16Z" transform="translate(-30.582 -92.796)" fill="#12263f"/>
      <path id="Trazado_196681" data-name="Trazado 196681" d="M117.28,203.975a2.883,2.883,0,0,1-2.882-2.886V186.482a2.884,2.884,0,1,1,5.768,0v14.607A2.883,2.883,0,0,1,117.28,203.975Z" transform="translate(-30.582 -126.941)" fill="#12263f"/>
      <path id="Trazado_196682" data-name="Trazado 196682" d="M123.164,205.594a2.882,2.882,0,0,1-2.882-2.882v-4.618a2.884,2.884,0,0,1,5.768,0v4.618A2.885,2.885,0,0,1,123.164,205.594Z" transform="translate(-17.345 -100.811)" fill="#12263f"/>
      <path id="Trazado_196683" data-name="Trazado 196683" d="M123.164,209.881A2.883,2.883,0,0,1,120.282,207v-4.631a2.884,2.884,0,0,1,5.768,0V207A2.885,2.885,0,0,1,123.164,209.881Z" transform="translate(-17.345 -91.203)" fill="#12263f"/>
      <path id="Trazado_196684" data-name="Trazado 196684" d="M123.164,214.141a2.883,2.883,0,0,1-2.882-2.886V206.64a2.884,2.884,0,0,1,5.768,0v4.615A2.885,2.885,0,0,1,123.164,214.141Z" transform="translate(-17.345 -81.583)" fill="#12263f"/>
      <path id="Trazado_196685" data-name="Trazado 196685" d="M123.164,218.967a2.883,2.883,0,0,1-2.882-2.886V201.991a2.892,2.892,0,0,1,.864-2.06l12.134-11.891a2.885,2.885,0,1,1,4.039,4.121L126.05,203.2v12.879A2.885,2.885,0,0,1,123.164,218.967Z" transform="translate(-17.345 -118.799)" fill="#12263f"/>
      <path id="Trazado_196686" data-name="Trazado 196686" d="M128.109,207.369a2.882,2.882,0,0,1-2.882-2.882v-4.615a2.884,2.884,0,1,1,5.768,0v4.615A2.883,2.883,0,0,1,128.109,207.369Z" transform="translate(-6.221 -96.818)" fill="#12263f"/>
      <path id="Trazado_196687" data-name="Trazado 196687" d="M128.109,214.141a2.883,2.883,0,0,1-2.882-2.886V206.64a2.884,2.884,0,0,1,5.768,0v4.615A2.883,2.883,0,0,1,128.109,214.141Z" transform="translate(-6.221 -81.583)" fill="#12263f"/>
      <path id="Trazado_196688" data-name="Trazado 196688" d="M128.109,207.76a2.882,2.882,0,0,1-2.882-2.882v-7.23a2.885,2.885,0,0,1,2.882-2.886h10.964a2.886,2.886,0,0,1,0,5.771H131v4.345A2.883,2.883,0,0,1,128.109,207.76Z" transform="translate(-6.221 -101.824)" fill="#12263f"/>
      <path id="Trazado_196689" data-name="Trazado 196689" d="M134.63,218.82a2.885,2.885,0,0,1-2.886-2.886V204.564a2.886,2.886,0,1,1,5.771,0v11.371A2.885,2.885,0,0,1,134.63,218.82Z" transform="translate(8.44 -86.263)" fill="#12263f"/>
      <path id="Trazado_196690" data-name="Trazado 196690" d="M112.564,208.011a13.1,13.1,0,1,1,13.1-13.1A13.117,13.117,0,0,1,112.564,208.011Zm0-20.441a7.336,7.336,0,1,0,7.335,7.338A7.344,7.344,0,0,0,112.564,187.57Z" transform="translate(-64.186 -130.977)" fill="#12263f"/>
      <path id="Trazado_196691" data-name="Trazado 196691" d="M107.012,217.822a13.1,13.1,0,1,1,13.1-13.1A13.119,13.119,0,0,1,107.012,217.822Zm0-20.437a7.335,7.335,0,1,0,7.334,7.335A7.341,7.341,0,0,0,107.012,197.385Z" transform="translate(-76.683 -108.897)" fill="#12263f"/>
      <path id="Trazado_196692" data-name="Trazado 196692" d="M111.4,205.594a2.885,2.885,0,0,1-2.886-2.882v-4.618a2.884,2.884,0,0,1,5.768,0v4.618A2.882,2.882,0,0,1,111.4,205.594Z" transform="translate(-43.82 -100.811)" fill="#12263f"/>
      <path id="Trazado_196693" data-name="Trazado 196693" d="M111.4,209.881A2.885,2.885,0,0,1,108.514,207v-4.631a2.884,2.884,0,0,1,5.768,0V207A2.883,2.883,0,0,1,111.4,209.881Z" transform="translate(-43.82 -91.203)" fill="#12263f"/>
      <path id="Trazado_196694" data-name="Trazado 196694" d="M111.4,214.141a2.885,2.885,0,0,1-2.886-2.886V206.64a2.884,2.884,0,0,1,5.768,0v4.615A2.883,2.883,0,0,1,111.4,214.141Z" transform="translate(-43.82 -81.583)" fill="#12263f"/>
      <path id="Trazado_196695" data-name="Trazado 196695" d="M119.8,218.968a2.885,2.885,0,0,1-2.886-2.886V203.2l-11.27-11.042a2.885,2.885,0,1,1,4.039-4.121l12.134,11.891a2.878,2.878,0,0,1,.864,2.06v14.091A2.883,2.883,0,0,1,119.8,218.968Z" transform="translate(-52.221 -118.8)" fill="#12263f"/>
      <path id="Trazado_196696" data-name="Trazado 196696" d="M106.455,207.369a2.883,2.883,0,0,1-2.886-2.882v-4.615a2.884,2.884,0,1,1,5.768,0v4.615A2.882,2.882,0,0,1,106.455,207.369Z" transform="translate(-54.944 -96.818)" fill="#12263f"/>
      <path id="Trazado_196697" data-name="Trazado 196697" d="M106.455,214.141a2.883,2.883,0,0,1-2.886-2.886V206.64a2.884,2.884,0,0,1,5.768,0v4.615A2.883,2.883,0,0,1,106.455,214.141Z" transform="translate(-54.944 -81.583)" fill="#12263f"/>
      <path id="Trazado_196698" data-name="Trazado 196698" d="M114.043,207.76a2.883,2.883,0,0,1-2.886-2.882v-4.345h-8.075a2.886,2.886,0,1,1,0-5.771h10.961a2.885,2.885,0,0,1,2.882,2.886v7.23A2.882,2.882,0,0,1,114.043,207.76Z" transform="translate(-62.532 -101.824)" fill="#12263f"/>
      <path id="Trazado_196699" data-name="Trazado 196699" d="M99.937,218.82a2.885,2.885,0,0,1-2.886-2.886V204.564a2.884,2.884,0,1,1,5.768,0v11.371A2.883,2.883,0,0,1,99.937,218.82Z" transform="translate(-69.608 -86.263)" fill="#12263f"/>
    </g>
  </g>
</svg>
