<?xml version="1.0" encoding="utf-8"?>
<!-- Generator: Adobe Illustrator 24.3.0, SVG Export Plug-In . SVG Version: 6.00 Build 0)  -->
<svg version="1.1" id="Layer_1" xmlns="http://www.w3.org/2000/svg" xmlns:xlink="http://www.w3.org/1999/xlink" x="0px" y="0px"
	 viewBox="0 0 1030 105.6" style="enable-background:new 0 0 1030 105.6;" xml:space="preserve">
<style type="text/css">
	.st0{fill:#F6F6F6;}
	.st1{fill:none;}
	.st2{fill:#AFAFAF;}
	.st3{fill:none;stroke:#AFAFAF;}
	.st4{fill:#12263F;}
	.st5{fill:#FFB30B;}
</style>
<g id="Grupo_135025" transform="translate(-285 -2363)">
	<path id="Trazado_198225" class="st0" d="M285.6,2368.6h1028.9v52H285.6V2368.6z"/>
	<g id="Trazado_198226" transform="translate(285 2369.213)">
		<path class="st1" d="M0,0h1030v99.4H0V0z"/>
		<path class="st2" d="M1,1v97.4h1028V1H1 M0,0h1030v99.4H0V0z"/>
	</g>
	<path id="Trazado_198227" class="st3" d="M285,2421.2h1030"/>
	<path id="Trazado_198228" class="st3" d="M1108.7,2369.2v99.4"/>
	<path id="Trazado_198229" class="st3" d="M1016.8,2369.2v99.4"/>
	<path id="Trazado_198230" class="st3" d="M823.3,2369.2v99.4"/>
	<path id="Trazado_198231" class="st3" d="M697.6,2369.2v99.4"/>
	<path id="Trazado_198232" class="st3" d="M627,2369.2v99.4"/>
	<path id="Trazado_198233" class="st3" d="M539.1,2369.2v99.4"/>
	<path id="Trazado_198234" class="st3" d="M331.7,2369.2v99.4"/>
	<path id="Trazado_198235" class="st4" d="M305.5,2398.9H303v-12.1h2.5V2398.9z M307.3,2394.3c-0.1-1.2,0.3-2.4,0.9-3.3
		c0.6-0.8,1.6-1.3,2.6-1.2c0.8,0,1.6,0.3,2.2,1v-4.6h2.4v12.8h-2.2l-0.1-1c-0.5,0.7-1.4,1.1-2.3,1.1c-1,0-2-0.4-2.5-1.2
		C307.6,2396.8,307.2,2395.6,307.3,2394.3z M309.7,2394.5c0,0.7,0.1,1.3,0.4,1.9c0.3,0.4,0.8,0.7,1.3,0.7c0.7,0,1.3-0.3,1.6-0.9
		v-3.6c-0.3-0.6-0.9-1-1.6-0.9C310.3,2391.7,309.7,2392.6,309.7,2394.5L309.7,2394.5z"/>
	<path id="Trazado_198236" class="st4" d="M393.8,2394.5h-2v4.4h-2.5v-12.1h4.5c1.2-0.1,2.3,0.3,3.3,1c0.8,0.7,1.2,1.7,1.2,2.7
		c0,0.7-0.2,1.4-0.5,2.1c-0.4,0.6-1,1-1.6,1.3l2.6,4.9v0.1h-2.7L393.8,2394.5z M391.8,2392.5h2c0.5,0,1-0.1,1.5-0.5
		c0.4-0.3,0.5-0.8,0.5-1.3c0-0.5-0.1-1-0.5-1.3c-0.4-0.4-0.9-0.5-1.5-0.5h-2L391.8,2392.5z M404.2,2399.1c-1.2,0-2.4-0.4-3.2-1.2
		c-0.8-0.9-1.3-2-1.2-3.2v-0.2c0-0.8,0.2-1.7,0.5-2.4c0.3-0.7,0.8-1.3,1.5-1.6c0.7-0.4,1.4-0.6,2.2-0.6c1.1-0.1,2.2,0.4,2.9,1.2
		c0.8,0.9,1.1,2.1,1.1,3.3v1h-5.7c0.1,0.5,0.3,1,0.7,1.4c0.4,0.4,0.9,0.6,1.5,0.5c0.8,0,1.7-0.3,2.2-1l1.2,1.3
		c-0.4,0.5-0.9,0.9-1.5,1.2C405.6,2398.9,404.9,2399.1,404.2,2399.1z M403.9,2391.7c-0.4,0-0.9,0.2-1.2,0.5
		c-0.3,0.4-0.5,0.9-0.6,1.4h3.3v-0.2c0-0.5-0.1-0.9-0.4-1.2C404.7,2391.8,404.3,2391.7,403.9,2391.7z M408.8,2394.3
		c-0.1-1.2,0.3-2.4,0.9-3.3c0.6-0.8,1.6-1.3,2.6-1.2c0.9,0,1.8,0.4,2.3,1.1l0.2-0.9h2.1v12.4h-2.4v-4.2c-0.5,0.6-1.3,1-2.2,0.9
		c-1,0-2-0.4-2.6-1.2C409.1,2396.8,408.8,2395.6,408.8,2394.3L408.8,2394.3z M411.2,2394.5c0,0.7,0.1,1.4,0.5,2
		c0.3,0.4,0.8,0.7,1.3,0.7c0.7,0,1.3-0.3,1.6-0.9v-3.7c-0.3-0.6-0.9-0.9-1.5-0.8c-0.5,0-1,0.2-1.3,0.7
		C411.3,2393,411.2,2393.8,411.2,2394.5L411.2,2394.5z M424.2,2398c-0.6,0.7-1.5,1.1-2.5,1.1c-0.8,0.1-1.6-0.2-2.2-0.8
		c-0.6-0.7-0.8-1.6-0.8-2.4v-5.9h2.4v5.8c0,0.9,0.4,1.4,1.3,1.4c0.7,0.1,1.3-0.3,1.7-0.8v-6.4h2.4v9h-2.3L424.2,2398z M430.9,2398.9
		h-2.4v-9h2.4V2398.9z M428.3,2387.6c0-0.3,0.1-0.7,0.4-0.9c0.3-0.2,0.6-0.4,1-0.3c0.4,0,0.7,0.1,1,0.3c0.2,0.2,0.4,0.6,0.4,0.9
		c0,0.3-0.1,0.7-0.4,0.9c-0.3,0.2-0.6,0.4-1,0.3c-0.4,0-0.7-0.1-1-0.3C428.4,2388.3,428.3,2387.9,428.3,2387.6z M437.7,2396.4
		c0-0.3-0.2-0.6-0.4-0.7c-0.4-0.2-0.9-0.4-1.4-0.5c-2.1-0.4-3.2-1.4-3.2-2.7c0-0.8,0.4-1.5,1-2c0.7-0.6,1.7-0.8,2.6-0.8
		c1-0.1,1.9,0.2,2.7,0.8c0.7,0.5,1,1.3,1,2.1h-2.4c0-0.3-0.1-0.6-0.3-0.9c-0.3-0.2-0.7-0.4-1-0.3c-0.3,0-0.7,0.1-0.9,0.3
		c-0.2,0.2-0.3,0.4-0.3,0.7c0,0.3,0.1,0.5,0.4,0.6c0.4,0.2,0.8,0.4,1.3,0.4c0.5,0.1,1,0.2,1.5,0.4c1.1,0.3,1.9,1.3,1.9,2.4
		c0,0.8-0.4,1.5-1.1,2c-0.8,0.5-1.8,0.8-2.7,0.8c-0.7,0-1.4-0.1-2-0.4c-0.5-0.2-1-0.6-1.4-1.1c-0.3-0.4-0.5-1-0.5-1.5h2.3
		c0,0.4,0.2,0.7,0.5,1c0.3,0.2,0.8,0.4,1.2,0.3c0.4,0,0.7-0.1,1-0.3C437.6,2396.9,437.7,2396.7,437.7,2396.4z M444.1,2398.9h-2.4v-9
		h2.4V2398.9z M441.6,2387.6c0-0.3,0.1-0.7,0.4-0.9c0.3-0.2,0.6-0.4,1-0.3c0.4,0,0.7,0.1,1,0.3c0.2,0.2,0.4,0.6,0.4,0.9
		c0,0.3-0.1,0.7-0.4,0.9c-0.3,0.2-0.6,0.4-1,0.3c-0.4,0-0.7-0.1-1-0.3C441.7,2388.3,441.5,2387.9,441.6,2387.6z M449,2387.7v2.2h1.5
		v1.8H449v4.5c0,0.3,0,0.5,0.2,0.7c0.2,0.2,0.5,0.2,0.7,0.2c0.2,0,0.5,0,0.7-0.1v1.8c-0.5,0.1-1,0.2-1.5,0.2c-1.3,0.2-2.4-0.7-2.6-2
		c0-0.2,0-0.4,0-0.6v-4.8h-1.3v-1.8h1.3v-2.2H449z M451.2,2394.3c0-0.8,0.2-1.6,0.5-2.4c0.3-0.7,0.8-1.2,1.5-1.6
		c0.7-0.4,1.5-0.6,2.2-0.6c1.1,0,2.2,0.4,3,1.1c0.8,0.8,1.3,1.9,1.3,3l0,0.6c0.1,1.2-0.4,2.4-1.2,3.3c-0.8,0.8-1.9,1.3-3.1,1.2
		c-1.2,0.1-2.3-0.4-3.1-1.2c-0.8-0.9-1.2-2.2-1.2-3.4L451.2,2394.3z M453.6,2394.5c0,0.7,0.1,1.4,0.5,2c0.3,0.4,0.8,0.7,1.4,0.7
		c0.5,0,1-0.2,1.4-0.7c0.4-0.6,0.5-1.4,0.5-2.1c0-0.7-0.1-1.4-0.5-1.9c-0.3-0.5-0.8-0.7-1.4-0.7c-0.5,0-1.1,0.2-1.4,0.7
		C453.7,2393,453.6,2393.8,453.6,2394.5L453.6,2394.5z M466.1,2396.4c0-0.3-0.2-0.6-0.4-0.7c-0.4-0.2-0.9-0.4-1.4-0.5
		c-2.1-0.4-3.2-1.4-3.2-2.7c0-0.8,0.4-1.5,1-2c0.7-0.6,1.7-0.8,2.6-0.8c1-0.1,1.9,0.2,2.7,0.8c0.7,0.5,1,1.3,1,2.1H466
		c0-0.3-0.1-0.6-0.3-0.9c-0.3-0.2-0.7-0.4-1-0.3c-0.3,0-0.7,0.1-0.9,0.3c-0.2,0.2-0.3,0.4-0.3,0.7c0,0.3,0.1,0.5,0.4,0.6
		c0.4,0.2,0.8,0.4,1.3,0.4c0.5,0.1,1,0.2,1.5,0.4c1.1,0.3,1.9,1.3,1.9,2.4c0,0.8-0.4,1.5-1.1,2c-0.8,0.5-1.8,0.8-2.7,0.8
		c-0.7,0-1.4-0.1-2-0.4c-0.5-0.2-1-0.6-1.4-1.1c-0.3-0.4-0.5-1-0.5-1.5h2.3c0,0.4,0.2,0.7,0.5,1c0.3,0.2,0.8,0.4,1.2,0.3
		c0.4,0,0.7-0.1,1-0.3C465.9,2396.9,466.1,2396.7,466.1,2396.4z"/>
	<path id="Trazado_198238" class="st4" d="M644.6,2393.7h-4.8v3.2h5.6v2h-8.1v-12.1h8.1v2h-5.6v2.9h4.8L644.6,2393.7z M651.6,2396.4
		c0-0.3-0.2-0.6-0.4-0.7c-0.4-0.2-0.9-0.4-1.4-0.5c-2.1-0.4-3.2-1.4-3.2-2.7c0-0.8,0.4-1.5,1-2c0.7-0.6,1.7-0.8,2.6-0.8
		c1-0.1,1.9,0.2,2.7,0.8c0.7,0.5,1,1.3,1,2.1h-2.4c0-0.3-0.1-0.6-0.3-0.9c-0.3-0.2-0.7-0.4-1-0.3c-0.3,0-0.7,0.1-0.9,0.3
		c-0.2,0.2-0.3,0.4-0.3,0.7c0,0.3,0.1,0.5,0.4,0.6c0.4,0.2,0.8,0.4,1.3,0.4c0.5,0.1,1,0.2,1.5,0.4c1.1,0.3,1.9,1.3,1.9,2.4
		c0,0.8-0.4,1.5-1,2c-0.8,0.5-1.8,0.8-2.7,0.8c-0.7,0-1.4-0.1-2-0.4c-0.5-0.2-1-0.6-1.4-1.1c-0.3-0.4-0.5-1-0.5-1.5h2.3
		c0,0.4,0.2,0.7,0.5,1c0.3,0.2,0.8,0.4,1.2,0.3c0.4,0,0.7-0.1,1-0.3C651.5,2396.9,651.6,2396.7,651.6,2396.4L651.6,2396.4z
		 M658.4,2387.7v2.2h1.5v1.8h-1.5v4.5c0,0.3,0,0.5,0.2,0.7c0.2,0.2,0.5,0.2,0.7,0.2c0.2,0,0.5,0,0.7-0.1v1.8c-0.5,0.1-1,0.2-1.5,0.2
		c-1.3,0.2-2.4-0.7-2.6-2c0-0.2,0-0.4,0-0.6v-4.8h-1.3v-1.8h1.3v-2.2H658.4z M666.4,2398.9c-0.1-0.3-0.2-0.5-0.2-0.8
		c-0.6,0.6-1.4,1-2.3,1c-0.8,0-1.6-0.2-2.2-0.8c-0.6-0.5-0.9-1.2-0.9-1.9c0-0.9,0.4-1.7,1.1-2.2c0.9-0.6,2-0.8,3.1-0.8h1.1v-0.5
		c0-0.4-0.1-0.7-0.3-1c-0.3-0.3-0.6-0.4-1-0.4c-0.3,0-0.7,0.1-0.9,0.3c-0.2,0.2-0.4,0.5-0.3,0.8h-2.4c0-0.5,0.2-1,0.5-1.4
		c0.3-0.5,0.8-0.8,1.4-1c0.6-0.3,1.3-0.4,2-0.4c1-0.1,1.9,0.2,2.6,0.8c0.7,0.6,1,1.5,1,2.3v3.9c0,0.7,0.1,1.3,0.4,1.9v0.1H666.4z
		 M664.5,2397.2c0.3,0,0.7-0.1,1-0.2c0.3-0.1,0.5-0.4,0.7-0.6v-1.5h-0.9c-1.2,0-1.8,0.4-1.9,1.2l0,0.1c0,0.3,0.1,0.6,0.3,0.7
		C663.8,2397.1,664.1,2397.2,664.5,2397.2z M670,2394.3c-0.1-1.2,0.3-2.4,0.9-3.3c0.6-0.8,1.6-1.3,2.6-1.2c0.8,0,1.6,0.3,2.2,1v-4.6
		h2.4v12.8h-2.2l-0.1-1c-0.5,0.7-1.4,1.1-2.3,1.1c-1,0-2-0.4-2.5-1.2C670.2,2396.8,669.9,2395.6,670,2394.3z M672.4,2394.5
		c0,0.7,0.1,1.3,0.4,1.9c0.3,0.4,0.8,0.7,1.3,0.7c0.7,0,1.3-0.3,1.6-0.9v-3.6c-0.3-0.6-0.9-1-1.6-0.9
		C673,2391.7,672.4,2392.6,672.4,2394.5L672.4,2394.5z M679.6,2394.3c0-0.8,0.2-1.6,0.5-2.4c0.3-0.7,0.8-1.2,1.5-1.6
		c0.7-0.4,1.5-0.6,2.2-0.6c1.1,0,2.2,0.4,3,1.1c0.8,0.8,1.3,1.9,1.3,3l0,0.6c0.1,1.2-0.4,2.4-1.2,3.3c-0.8,0.8-1.9,1.3-3.1,1.3
		c-1.2,0.1-2.3-0.4-3.1-1.2c-0.8-0.9-1.2-2.2-1.2-3.4L679.6,2394.3z M682,2394.5c0,0.7,0.1,1.4,0.5,2c0.3,0.4,0.8,0.7,1.4,0.7
		c0.5,0,1-0.2,1.4-0.7c0.4-0.6,0.5-1.4,0.5-2.1c0-0.7-0.1-1.4-0.5-1.9c-0.3-0.5-0.8-0.7-1.4-0.7c-0.5,0-1.1,0.2-1.4,0.7
		C682.1,2393,681.9,2393.8,682,2394.5L682,2394.5z"/>
	<path id="Trazado_198239" class="st4" d="M736.7,2393.1c0,1.1-0.2,2.1-0.6,3.1c-0.4,0.9-1,1.6-1.8,2.1c-0.8,0.5-1.7,0.7-2.7,0.7
		c-0.9,0-1.9-0.2-2.7-0.7c-0.8-0.5-1.4-1.2-1.8-2.1c-0.4-1-0.7-2-0.7-3.1v-0.6c0-1.1,0.2-2.2,0.6-3.1c0.4-0.9,1-1.6,1.8-2.1
		c0.8-0.5,1.7-0.7,2.7-0.7c0.9,0,1.9,0.2,2.7,0.7c0.8,0.5,1.4,1.2,1.8,2.1c0.4,1,0.7,2.1,0.6,3.1L736.7,2393.1z M734.2,2392.6
		c0.1-1-0.2-2-0.7-2.9c-0.4-0.6-1.2-1-1.9-1c-0.8,0-1.5,0.3-1.9,1c-0.5,0.9-0.7,1.9-0.7,2.9v0.6c-0.1,1,0.2,2,0.7,2.9
		c0.4,0.7,1.2,1.1,2,1c0.8,0,1.5-0.3,1.9-1c0.5-0.9,0.7-1.9,0.7-2.9L734.2,2392.6z M746.4,2394.5c0.1,1.2-0.3,2.4-0.9,3.4
		c-0.6,0.8-1.6,1.3-2.6,1.2c-0.9,0-1.8-0.4-2.3-1.1l-0.1,1h-2.2v-12.8h2.4v4.6c0.5-0.6,1.3-1,2.2-1c1,0,2,0.4,2.6,1.2
		c0.7,1,1,2.2,0.9,3.4L746.4,2394.5z M744,2394.3c0.1-0.7-0.1-1.4-0.4-2c-0.3-0.4-0.8-0.7-1.3-0.6c-0.7-0.1-1.3,0.3-1.6,0.9v3.5
		c0.3,0.6,0.9,1,1.6,0.9c0.7,0,1.4-0.4,1.5-1.1C744,2395.4,744.1,2394.9,744,2394.3L744,2394.3z M750.5,2389.9v9.5
		c0.1,0.8-0.2,1.7-0.8,2.3c-0.6,0.6-1.4,0.9-2.3,0.8c-0.4,0-0.8,0-1.2-0.1v-1.9c0.2,0,0.5,0.1,0.8,0.1c0.7,0,1.1-0.4,1.1-1.2v-9.5
		L750.5,2389.9z M747.9,2387.6c0-0.3,0.1-0.7,0.4-0.9c0.3-0.2,0.6-0.4,1-0.3c0.4,0,0.7,0.1,1,0.3c0.2,0.2,0.4,0.6,0.4,0.9
		c0,0.3-0.1,0.7-0.4,0.9c-0.3,0.2-0.6,0.4-1,0.3c-0.4,0-0.7-0.1-1-0.3C748,2388.3,747.9,2387.9,747.9,2387.6L747.9,2387.6z
		 M756.5,2399.1c-1.2,0-2.4-0.4-3.2-1.2c-0.8-0.9-1.3-2-1.2-3.2v-0.2c0-0.8,0.2-1.7,0.5-2.4c0.3-0.7,0.8-1.3,1.5-1.6
		c0.7-0.4,1.4-0.6,2.2-0.6c1.1-0.1,2.2,0.4,2.9,1.2c0.8,0.9,1.1,2.1,1.1,3.3v1h-5.7c0.1,0.5,0.3,1,0.7,1.4c0.4,0.4,0.9,0.6,1.5,0.5
		c0.8,0,1.7-0.3,2.2-1l1.2,1.3c-0.4,0.5-0.9,0.9-1.5,1.2C757.9,2398.9,757.2,2399.1,756.5,2399.1z M756.2,2391.7
		c-0.4,0-0.9,0.2-1.2,0.5c-0.3,0.4-0.5,0.9-0.6,1.4h3.3v-0.2c0-0.5-0.1-0.9-0.4-1.2C757.1,2391.8,756.6,2391.7,756.2,2391.7
		L756.2,2391.7z M764.4,2387.7v2.2h1.5v1.8h-1.5v4.5c0,0.3,0,0.5,0.2,0.7c0.2,0.2,0.5,0.2,0.7,0.2c0.2,0,0.5,0,0.7-0.1v1.8
		c-0.5,0.1-1,0.2-1.5,0.2c-1.3,0.2-2.4-0.7-2.6-2c0-0.2,0-0.4,0-0.6v-4.8h-1.3v-1.8h1.3v-2.2L764.4,2387.7z M769.8,2398.9h-2.4v-9
		h2.4L769.8,2398.9z M767.3,2387.6c0-0.3,0.1-0.7,0.4-0.9c0.3-0.2,0.6-0.4,1-0.3c0.4,0,0.7,0.1,1,0.3c0.2,0.2,0.4,0.6,0.4,0.9
		c0,0.3-0.1,0.7-0.4,0.9c-0.3,0.2-0.6,0.4-1,0.3c-0.4,0-0.7-0.1-1-0.3C767.4,2388.3,767.2,2387.9,767.3,2387.6z M775.1,2396l1.7-6.1
		h2.5l-3,9H774l-3-9h2.5L775.1,2396z M779.9,2394.3c0-0.8,0.2-1.6,0.5-2.4c0.3-0.7,0.8-1.2,1.5-1.6c0.7-0.4,1.5-0.6,2.2-0.6
		c1.1,0,2.2,0.4,3,1.1c0.8,0.8,1.3,1.9,1.3,3l0,0.6c0.1,1.2-0.4,2.4-1.2,3.3c-0.8,0.8-1.9,1.3-3.1,1.2c-1.2,0.1-2.3-0.4-3.1-1.2
		c-0.8-0.9-1.2-2.2-1.2-3.4L779.9,2394.3z M782.3,2394.5c0,0.7,0.1,1.4,0.5,2c0.3,0.4,0.8,0.7,1.4,0.7c0.5,0,1-0.2,1.4-0.7
		c0.4-0.6,0.5-1.4,0.5-2.1c0-0.7-0.1-1.4-0.5-1.9c-0.3-0.5-0.8-0.7-1.4-0.7c-0.5,0-1.1,0.2-1.4,0.7
		C782.4,2393,782.2,2393.8,782.3,2394.5L782.3,2394.5z"/>
	<path id="Trazado_198240" class="st4" d="M859.4,2394h-4.8v4.9h-2.5v-12.1h7.9v2h-5.4v3.1h4.8V2394z M866.5,2398
		c-0.6,0.7-1.5,1.1-2.5,1.1c-0.8,0.1-1.6-0.2-2.2-0.8c-0.6-0.7-0.8-1.6-0.8-2.4v-5.9h2.4v5.8c0,0.9,0.4,1.4,1.3,1.4
		c0.7,0.1,1.3-0.3,1.7-0.8v-6.4h2.4v9h-2.3L866.5,2398z M872.9,2389.9l0.1,1c0.6-0.8,1.6-1.2,2.6-1.2c0.8-0.1,1.6,0.2,2.1,0.8
		c0.5,0.7,0.8,1.6,0.7,2.5v5.8H876v-5.7c0-0.4-0.1-0.8-0.3-1.1c-0.3-0.3-0.7-0.4-1.1-0.3c-0.6,0-1.2,0.3-1.5,0.9v6.3h-2.4v-9H872.9z
		 M883.9,2397.1c0.4,0,0.8-0.1,1.1-0.4c0.3-0.2,0.4-0.6,0.4-1h2.3c0,0.6-0.2,1.2-0.5,1.7c-0.3,0.5-0.8,0.9-1.3,1.2
		c-0.6,0.3-1.2,0.4-1.9,0.4c-1.1,0.1-2.3-0.4-3-1.2c-0.8-0.9-1.2-2.2-1.1-3.4v-0.2c-0.1-1.2,0.3-2.4,1.1-3.3c0.8-0.8,1.9-1.3,3-1.2
		c1,0,2,0.3,2.7,1c0.7,0.7,1.1,1.6,1,2.6h-2.3c0-0.4-0.1-0.8-0.4-1.1c-0.3-0.3-0.7-0.5-1.1-0.4c-0.5,0-1,0.2-1.3,0.6
		c-0.3,0.6-0.5,1.3-0.4,2v0.2c-0.1,0.7,0.1,1.4,0.4,2C882.9,2396.9,883.4,2397.2,883.9,2397.1z M891.6,2398.9h-2.4v-9h2.4V2398.9z
		 M889,2387.6c0-0.3,0.1-0.7,0.4-0.9c0.3-0.2,0.6-0.4,1-0.3c0.4,0,0.7,0.1,1,0.3c0.2,0.2,0.4,0.6,0.4,0.9c0,0.3-0.1,0.7-0.4,0.9
		c-0.3,0.2-0.6,0.4-1,0.3c-0.4,0-0.7-0.1-1-0.3C889.1,2388.3,889,2387.9,889,2387.6L889,2387.6z M893.2,2394.3
		c0-0.8,0.2-1.6,0.5-2.4c0.3-0.7,0.8-1.2,1.5-1.6c0.7-0.4,1.5-0.6,2.2-0.6c1.1,0,2.2,0.4,3,1.1c0.8,0.8,1.3,1.9,1.3,3l0,0.6
		c0.1,1.2-0.4,2.4-1.2,3.3c-0.8,0.8-1.9,1.3-3.1,1.2c-1.2,0.1-2.3-0.4-3.1-1.2c-0.8-0.9-1.2-2.2-1.2-3.4L893.2,2394.3z
		 M895.6,2394.5c0,0.7,0.1,1.4,0.5,2c0.3,0.4,0.8,0.7,1.4,0.7c0.5,0,1-0.2,1.4-0.7c0.4-0.6,0.5-1.4,0.5-2.1c0-0.7-0.1-1.4-0.5-1.9
		c-0.3-0.5-0.8-0.7-1.4-0.7c-0.5,0-1.1,0.2-1.4,0.7C895.7,2393,895.5,2393.8,895.6,2394.5L895.6,2394.5z M905.4,2389.9l0.1,1
		c0.6-0.8,1.6-1.2,2.6-1.2c0.8-0.1,1.6,0.2,2.1,0.8c0.5,0.7,0.8,1.6,0.7,2.5v5.8h-2.4v-5.7c0-0.4-0.1-0.8-0.3-1.1
		c-0.3-0.3-0.7-0.4-1.1-0.3c-0.6,0-1.2,0.3-1.5,0.9v6.3h-2.4v-9L905.4,2389.9z M917.9,2398.9c-0.1-0.3-0.2-0.5-0.2-0.8
		c-0.6,0.6-1.4,1-2.3,1c-0.8,0-1.6-0.2-2.2-0.8c-0.6-0.5-0.9-1.2-0.9-1.9c0-0.9,0.4-1.7,1.1-2.2c0.9-0.6,2-0.8,3.1-0.8h1.1v-0.5
		c0-0.4-0.1-0.7-0.3-1c-0.3-0.3-0.6-0.4-1-0.4c-0.3,0-0.7,0.1-1,0.3c-0.2,0.2-0.4,0.5-0.3,0.8h-2.4c0-0.5,0.2-1,0.5-1.4
		c0.3-0.5,0.8-0.8,1.4-1c0.6-0.3,1.3-0.4,2-0.4c1-0.1,1.9,0.2,2.6,0.8c0.7,0.6,1,1.5,1,2.3v3.9c0,0.7,0.1,1.3,0.4,1.9v0.1H917.9z
		 M915.9,2397.2c0.3,0,0.7-0.1,1-0.2c0.3-0.1,0.5-0.4,0.7-0.6v-1.5h-0.9c-1.2,0-1.8,0.4-1.9,1.2l0,0.1c0,0.3,0.1,0.6,0.3,0.7
		C915.3,2397.1,915.6,2397.2,915.9,2397.2z M924.3,2398.9h-2.4v-12.8h2.4V2398.9z M928.8,2398.9h-2.4v-9h2.4V2398.9z M926.3,2387.6
		c0-0.3,0.1-0.7,0.4-0.9c0.3-0.2,0.6-0.4,1-0.3c0.4,0,0.7,0.1,1,0.3c0.2,0.2,0.4,0.6,0.4,0.9c0,0.3-0.1,0.7-0.4,0.9
		c-0.3,0.2-0.6,0.4-1,0.3c-0.4,0-0.7-0.1-1-0.3C926.4,2388.3,926.3,2387.9,926.3,2387.6z M930.4,2394.3c-0.1-1.2,0.3-2.4,0.9-3.3
		c0.6-0.8,1.6-1.3,2.6-1.2c0.8,0,1.6,0.3,2.2,1v-4.6h2.4v12.8h-2.2l-0.1-1c-0.5,0.7-1.4,1.1-2.3,1.1c-1,0-2-0.4-2.5-1.2
		C930.7,2396.8,930.4,2395.6,930.4,2394.3L930.4,2394.3z M932.8,2394.5c0,0.7,0.1,1.3,0.4,1.9c0.3,0.4,0.8,0.7,1.3,0.7
		c0.7,0,1.3-0.3,1.6-0.9v-3.6c-0.3-0.6-0.9-1-1.6-0.9C933.4,2391.7,932.8,2392.6,932.8,2394.5L932.8,2394.5z M945.6,2398.9
		c-0.1-0.3-0.2-0.5-0.2-0.8c-0.6,0.6-1.4,1-2.3,1c-0.8,0-1.6-0.2-2.2-0.8c-0.6-0.5-0.9-1.2-0.9-1.9c0-0.9,0.4-1.7,1.1-2.2
		c0.9-0.6,2-0.8,3.1-0.8h1.1v-0.5c0-0.4-0.1-0.7-0.3-1c-0.3-0.3-0.6-0.4-1-0.4c-0.3,0-0.7,0.1-1,0.3c-0.2,0.2-0.4,0.5-0.3,0.8h-2.4
		c0-0.5,0.2-1,0.5-1.4c0.4-0.5,0.8-0.8,1.4-1c0.6-0.3,1.3-0.4,2-0.4c1-0.1,1.9,0.2,2.6,0.8c0.7,0.6,1,1.5,1,2.3v3.9
		c0,0.7,0.1,1.3,0.4,1.9v0.1H945.6z M943.6,2397.2c0.3,0,0.7-0.1,1-0.2c0.3-0.1,0.5-0.4,0.7-0.6v-1.5h-0.9c-1.2,0-1.8,0.4-1.9,1.2
		l0,0.1c0,0.3,0.1,0.6,0.3,0.7C943,2397.1,943.3,2397.2,943.6,2397.2z M949.1,2394.3c-0.1-1.2,0.3-2.4,0.9-3.3
		c0.6-0.8,1.6-1.3,2.6-1.2c0.8,0,1.6,0.3,2.2,1v-4.6h2.4v12.8H955l-0.1-1c-0.5,0.7-1.4,1.1-2.3,1.1c-1,0-2-0.4-2.5-1.2
		C949.4,2396.8,949,2395.6,949.1,2394.3z M951.5,2394.5c0,0.7,0.1,1.3,0.4,1.9c0.3,0.4,0.8,0.7,1.3,0.7c0.7,0,1.3-0.3,1.6-0.9v-3.6
		c-0.3-0.6-0.9-1-1.6-0.9C952.1,2391.7,951.5,2392.6,951.5,2394.5L951.5,2394.5z M963.4,2394c0-1.2,0.2-2.4,0.5-3.6
		c0.3-1.1,0.8-2.1,1.5-3c0.5-0.8,1.3-1.4,2.1-1.8l0.5,1.3c-0.9,0.7-1.6,1.7-1.9,2.8c-0.5,1.4-0.7,2.9-0.7,4.4v0.3
		c0,1.5,0.2,3,0.7,4.4c0.3,1.1,1,2.1,1.9,2.8l-0.5,1.3c-0.8-0.4-1.6-1-2.1-1.8c-0.7-0.9-1.2-1.9-1.5-3c-0.3-1.1-0.5-2.3-0.5-3.5
		L963.4,2394z M973.4,2399.1c-1.2,0-2.4-0.4-3.2-1.2c-0.8-0.9-1.3-2-1.2-3.2v-0.2c0-0.8,0.2-1.7,0.5-2.4c0.3-0.7,0.8-1.3,1.5-1.6
		c0.7-0.4,1.4-0.6,2.2-0.6c1.1-0.1,2.2,0.4,2.9,1.2c0.8,0.9,1.1,2.1,1.1,3.3v1h-5.7c0.1,0.5,0.3,1,0.7,1.4c0.4,0.4,0.9,0.6,1.5,0.5
		c0.8,0,1.7-0.3,2.2-1l1.2,1.3c-0.4,0.5-0.9,0.9-1.5,1.2C974.8,2398.9,974.1,2399.1,973.4,2399.1z M973.1,2391.7
		c-0.4,0-0.9,0.2-1.2,0.5c-0.3,0.4-0.5,0.9-0.6,1.4h3.3v-0.2c0-0.5-0.1-0.9-0.4-1.2C974,2391.8,973.6,2391.7,973.1,2391.7
		L973.1,2391.7z M983.3,2396.4c0-0.3-0.2-0.6-0.4-0.7c-0.4-0.2-0.9-0.4-1.4-0.5c-2.1-0.4-3.2-1.4-3.2-2.7c0-0.8,0.4-1.5,1-2
		c0.7-0.6,1.7-0.8,2.6-0.8c1-0.1,1.9,0.2,2.7,0.8c0.7,0.5,1,1.3,1,2.1h-2.4c0-0.3-0.1-0.6-0.3-0.9c-0.3-0.2-0.7-0.4-1-0.3
		c-0.3,0-0.7,0.1-0.9,0.3c-0.2,0.2-0.3,0.4-0.3,0.7c0,0.3,0.1,0.5,0.4,0.6c0.4,0.2,0.8,0.4,1.3,0.4c0.5,0.1,1,0.2,1.5,0.4
		c1.1,0.3,1.9,1.3,1.9,2.4c0,0.8-0.4,1.5-1.1,2c-0.8,0.5-1.8,0.8-2.7,0.8c-0.7,0-1.4-0.1-2-0.4c-0.5-0.2-1-0.6-1.4-1.1
		c-0.3-0.4-0.5-1-0.5-1.5h2.3c0,0.4,0.2,0.7,0.5,1c0.3,0.2,0.8,0.4,1.2,0.3c0.4,0,0.7-0.1,1-0.3
		C983.2,2396.9,983.3,2396.7,983.3,2396.4z M991.3,2394.2c0,1.2-0.2,2.4-0.5,3.6c-0.3,1.1-0.9,2.1-1.6,3.1c-0.6,0.8-1.3,1.4-2.2,1.8
		l-0.5-1.3c0.9-0.7,1.5-1.7,1.9-2.7c0.5-1.4,0.7-2.8,0.7-4.3v-0.4c0-1.5-0.2-3-0.7-4.4c-0.3-1.1-1-2.1-1.9-2.8l0.5-1.3
		c0.8,0.4,1.6,1,2.1,1.8c0.7,0.9,1.2,1.9,1.6,3c0.4,1.1,0.6,2.3,0.6,3.5V2394.2z"/>
	<path id="Trazado_198241" class="st4" d="M1039.8,2382.8h-4.8v3.2h5.6v2h-8.1V2376h8.1v2h-5.6v2.9h4.8L1039.8,2382.8z
		 M1046.8,2385.6c0-0.3-0.2-0.6-0.4-0.7c-0.4-0.2-0.9-0.4-1.4-0.5c-2.1-0.4-3.2-1.4-3.2-2.7c0-0.8,0.4-1.5,1-2
		c0.7-0.6,1.7-0.8,2.6-0.8c1-0.1,1.9,0.2,2.7,0.8c0.7,0.5,1,1.3,1,2.1h-2.4c0-0.3-0.1-0.6-0.3-0.9c-0.3-0.2-0.7-0.4-1-0.3
		c-0.3,0-0.7,0.1-0.9,0.3c-0.2,0.2-0.3,0.4-0.3,0.7c0,0.3,0.1,0.5,0.4,0.6c0.4,0.2,0.8,0.4,1.3,0.4c0.5,0.1,1,0.2,1.5,0.4
		c1.1,0.3,1.9,1.3,1.9,2.4c0,0.8-0.4,1.5-1.1,2c-0.8,0.5-1.8,0.8-2.7,0.8c-0.7,0-1.4-0.1-2-0.4c-0.5-0.2-1-0.6-1.4-1.1
		c-0.3-0.4-0.5-1-0.5-1.5h2.3c0,0.4,0.2,0.7,0.5,1c0.3,0.2,0.8,0.4,1.2,0.3c0.4,0,0.7-0.1,1-0.3
		C1046.6,2386.1,1046.8,2385.8,1046.8,2385.6L1046.8,2385.6z M1053.5,2376.9v2.2h1.5v1.8h-1.5v4.5c0,0.3,0,0.5,0.2,0.7
		c0.2,0.2,0.5,0.2,0.7,0.2c0.2,0,0.5,0,0.7-0.1v1.8c-0.5,0.1-1,0.2-1.5,0.2c-1.3,0.2-2.4-0.7-2.6-2c0-0.2,0-0.4,0-0.6v-4.8h-1.3
		v-1.8h1.3v-2.2H1053.5z M1061.6,2388.1c-0.1-0.3-0.2-0.5-0.2-0.8c-0.6,0.6-1.4,1-2.3,1c-0.8,0-1.6-0.2-2.2-0.8
		c-0.6-0.5-0.9-1.2-0.9-1.9c0-0.9,0.4-1.7,1.1-2.2c0.9-0.6,2-0.8,3.1-0.8h1.1v-0.5c0-0.4-0.1-0.7-0.3-1c-0.3-0.3-0.6-0.4-1-0.4
		c-0.3,0-0.7,0.1-0.9,0.3c-0.2,0.2-0.4,0.5-0.3,0.8h-2.4c0-0.5,0.2-1,0.5-1.4c0.3-0.5,0.8-0.8,1.4-1c0.6-0.3,1.3-0.4,2-0.4
		c1-0.1,1.9,0.2,2.6,0.8c0.7,0.6,1,1.5,1,2.3v3.9c0,0.7,0.1,1.3,0.4,1.9v0.1H1061.6z M1059.6,2386.4c0.3,0,0.7-0.1,1-0.2
		c0.3-0.1,0.5-0.4,0.7-0.6v-1.5h-0.9c-1.2,0-1.8,0.4-1.9,1.2l0,0.1c0,0.3,0.1,0.6,0.3,0.7C1059,2386.3,1059.3,2386.4,1059.6,2386.4z
		 M1065.1,2383.5c-0.1-1.2,0.3-2.4,0.9-3.3c0.6-0.8,1.6-1.3,2.6-1.2c0.8,0,1.6,0.3,2.2,1v-4.6h2.4v12.8h-2.2l-0.1-1
		c-0.5,0.7-1.4,1.1-2.3,1.1c-1,0-2-0.4-2.5-1.2C1065.4,2385.9,1065.1,2384.7,1065.1,2383.5z M1067.5,2383.7c0,0.7,0.1,1.3,0.4,1.9
		c0.3,0.4,0.8,0.7,1.3,0.7c0.7,0,1.3-0.3,1.6-0.9v-3.6c-0.3-0.6-0.9-1-1.6-0.9C1068.1,2380.9,1067.5,2381.8,1067.5,2383.7
		L1067.5,2383.7z M1074.7,2383.5c0-0.8,0.2-1.6,0.5-2.4c0.3-0.7,0.8-1.2,1.5-1.6c0.7-0.4,1.5-0.6,2.2-0.6c1.1,0,2.2,0.4,3,1.1
		c0.8,0.8,1.3,1.9,1.3,3l0,0.6c0.1,1.2-0.4,2.4-1.2,3.3c-0.8,0.8-1.9,1.3-3.1,1.3c-1.2,0.1-2.3-0.4-3.1-1.2
		c-0.8-0.9-1.2-2.2-1.2-3.4L1074.7,2383.5z M1077.1,2383.6c0,0.7,0.1,1.4,0.5,2c0.3,0.4,0.8,0.7,1.4,0.7c0.5,0,1-0.2,1.4-0.7
		c0.4-0.6,0.5-1.4,0.5-2.1c0-0.7-0.1-1.4-0.5-1.9c-0.3-0.5-0.8-0.7-1.4-0.7c-0.5,0-1.1,0.2-1.4,0.7
		C1077.2,2382.2,1077.1,2382.9,1077.1,2383.6L1077.1,2383.6z M1025.3,2403.1c0-1.2,0.2-2.4,0.5-3.6c0.3-1.1,0.8-2.1,1.5-3
		c0.5-0.8,1.3-1.4,2.1-1.8l0.5,1.3c-0.9,0.7-1.6,1.7-1.9,2.8c-0.5,1.4-0.7,2.9-0.7,4.4v0.3c0,1.5,0.2,3,0.7,4.4
		c0.3,1.1,1,2.1,1.9,2.8l-0.5,1.3c-0.8-0.4-1.6-1-2.1-1.8c-0.7-0.9-1.2-1.9-1.5-3c-0.3-1.1-0.5-2.3-0.5-3.5V2403.1z M1038.6,2402.8
		h-4.8v3.2h5.6v2h-8.1V2396h8.1v2h-5.6v2.9h4.8L1038.6,2402.8z M1042.9,2399.1l0.1,1c0.6-0.8,1.6-1.2,2.6-1.2
		c0.8-0.1,1.6,0.2,2.1,0.8c0.5,0.7,0.8,1.6,0.7,2.5v5.8h-2.4v-5.7c0-0.4-0.1-0.8-0.3-1.1c-0.3-0.3-0.7-0.4-1.1-0.3
		c-0.6,0-1.2,0.3-1.5,0.9v6.3h-2.4v-9L1042.9,2399.1z M1053.1,2396.9v2.2h1.5v1.8h-1.5v4.5c0,0.3,0,0.5,0.2,0.7
		c0.2,0.2,0.5,0.2,0.7,0.2c0.2,0,0.5,0,0.7-0.1v1.8c-0.5,0.1-1,0.2-1.5,0.2c-1.3,0.2-2.4-0.7-2.6-2c0-0.2,0-0.4,0-0.6v-4.8h-1.3
		v-1.8h1.3v-2.2H1053.1z M1061,2401.3c-0.3,0-0.6-0.1-0.9-0.1c-0.7-0.1-1.4,0.3-1.8,0.9v5.9h-2.4v-9h2.3l0.1,1.1
		c0.4-0.8,1.2-1.2,2-1.2c0.3,0,0.5,0,0.7,0.1L1061,2401.3z M1066.2,2408.2c-1.2,0-2.4-0.4-3.2-1.2c-0.8-0.9-1.3-2-1.2-3.2v-0.2
		c0-0.8,0.2-1.7,0.5-2.4c0.3-0.7,0.8-1.3,1.5-1.6c0.7-0.4,1.4-0.6,2.2-0.6c1.1-0.1,2.2,0.4,2.9,1.2c0.8,0.9,1.1,2.1,1.1,3.3v1h-5.7
		c0.1,0.5,0.3,1,0.7,1.4c0.4,0.4,0.9,0.6,1.5,0.5c0.8,0,1.7-0.3,2.2-1l1.2,1.3c-0.4,0.5-0.9,0.9-1.5,1.2
		C1067.6,2408.1,1066.9,2408.2,1066.2,2408.2L1066.2,2408.2z M1065.9,2400.8c-0.4,0-0.9,0.2-1.2,0.5c-0.3,0.4-0.5,0.9-0.6,1.4h3.3
		v-0.2c0-0.5-0.1-0.9-0.4-1.2C1066.8,2401,1066.3,2400.8,1065.9,2400.8L1065.9,2400.8z M1070.9,2403.5c-0.1-1.2,0.3-2.4,1-3.3
		c0.6-0.8,1.6-1.3,2.6-1.3c0.9,0,1.7,0.3,2.3,1l0.1-0.8h2.2v8.7c0,0.7-0.2,1.4-0.5,2.1c-0.4,0.6-0.9,1-1.5,1.3
		c-0.7,0.3-1.5,0.5-2.3,0.5c-0.7,0-1.3-0.1-1.9-0.4c-0.6-0.2-1-0.6-1.4-1l1.1-1.5c0.5,0.6,1.3,1,2.2,1c0.5,0,1.1-0.2,1.5-0.5
		c0.4-0.4,0.6-0.9,0.5-1.4v-0.5c-0.6,0.6-1.4,1-2.2,0.9c-1,0-2-0.4-2.6-1.3C1071.2,2406,1070.8,2404.8,1070.9,2403.5L1070.9,2403.5z
		 M1073.3,2403.7c0,0.7,0.1,1.3,0.5,1.9c0.3,0.4,0.8,0.7,1.3,0.7c0.6,0,1.2-0.3,1.6-0.8v-3.8c-0.3-0.5-0.9-0.9-1.6-0.8
		c-0.5,0-1.1,0.3-1.4,0.7C1073.4,2402.2,1073.2,2402.9,1073.3,2403.7L1073.3,2403.7z M1081.1,2406.9c0-0.4,0.1-0.7,0.4-0.9
		c0.6-0.5,1.4-0.5,1.9,0c0.3,0.2,0.4,0.6,0.4,0.9c0,0.3-0.1,0.7-0.4,0.9c-0.6,0.5-1.4,0.5-2,0
		C1081.2,2407.6,1081,2407.2,1081.1,2406.9L1081.1,2406.9z M1090,2403.3c0,1.2-0.2,2.4-0.5,3.6c-0.3,1.1-0.9,2.1-1.6,3.1
		c-0.6,0.8-1.3,1.4-2.2,1.8l-0.5-1.3c0.9-0.7,1.5-1.7,1.9-2.7c0.5-1.4,0.7-2.8,0.7-4.3v-0.4c0-1.5-0.2-3-0.7-4.4
		c-0.3-1.1-1-2.1-1.9-2.8l0.5-1.3c0.8,0.4,1.6,1,2.1,1.8c0.7,0.9,1.2,1.9,1.6,3c0.4,1.1,0.6,2.3,0.6,3.5L1090,2403.3z"/>
	<path id="Trazado_198242" class="st4" d="M1183.7,2385.1l2.7-9.1h2.8l-4.2,12.1h-2.6l-4.2-12.1h2.8L1183.7,2385.1z M1195.1,2388.1
		c-0.1-0.3-0.2-0.5-0.2-0.8c-0.6,0.6-1.4,1-2.3,1c-0.8,0-1.6-0.2-2.2-0.8c-0.6-0.5-0.9-1.2-0.9-1.9c0-0.9,0.4-1.7,1.1-2.2
		c0.9-0.6,2-0.8,3.1-0.8h1.1v-0.5c0-0.4-0.1-0.7-0.3-1c-0.3-0.3-0.6-0.4-1-0.4c-0.3,0-0.7,0.1-1,0.3c-0.2,0.2-0.4,0.5-0.3,0.8h-2.4
		c0-0.5,0.2-1,0.5-1.4c0.4-0.5,0.8-0.8,1.4-1c0.6-0.3,1.3-0.4,2-0.4c1-0.1,1.9,0.2,2.6,0.8c0.7,0.6,1,1.5,1,2.3v3.9
		c0,0.7,0.1,1.3,0.4,1.9v0.1H1195.1z M1193.1,2386.4c0.3,0,0.7-0.1,1-0.2c0.3-0.1,0.5-0.4,0.7-0.6v-1.5h-0.9c-1.2,0-1.8,0.4-1.9,1.2
		l0,0.1c0,0.3,0.1,0.6,0.3,0.7C1192.4,2386.3,1192.8,2386.4,1193.1,2386.4z M1201.5,2388.1h-2.4v-12.8h2.4V2388.1z M1206,2388.1
		h-2.4v-9h2.4V2388.1z M1203.5,2376.7c0-0.3,0.1-0.7,0.4-0.9c0.3-0.2,0.6-0.4,1-0.3c0.4,0,0.7,0.1,1,0.3c0.2,0.2,0.4,0.6,0.4,0.9
		c0,0.3-0.1,0.7-0.4,0.9c-0.3,0.2-0.6,0.4-1,0.3c-0.4,0-0.7-0.1-1-0.3C1203.6,2377.4,1203.4,2377.1,1203.5,2376.7z M1207.6,2383.5
		c-0.1-1.2,0.3-2.4,0.9-3.3c0.6-0.8,1.6-1.3,2.6-1.2c0.8,0,1.6,0.3,2.2,1v-4.6h2.4v12.8h-2.2l-0.1-1c-0.5,0.7-1.4,1.1-2.3,1.1
		c-1,0-2-0.4-2.5-1.2C1207.9,2385.9,1207.5,2384.7,1207.6,2383.5z M1210,2383.7c0,0.7,0.1,1.3,0.4,1.9c0.3,0.4,0.8,0.7,1.3,0.7
		c0.7,0,1.3-0.3,1.6-0.9v-3.6c-0.3-0.6-0.9-1-1.6-0.9C1210.6,2380.9,1210,2381.8,1210,2383.7L1210,2383.7z M1222.8,2388.1
		c-0.1-0.3-0.2-0.5-0.2-0.8c-0.6,0.6-1.4,1-2.3,1c-0.8,0-1.6-0.2-2.2-0.8c-0.6-0.5-0.9-1.2-0.9-1.9c0-0.9,0.4-1.7,1.1-2.2
		c0.9-0.6,2-0.8,3.1-0.8h1.1v-0.5c0-0.4-0.1-0.7-0.3-1c-0.3-0.3-0.6-0.4-1-0.4c-0.3,0-0.7,0.1-0.9,0.3c-0.2,0.2-0.4,0.5-0.3,0.8
		h-2.4c0-0.5,0.2-1,0.5-1.4c0.3-0.5,0.8-0.8,1.4-1c0.6-0.3,1.3-0.4,2-0.4c1-0.1,1.9,0.2,2.6,0.8c0.7,0.6,1,1.5,1,2.3v3.9
		c0,0.7,0.1,1.3,0.4,1.9v0.1H1222.8z M1220.8,2386.4c0.3,0,0.7-0.1,1-0.2c0.3-0.1,0.5-0.4,0.7-0.6v-1.5h-0.9c-1.2,0-1.8,0.4-1.9,1.2
		l0,0.1c0,0.3,0.1,0.6,0.3,0.7C1220.2,2386.3,1220.5,2386.4,1220.8,2386.4z M1230.4,2386.3c0.4,0,0.8-0.1,1.1-0.4
		c0.3-0.2,0.4-0.6,0.4-1h2.3c0,0.6-0.2,1.2-0.5,1.7c-0.3,0.5-0.8,0.9-1.3,1.2c-0.6,0.3-1.2,0.4-1.9,0.4c-1.1,0.1-2.3-0.4-3-1.2
		c-0.8-0.9-1.2-2.2-1.1-3.4v-0.2c-0.1-1.2,0.3-2.4,1.1-3.3c0.8-0.8,1.9-1.3,3-1.2c1,0,2,0.3,2.7,1c0.7,0.7,1.1,1.6,1,2.6h-2.3
		c0-0.4-0.1-0.8-0.4-1.1c-0.3-0.3-0.7-0.5-1.1-0.4c-0.5,0-1,0.2-1.3,0.6c-0.3,0.6-0.5,1.3-0.4,2v0.2c-0.1,0.7,0.1,1.4,0.4,2
		C1229.4,2386.1,1229.9,2386.3,1230.4,2386.3z M1238.1,2388.1h-2.4v-9h2.4V2388.1z M1235.5,2376.7c0-0.3,0.1-0.7,0.4-0.9
		c0.3-0.2,0.6-0.4,1-0.3c0.4,0,0.7,0.1,1,0.3c0.2,0.2,0.4,0.6,0.4,0.9c0,0.3-0.1,0.7-0.4,0.9c-0.3,0.2-0.6,0.4-1,0.3
		c-0.4,0-0.7-0.1-1-0.3C1235.6,2377.4,1235.5,2377.1,1235.5,2376.7z M1239.7,2383.5c0-0.8,0.2-1.6,0.5-2.4c0.3-0.7,0.8-1.2,1.5-1.6
		c0.7-0.4,1.5-0.6,2.2-0.6c1.1,0,2.2,0.4,3,1.1c0.8,0.8,1.3,1.9,1.3,3l0,0.6c0.1,1.2-0.4,2.4-1.2,3.3c-0.8,0.8-1.9,1.3-3.1,1.2
		c-1.2,0.1-2.3-0.4-3.1-1.2c-0.8-0.9-1.2-2.2-1.2-3.4L1239.7,2383.5z M1242.1,2383.6c0,0.7,0.1,1.4,0.5,2c0.3,0.4,0.8,0.7,1.4,0.7
		c0.5,0,1-0.2,1.4-0.7c0.4-0.6,0.5-1.4,0.5-2.1c0-0.7-0.1-1.4-0.5-1.9c-0.3-0.5-0.8-0.7-1.4-0.7c-0.5,0-1.1,0.2-1.4,0.7
		C1242.2,2382.2,1242,2382.9,1242.1,2383.6L1242.1,2383.6z M1251.9,2379.1l0.1,1c0.6-0.8,1.6-1.2,2.6-1.2c0.8-0.1,1.6,0.2,2.1,0.8
		c0.5,0.7,0.8,1.6,0.7,2.5v5.8h-2.4v-5.7c0-0.4-0.1-0.8-0.3-1.1c-0.3-0.3-0.7-0.4-1.1-0.3c-0.6,0-1.2,0.3-1.5,0.9v6.3h-2.4v-9
		L1251.9,2379.1z M1152.8,2403.1c0-1.2,0.2-2.4,0.5-3.6c0.3-1.1,0.8-2.1,1.5-3c0.5-0.8,1.3-1.4,2.1-1.8l0.5,1.3
		c-0.9,0.7-1.6,1.7-1.9,2.8c-0.5,1.4-0.7,2.9-0.7,4.4v0.3c0,1.5,0.2,3,0.7,4.4c0.3,1.1,1,2.1,1.9,2.8l-0.5,1.3
		c-0.8-0.4-1.6-1-2.1-1.8c-0.7-0.9-1.2-1.9-1.5-3c-0.3-1.1-0.5-2.3-0.5-3.5V2403.1z M1161.3,2403.8v4.3h-2.5V2396h4.7
		c0.8,0,1.6,0.2,2.4,0.5c0.7,0.3,1.2,0.8,1.6,1.4c0.4,0.6,0.6,1.4,0.6,2.1c0,1.1-0.4,2.1-1.2,2.8c-1,0.7-2.2,1.1-3.4,1H1161.3z
		 M1161.3,2401.8h2.2c0.5,0,1.1-0.1,1.5-0.5c0.4-0.3,0.6-0.8,0.5-1.3c0-0.5-0.2-1-0.5-1.4c-0.4-0.4-0.9-0.6-1.4-0.6h-2.3
		L1161.3,2401.8z M1173.7,2408.2c-1.2,0-2.4-0.4-3.2-1.2c-0.8-0.9-1.3-2-1.2-3.2v-0.2c0-0.8,0.2-1.7,0.5-2.4
		c0.3-0.7,0.8-1.3,1.5-1.6c0.7-0.4,1.4-0.6,2.2-0.6c1.1-0.1,2.2,0.4,2.9,1.2c0.8,0.9,1.1,2.1,1.1,3.3v1h-5.7c0.1,0.5,0.3,1,0.7,1.4
		c0.4,0.4,0.9,0.6,1.5,0.5c0.8,0,1.7-0.3,2.2-1l1.2,1.3c-0.4,0.5-0.9,0.9-1.5,1.2C1175.1,2408.1,1174.4,2408.2,1173.7,2408.2
		L1173.7,2408.2z M1173.4,2400.8c-0.4,0-0.9,0.2-1.2,0.5c-0.3,0.4-0.5,0.9-0.6,1.4h3.3v-0.2c0-0.5-0.1-0.9-0.4-1.2
		C1174.3,2401,1173.8,2400.8,1173.4,2400.8L1173.4,2400.8z M1183.8,2401.3c-0.3,0-0.6-0.1-0.9-0.1c-0.7-0.1-1.4,0.3-1.8,0.9v5.9
		h-2.4v-9h2.3l0.1,1.1c0.4-0.8,1.2-1.2,2-1.2c0.3,0,0.5,0,0.7,0.1L1183.8,2401.3z M1189.8,2405.6c0-0.3-0.2-0.6-0.4-0.7
		c-0.4-0.2-0.9-0.4-1.4-0.5c-2.1-0.4-3.2-1.4-3.2-2.7c0-0.8,0.4-1.5,1-2c0.7-0.6,1.7-0.8,2.6-0.8c1-0.1,1.9,0.2,2.7,0.8
		c0.7,0.5,1,1.3,1,2.1h-2.4c0-0.3-0.1-0.6-0.3-0.9c-0.3-0.2-0.7-0.4-1-0.3c-0.3,0-0.7,0.1-0.9,0.3c-0.2,0.2-0.3,0.4-0.3,0.7
		c0,0.3,0.1,0.5,0.4,0.6c0.4,0.2,0.8,0.4,1.3,0.4c0.5,0.1,1,0.2,1.5,0.4c1.1,0.3,1.9,1.3,1.9,2.4c0,0.8-0.4,1.5-1.1,2
		c-0.8,0.5-1.8,0.8-2.7,0.8c-0.7,0-1.4-0.1-2-0.4c-0.5-0.2-1-0.6-1.4-1.1c-0.3-0.4-0.5-1-0.5-1.5h2.3c0,0.4,0.2,0.7,0.5,1
		c0.3,0.2,0.8,0.4,1.2,0.3c0.4,0,0.7-0.1,1-0.3C1189.7,2406.1,1189.8,2405.8,1189.8,2405.6L1189.8,2405.6z M1193.3,2403.5
		c0-0.8,0.2-1.6,0.5-2.4c0.3-0.7,0.8-1.2,1.5-1.6c0.7-0.4,1.5-0.6,2.2-0.6c1.1,0,2.2,0.4,3,1.1c0.8,0.8,1.3,1.9,1.3,3l0,0.6
		c0.1,1.2-0.4,2.4-1.2,3.3c-0.8,0.8-1.9,1.3-3.1,1.2c-1.2,0.1-2.3-0.4-3.1-1.2c-0.8-0.9-1.2-2.2-1.2-3.4L1193.3,2403.5z
		 M1195.7,2403.6c0,0.7,0.1,1.4,0.5,2c0.3,0.4,0.8,0.7,1.4,0.7c0.5,0,1-0.2,1.4-0.7c0.4-0.6,0.5-1.4,0.5-2.1c0-0.7-0.1-1.4-0.5-1.9
		c-0.3-0.5-0.8-0.7-1.4-0.7c-0.5,0-1.1,0.2-1.4,0.7C1195.8,2402.2,1195.6,2402.9,1195.7,2403.6L1195.7,2403.6z M1205.5,2399.1l0.1,1
		c0.6-0.8,1.6-1.2,2.6-1.2c0.8-0.1,1.6,0.2,2.1,0.8c0.5,0.7,0.8,1.6,0.7,2.5v5.8h-2.4v-5.7c0-0.4-0.1-0.8-0.3-1.1
		c-0.3-0.3-0.7-0.4-1.1-0.3c-0.6,0-1.2,0.3-1.5,0.9v6.3h-2.4v-9L1205.5,2399.1z M1218,2408.1c-0.1-0.3-0.2-0.5-0.2-0.8
		c-0.6,0.6-1.4,1-2.3,1c-0.8,0-1.6-0.2-2.2-0.8c-0.6-0.5-0.9-1.2-0.9-1.9c0-0.9,0.4-1.7,1.1-2.2c0.9-0.6,2-0.8,3.1-0.8h1.1v-0.5
		c0-0.4-0.1-0.7-0.3-1c-0.3-0.3-0.6-0.4-1-0.4c-0.3,0-0.7,0.1-0.9,0.3c-0.2,0.2-0.4,0.5-0.3,0.8h-2.4c0-0.5,0.2-1,0.5-1.4
		c0.4-0.5,0.8-0.8,1.4-1c0.6-0.3,1.3-0.4,2-0.4c1-0.1,1.9,0.2,2.6,0.8c0.7,0.6,1,1.5,1,2.3v3.9c0,0.7,0.1,1.3,0.4,1.9v0.1H1218z
		 M1216,2406.4c0.3,0,0.7-0.1,1-0.2c0.3-0.1,0.5-0.4,0.7-0.6v-1.5h-0.9c-1.2,0-1.8,0.4-1.9,1.2l0,0.1c0,0.3,0.1,0.6,0.3,0.7
		C1215.4,2406.3,1215.7,2406.4,1216,2406.4z M1226.8,2405.6c0-0.3-0.2-0.6-0.4-0.7c-0.4-0.2-0.9-0.4-1.4-0.5
		c-2.1-0.4-3.2-1.4-3.2-2.7c0-0.8,0.4-1.5,1-2c0.7-0.6,1.7-0.8,2.6-0.8c1-0.1,1.9,0.2,2.7,0.8c0.7,0.5,1,1.3,1,2.1h-2.4
		c0-0.3-0.1-0.6-0.3-0.9c-0.3-0.2-0.7-0.4-1-0.3c-0.3,0-0.7,0.1-0.9,0.3c-0.2,0.2-0.3,0.4-0.3,0.7c0,0.3,0.1,0.5,0.4,0.6
		c0.4,0.2,0.8,0.4,1.3,0.4c0.5,0.1,1,0.2,1.5,0.4c1.1,0.3,1.9,1.3,1.9,2.4c0,0.8-0.4,1.5-1.1,2c-0.8,0.5-1.8,0.8-2.7,0.8
		c-0.7,0-1.4-0.1-2-0.4c-0.5-0.2-1-0.6-1.4-1.1c-0.3-0.4-0.5-1-0.5-1.5h2.3c0,0.4,0.2,0.7,0.5,1c0.3,0.2,0.8,0.4,1.2,0.3
		c0.4,0,0.7-0.1,1-0.3C1226.7,2406.1,1226.8,2405.8,1226.8,2405.6L1226.8,2405.6z M1231.4,2409.1h-1.8l4.4-13.1h1.8L1231.4,2409.1z
		 M1237.7,2408.1v-7.2h-1.3v-1.8h1.3v-0.8c-0.1-0.9,0.3-1.7,0.9-2.3c0.7-0.6,1.5-0.9,2.4-0.8c0.4,0,0.8,0.1,1.2,0.2l0,1.9
		c-0.2-0.1-0.5-0.1-0.7-0.1c-0.9,0-1.4,0.4-1.4,1.3v0.7h1.8v1.8h-1.8v7.2H1237.7z M1247,2408.2c-1.2,0-2.3-0.4-3.2-1.2
		c-0.8-0.9-1.3-2-1.2-3.2v-0.2c0-0.8,0.2-1.7,0.5-2.4c0.3-0.7,0.8-1.3,1.5-1.6c0.7-0.4,1.4-0.6,2.2-0.6c1.1-0.1,2.2,0.4,2.9,1.2
		c0.8,0.9,1.1,2.1,1.1,3.3v1h-5.7c0.1,0.5,0.3,1,0.7,1.4c0.4,0.4,0.9,0.6,1.5,0.5c0.8,0,1.7-0.3,2.2-1l1.2,1.3
		c-0.4,0.5-0.9,0.9-1.5,1.2C1248.4,2408.1,1247.7,2408.2,1247,2408.2z M1246.8,2400.8c-0.4,0-0.9,0.2-1.2,0.5
		c-0.3,0.4-0.5,0.9-0.6,1.4h3.3v-0.2c0-0.5-0.1-0.9-0.4-1.2C1247.6,2401,1247.2,2400.8,1246.8,2400.8z M1255.8,2406.3
		c0.4,0,0.8-0.1,1.1-0.4c0.3-0.2,0.4-0.6,0.4-1h2.3c0,0.6-0.2,1.2-0.5,1.7c-0.3,0.5-0.8,0.9-1.3,1.2c-0.6,0.3-1.2,0.4-1.9,0.4
		c-1.1,0.1-2.3-0.4-3-1.2c-0.8-0.9-1.2-2.2-1.1-3.4v-0.2c-0.1-1.2,0.3-2.4,1.1-3.3c0.8-0.8,1.9-1.3,3-1.2c1,0,2,0.3,2.7,1
		c0.7,0.7,1.1,1.6,1,2.6h-2.3c0-0.4-0.1-0.8-0.4-1.1c-0.6-0.6-1.7-0.6-2.3,0.1c0,0-0.1,0.1-0.1,0.1c-0.3,0.6-0.5,1.3-0.4,2v0.2
		c-0.1,0.7,0.1,1.4,0.4,2C1254.8,2406.1,1255.3,2406.3,1255.8,2406.3z M1263.3,2400.1c0.6-0.7,1.5-1.2,2.4-1.1c1.9,0,2.9,1.1,3,3.4
		v5.7h-2.4v-5.7c0-0.4-0.1-0.8-0.3-1.1c-0.3-0.3-0.7-0.4-1.1-0.4c-0.6,0-1.2,0.3-1.5,0.8v6.4h-2.4v-12.8h2.4L1263.3,2400.1z
		 M1275.7,2408.1c-0.1-0.3-0.2-0.5-0.2-0.8c-0.6,0.6-1.4,1-2.3,1c-0.8,0-1.6-0.2-2.2-0.8c-0.6-0.5-0.9-1.2-0.9-1.9
		c0-0.9,0.4-1.7,1.1-2.2c0.9-0.6,2-0.8,3.1-0.8h1.1v-0.5c0-0.4-0.1-0.7-0.3-1c-0.3-0.3-0.6-0.4-1-0.4c-0.3,0-0.7,0.1-0.9,0.3
		c-0.2,0.2-0.4,0.5-0.3,0.8h-2.4c0-0.5,0.2-1,0.5-1.4c0.4-0.5,0.8-0.8,1.4-1c0.6-0.3,1.3-0.4,2-0.4c1-0.1,1.9,0.2,2.6,0.8
		c0.7,0.6,1,1.5,1,2.3v3.9c0,0.7,0.1,1.3,0.4,1.9v0.1H1275.7z M1273.7,2406.4c0.3,0,0.7-0.1,1-0.2c0.3-0.1,0.5-0.4,0.7-0.6v-1.5
		h-0.9c-1.2,0-1.8,0.4-1.9,1.2l0,0.1c0,0.3,0.1,0.6,0.3,0.7C1273.1,2406.3,1273.4,2406.4,1273.7,2406.4z M1283.7,2403.3
		c0,1.2-0.2,2.4-0.5,3.6c-0.3,1.1-0.9,2.1-1.6,3.1c-0.6,0.8-1.3,1.4-2.2,1.8l-0.5-1.3c0.9-0.7,1.5-1.7,1.9-2.7
		c0.5-1.4,0.7-2.8,0.7-4.3v-0.4c0-1.5-0.2-3-0.7-4.4c-0.3-1.1-1-2.1-1.9-2.8l0.5-1.3c0.8,0.4,1.6,1,2.1,1.8c0.7,0.9,1.2,1.9,1.6,3
		c0.4,1.1,0.6,2.3,0.6,3.5V2403.3z"/>
	<path id="Trazado_198243" class="st5" d="M285.6,2363h1028.9v5.6H285.6V2363z"/>
</g>
<g>
	<path class="st4" d="M267.8,32v4.1h-2.3V24.7h4.5c1.3,0,2.3,0.3,3.1,1c0.8,0.7,1.1,1.5,1.1,2.6c0,1.1-0.4,2-1.1,2.6
		c-0.8,0.7-1.8,1-3.1,1H267.8z M267.8,30.2h2.3c0.6,0,1.1-0.2,1.4-0.5c0.3-0.3,0.5-0.8,0.5-1.3c0-0.5-0.2-1-0.5-1.4
		c-0.3-0.4-0.8-0.5-1.4-0.5h-2.3V30.2z"/>
	<path class="st4" d="M280.2,29.6l-0.8,0c-0.3,0-0.6,0.1-0.8,0.2s-0.4,0.3-0.5,0.6v5.7h-2.3v-8.5h2.1l0.1,1.3c0.2-0.4,0.5-0.8,0.8-1
		c0.3-0.2,0.7-0.4,1.1-0.4c0.1,0,0.2,0,0.3,0c0.1,0,0.2,0,0.3,0.1L280.2,29.6z"/>
	<path class="st4" d="M283.8,25.6h-2.3v-1.7h2.3V25.6z M283.8,36.1h-2.3v-8.5h2.3V36.1z"/>
	<path class="st4" d="M285.3,31.8c0-1.3,0.4-2.3,1.1-3.1s1.7-1.2,2.9-1.2c1.3,0,2.2,0.4,2.9,1.2c0.7,0.8,1.1,1.8,1.1,3.1v0.2
		c0,1.3-0.4,2.3-1.1,3.1c-0.7,0.8-1.7,1.2-2.9,1.2c-1.3,0-2.2-0.4-2.9-1.2c-0.7-0.8-1.1-1.8-1.1-3.1V31.8z M287.6,31.9
		c0,0.8,0.1,1.4,0.4,1.9c0.3,0.5,0.7,0.7,1.3,0.7c0.6,0,1-0.2,1.3-0.7c0.3-0.5,0.4-1.1,0.4-1.8v-0.2c0-0.7-0.1-1.4-0.4-1.8
		c-0.3-0.5-0.7-0.7-1.3-0.7c-0.6,0-1,0.2-1.3,0.7s-0.4,1.1-0.4,1.8V31.9z"/>
	<path class="st4" d="M299.1,29.6l-0.8,0c-0.3,0-0.6,0.1-0.8,0.2s-0.4,0.3-0.5,0.6v5.7h-2.3v-8.5h2.1l0.1,1.3c0.2-0.4,0.5-0.8,0.8-1
		c0.3-0.2,0.7-0.4,1.1-0.4c0.1,0,0.2,0,0.3,0c0.1,0,0.2,0,0.3,0.1L299.1,29.6z"/>
	<path class="st4" d="M302.7,25.6h-2.3v-1.7h2.3V25.6z M302.7,36.1h-2.3v-8.5h2.3V36.1z"/>
	<path class="st4" d="M304.2,31.9c0-1.3,0.3-2.4,0.9-3.2c0.6-0.8,1.4-1.2,2.4-1.2c0.4,0,0.8,0.1,1.1,0.3c0.3,0.2,0.6,0.4,0.9,0.8
		v-4.6h2.3v12.2h-2l-0.2-1c-0.3,0.4-0.6,0.7-0.9,0.9c-0.4,0.2-0.8,0.3-1.2,0.3c-1,0-1.8-0.4-2.4-1.1c-0.6-0.8-0.9-1.8-0.9-3V31.9z
		 M306.5,32.1c0,0.7,0.1,1.3,0.4,1.8c0.3,0.4,0.7,0.6,1.2,0.6c0.3,0,0.6-0.1,0.9-0.2c0.2-0.1,0.4-0.3,0.6-0.6v-3.6
		c-0.2-0.3-0.4-0.5-0.6-0.6s-0.5-0.2-0.8-0.2c-0.6,0-1,0.2-1.2,0.7c-0.3,0.5-0.4,1.1-0.4,1.9V32.1z"/>
	<path class="st4" d="M318.5,36.1c-0.1-0.2-0.2-0.4-0.2-0.6c-0.1-0.2-0.1-0.4-0.1-0.7c-0.2,0.4-0.5,0.8-0.9,1s-0.8,0.4-1.4,0.4
		c-0.9,0-1.6-0.2-2-0.7c-0.5-0.5-0.7-1.1-0.7-1.9c0-0.8,0.3-1.5,1-1.9c0.6-0.5,1.6-0.7,2.8-0.7h1.3v-0.7c0-0.4-0.1-0.7-0.3-0.9
		c-0.2-0.2-0.5-0.3-0.9-0.3c-0.4,0-0.7,0.1-0.9,0.3c-0.2,0.2-0.3,0.4-0.3,0.7l-2.2,0l0,0c0-0.7,0.3-1.3,0.9-1.8
		c0.7-0.5,1.5-0.8,2.6-0.8c1,0,1.8,0.3,2.5,0.8c0.6,0.5,0.9,1.2,0.9,2.2v3.5c0,0.4,0,0.8,0.1,1.1c0.1,0.3,0.2,0.7,0.3,1H318.5z
		 M316.4,34.6c0.4,0,0.8-0.1,1.1-0.3c0.3-0.2,0.5-0.4,0.6-0.7v-1.2h-1.3c-0.5,0-0.9,0.1-1.1,0.4s-0.4,0.5-0.4,0.9
		c0,0.3,0.1,0.5,0.3,0.7S316.1,34.6,316.4,34.6z"/>
	<path class="st4" d="M321.8,31.9c0-1.3,0.3-2.4,0.9-3.2c0.6-0.8,1.4-1.2,2.4-1.2c0.4,0,0.8,0.1,1.1,0.3c0.3,0.2,0.6,0.4,0.9,0.8
		v-4.6h2.3v12.2h-2l-0.2-1c-0.3,0.4-0.6,0.7-0.9,0.9c-0.4,0.2-0.8,0.3-1.2,0.3c-1,0-1.8-0.4-2.4-1.1c-0.6-0.8-0.9-1.8-0.9-3V31.9z
		 M324.1,32.1c0,0.7,0.1,1.3,0.4,1.8c0.3,0.4,0.7,0.6,1.2,0.6c0.3,0,0.6-0.1,0.9-0.2c0.2-0.1,0.4-0.3,0.6-0.6v-3.6
		c-0.2-0.3-0.4-0.5-0.6-0.6s-0.5-0.2-0.8-0.2c-0.6,0-1,0.2-1.2,0.7c-0.3,0.5-0.4,1.1-0.4,1.9V32.1z"/>
</g>
</svg>
