<svg xmlns="http://www.w3.org/2000/svg" width="1030" height="105.599" viewBox="0 0 1030 105.599">
  <g id="Grupo_135025" data-name="Grupo 135025" transform="translate(-285 -2363)">
    <path id="Trazado_198225" data-name="Trazado 198225" d="M0,0H1028.87V51.952H0Z" transform="translate(285.564 2368.647)" fill="#f6f6f6"/>
    <g id="Trazado_198226" data-name="Trazado 198226" transform="translate(285 2369.213)" fill="none">
      <path d="M0,0H1030V99.386H0Z" stroke="none"/>
      <path d="M 0.9998779296875 0.9999771118164062 L 0.9998779296875 98.38597106933594 L 1028.999755859375 98.38597106933594 L 1028.999755859375 0.9999771118164062 L 0.9998779296875 0.9999771118164062 M -0.0001220703125 -2.288818359375e-05 L 1029.999755859375 -2.288818359375e-05 L 1029.999755859375 99.38597106933594 L -0.0001220703125 99.38597106933594 L -0.0001220703125 -2.288818359375e-05 Z" stroke="none" fill="#afafaf"/>
    </g>
    <path id="Trazado_198227" data-name="Trazado 198227" d="M0,0H1030" transform="translate(285 2421.164)" fill="none" stroke="#afafaf" stroke-width="1"/>
    <path id="Trazado_198228" data-name="Trazado 198228" d="M0,0V99.386" transform="translate(1108.699 2369.213)" fill="none" stroke="#afafaf" stroke-width="1"/>
    <path id="Trazado_198229" data-name="Trazado 198229" d="M0,0V99.386" transform="translate(1016.842 2369.213)" fill="none" stroke="#afafaf" stroke-width="1"/>
    <path id="Trazado_198230" data-name="Trazado 198230" d="M0,0V99.386" transform="translate(823.341 2369.213)" fill="none" stroke="#afafaf" stroke-width="1"/>
    <path id="Trazado_198231" data-name="Trazado 198231" d="M0,0V99.386" transform="translate(697.603 2369.213)" fill="none" stroke="#afafaf" stroke-width="1"/>
    <path id="Trazado_198232" data-name="Trazado 198232" d="M0,0V99.386" transform="translate(617.039 2369.213)" fill="none" stroke="#afafaf" stroke-width="1"/>
    <path id="Trazado_198233" data-name="Trazado 198233" d="M0,0V99.386" transform="translate(559.064 2369.213)" fill="none" stroke="#afafaf" stroke-width="1"/>
    <path id="Trazado_198234" data-name="Trazado 198234" d="M0,0V99.386" transform="translate(331.682 2369.213)" fill="none" stroke="#afafaf" stroke-width="1"/>
    <path id="Trazado_198235" data-name="Trazado 198235" d="M3.727,0H1.237V-12.086h2.49ZM5.5-4.557A5.413,5.413,0,0,1,6.446-7.9,3.057,3.057,0,0,1,9.023-9.147a2.751,2.751,0,0,1,2.167.979V-12.75H13.6V0H11.43l-.116-.955A2.823,2.823,0,0,1,9.006.166,3.049,3.049,0,0,1,6.462-1.083,5.587,5.587,0,0,1,5.5-4.557Zm2.4.179a3.546,3.546,0,0,0,.44,1.937,1.433,1.433,0,0,0,1.278.673,1.605,1.605,0,0,0,1.569-.939v-3.55A1.582,1.582,0,0,0,9.637-7.2Q7.9-7.2,7.9-4.379Z" transform="translate(301.798 2398.894)" fill="#12263f"/>
    <path id="Trazado_198236" data-name="Trazado 198236" d="M-34.826-4.424H-36.81V0H-39.3V-12.086h4.491a5.076,5.076,0,0,1,3.3.955,3.3,3.3,0,0,1,1.162,2.7,3.718,3.718,0,0,1-.535,2.063A3.651,3.651,0,0,1-32.5-5.055l2.615,4.939V0H-32.56ZM-36.81-6.441H-34.8a2.057,2.057,0,0,0,1.453-.477,1.706,1.706,0,0,0,.515-1.316,1.826,1.826,0,0,0-.486-1.345,2.018,2.018,0,0,0-1.49-.49h-2ZM-24.475.166a4.409,4.409,0,0,1-3.217-1.212,4.308,4.308,0,0,1-1.241-3.229v-.232a5.426,5.426,0,0,1,.523-2.42,3.838,3.838,0,0,1,1.482-1.644,4.159,4.159,0,0,1,2.187-.577,3.727,3.727,0,0,1,2.9,1.162,4.722,4.722,0,0,1,1.058,3.3v.979H-26.5A2.229,2.229,0,0,0-25.8-2.3a2.12,2.12,0,0,0,1.482.531,2.589,2.589,0,0,0,2.167-1l1.179,1.32A3.6,3.6,0,0,1-22.433-.261,4.793,4.793,0,0,1-24.475.166Zm-.274-7.379a1.5,1.5,0,0,0-1.158.484,2.5,2.5,0,0,0-.569,1.384h3.337v-.192a1.786,1.786,0,0,0-.432-1.238A1.547,1.547,0,0,0-24.749-7.213Zm4.956,2.64a5.369,5.369,0,0,1,.942-3.345,3.08,3.08,0,0,1,2.586-1.229,2.758,2.758,0,0,1,2.3,1.1l.158-.938H-11.7V3.453h-2.407V-.772a2.765,2.765,0,0,1-2.175.938,3.057,3.057,0,0,1-2.557-1.245A5.632,5.632,0,0,1-19.793-4.574Zm2.4.17a3.522,3.522,0,0,0,.452,1.962,1.448,1.448,0,0,0,1.274.673,1.613,1.613,0,0,0,1.561-.881V-6.365a1.6,1.6,0,0,0-1.544-.848,1.466,1.466,0,0,0-1.287.673A3.889,3.889,0,0,0-17.394-4.4ZM-4.437-.913A3.008,3.008,0,0,1-6.894.166a2.837,2.837,0,0,1-2.2-.83A3.543,3.543,0,0,1-9.874-3.1V-8.981h2.4v5.809q0,1.4,1.278,1.4A1.732,1.732,0,0,0-4.52-2.616V-8.981h2.407V0H-4.37ZM2.229,0H-.178V-8.981H2.229ZM-.32-11.306a1.181,1.181,0,0,1,.361-.888,1.356,1.356,0,0,1,.984-.349A1.36,1.36,0,0,1,2-12.194a1.175,1.175,0,0,1,.365.888,1.178,1.178,0,0,1-.369.9,1.363,1.363,0,0,1-.975.349,1.363,1.363,0,0,1-.975-.349A1.178,1.178,0,0,1-.32-11.306ZM9.069-2.482a.773.773,0,0,0-.436-.693,4.95,4.95,0,0,0-1.4-.452Q4.03-4.3,4.03-6.35a2.468,2.468,0,0,1,.992-2,4,4,0,0,1,2.594-.8,4.307,4.307,0,0,1,2.735.805A2.538,2.538,0,0,1,11.376-6.25h-2.4A1.161,1.161,0,0,0,8.645-7.1a1.405,1.405,0,0,0-1.038-.336,1.436,1.436,0,0,0-.938.274.865.865,0,0,0-.332.7.739.739,0,0,0,.378.643A3.885,3.885,0,0,0,7.99-5.4,10.407,10.407,0,0,1,9.5-5a2.482,2.482,0,0,1,1.9,2.416A2.343,2.343,0,0,1,10.347-.594a4.548,4.548,0,0,1-2.723.76,4.75,4.75,0,0,1-2-.4,3.363,3.363,0,0,1-1.374-1.1,2.565,2.565,0,0,1-.5-1.515H6.022a1.252,1.252,0,0,0,.473.979,1.877,1.877,0,0,0,1.179.34A1.737,1.737,0,0,0,8.716-1.8.814.814,0,0,0,9.069-2.482ZM15.477,0H13.07V-8.981h2.407ZM12.928-11.306a1.181,1.181,0,0,1,.361-.888,1.356,1.356,0,0,1,.984-.349,1.36,1.36,0,0,1,.979.349,1.175,1.175,0,0,1,.365.888,1.178,1.178,0,0,1-.369.9,1.363,1.363,0,0,1-.975.349,1.363,1.363,0,0,1-.975-.349A1.178,1.178,0,0,1,12.928-11.306Zm7.4.116v2.208H21.86v1.76H20.324v4.482a1.07,1.07,0,0,0,.191.714.959.959,0,0,0,.73.216,3.826,3.826,0,0,0,.706-.058V-.05A4.939,4.939,0,0,1,20.5.166a2.29,2.29,0,0,1-2.573-2.548V-7.222H16.614v-1.76h1.312v-2.208Zm2.25,6.616a5.327,5.327,0,0,1,.515-2.382A3.768,3.768,0,0,1,24.57-8.575a4.323,4.323,0,0,1,2.245-.573,4.09,4.09,0,0,1,2.968,1.112,4.464,4.464,0,0,1,1.282,3.021l.017.614a4.694,4.694,0,0,1-1.154,3.316,4.011,4.011,0,0,1-3.1,1.249,4.031,4.031,0,0,1-3.1-1.245,4.777,4.777,0,0,1-1.158-3.387Zm2.4.17a3.357,3.357,0,0,0,.481,1.958,1.588,1.588,0,0,0,1.378.678,1.592,1.592,0,0,0,1.361-.669,3.674,3.674,0,0,0,.49-2.141,3.324,3.324,0,0,0-.49-1.945,1.592,1.592,0,0,0-1.378-.69,1.566,1.566,0,0,0-1.361.686A3.735,3.735,0,0,0,24.973-4.4ZM37.424-2.482a.773.773,0,0,0-.436-.693,4.95,4.95,0,0,0-1.4-.452q-3.2-.672-3.2-2.723a2.468,2.468,0,0,1,.992-2,4,4,0,0,1,2.594-.8,4.307,4.307,0,0,1,2.735.805A2.538,2.538,0,0,1,39.732-6.25h-2.4A1.161,1.161,0,0,0,37-7.1a1.405,1.405,0,0,0-1.038-.336,1.436,1.436,0,0,0-.938.274.865.865,0,0,0-.332.7.739.739,0,0,0,.378.643,3.885,3.885,0,0,0,1.274.423,10.407,10.407,0,0,1,1.511.4,2.482,2.482,0,0,1,1.9,2.416A2.343,2.343,0,0,1,38.7-.594a4.548,4.548,0,0,1-2.723.76,4.75,4.75,0,0,1-2-.4,3.363,3.363,0,0,1-1.374-1.1,2.565,2.565,0,0,1-.5-1.515h2.274a1.252,1.252,0,0,0,.473.979,1.877,1.877,0,0,0,1.179.34A1.737,1.737,0,0,0,37.071-1.8.814.814,0,0,0,37.424-2.482Z" transform="translate(428.632 2398.894)" fill="#12263f"/>
    <path id="Trazado_198237" data-name="Trazado 198237" d="M-12.073-4.258V0h-2.49V-12.086h4.715a5.455,5.455,0,0,1,2.395.5,3.67,3.67,0,0,1,1.59,1.415,3.946,3.946,0,0,1,.556,2.088,3.47,3.47,0,0,1-1.216,2.8A5.065,5.065,0,0,1-9.89-4.258Zm0-2.017h2.225A2.187,2.187,0,0,0-8.342-6.74a1.691,1.691,0,0,0,.519-1.328A1.994,1.994,0,0,0-8.346-9.5a1.953,1.953,0,0,0-1.444-.564h-2.283ZM1.291-6.732A6.517,6.517,0,0,0,.427-6.8a1.757,1.757,0,0,0-1.785.921V0h-2.4V-8.981H-1.49l.066,1.071a2.223,2.223,0,0,1,2-1.237,2.514,2.514,0,0,1,.747.108ZM4.976,0H2.569V-8.981H4.976ZM2.428-11.306a1.181,1.181,0,0,1,.361-.888,1.356,1.356,0,0,1,.984-.349,1.36,1.36,0,0,1,.979.349,1.175,1.175,0,0,1,.365.888,1.178,1.178,0,0,1-.369.9,1.363,1.363,0,0,1-.975.349,1.363,1.363,0,0,1-.975-.349A1.178,1.178,0,0,1,2.428-11.306Zm4.15,6.732a5.327,5.327,0,0,1,.515-2.382A3.768,3.768,0,0,1,8.575-8.575a4.323,4.323,0,0,1,2.245-.573,4.09,4.09,0,0,1,2.968,1.112A4.464,4.464,0,0,1,15.07-5.014l.017.614a4.694,4.694,0,0,1-1.154,3.316,4.011,4.011,0,0,1-3.1,1.249,4.031,4.031,0,0,1-3.1-1.245A4.777,4.777,0,0,1,6.578-4.466Zm2.4.17a3.357,3.357,0,0,0,.481,1.958,1.588,1.588,0,0,0,1.378.678A1.592,1.592,0,0,0,12.2-2.437a3.674,3.674,0,0,0,.49-2.141,3.324,3.324,0,0,0-.49-1.945,1.592,1.592,0,0,0-1.378-.69,1.566,1.566,0,0,0-1.361.686A3.735,3.735,0,0,0,8.977-4.4Z" transform="translate(585.592 2398.894)" fill="#12263f"/>
    <path id="Trazado_198238" data-name="Trazado 198238" d="M-17.826-5.238h-4.781V-2H-17V0h-8.1V-12.086h8.085v2.017h-5.595v2.88h4.781Zm7,2.756a.773.773,0,0,0-.436-.693,4.95,4.95,0,0,0-1.4-.452q-3.2-.672-3.2-2.723a2.468,2.468,0,0,1,.992-2,4,4,0,0,1,2.594-.8,4.307,4.307,0,0,1,2.735.805A2.538,2.538,0,0,1-8.521-6.25h-2.4a1.161,1.161,0,0,0-.332-.851,1.405,1.405,0,0,0-1.038-.336,1.436,1.436,0,0,0-.938.274.865.865,0,0,0-.332.7.739.739,0,0,0,.378.643,3.885,3.885,0,0,0,1.274.423A10.407,10.407,0,0,1-10.4-5,2.482,2.482,0,0,1-8.5-2.582,2.343,2.343,0,0,1-9.55-.594a4.548,4.548,0,0,1-2.723.76,4.75,4.75,0,0,1-2-.4,3.363,3.363,0,0,1-1.374-1.1,2.565,2.565,0,0,1-.5-1.515h2.274a1.252,1.252,0,0,0,.473.979,1.877,1.877,0,0,0,1.179.34A1.737,1.737,0,0,0-11.181-1.8.814.814,0,0,0-10.828-2.482Zm6.749-8.708v2.208h1.536v1.76H-4.08v4.482a1.07,1.07,0,0,0,.191.714.959.959,0,0,0,.73.216,3.826,3.826,0,0,0,.706-.058V-.05A4.939,4.939,0,0,1-3.906.166,2.29,2.29,0,0,1-6.479-2.382V-7.222H-7.79v-1.76h1.312v-2.208ZM4,0a2.664,2.664,0,0,1-.241-.805A2.9,2.9,0,0,1,1.49.166,3.189,3.189,0,0,1-.7-.6a2.456,2.456,0,0,1-.867-1.926A2.538,2.538,0,0,1-.506-4.715a5.222,5.222,0,0,1,3.059-.772h1.1V-6a1.48,1.48,0,0,0-.32-1,1.257,1.257,0,0,0-1.009-.374,1.429,1.429,0,0,0-.95.291.987.987,0,0,0-.344.8h-2.4A2.41,2.41,0,0,1-.884-7.728,3.182,3.182,0,0,1,.477-8.77a4.961,4.961,0,0,1,1.976-.378,3.92,3.92,0,0,1,2.635.834,2.918,2.918,0,0,1,.975,2.345v3.893A4.294,4.294,0,0,0,6.421-.141V0ZM2.013-1.668a2.066,2.066,0,0,0,.979-.237,1.554,1.554,0,0,0,.664-.635V-4.084h-.9q-1.8,0-1.917,1.245L.834-2.7a.96.96,0,0,0,.315.739A1.225,1.225,0,0,0,2.013-1.668Zm5.52-2.889A5.413,5.413,0,0,1,8.475-7.9a3.057,3.057,0,0,1,2.577-1.245,2.751,2.751,0,0,1,2.167.979V-12.75h2.407V0H13.46l-.116-.955A2.823,2.823,0,0,1,11.036.166,3.049,3.049,0,0,1,8.492-1.083,5.587,5.587,0,0,1,7.533-4.557Zm2.4.179a3.546,3.546,0,0,0,.44,1.937,1.433,1.433,0,0,0,1.278.673,1.605,1.605,0,0,0,1.569-.939v-3.55A1.582,1.582,0,0,0,11.667-7.2Q9.932-7.2,9.932-4.379Zm7.18-.2a5.327,5.327,0,0,1,.515-2.382,3.768,3.768,0,0,1,1.482-1.619,4.323,4.323,0,0,1,2.245-.573,4.09,4.09,0,0,1,2.968,1.112A4.464,4.464,0,0,1,25.6-5.014l.017.614a4.694,4.694,0,0,1-1.154,3.316A4.011,4.011,0,0,1,21.37.166a4.031,4.031,0,0,1-3.1-1.245,4.777,4.777,0,0,1-1.158-3.387Zm2.4.17a3.357,3.357,0,0,0,.481,1.958,1.588,1.588,0,0,0,1.378.678,1.592,1.592,0,0,0,1.361-.669,3.674,3.674,0,0,0,.49-2.141,3.324,3.324,0,0,0-.49-1.945,1.592,1.592,0,0,0-1.378-.69,1.566,1.566,0,0,0-1.361.686A3.735,3.735,0,0,0,19.511-4.4Z" transform="translate(656.449 2398.894)" fill="#12263f"/>
    <path id="Trazado_198239" data-name="Trazado 198239" d="M-20.615-5.769a7.3,7.3,0,0,1-.631,3.129A4.751,4.751,0,0,1-23.051-.564a4.994,4.994,0,0,1-2.694.73,5.028,5.028,0,0,1-2.681-.722,4.8,4.8,0,0,1-1.826-2.063A7.087,7.087,0,0,1-30.908-5.7v-.6a7.258,7.258,0,0,1,.643-3.142,4.79,4.79,0,0,1,1.818-2.083,5,5,0,0,1,2.685-.726,5,5,0,0,1,2.685.726,4.79,4.79,0,0,1,1.818,2.083,7.237,7.237,0,0,1,.643,3.134Zm-2.523-.548a5.086,5.086,0,0,0-.681-2.889,2.218,2.218,0,0,0-1.942-.988,2.219,2.219,0,0,0-1.934.975,5.028,5.028,0,0,0-.689,2.86v.589A5.15,5.15,0,0,0-27.7-2.9a2.212,2.212,0,0,0,1.959,1.021,2.192,2.192,0,0,0,1.926-.984,5.12,5.12,0,0,0,.681-2.868ZM-10.87-4.408a5.439,5.439,0,0,1-.921,3.366A3.052,3.052,0,0,1-14.365.166,2.8,2.8,0,0,1-16.7-.955L-16.8,0h-2.158V-12.75h2.4v4.574a2.732,2.732,0,0,1,2.183-.971A3.077,3.077,0,0,1-11.8-7.94a5.446,5.446,0,0,1,.934,3.4Zm-2.4-.174A3.573,3.573,0,0,0-13.7-6.57,1.46,1.46,0,0,0-14.987-7.2a1.582,1.582,0,0,0-1.577.938v3.544a1.6,1.6,0,0,0,1.594.946,1.481,1.481,0,0,0,1.527-1.146A5.909,5.909,0,0,0-13.269-4.582Zm6.417-4.4V.49A3.213,3.213,0,0,1-7.641,2.8a3,3,0,0,1-2.274.826A4.878,4.878,0,0,1-11.1,3.486v-1.9a4.5,4.5,0,0,0,.755.075Q-9.26,1.66-9.26.506V-8.981Zm-2.6-2.324a1.181,1.181,0,0,1,.361-.888,1.356,1.356,0,0,1,.984-.349,1.356,1.356,0,0,1,.984.349,1.181,1.181,0,0,1,.361.888,1.178,1.178,0,0,1-.369.9,1.363,1.363,0,0,1-.975.349,1.363,1.363,0,0,1-.975-.349A1.178,1.178,0,0,1-9.45-11.306ZM-.843.166A4.409,4.409,0,0,1-4.059-1.046,4.308,4.308,0,0,1-5.3-4.275v-.232a5.426,5.426,0,0,1,.523-2.42A3.838,3.838,0,0,1-3.3-8.571a4.159,4.159,0,0,1,2.187-.577,3.727,3.727,0,0,1,2.9,1.162,4.722,4.722,0,0,1,1.058,3.3v.979H-2.868a2.229,2.229,0,0,0,.7,1.411,2.12,2.12,0,0,0,1.482.531,2.589,2.589,0,0,0,2.167-1L2.66-1.453A3.6,3.6,0,0,1,1.2-.261,4.793,4.793,0,0,1-.843.166Zm-.274-7.379a1.5,1.5,0,0,0-1.158.484,2.5,2.5,0,0,0-.569,1.384H.494v-.192A1.786,1.786,0,0,0,.062-6.776,1.547,1.547,0,0,0-1.116-7.213Zm8.2-3.976v2.208H8.62v1.76H7.085v4.482a1.07,1.07,0,0,0,.191.714.959.959,0,0,0,.73.216,3.826,3.826,0,0,0,.706-.058V-.05A4.939,4.939,0,0,1,7.259.166,2.29,2.29,0,0,1,4.686-2.382V-7.222H3.374v-1.76H4.686v-2.208ZM12.489,0H10.081V-8.981h2.407ZM9.94-11.306a1.181,1.181,0,0,1,.361-.888,1.356,1.356,0,0,1,.984-.349,1.36,1.36,0,0,1,.979.349,1.175,1.175,0,0,1,.365.888,1.178,1.178,0,0,1-.369.9,1.363,1.363,0,0,1-.975.349,1.363,1.363,0,0,1-.975-.349A1.178,1.178,0,0,1,9.94-11.306ZM17.826-2.93l1.668-6.051H22L18.971,0H16.68l-3.03-8.981h2.507Zm4.731-1.644a5.327,5.327,0,0,1,.515-2.382,3.768,3.768,0,0,1,1.482-1.619A4.323,4.323,0,0,1,26.8-9.147a4.09,4.09,0,0,1,2.968,1.112,4.464,4.464,0,0,1,1.282,3.021l.017.614a4.694,4.694,0,0,1-1.154,3.316,4.011,4.011,0,0,1-3.1,1.249,4.031,4.031,0,0,1-3.1-1.245,4.777,4.777,0,0,1-1.158-3.387Zm2.4.17a3.357,3.357,0,0,0,.481,1.958,1.588,1.588,0,0,0,1.378.678,1.592,1.592,0,0,0,1.361-.669,3.674,3.674,0,0,0,.49-2.141,3.324,3.324,0,0,0-.49-1.945,1.592,1.592,0,0,0-1.378-.69,1.566,1.566,0,0,0-1.361.686A3.735,3.735,0,0,0,24.956-4.4Z" transform="translate(757.317 2398.894)" fill="#12263f"/>
    <path id="Trazado_198240" data-name="Trazado 198240" d="M-62.248-4.939h-4.781V0h-2.49V-12.086h7.869v2.017h-5.379v3.121h4.781Zm7.081,4.026A3.008,3.008,0,0,1-57.624.166a2.837,2.837,0,0,1-2.2-.83A3.543,3.543,0,0,1-60.6-3.1V-8.981h2.4v5.809q0,1.4,1.278,1.4a1.732,1.732,0,0,0,1.677-.848V-8.981h2.407V0H-55.1Zm6.342-8.068.075,1.038a3.136,3.136,0,0,1,2.582-1.2,2.606,2.606,0,0,1,2.125.838A3.912,3.912,0,0,1-43.33-5.8V0h-2.4V-5.744a1.556,1.556,0,0,0-.332-1.108,1.486,1.486,0,0,0-1.1-.344,1.65,1.65,0,0,0-1.519.863V0h-2.4V-8.981Zm11.048,7.213A1.573,1.573,0,0,0-36.7-2.133a1.28,1.28,0,0,0,.432-.971h2.25a3.077,3.077,0,0,1-.5,1.673A3.286,3.286,0,0,1-35.855-.253a4.2,4.2,0,0,1-1.88.419,3.9,3.9,0,0,1-3.038-1.224,4.845,4.845,0,0,1-1.112-3.383V-4.6a4.79,4.79,0,0,1,1.1-3.312,3.854,3.854,0,0,1,3.03-1.237,3.778,3.778,0,0,1,2.7.959,3.4,3.4,0,0,1,1.033,2.552h-2.25A1.648,1.648,0,0,0-36.7-6.775a1.439,1.439,0,0,0-1.1-.438,1.445,1.445,0,0,0-1.266.611,3.541,3.541,0,0,0-.427,1.983v.249a3.586,3.586,0,0,0,.423,2A1.463,1.463,0,0,0-37.777-1.768ZM-30.115,0h-2.407V-8.981h2.407Zm-2.548-11.306a1.181,1.181,0,0,1,.361-.888,1.356,1.356,0,0,1,.984-.349,1.36,1.36,0,0,1,.979.349,1.175,1.175,0,0,1,.365.888,1.178,1.178,0,0,1-.369.9,1.363,1.363,0,0,1-.975.349,1.363,1.363,0,0,1-.975-.349A1.178,1.178,0,0,1-32.664-11.306Zm4.15,6.732A5.327,5.327,0,0,1-28-6.956a3.768,3.768,0,0,1,1.482-1.619,4.323,4.323,0,0,1,2.245-.573A4.09,4.09,0,0,1-21.3-8.035a4.464,4.464,0,0,1,1.282,3.021L-20-4.4a4.694,4.694,0,0,1-1.154,3.316,4.011,4.011,0,0,1-3.1,1.249,4.031,4.031,0,0,1-3.1-1.245,4.777,4.777,0,0,1-1.158-3.387Zm2.4.17a3.357,3.357,0,0,0,.481,1.958,1.588,1.588,0,0,0,1.378.678,1.592,1.592,0,0,0,1.361-.669,3.674,3.674,0,0,0,.49-2.141,3.324,3.324,0,0,0-.49-1.945,1.592,1.592,0,0,0-1.378-.69,1.566,1.566,0,0,0-1.361.686A3.735,3.735,0,0,0-26.114-4.4Zm9.795-4.578.075,1.038a3.136,3.136,0,0,1,2.582-1.2,2.606,2.606,0,0,1,2.125.838A3.912,3.912,0,0,1-10.824-5.8V0h-2.4V-5.744a1.556,1.556,0,0,0-.332-1.108,1.486,1.486,0,0,0-1.1-.344,1.65,1.65,0,0,0-1.519.863V0h-2.4V-8.981ZM-3.8,0a2.664,2.664,0,0,1-.241-.805A2.9,2.9,0,0,1-6.309.166,3.189,3.189,0,0,1-8.5-.6a2.456,2.456,0,0,1-.867-1.926A2.538,2.538,0,0,1-8.3-4.715a5.222,5.222,0,0,1,3.059-.772h1.1V-6a1.48,1.48,0,0,0-.32-1A1.257,1.257,0,0,0-5.47-7.371a1.429,1.429,0,0,0-.95.291.987.987,0,0,0-.344.8h-2.4a2.41,2.41,0,0,1,.481-1.444A3.182,3.182,0,0,1-7.321-8.77a4.961,4.961,0,0,1,1.976-.378,3.92,3.92,0,0,1,2.635.834,2.918,2.918,0,0,1,.975,2.345v3.893A4.294,4.294,0,0,0-1.378-.141V0ZM-5.786-1.668a2.066,2.066,0,0,0,.979-.237,1.554,1.554,0,0,0,.664-.635V-4.084h-.9q-1.8,0-1.917,1.245l-.008.141a.96.96,0,0,0,.315.739A1.225,1.225,0,0,0-5.786-1.668ZM2.64,0H.232V-12.75H2.64ZM7.147,0H4.74V-8.981H7.147ZM4.6-11.306a1.181,1.181,0,0,1,.361-.888,1.356,1.356,0,0,1,.984-.349,1.36,1.36,0,0,1,.979.349,1.175,1.175,0,0,1,.365.888,1.178,1.178,0,0,1-.369.9,1.363,1.363,0,0,1-.975.349,1.363,1.363,0,0,1-.975-.349A1.178,1.178,0,0,1,4.6-11.306Zm4.15,6.749A5.413,5.413,0,0,1,9.691-7.9a3.057,3.057,0,0,1,2.577-1.245,2.751,2.751,0,0,1,2.167.979V-12.75h2.407V0H14.676L14.56-.955A2.823,2.823,0,0,1,12.252.166,3.049,3.049,0,0,1,9.708-1.083,5.587,5.587,0,0,1,8.749-4.557Zm2.4.179a3.546,3.546,0,0,0,.44,1.937,1.433,1.433,0,0,0,1.278.673,1.605,1.605,0,0,0,1.569-.939v-3.55A1.582,1.582,0,0,0,12.883-7.2Q11.148-7.2,11.148-4.379ZM23.906,0a2.664,2.664,0,0,1-.241-.805A2.9,2.9,0,0,1,21.4.166,3.189,3.189,0,0,1,19.212-.6a2.456,2.456,0,0,1-.867-1.926A2.538,2.538,0,0,1,19.4-4.715a5.222,5.222,0,0,1,3.059-.772h1.1V-6a1.48,1.48,0,0,0-.32-1,1.257,1.257,0,0,0-1.009-.374,1.429,1.429,0,0,0-.95.291.987.987,0,0,0-.344.8h-2.4a2.41,2.41,0,0,1,.481-1.444A3.182,3.182,0,0,1,20.387-8.77a4.961,4.961,0,0,1,1.976-.378A3.92,3.92,0,0,1,25-8.313a2.918,2.918,0,0,1,.975,2.345v3.893A4.294,4.294,0,0,0,26.33-.141V0ZM21.922-1.668a2.066,2.066,0,0,0,.979-.237,1.554,1.554,0,0,0,.664-.635V-4.084h-.9q-1.8,0-1.917,1.245l-.008.141a.96.96,0,0,0,.315.739A1.225,1.225,0,0,0,21.922-1.668Zm5.52-2.889A5.413,5.413,0,0,1,28.385-7.9a3.057,3.057,0,0,1,2.577-1.245,2.751,2.751,0,0,1,2.167.979V-12.75h2.407V0H33.369l-.116-.955A2.823,2.823,0,0,1,30.945.166,3.049,3.049,0,0,1,28.4-1.083,5.587,5.587,0,0,1,27.442-4.557Zm2.4.179a3.546,3.546,0,0,0,.44,1.937,1.433,1.433,0,0,0,1.278.673,1.605,1.605,0,0,0,1.569-.939v-3.55A1.582,1.582,0,0,0,31.576-7.2Q29.841-7.2,29.841-4.379Zm11.9-.536a12.739,12.739,0,0,1,.506-3.619,9.551,9.551,0,0,1,1.494-3.042,5.579,5.579,0,0,1,2.142-1.839l.465,1.295a5.778,5.778,0,0,0-1.893,2.772,12.837,12.837,0,0,0-.681,4.383v.257a13.082,13.082,0,0,0,.672,4.4,5.89,5.89,0,0,0,1.9,2.814l-.465,1.27a5.581,5.581,0,0,1-2.1-1.789,9.391,9.391,0,0,1-1.49-2.959,12.663,12.663,0,0,1-.548-3.5ZM51.73.166a4.409,4.409,0,0,1-3.217-1.212,4.308,4.308,0,0,1-1.241-3.229v-.232a5.426,5.426,0,0,1,.523-2.42,3.838,3.838,0,0,1,1.482-1.644,4.159,4.159,0,0,1,2.187-.577,3.727,3.727,0,0,1,2.9,1.162,4.722,4.722,0,0,1,1.058,3.3v.979H49.705a2.229,2.229,0,0,0,.7,1.411,2.12,2.12,0,0,0,1.482.531,2.589,2.589,0,0,0,2.167-1l1.179,1.32A3.6,3.6,0,0,1,53.772-.261,4.793,4.793,0,0,1,51.73.166Zm-.274-7.379A1.5,1.5,0,0,0,50.3-6.73a2.5,2.5,0,0,0-.569,1.384h3.337v-.192a1.786,1.786,0,0,0-.432-1.238A1.547,1.547,0,0,0,51.457-7.213ZM61.65-2.482a.773.773,0,0,0-.436-.693,4.95,4.95,0,0,0-1.4-.452q-3.2-.672-3.2-2.723a2.468,2.468,0,0,1,.992-2,4,4,0,0,1,2.594-.8,4.307,4.307,0,0,1,2.735.805A2.538,2.538,0,0,1,63.958-6.25h-2.4a1.161,1.161,0,0,0-.332-.851,1.405,1.405,0,0,0-1.038-.336,1.436,1.436,0,0,0-.938.274.865.865,0,0,0-.332.7.739.739,0,0,0,.378.643,3.885,3.885,0,0,0,1.274.423,10.407,10.407,0,0,1,1.511.4,2.482,2.482,0,0,1,1.9,2.416A2.343,2.343,0,0,1,62.928-.594a4.548,4.548,0,0,1-2.723.76,4.75,4.75,0,0,1-2-.4,3.363,3.363,0,0,1-1.374-1.1,2.565,2.565,0,0,1-.5-1.515H58.6a1.252,1.252,0,0,0,.473.979,1.877,1.877,0,0,0,1.179.34A1.737,1.737,0,0,0,61.3-1.8.814.814,0,0,0,61.65-2.482Zm8.01-2.241a12.088,12.088,0,0,1-.54,3.611,9.8,9.8,0,0,1-1.552,3.063A5.593,5.593,0,0,1,65.4,3.777l-.465-1.27A5.837,5.837,0,0,0,66.8-.232,12.685,12.685,0,0,0,67.5-4.491v-.44a12.971,12.971,0,0,0-.677-4.375,6.084,6.084,0,0,0-1.888-2.839l.465-1.27a5.594,5.594,0,0,1,2.129,1.776,9.675,9.675,0,0,1,1.552,3A12,12,0,0,1,69.66-5.1Z" transform="translate(921.68 2398.894)" fill="#12263f"/>
    <path id="Trazado_198241" data-name="Trazado 198241" d="M-17.826-5.238h-4.781V-2H-17V0h-8.1V-12.086h8.085v2.017h-5.595v2.88h4.781Zm7,2.756a.773.773,0,0,0-.436-.693,4.95,4.95,0,0,0-1.4-.452q-3.2-.672-3.2-2.723a2.468,2.468,0,0,1,.992-2,4,4,0,0,1,2.594-.8,4.307,4.307,0,0,1,2.735.805A2.538,2.538,0,0,1-8.521-6.25h-2.4a1.161,1.161,0,0,0-.332-.851,1.405,1.405,0,0,0-1.038-.336,1.436,1.436,0,0,0-.938.274.865.865,0,0,0-.332.7.739.739,0,0,0,.378.643,3.885,3.885,0,0,0,1.274.423A10.407,10.407,0,0,1-10.4-5,2.482,2.482,0,0,1-8.5-2.582,2.343,2.343,0,0,1-9.55-.594a4.548,4.548,0,0,1-2.723.76,4.75,4.75,0,0,1-2-.4,3.363,3.363,0,0,1-1.374-1.1,2.565,2.565,0,0,1-.5-1.515h2.274a1.252,1.252,0,0,0,.473.979,1.877,1.877,0,0,0,1.179.34A1.737,1.737,0,0,0-11.181-1.8.814.814,0,0,0-10.828-2.482Zm6.749-8.708v2.208h1.536v1.76H-4.08v4.482a1.07,1.07,0,0,0,.191.714.959.959,0,0,0,.73.216,3.826,3.826,0,0,0,.706-.058V-.05A4.939,4.939,0,0,1-3.906.166,2.29,2.29,0,0,1-6.479-2.382V-7.222H-7.79v-1.76h1.312v-2.208ZM4,0a2.664,2.664,0,0,1-.241-.805A2.9,2.9,0,0,1,1.49.166,3.189,3.189,0,0,1-.7-.6a2.456,2.456,0,0,1-.867-1.926A2.538,2.538,0,0,1-.506-4.715a5.222,5.222,0,0,1,3.059-.772h1.1V-6a1.48,1.48,0,0,0-.32-1,1.257,1.257,0,0,0-1.009-.374,1.429,1.429,0,0,0-.95.291.987.987,0,0,0-.344.8h-2.4A2.41,2.41,0,0,1-.884-7.728,3.182,3.182,0,0,1,.477-8.77a4.961,4.961,0,0,1,1.976-.378,3.92,3.92,0,0,1,2.635.834,2.918,2.918,0,0,1,.975,2.345v3.893A4.294,4.294,0,0,0,6.421-.141V0ZM2.013-1.668a2.066,2.066,0,0,0,.979-.237,1.554,1.554,0,0,0,.664-.635V-4.084h-.9q-1.8,0-1.917,1.245L.834-2.7a.96.96,0,0,0,.315.739A1.225,1.225,0,0,0,2.013-1.668Zm5.52-2.889A5.413,5.413,0,0,1,8.475-7.9a3.057,3.057,0,0,1,2.577-1.245,2.751,2.751,0,0,1,2.167.979V-12.75h2.407V0H13.46l-.116-.955A2.823,2.823,0,0,1,11.036.166,3.049,3.049,0,0,1,8.492-1.083,5.587,5.587,0,0,1,7.533-4.557Zm2.4.179a3.546,3.546,0,0,0,.44,1.937,1.433,1.433,0,0,0,1.278.673,1.605,1.605,0,0,0,1.569-.939v-3.55A1.582,1.582,0,0,0,11.667-7.2Q9.932-7.2,9.932-4.379Zm7.18-.2a5.327,5.327,0,0,1,.515-2.382,3.768,3.768,0,0,1,1.482-1.619,4.323,4.323,0,0,1,2.245-.573,4.09,4.09,0,0,1,2.968,1.112A4.464,4.464,0,0,1,25.6-5.014l.017.614a4.694,4.694,0,0,1-1.154,3.316A4.011,4.011,0,0,1,21.37.166a4.031,4.031,0,0,1-3.1-1.245,4.777,4.777,0,0,1-1.158-3.387Zm2.4.17a3.357,3.357,0,0,0,.481,1.958,1.588,1.588,0,0,0,1.378.678,1.592,1.592,0,0,0,1.361-.669,3.674,3.674,0,0,0,.49-2.141,3.324,3.324,0,0,0-.49-1.945,1.592,1.592,0,0,0-1.378-.69,1.566,1.566,0,0,0-1.361.686A3.735,3.735,0,0,0,19.511-4.4ZM-32.3,15.086a12.739,12.739,0,0,1,.506-3.619A9.551,9.551,0,0,1-30.3,8.425,5.579,5.579,0,0,1-28.16,6.586l.465,1.295a5.778,5.778,0,0,0-1.893,2.772,12.837,12.837,0,0,0-.681,4.383v.257a13.082,13.082,0,0,0,.672,4.4,5.89,5.89,0,0,0,1.9,2.814l-.465,1.27a5.581,5.581,0,0,1-2.1-1.789,9.391,9.391,0,0,1-1.49-2.959,12.663,12.663,0,0,1-.548-3.5Zm13.29-.324h-4.781V18h5.611v2h-8.1V7.914H-18.2V9.931h-5.595v2.88h4.781Zm4.341-3.744.075,1.038a3.136,3.136,0,0,1,2.582-1.2,2.606,2.606,0,0,1,2.125.838A3.912,3.912,0,0,1-9.177,14.2V20h-2.4V14.256a1.556,1.556,0,0,0-.332-1.108,1.486,1.486,0,0,0-1.1-.344,1.65,1.65,0,0,0-1.519.863V20h-2.4V11.019ZM-4.487,8.811v2.208h1.536v1.76H-4.487v4.482a1.07,1.07,0,0,0,.191.714.959.959,0,0,0,.73.216,3.826,3.826,0,0,0,.706-.058V19.95a4.938,4.938,0,0,1-1.453.216,2.29,2.29,0,0,1-2.573-2.548V12.778H-8.2v-1.76h1.312V8.811Zm7.919,4.458a6.517,6.517,0,0,0-.863-.066,1.757,1.757,0,0,0-1.785.921V20h-2.4V11.019H.652l.066,1.071a2.223,2.223,0,0,1,2-1.237,2.514,2.514,0,0,1,.747.108Zm5.13,6.9a4.409,4.409,0,0,1-3.217-1.212A4.308,4.308,0,0,1,4.1,15.725v-.232a5.426,5.426,0,0,1,.523-2.42,3.838,3.838,0,0,1,1.482-1.644A4.159,4.159,0,0,1,8.3,10.853a3.727,3.727,0,0,1,2.9,1.162,4.722,4.722,0,0,1,1.058,3.3v.979H6.537a2.229,2.229,0,0,0,.7,1.411,2.12,2.12,0,0,0,1.482.531,2.589,2.589,0,0,0,2.167-1l1.179,1.32A3.6,3.6,0,0,1,10.6,19.739,4.793,4.793,0,0,1,8.562,20.166Zm-.274-7.379a1.5,1.5,0,0,0-1.158.484,2.5,2.5,0,0,0-.569,1.384H9.9v-.192a1.786,1.786,0,0,0-.432-1.238A1.547,1.547,0,0,0,8.288,12.787Zm4.98,2.656a5.264,5.264,0,0,1,.984-3.329A3.187,3.187,0,0,1,16.9,10.853a2.8,2.8,0,0,1,2.3,1.013l.1-.847h2.175V19.7a3.839,3.839,0,0,1-.535,2.05,3.439,3.439,0,0,1-1.507,1.328,5.3,5.3,0,0,1-2.274.457,4.925,4.925,0,0,1-1.926-.394,3.418,3.418,0,0,1-1.419-1.017l1.063-1.461a2.81,2.81,0,0,0,2.175,1,2.057,2.057,0,0,0,1.486-.51,1.915,1.915,0,0,0,.531-1.448v-.481a2.775,2.775,0,0,1-2.183.938A3.179,3.179,0,0,1,14.269,18.9a5.262,5.262,0,0,1-1-3.358Zm2.4.179a3.278,3.278,0,0,0,.49,1.916,1.558,1.558,0,0,0,1.345.694,1.666,1.666,0,0,0,1.569-.823V13.626a1.662,1.662,0,0,0-1.552-.823,1.568,1.568,0,0,0-1.357.707A3.694,3.694,0,0,0,15.668,15.621Zm7.778,3.2a1.208,1.208,0,0,1,.386-.93,1.5,1.5,0,0,1,1.942,0,1.208,1.208,0,0,1,.386.93,1.191,1.191,0,0,1-.382.917,1.525,1.525,0,0,1-1.951,0A1.191,1.191,0,0,1,23.446,18.821Zm8.948-3.544a12.088,12.088,0,0,1-.54,3.611A9.8,9.8,0,0,1,30.3,21.951a5.592,5.592,0,0,1-2.167,1.826l-.465-1.27a5.837,5.837,0,0,0,1.859-2.739,12.685,12.685,0,0,0,.706-4.258v-.44a12.971,12.971,0,0,0-.677-4.375,6.084,6.084,0,0,0-1.888-2.839l.465-1.27a5.594,5.594,0,0,1,2.129,1.776,9.675,9.675,0,0,1,1.552,3,12,12,0,0,1,.577,3.544Z" transform="translate(1057.605 2388.051)" fill="#12263f"/>
    <path id="Trazado_198242" data-name="Trazado 198242" d="M-34.486-3l2.739-9.089h2.772L-33.182,0h-2.6l-4.192-12.086h2.764Zm11.314,3a2.664,2.664,0,0,1-.241-.805,2.9,2.9,0,0,1-2.266.971A3.189,3.189,0,0,1-27.866-.6a2.456,2.456,0,0,1-.867-1.926,2.538,2.538,0,0,1,1.058-2.191,5.222,5.222,0,0,1,3.059-.772h1.1V-6a1.48,1.48,0,0,0-.32-1,1.257,1.257,0,0,0-1.009-.374,1.429,1.429,0,0,0-.95.291.987.987,0,0,0-.344.8h-2.4a2.41,2.41,0,0,1,.481-1.444A3.182,3.182,0,0,1-26.691-8.77a4.961,4.961,0,0,1,1.976-.378,3.92,3.92,0,0,1,2.635.834A2.918,2.918,0,0,1-21.1-5.968v3.893a4.294,4.294,0,0,0,.357,1.934V0Zm-1.984-1.668a2.066,2.066,0,0,0,.979-.237,1.554,1.554,0,0,0,.664-.635V-4.084h-.9q-1.8,0-1.917,1.245l-.008.141a.96.96,0,0,0,.315.739A1.225,1.225,0,0,0-25.156-1.668ZM-16.73,0h-2.407V-12.75h2.407Zm4.507,0H-14.63V-8.981h2.407Zm-2.548-11.306a1.181,1.181,0,0,1,.361-.888,1.356,1.356,0,0,1,.984-.349,1.36,1.36,0,0,1,.979.349,1.175,1.175,0,0,1,.365.888,1.178,1.178,0,0,1-.369.9,1.363,1.363,0,0,1-.975.349,1.363,1.363,0,0,1-.975-.349A1.178,1.178,0,0,1-14.771-11.306Zm4.15,6.749A5.413,5.413,0,0,1-9.679-7.9,3.057,3.057,0,0,1-7.1-9.147a2.751,2.751,0,0,1,2.167.979V-12.75h2.407V0H-4.694L-4.81-.955A2.823,2.823,0,0,1-7.118.166,3.049,3.049,0,0,1-9.662-1.083,5.587,5.587,0,0,1-10.621-4.557Zm2.4.179a3.546,3.546,0,0,0,.44,1.937A1.433,1.433,0,0,0-6.5-1.768a1.605,1.605,0,0,0,1.569-.939v-3.55A1.582,1.582,0,0,0-6.487-7.2Q-8.222-7.2-8.222-4.379ZM4.536,0A2.664,2.664,0,0,1,4.3-.805,2.9,2.9,0,0,1,2.03.166,3.189,3.189,0,0,1-.158-.6a2.456,2.456,0,0,1-.867-1.926A2.538,2.538,0,0,1,.033-4.715a5.222,5.222,0,0,1,3.059-.772H4.2V-6a1.48,1.48,0,0,0-.32-1,1.257,1.257,0,0,0-1.009-.374,1.429,1.429,0,0,0-.95.291.987.987,0,0,0-.344.8h-2.4A2.41,2.41,0,0,1-.344-7.728,3.182,3.182,0,0,1,1.017-8.77a4.961,4.961,0,0,1,1.976-.378,3.92,3.92,0,0,1,2.635.834A2.918,2.918,0,0,1,6.6-5.968v3.893A4.294,4.294,0,0,0,6.96-.141V0ZM2.552-1.668a2.066,2.066,0,0,0,.979-.237A1.554,1.554,0,0,0,4.2-2.54V-4.084H3.3q-1.8,0-1.917,1.245L1.374-2.7a.96.96,0,0,0,.315.739A1.225,1.225,0,0,0,2.552-1.668Zm9.629-.1a1.573,1.573,0,0,0,1.079-.365,1.28,1.28,0,0,0,.432-.971h2.25a3.077,3.077,0,0,1-.5,1.673A3.286,3.286,0,0,1,14.1-.253a4.2,4.2,0,0,1-1.88.419A3.9,3.9,0,0,1,9.185-1.058,4.845,4.845,0,0,1,8.073-4.441V-4.6a4.79,4.79,0,0,1,1.1-3.312,3.854,3.854,0,0,1,3.03-1.237,3.778,3.778,0,0,1,2.7.959,3.4,3.4,0,0,1,1.033,2.552h-2.25a1.648,1.648,0,0,0-.432-1.139,1.439,1.439,0,0,0-1.1-.438A1.445,1.445,0,0,0,10.9-6.6a3.541,3.541,0,0,0-.427,1.983v.249a3.586,3.586,0,0,0,.423,2A1.463,1.463,0,0,0,12.181-1.768ZM19.843,0H17.436V-8.981h2.407ZM17.295-11.306a1.181,1.181,0,0,1,.361-.888,1.356,1.356,0,0,1,.984-.349,1.36,1.36,0,0,1,.979.349,1.175,1.175,0,0,1,.365.888,1.178,1.178,0,0,1-.369.9,1.363,1.363,0,0,1-.975.349,1.363,1.363,0,0,1-.975-.349A1.178,1.178,0,0,1,17.295-11.306Zm4.15,6.732a5.327,5.327,0,0,1,.515-2.382,3.768,3.768,0,0,1,1.482-1.619,4.323,4.323,0,0,1,2.245-.573,4.09,4.09,0,0,1,2.968,1.112,4.464,4.464,0,0,1,1.282,3.021l.017.614A4.694,4.694,0,0,1,28.8-1.083,4.011,4.011,0,0,1,25.7.166a4.031,4.031,0,0,1-3.1-1.245,4.777,4.777,0,0,1-1.158-3.387Zm2.4.17a3.357,3.357,0,0,0,.481,1.958,1.588,1.588,0,0,0,1.378.678,1.592,1.592,0,0,0,1.361-.669,3.674,3.674,0,0,0,.49-2.141,3.324,3.324,0,0,0-.49-1.945,1.592,1.592,0,0,0-1.378-.69,1.566,1.566,0,0,0-1.361.686A3.735,3.735,0,0,0,23.844-4.4Zm9.795-4.578.075,1.038a3.136,3.136,0,0,1,2.582-1.2,2.606,2.606,0,0,1,2.125.838A3.912,3.912,0,0,1,39.134-5.8V0h-2.4V-5.744A1.556,1.556,0,0,0,36.4-6.852,1.486,1.486,0,0,0,35.3-7.2a1.65,1.65,0,0,0-1.519.863V0h-2.4V-8.981ZM-65.4,15.086a12.739,12.739,0,0,1,.506-3.619A9.551,9.551,0,0,1-63.4,8.425,5.579,5.579,0,0,1-61.26,6.586l.465,1.295a5.778,5.778,0,0,0-1.893,2.772,12.837,12.837,0,0,0-.681,4.383v.257a13.082,13.082,0,0,0,.672,4.4,5.89,5.89,0,0,0,1.9,2.814l-.465,1.27a5.581,5.581,0,0,1-2.1-1.789,9.391,9.391,0,0,1-1.49-2.959,12.663,12.663,0,0,1-.548-3.5Zm8.508.656V20h-2.49V7.914h4.715a5.455,5.455,0,0,1,2.395.5,3.67,3.67,0,0,1,1.59,1.415,3.946,3.946,0,0,1,.556,2.088,3.47,3.47,0,0,1-1.216,2.8,5.065,5.065,0,0,1-3.366,1.025Zm0-2.017h2.225a2.187,2.187,0,0,0,1.507-.465,1.691,1.691,0,0,0,.519-1.328,1.994,1.994,0,0,0-.523-1.436,1.953,1.953,0,0,0-1.444-.564h-2.283Zm12.343,6.441a4.409,4.409,0,0,1-3.217-1.212,4.308,4.308,0,0,1-1.241-3.229v-.232a5.426,5.426,0,0,1,.523-2.42A3.838,3.838,0,0,1-47,11.429a4.159,4.159,0,0,1,2.187-.577,3.727,3.727,0,0,1,2.9,1.162,4.722,4.722,0,0,1,1.058,3.3v.979h-5.719a2.229,2.229,0,0,0,.7,1.411,2.12,2.12,0,0,0,1.482.531,2.589,2.589,0,0,0,2.167-1l1.179,1.32a3.6,3.6,0,0,1-1.461,1.191A4.793,4.793,0,0,1-44.55,20.166Zm-.274-7.379a1.5,1.5,0,0,0-1.158.484,2.5,2.5,0,0,0-.569,1.384h3.337v-.192a1.786,1.786,0,0,0-.432-1.238A1.547,1.547,0,0,0-44.824,12.787Zm10.376.481a6.517,6.517,0,0,0-.863-.066,1.757,1.757,0,0,0-1.785.921V20h-2.4V11.019h2.266l.066,1.071a2.223,2.223,0,0,1,2-1.237,2.514,2.514,0,0,1,.747.108Zm6.018,4.25a.773.773,0,0,0-.436-.693,4.95,4.95,0,0,0-1.4-.452q-3.2-.672-3.2-2.723a2.468,2.468,0,0,1,.992-2,4,4,0,0,1,2.594-.8,4.307,4.307,0,0,1,2.735.805,2.538,2.538,0,0,1,1.025,2.092h-2.4a1.161,1.161,0,0,0-.332-.851,1.405,1.405,0,0,0-1.038-.336,1.436,1.436,0,0,0-.938.274.865.865,0,0,0-.332.7.739.739,0,0,0,.378.643,3.885,3.885,0,0,0,1.274.423A10.407,10.407,0,0,1-28,15a2.482,2.482,0,0,1,1.9,2.416,2.343,2.343,0,0,1-1.054,1.988,4.548,4.548,0,0,1-2.723.76,4.75,4.75,0,0,1-2-.4,3.363,3.363,0,0,1-1.374-1.1,2.565,2.565,0,0,1-.5-1.515h2.274a1.252,1.252,0,0,0,.473.979,1.877,1.877,0,0,0,1.179.34,1.737,1.737,0,0,0,1.042-.261A.814.814,0,0,0-28.43,17.518Zm3.5-2.092a5.327,5.327,0,0,1,.515-2.382,3.768,3.768,0,0,1,1.482-1.619,4.323,4.323,0,0,1,2.245-.573,4.09,4.09,0,0,1,2.968,1.112,4.464,4.464,0,0,1,1.282,3.021l.017.614a4.694,4.694,0,0,1-1.154,3.316,4.011,4.011,0,0,1-3.1,1.249,4.031,4.031,0,0,1-3.1-1.245,4.777,4.777,0,0,1-1.158-3.387Zm2.4.17a3.357,3.357,0,0,0,.481,1.958,1.588,1.588,0,0,0,1.378.678,1.592,1.592,0,0,0,1.361-.669,3.674,3.674,0,0,0,.49-2.141,3.324,3.324,0,0,0-.49-1.945,1.592,1.592,0,0,0-1.378-.69,1.566,1.566,0,0,0-1.361.686A3.735,3.735,0,0,0-22.528,15.6Zm9.795-4.578.075,1.038a3.136,3.136,0,0,1,2.582-1.2,2.606,2.606,0,0,1,2.125.838A3.912,3.912,0,0,1-7.238,14.2V20h-2.4V14.256a1.556,1.556,0,0,0-.332-1.108,1.486,1.486,0,0,0-1.1-.344,1.65,1.65,0,0,0-1.519.863V20h-2.4V11.019ZM-.216,20a2.664,2.664,0,0,1-.241-.805,2.9,2.9,0,0,1-2.266.971A3.189,3.189,0,0,1-4.91,19.4a2.456,2.456,0,0,1-.867-1.926,2.538,2.538,0,0,1,1.058-2.191,5.222,5.222,0,0,1,3.059-.772h1.1V14a1.48,1.48,0,0,0-.32-1,1.257,1.257,0,0,0-1.009-.374,1.429,1.429,0,0,0-.95.291.987.987,0,0,0-.344.8h-2.4A2.41,2.41,0,0,1-5.1,12.272,3.182,3.182,0,0,1-3.735,11.23a4.961,4.961,0,0,1,1.976-.378,3.92,3.92,0,0,1,2.635.834,2.918,2.918,0,0,1,.975,2.345v3.893a4.294,4.294,0,0,0,.357,1.934V20ZM-2.2,18.332a2.066,2.066,0,0,0,.979-.237,1.554,1.554,0,0,0,.664-.635V15.916h-.9q-1.8,0-1.917,1.245l-.008.141a.96.96,0,0,0,.315.739A1.225,1.225,0,0,0-2.2,18.332Zm10.758-.813a.773.773,0,0,0-.436-.693,4.95,4.95,0,0,0-1.4-.452q-3.2-.672-3.2-2.723a2.468,2.468,0,0,1,.992-2,4,4,0,0,1,2.594-.8,4.307,4.307,0,0,1,2.735.805,2.538,2.538,0,0,1,1.025,2.092h-2.4a1.161,1.161,0,0,0-.332-.851A1.405,1.405,0,0,0,7.1,12.563a1.436,1.436,0,0,0-.938.274.865.865,0,0,0-.332.7.739.739,0,0,0,.378.643,3.885,3.885,0,0,0,1.274.423A10.407,10.407,0,0,1,8.99,15a2.482,2.482,0,0,1,1.9,2.416,2.343,2.343,0,0,1-1.054,1.988,4.548,4.548,0,0,1-2.723.76,4.75,4.75,0,0,1-2-.4,3.363,3.363,0,0,1-1.374-1.1,2.565,2.565,0,0,1-.5-1.515H5.512a1.252,1.252,0,0,0,.473.979,1.877,1.877,0,0,0,1.179.34A1.737,1.737,0,0,0,8.205,18.2.814.814,0,0,0,8.558,17.518Zm4.632,3.52H11.405L15.854,7.914h1.785ZM19.44,20V12.778H18.1v-1.76H19.44v-.764a3.1,3.1,0,0,1,.867-2.345,3.359,3.359,0,0,1,2.428-.834,5.608,5.608,0,0,1,1.22.166L23.931,9.1a3.058,3.058,0,0,0-.73-.075q-1.353,0-1.353,1.27v.722h1.785v1.76H21.848V20Zm9.372.166A4.409,4.409,0,0,1,25.6,18.954a4.308,4.308,0,0,1-1.241-3.229v-.232a5.426,5.426,0,0,1,.523-2.42,3.838,3.838,0,0,1,1.482-1.644,4.159,4.159,0,0,1,2.187-.577,3.727,3.727,0,0,1,2.9,1.162,4.722,4.722,0,0,1,1.058,3.3v.979H26.787a2.229,2.229,0,0,0,.7,1.411,2.12,2.12,0,0,0,1.482.531,2.589,2.589,0,0,0,2.167-1l1.179,1.32a3.6,3.6,0,0,1-1.461,1.191A4.793,4.793,0,0,1,28.812,20.166Zm-.274-7.379a1.5,1.5,0,0,0-1.158.484,2.5,2.5,0,0,0-.569,1.384h3.337v-.192a1.786,1.786,0,0,0-.432-1.238A1.547,1.547,0,0,0,28.538,12.787ZM37.6,18.232a1.573,1.573,0,0,0,1.079-.365,1.28,1.28,0,0,0,.432-.971h2.25a3.077,3.077,0,0,1-.5,1.673,3.286,3.286,0,0,1-1.341,1.179,4.2,4.2,0,0,1-1.88.419,3.9,3.9,0,0,1-3.038-1.224,4.845,4.845,0,0,1-1.112-3.383V15.4a4.79,4.79,0,0,1,1.1-3.312,3.854,3.854,0,0,1,3.03-1.237,3.778,3.778,0,0,1,2.7.959,3.4,3.4,0,0,1,1.033,2.552h-2.25a1.648,1.648,0,0,0-.432-1.139,1.6,1.6,0,0,0-2.362.173,3.541,3.541,0,0,0-.427,1.983v.249a3.586,3.586,0,0,0,.423,2A1.463,1.463,0,0,0,37.6,18.232ZM45.073,12a2.994,2.994,0,0,1,2.4-1.146q2.922,0,2.963,3.4V20h-2.4V14.314a1.669,1.669,0,0,0-.332-1.141,1.423,1.423,0,0,0-1.1-.369,1.633,1.633,0,0,0-1.527.813V20h-2.4V7.25h2.4ZM57.45,20a2.664,2.664,0,0,1-.241-.805,2.9,2.9,0,0,1-2.266.971,3.189,3.189,0,0,1-2.187-.764,2.456,2.456,0,0,1-.867-1.926,2.538,2.538,0,0,1,1.058-2.191,5.222,5.222,0,0,1,3.059-.772h1.1V14a1.48,1.48,0,0,0-.32-1,1.257,1.257,0,0,0-1.009-.374,1.429,1.429,0,0,0-.95.291.987.987,0,0,0-.344.8h-2.4a2.41,2.41,0,0,1,.481-1.444A3.182,3.182,0,0,1,53.93,11.23a4.961,4.961,0,0,1,1.976-.378,3.92,3.92,0,0,1,2.635.834,2.918,2.918,0,0,1,.975,2.345v3.893a4.294,4.294,0,0,0,.357,1.934V20Zm-1.984-1.668a2.066,2.066,0,0,0,.979-.237,1.554,1.554,0,0,0,.664-.635V15.916h-.9q-1.8,0-1.917,1.245l-.008.141a.96.96,0,0,0,.315.739A1.225,1.225,0,0,0,55.466,18.332Zm10.027-3.055a12.088,12.088,0,0,1-.54,3.611A9.8,9.8,0,0,1,63.4,21.951a5.592,5.592,0,0,1-2.167,1.826l-.465-1.27a5.837,5.837,0,0,0,1.859-2.739,12.685,12.685,0,0,0,.706-4.258v-.44a12.972,12.972,0,0,0-.677-4.375A6.084,6.084,0,0,0,60.77,7.856l.465-1.27a5.594,5.594,0,0,1,2.129,1.776,9.675,9.675,0,0,1,1.552,3,12,12,0,0,1,.577,3.544Z" transform="translate(1218.226 2388.051)" fill="#12263f"/>
    <path id="Trazado_198243" data-name="Trazado 198243" d="M0,0H1028.87V5.647H0Z" transform="translate(285.564 2363)" fill="#ffb30b"/>
  </g>
</svg>
