<svg xmlns="http://www.w3.org/2000/svg" width="1070" height="393.001" viewBox="0 0 1070 393.001">
  <g id="Grupo_135024" data-name="Grupo 135024" transform="translate(-265.334 -433.999)">
    <path id="Trazado_198215" data-name="Trazado 198215" d="M0,0H564" transform="translate(518.334 628)" fill="none" stroke="#14263e" stroke-width="1"/>
    <path id="Trazado_116030" data-name="Trazado 116030" d="M4158.257,716.758h295.715a7.149,7.149,0,0,1,6.973,7.314v48.27a7.149,7.149,0,0,1-6.973,7.314H4158.257a7.146,7.146,0,0,1-6.973-7.312v-48.27A7.151,7.151,0,0,1,4158.257,716.758Z" transform="translate(-3505.864 -117.707)" fill="#084a93"/>
    <path id="Trazado_198216" data-name="Trazado 198216" d="M14.367-14.215H9.141V0H5.625V-14.215H.469v-2.848h13.9ZM20.941.234A6.225,6.225,0,0,1,16.4-1.477a6.082,6.082,0,0,1-1.752-4.559v-.328a7.66,7.66,0,0,1,.738-3.416,5.418,5.418,0,0,1,2.092-2.32,5.871,5.871,0,0,1,3.088-.814,5.262,5.262,0,0,1,4.1,1.641,6.667,6.667,0,0,1,1.494,4.652v1.383H18.082a3.146,3.146,0,0,0,.99,1.992,2.993,2.993,0,0,0,2.092.75,3.656,3.656,0,0,0,3.059-1.418l1.664,1.863A5.084,5.084,0,0,1,23.824-.369,6.767,6.767,0,0,1,20.941.234Zm-.387-10.418A2.116,2.116,0,0,0,18.92-9.5a3.535,3.535,0,0,0-.8,1.954h4.711v-.271a2.521,2.521,0,0,0-.609-1.748A2.183,2.183,0,0,0,20.555-10.184Zm.3-7.816h3.691L21.3-14.367H18.551ZM33.352-2.5a2.221,2.221,0,0,0,1.523-.516,1.807,1.807,0,0,0,.609-1.371H38.66a4.344,4.344,0,0,1-.7,2.361A4.64,4.64,0,0,1,36.064-.357,5.923,5.923,0,0,1,33.41.234a5.5,5.5,0,0,1-4.289-1.729,6.84,6.84,0,0,1-1.57-4.775v-.223a6.762,6.762,0,0,1,1.559-4.676,5.441,5.441,0,0,1,4.277-1.746A5.333,5.333,0,0,1,37.2-11.561a4.792,4.792,0,0,1,1.459,3.6H35.484a2.327,2.327,0,0,0-.609-1.608,2.032,2.032,0,0,0-1.547-.619,2.04,2.04,0,0,0-1.787.863,5,5,0,0,0-.6,2.8v.352a5.063,5.063,0,0,0,.6,2.817A2.065,2.065,0,0,0,33.352-2.5ZM43.711-12.68l.105,1.465a4.427,4.427,0,0,1,3.645-1.7,3.679,3.679,0,0,1,3,1.184,5.522,5.522,0,0,1,1.008,3.539V0H48.082V-8.109a2.2,2.2,0,0,0-.469-1.564,2.1,2.1,0,0,0-1.559-.486A2.33,2.33,0,0,0,43.91-8.941V0H40.523V-12.68ZM57.609,0h-3.4V-12.68h3.4Zm-3.6-15.961a1.668,1.668,0,0,1,.51-1.254,1.915,1.915,0,0,1,1.389-.492,1.919,1.919,0,0,1,1.383.492,1.658,1.658,0,0,1,.516,1.254,1.663,1.663,0,0,1-.521,1.266,1.924,1.924,0,0,1-1.377.492,1.924,1.924,0,0,1-1.377-.492A1.663,1.663,0,0,1,54.012-15.961ZM65.672-2.5A2.221,2.221,0,0,0,67.2-3.012,1.807,1.807,0,0,0,67.8-4.383H70.98a4.344,4.344,0,0,1-.7,2.361A4.64,4.64,0,0,1,68.385-.357,5.923,5.923,0,0,1,65.73.234a5.5,5.5,0,0,1-4.289-1.729,6.84,6.84,0,0,1-1.57-4.775v-.223a6.762,6.762,0,0,1,1.559-4.676,5.441,5.441,0,0,1,4.277-1.746,5.333,5.333,0,0,1,3.814,1.354,4.792,4.792,0,0,1,1.459,3.6H67.8A2.327,2.327,0,0,0,67.2-9.565a2.032,2.032,0,0,0-1.547-.619,2.04,2.04,0,0,0-1.787.863,5,5,0,0,0-.6,2.8v.352a5.063,5.063,0,0,0,.6,2.817A2.065,2.065,0,0,0,65.672-2.5ZM80.262,0a3.761,3.761,0,0,1-.34-1.137,4.1,4.1,0,0,1-3.2,1.371A4.5,4.5,0,0,1,73.635-.844,3.467,3.467,0,0,1,72.41-3.562,3.583,3.583,0,0,1,73.9-6.656a7.373,7.373,0,0,1,4.318-1.09h1.559v-.727a2.089,2.089,0,0,0-.451-1.406,1.775,1.775,0,0,0-1.424-.527,2.018,2.018,0,0,0-1.342.41,1.393,1.393,0,0,0-.486,1.125H72.691a3.4,3.4,0,0,1,.68-2.039,4.493,4.493,0,0,1,1.922-1.471,7,7,0,0,1,2.789-.533A5.534,5.534,0,0,1,81.8-11.736,4.12,4.12,0,0,1,83.18-8.426v5.5a6.062,6.062,0,0,0,.5,2.73V0Zm-2.8-2.355a2.917,2.917,0,0,0,1.383-.334,2.194,2.194,0,0,0,.938-.9v-2.18H78.516q-2.543,0-2.707,1.758l-.012.2a1.356,1.356,0,0,0,.445,1.043A1.73,1.73,0,0,0,77.461-2.355ZM92.648-3.5a1.091,1.091,0,0,0-.615-.979,6.989,6.989,0,0,0-1.975-.639q-4.523-.949-4.523-3.844a3.484,3.484,0,0,1,1.4-2.818A5.649,5.649,0,0,1,90.6-12.914a6.08,6.08,0,0,1,3.861,1.137,3.582,3.582,0,0,1,1.447,2.953H92.52a1.639,1.639,0,0,0-.469-1.2,1.984,1.984,0,0,0-1.465-.475,2.027,2.027,0,0,0-1.324.387,1.221,1.221,0,0,0-.469.984,1.044,1.044,0,0,0,.533.908,5.485,5.485,0,0,0,1.8.6,14.693,14.693,0,0,1,2.133.568q2.684.984,2.684,3.41A3.307,3.307,0,0,1,94.453-.838,6.42,6.42,0,0,1,90.609.234a6.706,6.706,0,0,1-2.83-.568A4.748,4.748,0,0,1,85.84-1.893a3.621,3.621,0,0,1-.7-2.139h3.211a1.768,1.768,0,0,0,.668,1.383,2.649,2.649,0,0,0,1.664.48,2.452,2.452,0,0,0,1.471-.369A1.149,1.149,0,0,0,92.648-3.5Zm10.922-2.93a7.641,7.641,0,0,1,1.33-4.723,4.316,4.316,0,0,1,3.639-1.758,3.884,3.884,0,0,1,3.059,1.383V-18H115V0h-3.059l-.164-1.348A3.985,3.985,0,0,1,108.516.234a4.3,4.3,0,0,1-3.592-1.764A7.887,7.887,0,0,1,103.57-6.434Zm3.387.252a5.005,5.005,0,0,0,.621,2.735,2.023,2.023,0,0,0,1.8.951A2.266,2.266,0,0,0,111.6-3.822V-8.834a2.234,2.234,0,0,0-2.191-1.326Q106.957-10.16,106.957-6.181Zm16.5,6.416a6.225,6.225,0,0,1-4.541-1.711,6.082,6.082,0,0,1-1.752-4.559v-.328a7.66,7.66,0,0,1,.738-3.416,5.418,5.418,0,0,1,2.092-2.32,5.871,5.871,0,0,1,3.088-.814,5.262,5.262,0,0,1,4.1,1.641,6.667,6.667,0,0,1,1.494,4.652v1.383H120.6a3.146,3.146,0,0,0,.99,1.992,2.993,2.993,0,0,0,2.092.75,3.656,3.656,0,0,0,3.059-1.418L128.4-2.051A5.084,5.084,0,0,1,126.34-.369,6.767,6.767,0,0,1,123.457.234Zm-.387-10.418a2.116,2.116,0,0,0-1.635.683,3.535,3.535,0,0,0-.8,1.954h4.711v-.271a2.521,2.521,0,0,0-.609-1.748A2.183,2.183,0,0,0,123.07-10.184Zm18.246,6.047,2.355-8.543h3.539L142.934,0H139.7l-4.277-12.68h3.539ZM155.871,0a3.761,3.761,0,0,1-.34-1.137,4.1,4.1,0,0,1-3.2,1.371,4.5,4.5,0,0,1-3.088-1.078,3.467,3.467,0,0,1-1.225-2.719,3.583,3.583,0,0,1,1.494-3.094,7.373,7.373,0,0,1,4.318-1.09h1.559v-.727a2.089,2.089,0,0,0-.451-1.406,1.775,1.775,0,0,0-1.424-.527,2.018,2.018,0,0,0-1.342.41,1.393,1.393,0,0,0-.486,1.125H148.3a3.4,3.4,0,0,1,.68-2.039,4.493,4.493,0,0,1,1.922-1.471,7,7,0,0,1,2.789-.533,5.534,5.534,0,0,1,3.721,1.178,4.12,4.12,0,0,1,1.377,3.311v5.5a6.062,6.062,0,0,0,.5,2.73V0Zm-2.8-2.355a2.917,2.917,0,0,0,1.383-.334,2.194,2.194,0,0,0,.938-.9v-2.18h-1.266q-2.543,0-2.707,1.758l-.012.2a1.356,1.356,0,0,0,.445,1.043A1.73,1.73,0,0,0,153.07-2.355ZM164.965,0h-3.4V-18h3.4Zm6.363,0h-3.4V-12.68h3.4Zm-3.6-15.961a1.668,1.668,0,0,1,.51-1.254,1.915,1.915,0,0,1,1.389-.492,1.919,1.919,0,0,1,1.383.492,1.658,1.658,0,0,1,.516,1.254,1.663,1.663,0,0,1-.521,1.266,1.924,1.924,0,0,1-1.377.492,1.924,1.924,0,0,1-1.377-.492A1.663,1.663,0,0,1,167.73-15.961Zm5.859,9.527a7.641,7.641,0,0,1,1.33-4.723,4.316,4.316,0,0,1,3.639-1.758,3.884,3.884,0,0,1,3.059,1.383V-18h3.4V0h-3.059l-.164-1.348A3.985,3.985,0,0,1,178.535.234a4.3,4.3,0,0,1-3.592-1.764A7.887,7.887,0,0,1,173.59-6.434Zm3.387.252a5.005,5.005,0,0,0,.621,2.735,2.023,2.023,0,0,0,1.8.951,2.266,2.266,0,0,0,2.215-1.326V-8.834a2.234,2.234,0,0,0-2.191-1.326Q176.977-10.16,176.977-6.181ZM194.988,0a3.761,3.761,0,0,1-.34-1.137,4.1,4.1,0,0,1-3.2,1.371,4.5,4.5,0,0,1-3.088-1.078,3.467,3.467,0,0,1-1.225-2.719,3.583,3.583,0,0,1,1.494-3.094,7.373,7.373,0,0,1,4.318-1.09h1.559v-.727a2.089,2.089,0,0,0-.451-1.406,1.775,1.775,0,0,0-1.424-.527,2.018,2.018,0,0,0-1.342.41,1.393,1.393,0,0,0-.486,1.125h-3.387a3.4,3.4,0,0,1,.68-2.039,4.493,4.493,0,0,1,1.922-1.471,7,7,0,0,1,2.789-.533,5.534,5.534,0,0,1,3.721,1.178,4.12,4.12,0,0,1,1.377,3.311v5.5a6.062,6.062,0,0,0,.5,2.73V0Zm-2.8-2.355a2.917,2.917,0,0,0,1.383-.334,2.194,2.194,0,0,0,.938-.9v-2.18h-1.266q-2.543,0-2.707,1.758l-.012.2a1.356,1.356,0,0,0,.445,1.043A1.73,1.73,0,0,0,192.188-2.355ZM205.781-2.5a2.221,2.221,0,0,0,1.523-.516,1.807,1.807,0,0,0,.609-1.371h3.176a4.344,4.344,0,0,1-.7,2.361,4.64,4.64,0,0,1-1.893,1.664,5.923,5.923,0,0,1-2.654.592,5.5,5.5,0,0,1-4.289-1.729,6.84,6.84,0,0,1-1.57-4.775v-.223a6.762,6.762,0,0,1,1.559-4.676,5.441,5.441,0,0,1,4.277-1.746,5.333,5.333,0,0,1,3.814,1.354,4.792,4.792,0,0,1,1.459,3.6h-3.176a2.327,2.327,0,0,0-.609-1.608,2.032,2.032,0,0,0-1.547-.619,2.04,2.04,0,0,0-1.787.863,5,5,0,0,0-.6,2.8v.352a5.063,5.063,0,0,0,.6,2.817A2.065,2.065,0,0,0,205.781-2.5ZM216.6,0h-3.4V-12.68h3.4ZM213-15.961a1.668,1.668,0,0,1,.51-1.254,1.915,1.915,0,0,1,1.389-.492,1.919,1.919,0,0,1,1.383.492,1.658,1.658,0,0,1,.516,1.254,1.663,1.663,0,0,1-.521,1.266,1.924,1.924,0,0,1-1.377.492,1.924,1.924,0,0,1-1.377-.492A1.663,1.663,0,0,1,213-15.961Zm5.859,9.5a7.52,7.52,0,0,1,.727-3.363,5.319,5.319,0,0,1,2.092-2.285,6.1,6.1,0,0,1,3.17-.809,5.774,5.774,0,0,1,4.189,1.57,6.3,6.3,0,0,1,1.811,4.266l.023.867a6.627,6.627,0,0,1-1.629,4.682A5.662,5.662,0,0,1,224.871.234a5.69,5.69,0,0,1-4.377-1.758A6.744,6.744,0,0,1,218.859-6.3Zm3.387.24a4.74,4.74,0,0,0,.68,2.764,2.242,2.242,0,0,0,1.945.957,2.247,2.247,0,0,0,1.922-.945,5.186,5.186,0,0,0,.691-3.022,4.692,4.692,0,0,0-.691-2.746,2.248,2.248,0,0,0-1.945-.974,2.211,2.211,0,0,0-1.922.968A5.274,5.274,0,0,0,222.246-6.217ZM225.516-18h3.691l-3.246,3.633h-2.754Zm10.559,5.32.105,1.465a4.427,4.427,0,0,1,3.645-1.7,3.679,3.679,0,0,1,3,1.184,5.522,5.522,0,0,1,1.008,3.539V0h-3.387V-8.109a2.2,2.2,0,0,0-.469-1.564,2.1,2.1,0,0,0-1.559-.486,2.33,2.33,0,0,0-2.145,1.219V0h-3.387V-12.68Z" transform="translate(676.369 638.46)" fill="#fff"/>
    <path id="Rectángulo_40686-2" data-name="Rectángulo 40686-2" d="M5,0H248a5,5,0,0,1,5,5V79a5,5,0,0,1-5,5H5a5,5,0,0,1-5-5V5A5,5,0,0,1,5,0Z" transform="translate(518.334 433.999)" fill="#b9ddfc"/>
    <path id="Trazado_198217" data-name="Trazado 198217" d="M-39.467-14.93l4.881,12.182,4.881-12.182h2.553V0h-1.969V-5.814l.185-6.275L-33.838,0h-1.507l-4.891-12.059.195,6.245V0H-42.01V-14.93ZM-17.124,0a3.985,3.985,0,0,1-.267-1.169A4.233,4.233,0,0,1-20.549.205,3.916,3.916,0,0,1-23.24-.723a3,3,0,0,1-1.051-2.353,3.136,3.136,0,0,1,1.318-2.692,6.212,6.212,0,0,1,3.707-.959h1.846V-7.6a2.131,2.131,0,0,0-.595-1.584,2.39,2.39,0,0,0-1.753-.59,2.766,2.766,0,0,0-1.7.513,1.511,1.511,0,0,0-.687,1.241h-1.907a2.618,2.618,0,0,1,.59-1.6,4.024,4.024,0,0,1,1.6-1.225,5.381,5.381,0,0,1,2.22-.451,4.386,4.386,0,0,1,3,.959A3.459,3.459,0,0,1-15.524-7.7v5.106a6.243,6.243,0,0,0,.39,2.43V0Zm-3.148-1.446a3.334,3.334,0,0,0,1.692-.461,2.791,2.791,0,0,0,1.159-1.2V-5.383h-1.487q-3.486,0-3.486,2.041A1.727,1.727,0,0,0-21.8-1.948,2.286,2.286,0,0,0-20.272-1.446ZM-9.977-13.781v2.687h2.071v1.466H-9.977v6.889a1.54,1.54,0,0,0,.277,1,1.165,1.165,0,0,0,.943.334,4.593,4.593,0,0,0,.9-.123V0a5.532,5.532,0,0,1-1.456.2,2.362,2.362,0,0,1-1.917-.769,3.3,3.3,0,0,1-.646-2.184v-6.88h-2.02v-1.466h2.02v-2.687ZM-.328-9.393a5.685,5.685,0,0,0-.933-.072A2.5,2.5,0,0,0-3.794-7.875V0h-1.9V-11.095h1.846l.031,1.282A2.954,2.954,0,0,1-1.169-11.3a1.938,1.938,0,0,1,.841.144ZM3.476,0H1.569V-11.095H3.476ZM3.5-15.74h2.3L3.045-12.725,1.518-12.73ZM8.388-1.548h6.491V0H6.07V-1.395l6.122-8.131H6.163v-1.569h8.408v1.343ZM21.749-5.64a6.5,6.5,0,0,1,1.21-4.107A3.826,3.826,0,0,1,26.127-11.3a3.848,3.848,0,0,1,3.086,1.333V-15.75h1.9V0H29.367l-.092-1.189A3.863,3.863,0,0,1,26.106.205a3.789,3.789,0,0,1-3.143-1.579A6.573,6.573,0,0,1,21.749-5.5Zm1.9.215a4.921,4.921,0,0,0,.779,2.953A2.519,2.519,0,0,0,26.578-1.4a2.767,2.767,0,0,0,2.635-1.62v-5.1A2.789,2.789,0,0,0,26.6-9.69a2.531,2.531,0,0,0-2.174,1.077A5.418,5.418,0,0,0,23.646-5.424ZM38.657.205a4.848,4.848,0,0,1-3.671-1.482A5.5,5.5,0,0,1,33.571-5.24v-.349A6.658,6.658,0,0,1,34.2-8.536a4.919,4.919,0,0,1,1.764-2.03,4.434,4.434,0,0,1,2.456-.733,4.155,4.155,0,0,1,3.363,1.425,6.171,6.171,0,0,1,1.2,4.081V-5H35.468a3.944,3.944,0,0,0,.959,2.651,3.014,3.014,0,0,0,2.333,1.01,3.3,3.3,0,0,0,1.7-.41,4.277,4.277,0,0,0,1.22-1.087l1.159.9A4.659,4.659,0,0,1,38.657.205Zm-.236-9.946a2.53,2.53,0,0,0-1.928.836,4.062,4.062,0,0,0-.964,2.343h5.558v-.144a3.613,3.613,0,0,0-.779-2.24A2.382,2.382,0,0,0,38.421-9.741Zm-88.906,20.96v2.687h2.071v1.466h-2.071v6.889a1.54,1.54,0,0,0,.277,1,1.165,1.165,0,0,0,.943.334,4.593,4.593,0,0,0,.9-.123V25a5.532,5.532,0,0,1-1.456.2,2.362,2.362,0,0,1-1.917-.769,3.3,3.3,0,0,1-.646-2.184v-6.88H-54.4V13.905h2.02V11.219Zm9.649,4.389a5.685,5.685,0,0,0-.933-.072A2.5,2.5,0,0,0-44.3,17.125V25h-1.9V13.905h1.846l.031,1.282A2.954,2.954,0,0,1-41.677,13.7a1.938,1.938,0,0,1,.841.144ZM-32.654,25a3.985,3.985,0,0,1-.267-1.169,4.233,4.233,0,0,1-3.158,1.374,3.916,3.916,0,0,1-2.692-.928,3,3,0,0,1-1.051-2.353A3.136,3.136,0,0,1-38.5,19.232a6.212,6.212,0,0,1,3.707-.959h1.846V17.4a2.131,2.131,0,0,0-.595-1.584,2.39,2.39,0,0,0-1.753-.59,2.766,2.766,0,0,0-1.7.513,1.511,1.511,0,0,0-.687,1.241H-39.6a2.618,2.618,0,0,1,.59-1.6,4.024,4.024,0,0,1,1.6-1.225,5.381,5.381,0,0,1,2.22-.451,4.386,4.386,0,0,1,3,.959,3.458,3.458,0,0,1,1.128,2.64v5.106a6.243,6.243,0,0,0,.39,2.43V25ZM-35.8,23.554a3.334,3.334,0,0,0,1.692-.461,2.791,2.791,0,0,0,1.159-1.2V19.617h-1.487q-3.486,0-3.486,2.041a1.727,1.727,0,0,0,.595,1.395A2.286,2.286,0,0,0-35.8,23.554Zm9.505-.1h6.491V25h-8.808V23.605l6.122-8.131h-6.029V13.905h8.408v1.343ZM-10.823,25a3.985,3.985,0,0,1-.267-1.169,4.233,4.233,0,0,1-3.158,1.374,3.916,3.916,0,0,1-2.692-.928,3,3,0,0,1-1.051-2.353,3.136,3.136,0,0,1,1.318-2.692,6.212,6.212,0,0,1,3.707-.959h1.846V17.4a2.131,2.131,0,0,0-.595-1.584,2.39,2.39,0,0,0-1.753-.59,2.766,2.766,0,0,0-1.7.513,1.511,1.511,0,0,0-.687,1.241h-1.907a2.618,2.618,0,0,1,.59-1.6,4.024,4.024,0,0,1,1.6-1.225,5.381,5.381,0,0,1,2.22-.451,4.386,4.386,0,0,1,3,.959A3.458,3.458,0,0,1-9.223,17.3v5.106a6.243,6.243,0,0,0,.39,2.43V25Zm-3.148-1.446a3.334,3.334,0,0,0,1.692-.461,2.791,2.791,0,0,0,1.159-1.2V19.617h-1.487q-3.486,0-3.486,2.041a1.727,1.727,0,0,0,.595,1.395A2.286,2.286,0,0,0-13.971,23.554ZM3.143,19.576a6.6,6.6,0,0,1-1.169,4.086,3.735,3.735,0,0,1-3.138,1.543,3.868,3.868,0,0,1-3.25-1.487L-4.507,25H-6.25V9.25h1.9v5.875A3.846,3.846,0,0,1-1.184,13.7a3.758,3.758,0,0,1,3.174,1.528,6.8,6.8,0,0,1,1.154,4.184Zm-1.9-.215A5.126,5.126,0,0,0,.5,16.366,2.478,2.478,0,0,0-1.656,15.31a2.785,2.785,0,0,0-2.7,1.743v4.8A2.863,2.863,0,0,0-1.635,23.6,2.464,2.464,0,0,0,.487,22.539,5.451,5.451,0,0,0,1.246,19.36ZM7.593,25H5.7V13.905h1.9ZM5.542,10.962a1.132,1.132,0,0,1,.282-.779,1.059,1.059,0,0,1,.836-.318,1.075,1.075,0,0,1,.841.318,1.12,1.12,0,0,1,.287.779,1.084,1.084,0,0,1-.287.769,1.1,1.1,0,0,1-.841.308,1.078,1.078,0,0,1-.836-.308A1.1,1.1,0,0,1,5.542,10.962ZM12.689,25h-1.9V9.25h1.9Zm5.1,0h-1.9V13.905h1.9ZM15.735,10.962a1.132,1.132,0,0,1,.282-.779,1.059,1.059,0,0,1,.836-.318,1.075,1.075,0,0,1,.841.318,1.12,1.12,0,0,1,.287.779,1.084,1.084,0,0,1-.287.769,1.1,1.1,0,0,1-.841.308,1.078,1.078,0,0,1-.836-.308A1.1,1.1,0,0,1,15.735,10.962Zm4.625,8.4a6.5,6.5,0,0,1,1.21-4.107A3.826,3.826,0,0,1,24.738,13.7a3.848,3.848,0,0,1,3.086,1.333V9.25h1.9V25H27.978l-.092-1.189a3.863,3.863,0,0,1-3.168,1.395,3.789,3.789,0,0,1-3.143-1.579A6.573,6.573,0,0,1,20.359,19.5Zm1.9.215a4.921,4.921,0,0,0,.779,2.953A2.519,2.519,0,0,0,25.189,23.6a2.767,2.767,0,0,0,2.635-1.62v-5.1a2.789,2.789,0,0,0-2.615-1.569,2.531,2.531,0,0,0-2.174,1.077A5.418,5.418,0,0,0,22.256,19.576ZM39.513,25a3.985,3.985,0,0,1-.267-1.169,4.233,4.233,0,0,1-3.158,1.374,3.916,3.916,0,0,1-2.692-.928,3,3,0,0,1-1.051-2.353,3.136,3.136,0,0,1,1.318-2.692,6.212,6.212,0,0,1,3.707-.959h1.846V17.4a2.131,2.131,0,0,0-.595-1.584,2.39,2.39,0,0,0-1.753-.59,2.766,2.766,0,0,0-1.7.513,1.511,1.511,0,0,0-.687,1.241H32.572a2.618,2.618,0,0,1,.59-1.6,4.024,4.024,0,0,1,1.6-1.225,5.381,5.381,0,0,1,2.22-.451,4.386,4.386,0,0,1,3,.959,3.458,3.458,0,0,1,1.128,2.64v5.106a6.243,6.243,0,0,0,.39,2.43V25Zm-3.148-1.446a3.334,3.334,0,0,0,1.692-.461,2.791,2.791,0,0,0,1.159-1.2V19.617H37.729q-3.486,0-3.486,2.041a1.727,1.727,0,0,0,.595,1.395A2.286,2.286,0,0,0,36.365,23.554Zm7.26-4.194a6.5,6.5,0,0,1,1.21-4.107,4.117,4.117,0,0,1,6.255-.22V9.25h1.9V25H51.244l-.092-1.189a3.863,3.863,0,0,1-3.168,1.395,3.789,3.789,0,0,1-3.143-1.579A6.573,6.573,0,0,1,43.625,19.5Zm1.9.215a4.921,4.921,0,0,0,.779,2.953A2.519,2.519,0,0,0,48.455,23.6a2.767,2.767,0,0,0,2.635-1.62v-5.1a2.789,2.789,0,0,0-2.615-1.569A2.531,2.531,0,0,0,46.3,16.387,5.418,5.418,0,0,0,45.522,19.576Z" transform="translate(644.104 466.58)" fill="#12263f"/>
    <path id="Rectángulo_40686-2-2" data-name="Rectángulo 40686-2" d="M5,0H248a5,5,0,0,1,5,5V78a5,5,0,0,1-5,5H5a5,5,0,0,1-5-5V5A5,5,0,0,1,5,0Z" transform="translate(265.334 589)" fill="#b9ddfc"/>
    <path id="Trazado_198218" data-name="Trazado 198218" d="M-37.663-3.907h-6.255L-45.322,0h-2.03l5.7-14.93h1.723L-34.217,0h-2.02Zm-5.66-1.61h5.076L-40.79-12.5ZM-25.768-1.1a4.029,4.029,0,0,1-3.25,1.3,3.449,3.449,0,0,1-2.7-1.031,4.461,4.461,0,0,1-.938-3.051v-7.219h1.9v7.167q0,2.522,2.051,2.522a2.84,2.84,0,0,0,2.892-1.62v-8.07h1.9V0h-1.8ZM-21.5-5.64a6.5,6.5,0,0,1,1.21-4.107A3.826,3.826,0,0,1-17.124-11.3a3.848,3.848,0,0,1,3.086,1.333V-15.75h1.9V0h-1.743l-.092-1.189A3.863,3.863,0,0,1-17.145.205a3.789,3.789,0,0,1-3.143-1.579A6.573,6.573,0,0,1-21.5-5.5Zm1.9.215a4.921,4.921,0,0,0,.779,2.953A2.519,2.519,0,0,0-16.673-1.4a2.767,2.767,0,0,0,2.635-1.62v-5.1A2.789,2.789,0,0,0-16.652-9.69a2.531,2.531,0,0,0-2.174,1.077A5.418,5.418,0,0,0-19.605-5.424ZM-7.137,0h-1.9V-11.095h1.9ZM-9.187-14.038a1.132,1.132,0,0,1,.282-.779,1.059,1.059,0,0,1,.836-.318,1.075,1.075,0,0,1,.841.318,1.12,1.12,0,0,1,.287.779,1.084,1.084,0,0,1-.287.769,1.1,1.1,0,0,1-.841.308,1.078,1.078,0,0,1-.836-.308A1.1,1.1,0,0,1-9.187-14.038Zm7.66.256v2.687H.543v1.466H-1.528v6.889a1.54,1.54,0,0,0,.277,1A1.165,1.165,0,0,0-.308-1.4a4.593,4.593,0,0,0,.9-.123V0a5.532,5.532,0,0,1-1.456.2A2.362,2.362,0,0,1-2.779-.564a3.3,3.3,0,0,1-.646-2.184v-6.88h-2.02v-1.466h2.02v-2.687ZM2.051-5.65a6.553,6.553,0,0,1,.641-2.933,4.781,4.781,0,0,1,1.784-2.01,4.857,4.857,0,0,1,2.61-.708,4.679,4.679,0,0,1,3.666,1.569,6.036,6.036,0,0,1,1.4,4.173v.133a6.61,6.61,0,0,1-.62,2.907,4.71,4.71,0,0,1-1.774,2A4.913,4.913,0,0,1,7.106.205,4.667,4.667,0,0,1,3.45-1.364a6.005,6.005,0,0,1-1.4-4.153Zm1.907.226a4.746,4.746,0,0,0,.856,2.963A2.74,2.74,0,0,0,7.106-1.343,2.724,2.724,0,0,0,9.4-2.476a5.19,5.19,0,0,0,.851-3.174,4.738,4.738,0,0,0-.866-2.958,2.755,2.755,0,0,0-2.3-1.133A2.724,2.724,0,0,0,4.819-8.624,5.152,5.152,0,0,0,3.958-5.424ZM19.893-9.393a5.685,5.685,0,0,0-.933-.072,2.5,2.5,0,0,0-2.533,1.589V0h-1.9V-11.095h1.846l.031,1.282A2.954,2.954,0,0,1,19.052-11.3a1.938,1.938,0,0,1,.841.144ZM23.7,0H21.79V-11.095H23.7Zm.021-15.74h2.3l-2.748,3.015-1.528-.005ZM33.674,0a3.985,3.985,0,0,1-.267-1.169A4.233,4.233,0,0,1,30.249.205a3.916,3.916,0,0,1-2.692-.928,3,3,0,0,1-1.051-2.353,3.136,3.136,0,0,1,1.318-2.692,6.212,6.212,0,0,1,3.707-.959h1.846V-7.6a2.131,2.131,0,0,0-.595-1.584,2.39,2.39,0,0,0-1.753-.59,2.766,2.766,0,0,0-1.7.513,1.511,1.511,0,0,0-.687,1.241H26.732a2.618,2.618,0,0,1,.59-1.6,4.024,4.024,0,0,1,1.6-1.225,5.381,5.381,0,0,1,2.22-.451,4.386,4.386,0,0,1,3,.959A3.458,3.458,0,0,1,35.273-7.7v5.106a6.243,6.243,0,0,0,.39,2.43V0ZM30.526-1.446a3.334,3.334,0,0,0,1.692-.461,2.791,2.791,0,0,0,1.159-1.2V-5.383H31.89q-3.486,0-3.486,2.041A1.727,1.727,0,0,0,29-1.948,2.286,2.286,0,0,0,30.526-1.446Zm14.181-1.5a1.4,1.4,0,0,0-.579-1.195,5.576,5.576,0,0,0-2.02-.733,9.551,9.551,0,0,1-2.287-.738A3.253,3.253,0,0,1,38.57-6.634a2.453,2.453,0,0,1-.405-1.415,2.878,2.878,0,0,1,1.154-2.307,4.505,4.505,0,0,1,2.948-.943,4.636,4.636,0,0,1,3.061.974A3.094,3.094,0,0,1,46.5-7.834H44.594a1.713,1.713,0,0,0-.661-1.343,2.478,2.478,0,0,0-1.666-.564,2.593,2.593,0,0,0-1.62.451,1.42,1.42,0,0,0-.584,1.179,1.151,1.151,0,0,0,.543,1.036,6.687,6.687,0,0,0,1.964.667,10.231,10.231,0,0,1,2.3.759,3.358,3.358,0,0,1,1.307,1.061A2.609,2.609,0,0,1,46.6-3.076,2.839,2.839,0,0,1,45.415-.692a4.989,4.989,0,0,1-3.086.9A5.587,5.587,0,0,1,39.97-.267a3.836,3.836,0,0,1-1.6-1.318,3.176,3.176,0,0,1-.579-1.83h1.9A1.964,1.964,0,0,0,40.447-1.9a2.964,2.964,0,0,0,1.882.559,3.059,3.059,0,0,0,1.728-.436A1.339,1.339,0,0,0,44.707-2.943Z" transform="translate(389.967 636.143)" fill="#12263f"/>
    <path id="Rectángulo_40686-2-3" data-name="Rectángulo 40686-2" d="M5,0H248a5,5,0,0,1,5,5V78a5,5,0,0,1-5,5H5a5,5,0,0,1-5-5V5A5,5,0,0,1,5,0Z" transform="translate(1082.334 589)" fill="#b9ddfc"/>
    <path id="Trazado_198219" data-name="Trazado 198219" d="M-62.2-4.707l.287,1.969.42-1.774L-58.54-14.93h1.661L-54-4.512l.41,1.8.318-2.01,2.317-10.213h1.979L-52.592,0h-1.794l-3.076-10.879-.236-1.138-.236,1.138L-61.124,0h-1.794l-3.609-14.93h1.969ZM-40.575,0a3.985,3.985,0,0,1-.267-1.169A4.233,4.233,0,0,1-44,.205a3.916,3.916,0,0,1-2.692-.928,3,3,0,0,1-1.051-2.353,3.136,3.136,0,0,1,1.318-2.692,6.212,6.212,0,0,1,3.707-.959h1.846V-7.6a2.131,2.131,0,0,0-.595-1.584,2.39,2.39,0,0,0-1.753-.59,2.766,2.766,0,0,0-1.7.513,1.511,1.511,0,0,0-.687,1.241h-1.907a2.618,2.618,0,0,1,.59-1.6,4.024,4.024,0,0,1,1.6-1.225,5.381,5.381,0,0,1,2.22-.451,4.386,4.386,0,0,1,3,.959A3.458,3.458,0,0,1-38.975-7.7v5.106a6.243,6.243,0,0,0,.39,2.43V0Zm-3.148-1.446a3.334,3.334,0,0,0,1.692-.461,2.791,2.791,0,0,0,1.159-1.2V-5.383h-1.487q-3.486,0-3.486,2.041a1.727,1.727,0,0,0,.595,1.395A2.286,2.286,0,0,0-43.723-1.446ZM-33.94,0h-1.9V-15.75h1.9Zm6.132-5.137L-29-3.9V0h-1.9V-15.75H-29v9.526l1.015-1.22,3.456-3.65h2.307L-26.537-6.46-21.718,0h-2.225Zm11.495-.431h-5V-7.116h5Zm4.419-8.213v2.687h2.071v1.466h-2.071v6.889a1.54,1.54,0,0,0,.277,1,1.165,1.165,0,0,0,.943.334,4.593,4.593,0,0,0,.9-.123V0a5.532,5.532,0,0,1-1.456.2,2.362,2.362,0,0,1-1.917-.769,3.3,3.3,0,0,1-.646-2.184v-6.88h-2.02v-1.466h2.02v-2.687Zm6.183,4.03A4.033,4.033,0,0,1-2.43-11.3q3.517,0,3.548,3.968V0h-1.9V-7.342a2.554,2.554,0,0,0-.549-1.774A2.2,2.2,0,0,0-3-9.69a2.738,2.738,0,0,0-1.62.492A3.342,3.342,0,0,0-5.711-7.906V0h-1.9V-15.75h1.9Zm15.032.359a5.685,5.685,0,0,0-.933-.072A2.5,2.5,0,0,0,5.855-7.875V0h-1.9V-11.095H5.8l.031,1.282A2.954,2.954,0,0,1,8.48-11.3a1.938,1.938,0,0,1,.841.144ZM10.356-5.65A6.553,6.553,0,0,1,11-8.583a4.781,4.781,0,0,1,1.784-2.01,4.857,4.857,0,0,1,2.61-.708,4.679,4.679,0,0,1,3.666,1.569,6.036,6.036,0,0,1,1.4,4.173v.133a6.61,6.61,0,0,1-.62,2.907,4.71,4.71,0,0,1-1.774,2,4.913,4.913,0,0,1-2.651.718,4.667,4.667,0,0,1-3.656-1.569,6.005,6.005,0,0,1-1.4-4.153Zm1.907.226a4.746,4.746,0,0,0,.856,2.963,2.74,2.74,0,0,0,2.292,1.118,2.724,2.724,0,0,0,2.3-1.133A5.19,5.19,0,0,0,18.56-5.65a4.738,4.738,0,0,0-.866-2.958,2.755,2.755,0,0,0-2.3-1.133,2.724,2.724,0,0,0-2.266,1.118A5.152,5.152,0,0,0,12.264-5.424ZM29.685-1.1a4.029,4.029,0,0,1-3.25,1.3,3.449,3.449,0,0,1-2.7-1.031,4.461,4.461,0,0,1-.938-3.051v-7.219h1.9v7.167q0,2.522,2.051,2.522a2.84,2.84,0,0,0,2.892-1.62v-8.07h1.9V0h-1.8ZM33.961-5.64a6.521,6.521,0,0,1,1.2-4.127A3.837,3.837,0,0,1,38.339-11.3a3.817,3.817,0,0,1,3.168,1.436l.092-1.23h1.733V-.267a4.514,4.514,0,0,1-1.277,3.394,4.711,4.711,0,0,1-3.43,1.241,5.706,5.706,0,0,1-2.348-.513,4.042,4.042,0,0,1-1.753-1.4l.984-1.138A3.71,3.71,0,0,0,38.493,2.82a2.906,2.906,0,0,0,2.158-.779,2.979,2.979,0,0,0,.774-2.194v-.954A3.9,3.9,0,0,1,38.319.205a3.79,3.79,0,0,1-3.153-1.569A6.856,6.856,0,0,1,33.961-5.64Zm1.907.215a4.975,4.975,0,0,0,.769,2.948A2.5,2.5,0,0,0,38.791-1.4a2.779,2.779,0,0,0,2.635-1.63V-8.1A2.811,2.811,0,0,0,38.811-9.69a2.521,2.521,0,0,0-2.164,1.077A5.418,5.418,0,0,0,35.868-5.424ZM48.091-9.751A4.033,4.033,0,0,1,51.372-11.3q3.517,0,3.548,3.968V0h-1.9V-7.342a2.554,2.554,0,0,0-.549-1.774A2.2,2.2,0,0,0,50.8-9.69a2.738,2.738,0,0,0-1.62.492,3.342,3.342,0,0,0-1.087,1.292V0h-1.9V-15.75h1.9ZM64.22-2.943a1.4,1.4,0,0,0-.579-1.195,5.576,5.576,0,0,0-2.02-.733,9.551,9.551,0,0,1-2.287-.738,3.253,3.253,0,0,1-1.251-1.025,2.453,2.453,0,0,1-.405-1.415,2.878,2.878,0,0,1,1.154-2.307A4.505,4.505,0,0,1,61.78-11.3a4.636,4.636,0,0,1,3.061.974,3.094,3.094,0,0,1,1.174,2.492H64.107a1.713,1.713,0,0,0-.661-1.343,2.478,2.478,0,0,0-1.666-.564,2.593,2.593,0,0,0-1.62.451,1.42,1.42,0,0,0-.584,1.179,1.151,1.151,0,0,0,.543,1.036,6.687,6.687,0,0,0,1.964.667,10.231,10.231,0,0,1,2.3.759,3.358,3.358,0,0,1,1.307,1.061,2.609,2.609,0,0,1,.426,1.512A2.839,2.839,0,0,1,64.928-.692a4.989,4.989,0,0,1-3.086.9,5.587,5.587,0,0,1-2.358-.472,3.836,3.836,0,0,1-1.6-1.318,3.176,3.176,0,0,1-.579-1.83h1.9A1.964,1.964,0,0,0,59.96-1.9a2.964,2.964,0,0,0,1.882.559,3.059,3.059,0,0,0,1.728-.436A1.339,1.339,0,0,0,64.22-2.943Z" transform="translate(1206.444 638.877)" fill="#12263f"/>
    <path id="Rectángulo_40686-2-4" data-name="Rectángulo 40686-2" d="M5,0H248a5,5,0,0,1,5,5V79a5,5,0,0,1-5,5H5a5,5,0,0,1-5-5V5A5,5,0,0,1,5,0Z" transform="translate(829.334 433.999)" fill="#b9ddfc"/>
    <path id="Trazado_198220" data-name="Trazado 198220" d="M-57.191-6.04H-60.7V0h-1.979V-14.93h4.942a5.85,5.85,0,0,1,3.881,1.148,4.132,4.132,0,0,1,1.359,3.343,4.019,4.019,0,0,1-.754,2.43,4.5,4.5,0,0,1-2.1,1.548l3.507,6.337V0h-2.112ZM-60.7-7.649h3.025a3.412,3.412,0,0,0,2.333-.76,2.571,2.571,0,0,0,.866-2.034A2.707,2.707,0,0,0-55.3-12.57a3.5,3.5,0,0,0-2.384-.75H-60.7ZM-45.43.205A4.848,4.848,0,0,1-49.1-1.277,5.5,5.5,0,0,1-50.516-5.24v-.349a6.658,6.658,0,0,1,.631-2.948,4.919,4.919,0,0,1,1.764-2.03,4.434,4.434,0,0,1,2.456-.733A4.155,4.155,0,0,1-42.3-9.875a6.171,6.171,0,0,1,1.2,4.081V-5h-7.516a3.944,3.944,0,0,0,.959,2.651,3.014,3.014,0,0,0,2.333,1.01,3.3,3.3,0,0,0,1.7-.41,4.277,4.277,0,0,0,1.22-1.087l1.159.9A4.659,4.659,0,0,1-45.43.205Zm-.236-9.946a2.53,2.53,0,0,0-1.928.836,4.062,4.062,0,0,0-.964,2.343H-43v-.144a3.613,3.613,0,0,0-.779-2.24A2.382,2.382,0,0,0-45.666-9.741Zm10.285,7.167,2.748-8.521H-30.7L-34.674,0h-1.446l-4.02-11.095H-38.2ZM-26.809,0h-1.9V-11.095h1.9ZM-28.86-14.038a1.132,1.132,0,0,1,.282-.779,1.059,1.059,0,0,1,.836-.318,1.075,1.075,0,0,1,.841.318,1.12,1.12,0,0,1,.287.779,1.084,1.084,0,0,1-.287.769,1.1,1.1,0,0,1-.841.308,1.078,1.078,0,0,1-.836-.308A1.1,1.1,0,0,1-28.86-14.038ZM-17.314-2.943a1.4,1.4,0,0,0-.579-1.195,5.576,5.576,0,0,0-2.02-.733A9.551,9.551,0,0,1-22.2-5.609a3.253,3.253,0,0,1-1.251-1.025,2.453,2.453,0,0,1-.405-1.415A2.878,2.878,0,0,1-22.7-10.356a4.505,4.505,0,0,1,2.948-.943,4.636,4.636,0,0,1,3.061.974,3.094,3.094,0,0,1,1.174,2.492h-1.907a1.713,1.713,0,0,0-.661-1.343,2.478,2.478,0,0,0-1.666-.564,2.593,2.593,0,0,0-1.62.451,1.42,1.42,0,0,0-.584,1.179,1.151,1.151,0,0,0,.543,1.036,6.687,6.687,0,0,0,1.964.667,10.231,10.231,0,0,1,2.3.759,3.358,3.358,0,0,1,1.307,1.061,2.609,2.609,0,0,1,.426,1.512A2.839,2.839,0,0,1-16.606-.692a4.989,4.989,0,0,1-3.086.9,5.587,5.587,0,0,1-2.358-.472,3.836,3.836,0,0,1-1.6-1.318,3.176,3.176,0,0,1-.579-1.83h1.9A1.964,1.964,0,0,0-21.574-1.9a2.964,2.964,0,0,0,1.882.559,3.059,3.059,0,0,0,1.728-.436A1.339,1.339,0,0,0-17.314-2.943ZM-10.885,0h-1.9V-11.095h1.9Zm-2.051-14.038a1.132,1.132,0,0,1,.282-.779,1.059,1.059,0,0,1,.836-.318,1.075,1.075,0,0,1,.841.318,1.12,1.12,0,0,1,.287.779,1.084,1.084,0,0,1-.287.769,1.1,1.1,0,0,1-.841.308,1.078,1.078,0,0,1-.836-.308A1.1,1.1,0,0,1-12.935-14.038ZM-8.352-5.65a6.553,6.553,0,0,1,.641-2.933,4.781,4.781,0,0,1,1.784-2.01,4.857,4.857,0,0,1,2.61-.708A4.679,4.679,0,0,1,.349-9.731a6.036,6.036,0,0,1,1.4,4.173v.133a6.61,6.61,0,0,1-.62,2.907,4.71,4.71,0,0,1-1.774,2A4.913,4.913,0,0,1-3.3.205,4.667,4.667,0,0,1-6.952-1.364a6.005,6.005,0,0,1-1.4-4.153Zm1.907.226a4.746,4.746,0,0,0,.856,2.963A2.74,2.74,0,0,0-3.3-1.343,2.724,2.724,0,0,0-1-2.476,5.19,5.19,0,0,0-.149-5.65a4.738,4.738,0,0,0-.866-2.958,2.755,2.755,0,0,0-2.3-1.133A2.724,2.724,0,0,0-5.583-8.624,5.152,5.152,0,0,0-6.445-5.424Zm12.366-5.67L5.983-9.7a4.043,4.043,0,0,1,3.322-1.6q3.517,0,3.548,3.968V0h-1.9V-7.342a2.554,2.554,0,0,0-.549-1.774A2.2,2.2,0,0,0,8.731-9.69a2.738,2.738,0,0,0-1.62.492A3.342,3.342,0,0,0,6.024-7.906V0h-1.9V-11.095Zm14.4,11.3a4.848,4.848,0,0,1-3.671-1.482A5.5,5.5,0,0,1,15.232-5.24v-.349a6.658,6.658,0,0,1,.631-2.948,4.919,4.919,0,0,1,1.764-2.03,4.434,4.434,0,0,1,2.456-.733,4.155,4.155,0,0,1,3.363,1.425,6.171,6.171,0,0,1,1.2,4.081V-5H17.129a3.944,3.944,0,0,0,.959,2.651,3.014,3.014,0,0,0,2.333,1.01,3.3,3.3,0,0,0,1.7-.41,4.277,4.277,0,0,0,1.22-1.087l1.159.9A4.659,4.659,0,0,1,20.318.205Zm-.236-9.946a2.53,2.53,0,0,0-1.928.836,4.062,4.062,0,0,0-.964,2.343h5.558v-.144a3.613,3.613,0,0,0-.779-2.24A2.382,2.382,0,0,0,20.082-9.741ZM33.3-2.943a1.4,1.4,0,0,0-.579-1.195,5.576,5.576,0,0,0-2.02-.733,9.551,9.551,0,0,1-2.287-.738,3.253,3.253,0,0,1-1.251-1.025,2.453,2.453,0,0,1-.405-1.415,2.878,2.878,0,0,1,1.154-2.307,4.505,4.505,0,0,1,2.948-.943,4.636,4.636,0,0,1,3.061.974,3.094,3.094,0,0,1,1.174,2.492H33.187a1.713,1.713,0,0,0-.661-1.343,2.478,2.478,0,0,0-1.666-.564,2.593,2.593,0,0,0-1.62.451,1.42,1.42,0,0,0-.584,1.179A1.151,1.151,0,0,0,29.2-7.075a6.687,6.687,0,0,0,1.964.667,10.231,10.231,0,0,1,2.3.759,3.358,3.358,0,0,1,1.307,1.061A2.609,2.609,0,0,1,35.2-3.076,2.839,2.839,0,0,1,34.007-.692a4.989,4.989,0,0,1-3.086.9,5.587,5.587,0,0,1-2.358-.472,3.836,3.836,0,0,1-1.6-1.318,3.176,3.176,0,0,1-.579-1.83h1.9A1.964,1.964,0,0,0,29.039-1.9a2.964,2.964,0,0,0,1.882.559,3.059,3.059,0,0,0,1.728-.436A1.339,1.339,0,0,0,33.3-2.943Zm9.105-2.7a6.5,6.5,0,0,1,1.21-4.107A3.826,3.826,0,0,1,46.783-11.3,3.848,3.848,0,0,1,49.87-9.967V-15.75h1.9V0H50.024l-.092-1.189A3.863,3.863,0,0,1,46.763.205,3.789,3.789,0,0,1,43.62-1.374,6.573,6.573,0,0,1,42.405-5.5Zm1.9.215a4.921,4.921,0,0,0,.779,2.953A2.519,2.519,0,0,0,47.235-1.4a2.767,2.767,0,0,0,2.635-1.62v-5.1A2.789,2.789,0,0,0,47.255-9.69a2.531,2.531,0,0,0-2.174,1.077A5.418,5.418,0,0,0,44.3-5.424ZM59.314.205a4.848,4.848,0,0,1-3.671-1.482A5.5,5.5,0,0,1,54.228-5.24v-.349a6.658,6.658,0,0,1,.631-2.948,4.919,4.919,0,0,1,1.764-2.03,4.434,4.434,0,0,1,2.456-.733,4.155,4.155,0,0,1,3.363,1.425,6.171,6.171,0,0,1,1.2,4.081V-5H56.125a3.944,3.944,0,0,0,.959,2.651,3.014,3.014,0,0,0,2.333,1.01,3.3,3.3,0,0,0,1.7-.41,4.277,4.277,0,0,0,1.22-1.087l1.159.9A4.659,4.659,0,0,1,59.314.205Zm-.236-9.946a2.53,2.53,0,0,0-1.928.836,4.062,4.062,0,0,0-.964,2.343h5.558v-.144a3.613,3.613,0,0,0-.779-2.24A2.382,2.382,0,0,0,59.078-9.741ZM-39.216,15.607a5.685,5.685,0,0,0-.933-.072,2.5,2.5,0,0,0-2.533,1.589V25h-1.9V13.905h1.846l.031,1.282A2.954,2.954,0,0,1-40.057,13.7a1.938,1.938,0,0,1,.841.144Zm6.152,9.6a4.848,4.848,0,0,1-3.671-1.482A5.5,5.5,0,0,1-38.15,19.76v-.349a6.658,6.658,0,0,1,.631-2.948,4.919,4.919,0,0,1,1.764-2.03A4.434,4.434,0,0,1-33.3,13.7a4.155,4.155,0,0,1,3.363,1.425,6.171,6.171,0,0,1,1.2,4.081V20h-7.516a3.944,3.944,0,0,0,.959,2.651,3.014,3.014,0,0,0,2.333,1.01,3.3,3.3,0,0,0,1.7-.41,4.277,4.277,0,0,0,1.22-1.087l1.159.9A4.659,4.659,0,0,1-33.064,25.205Zm-.236-9.946a2.53,2.53,0,0,0-1.928.836,4.062,4.062,0,0,0-.964,2.343h5.558v-.144a3.613,3.613,0,0,0-.779-2.24A2.382,2.382,0,0,0-33.3,15.259Zm6.3,4.1a6.512,6.512,0,0,1,1.2-4.137,3.888,3.888,0,0,1,3.22-1.523,3.885,3.885,0,0,1,3.107,1.323l.082-1.118h1.743v15.36h-1.9V23.975a3.981,3.981,0,0,1-3.056,1.23,3.826,3.826,0,0,1-3.2-1.564A6.657,6.657,0,0,1-27,19.494Zm1.9.215a4.936,4.936,0,0,0,.8,2.994,2.56,2.56,0,0,0,2.169,1.087,2.841,2.841,0,0,0,2.584-1.5V16.725a2.849,2.849,0,0,0-2.563-1.466A2.58,2.58,0,0,0-24.3,16.351,5.374,5.374,0,0,0-25.107,19.576ZM-7.757,23.9a4.029,4.029,0,0,1-3.25,1.3,3.449,3.449,0,0,1-2.7-1.031,4.461,4.461,0,0,1-.938-3.051V13.905h1.9v7.167q0,2.522,2.051,2.522a2.84,2.84,0,0,0,2.892-1.62v-8.07h1.9V25h-1.8ZM-.969,25h-1.9V13.905h1.9ZM-3.02,10.962a1.132,1.132,0,0,1,.282-.779A1.059,1.059,0,0,1-1.9,9.865a1.075,1.075,0,0,1,.841.318,1.12,1.12,0,0,1,.287.779,1.084,1.084,0,0,1-.287.769,1.1,1.1,0,0,1-.841.308,1.078,1.078,0,0,1-.836-.308A1.1,1.1,0,0,1-3.02,10.962ZM8.526,22.057a1.4,1.4,0,0,0-.579-1.195,5.576,5.576,0,0,0-2.02-.733,9.551,9.551,0,0,1-2.287-.738,3.253,3.253,0,0,1-1.251-1.025,2.453,2.453,0,0,1-.405-1.415,2.878,2.878,0,0,1,1.154-2.307A4.505,4.505,0,0,1,6.086,13.7a4.636,4.636,0,0,1,3.061.974,3.094,3.094,0,0,1,1.174,2.492H8.413a1.713,1.713,0,0,0-.661-1.343,2.478,2.478,0,0,0-1.666-.564,2.593,2.593,0,0,0-1.62.451,1.42,1.42,0,0,0-.584,1.179,1.151,1.151,0,0,0,.543,1.036,6.687,6.687,0,0,0,1.964.667,10.231,10.231,0,0,1,2.3.759A3.358,3.358,0,0,1,10,20.411a2.609,2.609,0,0,1,.426,1.512,2.839,2.839,0,0,1-1.189,2.384,4.989,4.989,0,0,1-3.086.9,5.587,5.587,0,0,1-2.358-.472,3.836,3.836,0,0,1-1.6-1.318,3.176,3.176,0,0,1-.579-1.83H3.5A1.964,1.964,0,0,0,4.266,23.1a2.964,2.964,0,0,0,1.882.559,3.059,3.059,0,0,0,1.728-.436A1.339,1.339,0,0,0,8.526,22.057ZM14.955,25h-1.9V13.905h1.9ZM12.9,10.962a1.132,1.132,0,0,1,.282-.779,1.059,1.059,0,0,1,.836-.318,1.075,1.075,0,0,1,.841.318,1.12,1.12,0,0,1,.287.779,1.084,1.084,0,0,1-.287.769,1.1,1.1,0,0,1-.841.308,1.078,1.078,0,0,1-.836-.308A1.1,1.1,0,0,1,12.9,10.962Zm7.66.256v2.687h2.071v1.466H20.564v6.889a1.54,1.54,0,0,0,.277,1,1.165,1.165,0,0,0,.943.334,4.593,4.593,0,0,0,.9-.123V25a5.532,5.532,0,0,1-1.456.2,2.362,2.362,0,0,1-1.917-.769,3.3,3.3,0,0,1-.646-2.184v-6.88h-2.02V13.905h2.02V11.219Zm3.579,8.131a6.553,6.553,0,0,1,.641-2.933,4.781,4.781,0,0,1,1.784-2.01,4.857,4.857,0,0,1,2.61-.708,4.679,4.679,0,0,1,3.666,1.569,6.036,6.036,0,0,1,1.4,4.173v.133a6.61,6.61,0,0,1-.62,2.907,4.71,4.71,0,0,1-1.774,2,4.913,4.913,0,0,1-2.651.718,4.667,4.667,0,0,1-3.656-1.569,6.005,6.005,0,0,1-1.4-4.153Zm1.907.226a4.746,4.746,0,0,0,.856,2.963,2.9,2.9,0,0,0,4.589-.015,5.19,5.19,0,0,0,.851-3.174,4.738,4.738,0,0,0-.866-2.958,2.755,2.755,0,0,0-2.3-1.133,2.724,2.724,0,0,0-2.266,1.118A5.152,5.152,0,0,0,26.05,19.576Zm17.032,2.481a1.4,1.4,0,0,0-.579-1.195,5.576,5.576,0,0,0-2.02-.733,9.551,9.551,0,0,1-2.287-.738,3.253,3.253,0,0,1-1.251-1.025,2.453,2.453,0,0,1-.405-1.415,2.878,2.878,0,0,1,1.154-2.307,4.505,4.505,0,0,1,2.948-.943,4.636,4.636,0,0,1,3.061.974,3.094,3.094,0,0,1,1.174,2.492H42.969a1.713,1.713,0,0,0-.661-1.343,2.478,2.478,0,0,0-1.666-.564,2.593,2.593,0,0,0-1.62.451,1.42,1.42,0,0,0-.584,1.179,1.151,1.151,0,0,0,.543,1.036,6.687,6.687,0,0,0,1.964.667,10.231,10.231,0,0,1,2.3.759,3.358,3.358,0,0,1,1.307,1.061,2.609,2.609,0,0,1,.426,1.512,2.839,2.839,0,0,1-1.189,2.384,4.989,4.989,0,0,1-3.086.9,5.587,5.587,0,0,1-2.358-.472,3.836,3.836,0,0,1-1.6-1.318,3.176,3.176,0,0,1-.579-1.83h1.9a1.964,1.964,0,0,0,.764,1.512,2.964,2.964,0,0,0,1.882.559,3.059,3.059,0,0,0,1.728-.436A1.339,1.339,0,0,0,43.082,22.057Z" transform="translate(952.572 466.58)" fill="#12263f"/>
    <path id="Rectángulo_40686-2-5" data-name="Rectángulo 40686-2" d="M5,0H248a5,5,0,0,1,5,5V79a5,5,0,0,1-5,5H5a5,5,0,0,1-5-5V5A5,5,0,0,1,5,0Z" transform="translate(518.334 743)" fill="#b9ddfc"/>
    <path id="Trazado_198221" data-name="Trazado 198221" d="M-94.931-3.907h-6.255L-102.59,0h-2.03l5.7-14.93H-97.2L-91.485,0h-2.02Zm-5.66-1.61h5.076L-98.058-12.5Zm12.612-5.578.062,1.395a4.043,4.043,0,0,1,3.322-1.6q3.517,0,3.548,3.968V0h-1.9V-7.342a2.554,2.554,0,0,0-.549-1.774,2.2,2.2,0,0,0-1.677-.574,2.738,2.738,0,0,0-1.62.492,3.342,3.342,0,0,0-1.087,1.292V0h-1.9V-11.095ZM-71.336,0A3.985,3.985,0,0,1-71.6-1.169,4.233,4.233,0,0,1-74.761.205a3.916,3.916,0,0,1-2.692-.928A3,3,0,0,1-78.5-3.076a3.136,3.136,0,0,1,1.318-2.692,6.212,6.212,0,0,1,3.707-.959h1.846V-7.6a2.131,2.131,0,0,0-.595-1.584,2.39,2.39,0,0,0-1.753-.59,2.766,2.766,0,0,0-1.7.513,1.511,1.511,0,0,0-.687,1.241h-1.907a2.618,2.618,0,0,1,.59-1.6,4.024,4.024,0,0,1,1.6-1.225,5.381,5.381,0,0,1,2.22-.451,4.386,4.386,0,0,1,3,.959A3.458,3.458,0,0,1-69.737-7.7v5.106a6.243,6.243,0,0,0,.39,2.43V0Zm-3.148-1.446a3.334,3.334,0,0,0,1.692-.461,2.791,2.791,0,0,0,1.159-1.2V-5.383h-1.487q-3.486,0-3.486,2.041a1.727,1.727,0,0,0,.595,1.395A2.286,2.286,0,0,0-74.484-1.446Zm1.753-14.3h2.3l-2.748,3.015-1.528-.005ZM-64.7,0h-1.9V-15.75h1.9Zm5.1,0h-1.9V-11.095h1.9Zm-2.051-14.038a1.132,1.132,0,0,1,.282-.779,1.059,1.059,0,0,1,.836-.318,1.075,1.075,0,0,1,.841.318,1.12,1.12,0,0,1,.287.779,1.084,1.084,0,0,1-.287.769,1.1,1.1,0,0,1-.841.308,1.078,1.078,0,0,1-.836-.308A1.1,1.1,0,0,1-61.657-14.038ZM-50.111-2.943a1.4,1.4,0,0,0-.579-1.195,5.576,5.576,0,0,0-2.02-.733A9.551,9.551,0,0,1-55-5.609a3.253,3.253,0,0,1-1.251-1.025,2.453,2.453,0,0,1-.405-1.415A2.878,2.878,0,0,1-55.5-10.356a4.505,4.505,0,0,1,2.948-.943,4.636,4.636,0,0,1,3.061.974,3.094,3.094,0,0,1,1.174,2.492h-1.907a1.713,1.713,0,0,0-.661-1.343,2.478,2.478,0,0,0-1.666-.564,2.593,2.593,0,0,0-1.62.451,1.42,1.42,0,0,0-.584,1.179,1.151,1.151,0,0,0,.543,1.036,6.687,6.687,0,0,0,1.964.667,10.231,10.231,0,0,1,2.3.759,3.358,3.358,0,0,1,1.307,1.061,2.609,2.609,0,0,1,.426,1.512A2.839,2.839,0,0,1-49.4-.692a4.989,4.989,0,0,1-3.086.9,5.587,5.587,0,0,1-2.358-.472,3.836,3.836,0,0,1-1.6-1.318,3.176,3.176,0,0,1-.579-1.83h1.9A1.964,1.964,0,0,0-54.371-1.9a2.964,2.964,0,0,0,1.882.559,3.059,3.059,0,0,0,1.728-.436A1.339,1.339,0,0,0-50.111-2.943ZM-43.682,0h-1.9V-11.095h1.9Zm-2.051-14.038a1.132,1.132,0,0,1,.282-.779,1.059,1.059,0,0,1,.836-.318,1.075,1.075,0,0,1,.841.318,1.12,1.12,0,0,1,.287.779,1.084,1.084,0,0,1-.287.769,1.1,1.1,0,0,1-.841.308,1.078,1.078,0,0,1-.836-.308A1.1,1.1,0,0,1-45.732-14.038ZM-34.187-2.943a1.4,1.4,0,0,0-.579-1.195,5.576,5.576,0,0,0-2.02-.733,9.551,9.551,0,0,1-2.287-.738,3.253,3.253,0,0,1-1.251-1.025,2.453,2.453,0,0,1-.405-1.415,2.878,2.878,0,0,1,1.154-2.307,4.505,4.505,0,0,1,2.948-.943,4.636,4.636,0,0,1,3.061.974,3.094,3.094,0,0,1,1.174,2.492H-34.3a1.713,1.713,0,0,0-.661-1.343,2.478,2.478,0,0,0-1.666-.564,2.593,2.593,0,0,0-1.62.451,1.42,1.42,0,0,0-.584,1.179,1.151,1.151,0,0,0,.543,1.036,6.687,6.687,0,0,0,1.964.667,10.231,10.231,0,0,1,2.3.759,3.358,3.358,0,0,1,1.307,1.061,2.609,2.609,0,0,1,.426,1.512A2.839,2.839,0,0,1-33.479-.692a4.989,4.989,0,0,1-3.086.9,5.587,5.587,0,0,1-2.358-.472,3.836,3.836,0,0,1-1.6-1.318,3.176,3.176,0,0,1-.579-1.83h1.9A1.964,1.964,0,0,0-38.447-1.9a2.964,2.964,0,0,0,1.882.559,3.059,3.059,0,0,0,1.728-.436A1.339,1.339,0,0,0-34.187-2.943Zm9.105-2.7a6.5,6.5,0,0,1,1.21-4.107A3.826,3.826,0,0,1-20.7-11.3a3.848,3.848,0,0,1,3.086,1.333V-15.75h1.9V0h-1.743l-.092-1.189A3.863,3.863,0,0,1-20.723.205a3.789,3.789,0,0,1-3.143-1.579A6.573,6.573,0,0,1-25.081-5.5Zm1.9.215A4.921,4.921,0,0,0-22.4-2.471,2.519,2.519,0,0,0-20.251-1.4a2.767,2.767,0,0,0,2.635-1.62v-5.1A2.789,2.789,0,0,0-20.231-9.69,2.531,2.531,0,0,0-22.4-8.613,5.418,5.418,0,0,0-23.184-5.424ZM-8.172.205a4.848,4.848,0,0,1-3.671-1.482A5.5,5.5,0,0,1-13.258-5.24v-.349a6.658,6.658,0,0,1,.631-2.948,4.919,4.919,0,0,1,1.764-2.03A4.434,4.434,0,0,1-8.408-11.3,4.155,4.155,0,0,1-5.045-9.875a6.171,6.171,0,0,1,1.2,4.081V-5h-7.516A3.944,3.944,0,0,0-10.4-2.353,3.014,3.014,0,0,0-8.07-1.343a3.3,3.3,0,0,0,1.7-.41A4.277,4.277,0,0,0-5.147-2.84l1.159.9A4.659,4.659,0,0,1-8.172.205Zm-.236-9.946a2.53,2.53,0,0,0-1.928.836A4.062,4.062,0,0,0-11.3-6.562h5.558v-.144a3.613,3.613,0,0,0-.779-2.24A2.382,2.382,0,0,0-8.408-9.741ZM8-1.343a2.732,2.732,0,0,0,1.774-.615A2.164,2.164,0,0,0,10.613-3.5h1.794a3.44,3.44,0,0,1-.656,1.815A4.322,4.322,0,0,1,10.136-.308,4.66,4.66,0,0,1,8,.205a4.57,4.57,0,0,1-3.6-1.512A6.024,6.024,0,0,1,3.056-5.445v-.318A6.679,6.679,0,0,1,3.65-8.644,4.53,4.53,0,0,1,5.358-10.6a4.85,4.85,0,0,1,2.63-.7,4.45,4.45,0,0,1,3.1,1.118,3.994,3.994,0,0,1,1.318,2.9H10.613A2.614,2.614,0,0,0,9.8-9.049a2.536,2.536,0,0,0-1.81-.692A2.655,2.655,0,0,0,5.747-8.7a4.888,4.888,0,0,0-.795,3.01v.359a4.79,4.79,0,0,0,.79,2.953A2.668,2.668,0,0,0,8-1.343Zm6.04-4.307a6.553,6.553,0,0,1,.641-2.933,4.781,4.781,0,0,1,1.784-2.01,4.857,4.857,0,0,1,2.61-.708,4.679,4.679,0,0,1,3.666,1.569,6.036,6.036,0,0,1,1.4,4.173v.133a6.61,6.61,0,0,1-.62,2.907,4.71,4.71,0,0,1-1.774,2,4.913,4.913,0,0,1-2.651.718,4.667,4.667,0,0,1-3.656-1.569,6.005,6.005,0,0,1-1.4-4.153Zm1.907.226A4.746,4.746,0,0,0,16.8-2.461a2.74,2.74,0,0,0,2.292,1.118,2.724,2.724,0,0,0,2.3-1.133,5.19,5.19,0,0,0,.851-3.174,4.738,4.738,0,0,0-.866-2.958,2.755,2.755,0,0,0-2.3-1.133,2.724,2.724,0,0,0-2.266,1.118A5.152,5.152,0,0,0,15.945-5.424ZM28.414-9.751A4.033,4.033,0,0,1,31.695-11.3q3.517,0,3.548,3.968V0h-1.9V-7.342A2.554,2.554,0,0,0,32.8-9.116a2.2,2.2,0,0,0-1.677-.574A2.738,2.738,0,0,0,29.5-9.2a3.342,3.342,0,0,0-1.087,1.292V0h-1.9V-15.75h1.9ZM42.687.205a4.848,4.848,0,0,1-3.671-1.482A5.5,5.5,0,0,1,37.6-5.24v-.349a6.658,6.658,0,0,1,.631-2.948A4.919,4.919,0,0,1,40-10.567a4.434,4.434,0,0,1,2.456-.733,4.155,4.155,0,0,1,3.363,1.425,6.171,6.171,0,0,1,1.2,4.081V-5H39.5a3.944,3.944,0,0,0,.959,2.651,3.014,3.014,0,0,0,2.333,1.01,3.3,3.3,0,0,0,1.7-.41,4.277,4.277,0,0,0,1.22-1.087l1.159.9A4.659,4.659,0,0,1,42.687.205Zm-.236-9.946a2.53,2.53,0,0,0-1.928.836,4.062,4.062,0,0,0-.964,2.343h5.558v-.144a3.613,3.613,0,0,0-.779-2.24A2.382,2.382,0,0,0,42.451-9.741Zm12.12.349a5.685,5.685,0,0,0-.933-.072,2.5,2.5,0,0,0-2.533,1.589V0h-1.9V-11.095h1.846l.031,1.282A2.954,2.954,0,0,1,53.73-11.3a1.938,1.938,0,0,1,.841.144Zm6.152,9.6a4.848,4.848,0,0,1-3.671-1.482A5.5,5.5,0,0,1,55.638-5.24v-.349a6.658,6.658,0,0,1,.631-2.948,4.919,4.919,0,0,1,1.764-2.03,4.434,4.434,0,0,1,2.456-.733,4.155,4.155,0,0,1,3.363,1.425,6.171,6.171,0,0,1,1.2,4.081V-5H57.535a3.944,3.944,0,0,0,.959,2.651,3.014,3.014,0,0,0,2.333,1.01,3.3,3.3,0,0,0,1.7-.41,4.277,4.277,0,0,0,1.22-1.087l1.159.9A4.659,4.659,0,0,1,60.724.205Zm-.236-9.946a2.53,2.53,0,0,0-1.928.836A4.062,4.062,0,0,0,57.6-6.562h5.558v-.144a3.613,3.613,0,0,0-.779-2.24A2.382,2.382,0,0,0,60.488-9.741Zm8.552-1.354L69.1-9.7a4.043,4.043,0,0,1,3.322-1.6q3.517,0,3.548,3.968V0h-1.9V-7.342a2.554,2.554,0,0,0-.549-1.774,2.2,2.2,0,0,0-1.677-.574,2.738,2.738,0,0,0-1.62.492,3.342,3.342,0,0,0-1.087,1.292V0h-1.9V-11.095ZM83.282-1.343a2.732,2.732,0,0,0,1.774-.615A2.164,2.164,0,0,0,85.9-3.5h1.794a3.44,3.44,0,0,1-.656,1.815A4.322,4.322,0,0,1,85.42-.308a4.66,4.66,0,0,1-2.138.513,4.57,4.57,0,0,1-3.6-1.512A6.024,6.024,0,0,1,78.34-5.445v-.318a6.679,6.679,0,0,1,.595-2.881A4.53,4.53,0,0,1,80.642-10.6a4.85,4.85,0,0,1,2.63-.7,4.45,4.45,0,0,1,3.1,1.118,3.994,3.994,0,0,1,1.318,2.9H85.9a2.614,2.614,0,0,0-.815-1.769,2.536,2.536,0,0,0-1.81-.692A2.655,2.655,0,0,0,81.031-8.7a4.888,4.888,0,0,0-.795,3.01v.359a4.79,4.79,0,0,0,.79,2.953A2.668,2.668,0,0,0,83.282-1.343ZM91.885,0h-1.9V-11.095h1.9ZM89.834-14.038a1.132,1.132,0,0,1,.282-.779,1.059,1.059,0,0,1,.836-.318,1.075,1.075,0,0,1,.841.318,1.12,1.12,0,0,1,.287.779,1.084,1.084,0,0,1-.287.769,1.1,1.1,0,0,1-.841.308,1.078,1.078,0,0,1-.836-.308A1.1,1.1,0,0,1,89.834-14.038ZM101.77,0a3.985,3.985,0,0,1-.267-1.169A4.233,4.233,0,0,1,98.345.205a3.916,3.916,0,0,1-2.692-.928A3,3,0,0,1,94.6-3.076,3.136,3.136,0,0,1,95.92-5.768a6.212,6.212,0,0,1,3.707-.959h1.846V-7.6a2.131,2.131,0,0,0-.595-1.584,2.39,2.39,0,0,0-1.753-.59,2.766,2.766,0,0,0-1.7.513,1.511,1.511,0,0,0-.687,1.241H94.828a2.618,2.618,0,0,1,.59-1.6,4.024,4.024,0,0,1,1.6-1.225,5.381,5.381,0,0,1,2.22-.451,4.386,4.386,0,0,1,3,.959A3.458,3.458,0,0,1,103.37-7.7v5.106a6.243,6.243,0,0,0,.39,2.43V0ZM98.622-1.446a3.334,3.334,0,0,0,1.692-.461,2.791,2.791,0,0,0,1.159-1.2V-5.383H99.986q-3.486,0-3.486,2.041a1.727,1.727,0,0,0,.595,1.395A2.286,2.286,0,0,0,98.622-1.446ZM-56.248,25a3.985,3.985,0,0,1-.267-1.169,4.233,4.233,0,0,1-3.158,1.374,3.916,3.916,0,0,1-2.692-.928,3,3,0,0,1-1.051-2.353A3.136,3.136,0,0,1-62.1,19.232a6.212,6.212,0,0,1,3.707-.959h1.846V17.4a2.131,2.131,0,0,0-.595-1.584,2.39,2.39,0,0,0-1.753-.59,2.766,2.766,0,0,0-1.7.513,1.511,1.511,0,0,0-.687,1.241H-63.19a2.618,2.618,0,0,1,.59-1.6A4.024,4.024,0,0,1-61,14.151a5.381,5.381,0,0,1,2.22-.451,4.386,4.386,0,0,1,3,.959,3.458,3.458,0,0,1,1.128,2.64v5.106a6.243,6.243,0,0,0,.39,2.43V25ZM-59.4,23.554a3.334,3.334,0,0,0,1.692-.461,2.791,2.791,0,0,0,1.159-1.2V19.617h-1.487q-3.486,0-3.486,2.041a1.727,1.727,0,0,0,.595,1.395A2.286,2.286,0,0,0-59.4,23.554Zm14.571.349a4.029,4.029,0,0,1-3.25,1.3,3.449,3.449,0,0,1-2.7-1.031,4.461,4.461,0,0,1-.938-3.051V13.905h1.9v7.167q0,2.522,2.051,2.522a2.84,2.84,0,0,0,2.892-1.62v-8.07h1.9V25h-1.8Zm7.3-12.684v2.687h2.071v1.466h-2.071v6.889a1.54,1.54,0,0,0,.277,1,1.165,1.165,0,0,0,.943.334,4.593,4.593,0,0,0,.9-.123V25a5.532,5.532,0,0,1-1.456.2,2.362,2.362,0,0,1-1.917-.769,3.3,3.3,0,0,1-.646-2.184v-6.88h-2.02V13.905h2.02V11.219Zm3.579,8.131a6.553,6.553,0,0,1,.641-2.933,4.781,4.781,0,0,1,1.784-2.01,4.857,4.857,0,0,1,2.61-.708,4.679,4.679,0,0,1,3.666,1.569,6.036,6.036,0,0,1,1.4,4.173v.133a6.61,6.61,0,0,1-.62,2.907,4.71,4.71,0,0,1-1.774,2,4.913,4.913,0,0,1-2.651.718,4.667,4.667,0,0,1-3.656-1.569,6.005,6.005,0,0,1-1.4-4.153Zm1.907.226a4.746,4.746,0,0,0,.856,2.963,2.74,2.74,0,0,0,2.292,1.118,2.724,2.724,0,0,0,2.3-1.133,5.19,5.19,0,0,0,.851-3.174,4.738,4.738,0,0,0-.866-2.958,2.755,2.755,0,0,0-2.3-1.133,2.724,2.724,0,0,0-2.266,1.118A5.152,5.152,0,0,0-32.038,19.576Zm12.356-5.67.051,1.23A4.1,4.1,0,0,1-16.34,13.7a3.172,3.172,0,0,1,3.168,1.784,4.2,4.2,0,0,1,1.441-1.292,4.255,4.255,0,0,1,2.1-.492q3.65,0,3.712,3.866V25h-1.9V17.679A2.548,2.548,0,0,0-8.362,15.9a2.393,2.393,0,0,0-1.825-.59,2.515,2.515,0,0,0-1.753.631,2.558,2.558,0,0,0-.81,1.7V25h-1.907V17.73a2.117,2.117,0,0,0-2.369-2.42A2.538,2.538,0,0,0-19.58,16.9V25h-1.9V13.905ZM3.789,25a3.985,3.985,0,0,1-.267-1.169A4.233,4.233,0,0,1,.364,25.205a3.916,3.916,0,0,1-2.692-.928,3,3,0,0,1-1.051-2.353,3.136,3.136,0,0,1,1.318-2.692,6.212,6.212,0,0,1,3.707-.959H3.491V17.4A2.131,2.131,0,0,0,2.9,15.818a2.39,2.39,0,0,0-1.753-.59,2.766,2.766,0,0,0-1.7.513,1.511,1.511,0,0,0-.687,1.241H-3.153a2.618,2.618,0,0,1,.59-1.6,4.024,4.024,0,0,1,1.6-1.225,5.381,5.381,0,0,1,2.22-.451,4.386,4.386,0,0,1,3,.959A3.458,3.458,0,0,1,5.388,17.3v5.106a6.243,6.243,0,0,0,.39,2.43V25ZM.641,23.554a3.334,3.334,0,0,0,1.692-.461,2.791,2.791,0,0,0,1.159-1.2V19.617H2q-3.486,0-3.486,2.041a1.727,1.727,0,0,0,.595,1.395A2.286,2.286,0,0,0,.641,23.554ZM10.936,11.219v2.687h2.071v1.466H10.936v6.889a1.54,1.54,0,0,0,.277,1,1.165,1.165,0,0,0,.943.334,4.593,4.593,0,0,0,.9-.123V25a5.532,5.532,0,0,1-1.456.2,2.362,2.362,0,0,1-1.917-.769,3.3,3.3,0,0,1-.646-2.184v-6.88H7.019V13.905h2.02V11.219ZM17.283,25h-1.9V13.905h1.9ZM15.232,10.962a1.132,1.132,0,0,1,.282-.779,1.059,1.059,0,0,1,.836-.318,1.075,1.075,0,0,1,.841.318,1.12,1.12,0,0,1,.287.779,1.084,1.084,0,0,1-.287.769,1.1,1.1,0,0,1-.841.308,1.078,1.078,0,0,1-.836-.308A1.1,1.1,0,0,1,15.232,10.962ZM22.1,23.452h6.491V25H19.785V23.605l6.122-8.131H19.877V13.905h8.408v1.343ZM37.575,25a3.985,3.985,0,0,1-.267-1.169,4.233,4.233,0,0,1-3.158,1.374,3.916,3.916,0,0,1-2.692-.928,3,3,0,0,1-1.051-2.353,3.136,3.136,0,0,1,1.318-2.692,6.212,6.212,0,0,1,3.707-.959h1.846V17.4a2.131,2.131,0,0,0-.595-1.584,2.39,2.39,0,0,0-1.753-.59,2.766,2.766,0,0,0-1.7.513,1.511,1.511,0,0,0-.687,1.241H30.634a2.618,2.618,0,0,1,.59-1.6,4.024,4.024,0,0,1,1.6-1.225,5.381,5.381,0,0,1,2.22-.451,4.386,4.386,0,0,1,3,.959,3.458,3.458,0,0,1,1.128,2.64v5.106a6.243,6.243,0,0,0,.39,2.43V25Zm-3.148-1.446a3.334,3.334,0,0,0,1.692-.461,2.791,2.791,0,0,0,1.159-1.2V19.617H35.791q-3.486,0-3.486,2.041a1.727,1.727,0,0,0,.595,1.395A2.286,2.286,0,0,0,34.427,23.554Zm7.26-4.194a6.5,6.5,0,0,1,1.21-4.107,4.117,4.117,0,0,1,6.255-.22V9.25h1.9V25H49.306l-.092-1.189a3.863,3.863,0,0,1-3.168,1.395A3.789,3.789,0,0,1,42.9,23.626,6.573,6.573,0,0,1,41.687,19.5Zm1.9.215a4.921,4.921,0,0,0,.779,2.953A2.519,2.519,0,0,0,46.517,23.6a2.767,2.767,0,0,0,2.635-1.62v-5.1a2.789,2.789,0,0,0-2.615-1.569,2.531,2.531,0,0,0-2.174,1.077A5.418,5.418,0,0,0,43.584,19.576Zm9.905-.226a6.553,6.553,0,0,1,.641-2.933,4.781,4.781,0,0,1,1.784-2.01,4.857,4.857,0,0,1,2.61-.708,4.679,4.679,0,0,1,3.666,1.569,6.036,6.036,0,0,1,1.4,4.173v.133a6.61,6.61,0,0,1-.62,2.907,4.71,4.71,0,0,1-1.774,2,4.913,4.913,0,0,1-2.651.718,4.667,4.667,0,0,1-3.656-1.569,6.005,6.005,0,0,1-1.4-4.153Zm1.907.226a4.746,4.746,0,0,0,.856,2.963,2.9,2.9,0,0,0,4.589-.015,5.19,5.19,0,0,0,.851-3.174,4.738,4.738,0,0,0-.866-2.958,2.755,2.755,0,0,0-2.3-1.133,2.724,2.724,0,0,0-2.266,1.118A5.152,5.152,0,0,0,55.4,19.576Z" transform="translate(640.774 775.62)" fill="#12263f"/>
    <path id="Rectángulo_40686-2-6" data-name="Rectángulo 40686-2" d="M5,0H248a5,5,0,0,1,5,5V79a5,5,0,0,1-5,5H5a5,5,0,0,1-5-5V5A5,5,0,0,1,5,0Z" transform="translate(829.334 743)" fill="#b9ddfc"/>
    <path id="Trazado_198222" data-name="Trazado 198222" d="M-44.948-5.845V0h-1.969V-14.93h5.506a5.532,5.532,0,0,1,3.84,1.251,4.241,4.241,0,0,1,1.389,3.312A4.185,4.185,0,0,1-37.54-7.019a5.779,5.779,0,0,1-3.891,1.174Zm0-1.61h3.538A3.537,3.537,0,0,0-38.99-8.2a2.723,2.723,0,0,0,.841-2.152,2.813,2.813,0,0,0-.841-2.136A3.314,3.314,0,0,0-41.3-13.32h-3.65ZM-28.6-9.393a5.685,5.685,0,0,0-.933-.072,2.5,2.5,0,0,0-2.533,1.589V0h-1.9V-11.095h1.846l.031,1.282A2.954,2.954,0,0,1-29.444-11.3a1.938,1.938,0,0,1,.841.144Zm1.036,3.743a6.553,6.553,0,0,1,.641-2.933,4.781,4.781,0,0,1,1.784-2.01,4.857,4.857,0,0,1,2.61-.708,4.679,4.679,0,0,1,3.666,1.569,6.036,6.036,0,0,1,1.4,4.173v.133a6.61,6.61,0,0,1-.62,2.907,4.71,4.71,0,0,1-1.774,2,4.913,4.913,0,0,1-2.651.718,4.667,4.667,0,0,1-3.656-1.569,6.005,6.005,0,0,1-1.4-4.153Zm1.907.226A4.746,4.746,0,0,0-24.8-2.461a2.74,2.74,0,0,0,2.292,1.118,2.724,2.724,0,0,0,2.3-1.133,5.19,5.19,0,0,0,.851-3.174,4.738,4.738,0,0,0-.866-2.958,2.755,2.755,0,0,0-2.3-1.133A2.724,2.724,0,0,0-24.8-8.624,5.152,5.152,0,0,0-25.66-5.424Zm13.146-8.357v2.687h2.071v1.466h-2.071v6.889a1.54,1.54,0,0,0,.277,1,1.165,1.165,0,0,0,.943.334,4.593,4.593,0,0,0,.9-.123V0a5.532,5.532,0,0,1-1.456.2,2.362,2.362,0,0,1-1.917-.769,3.3,3.3,0,0,1-.646-2.184v-6.88h-2.02v-1.466h2.02v-2.687ZM-8.936-5.65A6.553,6.553,0,0,1-8.3-8.583a4.781,4.781,0,0,1,1.784-2.01A4.857,4.857,0,0,1-3.9-11.3,4.679,4.679,0,0,1-.236-9.731a6.036,6.036,0,0,1,1.4,4.173v.133a6.61,6.61,0,0,1-.62,2.907,4.71,4.71,0,0,1-1.774,2A4.913,4.913,0,0,1-3.881.205,4.667,4.667,0,0,1-7.537-1.364a6.005,6.005,0,0,1-1.4-4.153Zm1.907.226a4.746,4.746,0,0,0,.856,2.963A2.74,2.74,0,0,0-3.881-1.343a2.724,2.724,0,0,0,2.3-1.133A5.19,5.19,0,0,0-.733-5.65,4.738,4.738,0,0,0-1.6-8.608,2.755,2.755,0,0,0-3.9-9.741,2.724,2.724,0,0,0-6.168-8.624,5.152,5.152,0,0,0-7.029-5.424ZM6.116-13.781v2.687H8.188v1.466H6.116v6.889a1.54,1.54,0,0,0,.277,1,1.165,1.165,0,0,0,.943.334,4.593,4.593,0,0,0,.9-.123V0a5.532,5.532,0,0,1-1.456.2A2.362,2.362,0,0,1,4.865-.564a3.3,3.3,0,0,1-.646-2.184v-6.88H2.2v-1.466h2.02v-2.687ZM12.464,0h-1.9V-11.095h1.9ZM10.413-14.038a1.132,1.132,0,0,1,.282-.779,1.059,1.059,0,0,1,.836-.318,1.075,1.075,0,0,1,.841.318,1.12,1.12,0,0,1,.287.779,1.084,1.084,0,0,1-.287.769,1.1,1.1,0,0,1-.841.308,1.078,1.078,0,0,1-.836-.308A1.1,1.1,0,0,1,10.413-14.038ZM24.871-5.424a6.643,6.643,0,0,1-1.159,4.081A3.714,3.714,0,0,1,20.574.205,4.069,4.069,0,0,1,17.4-1.077V4.266H15.5v-15.36h1.733l.092,1.23a3.908,3.908,0,0,1,3.22-1.436,3.783,3.783,0,0,1,3.163,1.507A6.716,6.716,0,0,1,24.871-5.6Zm-1.9-.215a4.9,4.9,0,0,0-.8-2.963A2.576,2.576,0,0,0,19.98-9.69,2.789,2.789,0,0,0,17.4-8.162v5.3A2.794,2.794,0,0,0,20-1.343a2.564,2.564,0,0,0,2.169-1.082A5.351,5.351,0,0,0,22.974-5.64Zm3.8-.01a6.553,6.553,0,0,1,.641-2.933,4.781,4.781,0,0,1,1.784-2.01,4.857,4.857,0,0,1,2.61-.708,4.679,4.679,0,0,1,3.666,1.569,6.036,6.036,0,0,1,1.4,4.173v.133a6.61,6.61,0,0,1-.62,2.907,4.71,4.71,0,0,1-1.774,2,4.913,4.913,0,0,1-2.651.718,4.667,4.667,0,0,1-3.656-1.569,6.005,6.005,0,0,1-1.4-4.153Zm1.907.226a4.746,4.746,0,0,0,.856,2.963,2.74,2.74,0,0,0,2.292,1.118,2.724,2.724,0,0,0,2.3-1.133,5.19,5.19,0,0,0,.851-3.174,4.738,4.738,0,0,0-.866-2.958,2.755,2.755,0,0,0-2.3-1.133,2.724,2.724,0,0,0-2.266,1.118A5.152,5.152,0,0,0,28.685-5.424ZM45.717-2.943a1.4,1.4,0,0,0-.579-1.195,5.576,5.576,0,0,0-2.02-.733,9.551,9.551,0,0,1-2.287-.738A3.253,3.253,0,0,1,39.58-6.634a2.453,2.453,0,0,1-.405-1.415,2.878,2.878,0,0,1,1.154-2.307,4.505,4.505,0,0,1,2.948-.943,4.636,4.636,0,0,1,3.061.974,3.094,3.094,0,0,1,1.174,2.492H45.6a1.713,1.713,0,0,0-.661-1.343,2.478,2.478,0,0,0-1.666-.564,2.593,2.593,0,0,0-1.62.451,1.42,1.42,0,0,0-.584,1.179,1.151,1.151,0,0,0,.543,1.036,6.687,6.687,0,0,0,1.964.667,10.231,10.231,0,0,1,2.3.759,3.358,3.358,0,0,1,1.307,1.061,2.609,2.609,0,0,1,.426,1.512A2.839,2.839,0,0,1,46.425-.692a4.989,4.989,0,0,1-3.086.9A5.587,5.587,0,0,1,40.98-.267a3.836,3.836,0,0,1-1.6-1.318,3.176,3.176,0,0,1-.579-1.83h1.9A1.964,1.964,0,0,0,41.457-1.9a2.964,2.964,0,0,0,1.882.559,3.059,3.059,0,0,0,1.728-.436A1.339,1.339,0,0,0,45.717-2.943Z" transform="translate(952.981 790.662)" fill="#12263f"/>
    <path id="Trazado_197333" data-name="Trazado 197333" d="M4151.281,657.257v49.228h309.666V657.257" transform="translate(-3505.864 -139.57)" fill="none" stroke="#14263e" stroke-miterlimit="10" stroke-width="1"/>
    <path id="Trazado_198223" data-name="Trazado 198223" d="M0,32.136V0" transform="translate(800.334 566.915)" fill="none" stroke="#14263e" stroke-width="1"/>
    <path id="Trazado_197334" data-name="Trazado 197334" d="M4460.947,834.986V785.758H4151.281v49.228" transform="translate(-3505.864 -92.354)" fill="none" stroke="#14263e" stroke-miterlimit="10" stroke-width="1"/>
    <path id="Trazado_198224" data-name="Trazado 198224" d="M0,0V32.136" transform="translate(800.167 661.268)" fill="none" stroke="#14263e" stroke-width="1"/>
  </g>
</svg>
