<svg xmlns="http://www.w3.org/2000/svg" width="77.236" height="85.922" viewBox="0 0 77.236 85.922">
  <g id="Glass" transform="translate(0 0)">
    <g id="Glass-2" data-name="Glass" transform="translate(0 44.138)">
      <g id="Magnifying_glass" data-name="Magnifying glass">
        <g id="Grupo_114076" data-name="Grupo 114076">
          <path id="Trazado_119037" data-name="Trazado 119037" d="M1089.142,263.264h0a2.12,2.12,0,0,0,.322-2.118,6.667,6.667,0,0,0-4.32-4.21,2.12,2.12,0,0,0-2.11.374h0l-26.38,24.981,0,0a2.884,2.884,0,0,0-.547,3.047,9.317,9.317,0,0,0,6.037,5.885,2.882,2.882,0,0,0,3.032-.623l.008.008Z" transform="translate(-1055.93 -249.594)" fill="#00defc"/>
          <g id="Grupo_114074" data-name="Grupo 114074" transform="translate(26.653 7.232)">
            <path id="Trazado_119038" data-name="Trazado 119038" d="M1086.928,256.935c-1.863-.474-2.952.642-2.43,2.493a6.663,6.663,0,0,0,4.319,4.21c1.864.474,2.953-.642,2.43-2.493A6.663,6.663,0,0,0,1086.928,256.935Z" transform="translate(-1084.367 -256.826)" fill="#00defc"/>
          </g>
          <g id="Grupo_114075" data-name="Grupo 114075" transform="translate(26.653 7.232)" opacity="0.25">
            <path id="Trazado_119039" data-name="Trazado 119039" d="M1086.928,256.935c-1.863-.474-2.952.642-2.43,2.493a6.663,6.663,0,0,0,4.319,4.21c1.864.474,2.953-.642,2.43-2.493A6.663,6.663,0,0,0,1086.928,256.935Z" transform="translate(-1084.367 -256.826)"/>
          </g>
          <path id="Trazado_119040" data-name="Trazado 119040" d="M1098.416,251.721a4.031,4.031,0,0,0-2.611-2.546,1.283,1.283,0,0,0-1.276.227h0l-8.41,8.6h0a1.284,1.284,0,0,0-.194,1.281,4.029,4.029,0,0,0,2.612,2.546,1.281,1.281,0,0,0,1.276-.226l8.41-8.6h0A1.282,1.282,0,0,0,1098.416,251.721Z" transform="translate(-1057.806 -249.11)" fill="#2b454e"/>
          <path id="Trazado_119041" data-name="Trazado 119041" d="M1095.8,249.176a2.891,2.891,0,0,1,.437.154c.024.01.046.024.069.036a3.617,3.617,0,0,1,.368.2l.027.019a4.041,4.041,0,0,1,1.709,2.141,1.281,1.281,0,0,1-.194,1.281l-2.015,2.06a13.412,13.412,0,0,1-2.022-1.637l-7.43,7.258a3.6,3.6,0,0,1-.832-1.4,1.284,1.284,0,0,1,.194-1.281h0l8.411-8.6h0A1.283,1.283,0,0,1,1095.8,249.176Z" transform="translate(-1057.806 -249.11)" fill="#375a64"/>
          <path id="Trazado_119042" data-name="Trazado 119042" d="M1083.555,261.135l-26.631,26.033a7.287,7.287,0,0,1-.813-1.795,2.875,2.875,0,0,1,.549-3.047l0,0,26.375-24.978a2.118,2.118,0,0,0-.319,2.119A5.579,5.579,0,0,0,1083.555,261.135Z" transform="translate(-1055.93 -249.626)" fill="#00defc"/>
          <path id="Trazado_119043" data-name="Trazado 119043" d="M1083.555,261.135l-26.631,26.033a7.287,7.287,0,0,1-.813-1.795,2.875,2.875,0,0,1,.549-3.047l0,0,26.375-24.978a2.118,2.118,0,0,0-.319,2.119A5.579,5.579,0,0,0,1083.555,261.135Z" transform="translate(-1055.93 -249.626)" fill="#fff" opacity="0.3"/>
        </g>
      </g>
    </g>
    <g id="Grupo_114078" data-name="Grupo 114078" transform="translate(25.383 0)">
      <path id="Trazado_119044" data-name="Trazado 119044" d="M1123.192,264.006l4.779-2.77c4.259-2.458,6.893-7.733,6.893-15.237,0-15.01-10.537-33.261-23.536-40.767-6.5-3.752-12.384-4.107-16.643-1.649l-4.779,2.77h0c-4.259,2.459-6.894,7.733-6.894,15.237,0,15.01,10.538,33.262,23.537,40.767,6.5,3.753,12.384,4.107,16.643,1.649Zm-31.676-54.865c3.408-1.967,8.175-1.382,13.424,1.649,5.805,3.352,11.3,9.173,15.465,16.391s6.463,14.885,6.463,21.588c0,6.06-1.877,10.482-5.284,12.449s-8.175,1.382-13.424-1.648c-5.806-3.352-11.3-9.173-15.465-16.391s-6.463-14.885-6.463-21.588C1086.232,215.529,1088.108,211.108,1091.516,209.14Z" transform="translate(-1083.011 -202.018)" fill="#00defc"/>
      <path id="Trazado_119045" data-name="Trazado 119045" d="M1123.192,264.006l4.779-2.77c4.259-2.458,6.893-7.733,6.893-15.237,0-15.01-10.537-33.261-23.536-40.767-6.5-3.752-12.384-4.107-16.643-1.649l-4.779,2.77h0c-4.259,2.459-6.894,7.733-6.894,15.237,0,15.01,10.538,33.262,23.537,40.767,6.5,3.753,12.384,4.107,16.643,1.649Zm-31.676-54.865c3.408-1.967,8.175-1.382,13.424,1.649,5.805,3.352,11.3,9.173,15.465,16.391s6.463,14.885,6.463,21.588c0,6.06-1.877,10.482-5.284,12.449s-8.175,1.382-13.424-1.648c-5.806-3.352-11.3-9.173-15.465-16.391s-6.463-14.885-6.463-21.588C1086.232,215.529,1088.108,211.108,1091.516,209.14Z" transform="translate(-1083.011 -202.018)" fill="#fff" opacity="0.6"/>
      <path id="Trazado_119046" data-name="Trazado 119046" d="M1083.011,221.773c0,15.01,10.538,33.262,23.537,40.767s23.537,1.421,23.537-13.589-10.538-33.262-23.537-40.767S1083.012,206.764,1083.011,221.773Zm21.928-10.8c5.8,3.352,11.3,9.173,15.465,16.391s6.462,14.885,6.462,21.588c0,6.06-1.876,10.483-5.283,12.449s-8.175,1.382-13.425-1.648c-5.8-3.352-11.3-9.172-15.464-16.391s-6.462-14.885-6.462-21.588c0-6.061,1.876-10.482,5.284-12.45S1099.69,207.942,1104.939,210.972Z" transform="translate(-1083.011 -202.203)" fill="#00defc"/>
      <path id="Trazado_119047" data-name="Trazado 119047" d="M1083.011,221.773c0,15.01,10.538,33.262,23.537,40.767s23.537,1.421,23.537-13.589-10.538-33.262-23.537-40.767S1083.012,206.764,1083.011,221.773Zm21.928-10.8c5.8,3.352,11.3,9.173,15.465,16.391s6.462,14.885,6.462,21.588c0,6.06-1.876,10.483-5.283,12.449s-8.175,1.382-13.425-1.648c-5.8-3.352-11.3-9.172-15.464-16.391s-6.462-14.885-6.462-21.588c0-6.061,1.876-10.482,5.284-12.45S1099.69,207.942,1104.939,210.972Z" transform="translate(-1083.011 -202.203)" fill="#fff" opacity="0.3"/>
      <path id="Trazado_119048" data-name="Trazado 119048" d="M1132.476,249.72c0-9.853-4.539-21.1-11.334-29.786a.649.649,0,0,1,.055.066l4.766-2.76c6.77,8.674,11.293,19.887,11.293,29.714,0,7.506-2.635,12.78-6.9,15.238l-4.775,2.771v-.006c-.086.051-.172.1-.258.142C1129.736,262.706,1132.476,257.372,1132.476,249.72Z" transform="translate(-1085.403 -202.973)" fill="#00defc" opacity="0.3"/>
      <g id="Grupo_114077" data-name="Grupo 114077" transform="translate(3.219 5.979)">
        <path id="Trazado_119049" data-name="Trazado 119049" d="M1091.729,209.538a8.923,8.923,0,0,1,4.575-1.141,18.157,18.157,0,0,0-2.009,9.063c0,6.7,2.291,14.371,6.46,21.591s9.66,13.037,15.465,16.384a18.219,18.219,0,0,0,8.856,2.8,8.983,8.983,0,0,1-3.279,3.386c-3.406,1.967-8.175,1.383-13.427-1.651-5.8-3.35-11.3-9.172-15.46-16.387s-6.464-14.891-6.465-21.587C1086.444,215.926,1088.322,211.5,1091.729,209.538Z" transform="translate(-1086.445 -208.397)" fill="#00defc"/>
      </g>
      <path id="Trazado_119050" data-name="Trazado 119050" d="M1090.236,219.938c0,6.7,2.294,14.37,6.463,21.588s9.66,13.039,15.464,16.391c4.331,2.5,8.332,3.331,11.514,2.442,2.361-2.31,3.641-6.191,3.641-11.192,0-6.7-2.294-14.37-6.462-21.588s-9.661-13.039-15.465-16.391c-4.331-2.5-8.332-3.331-11.514-2.442C1091.516,211.056,1090.236,214.937,1090.236,219.938Z" transform="translate(-1083.464 -202.418)" fill="#fff" opacity="0.4"/>
      <path id="Trazado_119051" data-name="Trazado 119051" d="M1089.517,207.151c-.1.066-.187.131-.277.2.01,0,.015-.009.02-.009.152-.112.3-.217.453-.318.061-.045.121-.085.182-.126-.081.05-.157.1-.232.151C1089.613,207.081,1089.567,207.117,1089.517,207.151Z" transform="translate(-1083.402 -202.324)" opacity="0.1"/>
      <path id="Trazado_119052" data-name="Trazado 119052" d="M1089.129,207.449a2.179,2.179,0,0,0-.2.161c.091-.075.187-.146.282-.217.005,0,.01,0,.01-.01C1089.19,207.4,1089.16,207.423,1089.129,207.449Z" transform="translate(-1083.382 -202.354)" opacity="0.1"/>
      <path id="Trazado_119053" data-name="Trazado 119053" d="M1087.837,208.567v0c.136-.136.273-.267.413-.4q-.136.121-.257.242C1087.943,208.465,1087.888,208.516,1087.837,208.567Z" transform="translate(-1083.314 -202.404)" opacity="0.1"/>
    </g>
  </g>
</svg>
