<svg xmlns="http://www.w3.org/2000/svg" width="63.479" height="76.85" viewBox="0 0 63.479 76.85">
  <g id="Folder" transform="translate(0 0)">
    <g id="Grupo_114073" data-name="Grupo 114073" transform="translate(0.33 0)">
      <path id="Trazado_119031" data-name="Trazado 119031" d="M1279.3,262.883l1.276-.737a3,3,0,0,0,1.307-1.952l5.558-41.713a1.626,1.626,0,0,1,2.612-1.286l28.378,16.385a2.619,2.619,0,0,0,3.577-.958l.927-1.606a2.618,2.618,0,0,1,3.576-.958l13.187,7.613a4.225,4.225,0,0,1,1.922,3.9l-6.57,49.314a3,3,0,0,1-1.307,1.951l-1.277.738a.8.8,0,0,1-.8.08l-53.168-30.7A.8.8,0,0,0,1279.3,262.883Z" transform="translate(-1278.495 -216.883)" fill="#00defc"/>
      <path id="Trazado_119032" data-name="Trazado 119032" d="M1279.3,262.883l1.276-.737a3,3,0,0,0,1.307-1.952l5.558-41.713a1.626,1.626,0,0,1,2.612-1.286l28.378,16.385a2.619,2.619,0,0,0,3.577-.958l.927-1.606a2.618,2.618,0,0,1,3.576-.958l13.187,7.613a4.225,4.225,0,0,1,1.922,3.9l-6.57,49.314a3,3,0,0,1-1.307,1.951l-1.277.738a.8.8,0,0,1-.8.08l-53.168-30.7A.8.8,0,0,0,1279.3,262.883Z" transform="translate(-1278.495 -216.883)" opacity="0.25"/>
      <path id="Trazado_119033" data-name="Trazado 119033" d="M1333.741,295.815l-1.277.738a.8.8,0,0,1-.8.08l-53.168-30.7a.8.8,0,0,0,.8-.079l1.276-.737a2.741,2.741,0,0,0,.838-.826l53.166,30.695A2.718,2.718,0,0,1,1333.741,295.815Z" transform="translate(-1278.495 -219.857)" opacity="0.25"/>
    </g>
    <path id="Trazado_119034" data-name="Trazado 119034" d="M1333.787,288.412v-41.53a3.339,3.339,0,0,0-1.512-2.618l-46.6-26.9c-.835-.482-1.512-.091-1.512.873v41.53a3.342,3.342,0,0,0,1.512,2.618l46.6,26.9C1333.111,289.767,1333.787,289.376,1333.787,288.412Z" transform="translate(-1278.521 -216.9)" fill="#f0f0f0"/>
    <path id="Trazado_119035" data-name="Trazado 119035" d="M1331.641,293.834a.794.794,0,0,1-.333-.734V252.007a5.012,5.012,0,0,0-2.267-3.927L1280.409,220c-1.251-.723-2.266-.137-2.266,1.309V262.4a.8.8,0,0,0,.33.733Z" transform="translate(-1278.143 -217.06)" fill="#00defc"/>
    <path id="Trazado_119036" data-name="Trazado 119036" d="M1331.641,293.834a.794.794,0,0,1-.333-.734V252.007a5.012,5.012,0,0,0-2.267-3.927L1280.409,220c-1.251-.723-2.266-.137-2.266,1.309V262.4a.8.8,0,0,0,.33.733Z" transform="translate(-1278.143 -217.06)" fill="#fff" opacity="0.15"/>
  </g>
</svg>
