<svg xmlns="http://www.w3.org/2000/svg" width="127.543" height="250.334" viewBox="0 0 127.543 250.334">
  <g id="Grupo_134955" data-name="Grupo 134955" transform="translate(0 0)">
    <g id="Document" transform="translate(38.711 0)">
      <g id="Sheet">
        <path id="Trazado_119054" data-name="Trazado 119054" d="M1030.991,248.941l1.936-1.116-86.9-50.169-1.936,1.117Z" transform="translate(-944.095 -197.656)" fill="#f0f0f0"/>
        <g id="Grupo_114080" data-name="Grupo 114080" transform="translate(0 1.116)">
          <g id="Grupo_114079" data-name="Grupo 114079">
            <path id="Trazado_119055" data-name="Trazado 119055" d="M944.095,198.846v133.46l86.933,50.188-.037-133.479Z" transform="translate(-944.095 -198.846)" fill="#fafafa"/>
            <path id="Trazado_119056" data-name="Trazado 119056" d="M944.558,199.648l85.97,49.634.037,132.409-86.006-49.653V199.648m-.463-.8V332.307l86.932,50.187-.036-133.478-86.9-50.17Z" transform="translate(-944.095 -198.846)" fill="#ececec"/>
          </g>
        </g>
        <path id="Trazado_119057" data-name="Trazado 119057" d="M1036.806,252.3l.037,133.479,1.88-1.085.019-133.509-1.9,1.093Z" transform="translate(-949.91 -201.013)" fill="#e1e1e1"/>
      </g>
      <g id="Grupo_114112" data-name="Grupo 114112" transform="translate(5.896 17.323)">
        <g id="Grupo_114086" data-name="Grupo 114086" transform="translate(47.924 52.339)">
          <g id="Chart">
            <g id="Grupo_114084" data-name="Grupo 114084">
              <g id="Grupo_114081" data-name="Grupo 114081" transform="translate(6.905 13.091)">
                <path id="Trazado_119058" data-name="Trazado 119058" d="M1020.684,292.479a.31.31,0,0,1,.112.126.386.386,0,0,1,.046.176v.553a.146.146,0,0,1-.046.123.094.094,0,0,1-.112,0l-1.837-1.061,1.363,4.97a.556.556,0,0,1,.018.1.149.149,0,0,1-.047.122.1.1,0,0,1-.112,0l-.484-.279a.266.266,0,0,1-.11-.121,1.093,1.093,0,0,1-.061-.164l-1.358-4.959c-.031-.108-.054-.191-.07-.256a.767.767,0,0,1-.023-.174v-.515a.142.142,0,0,1,.046-.12.092.092,0,0,1,.112,0Z" transform="translate(-1009.452 -286.264)" fill="#375a64"/>
                <path id="Trazado_119059" data-name="Trazado 119059" d="M1014.181,289.955a1.035,1.035,0,0,1,.27-.515.617.617,0,0,1,.48-.169,1.632,1.632,0,0,1,.722.258,2.827,2.827,0,0,1,.725.587,3.147,3.147,0,0,1,.478.731,3.489,3.489,0,0,1,.268.838,6.142,6.142,0,0,1,.1.907c.008.2.012.429.012.68s0,.475-.012.669a3.917,3.917,0,0,1-.1.78,1.058,1.058,0,0,1-.268.516.639.639,0,0,1-.478.168,1.638,1.638,0,0,1-.725-.259,2.907,2.907,0,0,1-1.2-1.3,3.391,3.391,0,0,1-.27-.827,5.821,5.821,0,0,1-.1-.9c0-.1-.006-.211-.006-.331v-.733c0-.12,0-.227.006-.323A3.829,3.829,0,0,1,1014.181,289.955Zm2.267,2.843c0-.239,0-.46-.011-.662a2.893,2.893,0,0,0-.2-.987,1.323,1.323,0,0,0-.582-.645c-.272-.158-.468-.168-.582-.028a1.343,1.343,0,0,0-.2.754c-.008.193-.011.411-.011.648s0,.46.011.664a2.92,2.92,0,0,0,.2.985,1.328,1.328,0,0,0,.582.645q.411.238.582.028a1.329,1.329,0,0,0,.2-.754C1016.445,293.254,1016.448,293.038,1016.448,292.8Z" transform="translate(-1009.209 -286.157)" fill="#375a64"/>
                <path id="Trazado_119060" data-name="Trazado 119060" d="M1012.674,287.914a1.86,1.86,0,0,1,.267.376,1.967,1.967,0,0,1,.165.407,2.034,2.034,0,0,1,.067.394c.006.14.011.287.011.441s0,.3-.011.427a1.074,1.074,0,0,1-.067.316.463.463,0,0,1-.165.217.416.416,0,0,1-.267.066.9.9,0,0,1-.374-.135,1.631,1.631,0,0,1-.375-.3,1.946,1.946,0,0,1-.265-.373,1.776,1.776,0,0,1-.164-.408,1.946,1.946,0,0,1-.068-.394c-.008-.14-.011-.285-.011-.439s0-.3.011-.426a1.044,1.044,0,0,1,.068-.316.446.446,0,0,1,.164-.219.44.44,0,0,1,.265-.068.846.846,0,0,1,.375.131A1.506,1.506,0,0,1,1012.674,287.914Zm.171,5.273a.282.282,0,0,1,.018.056.31.31,0,0,1,.006.042c0,.047-.014.078-.038.09s-.059.01-.1-.015l-.351-.2a.359.359,0,0,1-.126-.112,1.187,1.187,0,0,1-.084-.157l-2.891-6.742a.41.41,0,0,1-.017-.059.153.153,0,0,1-.006-.042.1.1,0,0,1,.038-.092.11.11,0,0,1,.1.018l.35.2a.368.368,0,0,1,.128.112.934.934,0,0,1,.085.158Zm-.777-3.682a.526.526,0,0,0,.232.244c.113.066.191.074.234.027a.379.379,0,0,0,.076-.221,1.266,1.266,0,0,0,.009-.143c0-.067,0-.136,0-.208s0-.145,0-.214a1.458,1.458,0,0,0-.009-.152.961.961,0,0,0-.076-.31.535.535,0,0,0-.234-.246c-.112-.064-.191-.074-.232-.025a.355.355,0,0,0-.077.222,1.067,1.067,0,0,0-.006.143v.422a1.281,1.281,0,0,0,.006.153A.874.874,0,0,0,1012.068,289.506Zm-1.927-.316a2.013,2.013,0,0,1,.267.377,1.829,1.829,0,0,1,.163.407,2.008,2.008,0,0,1,.067.395c.008.14.012.285.012.439s0,.3-.012.426a1.092,1.092,0,0,1-.067.318.44.44,0,0,1-.163.216.4.4,0,0,1-.267.066.908.908,0,0,1-.374-.134,1.556,1.556,0,0,1-.375-.3,1.854,1.854,0,0,1-.265-.373,1.83,1.83,0,0,1-.165-.406,2.037,2.037,0,0,1-.068-.4c-.007-.14-.01-.285-.01-.438s0-.3.01-.427a1.087,1.087,0,0,1,.068-.317.454.454,0,0,1,.165-.217.427.427,0,0,1,.265-.07.833.833,0,0,1,.375.131A1.522,1.522,0,0,1,1010.141,289.19Zm-.608,1.592a.526.526,0,0,0,.234.246c.112.064.191.074.233.025a.361.361,0,0,0,.075-.222.988.988,0,0,0,.01-.142c0-.066,0-.137,0-.209s0-.144,0-.213a1.231,1.231,0,0,0-.01-.153.9.9,0,0,0-.075-.309.538.538,0,0,0-.233-.244c-.114-.066-.191-.074-.234-.027a.378.378,0,0,0-.077.221c0,.029-.006.078-.006.145v.421c0,.068,0,.119.006.151A.933.933,0,0,0,1009.533,290.782Z" transform="translate(-1008.883 -285.948)" fill="#375a64"/>
              </g>
              <g id="Grupo_114083" data-name="Grupo 114083">
                <path id="Trazado_119061" data-name="Trazado 119061" d="M1022.313,281.054a33.608,33.608,0,0,1,4.567,11.014,26.625,26.625,0,0,1,.615,5.534,17.729,17.729,0,0,1-.615,4.824l-3.123-3.157a13.082,13.082,0,0,0,.456-3.562,19.693,19.693,0,0,0-.456-4.089,24.81,24.81,0,0,0-3.378-8.133,16.916,16.916,0,0,0-5.453-5.523v-4.375A22.889,22.889,0,0,1,1022.313,281.054Z" transform="translate(-1002.357 -272.081)" fill="#e1e1e1"/>
                <g id="Grupo_114082" data-name="Grupo 114082">
                  <path id="Trazado_119062" data-name="Trazado 119062" d="M1002.131,278.164c.828-2.921,2.446-4.907,4.567-5.74,2.074-.815,4.625-.532,7.387,1.062v4.375a6.239,6.239,0,0,0-5.454-.773,6.006,6.006,0,0,0-3.377,4.233,13.076,13.076,0,0,0-.456,3.562,19.7,19.7,0,0,0,.456,4.089,24.811,24.811,0,0,0,3.377,8.132,16.922,16.922,0,0,0,5.454,5.524,6.237,6.237,0,0,0,5.453.773,6,6,0,0,0,3.378-4.233l3.123,3.157c-.828,2.92-2.446,4.906-4.567,5.74-2.074.814-4.625.531-7.387-1.062a22.9,22.9,0,0,1-7.387-7.467,33.6,33.6,0,0,1-4.567-11.014,26.632,26.632,0,0,1-.615-5.535A17.722,17.722,0,0,1,1002.131,278.164Z" transform="translate(-1001.516 -271.981)" fill="#00defc"/>
                </g>
              </g>
            </g>
          </g>
          <g id="Chart-2" data-name="Chart" transform="translate(0 40.436)">
            <path id="Trazado_119063" data-name="Trazado 119063" d="M1018.258,339.315a3.412,3.412,0,0,0,.5.625,3.222,3.222,0,0,0,.629.482,2.132,2.132,0,0,0,.711.281.931.931,0,0,0,.5-.041.617.617,0,0,0,.307-.284,1.115,1.115,0,0,0,.123-.435.317.317,0,0,0-.043-.177.326.326,0,0,0-.115-.127l-.461-.266a.089.089,0,0,0-.1-.006.334.334,0,0,0-.078.1.4.4,0,0,1-.094.121.292.292,0,0,1-.155.059.6.6,0,0,1-.243-.036,1.82,1.82,0,0,1-.358-.166,1.789,1.789,0,0,1-.576-.525,1.161,1.161,0,0,1-.22-.669c0-.234.074-.359.22-.377a1,1,0,0,1,.576.182l.485.279a.092.092,0,0,0,.112,0,.136.136,0,0,0,.048-.12v-.554a.466.466,0,0,0-.043-.186c-.03-.067-.059-.126-.085-.177l-.819-1.621,1.615.932a.093.093,0,0,0,.112,0,.146.146,0,0,0,.046-.123v-.554a.378.378,0,0,0-.046-.174.3.3,0,0,0-.112-.126l-2.564-1.481a.094.094,0,0,0-.112,0,.151.151,0,0,0-.045.121v.555a.448.448,0,0,0,.044.186c.029.066.057.126.083.177l.856,1.7a1.343,1.343,0,0,0-.478-.1.627.627,0,0,0-.366.113.7.7,0,0,0-.234.337,1.68,1.68,0,0,0-.082.562,2.665,2.665,0,0,0,.122.792A3.133,3.133,0,0,0,1018.258,339.315Z" transform="translate(-1002.538 -316.315)" fill="#375a64"/>
            <path id="Trazado_119064" data-name="Trazado 119064" d="M1016.178,338.4a.632.632,0,0,0,.477-.169,1.065,1.065,0,0,0,.27-.516,3.9,3.9,0,0,0,.1-.779c.008-.195.013-.416.013-.669s0-.48-.013-.681a6.135,6.135,0,0,0-.1-.906,3.548,3.548,0,0,0-.27-.838,3.1,3.1,0,0,0-.477-.732,2.779,2.779,0,0,0-.725-.586,1.973,1.973,0,0,0-.519-.215v1.134c.118-.085.283-.082.519.054a1.338,1.338,0,0,1,.58.644,2.88,2.88,0,0,1,.2.988c.008.2.011.424.011.662s0,.455-.011.65a1.315,1.315,0,0,1-.2.753q-.172.211-.58-.027a1.345,1.345,0,0,1-.519-.521v1.112a2.974,2.974,0,0,0,.519.385A1.648,1.648,0,0,0,1016.178,338.4Z" transform="translate(-1002.358 -316.2)" fill="#375a64"/>
            <path id="Trazado_119065" data-name="Trazado 119065" d="M1014.8,336.513a2.893,2.893,0,0,1-.2-.987c-.009-.2-.012-.423-.012-.663s0-.456.012-.648a1.325,1.325,0,0,1,.2-.754c.016-.02.046-.014.065-.027V332.3a1.119,1.119,0,0,0-.2-.044.632.632,0,0,0-.48.168,1.049,1.049,0,0,0-.269.516,3.807,3.807,0,0,0-.1.779c0,.1-.007.205-.007.325v.733c0,.12,0,.231.007.331a5.855,5.855,0,0,0,.1.9,3.472,3.472,0,0,0,.269.827,3.018,3.018,0,0,0,.48.722c.062.068.135.129.2.192v-1.112C1014.84,336.6,1014.817,336.556,1014.8,336.513Z" transform="translate(-1002.287 -316.197)" fill="#375a64"/>
            <path id="Trazado_119066" data-name="Trazado 119066" d="M1011.395,330.856a1.055,1.055,0,0,0-.068.316c-.008.131-.012.274-.012.427s0,.3.012.44a1.952,1.952,0,0,0,.068.394,1.8,1.8,0,0,0,.163.408,1.941,1.941,0,0,0,.267.372,1.568,1.568,0,0,0,.374.3.91.91,0,0,0,.375.135.431.431,0,0,0,.265-.066.452.452,0,0,0,.165-.217,1.058,1.058,0,0,0,.067-.316c.008-.131.011-.274.011-.427s0-.3-.011-.44a1.967,1.967,0,0,0-.067-.394,1.858,1.858,0,0,0-.165-.408,1.951,1.951,0,0,0-.265-.375,1.484,1.484,0,0,0-.375-.3.85.85,0,0,0-.374-.131.438.438,0,0,0-.267.068A.447.447,0,0,0,1011.395,330.856Zm.488,1.067v-.21a1.261,1.261,0,0,1,.006-.144.373.373,0,0,1,.077-.222c.042-.049.122-.04.233.025a.536.536,0,0,1,.234.246.949.949,0,0,1,.077.308c0,.034.007.085.008.154s0,.14,0,.212,0,.142,0,.21-.006.114-.008.142a.379.379,0,0,1-.077.221c-.043.048-.122.039-.234-.026a.538.538,0,0,1-.233-.244.937.937,0,0,1-.077-.309,1.481,1.481,0,0,1-.006-.152Z" transform="translate(-1002.131 -316.092)" fill="#375a64"/>
            <path id="Trazado_119067" data-name="Trazado 119067" d="M1010.3,333.147a1.843,1.843,0,0,0-.165-.406,1.964,1.964,0,0,0-.266-.377,1.472,1.472,0,0,0-.374-.3.837.837,0,0,0-.376-.131.421.421,0,0,0-.265.07.451.451,0,0,0-.165.216,1.066,1.066,0,0,0-.067.317c-.008.131-.011.272-.011.426s0,.3.011.44a2.039,2.039,0,0,0,.067.395,1.882,1.882,0,0,0,.165.407,1.914,1.914,0,0,0,.265.373,1.585,1.585,0,0,0,.376.3.9.9,0,0,0,.374.134.411.411,0,0,0,.266-.066.445.445,0,0,0,.165-.217,1.085,1.085,0,0,0,.066-.318c.008-.13.012-.273.012-.426s0-.3-.012-.439A2.022,2.022,0,0,0,1010.3,333.147Zm-.485.715a1.4,1.4,0,0,1-.01.142.358.358,0,0,1-.077.22c-.041.051-.121.04-.232-.023a.53.53,0,0,1-.234-.246.932.932,0,0,1-.077-.31c0-.032-.006-.082-.006-.151v-.421c0-.067,0-.116.006-.145a.375.375,0,0,1,.077-.221c.043-.047.12-.038.234.026a.531.531,0,0,1,.232.244.926.926,0,0,1,.077.31c0,.033.008.084.01.153s0,.14,0,.212S1009.815,333.794,1009.815,333.862Z" transform="translate(-1001.961 -316.177)" fill="#375a64"/>
            <path id="Trazado_119068" data-name="Trazado 119068" d="M1012.6,336.173l-2.892-6.742a.953.953,0,0,0-.085-.159.385.385,0,0,0-.126-.111l-.352-.2a.107.107,0,0,0-.1-.018.1.1,0,0,0-.037.092.211.211,0,0,0,.006.042.559.559,0,0,0,.017.057l2.892,6.742a1.053,1.053,0,0,0,.084.157.346.346,0,0,0,.127.112l.352.2a.1.1,0,0,0,.1.015c.026-.014.039-.043.039-.091a.382.382,0,0,0-.006-.043C1012.612,336.211,1012.606,336.192,1012.6,336.173Z" transform="translate(-1001.986 -315.989)" fill="#375a64"/>
            <path id="Trazado_119069" data-name="Trazado 119069" d="M1014.926,321.1l.007,0v-4.375l-.007,0Z" transform="translate(-1002.357 -315.223)" fill="#00defc"/>
            <path id="Trazado_119070" data-name="Trazado 119070" d="M1004.8,328.025a13.088,13.088,0,0,1,.456-3.563,6.009,6.009,0,0,1,3.377-4.233,6.243,6.243,0,0,1,5.454.774v-4.375c-2.761-1.594-5.312-1.877-7.387-1.062-2.121.833-3.74,2.819-4.567,5.739a17.724,17.724,0,0,0-.615,4.824,26.632,26.632,0,0,0,.615,5.535l3.123.45A19.7,19.7,0,0,1,1004.8,328.025Z" transform="translate(-1001.516 -315.123)" fill="#00defc"/>
            <path id="Trazado_119071" data-name="Trazado 119071" d="M1014.926,347.821V352.2l.007,0v-4.375Z" transform="translate(-1002.357 -317.174)" fill="#00defc"/>
            <g id="Grupo_114085" data-name="Grupo 114085" transform="translate(0.615 1.51)">
              <path id="Trazado_119072" data-name="Trazado 119072" d="M1022.313,324.2a33.607,33.607,0,0,1,4.567,11.014,26.624,26.624,0,0,1,.615,5.534,17.717,17.717,0,0,1-.615,4.823c-.828,2.921-2.447,4.907-4.567,5.741-2.072.814-4.621.532-7.379-1.058v-4.375a6.237,6.237,0,0,0,5.446.77,6.006,6.006,0,0,0,3.378-4.233,13.086,13.086,0,0,0,.456-3.562,19.692,19.692,0,0,0-.456-4.089,24.81,24.81,0,0,0-3.378-8.133,16.919,16.919,0,0,0-5.446-5.519v-4.375A22.889,22.889,0,0,1,1022.313,324.2Z" transform="translate(-1002.973 -316.734)" fill="#e1e1e1"/>
              <path id="Trazado_119073" data-name="Trazado 119073" d="M1005.3,333.221a24.811,24.811,0,0,0,3.377,8.132,16.932,16.932,0,0,0,5.454,5.524v4.375a22.9,22.9,0,0,1-7.387-7.467,33.6,33.6,0,0,1-4.567-11.015Z" transform="translate(-1002.172 -317.74)" fill="#e1e1e1"/>
            </g>
          </g>
        </g>
        <g id="Grupo_114103" data-name="Grupo 114103" transform="translate(2.28 24.45)">
          <g id="Check_List" data-name="Check List" transform="translate(0.263)">
            <g id="Grupo_114089" data-name="Grupo 114089">
              <g id="Grupo_114088" data-name="Grupo 114088" transform="translate(26.523 11.417)">
                <g id="Grupo_114087" data-name="Grupo 114087" transform="translate(0.766 1.401)">
                  <path id="Trazado_119074" data-name="Trazado 119074" d="M988.293,266.788l-5.9-3.405a.361.361,0,0,1-.181-.314v-6.807a.363.363,0,0,1,.545-.314l5.9,3.4a.363.363,0,0,1,.182.314v6.809a.363.363,0,0,1-.182.314.362.362,0,0,1-.363,0Zm-5.352-9.9v5.97l5.171,2.985v-5.97Z" transform="translate(-982.215 -255.899)" fill="#e1e1e1"/>
                </g>
                <path id="Check" d="M981.836,254.46a.716.716,0,0,1,.936.382l2.7,6.432.644-.626a.715.715,0,1,1,1,1.025l-1.4,1.356a.711.711,0,0,1-.5.2.751.751,0,0,1-.143-.014.718.718,0,0,1-.516-.424l-3.109-7.4A.716.716,0,0,1,981.836,254.46Z" transform="translate(-981.397 -254.405)" fill="#00defc"/>
              </g>
              <path id="Trazado_119075" data-name="Trazado 119075" d="M975.741,254.888l-21.7-12.529c-.52-.3-.943-.084-.943.483a2.028,2.028,0,0,0,.943,1.571l21.7,12.528c.52.3.943.084.943-.482A2.028,2.028,0,0,0,975.741,254.888Z" transform="translate(-953.099 -242.224)" fill="#e1e1e1"/>
            </g>
            <g id="Grupo_114092" data-name="Grupo 114092" transform="translate(0 10.181)">
              <g id="Grupo_114091" data-name="Grupo 114091" transform="translate(26.523 11.448)">
                <g id="Grupo_114090" data-name="Grupo 114090" transform="translate(0.766 1.4)">
                  <path id="Trazado_119076" data-name="Trazado 119076" d="M988.294,277.683l-5.9-3.4a.363.363,0,0,1-.182-.314v-6.808a.363.363,0,0,1,.545-.314l5.9,3.4a.362.362,0,0,1,.181.314v6.807a.365.365,0,0,1-.363.364A.356.356,0,0,1,988.294,277.683Zm-5.353-9.9v5.97l5.171,2.985v-5.97Z" transform="translate(-982.215 -266.794)" fill="#e1e1e1"/>
                </g>
                <path id="Check-2" data-name="Check" d="M981.836,265.356a.716.716,0,0,1,.936.382l2.7,6.432.644-.626a.715.715,0,1,1,1,1.025l-1.4,1.356a.711.711,0,0,1-.5.2.751.751,0,0,1-.143-.014.718.718,0,0,1-.516-.424l-3.109-7.4A.716.716,0,0,1,981.836,265.356Z" transform="translate(-981.397 -265.301)" fill="#00defc"/>
              </g>
              <path id="Trazado_119077" data-name="Trazado 119077" d="M975.741,265.75l-21.7-12.529c-.52-.3-.943-.084-.943.483a2.028,2.028,0,0,0,.943,1.571l21.7,12.528c.52.3.943.085.943-.482A2.028,2.028,0,0,0,975.741,265.75Z" transform="translate(-953.099 -253.087)" fill="#e1e1e1"/>
            </g>
            <g id="Grupo_114095" data-name="Grupo 114095" transform="translate(0 20.362)">
              <g id="Grupo_114094" data-name="Grupo 114094" transform="translate(26.523 11.48)">
                <g id="Grupo_114093" data-name="Grupo 114093" transform="translate(0.766 1.401)">
                  <path id="Trazado_119078" data-name="Trazado 119078" d="M988.294,288.58l-5.9-3.4a.363.363,0,0,1-.182-.314v-6.808a.363.363,0,0,1,.545-.314l5.9,3.4a.36.36,0,0,1,.181.314v6.808a.362.362,0,0,1-.363.363A.355.355,0,0,1,988.294,288.58Zm-5.353-9.9v5.97l5.171,2.985v-5.97Z" transform="translate(-982.215 -277.691)" fill="#e1e1e1"/>
                </g>
                <path id="Check-3" data-name="Check" d="M981.836,276.252a.716.716,0,0,1,.936.382l2.7,6.432.644-.626a.715.715,0,1,1,1,1.025l-1.4,1.356a.711.711,0,0,1-.5.2.753.753,0,0,1-.143-.014.718.718,0,0,1-.516-.424l-3.109-7.4A.716.716,0,0,1,981.836,276.252Z" transform="translate(-981.397 -276.197)" fill="#00defc"/>
              </g>
              <path id="Trazado_119079" data-name="Trazado 119079" d="M975.741,276.613l-21.7-12.529c-.52-.3-.943-.085-.943.482a2.027,2.027,0,0,0,.943,1.571l21.7,12.528c.52.3.943.085.943-.482A2.027,2.027,0,0,0,975.741,276.613Z" transform="translate(-953.099 -263.949)" fill="#e1e1e1"/>
            </g>
          </g>
          <g id="Grupo_114102" data-name="Grupo 114102" transform="translate(0 30.168)">
            <path id="Trazado_119080" data-name="Trazado 119080" d="M985.823,332.662l3.506,2.024v-39.2l-3.506-2.024Z" transform="translate(-954.888 -275.607)" fill="#e1e1e1"/>
            <path id="Trazado_119081" data-name="Trazado 119081" d="M979.222,328.851l3.506,2.024v-39.2l-3.506-2.024Z" transform="translate(-954.474 -275.368)" fill="#e1e1e1"/>
            <path id="Trazado_119082" data-name="Trazado 119082" d="M972.621,325.04l3.506,2.024v-39.2l-3.506-2.024Z" transform="translate(-954.06 -275.129)" fill="#e1e1e1"/>
            <path id="Trazado_119083" data-name="Trazado 119083" d="M966.02,321.229l3.506,2.024v-39.2l-3.506-2.024Z" transform="translate(-953.646 -274.89)" fill="#e1e1e1"/>
            <path id="Trazado_119084" data-name="Trazado 119084" d="M959.419,317.418l3.506,2.024v-39.2l-3.506-2.024Z" transform="translate(-953.232 -274.651)" fill="#e1e1e1"/>
            <path id="Trazado_119085" data-name="Trazado 119085" d="M952.818,313.607l3.506,2.024v-39.2l-3.506-2.024Z" transform="translate(-952.818 -274.412)" fill="#e1e1e1"/>
            <path id="Trazado_119086" data-name="Trazado 119086" d="M956.323,276.436l-3.506-2.024V292.3l3.506,2.024Z" transform="translate(-952.818 -274.412)" fill="#00defc"/>
            <g id="Grupo_114096" data-name="Grupo 114096" transform="translate(30.935 26.418)">
              <path id="Trazado_119087" data-name="Trazado 119087" d="M989.329,304.621l-3.506-2.024v21.884l3.506,2.024Z" transform="translate(-985.823 -302.598)" fill="#00defc"/>
              <path id="Trazado_119088" data-name="Trazado 119088" d="M989.329,327.97l-3.506-2.024V334.7l3.506,2.024Z" transform="translate(-985.823 -304.062)" opacity="0.15"/>
            </g>
            <g id="Grupo_114097" data-name="Grupo 114097" transform="translate(24.748 27.82)">
              <path id="Trazado_119089" data-name="Trazado 119089" d="M982.728,306.118l-3.506-2.024v7.879L982.728,314Z" transform="translate(-979.222 -304.094)" fill="#00defc"/>
              <path id="Trazado_119090" data-name="Trazado 119090" d="M982.728,314.524l-3.506-2.024v17.784l3.506,2.024Z" transform="translate(-979.222 -304.621)" opacity="0.15"/>
            </g>
            <g id="Grupo_114098" data-name="Grupo 114098" transform="translate(18.561 13.997)">
              <path id="Trazado_119091" data-name="Trazado 119091" d="M976.127,291.369l-3.506-2.024v6.875l3.506,2.024Z" transform="translate(-972.621 -289.345)" fill="#00defc"/>
              <path id="Trazado_119092" data-name="Trazado 119092" d="M976.127,298.7l-3.506-2.024V325.72l3.506,2.024Z" transform="translate(-972.621 -289.805)" opacity="0.15"/>
            </g>
            <g id="Grupo_114099" data-name="Grupo 114099" transform="translate(12.374 15.702)">
              <path id="Trazado_119093" data-name="Trazado 119093" d="M969.526,293.188l-3.506-2.024v17.321l3.506,2.024Z" transform="translate(-966.02 -291.164)" fill="#00defc"/>
              <path id="Trazado_119094" data-name="Trazado 119094" d="M969.526,311.668l-3.506-2.024v13.317l3.506,2.024Z" transform="translate(-966.02 -292.323)" opacity="0.15"/>
            </g>
            <g id="Grupo_114100" data-name="Grupo 114100" transform="translate(6.187 19.166)">
              <path id="Trazado_119095" data-name="Trazado 119095" d="M962.925,296.884l-3.506-2.024v7.324l3.506,2.024Z" transform="translate(-959.419 -294.86)" fill="#00defc"/>
              <path id="Trazado_119096" data-name="Trazado 119096" d="M962.925,304.7l-3.506-2.024v16.277l3.506,2.024Z" transform="translate(-959.419 -295.351)" opacity="0.15"/>
            </g>
            <g id="Grupo_114101" data-name="Grupo 114101" transform="translate(0 17.889)">
              <path id="Trazado_119097" data-name="Trazado 119097" d="M956.323,295.522l-3.506-2.024V314.8l3.506,2.024Z" transform="translate(-952.818 -293.498)" opacity="0.15"/>
            </g>
            <path id="Trazado_119098" data-name="Trazado 119098" d="M989.329,327.97l-3.506-2.024V334.7l3.506,2.024Z" transform="translate(-954.888 -277.644)" fill="#00defc"/>
            <path id="Trazado_119099" data-name="Trazado 119099" d="M989.329,327.97l-3.506-2.024V334.7l3.506,2.024Z" transform="translate(-954.888 -277.644)" opacity="0.2"/>
            <path id="Trazado_119100" data-name="Trazado 119100" d="M982.728,314.524l-3.506-2.024v17.784l3.506,2.024Z" transform="translate(-954.474 -276.801)" fill="#00defc"/>
            <path id="Trazado_119101" data-name="Trazado 119101" d="M982.728,314.524l-3.506-2.024v17.784l3.506,2.024Z" transform="translate(-954.474 -276.801)" opacity="0.2"/>
            <path id="Trazado_119102" data-name="Trazado 119102" d="M976.127,298.7l-3.506-2.024V325.72l3.506,2.024Z" transform="translate(-954.06 -275.809)" fill="#00defc"/>
            <path id="Trazado_119103" data-name="Trazado 119103" d="M976.127,298.7l-3.506-2.024V325.72l3.506,2.024Z" transform="translate(-954.06 -275.809)" opacity="0.2"/>
            <path id="Trazado_119104" data-name="Trazado 119104" d="M969.526,311.668l-3.506-2.024v13.317l3.506,2.024Z" transform="translate(-953.646 -276.622)" fill="#00defc"/>
            <path id="Trazado_119105" data-name="Trazado 119105" d="M969.526,311.668l-3.506-2.024v13.317l3.506,2.024Z" transform="translate(-953.646 -276.622)" opacity="0.2"/>
            <path id="Trazado_119106" data-name="Trazado 119106" d="M962.925,304.7l-3.506-2.024v16.277l3.506,2.024Z" transform="translate(-953.232 -276.184)" fill="#00defc"/>
            <path id="Trazado_119107" data-name="Trazado 119107" d="M962.925,304.7l-3.506-2.024v16.277l3.506,2.024Z" transform="translate(-953.232 -276.184)" opacity="0.2"/>
            <path id="Trazado_119108" data-name="Trazado 119108" d="M956.323,295.522l-3.506-2.024V314.8l3.506,2.024Z" transform="translate(-952.818 -275.609)" fill="#00defc"/>
            <path id="Trazado_119109" data-name="Trazado 119109" d="M956.323,295.522l-3.506-2.024V314.8l3.506,2.024Z" transform="translate(-952.818 -275.609)" opacity="0.2"/>
          </g>
        </g>
        <g id="Grupo_114107" data-name="Grupo 114107">
          <g id="Grupo_114104" data-name="Grupo 114104">
            <path id="Trazado_119110" data-name="Trazado 119110" d="M1025.058,260.029a.469.469,0,0,0,.234-.874l-74.2-42.953a.468.468,0,1,0-.469.811l74.2,42.953A.457.457,0,0,0,1025.058,260.029Z" transform="translate(-950.385 -216.139)" fill="#e1e1e1"/>
          </g>
          <g id="Grupo_114105" data-name="Grupo 114105" transform="translate(0 4.334)">
            <path id="Trazado_119111" data-name="Trazado 119111" d="M1025.058,264.653a.469.469,0,0,0,.234-.874l-74.2-42.953a.468.468,0,1,0-.469.811l74.2,42.953A.458.458,0,0,0,1025.058,264.653Z" transform="translate(-950.385 -220.762)" fill="#e1e1e1"/>
          </g>
          <g id="Grupo_114106" data-name="Grupo 114106" transform="translate(0 8.667)">
            <path id="Trazado_119112" data-name="Trazado 119112" d="M1025.058,269.276a.469.469,0,0,0,.234-.874l-74.2-42.953a.468.468,0,1,0-.469.811l74.2,42.953A.458.458,0,0,0,1025.058,269.276Z" transform="translate(-950.385 -225.385)" fill="#e1e1e1"/>
          </g>
        </g>
        <g id="Grupo_114111" data-name="Grupo 114111" transform="translate(0 99.747)">
          <g id="Grupo_114108" data-name="Grupo 114108">
            <path id="Trazado_119113" data-name="Trazado 119113" d="M1025.058,366.452a.469.469,0,0,0,.234-.875l-74.2-42.952a.468.468,0,1,0-.469.811l74.2,42.953A.458.458,0,0,0,1025.058,366.452Z" transform="translate(-950.385 -322.561)" fill="#e1e1e1"/>
          </g>
          <g id="Grupo_114109" data-name="Grupo 114109" transform="translate(0 4.333)">
            <path id="Trazado_119114" data-name="Trazado 119114" d="M1025.058,371.075a.469.469,0,0,0,.234-.874l-74.2-42.952a.468.468,0,1,0-.469.811l74.2,42.953A.467.467,0,0,0,1025.058,371.075Z" transform="translate(-950.385 -327.185)" fill="#e1e1e1"/>
          </g>
          <g id="Grupo_114110" data-name="Grupo 114110" transform="translate(0 8.667)">
            <path id="Trazado_119115" data-name="Trazado 119115" d="M1025.058,375.7a.468.468,0,0,0,.234-.874l-74.2-42.952a.468.468,0,1,0-.469.811l74.2,42.952A.457.457,0,0,0,1025.058,375.7Z" transform="translate(-950.385 -331.808)" fill="#e1e1e1"/>
          </g>
        </g>
      </g>
    </g>
    <path id="Shadow" d="M944.1,337.36V279.42l58.027,33.5.016,57.948Z" transform="translate(-905.384 -202.784)" opacity="0.1"/>
    <g id="Document-2" data-name="Document" transform="translate(0 65.571)">
      <g id="Sheet-2" data-name="Sheet">
        <path id="Trazado_119116" data-name="Trazado 119116" d="M989.689,318.9l1.936-1.116-86.9-50.169-1.936,1.116Z" transform="translate(-902.793 -267.614)" fill="#f0f0f0"/>
        <g id="Grupo_114114" data-name="Grupo 114114" transform="translate(0 1.116)">
          <g id="Grupo_114113" data-name="Grupo 114113">
            <path id="Trazado_119117" data-name="Trazado 119117" d="M902.793,268.8v133.46l86.933,50.188-.037-133.478Z" transform="translate(-902.793 -268.805)" fill="#fafafa"/>
            <path id="Trazado_119118" data-name="Trazado 119118" d="M903.256,269.606l85.97,49.635.037,132.409L903.256,402V269.606m-.463-.8v133.46l86.933,50.188-.037-133.478-86.9-50.17Z" transform="translate(-902.793 -268.805)" fill="#ececec"/>
          </g>
        </g>
        <path id="Trazado_119119" data-name="Trazado 119119" d="M995.5,322.257l.037,133.478,1.88-1.085.019-133.509-1.9,1.093Z" transform="translate(-908.608 -270.972)" fill="#e1e1e1"/>
      </g>
      <g id="Grupo_114141" data-name="Grupo 114141" transform="translate(6.128 29.901)">
        <g id="Grupo_114118" data-name="Grupo 114118" transform="translate(0.22 44.174)">
          <g id="Grupo_114117" data-name="Grupo 114117" transform="translate(0.248 10.275)">
            <g id="Grupo_114115" data-name="Grupo 114115" transform="translate(0 19.843)">
              <path id="Trazado_119120" data-name="Trazado 119120" d="M982.332,420.441l3.888,2.245a1.062,1.062,0,0,1,.444.848v.088c0,.327-.2.477-.444.336l-3.888-2.245a1.064,1.064,0,0,1-.443-.847v-.089C981.889,420.451,982.088,420.3,982.332,420.441Z" transform="translate(-914.351 -381.39)" fill="#375a64"/>
              <path id="Trazado_119121" data-name="Trazado 119121" d="M973.325,415.24l3.888,2.245a1.062,1.062,0,0,1,.444.848v.088c0,.327-.2.477-.444.336l-3.888-2.245a1.063,1.063,0,0,1-.443-.847v-.089C972.882,415.25,973.081,415.1,973.325,415.24Z" transform="translate(-913.786 -381.064)" fill="#375a64"/>
              <path id="Trazado_119122" data-name="Trazado 119122" d="M964.318,410.039l3.888,2.245a1.062,1.062,0,0,1,.444.848v.088c0,.327-.2.477-.444.336l-3.888-2.245a1.062,1.062,0,0,1-.444-.847v-.089C963.874,410.049,964.073,409.9,964.318,410.039Z" transform="translate(-913.221 -380.738)" fill="#375a64"/>
              <path id="Trazado_119123" data-name="Trazado 119123" d="M955.311,404.838l3.888,2.245a1.064,1.064,0,0,1,.443.848v.088c0,.327-.2.477-.443.336l-3.888-2.245a1.062,1.062,0,0,1-.444-.847v-.089C954.867,404.848,955.066,404.7,955.311,404.838Z" transform="translate(-912.656 -380.411)" fill="#375a64"/>
              <path id="Trazado_119124" data-name="Trazado 119124" d="M946.3,399.637l3.888,2.245a1.064,1.064,0,0,1,.443.848v.088c0,.327-.2.477-.443.336l-3.888-2.245a1.062,1.062,0,0,1-.444-.847v-.089C945.86,399.647,946.059,399.5,946.3,399.637Z" transform="translate(-912.091 -380.085)" fill="#375a64"/>
              <path id="Trazado_119125" data-name="Trazado 119125" d="M937.3,394.436l3.888,2.245a1.062,1.062,0,0,1,.444.848v.088c0,.327-.2.477-.444.336l-3.888-2.245a1.063,1.063,0,0,1-.443-.847v-.089C936.853,394.446,937.052,394.295,937.3,394.436Z" transform="translate(-911.526 -379.759)" fill="#375a64"/>
              <path id="Trazado_119126" data-name="Trazado 119126" d="M928.289,389.235l3.888,2.245a1.062,1.062,0,0,1,.444.848v.088c0,.327-.2.477-.444.336l-3.888-2.245a1.063,1.063,0,0,1-.443-.847v-.089C927.846,389.245,928.045,389.094,928.289,389.235Z" transform="translate(-910.961 -379.433)" fill="#375a64"/>
              <path id="Trazado_119127" data-name="Trazado 119127" d="M919.282,384.034l3.888,2.245a1.062,1.062,0,0,1,.444.848v.088c0,.327-.2.477-.444.336l-3.888-2.245a1.062,1.062,0,0,1-.444-.847v-.089C918.838,384.044,919.037,383.893,919.282,384.034Z" transform="translate(-910.396 -379.107)" fill="#375a64"/>
              <path id="Trazado_119128" data-name="Trazado 119128" d="M910.275,378.833l3.888,2.245a1.064,1.064,0,0,1,.443.848v.088c0,.327-.2.477-.443.336l-3.888-2.245a1.062,1.062,0,0,1-.444-.847v-.089C909.831,378.843,910.03,378.692,910.275,378.833Z" transform="translate(-909.831 -378.78)" fill="#375a64"/>
            </g>
            <g id="Grupo_114116" data-name="Grupo 114116" transform="translate(0.161)">
              <path id="Trazado_119129" data-name="Trazado 119129" d="M986.818,408.011l-4.782-2.761v7.857l4.782,2.761Z" transform="translate(-914.521 -360.597)" fill="#00defc"/>
              <path id="Trazado_119130" data-name="Trazado 119130" d="M977.814,394.165l-4.782-2.761v15.962l4.782,2.761Z" transform="translate(-913.957 -359.729)" fill="#00defc"/>
              <path id="Trazado_119131" data-name="Trazado 119131" d="M977.814,394.165l-4.782-2.761v15.962l4.782,2.761Z" transform="translate(-913.957 -359.729)" fill="#fff" opacity="0.8"/>
              <path id="Trazado_119132" data-name="Trazado 119132" d="M968.81,378.188l-4.782-2.761v26.064l4.782,2.761Z" transform="translate(-913.392 -358.727)" fill="#00defc"/>
              <path id="Trazado_119133" data-name="Trazado 119133" d="M968.81,378.188l-4.782-2.761v26.064l4.782,2.761Z" transform="translate(-913.392 -358.727)" fill="#fff" opacity="0.3"/>
              <path id="Trazado_119134" data-name="Trazado 119134" d="M959.805,388.046l-4.782-2.761v11.953L959.805,400Z" transform="translate(-912.827 -359.345)" fill="#00defc"/>
              <path id="Trazado_119135" data-name="Trazado 119135" d="M959.805,388.046l-4.782-2.761v11.953L959.805,400Z" transform="translate(-912.827 -359.345)" fill="#fff" opacity="0.6"/>
              <path id="Trazado_119136" data-name="Trazado 119136" d="M950.8,380.013l-4.782-2.761v14.609l4.782,2.761Z" transform="translate(-912.262 -358.841)" fill="#00defc"/>
              <path id="Trazado_119137" data-name="Trazado 119137" d="M950.8,380.013l-4.782-2.761v14.609l4.782,2.761Z" transform="translate(-912.262 -358.841)" fill="#fff" opacity="0.8"/>
              <path id="Trazado_119138" data-name="Trazado 119138" d="M941.8,370l-4.782-2.761v19.123l4.782,2.761Z" transform="translate(-911.698 -358.213)" fill="#00defc"/>
              <path id="Trazado_119139" data-name="Trazado 119139" d="M932.793,375.771l-4.782-2.761v8.84l4.782,2.761Z" transform="translate(-911.133 -358.575)" fill="#00defc"/>
              <path id="Trazado_119140" data-name="Trazado 119140" d="M932.793,375.771l-4.782-2.761v8.84l4.782,2.761Z" transform="translate(-911.133 -358.575)" fill="#fff" opacity="0.3"/>
              <path id="Trazado_119141" data-name="Trazado 119141" d="M923.789,367.564l-4.782-2.761v11.66l4.782,2.761Z" transform="translate(-910.568 -358.06)" fill="#00defc"/>
              <path id="Trazado_119142" data-name="Trazado 119142" d="M923.789,367.564l-4.782-2.761v11.66l4.782,2.761Z" transform="translate(-910.568 -358.06)" fill="#fff" opacity="0.8"/>
              <path id="Trazado_119143" data-name="Trazado 119143" d="M914.785,360.37,910,357.609v13.53l4.782,2.761Z" transform="translate(-910.003 -357.609)" fill="#00defc"/>
            </g>
          </g>
          <path id="Trazado_119144" data-name="Trazado 119144" d="M910.063,346.647c5.286,11.19,12.27,14.456,16.643,13.85a14.914,14.914,0,0,0,3.827-1.128c2.071-.845,3.708-1.513,7.151.475,2.208,1.276,4.041,3.628,5.813,5.9,2.3,2.951,4.468,5.739,7.114,5.485,1.86-.179,3.164-1.531,4.426-2.84,1.948-2.02,3.963-4.108,7.966-1.8,6.687,3.861,14.339,18.506,19.514,29.186l-.488.5c-5.088-10.5-12.594-24.887-19.026-28.6-3.7-2.138-5.526-.246-7.457,1.756-1.309,1.357-2.664,2.761-4.653,2.952-2.934.282-5.244-2.683-7.688-5.824-1.7-2.187-3.465-4.448-5.521-5.635-3.237-1.869-4.72-1.264-6.773-.427A15.232,15.232,0,0,1,927,361.651c-4.58.633-11.895-2.792-17.437-14.525Z" transform="translate(-909.566 -346.647)" fill="#00defc"/>
          <path id="Trazado_119145" data-name="Trazado 119145" d="M910.063,346.647c5.286,11.19,12.27,14.456,16.643,13.85a14.914,14.914,0,0,0,3.827-1.128c2.071-.845,3.708-1.513,7.151.475,2.208,1.276,4.041,3.628,5.813,5.9,2.3,2.951,4.468,5.739,7.114,5.485,1.86-.179,3.164-1.531,4.426-2.84,1.948-2.02,3.963-4.108,7.966-1.8,6.687,3.861,14.339,18.506,19.514,29.186l-.488.5c-5.088-10.5-12.594-24.887-19.026-28.6-3.7-2.138-5.526-.246-7.457,1.756-1.309,1.357-2.664,2.761-4.653,2.952-2.934.282-5.244-2.683-7.688-5.824-1.7-2.187-3.465-4.448-5.521-5.635-3.237-1.869-4.72-1.264-6.773-.427A15.232,15.232,0,0,1,927,361.651c-4.58.633-11.895-2.792-17.437-14.525Z" transform="translate(-909.566 -346.647)" fill="#fff" opacity="0.3"/>
        </g>
        <g id="Grupo_114122" data-name="Grupo 114122" transform="translate(0 83.326)">
          <g id="Grupo_114119" data-name="Grupo 114119">
            <path id="Trazado_119146" data-name="Trazado 119146" d="M984,432.31a.469.469,0,0,0,.235-.874l-74.2-42.953a.468.468,0,1,0-.47.811l74.2,42.953A.464.464,0,0,0,984,432.31Z" transform="translate(-909.331 -388.419)" fill="#e1e1e1"/>
          </g>
          <g id="Grupo_114120" data-name="Grupo 114120" transform="translate(0 4.334)">
            <path id="Trazado_119147" data-name="Trazado 119147" d="M984,436.933a.468.468,0,0,0,.234-.874l-74.2-42.953a.468.468,0,1,0-.469.811l74.2,42.953A.459.459,0,0,0,984,436.933Z" transform="translate(-909.331 -393.043)" fill="#e1e1e1"/>
          </g>
          <g id="Grupo_114121" data-name="Grupo 114121" transform="translate(0 8.667)">
            <path id="Trazado_119148" data-name="Trazado 119148" d="M984,441.556a.468.468,0,0,0,.234-.874l-74.2-42.953a.468.468,0,1,0-.469.811l74.2,42.953A.459.459,0,0,0,984,441.556Z" transform="translate(-909.331 -397.666)" fill="#e1e1e1"/>
          </g>
        </g>
        <g id="Grupo_114123" data-name="Grupo 114123" transform="translate(36.227 7.526)">
          <path id="Trazado_119149" data-name="Trazado 119149" d="M986.523,330.463a.469.469,0,0,0,.234-.874l-38.072-21.98a.469.469,0,0,0-.469.812l38.072,21.98A.465.465,0,0,0,986.523,330.463Z" transform="translate(-947.982 -307.546)" fill="#375a64"/>
        </g>
        <g id="Grupo_114124" data-name="Grupo 114124" transform="translate(17.191 0.931)">
          <path id="Trazado_119150" data-name="Trazado 119150" d="M985.251,334.419a.469.469,0,0,0,.234-.874l-57.109-32.971a.469.469,0,0,0-.469.812l57.109,32.971A.463.463,0,0,0,985.251,334.419Z" transform="translate(-927.672 -300.51)" fill="#375a64"/>
        </g>
        <g id="Grupo_114132" data-name="Grupo 114132" transform="translate(40.034 22.912)">
          <g id="Grupo_114125" data-name="Grupo 114125">
            <path id="Trazado_119151" data-name="Trazado 119151" d="M986.779,344.682a.469.469,0,0,0,.234-.875l-34.265-19.783a.469.469,0,0,0-.469.813l34.265,19.782A.463.463,0,0,0,986.779,344.682Z" transform="translate(-952.045 -323.962)" fill="#e1e1e1"/>
          </g>
          <g id="Grupo_114126" data-name="Grupo 114126" transform="translate(0 4.396)">
            <path id="Trazado_119152" data-name="Trazado 119152" d="M986.779,349.372a.469.469,0,0,0,.234-.875l-34.265-19.783a.469.469,0,0,0-.469.813l34.265,19.783A.471.471,0,0,0,986.779,349.372Z" transform="translate(-952.045 -328.652)" fill="#e1e1e1"/>
          </g>
          <g id="Grupo_114127" data-name="Grupo 114127" transform="translate(0 8.792)">
            <path id="Trazado_119153" data-name="Trazado 119153" d="M986.779,354.062a.469.469,0,0,0,.234-.874l-34.265-19.782a.469.469,0,0,0-.469.812L986.544,354A.472.472,0,0,0,986.779,354.062Z" transform="translate(-952.045 -333.342)" fill="#e1e1e1"/>
          </g>
          <g id="Grupo_114128" data-name="Grupo 114128" transform="translate(0 13.188)">
            <path id="Trazado_119154" data-name="Trazado 119154" d="M986.779,358.753a.469.469,0,0,0,.234-.875L952.748,338.1a.469.469,0,0,0-.469.812l34.265,19.783A.473.473,0,0,0,986.779,358.753Z" transform="translate(-952.045 -338.033)" fill="#e1e1e1"/>
          </g>
          <g id="Grupo_114129" data-name="Grupo 114129" transform="translate(0 17.584)">
            <path id="Trazado_119155" data-name="Trazado 119155" d="M986.779,363.443a.469.469,0,0,0,.234-.874l-34.265-19.783a.469.469,0,0,0-.469.812l34.265,19.783A.472.472,0,0,0,986.779,363.443Z" transform="translate(-952.045 -342.723)" fill="#e1e1e1"/>
          </g>
          <g id="Grupo_114130" data-name="Grupo 114130" transform="translate(0 21.98)">
            <path id="Trazado_119156" data-name="Trazado 119156" d="M986.779,368.133a.469.469,0,0,0,.234-.874l-34.265-19.783a.469.469,0,0,0-.469.812l34.265,19.783A.463.463,0,0,0,986.779,368.133Z" transform="translate(-952.045 -347.413)" fill="#e1e1e1"/>
          </g>
          <g id="Grupo_114131" data-name="Grupo 114131" transform="translate(0 26.376)">
            <path id="Trazado_119157" data-name="Trazado 119157" d="M986.779,372.823a.469.469,0,0,0,.234-.874l-34.265-19.782a.469.469,0,0,0-.469.812l34.265,19.782A.463.463,0,0,0,986.779,372.823Z" transform="translate(-952.045 -352.103)" fill="#e1e1e1"/>
          </g>
        </g>
        <g id="Grupo_114140" data-name="Grupo 114140" transform="translate(0.327)">
          <g id="Grupo_114133" data-name="Grupo 114133">
            <path id="Trazado_119158" data-name="Trazado 119158" d="M944.415,320.237a.469.469,0,0,0,.234-.874L910.384,299.58a.469.469,0,1,0-.469.812l34.265,19.783A.473.473,0,0,0,944.415,320.237Z" transform="translate(-909.68 -299.517)" fill="#e1e1e1"/>
          </g>
          <g id="Grupo_114134" data-name="Grupo 114134" transform="translate(0 4.396)">
            <path id="Trazado_119159" data-name="Trazado 119159" d="M944.415,324.927a.469.469,0,0,0,.234-.874L910.384,304.27a.469.469,0,1,0-.469.812l34.265,19.783A.463.463,0,0,0,944.415,324.927Z" transform="translate(-909.68 -304.207)" fill="#e1e1e1"/>
          </g>
          <g id="Grupo_114135" data-name="Grupo 114135" transform="translate(0 8.792)">
            <path id="Trazado_119160" data-name="Trazado 119160" d="M944.415,329.617a.469.469,0,0,0,.234-.874l-34.265-19.782a.469.469,0,1,0-.469.812l34.265,19.782A.463.463,0,0,0,944.415,329.617Z" transform="translate(-909.68 -308.897)" fill="#e1e1e1"/>
          </g>
          <g id="Grupo_114136" data-name="Grupo 114136" transform="translate(0 13.188)">
            <path id="Trazado_119161" data-name="Trazado 119161" d="M944.415,334.308a.469.469,0,0,0,.234-.875L910.384,313.65a.469.469,0,0,0-.469.813l34.265,19.783A.472.472,0,0,0,944.415,334.308Z" transform="translate(-909.68 -313.587)" fill="#e1e1e1"/>
          </g>
          <g id="Grupo_114137" data-name="Grupo 114137" transform="translate(0 17.584)">
            <path id="Trazado_119162" data-name="Trazado 119162" d="M944.415,339a.469.469,0,0,0,.234-.875l-34.265-19.782a.469.469,0,1,0-.469.812l34.265,19.783A.471.471,0,0,0,944.415,339Z" transform="translate(-909.68 -318.278)" fill="#e1e1e1"/>
          </g>
          <g id="Grupo_114138" data-name="Grupo 114138" transform="translate(0 21.98)">
            <path id="Trazado_119163" data-name="Trazado 119163" d="M944.415,343.688a.469.469,0,0,0,.234-.875l-34.265-19.783a.469.469,0,1,0-.469.812l34.265,19.783A.472.472,0,0,0,944.415,343.688Z" transform="translate(-909.68 -322.968)" fill="#e1e1e1"/>
          </g>
          <g id="Grupo_114139" data-name="Grupo 114139" transform="translate(0 26.376)">
            <path id="Trazado_119164" data-name="Trazado 119164" d="M944.415,348.378a.469.469,0,0,0,.234-.875l-34.265-19.783a.469.469,0,1,0-.469.812l34.265,19.783A.472.472,0,0,0,944.415,348.378Z" transform="translate(-909.68 -327.658)" fill="#e1e1e1"/>
          </g>
        </g>
      </g>
    </g>
  </g>
</svg>
