<svg xmlns="http://www.w3.org/2000/svg" width="54.04" height="80.147" viewBox="0 0 54.04 80.147">
  <g id="Speech_Bubble" data-name="Speech Bubble" transform="translate(0 0)">
    <path id="Speech_Bubble-2" data-name="Speech Bubble" d="M1213.8,265.693a1.828,1.828,0,0,1-1.713-1.341l-2.991-10.4-31.647-18.272a3.77,3.77,0,0,1-1.73-3V187.062a1.348,1.348,0,0,1,2.166-1.25l50.142,28.951a3.772,3.772,0,0,1,1.73,3v45.624a1.349,1.349,0,0,1-2.165,1.25l-9.922-5.729-2.064,5.581a1.824,1.824,0,0,1-1.734,1.211Zm14.229-1.818a.5.5,0,0,0,.857-.494V217.757a2.905,2.905,0,0,0-1.293-2.239l-50.142-28.952a.5.5,0,0,0-.858.495v45.623a2.905,2.905,0,0,0,1.293,2.24l31.953,18.448,3.087,10.738a.956.956,0,0,0,.908.71.976.976,0,0,0,.957-.64l2.421-6.551Z" transform="translate(-1175.721 -185.548)" fill="#e1e1e1"/>
    <g id="Chart" transform="translate(13.355 20.199)">
      <path id="Trazado_119027" data-name="Trazado 119027" d="M1205.7,209.452l-.023,17.2,10.457,16.67c3.688-4.725,2.611-16.529-3.146-25.864C1210.666,213.7,1208.6,211.29,1205.7,209.452Z" transform="translate(-1190.956 -207.247)" fill="#e7e7e7"/>
      <path id="Trazado_119028" data-name="Trazado 119028" d="M1190.56,225.632c2.069,10.456,9.282,20.166,16.382,21.9A6.958,6.958,0,0,0,1214,245.8l-10.511-17.01Z" transform="translate(-1190.007 -208.261)" fill="#e1e1e1"/>
      <path id="Trazado_119029" data-name="Trazado 119029" d="M1190.253,222.684l12.376,3.034-6.946-18.285C1191.257,209.1,1189.167,214.955,1190.253,222.684Z" transform="translate(-1189.97 -207.12)" fill="#f5f5f5"/>
      <path id="Trazado_119030" data-name="Trazado 119030" d="M1197.461,207.283l6.269,16.5V208.431A8.745,8.745,0,0,0,1197.461,207.283Z" transform="translate(-1190.44 -207.099)" fill="#ececec"/>
    </g>
  </g>
</svg>
