<svg xmlns="http://www.w3.org/2000/svg" width="200.365" height="200.365" viewBox="0 0 200.365 200.365">
  <g id="Grupo_135026" data-name="Grupo 135026" transform="translate(-1134.635 -549.88)">
    <circle id="Elipse_4816" data-name="Elipse 4816" cx="100.182" cy="100.182" r="100.182" transform="translate(1134.635 549.88)" fill="#b9ddfc"/>
    <path id="Trazado_197345" data-name="Trazado 197345" d="M165.59,876.329a9.884,9.884,0,0,0,9.793,8.432,9.664,9.664,0,0,0,9.671-8.432,12.269,12.269,0,0,0,11.658-12.275H153.934a12.358,12.358,0,0,0,11.656,12.275Zm56.536-90.757a46.679,46.679,0,0,0-93.358,0,46.15,46.15,0,0,0,10.041,28.885,204.319,204.319,0,0,1,15.125,22.071V861.2h4.588V819.048a36.138,36.138,0,1,1,33.851,0V861.2h4.339V837.025a226.792,226.792,0,0,1,15.5-22.568,46.8,46.8,0,0,0,9.918-28.885Zm-13.641,1.486a33.04,33.04,0,0,0-66.079,0,33.413,33.413,0,0,0,16.117,28.4V796.48h-2.108c3.349-5.7,6.575-11.28,9.92-16.857h0l8.8-14.753,8.8,14.753h0c3.476,5.95,6.7,11.28,9.92,16.857h-1.484v18.975a33.133,33.133,0,0,0,16.111-28.4ZM188.65,796.48V861.2H162.366V796.48Zm-9.176-16.857,1.736,2.85,6.076,10.167h-24.3l6.074-10.167,1.732-2.85Zm-4.336-7.44,1.114,1.86.994,1.734H173.03l.992-1.734Z" transform="translate(1059.372 -161.796)" fill="#084a93" fill-rule="evenodd"/>
  </g>
</svg>
