<svg xmlns="http://www.w3.org/2000/svg" xmlns:xlink="http://www.w3.org/1999/xlink" width="295" height="255" viewBox="0 0 295 255">
  <defs>
    <clipPath id="clip-path">
      <rect id="Rectángulo_295214" data-name="Rectángulo 295214" width="295" height="255" transform="translate(180 1009)" fill="#fff" stroke="#707070" stroke-width="1"/>
    </clipPath>
  </defs>
  <g id="Enmascarar_grupo_122" data-name="Enmascarar grupo 122" transform="translate(-180 -1009)" clip-path="url(#clip-path)">
    <g id="Research_paper-rafiki" data-name="Research paper-rafiki" transform="translate(138.333 927.5)">
      <g id="freepik--background-complete--inject-82" transform="translate(0 55)">
        <rect id="Rectángulo_295151" data-name="Rectángulo 295151" width="378.334" height="0.189" transform="translate(0 247.733)" fill="#ebebeb"/>
        <rect id="Rectángulo_295152" data-name="Rectángulo 295152" width="25.061" height="0.189" transform="translate(315.364 259.908)" fill="#ebebeb"/>
        <rect id="Rectángulo_295153" data-name="Rectángulo 295153" width="6.575" height="0.189" transform="translate(244.048 261.966)" fill="#ebebeb"/>
        <rect id="Rectángulo_295154" data-name="Rectángulo 295154" width="14.52" height="0.189" transform="translate(300.087 252.886)" fill="#ebebeb"/>
        <rect id="Rectángulo_295155" data-name="Rectángulo 295155" width="32.68" height="0.189" transform="translate(39.695 254.157)" fill="#ebebeb"/>
        <rect id="Rectángulo_295156" data-name="Rectángulo 295156" width="4.79" height="0.189" transform="translate(79.117 254.157)" fill="#ebebeb"/>
        <rect id="Rectángulo_295157" data-name="Rectángulo 295157" width="70.885" height="0.189" transform="translate(99.479 257.35)" fill="#ebebeb"/>
        <path id="Trazado_197573" data-name="Trazado 197573" d="M188.628,268.986H42.523a4.321,4.321,0,0,1-4.313-4.321V59.283A4.321,4.321,0,0,1,42.523,55h146.1a4.321,4.321,0,0,1,4.321,4.321V264.665A4.321,4.321,0,0,1,188.628,268.986ZM42.523,55.151A4.131,4.131,0,0,0,38.4,59.283V264.665a4.131,4.131,0,0,0,4.124,4.131H188.628a4.139,4.139,0,0,0,4.131-4.131V59.283a4.139,4.139,0,0,0-4.131-4.131Z" transform="translate(-9.298 -55)" fill="#ebebeb"/>
        <path id="Trazado_197574" data-name="Trazado 197574" d="M404.933,268.986H258.821a4.328,4.328,0,0,1-4.321-4.321V59.283A4.328,4.328,0,0,1,258.821,55H404.933a4.321,4.321,0,0,1,4.305,4.283V264.665A4.321,4.321,0,0,1,404.933,268.986ZM258.821,55.151a4.139,4.139,0,0,0-4.131,4.131V264.665a4.139,4.139,0,0,0,4.131,4.131H404.933a4.139,4.139,0,0,0,4.131-4.131V59.283a4.139,4.139,0,0,0-4.131-4.131Z" transform="translate(-61.928 -55)" fill="#ebebeb"/>
        <path id="Trazado_197575" data-name="Trazado 197575" d="M237,169.8v13.287l6.81.643a35.5,35.5,0,0,0,5.107,12.281l-4.4,5.3,9.4,9.4,5.3-4.4a35.45,35.45,0,0,0,12.273,5.1l.643,6.81H285.5l.643-6.81a35.487,35.487,0,0,0,12.281-5.1l5.3,4.4,9.4-9.4-4.4-5.3a35.488,35.488,0,0,0,5.1-12.281l6.848-.643V169.8l-6.848-.651a35.509,35.509,0,0,0-5.085-12.3l4.4-5.3-9.4-9.39-5.3,4.4a35.646,35.646,0,0,0-12.258-5.108l-.643-6.81H272.208l-.643,6.81a35.609,35.609,0,0,0-12.273,5.108l-5.3-4.4-9.428,9.39,4.4,5.3a35.564,35.564,0,0,0-5.108,12.273Zm41.829-11.35a18.03,18.03,0,1,0,.03,0Z" transform="translate(-57.67 -74.381)" fill="#f0f0f0"/>
        <path id="Trazado_197576" data-name="Trazado 197576" d="M193.183,243.144l3.783,3.163,6.757-6.757-3.163-3.783a25.439,25.439,0,0,0,3.7-8.853l4.918-.462V216.88l-4.918-.462a25.44,25.44,0,0,0-3.67-8.823l3.163-3.783L197,197.055l-3.783,3.163a25.582,25.582,0,0,0-8.823-3.67l-.462-4.918H174.35l-.462,4.918a25.583,25.583,0,0,0-8.823,3.685l-3.783-3.163-6.757,6.757,3.163,3.783a25.44,25.44,0,0,0-3.67,8.823l-4.918.462v9.549l4.918.462a25.439,25.439,0,0,0,3.67,8.823l-3.163,3.783,6.757,6.757,3.783-3.163a25.584,25.584,0,0,0,8.823,3.67l.462,4.918H183.9l.462-4.918A25.584,25.584,0,0,0,193.183,243.144ZM166.2,221.677a12.931,12.931,0,1,1,12.924,12.931A12.931,12.931,0,0,1,166.2,221.677Z" transform="translate(-36.281 -88.246)" fill="#f5f5f5"/>
        <path id="Trazado_197577" data-name="Trazado 197577" d="M249.952,324.079a30.267,30.267,0,0,0,10.5-4.366l4.54,3.783,8.074-8.059-3.783-4.54a30.268,30.268,0,0,0,4.366-10.5l5.857-.545V288.5l-5.857-.552a30.268,30.268,0,0,0-4.366-10.533l3.783-4.54L265,264.832l-4.54,3.783a30.433,30.433,0,0,0-10.5-4.366l-.552-5.849h-11.35l-.552,5.826a30.434,30.434,0,0,0-10.5,4.366l-4.54-3.783-8.043,8.043,3.783,4.54a30.432,30.432,0,0,0-4.366,10.5l-5.857.552V299.8l5.857.545a30.373,30.373,0,0,0,4.366,10.5l-3.783,4.54,8.043,8.036,4.54-3.783a30.268,30.268,0,0,0,10.5,4.442l.552,5.857h11.35Zm-21.626-29.926a15.391,15.391,0,1,1,15.393,15.4,15.391,15.391,0,0,1-15.393-15.4Z" transform="translate(-50.608 -104.494)" fill="#fafafa"/>
        <rect id="Rectángulo_295158" data-name="Rectángulo 295158" width="35.132" height="35.132" transform="matrix(0.991, 0.135, -0.135, 0.991, 72.232, 77.244)" fill="#f5f5f5"/>
        <rect id="Rectángulo_295159" data-name="Rectángulo 295159" width="2.27" height="22.874" transform="matrix(0.135, -0.991, 0.991, 0.135, 77.045, 89.036)" fill="#e0e0e0"/>
        <rect id="Rectángulo_295160" data-name="Rectángulo 295160" width="2.27" height="22.874" transform="matrix(0.135, -0.991, 0.991, 0.135, 76.077, 96.097)" fill="#e0e0e0"/>
        <rect id="Rectángulo_295161" data-name="Rectángulo 295161" width="2.27" height="13.469" transform="matrix(0.135, -0.991, 0.991, 0.135, 75.087, 103.395)" fill="#e0e0e0"/>
        <rect id="Rectángulo_295162" data-name="Rectángulo 295162" width="35.132" height="35.132" transform="translate(266.792 43.454) rotate(-0.2)" fill="#f0f0f0"/>
        <rect id="Rectángulo_295163" data-name="Rectángulo 295163" width="22.874" height="2.27" transform="translate(273.211 52.145) rotate(-0.21)" fill="#e0e0e0"/>
        <rect id="Rectángulo_295164" data-name="Rectángulo 295164" width="22.874" height="2.27" transform="translate(273.245 59.272) rotate(-0.21)" fill="#e0e0e0"/>
        <rect id="Rectángulo_295165" data-name="Rectángulo 295165" width="13.469" height="2.27" transform="translate(273.264 66.642) rotate(-0.21)" fill="#e0e0e0"/>
        <rect id="Rectángulo_295166" data-name="Rectángulo 295166" width="35.132" height="35.132" transform="translate(288.155 133.427) rotate(-7.22)" fill="#f5f5f5"/>
        <rect id="Rectángulo_295167" data-name="Rectángulo 295167" width="22.874" height="2.27" transform="translate(295.597 141.302) rotate(-7.22)" fill="#e0e0e0"/>
        <rect id="Rectángulo_295168" data-name="Rectángulo 295168" width="22.874" height="2.27" transform="translate(296.493 148.367) rotate(-7.22)" fill="#e0e0e0"/>
        <rect id="Rectángulo_295169" data-name="Rectángulo 295169" width="13.469" height="2.27" transform="translate(297.418 155.675) rotate(-7.22)" fill="#e0e0e0"/>
        <rect id="Rectángulo_295170" data-name="Rectángulo 295170" width="35.132" height="35.132" transform="translate(100.998 185.702) rotate(-0.2)" fill="#f0f0f0"/>
        <rect id="Rectángulo_295171" data-name="Rectángulo 295171" width="22.874" height="2.27" transform="translate(107.457 194.423) rotate(-0.21)" fill="#e0e0e0"/>
        <rect id="Rectángulo_295172" data-name="Rectángulo 295172" width="22.874" height="2.27" transform="translate(107.483 201.55) rotate(-0.21)" fill="#e0e0e0"/>
        <rect id="Rectángulo_295173" data-name="Rectángulo 295173" width="13.469" height="2.27" transform="translate(107.51 208.92) rotate(-0.21)" fill="#e0e0e0"/>
        <rect id="Rectángulo_295174" data-name="Rectángulo 295174" width="35.132" height="35.132" transform="translate(256.165 202.904) rotate(-0.2)" fill="#f0f0f0"/>
        <rect id="Rectángulo_295175" data-name="Rectángulo 295175" width="22.874" height="2.27" transform="translate(262.62 211.597) rotate(-0.21)" fill="#e0e0e0"/>
        <rect id="Rectángulo_295176" data-name="Rectángulo 295176" width="22.874" height="2.27" transform="translate(262.654 218.725) rotate(-0.21)" fill="#e0e0e0"/>
        <rect id="Rectángulo_295177" data-name="Rectángulo 295177" width="13.469" height="2.27" transform="translate(262.673 226.094) rotate(-0.21)" fill="#e0e0e0"/>
        <rect id="Rectángulo_295178" data-name="Rectángulo 295178" width="35.132" height="35.132" transform="translate(108.96 48.653) rotate(-12.52)" fill="#f0f0f0"/>
        <rect id="Rectángulo_295179" data-name="Rectángulo 295179" width="22.874" height="2.27" transform="translate(117.085 55.826) rotate(-12.52)" fill="#e0e0e0"/>
        <rect id="Rectángulo_295180" data-name="Rectángulo 295180" width="22.874" height="2.27" transform="translate(118.633 62.786) rotate(-12.52)" fill="#e0e0e0"/>
        <rect id="Rectángulo_295181" data-name="Rectángulo 295181" width="13.469" height="2.27" transform="translate(120.229 69.976) rotate(-12.52)" fill="#e0e0e0"/>
        <path id="Trazado_197578" data-name="Trazado 197578" d="M98.758,160.81H98.13l-.87-4.01h2.361Z" transform="translate(-23.666 -79.771)" fill="#e0e0e0"/>
        <ellipse id="Elipse_4842" data-name="Elipse 4842" cx="3.193" cy="2.52" rx="3.193" ry="2.52" transform="translate(71.581 75.009)" fill="#e6e6e6"/>
        <path id="Trazado_197579" data-name="Trazado 197579" d="M183.591,114.543h-.628l-.863-4h2.361Z" transform="translate(-44.311 -68.515)" fill="#e0e0e0"/>
        <ellipse id="Elipse_4843" data-name="Elipse 4843" cx="3.201" cy="2.52" rx="3.201" ry="2.52" transform="translate(135.769 40.005)" fill="#e6e6e6"/>
        <path id="Trazado_197580" data-name="Trazado 197580" d="M374.658,115.873h-.628l-.87-4h2.361Z" transform="translate(-90.802 -68.838)" fill="#e0e0e0"/>
        <ellipse id="Elipse_4844" data-name="Elipse 4844" cx="3.193" cy="2.52" rx="3.193" ry="2.52" transform="translate(280.345 41.011)" fill="#e6e6e6"/>
        <path id="Trazado_197581" data-name="Trazado 197581" d="M422.121,230.863h-.628l-.863-4h2.361Z" transform="translate(-102.353 -96.819)" fill="#e0e0e0"/>
        <ellipse id="Elipse_4845" data-name="Elipse 4845" cx="3.193" cy="2.52" rx="3.193" ry="2.52" transform="translate(316.264 128.021)" fill="#e6e6e6"/>
        <path id="Trazado_197582" data-name="Trazado 197582" d="M362.108,326.98h-.636l-.863-4.01h2.361Z" transform="translate(-87.748 -120.206)" fill="#e0e0e0"/>
        <ellipse id="Elipse_4846" data-name="Elipse 4846" cx="3.193" cy="2.52" rx="3.193" ry="2.52" transform="translate(270.849 200.744)" fill="#e6e6e6"/>
        <path id="Trazado_197583" data-name="Trazado 197583" d="M155,303.18h-.628l-.863-4.01h2.361Z" transform="translate(-37.354 -114.414)" fill="#e0e0e0"/>
        <ellipse id="Elipse_4847" data-name="Elipse 4847" cx="3.193" cy="2.52" rx="3.193" ry="2.52" transform="translate(114.143 182.735)" fill="#e6e6e6"/>
      </g>
      <g id="freepik--Shadow--inject-82" transform="translate(42.457 319.773)">
        <ellipse id="freepik--path--inject-82" cx="146.71" cy="8.565" rx="146.71" ry="8.565" fill="#f5f5f5"/>
      </g>
      <g id="freepik--Notebook--inject-82" transform="translate(56.039 192.592)">
        <path id="Trazado_197584" data-name="Trazado 197584" d="M143.67,245.92c0-4.986,3.276-9.08,7.309-9.08s7.309,4.056,7.309,9.08-3.276,9.035-7.309,9.035S143.67,250.906,143.67,245.92Zm1.513,0c0,4.147,2.6,7.521,5.8,7.521s5.8-3.375,5.8-7.521-2.6-7.567-5.8-7.567S145.183,241.773,145.183,245.92Z" transform="translate(-90.998 -236.84)" fill="#263238"/>
        <path id="Trazado_197585" data-name="Trazado 197585" d="M124.66,245.92c0-4.986,3.276-9.08,7.309-9.08s7.309,4.056,7.309,9.08-3.276,9.035-7.309,9.035S124.66,250.906,124.66,245.92Zm1.513,0c0,4.147,2.6,7.521,5.8,7.521s5.8-3.375,5.8-7.521-2.6-7.567-5.8-7.567S126.173,241.773,126.173,245.92Z" transform="translate(-86.373 -236.84)" fill="#263238"/>
        <path id="Trazado_197586" data-name="Trazado 197586" d="M105.64,245.92c0-4.986,3.284-9.08,7.317-9.08s7.309,4.056,7.309,9.08-3.284,9.035-7.309,9.035S105.64,250.906,105.64,245.92Zm1.513,0c0,4.147,2.6,7.521,5.8,7.521s5.8-3.375,5.8-7.521-2.6-7.567-5.8-7.567S107.153,241.773,107.153,245.92Z" transform="translate(-81.744 -236.84)" fill="#263238"/>
        <path id="Trazado_197587" data-name="Trazado 197587" d="M86.63,245.92c0-4.986,3.284-9.08,7.317-9.08s7.309,4.056,7.309,9.08-3.284,9.035-7.309,9.035S86.63,250.906,86.63,245.92Zm1.513,0c0,4.147,2.6,7.521,5.8,7.521s5.8-3.375,5.8-7.521-2.6-7.567-5.8-7.567S88.143,241.773,88.143,245.92Z" transform="translate(-77.119 -236.84)" fill="#263238"/>
        <path id="Trazado_197588" data-name="Trazado 197588" d="M162.68,245.92c0-4.986,3.276-9.08,7.309-9.08s7.317,4.056,7.317,9.08-3.284,9.035-7.317,9.035S162.68,250.906,162.68,245.92Zm1.513,0c0,4.147,2.6,7.521,5.8,7.521s5.8-3.375,5.8-7.521-2.6-7.567-5.8-7.567S164.193,241.773,164.193,245.92Z" transform="translate(-95.624 -236.84)" fill="#263238"/>
        <rect id="Rectángulo_295182" data-name="Rectángulo 295182" width="90.104" height="124.638" transform="translate(90.104 133.892) rotate(180)" fill="#263238"/>
        <rect id="Rectángulo_295183" data-name="Rectángulo 295183" width="90.104" height="124.638" transform="translate(90.104 133.892) rotate(180)" fill="#fff" opacity="0.7"/>
        <rect id="Rectángulo_295184" data-name="Rectángulo 295184" width="81.985" height="124.638" transform="translate(90.104 133.892) rotate(180)" fill="#fff" opacity="0.6"/>
        <path id="Trazado_197589" data-name="Trazado 197589" d="M77.387,376.331,77.008,259.85,76.63,376.331Z" transform="translate(-74.685 -242.439)" opacity="0.2"/>
        <path id="Trazado_197590" data-name="Trazado 197590" d="M82.367,378.665,81.988,269.44,81.61,378.665Z" transform="translate(-75.897 -244.773)" opacity="0.2"/>
        <path id="Trazado_197591" data-name="Trazado 197591" d="M79.12,249.19l.378,87.569.378-87.569Z" transform="translate(-75.291 -239.845)" opacity="0.2"/>
        <path id="Trazado_197592" data-name="Trazado 197592" d="M175.217,256.073a2.164,2.164,0,1,0,2.119-2.573,2.376,2.376,0,0,0-2.119,2.573Z" transform="translate(-98.672 -240.894)" fill="#263238"/>
        <path id="Trazado_197593" data-name="Trazado 197593" d="M174.588,252.783a.757.757,0,0,0,.567-.265,10.207,10.207,0,0,0,2.315-6.6c0-4.986-3.284-9.08-7.317-9.08-2.966,0-5.622,2.194-6.757,5.577a.759.759,0,0,0,1.438.484c.923-2.762,3.027-4.54,5.3-4.54,3.2,0,5.8,3.382,5.8,7.567a8.664,8.664,0,0,1-1.945,5.607.757.757,0,0,0,.575,1.256Z" transform="translate(-95.789 -236.84)" fill="#263238"/>
        <g id="Grupo_134965" data-name="Grupo 134965" transform="translate(67.568)" opacity="0.4">
          <path id="Trazado_197594" data-name="Trazado 197594" d="M174.588,252.783a.757.757,0,0,0,.567-.265,10.207,10.207,0,0,0,2.315-6.6c0-4.986-3.284-9.08-7.317-9.08-2.966,0-5.622,2.194-6.757,5.577a.759.759,0,0,0,1.438.484c.923-2.762,3.027-4.54,5.3-4.54,3.2,0,5.8,3.382,5.8,7.567a8.664,8.664,0,0,1-1.945,5.607.757.757,0,0,0,.575,1.256Z" transform="translate(-163.357 -236.84)" fill="#fff"/>
        </g>
        <path id="Trazado_197595" data-name="Trazado 197595" d="M156.207,256.073a2.156,2.156,0,1,0,2.119-2.573A2.376,2.376,0,0,0,156.207,256.073Z" transform="translate(-94.047 -240.894)" fill="#263238"/>
        <path id="Trazado_197596" data-name="Trazado 197596" d="M155.571,252.783a.757.757,0,0,0,.575-.265,10.2,10.2,0,0,0,2.308-6.6c0-4.986-3.276-9.08-7.309-9.08-2.974,0-5.622,2.194-6.757,5.577a.759.759,0,0,0,1.438.484c.923-2.762,3.027-4.54,5.3-4.54,3.2,0,5.8,3.382,5.8,7.567a8.656,8.656,0,0,1-1.937,5.607.757.757,0,0,0,.568,1.256Z" transform="translate(-91.163 -236.84)" fill="#263238"/>
        <g id="Grupo_134966" data-name="Grupo 134966" transform="translate(53.184)" opacity="0.4">
          <path id="Trazado_197597" data-name="Trazado 197597" d="M155.571,252.783a.757.757,0,0,0,.575-.265,10.2,10.2,0,0,0,2.308-6.6c0-4.986-3.276-9.08-7.309-9.08-2.974,0-5.622,2.194-6.757,5.577a.759.759,0,0,0,1.438.484c.923-2.762,3.027-4.54,5.3-4.54,3.2,0,5.8,3.382,5.8,7.567a8.656,8.656,0,0,1-1.937,5.607.757.757,0,0,0,.568,1.256Z" transform="translate(-144.347 -236.84)" fill="#fff"/>
        </g>
        <path id="Trazado_197598" data-name="Trazado 197598" d="M137.187,256.073a2.164,2.164,0,1,0,2.126-2.573A2.383,2.383,0,0,0,137.187,256.073Z" transform="translate(-89.419 -240.894)" fill="#263238"/>
        <path id="Trazado_197599" data-name="Trazado 197599" d="M136.548,252.783a.757.757,0,0,0,.575-.265,10.2,10.2,0,0,0,2.27-6.6c0-4.986-3.276-9.08-7.309-9.08-2.974,0-5.622,2.194-6.757,5.577a.759.759,0,1,0,1.438.484c.923-2.762,3.027-4.54,5.3-4.54,3.193,0,5.8,3.382,5.8,7.567a8.619,8.619,0,0,1-1.945,5.607.757.757,0,0,0,.575,1.256Z" transform="translate(-86.525 -236.84)" fill="#263238"/>
        <g id="Grupo_134967" data-name="Grupo 134967" transform="translate(38.762)" opacity="0.4">
          <path id="Trazado_197600" data-name="Trazado 197600" d="M136.548,252.783a.757.757,0,0,0,.575-.265,10.2,10.2,0,0,0,2.27-6.6c0-4.986-3.276-9.08-7.309-9.08-2.974,0-5.622,2.194-6.757,5.577a.759.759,0,1,0,1.438.484c.923-2.762,3.027-4.54,5.3-4.54,3.193,0,5.8,3.382,5.8,7.567a8.619,8.619,0,0,1-1.945,5.607.757.757,0,0,0,.575,1.256Z" transform="translate(-125.287 -236.84)" fill="#fff"/>
        </g>
        <path id="Trazado_197601" data-name="Trazado 197601" d="M118.177,256.073A2.164,2.164,0,1,0,120.3,253.5,2.383,2.383,0,0,0,118.177,256.073Z" transform="translate(-84.793 -240.894)" fill="#263238"/>
        <path id="Trazado_197602" data-name="Trazado 197602" d="M117.533,252.783a.757.757,0,0,0,.575-.265,10.2,10.2,0,0,0,2.27-6.6c0-4.986-3.284-9.08-7.309-9.08-2.974,0-5.622,2.194-6.757,5.577a.757.757,0,1,0,1.43.484c.923-2.762,3.027-4.54,5.3-4.54,3.193,0,5.8,3.382,5.8,7.567a8.664,8.664,0,0,1-1.945,5.607.757.757,0,0,0,.575,1.256Z" transform="translate(-81.894 -236.84)" fill="#263238"/>
        <g id="Grupo_134968" data-name="Grupo 134968" transform="translate(24.36)" opacity="0.4">
          <path id="Trazado_197603" data-name="Trazado 197603" d="M117.533,252.783a.757.757,0,0,0,.575-.265,10.2,10.2,0,0,0,2.27-6.6c0-4.986-3.284-9.08-7.309-9.08-2.974,0-5.622,2.194-6.757,5.577a.757.757,0,1,0,1.43.484c.923-2.762,3.027-4.54,5.3-4.54,3.193,0,5.8,3.382,5.8,7.567a8.664,8.664,0,0,1-1.945,5.607.757.757,0,0,0,.575,1.256Z" transform="translate(-106.253 -236.84)" fill="#fff"/>
        </g>
        <path id="Trazado_197604" data-name="Trazado 197604" d="M99.17,256.073a2.381,2.381,0,0,0,2.119,2.573,2.618,2.618,0,0,0,0-5.145A2.372,2.372,0,0,0,99.17,256.073Z" transform="translate(-80.17 -240.894)" fill="#263238"/>
        <path id="Trazado_197605" data-name="Trazado 197605" d="M98.523,252.783a.757.757,0,0,0,.575-.265,10.238,10.238,0,0,0,2.27-6.6c0-4.986-3.284-9.08-7.309-9.08-2.974,0-5.63,2.194-6.757,5.577a.757.757,0,1,0,1.43.484c.923-2.762,3.027-4.54,5.3-4.54,3.193,0,5.8,3.382,5.8,7.567a8.664,8.664,0,0,1-1.945,5.607.753.753,0,0,0,.643,1.248Z" transform="translate(-77.268 -236.84)" fill="#263238"/>
        <g id="Grupo_134969" data-name="Grupo 134969" transform="translate(9.975)" opacity="0.4">
          <path id="Trazado_197606" data-name="Trazado 197606" d="M98.523,252.783a.757.757,0,0,0,.575-.265,10.238,10.238,0,0,0,2.27-6.6c0-4.986-3.284-9.08-7.309-9.08-2.974,0-5.63,2.194-6.757,5.577a.757.757,0,1,0,1.43.484c.923-2.762,3.027-4.54,5.3-4.54,3.193,0,5.8,3.382,5.8,7.567a8.664,8.664,0,0,1-1.945,5.607.753.753,0,0,0,.643,1.248Z" transform="translate(-87.243 -236.84)" fill="#fff"/>
        </g>
        <rect id="Rectángulo_295185" data-name="Rectángulo 295185" width="6.341" height="10.813" transform="translate(25.454 66.594)" fill="#084a93"/>
        <rect id="Rectángulo_295186" data-name="Rectángulo 295186" width="6.341" height="18.682" transform="translate(35.722 58.725)" fill="#084a93"/>
        <rect id="Rectángulo_295187" data-name="Rectángulo 295187" width="6.341" height="15.731" transform="translate(45.998 61.676)" fill="#084a93"/>
        <rect id="Rectángulo_295188" data-name="Rectángulo 295188" width="6.341" height="23.6" transform="translate(56.273 53.807)" fill="#084a93"/>
        <rect id="Rectángulo_295189" data-name="Rectángulo 295189" width="6.341" height="31.47" transform="translate(66.541 45.937)" fill="#084a93"/>
        <rect id="Rectángulo_295190" data-name="Rectángulo 295190" width="6.341" height="10.813" transform="translate(25.454 66.594)" fill="#fff" opacity="0.5"/>
        <rect id="Rectángulo_295191" data-name="Rectángulo 295191" width="6.341" height="18.682" transform="translate(35.722 58.725)" fill="#fff" opacity="0.5"/>
        <rect id="Rectángulo_295192" data-name="Rectángulo 295192" width="6.341" height="15.731" transform="translate(45.998 61.676)" fill="#fff" opacity="0.5"/>
        <rect id="Rectángulo_295193" data-name="Rectángulo 295193" width="6.341" height="23.6" transform="translate(56.273 53.807)" fill="#fff" opacity="0.5"/>
        <rect id="Rectángulo_295194" data-name="Rectángulo 295194" width="6.341" height="31.47" transform="translate(66.541 45.937)" fill="#fff" opacity="0.5"/>
        <rect id="Rectángulo_295195" data-name="Rectángulo 295195" width="64.597" height="2.996" transform="translate(16.745 75.909)" fill="#263238"/>
        <path id="Trazado_197607" data-name="Trazado 197607" d="M99.342,316.249l-1.392-1.755,20.718-16.488,10.253,5.947L156.6,280.36l1.453,1.7-28.882,24.63-10.3-5.978Z" transform="translate(-79.873 -247.43)" fill="#00defc"/>
        <path id="Trazado_197608" data-name="Trazado 197608" d="M177.247,279.65l-4.207.651,2.966,3.163Z" transform="translate(-98.145 -247.257)" fill="#00defc"/>
        <g id="Grupo_134970" data-name="Grupo 134970" transform="translate(16.064 87.138)" opacity="0.3">
          <path id="Trazado_197609" data-name="Trazado 197609" d="M132.6,353.513H96.047a.757.757,0,1,1,0-1.513H132.6a.757.757,0,1,1,0,1.513Z" transform="translate(-95.29 -352)"/>
        </g>
        <g id="Grupo_134971" data-name="Grupo 134971" transform="translate(16.064 93.88)" opacity="0.3">
          <path id="Trazado_197610" data-name="Trazado 197610" d="M162.519,362.423H102.947a.757.757,0,1,1,0-1.513h59.573a.757.757,0,0,1,0,1.513Z" transform="translate(-96.969 -360.91)"/>
          <path id="Trazado_197611" data-name="Trazado 197611" d="M160.9,367.433H96.047a.757.757,0,0,1,0-1.513H160.9a.757.757,0,1,1,0,1.513Z" transform="translate(-95.29 -362.129)"/>
          <path id="Trazado_197612" data-name="Trazado 197612" d="M161.033,372.443H96.157a.757.757,0,1,1,0-1.513h64.877a.757.757,0,1,1,0,1.513Z" transform="translate(-95.317 -363.348)"/>
          <path id="Trazado_197613" data-name="Trazado 197613" d="M150.542,377.453H96.267a.757.757,0,0,1,0-1.513h54.276a.757.757,0,0,1,0,1.513Z" transform="translate(-95.344 -364.567)"/>
        </g>
        <g id="Grupo_134972" data-name="Grupo 134972" transform="translate(16.064 112.055)" opacity="0.3">
          <path id="Trazado_197614" data-name="Trazado 197614" d="M162.519,386.443H102.947a.757.757,0,1,1,0-1.513h59.573a.757.757,0,0,1,0,1.513Z" transform="translate(-96.969 -384.93)"/>
          <path id="Trazado_197615" data-name="Trazado 197615" d="M160.9,391.453H96.047a.757.757,0,1,1,0-1.513H160.9a.757.757,0,1,1,0,1.513Z" transform="translate(-95.29 -386.149)"/>
          <path id="Trazado_197616" data-name="Trazado 197616" d="M161.033,396.513H96.157a.757.757,0,1,1,0-1.513h64.877a.757.757,0,1,1,0,1.513Z" transform="translate(-95.317 -387.38)"/>
          <path id="Trazado_197617" data-name="Trazado 197617" d="M150.542,401.513H96.267a.757.757,0,1,1,0-1.513h54.276a.757.757,0,1,1,0,1.513Z" transform="translate(-95.344 -388.597)"/>
        </g>
        <g id="Grupo_134973" data-name="Grupo 134973" transform="translate(16.064 24.274)" opacity="0.3">
          <path id="Trazado_197618" data-name="Trazado 197618" d="M132.6,270.433H96.047a.757.757,0,1,1,0-1.513H132.6a.757.757,0,1,1,0,1.513Z" transform="translate(-95.29 -268.92)"/>
        </g>
      </g>
      <g id="freepik--Clipboard--inject-82" transform="translate(221.061 142.244)">
        <rect id="Rectángulo_295196" data-name="Rectángulo 295196" width="92.124" height="148.776" rx="3.46" transform="translate(0 0.711)" fill="#084a93"/>
        <path id="Trazado_197619" data-name="Trazado 197619" d="M320.682,170.3H369.4a.484.484,0,0,1,.484.484v4.873H320.19v-4.873a.484.484,0,0,1,.492-.484Z" transform="translate(-298.973 -170.3)" fill="#263238"/>
        <rect id="Rectángulo_295197" data-name="Rectángulo 295197" width="84.838" height="139.461" transform="translate(3.647 5.357)" fill="#fff" opacity="0.9"/>
        <path id="Trazado_197620" data-name="Trazado 197620" d="M363.6,182.692H348.688l-.174-.522a1.612,1.612,0,0,0-3.065,0l-.174.522H330.347a2.187,2.187,0,0,1-2.187-2.179v-5.493a2.194,2.194,0,0,1,2.187-2.179H363.64a2.187,2.187,0,0,1,2.179,2.179v5.509a2.179,2.179,0,0,1-2.217,2.164Zm-13.877-1.513H363.6a.658.658,0,0,0,.666-.666v-5.493a.666.666,0,0,0-.666-.666H330.309a.666.666,0,0,0-.673.666v5.509a.666.666,0,0,0,.673.666h13.923a3.125,3.125,0,0,1,5.5,0Z" transform="translate(-300.912 -170.918)" fill="#263238"/>
        <g id="Grupo_134974" data-name="Grupo 134974" transform="translate(27.248 1.922)" opacity="0.5">
          <path id="Trazado_197621" data-name="Trazado 197621" d="M363.6,182.692H348.688l-.174-.522a1.612,1.612,0,0,0-3.065,0l-.174.522H330.347a2.187,2.187,0,0,1-2.187-2.179v-5.493a2.194,2.194,0,0,1,2.187-2.179H363.64a2.187,2.187,0,0,1,2.179,2.179v5.509a2.179,2.179,0,0,1-2.217,2.164Zm-13.877-1.513H363.6a.658.658,0,0,0,.666-.666v-5.493a.666.666,0,0,0-.666-.666H330.309a.666.666,0,0,0-.673.666v5.509a.666.666,0,0,0,.673.666h13.923a3.125,3.125,0,0,1,5.5,0Z" transform="translate(-328.16 -172.84)" fill="#fff"/>
        </g>
        <rect id="Rectángulo_295198" data-name="Rectángulo 295198" width="30.085" height="3.292" rx="0.99" transform="translate(31.023 1.044)" fill="#263238"/>
        <rect id="Rectángulo_295199" data-name="Rectángulo 295199" width="30.085" height="3.292" rx="0.99" transform="translate(31.023 1.044)" fill="#fff" opacity="0.2"/>
        <circle id="Elipse_4848" data-name="Elipse 4848" cx="16.102" cy="16.102" r="16.102" transform="translate(46.809 130.465) rotate(-76.72)" fill="#ffb30b"/>
        <path id="Trazado_197622" data-name="Trazado 197622" d="M374.442,321.742h16.1a16.1,16.1,0,1,1-16.1-16.1h.061Z" transform="translate(-308.256 -203.232)" fill="#fff" opacity="0.3"/>
        <path id="Trazado_197623" data-name="Trazado 197623" d="M374.439,321.742l8.687,13.552a16.1,16.1,0,1,1-8.687-29.654h.053Z" transform="translate(-308.253 -203.232)" fill="#fff" opacity="0.3"/>
        <path id="Trazado_197624" data-name="Trazado 197624" d="M374.443,321.742,360.868,330.4a16.1,16.1,0,0,1,13.575-24.758h.053Z" transform="translate(-308.257 -203.232)" fill="#fff" opacity="0.3"/>
        <g id="Grupo_134975" data-name="Grupo 134975" transform="translate(9.761 30.335)" opacity="0.5">
          <path id="Trazado_197625" data-name="Trazado 197625" d="M305.05,210.39v38h72.64v-38Zm72.042,5.932H364.524v-5.365h12.568Zm-40.141,0H324.012v-5.365h12.939Zm.568-5.365H350.45v5.365h-12.9Zm-.568,5.932v30.933H324.012V216.9Zm.568,0H350.45v30.933h-12.9Zm13.5,0h12.939v30.933H351.018Zm0-.568v-5.365h12.939v5.365Zm-27.573-5.365v5.365H305.617v-5.365ZM305.617,216.9h17.827v30.933H305.617Zm58.907,30.933V216.9h12.568v30.933Z" transform="translate(-305.05 -210.39)"/>
          <path id="Trazado_197626" data-name="Trazado 197626" d="M335.317,225.513h5.236a.757.757,0,1,0,0-1.513h-5.236a.757.757,0,0,0,0,1.513Z" transform="translate(-312.231 -213.702)"/>
          <path id="Trazado_197627" data-name="Trazado 197627" d="M352.757,234.583h5.683a.757.757,0,0,0,0-1.513h-5.683a.757.757,0,0,0,0,1.513Z" transform="translate(-316.474 -215.909)"/>
          <path id="Trazado_197628" data-name="Trazado 197628" d="M358.712,251.22h-5.955a.757.757,0,0,0,0,1.513h5.932a.757.757,0,0,0,0-1.513Z" transform="translate(-316.474 -220.325)"/>
          <path id="Trazado_197629" data-name="Trazado 197629" d="M376.014,242.14h-6.258a.757.757,0,1,0,0,1.513h6.273a.757.757,0,1,0,0-1.513Z" transform="translate(-320.611 -218.116)"/>
          <path id="Trazado_197630" data-name="Trazado 197630" d="M393.873,224h-6.356a.757.757,0,1,0,0,1.513h6.356a.757.757,0,1,0,0-1.513Z" transform="translate(-324.933 -213.702)"/>
          <path id="Trazado_197631" data-name="Trazado 197631" d="M393.055,251.22h-5.539a.757.757,0,1,0,0,1.513h5.539a.757.757,0,0,0,0-1.513Z" transform="translate(-324.933 -220.325)"/>
          <path id="Trazado_197632" data-name="Trazado 197632" d="M335.317,243.653H339.8a.757.757,0,0,0,0-1.513h-4.487a.757.757,0,0,0,0,1.513Z" transform="translate(-312.231 -218.116)"/>
          <path id="Trazado_197633" data-name="Trazado 197633" d="M340.553,251.22h-5.236a.757.757,0,0,0,0,1.513h5.236a.757.757,0,1,0,0-1.513Z" transform="translate(-312.231 -220.325)"/>
          <path id="Trazado_197634" data-name="Trazado 197634" d="M309.167,225.513h11.971a.757.757,0,0,0,0-1.513H309.167a.757.757,0,1,0,0,1.513Z" transform="translate(-305.868 -213.702)"/>
          <path id="Trazado_197635" data-name="Trazado 197635" d="M309.167,234.583h7.968a.757.757,0,1,0,0-1.513h-7.968a.757.757,0,1,0,0,1.513Z" transform="translate(-305.868 -215.909)"/>
          <path id="Trazado_197636" data-name="Trazado 197636" d="M321.137,242.14H309.167a.757.757,0,1,0,0,1.513h11.971a.757.757,0,0,0,0-1.513Z" transform="translate(-305.868 -218.116)"/>
          <path id="Trazado_197637" data-name="Trazado 197637" d="M315.152,251.22h-5.985a.757.757,0,1,0,0,1.513h5.985a.757.757,0,1,0,0-1.513Z" transform="translate(-305.868 -220.325)"/>
        </g>
        <g id="Grupo_134976" data-name="Grupo 134976" transform="translate(9.761 20.854)" opacity="0.5">
          <path id="Trazado_197638" data-name="Trazado 197638" d="M334.136,199.373h-28.33a.757.757,0,0,1,0-1.513h28.33a.757.757,0,0,1,0,1.513Z" transform="translate(-305.05 -197.86)"/>
        </g>
        <g id="Grupo_134977" data-name="Grupo 134977" transform="translate(9.761 25.099)" opacity="0.5">
          <path id="Trazado_197639" data-name="Trazado 197639" d="M324.2,204.983H305.807a.757.757,0,0,1,0-1.513H324.2a.757.757,0,1,1,0,1.513Z" transform="translate(-305.05 -203.47)"/>
        </g>
        <g id="Grupo_134978" data-name="Grupo 134978" transform="translate(9.761 73.382)" opacity="0.5">
          <path id="Trazado_197640" data-name="Trazado 197640" d="M342.361,268.793H305.807a.757.757,0,0,1,0-1.513h36.555a.757.757,0,1,1,0,1.513Z" transform="translate(-305.05 -267.28)"/>
        </g>
        <rect id="Rectángulo_295200" data-name="Rectángulo 295200" width="4.517" height="4.517" transform="translate(9.761 104.889)" fill="#084a93"/>
        <g id="Grupo_134979" data-name="Grupo 134979" transform="translate(16.806 106.395)" opacity="0.5">
          <path id="Trazado_197641" data-name="Trazado 197641" d="M337.544,312.423H315.117a.757.757,0,1,1,0-1.513h22.428a.757.757,0,0,1,0,1.513Z" transform="translate(-314.36 -310.91)"/>
        </g>
        <rect id="Rectángulo_295201" data-name="Rectángulo 295201" width="4.517" height="4.517" transform="translate(9.761 112.464)" fill="#084a93"/>
        <g id="Grupo_134980" data-name="Grupo 134980" transform="translate(16.806 113.962)" opacity="0.5">
          <path id="Trazado_197642" data-name="Trazado 197642" d="M337.544,322.423H315.117a.757.757,0,1,1,0-1.513h22.428a.757.757,0,0,1,0,1.513Z" transform="translate(-314.36 -320.91)"/>
        </g>
        <rect id="Rectángulo_295202" data-name="Rectángulo 295202" width="4.517" height="4.517" transform="translate(9.761 120.03)" fill="#084a93"/>
        <g id="Grupo_134981" data-name="Grupo 134981" transform="translate(16.806 121.536)" opacity="0.5">
          <path id="Trazado_197643" data-name="Trazado 197643" d="M337.544,332.433H315.117a.757.757,0,1,1,0-1.513h22.428a.757.757,0,0,1,0,1.513Z" transform="translate(-314.36 -330.92)"/>
        </g>
        <rect id="Rectángulo_295203" data-name="Rectángulo 295203" width="4.517" height="4.517" transform="translate(9.761 127.605)" fill="#084a93"/>
        <g id="Grupo_134982" data-name="Grupo 134982" transform="translate(16.806 129.11)" opacity="0.5">
          <path id="Trazado_197644" data-name="Trazado 197644" d="M337.544,342.443H315.117a.757.757,0,1,1,0-1.513h22.428a.757.757,0,0,1,0,1.513Z" transform="translate(-314.36 -340.93)"/>
        </g>
        <g id="Grupo_134983" data-name="Grupo 134983" transform="translate(9.761 80.146)" opacity="0.5">
          <path id="Trazado_197645" data-name="Trazado 197645" d="M378.33,277.733H312.7a.757.757,0,0,1,0-1.513H378.33a.757.757,0,1,1,0,1.513Z" transform="translate(-306.727 -276.22)"/>
          <path id="Trazado_197646" data-name="Trazado 197646" d="M376.737,282.743h-70.93a.757.757,0,0,1,0-1.513h70.93a.757.757,0,1,1,0,1.513Z" transform="translate(-305.05 -277.439)"/>
          <path id="Trazado_197647" data-name="Trazado 197647" d="M376.847,287.753h-70.93a.757.757,0,0,1,0-1.513h70.93a.757.757,0,0,1,0,1.513Z" transform="translate(-305.077 -278.658)"/>
          <path id="Trazado_197648" data-name="Trazado 197648" d="M366.356,292.763H306.027a.757.757,0,0,1,0-1.513h60.329a.757.757,0,0,1,0,1.513Z" transform="translate(-305.104 -279.877)"/>
        </g>
        <rect id="Rectángulo_295204" data-name="Rectángulo 295204" width="4.517" height="4.517" transform="translate(9.761 112.464)" fill="#fff" opacity="0.3"/>
        <rect id="Rectángulo_295205" data-name="Rectángulo 295205" width="4.517" height="4.517" transform="translate(9.761 120.03)" fill="#fff" opacity="0.5"/>
        <rect id="Rectángulo_295206" data-name="Rectángulo 295206" width="4.517" height="4.517" transform="translate(9.761 127.605)" fill="#fff" opacity="0.7"/>
      </g>
      <g id="freepik--Plant--inject-82" transform="translate(292.138 255.987)">
        <path id="Trazado_197649" data-name="Trazado 197649" d="M402.221,375.577s-3.594-7.839.515-15.572,5.3-9.549,2.679-11.131-3.821,6.182-3.821,6.182a17.47,17.47,0,0,1-.378-10.941c1.816-5.592,2.959-14.7.477-15.678s-.477,11.35-2.641,15.572a36.462,36.462,0,0,1-2.111-9.178c-.3-4.487.167-11.66-1.793-13.5s-3.223-.568-1.294,9.345a103.718,103.718,0,0,1,1.914,17.971s-4.26-13.007-7.128-13.385-2.86,3.836-.409,7.491,7.181,10.192,7.953,13.56c0,0-4.684-9.784-8.891-6.81s3.662,8.914,7.173,11.047S400.4,376.1,400.4,376.1Z" transform="translate(-386.085 -320.622)" fill="#084a93"/>
        <path id="Trazado_197650" data-name="Trazado 197650" d="M402.221,375.577s-3.594-7.839.515-15.572,5.3-9.549,2.679-11.131-3.821,6.182-3.821,6.182a17.47,17.47,0,0,1-.378-10.941c1.816-5.592,2.959-14.7.477-15.678s-.477,11.35-2.641,15.572a36.462,36.462,0,0,1-2.111-9.178c-.3-4.487.167-11.66-1.793-13.5s-3.223-.568-1.294,9.345a103.718,103.718,0,0,1,1.914,17.971s-4.26-13.007-7.128-13.385-2.86,3.836-.409,7.491,7.181,10.192,7.953,13.56c0,0-4.684-9.784-8.891-6.81s3.662,8.914,7.173,11.047S400.4,376.1,400.4,376.1Z" transform="translate(-386.085 -320.622)" opacity="0.2"/>
        <path id="Trazado_197651" data-name="Trazado 197651" d="M402.093,379.787s3.5-7.892-.7-15.557-5.41-9.473-2.815-11.1,3.9,6.129,3.9,6.129a17.456,17.456,0,0,0,.25-10.941c-1.884-5.569-3.14-14.657-.666-15.671s.613,11.35,2.822,15.527a36.433,36.433,0,0,0,2.005-9.2c.242-4.5-.31-11.668,1.634-13.537s3.216-.613,1.4,9.33a103.828,103.828,0,0,0-1.695,18s4.109-13.068,6.984-13.461,2.906,3.783.5,7.476-7.052,10.306-7.786,13.681c0,0,4.54-9.837,8.808-6.916s-3.556,8.967-7.037,11.153-5.766,15.61-5.766,15.61Z" transform="translate(-388.795 -321.615)" fill="#084a93"/>
        <path id="Trazado_197652" data-name="Trazado 197652" d="M415.7,390.07H386.79l2.338,20.687h24.228Z" transform="translate(-386.257 -337.521)" fill="#263238"/>
      </g>
      <g id="freepik--speech-bubble--inject-82" transform="translate(140.294 131.098)">
        <path id="Trazado_197653" data-name="Trazado 197653" d="M192.106,155.57h21.747a6.689,6.689,0,0,1,6.689,6.689v18.917a6.689,6.689,0,0,1-6.689,6.689H207.5l2.27,8.248-6.81-8.248H192.106a6.689,6.689,0,0,1-6.7-6.689V162.259a6.689,6.689,0,0,1,6.7-6.689Z" transform="translate(-185.41 -155.57)" fill="#ffb30b"/>
        <path id="Trazado_197654" data-name="Trazado 197654" d="M192.106,155.57h21.747a6.689,6.689,0,0,1,6.689,6.689v18.917a6.689,6.689,0,0,1-6.689,6.689H207.5l2.27,8.248-6.81-8.248H192.106a6.689,6.689,0,0,1-6.7-6.689V162.259a6.689,6.689,0,0,1,6.7-6.689Z" transform="translate(-185.41 -155.57)" fill="#fff" opacity="0.7"/>
        <circle id="Elipse_4849" data-name="Elipse 4849" cx="6.772" cy="6.772" r="6.772" transform="translate(7.506 6.727)" fill="#fff" opacity="0.7"/>
        <path id="Trazado_197655" data-name="Trazado 197655" d="M201.79,178.666a7.748,7.748,0,1,1,5.486-2.27A7.748,7.748,0,0,1,201.79,178.666Zm0-13.537a5.789,5.789,0,1,0,4.094,1.695A5.788,5.788,0,0,0,201.79,165.13Z" transform="translate(-187.512 -157.419)" fill="#084a93"/>
        <rect id="Rectángulo_295207" data-name="Rectángulo 295207" width="1.967" height="10.919" transform="translate(18.376 18.984) rotate(-45)" fill="#084a93"/>
        <path id="Trazado_197656" data-name="Trazado 197656" d="M219.524,190.141a1.513,1.513,0,0,1-1.044-.431l-5.894-5.894a1.476,1.476,0,1,1,2.081-2.088l5.9,5.9a1.476,1.476,0,0,1-1.044,2.512Z" transform="translate(-191.905 -161.819)" fill="#084a93"/>
        <path id="Trazado_197657" data-name="Trazado 197657" d="M204.7,168.873a1.513,1.513,0,1,1-1.513-1.513A1.513,1.513,0,0,1,204.7,168.873Z" transform="translate(-189.367 -158.439)" fill="#fff"/>
        <path id="Trazado_197658" data-name="Trazado 197658" d="M208.153,170.577a.757.757,0,1,1-.757-.757A.757.757,0,0,1,208.153,170.577Z" transform="translate(-190.576 -159.037)" fill="#fff"/>
      </g>
      <g id="freepik--Character--inject-82" transform="translate(92.51 159.404)">
        <rect id="Rectángulo_295208" data-name="Rectángulo 295208" width="112.698" height="18.137" transform="translate(13.302 110.837)" fill="#084a93"/>
        <rect id="Rectángulo_295209" data-name="Rectángulo 295209" width="112.698" height="18.137" transform="translate(13.302 110.837)" fill="#fff" opacity="0.8"/>
        <path id="Trazado_197659" data-name="Trazado 197659" d="M263.967,345.325V343.85l-77.157.613Z" transform="translate(-137.967 -229.691)" opacity="0.2"/>
        <path id="Trazado_197660" data-name="Trazado 197660" d="M277.64,353.833V352.69L243,353.931Z" transform="translate(-151.64 -231.842)" opacity="0.2"/>
        <path id="Trazado_197661" data-name="Trazado 197661" d="M270.82,359.346V357.87l-55.85.855Z" transform="translate(-144.819 -233.102)" opacity="0.2"/>
        <path id="Trazado_197662" data-name="Trazado 197662" d="M172.619,339.46,171,352.982l1.929-2.058a16.5,16.5,0,0,0,3.541,6.674,19.673,19.673,0,0,0,2.845-5.2l52.634-.605-52.134-1.143a10.98,10.98,0,0,0,.25-2.27,10.328,10.328,0,0,0-.182-1.884l77.226-.2-77.407-.605a14.8,14.8,0,0,0-1.135-2.944,6.053,6.053,0,0,1,4.033-1.513H260.12V339.46Z" transform="translate(-134.12 -228.623)" opacity="0.2"/>
        <path id="Trazado_197663" data-name="Trazado 197663" d="M162.743,348.071a8.217,8.217,0,0,0,8.21,8.195h78.852a.605.605,0,0,1,.605.605v.651a.605.605,0,0,1-.605.605H133.324A10.064,10.064,0,0,1,123.26,347.98,10.23,10.23,0,0,1,133.581,338H249.805a.605.605,0,0,1,.605.605v.643a.605.605,0,0,1-.605.605h-78.61a8.437,8.437,0,0,0-8.452,8.217Z" transform="translate(-122.503 -228.267)" fill="#084a93"/>
        <path id="Trazado_197664" data-name="Trazado 197664" d="M162.743,348.071a8.217,8.217,0,0,0,8.21,8.195h78.852a.605.605,0,0,1,.605.605v.651a.605.605,0,0,1-.605.605H133.324A10.064,10.064,0,0,1,123.26,347.98,10.23,10.23,0,0,1,133.581,338H249.805a.605.605,0,0,1,.605.605v.643a.605.605,0,0,1-.605.605h-78.61a8.437,8.437,0,0,0-8.452,8.217Z" transform="translate(-122.503 -228.267)" fill="#fff" opacity="0.4"/>
        <path id="Trazado_197665" data-name="Trazado 197665" d="M174.7,348.071a8.217,8.217,0,0,0,8.21,8.195h78.852a.605.605,0,0,1,.605.605v.651a.605.605,0,0,1-.605.605H182.451A10.079,10.079,0,0,1,172.38,347.98,10.245,10.245,0,0,1,182.686,338h79.072a.605.605,0,0,1,.605.605v.643a.605.605,0,0,1-.605.605h-78.61a8.437,8.437,0,0,0-8.452,8.217Z" transform="translate(-134.456 -228.267)" fill="#084a93"/>
        <path id="Trazado_197666" data-name="Trazado 197666" d="M195.06,344.85v7.272l2.633-2.633,2.55,2.55V344.85Z" transform="translate(-139.974 -229.934)" fill="#263238"/>
        <path id="Trazado_197667" data-name="Trazado 197667" d="M174.7,348.071a8.217,8.217,0,0,0,8.21,8.195h78.852a.605.605,0,0,1,.605.605v.651a.605.605,0,0,1-.605.605H182.451A10.079,10.079,0,0,1,172.38,347.98,10.245,10.245,0,0,1,182.686,338h79.072a.605.605,0,0,1,.605.605v.643a.605.605,0,0,1-.605.605h-78.61a8.437,8.437,0,0,0-8.452,8.217Z" transform="translate(-134.456 -228.267)" fill="#fff" opacity="0.6"/>
        <rect id="Rectángulo_295210" data-name="Rectángulo 295210" width="112.698" height="18.137" transform="translate(18.743 150.805)" fill="#084a93"/>
        <rect id="Rectángulo_295211" data-name="Rectángulo 295211" width="112.698" height="18.137" transform="translate(18.743 150.805)" fill="#fff" opacity="0.7"/>
        <path id="Trazado_197668" data-name="Trazado 197668" d="M271.157,398.135V396.66L194,397.28Z" transform="translate(-139.716 -242.541)" opacity="0.2"/>
        <path id="Trazado_197669" data-name="Trazado 197669" d="M284.83,406.645V405.51l-34.64,1.233Z" transform="translate(-153.389 -244.695)" opacity="0.2"/>
        <path id="Trazado_197670" data-name="Trazado 197670" d="M278.01,412.158V410.69l-55.85.847Z" transform="translate(-146.569 -245.955)" opacity="0.2"/>
        <path id="Trazado_197671" data-name="Trazado 197671" d="M179.8,392.28,178.17,405.8l1.929-2.058a16.647,16.647,0,0,0,3.549,6.674,19.938,19.938,0,0,0,2.838-5.206l52.634-.605-52.134-1.135a11.117,11.117,0,0,0,.257-2.27,10.328,10.328,0,0,0-.189-1.884l77.248-.174-77.415-.605a14.732,14.732,0,0,0-1.135-2.936,6.054,6.054,0,0,1,4.033-1.551h77.543V392.28Z" transform="translate(-135.865 -241.475)" opacity="0.2"/>
        <path id="Trazado_197672" data-name="Trazado 197672" d="M167.94,400.891a8.2,8.2,0,0,0,8.21,8.233H255a.605.605,0,0,1,.605.605v.651a.605.605,0,0,1-.605.605H132.324a10.079,10.079,0,0,1-10.064-10.139,10.238,10.238,0,0,1,10.329-10H255a.605.605,0,0,1,.605.605v.651a.605.605,0,0,1-.605.605h-78.61A8.437,8.437,0,0,0,167.94,400.891Z" transform="translate(-122.26 -241.127)" fill="#263238"/>
        <path id="Trazado_197673" data-name="Trazado 197673" d="M167.94,400.891a8.2,8.2,0,0,0,8.21,8.233H255a.605.605,0,0,1,.605.605v.651a.605.605,0,0,1-.605.605H132.324a10.079,10.079,0,0,1-10.064-10.139,10.238,10.238,0,0,1,10.329-10H255a.605.605,0,0,1,.605.605v.651a.605.605,0,0,1-.605.605h-78.61A8.437,8.437,0,0,0,167.94,400.891Z" transform="translate(-122.26 -241.127)" fill="#fff" opacity="0.2"/>
        <path id="Trazado_197674" data-name="Trazado 197674" d="M181.888,400.891a8.2,8.2,0,0,0,8.21,8.233H268.95a.605.605,0,0,1,.605.605v.651a.605.605,0,0,1-.605.605H189.644a10.064,10.064,0,0,1-10.064-10.139,10.23,10.23,0,0,1,10.321-10H268.95a.605.605,0,0,1,.605.605v.651a.605.605,0,0,1-.605.605H190.34A8.437,8.437,0,0,0,181.888,400.891Z" transform="translate(-136.208 -241.127)" fill="#263238"/>
        <path id="Trazado_197675" data-name="Trazado 197675" d="M194,401.08v7.272l2.626-2.633,2.55,2.55V401.08Z" transform="translate(-139.716 -243.617)" fill="#084a93"/>
        <path id="Trazado_197676" data-name="Trazado 197676" d="M181.888,400.891a8.2,8.2,0,0,0,8.21,8.233H268.95a.605.605,0,0,1,.605.605v.651a.605.605,0,0,1-.605.605H189.644a10.064,10.064,0,0,1-10.064-10.139,10.23,10.23,0,0,1,10.321-10H268.95a.605.605,0,0,1,.605.605v.651a.605.605,0,0,1-.605.605H190.34A8.437,8.437,0,0,0,181.888,400.891Z" transform="translate(-136.208 -241.127)" fill="#fff" opacity="0.4"/>
        <rect id="Rectángulo_295212" data-name="Rectángulo 295212" width="41.753" height="18.115" transform="translate(50.356 148.928) rotate(180)" fill="#084a93"/>
        <rect id="Rectángulo_295213" data-name="Rectángulo 295213" width="41.753" height="18.115" transform="translate(50.356 148.928) rotate(180)" fill="#fff" opacity="0.8"/>
        <path id="Trazado_197677" data-name="Trazado 197677" d="M172.038,367.641H133.63V365.87h38.363Z" transform="translate(-125.026 -235.049)" opacity="0.2"/>
        <path id="Trazado_197678" data-name="Trazado 197678" d="M173.248,370.25l-34.648.742,34.648.734Z" transform="translate(-126.236 -236.115)" opacity="0.2"/>
        <path id="Trazado_197679" data-name="Trazado 197679" d="M172.591,379.1l-36.691.62,36.691.522Z" transform="translate(-125.579 -238.268)" opacity="0.2"/>
        <path id="Trazado_197680" data-name="Trazado 197680" d="M172.7,384.28l-36.365.734,36.365.734Z" transform="translate(-125.683 -239.529)" opacity="0.2"/>
        <path id="Trazado_197681" data-name="Trazado 197681" d="M133.63,373.66l35.177,1.059-35.177.742Z" transform="translate(-125.026 -236.945)" opacity="0.2"/>
        <path id="Trazado_197682" data-name="Trazado 197682" d="M226.006,374.469a8.217,8.217,0,0,1-8.21,8.2H130.885a.605.605,0,0,0-.605.605v.643a.605.605,0,0,0,.605.605H218.25a10.049,10.049,0,0,0,10.064-10.139,10.23,10.23,0,0,0-10.321-10H130.885a.605.605,0,0,0-.605.605v.651a.605.605,0,0,0,.605.605h86.669a8.437,8.437,0,0,1,8.452,8.217Z" transform="translate(-124.211 -234.689)" fill="#263238"/>
        <path id="Trazado_197683" data-name="Trazado 197683" d="M226.006,374.469a8.217,8.217,0,0,1-8.21,8.2H130.885a.605.605,0,0,0-.605.605v.643a.605.605,0,0,0,.605.605H218.25a10.049,10.049,0,0,0,10.064-10.139,10.23,10.23,0,0,0-10.321-10H130.885a.605.605,0,0,0-.605.605v.651a.605.605,0,0,0,.605.605h86.669a8.437,8.437,0,0,1,8.452,8.217Z" transform="translate(-124.211 -234.689)" fill="#fff" opacity="0.4"/>
        <path id="Trazado_197684" data-name="Trazado 197684" d="M270.87,374.93h0a9.08,9.08,0,0,1-9.08,9.08h-77.4V365.85H261.8A9.08,9.08,0,0,1,270.87,374.93Z" transform="translate(-137.378 -235.044)" fill="#084a93"/>
        <path id="Trazado_197685" data-name="Trazado 197685" d="M184.39,365.87v18.16H261.8a9.08,9.08,0,0,0,0-18.16Z" transform="translate(-137.378 -235.049)" fill="#fff" opacity="0.7"/>
        <path id="Trazado_197686" data-name="Trazado 197686" d="M184.39,371.726V370.25l77.157.62Z" transform="translate(-137.378 -236.115)" opacity="0.2"/>
        <path id="Trazado_197687" data-name="Trazado 197687" d="M184.39,380.243V379.1l34.64,1.241Z" transform="translate(-137.378 -238.268)" opacity="0.2"/>
        <path id="Trazado_197688" data-name="Trazado 197688" d="M184.39,385.748V384.28l55.85.847Z" transform="translate(-137.378 -239.529)" opacity="0.2"/>
        <path id="Trazado_197689" data-name="Trazado 197689" d="M261.926,367.65a6.053,6.053,0,0,1,4.033,1.551,15.132,15.132,0,0,0-1.143,2.943l-77.407.605,77.233.189a10.407,10.407,0,0,0-.189,1.892,10.02,10.02,0,0,0,.265,2.27l-52.142,1.135,52.626.613a19.2,19.2,0,0,0,1.748,3.594A9.08,9.08,0,0,0,261.8,365.91H184.39v1.771Z" transform="translate(-137.378 -235.059)" opacity="0.2"/>
        <path id="Trazado_197690" data-name="Trazado 197690" d="M269.538,374.469a8.217,8.217,0,0,1-8.21,8.2H182.475a.605.605,0,0,0-.605.605v.643a.605.605,0,0,0,.605.605h79.306a10.049,10.049,0,0,0,10.064-10.139,10.23,10.23,0,0,0-10.321-10H182.475a.605.605,0,0,0-.605.605v.651a.605.605,0,0,0,.605.605h78.61a8.437,8.437,0,0,1,8.452,8.217Z" transform="translate(-136.765 -234.689)" fill="#263238"/>
        <path id="Trazado_197691" data-name="Trazado 197691" d="M284.693,374.67v7.272l-2.633-2.633-2.55,2.55V374.67Z" transform="translate(-160.524 -237.19)" fill="#084a93"/>
        <path id="Trazado_197692" data-name="Trazado 197692" d="M311.374,239.59h-1.892a2.209,2.209,0,0,0-1.778.961l-1.877,2.739a4.1,4.1,0,0,0-.469,3.746l.288.757c3.14.151,6.651-2,6.651-2l1.074-.5a1.831,1.831,0,0,0,.938-2.429l-.961-2.081a2.126,2.126,0,0,0-1.975-1.2Z" transform="translate(-166.752 -204.321)" fill="#eec1bb"/>
        <path id="Trazado_197693" data-name="Trazado 197693" d="M263.929,243.693c4.858,3.927,10.1,7.71,15.89,10.026l-.719-.151a6.174,6.174,0,0,0,2.648-.757c4.041-1.967,7.869-4.918,11.5-7.612a1.922,1.922,0,0,1,2.671,2.7c-3.624,4.54-11.781,13.764-18.243,12.417a51.789,51.789,0,0,1-18.917-10.873C255.144,245.963,259.994,240.522,263.929,243.693Z" transform="translate(-155.165 -205.087)" fill="#ebc0bb"/>
        <path id="Trazado_197694" data-name="Trazado 197694" d="M252.365,236.876c-1.771,4.933,1.082,9.837,7.945,15.61,3.413-.507,8.021-7.506,8.021-7.506S258.676,235.325,252.365,236.876Z" transform="translate(-153.794 -203.62)" fill="#084a93"/>
        <path id="Trazado_197695" data-name="Trazado 197695" d="M251.94,195.59s-6.757-6.916-15.565,1.763-10.525,37.432-10.525,37.432l22.988,4.464s2.974-3.413,4.5-13.257,2.338-19.257,4.275-21.452S251.94,195.59,251.94,195.59Z" transform="translate(-147.467 -192.979)" fill="#263238"/>
        <path id="Trazado_197696" data-name="Trazado 197696" d="M284.819,383.758l-4.979-1.982,1.945-7.256,1.793-6.659,6.3,1.392-2.671,7.68Z" transform="translate(-160.604 -235.533)" fill="#eec1bb"/>
        <path id="Trazado_197697" data-name="Trazado 197697" d="M287.75,377.113l-5.41-2.436,1.824-6.727,6.3,1.362Z" transform="translate(-161.212 -235.555)" opacity="0.2"/>
        <path id="Trazado_197698" data-name="Trazado 197698" d="M234.5,301.8s41.617-5.615,53.179,1.771-10.828,52.361-10.828,52.361l-7.007-1.513s5.251-35.654,4.858-37.145-19.991,8.233-46.815,9.156Z" transform="translate(-147.963 -218.962)" fill="#263238"/>
        <path id="Trazado_197699" data-name="Trazado 197699" d="M234.5,301.8s41.617-5.615,53.179,1.771-10.828,52.361-10.828,52.361l-7.007-1.513s5.251-35.654,4.858-37.145-19.991,8.233-46.815,9.156Z" transform="translate(-147.963 -218.962)" opacity="0.2"/>
        <path id="Trazado_197700" data-name="Trazado 197700" d="M282.553,369l8.815,2.86-1.581,4.018-8.1-2.754Z" transform="translate(-161.054 -235.811)" fill="#263238"/>
        <path id="Trazado_197701" data-name="Trazado 197701" d="M291.537,389.163c-.953,0-2.633-1.513-2.981-1.877a.181.181,0,0,1-.045-.068v-.045a.235.235,0,0,1,.038-.136c.045-.053,1.15-1.513,2.21-1.559a1.089,1.089,0,0,1,.878.31c.265.25.356.492.265.719-.144.363-.757.56-1.445.681a3.027,3.027,0,0,1,1.513.673.757.757,0,0,1,.219.583.646.646,0,0,1-.4.673A.665.665,0,0,1,291.537,389.163Zm-2.346-1.793c.878.757,2.043,1.574,2.459,1.407,0,0,.151-.053.166-.356a.4.4,0,0,0-.121-.31,4.632,4.632,0,0,0-2.5-.726Zm1.65-1.513h-.068a3.155,3.155,0,0,0-1.687,1.112c1.158-.053,2.338-.272,2.459-.583.038-.1-.091-.242-.174-.318a.757.757,0,0,0-.53-.2Z" transform="translate(-162.714 -239.819)" fill="#577afa"/>
        <path id="Trazado_197702" data-name="Trazado 197702" d="M277.586,382.135c.2-.56,6.954,2.126,6.954,2.126s2.845,5.7,6.659,8.013.7,4.041-3.912,2.535l-11.411-3.715C272.585,390.035,275.551,387.916,277.586,382.135Z" transform="translate(-159.281 -238.988)" fill="#2e353a"/>
        <path id="Trazado_197703" data-name="Trazado 197703" d="M282.553,369l8.815,2.86-1.581,4.018-8.1-2.754Z" transform="translate(-161.054 -235.811)" fill="#fff" opacity="0.4"/>
        <path id="Trazado_197704" data-name="Trazado 197704" d="M311.694,403.209l-5.16,1.453-2.875-6.946-2.618-6.371,5.841-2.724,2.55,7.726Z" transform="translate(-165.763 -240.585)" fill="#eec1bb"/>
        <path id="Trazado_197705" data-name="Trazado 197705" d="M304.955,404.92c0-.59,7.279.053,7.279.053s4.351,4.654,8.664,5.781,1.824,3.67-3.027,3.556l-11.993-.3C302.436,413.924,304.66,411.041,304.955,404.92Z" transform="translate(-166.477 -244.49)" fill="#2e353a"/>
        <path id="Trazado_197706" data-name="Trazado 197706" d="M318.948,406.536a8.823,8.823,0,0,1-3.027-.991h0l-.053-.038h0a.229.229,0,0,1,0-.06.145.145,0,0,1,0-.053h0a.121.121,0,0,1,0-.076c0-.083.673-1.748,1.665-2.134a1.082,1.082,0,0,1,.931.053c.325.159.477.363.462.613-.038.386-.583.757-1.188,1.059a3.026,3.026,0,0,1,1.657.219.756.756,0,0,1,.371.492.689.689,0,0,1-.189.757.938.938,0,0,1-.628.159Zm-2.4-1.09c1.067.477,2.406.923,2.762.643,0,0,.129-.1.06-.386a.393.393,0,0,0-.2-.265A4.935,4.935,0,0,0,316.549,405.447Zm1.362-1.975a.757.757,0,0,0-.28.053,3.208,3.208,0,0,0-1.3,1.513c1.1-.378,2.164-.931,2.194-1.256,0-.106-.159-.212-.257-.257a.8.8,0,0,0-.356-.053Z" transform="translate(-169.369 -244.109)" fill="#577afa"/>
        <path id="Trazado_197707" data-name="Trazado 197707" d="M309.482,396.517l-5.773,1.354-2.648-6.447,5.834-2.754Z" transform="translate(-165.768 -240.597)" opacity="0.2"/>
        <path id="Trazado_197708" data-name="Trazado 197708" d="M240.947,304.085s-.6-8.233-.878-9.912a38.119,38.119,0,0,0-1.021-4.933c-1.824-5.486-26.287.969-26.287.969l-.7,3.783s-11.04,20.816-3.662,28.315c2.27,2.27,6.636,3.3,11.123,3.269,0,0,13.718.658,39.233-.53,0,0-1.892,14.861,19.136,43.978l7.037-2.27s-13.892-52.861-15.073-53.8C259.69,304.736,240.947,304.085,240.947,304.085Z" transform="translate(-142.603 -215.865)" fill="#263238"/>
        <path id="Trazado_197709" data-name="Trazado 197709" d="M299.38,393.925l8.74-3.095,1.188,4.154-8.1,2.739Z" transform="translate(-165.359 -241.123)" fill="#263238"/>
        <path id="Trazado_197710" data-name="Trazado 197710" d="M251.43,240.4s-.878,2.149-2.1,5.9c-.3.878-.6,1.846-.916,2.89-.416,1.37-.863,2.875-1.309,4.54-.325,1.18-.651,2.414-.969,3.715s-.658,2.709-.984,4.139a3.023,3.023,0,0,1-.106.507,142.338,142.338,0,0,0-3.027,17.774l-26.877-2.346a168.6,168.6,0,0,1,.916-17.661,85.383,85.383,0,0,1,2.807-15.027,23.2,23.2,0,0,1,4.215-8.573C223.077,236.3,237.651,231.514,251.43,240.4Z" transform="translate(-144.86 -203.206)" fill="#084a93"/>
        <path id="Trazado_197711" data-name="Trazado 197711" d="M241.389,231.411c-8.089-2.588-11.229,3.783-11.229,3.783l4.305-.424,8.74,10.972,5.123-6.636,3.223,1.733S248.4,233.651,241.389,231.411Z" transform="translate(-148.515 -202.18)" fill="#084a93"/>
        <path id="Trazado_197712" data-name="Trazado 197712" d="M241.389,231.411c-8.089-2.588-11.229,3.783-11.229,3.783l4.305-.424,8.74,10.972,5.123-6.636,3.223,1.733S248.4,233.651,241.389,231.411Z" transform="translate(-148.515 -202.18)" fill="#fff" opacity="0.6"/>
        <path id="Trazado_197713" data-name="Trazado 197713" d="M244.715,242.319l-7.415-11.1c3.5-1.581,5.811-8.27,6.318-12.039l5.236,7.915c-1.71,2.542-2.853,5.448,1.067,7.642C249.936,234.737,244.708,242.3,244.715,242.319Z" transform="translate(-150.253 -199.355)" fill="#eec1bb"/>
        <path id="Trazado_197714" data-name="Trazado 197714" d="M248.206,223.45l3.1,4.684a11.352,11.352,0,0,0-1.052,1.846c-1.551-.7-3.2-3.027-2.815-4.638A5.373,5.373,0,0,1,248.206,223.45Z" transform="translate(-152.707 -200.394)" opacity="0.2"/>
        <path id="Trazado_197715" data-name="Trazado 197715" d="M214.325,292.33l8.407.552-.3,2.376-8.929-.643Z" transform="translate(-144.461 -217.154)"/>
        <path id="Trazado_197716" data-name="Trazado 197716" d="M245.489,296.873l-18.849-1.347.3-2.376,18.243,1.2Z" transform="translate(-147.659 -217.354)"/>
        <path id="Trazado_197717" data-name="Trazado 197717" d="M241.354,296.845h-.076l-2.27-.151a1.037,1.037,0,0,1-.969-1.082l.061-1.513a1.046,1.046,0,0,1,1.1-1.029l2.361.136a1.037,1.037,0,0,1,.976,1.112l-.113,1.574A1.052,1.052,0,0,1,241.354,296.845Zm-2.527-2.754-.068,1.513a.288.288,0,0,0,.265.3l2.27.159a.288.288,0,0,0,.3-.265l.113-1.566a.273.273,0,0,0-.265-.3l-2.361-.136a.287.287,0,0,0-.2.076.257.257,0,0,0-.091.2Z" transform="translate(-150.432 -217.334)" fill="#fff"/>
        <path id="Trazado_197718" data-name="Trazado 197718" d="M299.38,393.925l8.74-3.095,1.188,4.154-8.1,2.739Z" transform="translate(-165.359 -241.123)" fill="#fff" opacity="0.5"/>
        <path id="Trazado_197719" data-name="Trazado 197719" d="M269.124,215.809a.2.2,0,0,1-.189-.113,3.026,3.026,0,0,0-2.119-1.589.2.2,0,0,1-.2-.227.22.22,0,0,1,.227-.189,3.4,3.4,0,0,1,2.459,1.816.2.2,0,0,1-.091.28Z" transform="translate(-157.387 -198.019)" fill="#263238"/>
        <path id="Trazado_197720" data-name="Trazado 197720" d="M266.218,220.82a13.142,13.142,0,0,0,.62,3.087,1.7,1.7,0,0,1-1.778,0Z" transform="translate(-157.008 -199.754)" fill="#d4827d"/>
        <path id="Trazado_197721" data-name="Trazado 197721" d="M268.4,218.969c-.2.469-.605.757-.923.62s-.416-.62-.219-1.09.605-.757.923-.62S268.589,218.492,268.4,218.969Z" transform="translate(-157.518 -199.03)" fill="#263238"/>
        <path id="Trazado_197722" data-name="Trazado 197722" d="M268.32,217.85h1.188S268.645,218.523,268.32,217.85Z" transform="translate(-157.801 -199.031)" fill="#263238"/>
        <path id="Trazado_197723" data-name="Trazado 197723" d="M245.439,218.823a1,1,0,0,0,.114.219c.076.151.159.288.242.439a8.21,8.21,0,0,0,1.945,2.444c2.58,2.141,4.8,2.822,6.81,2.27a1.055,1.055,0,0,0,.288-.091h0c2.966-1.12,5.3-4.54,7.272-9.156a18.311,18.311,0,0,0,1.657-5.667v-.31a6.81,6.81,0,0,0-2.6-5.955,13.416,13.416,0,0,0-2.482-1.619C250.085,196.933,241.285,210.515,245.439,218.823Z" transform="translate(-151.975 -194.814)" fill="#eec1bb"/>
        <path id="Trazado_197724" data-name="Trazado 197724" d="M262.548,208.025s-2.588,6.326-9.67,6.053c0,0-5.66,5.077-9.345,3.329-5.032-2.383-5.849-11.66-.5-17.994C249.987,191.2,264.515,197.567,262.548,208.025Z" transform="translate(-150.758 -193.632)" fill="#263238"/>
        <path id="Trazado_197725" data-name="Trazado 197725" d="M261.085,218.51c.477-.953.515-2.928-1.067-3.458s-4.389,2.792-1.059,5.524C259.436,220.969,260.125,220.492,261.085,218.51Z" transform="translate(-155.144 -198.337)" fill="#eec1bb"/>
        <path id="Trazado_197726" data-name="Trazado 197726" d="M255.894,195.979s6.545,1.453,8.573,5.4c2.376,4.616,2.376,8.149-4.268,10.291,0,0-8.149-8.066-11.728-9.027a38.719,38.719,0,0,0-6.371-1.188C244.665,194.677,253.314,193.028,255.894,195.979Z" transform="translate(-151.421 -193.368)" fill="#263238"/>
        <path id="Trazado_197727" data-name="Trazado 197727" d="M249.9,218.444c-4.116,8.225-13.166,22.2-22.814,12.341,0,0,3.466-11.153,10.465-15.754S249.9,218.444,249.9,218.444Z" transform="translate(-147.768 -197.999)" fill="#263238"/>
        <path id="Trazado_197728" data-name="Trazado 197728" d="M255.27,235.624c3.519,2.6-.984,11.168,3.458,13.075a4.162,4.162,0,0,1-.469-4.041c.931-2.331,4.706-8.49,3.2-16.828Z" transform="translate(-154.625 -201.459)" fill="#263238"/>
        <path id="Trazado_197729" data-name="Trazado 197729" d="M227.581,258.379s-5.751,3.9-11.191,4.381a85.382,85.382,0,0,1,2.777-14.974,5.244,5.244,0,0,1,2.27-.666,6.317,6.317,0,0,1,5.516,3.867,40.1,40.1,0,0,1,.628,7.393Z" transform="translate(-145.165 -206.153)" opacity="0.2"/>
        <path id="Trazado_197730" data-name="Trazado 197730" d="M255.7,296.957l-1.211-1.453a2.194,2.194,0,0,0-1.861-.757l-3.314.242a4.1,4.1,0,0,0-3.216,1.975l-.424.7c1.846,2.55,5.713,3.95,5.713,3.95l1.059.522a1.831,1.831,0,0,0,2.489-.757l1.059-2.088A2.1,2.1,0,0,0,255.7,296.957Z" transform="translate(-152.289 -217.74)" fill="#eec1bb"/>
        <path id="Trazado_197731" data-name="Trazado 197731" d="M225.671,250.435a78.5,78.5,0,0,0,1.021,14.233,41.668,41.668,0,0,0,1.1,4.457l-.333-.658a63.019,63.019,0,0,0,6.538,7.567l3.738,3.859,3.783,3.882a1.914,1.914,0,0,1-2.406,2.951c-1.566-.991-3.027-2.035-4.54-3.095-4.616-3.473-9.269-6.719-12.863-11.35-3.133-6.939-3.9-14.649-3.632-22.186a3.845,3.845,0,0,1,7.68.386Z" transform="translate(-145.563 -206.003)" fill="#ebc0bb"/>
        <path id="Trazado_197732" data-name="Trazado 197732" d="M222.966,236.77c-4.956,1.7-7.007,7-7.226,15.958,2.535,2.353,10.873,1.574,10.873,1.574S228.119,240.727,222.966,236.77Z" transform="translate(-145.007 -203.635)" fill="#084a93"/>
        <path id="Trazado_197733" data-name="Trazado 197733" d="M279.649,306.863v2.368c0,.613-.757.863-1.332.863H230.564c-.613,0-1.354-.25-1.354-.863V306.84Z" transform="translate(-148.284 -220.685)" fill="#263238"/>
        <path id="Trazado_197734" data-name="Trazado 197734" d="M279.649,306.863v2.368c0,.613-.757.863-1.332.863H230.564c-.613,0-1.354-.25-1.354-.863V306.84Z" transform="translate(-148.284 -220.685)" fill="#fff" opacity="0.4"/>
        <path id="Trazado_197735" data-name="Trazado 197735" d="M284.884,306.863v2.368c0,.613-.757.863-1.332.863H252.059c-.613,0-1.339-.25-1.339-.863V306.84Z" transform="translate(-153.518 -220.685)" opacity="0.2"/>
        <path id="Trazado_197736" data-name="Trazado 197736" d="M293.638,273.694l-5.69,25.78a1.922,1.922,0,0,1-1.846,1.468H255.078a1.256,1.256,0,0,1-1.165-1.619l5.683-25.591a1.771,1.771,0,0,1,1.839-1.264H292.5C293.312,272.468,293.819,272.869,293.638,273.694Z" transform="translate(-154.282 -212.32)" fill="#263238"/>
        <path id="Trazado_197737" data-name="Trazado 197737" d="M293.966,273.694l-5.69,25.78a1.922,1.922,0,0,1-1.846,1.468H256.436a1.256,1.256,0,0,1-1.173-1.619l5.683-25.591a1.771,1.771,0,0,1,1.846-1.264h30C293.641,272.468,294.148,272.869,293.966,273.694Z" transform="translate(-154.611 -212.32)" fill="#fff" opacity="0.4"/>
        <path id="Trazado_197738" data-name="Trazado 197738" d="M284.1,290.125h0c0,2.2-2.368,4-4.1,4s-2.762-1.793-2.27-4,2.225-3.935,3.92-4c-.492,2.2.568,4,2.27,4Z" transform="translate(-160.061 -215.646)" opacity="0.2"/>
      </g>
    </g>
  </g>
</svg>
