<svg xmlns="http://www.w3.org/2000/svg" width="200.365" height="200.365" viewBox="0 0 200.365 200.365">
  <g id="Grupo_135028" data-name="Grupo 135028" transform="translate(3794.398 11435.546)">
    <circle id="Elipse_4818" data-name="Elipse 4818" cx="100.182" cy="100.182" r="100.182" transform="translate(-3794.398 -11435.546)" fill="#b9ddfc"/>
    <path id="Trazado_197349" data-name="Trazado 197349" d="M228.2,976.484v-6.074a10.926,10.926,0,0,0-10.91-10.908h-79.97a10.928,10.928,0,0,0-10.912,10.908v72.777l4.339-2.355h0l28.145-15.99-1.114-1.863,3.846-.249,3.345-1.362.617,1.112,9.176-.615a5.336,5.336,0,0,1,4.713,2.6,5.408,5.408,0,0,1-.251,5.33l-5.33,7.563-1.484,2.108-2.979,4.343-1.114-1.989c-10.288,5.833-20.707,11.783-31,17.61l-.247.123h0l-9.425,5.2-1.239-2.1v19.092a11.007,11.007,0,0,0,10.912,10.908h79.97a11.005,11.005,0,0,0,10.91-10.908V976.484Zm-65.339,80.1h28.887a3.069,3.069,0,0,1,3.1,3.1h0a3.051,3.051,0,0,1-3.1,2.979H162.858a3.133,3.133,0,0,1-3.1-2.979h0a3.147,3.147,0,0,1,3.1-3.1Zm-20.582,10.66h70.05a3.126,3.126,0,0,1,3.1,2.971h0a3.149,3.149,0,0,1-3.1,3.1h-70.05a3.044,3.044,0,0,1-2.975-3.1h0a3.014,3.014,0,0,1,2.975-2.971Zm0,10.538h70.05a3.237,3.237,0,0,1,3.1,3.1h0a3.15,3.15,0,0,1-3.1,3.1h-70.05a3.044,3.044,0,0,1-2.975-3.1h0a3.126,3.126,0,0,1,2.975-3.1ZM162.858,968.8h28.887a3.071,3.071,0,0,1,3.1,3.1h0a3.048,3.048,0,0,1-3.1,2.977H162.858a3.129,3.129,0,0,1-3.1-2.977h0a3.15,3.15,0,0,1,3.1-3.1Zm-20.582,10.662h70.05a3.129,3.129,0,0,1,3.1,2.977h0a3.148,3.148,0,0,1-3.1,3.1h-70.05a3.043,3.043,0,0,1-2.975-3.1h0a3.017,3.017,0,0,1,2.975-2.977Zm0,10.54h70.05a3.235,3.235,0,0,1,3.1,3.1h0a3.152,3.152,0,0,1-3.1,3.1h-70.05a3.046,3.046,0,0,1-2.975-3.1h0a3.124,3.124,0,0,1,2.975-3.1Zm35.458,32.729a3.271,3.271,0,0,1,2.981,3.349,2.709,2.709,0,0,1-.871,2.106,4.93,4.93,0,0,0-.372-3.717,4.645,4.645,0,0,0-1.738-1.738Zm-.368-17.608a20.892,20.892,0,0,1,0,41.784,20.122,20.122,0,0,1-11.783-3.592l2.729-1.492,1.114,1.989.746-.994a16.936,16.936,0,0,0,7.193,1.488,18.226,18.226,0,0,0,0-36.452c-11.161,0-16.119,7.442-18.476,16.988l-2.474,1.484v-.247a20.925,20.925,0,0,1,20.95-20.956Zm0,10.544a10.309,10.309,0,0,1,7.315,2.973,10.719,10.719,0,0,1,3.1,7.44,10.43,10.43,0,0,1-3.1,7.315h0a9.92,9.92,0,0,1-7.315,3.1,8.86,8.86,0,0,1-2.607-.372l1.49-2.1c.372,0,.742.125,1.116.125a8.2,8.2,0,0,0,5.575-2.359,8.075,8.075,0,0,0,0-11.4h0a7.927,7.927,0,0,0-11.278,0h0a6.145,6.145,0,0,0-1.37,1.734l-2.721.249a11.817,11.817,0,0,1,2.349-3.721h0a10.407,10.407,0,0,1,7.444-2.973Zm0-5.708a16.151,16.151,0,0,1,11.28,4.713h0a15.933,15.933,0,0,1,4.711,11.409,15.421,15.421,0,0,1-4.711,11.282h0a15.615,15.615,0,0,1-11.28,4.708,15.91,15.91,0,0,1-5.952-1.112l.992-1.488.99-1.366a20.474,20.474,0,0,0,3.97.746,13.294,13.294,0,0,0,9.049-3.719h0a13.3,13.3,0,0,0,3.719-9.051,12.7,12.7,0,0,0-12.768-12.77,12.332,12.332,0,0,0-9.053,3.717l-3.1,4.839-3.592.865a16.035,16.035,0,0,1,4.334-8.06,16.245,16.245,0,0,1,11.411-4.713Zm-8.062,26.908-5.825-10.292-1.611.867-30.378,17.237-1.858,1.112,5.827,10.29c8.062-4.588,25.788-14.629,33.845-19.215ZM131.12,1058.56l.867-.495-5.827-10.288-2.854,1.611,5.831,10.288Zm45.006-32.234a1.093,1.093,0,0,0-1.243-.617l-10.91.617,5.825,10.288,6.2-8.924a1.134,1.134,0,0,0,.125-1.364Zm-41.9,30.374.865-.372-5.825-10.415-2.856,1.611,5.827,10.3Z" transform="translate(-3875.312 -12361.834)" fill="#084a93" fill-rule="evenodd"/>
  </g>
</svg>
