<svg xmlns="http://www.w3.org/2000/svg" width="200.365" height="200.365" viewBox="0 0 200.365 200.365">
  <g id="Grupo_135029" data-name="Grupo 135029" transform="translate(3794.398 10854.11)">
    <circle id="Elipse_4819" data-name="Elipse 4819" cx="100.182" cy="100.182" r="100.182" transform="translate(-3794.398 -10854.11)" fill="#b9ddfc"/>
    <path id="Trazado_197348" data-name="Trazado 197348" d="M131.114,1151.258a57.831,57.831,0,0,0,5.081,12.026l-6.072,7.812a6.254,6.254,0,0,0,.5,8.3l10.54,10.544a6.283,6.283,0,0,0,8.432.5l7.559-6.074a59.077,59.077,0,0,0,12.525,5.328l1.241,9.8a6.3,6.3,0,0,0,6.2,5.7h15a6.4,6.4,0,0,0,6.2-5.7l1.112-9.423a57.613,57.613,0,0,0,13.394-5.453l7.43,5.827a6.428,6.428,0,0,0,8.434-.374l10.542-10.667a6.259,6.259,0,0,0,.495-8.3l-5.825-7.315a56.61,56.61,0,0,0,5.577-13.267l8.8-.99a6.42,6.42,0,0,0,5.706-6.324v-14.88a6.3,6.3,0,0,0-5.706-6.2l-8.677-1.115a59.782,59.782,0,0,0-5.33-13.02l5.33-6.817a6.287,6.287,0,0,0-.368-8.432L228.688,1082.2a6.291,6.291,0,0,0-8.434-.375l-6.569,5.214a55.784,55.784,0,0,0-13.76-5.708l-.992-8.679a6.415,6.415,0,0,0-6.322-5.578h-14.88a6.42,6.42,0,0,0-6.322,5.578l-.994,8.679a49.811,49.811,0,0,0-14.007,5.956l-6.816-5.461a6.276,6.276,0,0,0-8.432.375l-10.54,10.539a6.29,6.29,0,0,0-.5,8.432l5.7,7.313a60.667,60.667,0,0,0-5.205,13.142l-9.178,1.116a6.2,6.2,0,0,0-5.578,6.2v14.876a6.319,6.319,0,0,0,5.578,6.324Zm53.81-66.331a51.205,51.205,0,1,1-51.2,51.205,51.219,51.219,0,0,1,51.2-51.205Zm0,10.045a41.162,41.162,0,1,1-41.159,41.161,41.221,41.221,0,0,1,41.159-41.161Zm-12.643,38.805v.125a7.006,7.006,0,1,1-11.781-5.083,10.838,10.838,0,1,1,20.086-5.582,10.669,10.669,0,0,1-8.3,10.54Zm12.643-17.233a19.589,19.589,0,1,1-19.092,24.3,7.018,7.018,0,0,0,6.448-6.943v-.125a10.669,10.669,0,0,0,8.3-10.54,11.667,11.667,0,0,0-1.617-5.825,18.662,18.662,0,0,1,5.956-.869Zm0,14.753a4.842,4.842,0,0,1,4.835,4.835,4.922,4.922,0,0,1-4.835,4.835,4.844,4.844,0,0,1-4.837-4.835,4.769,4.769,0,0,1,4.837-4.835Zm-19.716-.619a3.13,3.13,0,0,1,3.23,3.224,3.2,3.2,0,0,1-3.23,3.222,3.28,3.28,0,0,1-3.222-3.222,3.2,3.2,0,0,1,3.222-3.224Zm4.586-14.506a7.146,7.146,0,0,1,7.072,7.066,7.068,7.068,0,0,1-7.072,7.068,6.987,6.987,0,0,1-7.064-7.068,7.062,7.062,0,0,1,7.064-7.066Z" transform="translate(-3883.083 -11890.891)" fill="#084a93" fill-rule="evenodd"/>
  </g>
</svg>
