<svg xmlns="http://www.w3.org/2000/svg" width="200.365" height="200.365" viewBox="0 0 200.365 200.365">
  <g id="Grupo_135030" data-name="Grupo 135030" transform="translate(3794.398 10489.71)">
    <circle id="Elipse_4820" data-name="Elipse 4820" cx="100.182" cy="100.182" r="100.182" transform="translate(-3794.398 -10489.71)" fill="#b9ddfc"/>
    <path id="Trazado_197346" data-name="Trazado 197346" d="M241.842,1202.151v75.507H213.2v-.125l-2.112.125-2.476-.125v.125H151.954v-.125l-2.108.125-2.482-.125v.125H118.722v-75.507Zm-123.12,85.8v-6.326c0-.123,0-.123.127-.123h.615v3.224h.752V1281.5h1.734v1.611h.615V1281.5H124.3v3.224h.624V1281.5h1.738v1.611h.617V1281.5l1.738-.127v3.351h.744v-3.351h1.734v1.615h.617v-1.615h1.742v3.351h.617v-3.351h1.736v1.615h.617v-1.615h1.738v3.226h.746v-3.226h1.607l.127,1.615h.619v-1.615H143.4v3.226h.619v-3.226h1.734v1.615h.619v-1.615h1.738v3.226h.744v-3.226h1.609v3.226h.746v-3.226h1.738v1.615h.617v-1.615H155.3v3.226h.619v-3.226h1.738v1.615h.62v-1.615h1.734v3.226h.744v-3.226h1.613v1.615h.746v-1.615h1.734v3.351h.613v-3.351H167.2v1.615h.615v-1.615h1.734v3.351h.624l.129-3.351,1.6.127v1.611h.744V1281.5h1.734v3.224h.622V1281.5h1.738v1.611h.624V1281.5h1.36v3.224h.622V1281.5h1.368v3.224h.744V1281.5h1.732v1.611h.615V1281.5h1.744v3.224h.613V1281.5H187.9v1.611h.626V1281.5l1.73-.127v3.351H191v-3.351h1.734v1.615h.626v-1.615H195.1v3.351h.622v-3.351h1.734v1.615h.628v-1.615h1.732v3.226h.744v-3.226h1.734v1.615h.624v-1.615h1.736v3.226h.611v-3.226H207v1.615h.624v-1.615h1.732v3.226h.746v-3.226h1.613v3.226h.742v-3.226h1.734v1.615h.624v-1.615h1.736v3.226h.624v-3.226H218.9v1.615h.617v-1.615h1.742v3.226H222v-3.226h1.734v1.615h.615v-1.615H226.1v3.351h.615v-3.351h1.732v1.615h.626v-1.615H230.8v3.351h.742v-3.351l1.736.127-.119,1.611h.742V1281.5h1.734v3.224h.624V1281.5h1.732v1.611h.617V1281.5h1.74v3.224h.617l.127-3.224h.615c.131,0,.131,0,.131.123v6.326Zm.247-12.772h6.2a.421.421,0,0,0,.247-.123v-.744H122.2v-.619h3.222v-1.738h-1.613v-.619h1.613V1269.6H122.2v-.619h3.222v-1.738h-1.613v-.744h1.613v-1.734H122.2v-.617h3.222V1262.4h-1.613v-.617h1.613v-1.736H122.2v-.617h3.222v-1.738h-1.613v-.744h1.613l.127-1.611-3.349-.123v-.62h3.349v-1.738h-1.74l.127-.619h1.613v-1.734H122.2v-.621h3.349v-1.738h-1.613v-.742l1.613.123v-1.734h-3.23v-.742h3.23v-.376h0v-.869h0v-.493l-3.23.123v-.744h3.23v-1.734h-1.613v-.617h1.613V1238.6H122.2v-.622h3.349v-1.732h-1.613l-.127-.746h1.74v-1.613H122.2v-.742h3.349l-.127-1.736h-1.613v-.617h1.613v-1.74H122.2v-.619h3.222V1226.7h-1.613v-.624h1.613v-1.734H122.2v-.744h3.222v-1.734h-1.613v-.624h1.613v-1.733H122.2v-.62h3.222v-1.733h-1.613v-.624h1.613v-1.364H122.2v-.617h3.222v-1.489H122.2v-.619h3.222v-1.738h-1.613v-.619h1.613v-1.734H122.2v-.619h3.222v-1.738h-1.613v-.744h1.613v-1.734H122.2v-.624h3.222v-.742h-6.451Zm-.247-89.637h123.12v12.766H118.722Zm98.449,5.578H222.5v5.33h-5.328Zm6.567,0h5.332v5.33h-5.332Zm6.569,0h5.332v5.33h-5.332Zm-94.967,21.327h27.154v27.274H135.34Zm33.6,15.622h27.149v27.274H168.938Zm33.6,15.741h27.149v27.28H202.536Z" transform="translate(-3880.1 -11627.647)" fill="#084a93" fill-rule="evenodd"/>
  </g>
</svg>
