<svg xmlns="http://www.w3.org/2000/svg" width="1030" height="105.599" viewBox="0 0 1030 105.599">
  <g id="Grupo_135024" data-name="Grupo 135024" transform="translate(-285 -2292)">
    <path id="Trazado_198216" data-name="Trazado 198216" d="M0,0H1028.87V51.952H0Z" transform="translate(285.564 2297.647)" fill="#f6f6f6"/>
    <g id="Trazado_198226" data-name="Trazado 198226" transform="translate(285 2298.213)" fill="none">
      <path d="M0,0H1030V99.386H0Z" stroke="none"/>
      <path d="M 0.9998779296875 0.9999771118164062 L 0.9998779296875 98.38597106933594 L 1028.999755859375 98.38597106933594 L 1028.999755859375 0.9999771118164062 L 0.9998779296875 0.9999771118164062 M -0.0001220703125 -2.288818359375e-05 L 1029.999755859375 -2.288818359375e-05 L 1029.999755859375 99.38597106933594 L -0.0001220703125 99.38597106933594 L -0.0001220703125 -2.288818359375e-05 Z" stroke="none" fill="#afafaf"/>
    </g>
    <path id="Trazado_198227" data-name="Trazado 198227" d="M0,0H1030" transform="translate(285 2350.164)" fill="none" stroke="#afafaf" stroke-width="1"/>
    <path id="Trazado_198228" data-name="Trazado 198228" d="M0,0V99.386" transform="translate(1148.699 2298.213)" fill="none" stroke="#afafaf" stroke-width="1"/>
    <path id="Trazado_198229" data-name="Trazado 198229" d="M0,0V99.386" transform="translate(978.842 2298.213)" fill="none" stroke="#afafaf" stroke-width="1"/>
    <path id="Trazado_198230" data-name="Trazado 198230" d="M0,0V99.386" transform="translate(823.341 2298.213)" fill="none" stroke="#afafaf" stroke-width="1"/>
    <path id="Trazado_198231" data-name="Trazado 198231" d="M0,0V99.386" transform="translate(697.603 2298.213)" fill="none" stroke="#afafaf" stroke-width="1"/>
    <path id="Trazado_198232" data-name="Trazado 198232" d="M0,0V99.386" transform="translate(617.039 2298.213)" fill="none" stroke="#afafaf" stroke-width="1"/>
    <path id="Trazado_198233" data-name="Trazado 198233" d="M0,0V99.386" transform="translate(499.064 2298.213)" fill="none" stroke="#afafaf" stroke-width="1"/>
    <path id="Trazado_198234" data-name="Trazado 198234" d="M0,0V99.386" transform="translate(331.682 2298.213)" fill="none" stroke="#afafaf" stroke-width="1"/>
    <path id="Trazado_198217" data-name="Trazado 198217" d="M3.727,0H1.237V-12.086h2.49ZM5.5-4.557A5.413,5.413,0,0,1,6.446-7.9,3.057,3.057,0,0,1,9.023-9.147a2.751,2.751,0,0,1,2.167.979V-12.75H13.6V0H11.43l-.116-.955A2.823,2.823,0,0,1,9.006.166,3.049,3.049,0,0,1,6.462-1.083,5.587,5.587,0,0,1,5.5-4.557Zm2.4.171a3.565,3.565,0,0,0,.44,1.943,1.432,1.432,0,0,0,1.278.675,1.6,1.6,0,0,0,1.569-.942V-6.271a1.582,1.582,0,0,0-1.552-.942Q7.9-7.213,7.9-4.386Z" transform="translate(301.798 2327.894)" fill="#12263f"/>
    <path id="Trazado_198218" data-name="Trazado 198218" d="M-34.826-4.424H-36.81V0H-39.3V-12.086h4.491a5.076,5.076,0,0,1,3.3.955,3.3,3.3,0,0,1,1.162,2.7,3.718,3.718,0,0,1-.535,2.063A3.651,3.651,0,0,1-32.5-5.055l2.615,4.939V0H-32.56ZM-36.81-6.441H-34.8a2.057,2.057,0,0,0,1.453-.477,1.706,1.706,0,0,0,.515-1.316,1.826,1.826,0,0,0-.486-1.345,2.018,2.018,0,0,0-1.49-.49h-2ZM-24.475.166a4.409,4.409,0,0,1-3.217-1.212,4.308,4.308,0,0,1-1.241-3.229v-.232a5.426,5.426,0,0,1,.523-2.42,3.838,3.838,0,0,1,1.482-1.644,4.159,4.159,0,0,1,2.187-.577,3.727,3.727,0,0,1,2.9,1.162,4.722,4.722,0,0,1,1.058,3.3v.979H-26.5A2.229,2.229,0,0,0-25.8-2.3a2.12,2.12,0,0,0,1.482.531,2.589,2.589,0,0,0,2.167-1l1.179,1.32A3.6,3.6,0,0,1-22.433-.261,4.793,4.793,0,0,1-24.475.166Zm-.274-7.379a1.5,1.5,0,0,0-1.158.484,2.5,2.5,0,0,0-.569,1.384h3.337v-.192a1.786,1.786,0,0,0-.432-1.238A1.547,1.547,0,0,0-24.749-7.213Zm4.956,2.64a5.369,5.369,0,0,1,.942-3.345,3.08,3.08,0,0,1,2.586-1.229,2.758,2.758,0,0,1,2.3,1.1l.158-.938H-11.7V3.453h-2.407V-.772a2.765,2.765,0,0,1-2.175.938,3.057,3.057,0,0,1-2.557-1.245A5.632,5.632,0,0,1-19.793-4.574Zm2.4.17a3.522,3.522,0,0,0,.452,1.962,1.448,1.448,0,0,0,1.274.673,1.613,1.613,0,0,0,1.561-.881V-6.365a1.6,1.6,0,0,0-1.544-.848,1.466,1.466,0,0,0-1.287.673A3.889,3.889,0,0,0-17.394-4.4ZM-4.437-.913A3.008,3.008,0,0,1-6.894.166a2.837,2.837,0,0,1-2.2-.83A3.543,3.543,0,0,1-9.874-3.1V-8.981h2.4v5.809q0,1.4,1.278,1.4A1.732,1.732,0,0,0-4.52-2.616V-8.981h2.407V0H-4.37ZM2.229,0H-.178V-8.981H2.229ZM-.32-11.306a1.181,1.181,0,0,1,.361-.888,1.356,1.356,0,0,1,.984-.349A1.36,1.36,0,0,1,2-12.194a1.175,1.175,0,0,1,.365.888,1.178,1.178,0,0,1-.369.9,1.363,1.363,0,0,1-.975.349,1.363,1.363,0,0,1-.975-.349A1.178,1.178,0,0,1-.32-11.306ZM9.069-2.482a.773.773,0,0,0-.436-.693,4.95,4.95,0,0,0-1.4-.452Q4.03-4.3,4.03-6.35a2.468,2.468,0,0,1,.992-2,4,4,0,0,1,2.594-.8,4.307,4.307,0,0,1,2.735.805A2.538,2.538,0,0,1,11.376-6.25h-2.4A1.161,1.161,0,0,0,8.645-7.1a1.405,1.405,0,0,0-1.038-.336,1.436,1.436,0,0,0-.938.274.865.865,0,0,0-.332.7.739.739,0,0,0,.378.643A3.885,3.885,0,0,0,7.99-5.4,10.407,10.407,0,0,1,9.5-5a2.482,2.482,0,0,1,1.9,2.416A2.343,2.343,0,0,1,10.347-.594a4.548,4.548,0,0,1-2.723.76,4.75,4.75,0,0,1-2-.4,3.363,3.363,0,0,1-1.374-1.1,2.565,2.565,0,0,1-.5-1.515H6.022a1.252,1.252,0,0,0,.473.979,1.877,1.877,0,0,0,1.179.34A1.737,1.737,0,0,0,8.716-1.8.814.814,0,0,0,9.069-2.482ZM15.477,0H13.07V-8.981h2.407ZM12.928-11.306a1.181,1.181,0,0,1,.361-.888,1.356,1.356,0,0,1,.984-.349,1.36,1.36,0,0,1,.979.349,1.175,1.175,0,0,1,.365.888,1.178,1.178,0,0,1-.369.9,1.363,1.363,0,0,1-.975.349,1.363,1.363,0,0,1-.975-.349A1.178,1.178,0,0,1,12.928-11.306Zm7.4.116v2.208H21.86v1.76H20.324v4.482a1.07,1.07,0,0,0,.191.714.959.959,0,0,0,.73.216,3.826,3.826,0,0,0,.706-.058V-.05A4.939,4.939,0,0,1,20.5.166a2.29,2.29,0,0,1-2.573-2.548V-7.222H16.614v-1.76h1.312v-2.208Zm2.25,6.616a5.327,5.327,0,0,1,.515-2.382A3.768,3.768,0,0,1,24.57-8.575a4.323,4.323,0,0,1,2.245-.573,4.09,4.09,0,0,1,2.968,1.112,4.464,4.464,0,0,1,1.282,3.021l.017.614a4.694,4.694,0,0,1-1.154,3.316,4.011,4.011,0,0,1-3.1,1.249,4.031,4.031,0,0,1-3.1-1.245,4.777,4.777,0,0,1-1.158-3.387Zm2.4.17a3.357,3.357,0,0,0,.481,1.958,1.588,1.588,0,0,0,1.378.678,1.592,1.592,0,0,0,1.361-.669,3.674,3.674,0,0,0,.49-2.141,3.324,3.324,0,0,0-.49-1.945,1.592,1.592,0,0,0-1.378-.69,1.566,1.566,0,0,0-1.361.686A3.735,3.735,0,0,0,24.973-4.4ZM37.424-2.482a.773.773,0,0,0-.436-.693,4.95,4.95,0,0,0-1.4-.452q-3.2-.672-3.2-2.723a2.468,2.468,0,0,1,.992-2,4,4,0,0,1,2.594-.8,4.307,4.307,0,0,1,2.735.805A2.538,2.538,0,0,1,39.732-6.25h-2.4A1.161,1.161,0,0,0,37-7.1a1.405,1.405,0,0,0-1.038-.336,1.436,1.436,0,0,0-.938.274.865.865,0,0,0-.332.7.739.739,0,0,0,.378.643,3.885,3.885,0,0,0,1.274.423,10.407,10.407,0,0,1,1.511.4,2.482,2.482,0,0,1,1.9,2.416A2.343,2.343,0,0,1,38.7-.594a4.548,4.548,0,0,1-2.723.76,4.75,4.75,0,0,1-2-.4,3.363,3.363,0,0,1-1.374-1.1,2.565,2.565,0,0,1-.5-1.515h2.274a1.252,1.252,0,0,0,.473.979,1.877,1.877,0,0,0,1.179.34A1.737,1.737,0,0,0,37.071-1.8.814.814,0,0,0,37.424-2.482Z" transform="translate(420 2327.894)" fill="#12263f"/>
    <path id="Trazado_198219" data-name="Trazado 198219" d="M-31.564-4.258V0h-2.49V-12.086h4.715a5.455,5.455,0,0,1,2.395.5,3.67,3.67,0,0,1,1.59,1.415A3.946,3.946,0,0,1-24.8-8.085a3.47,3.47,0,0,1-1.216,2.8,5.065,5.065,0,0,1-3.366,1.025Zm0-2.017h2.225a2.187,2.187,0,0,0,1.507-.465,1.691,1.691,0,0,0,.519-1.328A1.994,1.994,0,0,0-27.837-9.5a1.953,1.953,0,0,0-1.444-.564h-2.283ZM-18.2-6.732a6.517,6.517,0,0,0-.863-.066,1.757,1.757,0,0,0-1.785.921V0h-2.4V-8.981h2.266l.066,1.071a2.223,2.223,0,0,1,2-1.237,2.514,2.514,0,0,1,.747.108ZM-14.514,0h-2.407V-8.981h2.407Zm-2.548-11.306a1.181,1.181,0,0,1,.361-.888,1.356,1.356,0,0,1,.984-.349,1.36,1.36,0,0,1,.979.349,1.175,1.175,0,0,1,.365.888,1.178,1.178,0,0,1-.369.9,1.363,1.363,0,0,1-.975.349,1.363,1.363,0,0,1-.975-.349A1.178,1.178,0,0,1-17.062-11.306Zm4.15,6.732A5.327,5.327,0,0,1-12.4-6.956a3.768,3.768,0,0,1,1.482-1.619A4.323,4.323,0,0,1-8.67-9.147,4.09,4.09,0,0,1-5.7-8.035,4.464,4.464,0,0,1-4.42-5.014L-4.4-4.4A4.694,4.694,0,0,1-5.557-1.083,4.011,4.011,0,0,1-8.654.166a4.031,4.031,0,0,1-3.1-1.245,4.777,4.777,0,0,1-1.158-3.387Zm2.4.17a3.357,3.357,0,0,0,.481,1.958,1.588,1.588,0,0,0,1.378.678,1.592,1.592,0,0,0,1.361-.669A3.674,3.674,0,0,0-6.8-4.578a3.324,3.324,0,0,0-.49-1.945,1.592,1.592,0,0,0-1.378-.69,1.566,1.566,0,0,0-1.361.686A3.735,3.735,0,0,0-10.513-4.4ZM2.121-6.732A6.517,6.517,0,0,0,1.258-6.8a1.757,1.757,0,0,0-1.785.921V0h-2.4V-8.981H-.66l.066,1.071a2.223,2.223,0,0,1,2-1.237,2.514,2.514,0,0,1,.747.108ZM5.806,0H3.4V-8.981H5.806ZM3.258-11.306a1.181,1.181,0,0,1,.361-.888,1.356,1.356,0,0,1,.984-.349,1.36,1.36,0,0,1,.979.349,1.175,1.175,0,0,1,.365.888,1.178,1.178,0,0,1-.369.9,1.363,1.363,0,0,1-.975.349,1.363,1.363,0,0,1-.975-.349A1.178,1.178,0,0,1,3.258-11.306Zm4.15,6.749A5.413,5.413,0,0,1,8.351-7.9a3.057,3.057,0,0,1,2.577-1.245,2.751,2.751,0,0,1,2.167.979V-12.75H15.5V0H13.335l-.116-.955A2.823,2.823,0,0,1,10.911.166,3.049,3.049,0,0,1,8.367-1.083,5.587,5.587,0,0,1,7.408-4.557Zm2.4.171a3.565,3.565,0,0,0,.44,1.943,1.432,1.432,0,0,0,1.278.675,1.6,1.6,0,0,0,1.569-.942V-6.271a1.582,1.582,0,0,0-1.552-.942Q9.807-7.213,9.807-4.386ZM22.566,0a2.664,2.664,0,0,1-.241-.805,2.9,2.9,0,0,1-2.266.971A3.189,3.189,0,0,1,17.872-.6,2.456,2.456,0,0,1,17-2.523a2.538,2.538,0,0,1,1.058-2.191,5.222,5.222,0,0,1,3.059-.772h1.1V-6a1.48,1.48,0,0,0-.32-1A1.257,1.257,0,0,0,20.9-7.371a1.429,1.429,0,0,0-.95.291.987.987,0,0,0-.344.8H17.2a2.41,2.41,0,0,1,.481-1.444A3.182,3.182,0,0,1,19.046-8.77a4.961,4.961,0,0,1,1.976-.378,3.92,3.92,0,0,1,2.635.834,2.918,2.918,0,0,1,.975,2.345v3.893A4.294,4.294,0,0,0,24.99-.141V0ZM20.582-1.668a2.066,2.066,0,0,0,.979-.237,1.554,1.554,0,0,0,.664-.635V-4.084h-.9q-1.8,0-1.917,1.245L19.4-2.7a.96.96,0,0,0,.315.739A1.225,1.225,0,0,0,20.582-1.668ZM26.1-4.557A5.413,5.413,0,0,1,27.044-7.9a3.057,3.057,0,0,1,2.577-1.245,2.751,2.751,0,0,1,2.167.979V-12.75H34.2V0H32.029l-.116-.955A2.823,2.823,0,0,1,29.6.166a3.049,3.049,0,0,1-2.544-1.249A5.587,5.587,0,0,1,26.1-4.557Zm2.4.171a3.565,3.565,0,0,0,.44,1.943,1.432,1.432,0,0,0,1.278.675,1.6,1.6,0,0,0,1.569-.942V-6.271a1.582,1.582,0,0,0-1.552-.942Q28.5-7.213,28.5-4.386Z" transform="translate(560 2327.894)" fill="#12263f"/>
    <path id="Trazado_198220" data-name="Trazado 198220" d="M-17.826-5.254h-4.781V-2H-17V0h-8.1V-12.086h8.085v2.017h-5.595v2.88h4.781Zm7,2.772a.773.773,0,0,0-.436-.693,4.95,4.95,0,0,0-1.4-.452q-3.2-.672-3.2-2.723a2.468,2.468,0,0,1,.992-2,4,4,0,0,1,2.594-.8,4.307,4.307,0,0,1,2.735.805A2.538,2.538,0,0,1-8.521-6.25h-2.4a1.161,1.161,0,0,0-.332-.851,1.405,1.405,0,0,0-1.038-.336,1.436,1.436,0,0,0-.938.274.865.865,0,0,0-.332.7.739.739,0,0,0,.378.643,3.885,3.885,0,0,0,1.274.423A10.407,10.407,0,0,1-10.4-5,2.482,2.482,0,0,1-8.5-2.582,2.343,2.343,0,0,1-9.55-.594a4.548,4.548,0,0,1-2.723.76,4.75,4.75,0,0,1-2-.4,3.363,3.363,0,0,1-1.374-1.1,2.565,2.565,0,0,1-.5-1.515h2.274a1.252,1.252,0,0,0,.473.979,1.877,1.877,0,0,0,1.179.34A1.737,1.737,0,0,0-11.181-1.8.814.814,0,0,0-10.828-2.482Zm6.749-8.708v2.208h1.536v1.76H-4.08v4.482a1.07,1.07,0,0,0,.191.714.959.959,0,0,0,.73.216,3.826,3.826,0,0,0,.706-.058V-.05A4.939,4.939,0,0,1-3.906.166,2.29,2.29,0,0,1-6.479-2.382V-7.222H-7.79v-1.76h1.312v-2.208ZM4,0a2.664,2.664,0,0,1-.241-.805A2.9,2.9,0,0,1,1.49.166,3.189,3.189,0,0,1-.7-.6a2.456,2.456,0,0,1-.867-1.926A2.538,2.538,0,0,1-.506-4.715a5.222,5.222,0,0,1,3.059-.772h1.1V-6a1.48,1.48,0,0,0-.32-1,1.257,1.257,0,0,0-1.009-.374,1.429,1.429,0,0,0-.95.291.987.987,0,0,0-.344.8h-2.4A2.41,2.41,0,0,1-.884-7.728,3.182,3.182,0,0,1,.477-8.77a4.961,4.961,0,0,1,1.976-.378,3.92,3.92,0,0,1,2.635.834,2.918,2.918,0,0,1,.975,2.345v3.893A4.294,4.294,0,0,0,6.421-.141V0ZM2.013-1.668a2.066,2.066,0,0,0,.979-.237,1.554,1.554,0,0,0,.664-.635V-4.084h-.9q-1.8,0-1.917,1.245L.834-2.7a.96.96,0,0,0,.315.739A1.225,1.225,0,0,0,2.013-1.668Zm5.52-2.889A5.413,5.413,0,0,1,8.475-7.9a3.057,3.057,0,0,1,2.577-1.245,2.751,2.751,0,0,1,2.167.979V-12.75h2.407V0H13.46l-.116-.955A2.823,2.823,0,0,1,11.036.166,3.049,3.049,0,0,1,8.492-1.083,5.587,5.587,0,0,1,7.533-4.557Zm2.4.171a3.565,3.565,0,0,0,.44,1.943,1.432,1.432,0,0,0,1.278.675,1.6,1.6,0,0,0,1.569-.942V-6.271a1.582,1.582,0,0,0-1.552-.942Q9.932-7.213,9.932-4.386Zm7.18-.187a5.327,5.327,0,0,1,.515-2.382,3.768,3.768,0,0,1,1.482-1.619,4.323,4.323,0,0,1,2.245-.573,4.09,4.09,0,0,1,2.968,1.112A4.464,4.464,0,0,1,25.6-5.014l.017.614a4.694,4.694,0,0,1-1.154,3.316A4.011,4.011,0,0,1,21.37.166a4.031,4.031,0,0,1-3.1-1.245,4.777,4.777,0,0,1-1.158-3.387Zm2.4.17a3.357,3.357,0,0,0,.481,1.958,1.588,1.588,0,0,0,1.378.678,1.592,1.592,0,0,0,1.361-.669,3.674,3.674,0,0,0,.49-2.141,3.324,3.324,0,0,0-.49-1.945,1.592,1.592,0,0,0-1.378-.69,1.566,1.566,0,0,0-1.361.686A3.735,3.735,0,0,0,19.511-4.4Z" transform="translate(657 2327.894)" fill="#12263f"/>
    <path id="Trazado_198221" data-name="Trazado 198221" d="M-20.615-5.769a7.3,7.3,0,0,1-.631,3.129A4.751,4.751,0,0,1-23.051-.564a4.994,4.994,0,0,1-2.694.73,5.028,5.028,0,0,1-2.681-.722,4.8,4.8,0,0,1-1.826-2.063A7.087,7.087,0,0,1-30.908-5.7v-.6a7.258,7.258,0,0,1,.643-3.142,4.79,4.79,0,0,1,1.818-2.083,5,5,0,0,1,2.685-.726,5,5,0,0,1,2.685.726,4.79,4.79,0,0,1,1.818,2.083,7.237,7.237,0,0,1,.643,3.134Zm-2.523-.548a5.086,5.086,0,0,0-.681-2.889,2.218,2.218,0,0,0-1.942-.988,2.219,2.219,0,0,0-1.934.975,5.028,5.028,0,0,0-.689,2.86v.589A5.15,5.15,0,0,0-27.7-2.9a2.212,2.212,0,0,0,1.959,1.021,2.192,2.192,0,0,0,1.926-.984,5.12,5.12,0,0,0,.681-2.868ZM-10.87-4.408a5.439,5.439,0,0,1-.921,3.366A3.052,3.052,0,0,1-14.365.166,2.8,2.8,0,0,1-16.7-.955L-16.8,0h-2.158V-12.75h2.4v4.574a2.732,2.732,0,0,1,2.183-.971A3.077,3.077,0,0,1-11.8-7.94a5.446,5.446,0,0,1,.934,3.4Zm-2.4-.183A3.593,3.593,0,0,0-13.7-6.585a1.458,1.458,0,0,0-1.287-.629,1.582,1.582,0,0,0-1.577.941v3.555a1.6,1.6,0,0,0,1.594.949,1.482,1.482,0,0,0,1.527-1.149A5.944,5.944,0,0,0-13.269-4.591Zm6.417-4.391V.49A3.213,3.213,0,0,1-7.641,2.8a3,3,0,0,1-2.274.826A4.878,4.878,0,0,1-11.1,3.486v-1.9a4.5,4.5,0,0,0,.755.075Q-9.26,1.66-9.26.506V-8.981Zm-2.6-2.324a1.181,1.181,0,0,1,.361-.888,1.356,1.356,0,0,1,.984-.349,1.356,1.356,0,0,1,.984.349,1.181,1.181,0,0,1,.361.888,1.178,1.178,0,0,1-.369.9,1.363,1.363,0,0,1-.975.349,1.363,1.363,0,0,1-.975-.349A1.178,1.178,0,0,1-9.45-11.306ZM-.843.166A4.409,4.409,0,0,1-4.059-1.046,4.308,4.308,0,0,1-5.3-4.275v-.232a5.426,5.426,0,0,1,.523-2.42A3.838,3.838,0,0,1-3.3-8.571a4.159,4.159,0,0,1,2.187-.577,3.727,3.727,0,0,1,2.9,1.162,4.722,4.722,0,0,1,1.058,3.3v.979H-2.868a2.229,2.229,0,0,0,.7,1.411,2.12,2.12,0,0,0,1.482.531,2.589,2.589,0,0,0,2.167-1L2.66-1.453A3.6,3.6,0,0,1,1.2-.261,4.793,4.793,0,0,1-.843.166Zm-.274-7.379a1.5,1.5,0,0,0-1.158.484,2.5,2.5,0,0,0-.569,1.384H.494v-.192A1.786,1.786,0,0,0,.062-6.776,1.547,1.547,0,0,0-1.116-7.213Zm8.2-3.976v2.208H8.62v1.76H7.085v4.482a1.07,1.07,0,0,0,.191.714.959.959,0,0,0,.73.216,3.826,3.826,0,0,0,.706-.058V-.05A4.939,4.939,0,0,1,7.259.166,2.29,2.29,0,0,1,4.686-2.382V-7.222H3.374v-1.76H4.686v-2.208ZM12.489,0H10.081V-8.981h2.407ZM9.94-11.306a1.181,1.181,0,0,1,.361-.888,1.356,1.356,0,0,1,.984-.349,1.36,1.36,0,0,1,.979.349,1.175,1.175,0,0,1,.365.888,1.178,1.178,0,0,1-.369.9,1.363,1.363,0,0,1-.975.349,1.363,1.363,0,0,1-.975-.349A1.178,1.178,0,0,1,9.94-11.306ZM17.826-2.93l1.668-6.051H22L18.971,0H16.68l-3.03-8.981h2.507Zm4.731-1.644a5.327,5.327,0,0,1,.515-2.382,3.768,3.768,0,0,1,1.482-1.619A4.323,4.323,0,0,1,26.8-9.147a4.09,4.09,0,0,1,2.968,1.112,4.464,4.464,0,0,1,1.282,3.021l.017.614a4.694,4.694,0,0,1-1.154,3.316,4.011,4.011,0,0,1-3.1,1.249,4.031,4.031,0,0,1-3.1-1.245,4.777,4.777,0,0,1-1.158-3.387Zm2.4.17a3.357,3.357,0,0,0,.481,1.958,1.588,1.588,0,0,0,1.378.678,1.592,1.592,0,0,0,1.361-.669,3.674,3.674,0,0,0,.49-2.141,3.324,3.324,0,0,0-.49-1.945,1.592,1.592,0,0,0-1.378-.69,1.566,1.566,0,0,0-1.361.686A3.735,3.735,0,0,0,24.956-4.4Z" transform="translate(757.317 2327.894)" fill="#12263f"/>
    <path id="Trazado_198222" data-name="Trazado 198222" d="M-60.131-4.939h-4.781V0H-67.4V-12.086h7.869v2.017h-5.379v3.121h4.781ZM-53.05-.913A3.008,3.008,0,0,1-55.507.166a2.837,2.837,0,0,1-2.2-.83A3.543,3.543,0,0,1-58.487-3.1V-8.981h2.4v5.809q0,1.4,1.278,1.4a1.732,1.732,0,0,0,1.677-.848V-8.981h2.407V0h-2.258Zm6.342-8.068.075,1.038a3.136,3.136,0,0,1,2.582-1.2,2.606,2.606,0,0,1,2.125.838A3.912,3.912,0,0,1-41.213-5.8V0h-2.4V-5.757a1.562,1.562,0,0,0-.332-1.111,1.484,1.484,0,0,0-1.1-.345,1.65,1.65,0,0,0-1.519.865V0h-2.4V-8.981ZM-35.66-1.768a1.573,1.573,0,0,0,1.079-.365,1.28,1.28,0,0,0,.432-.971h2.25a3.077,3.077,0,0,1-.5,1.673A3.286,3.286,0,0,1-33.739-.253a4.2,4.2,0,0,1-1.88.419,3.9,3.9,0,0,1-3.038-1.224,4.845,4.845,0,0,1-1.112-3.383V-4.6a4.79,4.79,0,0,1,1.1-3.312,3.854,3.854,0,0,1,3.03-1.237,3.778,3.778,0,0,1,2.7.959A3.4,3.4,0,0,1-31.9-5.636h-2.25a1.648,1.648,0,0,0-.432-1.139,1.439,1.439,0,0,0-1.1-.438,1.445,1.445,0,0,0-1.266.611A3.541,3.541,0,0,0-37.37-4.62v.249a3.586,3.586,0,0,0,.423,2A1.463,1.463,0,0,0-35.66-1.768ZM-28,0h-2.407V-8.981H-28Zm-2.548-11.306a1.181,1.181,0,0,1,.361-.888,1.356,1.356,0,0,1,.984-.349,1.36,1.36,0,0,1,.979.349,1.175,1.175,0,0,1,.365.888,1.178,1.178,0,0,1-.369.9,1.363,1.363,0,0,1-.975.349,1.363,1.363,0,0,1-.975-.349A1.178,1.178,0,0,1-30.547-11.306Zm4.15,6.732a5.327,5.327,0,0,1,.515-2.382A3.768,3.768,0,0,1-24.4-8.575a4.323,4.323,0,0,1,2.245-.573,4.09,4.09,0,0,1,2.968,1.112A4.464,4.464,0,0,1-17.9-5.014l.017.614a4.694,4.694,0,0,1-1.154,3.316,4.011,4.011,0,0,1-3.1,1.249,4.031,4.031,0,0,1-3.1-1.245A4.777,4.777,0,0,1-26.4-4.466Zm2.4.17a3.357,3.357,0,0,0,.481,1.958,1.588,1.588,0,0,0,1.378.678,1.592,1.592,0,0,0,1.361-.669,3.674,3.674,0,0,0,.49-2.141,3.324,3.324,0,0,0-.49-1.945,1.592,1.592,0,0,0-1.378-.69,1.566,1.566,0,0,0-1.361.686A3.735,3.735,0,0,0-24-4.4ZM-14.2-8.981l.075,1.038a3.136,3.136,0,0,1,2.582-1.2,2.606,2.606,0,0,1,2.125.838A3.912,3.912,0,0,1-8.708-5.8V0h-2.4V-5.757a1.562,1.562,0,0,0-.332-1.111,1.484,1.484,0,0,0-1.1-.345,1.65,1.65,0,0,0-1.519.865V0h-2.4V-8.981ZM-1.685,0a2.664,2.664,0,0,1-.241-.805A2.9,2.9,0,0,1-4.192.166,3.189,3.189,0,0,1-6.379-.6a2.456,2.456,0,0,1-.867-1.926A2.538,2.538,0,0,1-6.188-4.715a5.222,5.222,0,0,1,3.059-.772h1.1V-6a1.48,1.48,0,0,0-.32-1,1.257,1.257,0,0,0-1.009-.374,1.429,1.429,0,0,0-.95.291.987.987,0,0,0-.344.8h-2.4a2.41,2.41,0,0,1,.481-1.444A3.182,3.182,0,0,1-5.2-8.77a4.961,4.961,0,0,1,1.976-.378,3.92,3.92,0,0,1,2.635.834A2.918,2.918,0,0,1,.382-5.968v3.893A4.294,4.294,0,0,0,.739-.141V0ZM-3.669-1.668a2.066,2.066,0,0,0,.979-.237,1.554,1.554,0,0,0,.664-.635V-4.084h-.9q-1.8,0-1.917,1.245l-.008.141a.96.96,0,0,0,.315.739A1.225,1.225,0,0,0-3.669-1.668ZM4.756,0H2.349V-12.75H4.756ZM9.264,0H6.856V-8.981H9.264ZM6.715-11.306a1.181,1.181,0,0,1,.361-.888,1.356,1.356,0,0,1,.984-.349,1.36,1.36,0,0,1,.979.349,1.175,1.175,0,0,1,.365.888,1.178,1.178,0,0,1-.369.9,1.363,1.363,0,0,1-.975.349,1.363,1.363,0,0,1-.975-.349A1.178,1.178,0,0,1,6.715-11.306Zm4.15,6.749A5.413,5.413,0,0,1,11.808-7.9a3.057,3.057,0,0,1,2.577-1.245,2.751,2.751,0,0,1,2.167.979V-12.75h2.407V0H16.792l-.116-.955A2.823,2.823,0,0,1,14.369.166a3.049,3.049,0,0,1-2.544-1.249A5.587,5.587,0,0,1,10.866-4.557Zm2.4.171a3.565,3.565,0,0,0,.44,1.943,1.432,1.432,0,0,0,1.278.675,1.6,1.6,0,0,0,1.569-.942V-6.271A1.582,1.582,0,0,0,15-7.213Q13.265-7.213,13.265-4.386ZM26.023,0a2.664,2.664,0,0,1-.241-.805,2.9,2.9,0,0,1-2.266.971A3.189,3.189,0,0,1,21.329-.6a2.456,2.456,0,0,1-.867-1.926A2.538,2.538,0,0,1,21.52-4.715a5.222,5.222,0,0,1,3.059-.772h1.1V-6a1.48,1.48,0,0,0-.32-1,1.257,1.257,0,0,0-1.009-.374,1.429,1.429,0,0,0-.95.291.987.987,0,0,0-.344.8h-2.4a2.41,2.41,0,0,1,.481-1.444A3.182,3.182,0,0,1,22.5-8.77a4.961,4.961,0,0,1,1.976-.378,3.92,3.92,0,0,1,2.635.834,2.918,2.918,0,0,1,.975,2.345v3.893a4.294,4.294,0,0,0,.357,1.934V0ZM24.039-1.668a2.066,2.066,0,0,0,.979-.237,1.554,1.554,0,0,0,.664-.635V-4.084h-.9q-1.8,0-1.917,1.245L22.86-2.7a.96.96,0,0,0,.315.739A1.225,1.225,0,0,0,24.039-1.668Zm5.52-2.889A5.413,5.413,0,0,1,30.5-7.9a3.057,3.057,0,0,1,2.577-1.245,2.751,2.751,0,0,1,2.167.979V-12.75h2.407V0H35.486L35.37-.955A2.823,2.823,0,0,1,33.062.166a3.049,3.049,0,0,1-2.544-1.249A5.587,5.587,0,0,1,29.559-4.557Zm2.4.171a3.565,3.565,0,0,0,.44,1.943,1.432,1.432,0,0,0,1.278.675,1.6,1.6,0,0,0,1.569-.942V-6.271a1.582,1.582,0,0,0-1.552-.942Q31.958-7.213,31.958-4.386Zm7.662-.528a12.739,12.739,0,0,1,.506-3.619,9.551,9.551,0,0,1,1.494-3.042,5.579,5.579,0,0,1,2.142-1.839l.465,1.295a5.778,5.778,0,0,0-1.893,2.772,12.837,12.837,0,0,0-.681,4.383v.257a13.082,13.082,0,0,0,.672,4.4,5.89,5.89,0,0,0,1.9,2.814l-.465,1.27a5.581,5.581,0,0,1-2.1-1.789,9.391,9.391,0,0,1-1.49-2.959,12.663,12.663,0,0,1-.548-3.5ZM49.614.166A4.409,4.409,0,0,1,46.4-1.046a4.308,4.308,0,0,1-1.241-3.229v-.232a5.426,5.426,0,0,1,.523-2.42,3.838,3.838,0,0,1,1.482-1.644,4.159,4.159,0,0,1,2.187-.577,3.727,3.727,0,0,1,2.9,1.162,4.722,4.722,0,0,1,1.058,3.3v.979H47.588a2.229,2.229,0,0,0,.7,1.411,2.12,2.12,0,0,0,1.482.531,2.589,2.589,0,0,0,2.167-1l1.179,1.32A3.6,3.6,0,0,1,51.656-.261,4.793,4.793,0,0,1,49.614.166ZM49.34-7.213a1.5,1.5,0,0,0-1.158.484,2.5,2.5,0,0,0-.569,1.384H50.95v-.192a1.786,1.786,0,0,0-.432-1.238A1.547,1.547,0,0,0,49.34-7.213ZM59.533-2.482a.773.773,0,0,0-.436-.693,4.95,4.95,0,0,0-1.4-.452q-3.2-.672-3.2-2.723a2.468,2.468,0,0,1,.992-2,4,4,0,0,1,2.594-.8,4.307,4.307,0,0,1,2.735.805A2.538,2.538,0,0,1,61.841-6.25h-2.4A1.161,1.161,0,0,0,59.11-7.1a1.405,1.405,0,0,0-1.038-.336,1.436,1.436,0,0,0-.938.274.865.865,0,0,0-.332.7.739.739,0,0,0,.378.643,3.885,3.885,0,0,0,1.274.423,10.407,10.407,0,0,1,1.511.4,2.482,2.482,0,0,1,1.9,2.416A2.343,2.343,0,0,1,60.812-.594a4.548,4.548,0,0,1-2.723.76,4.75,4.75,0,0,1-2-.4,3.363,3.363,0,0,1-1.374-1.1,2.565,2.565,0,0,1-.5-1.515h2.274a1.252,1.252,0,0,0,.473.979,1.877,1.877,0,0,0,1.179.34A1.737,1.737,0,0,0,59.18-1.8.814.814,0,0,0,59.533-2.482Zm8.01-2.241A12.088,12.088,0,0,1,67-1.112a9.8,9.8,0,0,1-1.552,3.063,5.593,5.593,0,0,1-2.167,1.826l-.465-1.27A5.837,5.837,0,0,0,64.68-.232a12.685,12.685,0,0,0,.706-4.258v-.44a12.971,12.971,0,0,0-.677-4.375,6.085,6.085,0,0,0-1.888-2.839l.465-1.27a5.594,5.594,0,0,1,2.129,1.776,9.675,9.675,0,0,1,1.552,3A12,12,0,0,1,67.543-5.1Z" transform="translate(901.68 2327.894)" fill="#12263f"/>
    <path id="Trazado_198223" data-name="Trazado 198223" d="M-31.58-5.254h-4.781V-2h5.611V0h-8.1V-12.086h8.085v2.017h-5.595v2.88h4.781Zm7,2.772a.773.773,0,0,0-.436-.693,4.95,4.95,0,0,0-1.4-.452q-3.2-.672-3.2-2.723a2.468,2.468,0,0,1,.992-2,4,4,0,0,1,2.594-.8,4.307,4.307,0,0,1,2.735.805A2.538,2.538,0,0,1-22.275-6.25h-2.4a1.161,1.161,0,0,0-.332-.851,1.405,1.405,0,0,0-1.038-.336,1.436,1.436,0,0,0-.938.274.865.865,0,0,0-.332.7.739.739,0,0,0,.378.643,3.885,3.885,0,0,0,1.274.423,10.407,10.407,0,0,1,1.511.4,2.482,2.482,0,0,1,1.9,2.416A2.343,2.343,0,0,1-23.3-.594a4.548,4.548,0,0,1-2.723.76,4.75,4.75,0,0,1-2-.4,3.363,3.363,0,0,1-1.374-1.1,2.565,2.565,0,0,1-.5-1.515h2.274a1.252,1.252,0,0,0,.473.979,1.877,1.877,0,0,0,1.179.34A1.737,1.737,0,0,0-24.936-1.8.814.814,0,0,0-24.583-2.482Zm6.749-8.708v2.208H-16.3v1.76h-1.536v4.482a1.07,1.07,0,0,0,.191.714.959.959,0,0,0,.73.216,3.826,3.826,0,0,0,.706-.058V-.05A4.939,4.939,0,0,1-17.66.166a2.29,2.29,0,0,1-2.573-2.548V-7.222h-1.312v-1.76h1.312v-2.208ZM-9.758,0A2.664,2.664,0,0,1-10-.805a2.9,2.9,0,0,1-2.266.971A3.189,3.189,0,0,1-14.452-.6a2.456,2.456,0,0,1-.867-1.926,2.538,2.538,0,0,1,1.058-2.191A5.222,5.222,0,0,1-11.2-5.487h1.1V-6a1.48,1.48,0,0,0-.32-1,1.257,1.257,0,0,0-1.009-.374,1.429,1.429,0,0,0-.95.291.987.987,0,0,0-.344.8h-2.4a2.41,2.41,0,0,1,.481-1.444A3.182,3.182,0,0,1-13.277-8.77,4.961,4.961,0,0,1-11.3-9.147a3.92,3.92,0,0,1,2.635.834,2.918,2.918,0,0,1,.975,2.345v3.893A4.294,4.294,0,0,0-7.334-.141V0Zm-1.984-1.668a2.066,2.066,0,0,0,.979-.237A1.554,1.554,0,0,0-10.1-2.54V-4.084h-.9q-1.8,0-1.917,1.245l-.008.141a.96.96,0,0,0,.315.739A1.225,1.225,0,0,0-11.741-1.668Zm5.52-2.889A5.413,5.413,0,0,1-5.279-7.9,3.057,3.057,0,0,1-2.7-9.147a2.751,2.751,0,0,1,2.167.979V-12.75H1.872V0H-.295L-.411-.955A2.823,2.823,0,0,1-2.719.166,3.049,3.049,0,0,1-5.263-1.083,5.587,5.587,0,0,1-6.221-4.557Zm2.4.171a3.565,3.565,0,0,0,.44,1.943A1.432,1.432,0,0,0-2.1-1.768,1.6,1.6,0,0,0-.535-2.71V-6.271a1.582,1.582,0,0,0-1.552-.942Q-3.823-7.213-3.823-4.386Zm7.18-.187a5.327,5.327,0,0,1,.515-2.382A3.768,3.768,0,0,1,5.354-8.575,4.323,4.323,0,0,1,7.6-9.147a4.09,4.09,0,0,1,2.968,1.112,4.464,4.464,0,0,1,1.282,3.021l.017.614a4.694,4.694,0,0,1-1.154,3.316A4.011,4.011,0,0,1,7.616.166a4.031,4.031,0,0,1-3.1-1.245A4.777,4.777,0,0,1,3.358-4.466Zm2.4.17a3.357,3.357,0,0,0,.481,1.958,1.588,1.588,0,0,0,1.378.678,1.592,1.592,0,0,0,1.361-.669,3.674,3.674,0,0,0,.49-2.141,3.324,3.324,0,0,0-.49-1.945A1.592,1.592,0,0,0,7.6-7.213a1.566,1.566,0,0,0-1.361.686A3.735,3.735,0,0,0,5.757-4.4ZM17.2-4.557A5.413,5.413,0,0,1,18.146-7.9a3.057,3.057,0,0,1,2.577-1.245,2.751,2.751,0,0,1,2.167.979V-12.75H25.3V0H23.13l-.116-.955A2.823,2.823,0,0,1,20.706.166a3.049,3.049,0,0,1-2.544-1.249A5.587,5.587,0,0,1,17.2-4.557Zm2.4.171a3.565,3.565,0,0,0,.44,1.943,1.432,1.432,0,0,0,1.278.675,1.6,1.6,0,0,0,1.569-.942V-6.271a1.582,1.582,0,0,0-1.552-.942Q19.6-7.213,19.6-4.386ZM31.29.166a4.409,4.409,0,0,1-3.217-1.212,4.308,4.308,0,0,1-1.241-3.229v-.232a5.426,5.426,0,0,1,.523-2.42,3.838,3.838,0,0,1,1.482-1.644,4.159,4.159,0,0,1,2.187-.577,3.727,3.727,0,0,1,2.9,1.162,4.722,4.722,0,0,1,1.058,3.3v.979H29.264a2.229,2.229,0,0,0,.7,1.411,2.12,2.12,0,0,0,1.482.531,2.589,2.589,0,0,0,2.167-1l1.179,1.32A3.6,3.6,0,0,1,33.332-.261,4.793,4.793,0,0,1,31.29.166Zm-.274-7.379a1.5,1.5,0,0,0-1.158.484,2.5,2.5,0,0,0-.569,1.384h3.337v-.192a1.786,1.786,0,0,0-.432-1.238A1.547,1.547,0,0,0,31.016-7.213ZM38.877,0H36.469V-12.75h2.407ZM-35.83,20.166a4.409,4.409,0,0,1-3.217-1.212,4.308,4.308,0,0,1-1.241-3.229v-.232a5.426,5.426,0,0,1,.523-2.42,3.838,3.838,0,0,1,1.482-1.644,4.159,4.159,0,0,1,2.187-.577,3.727,3.727,0,0,1,2.9,1.162,4.722,4.722,0,0,1,1.058,3.3v.979h-5.719a2.229,2.229,0,0,0,.7,1.411,2.12,2.12,0,0,0,1.482.531,2.589,2.589,0,0,0,2.167-1l1.179,1.32a3.6,3.6,0,0,1-1.461,1.191A4.793,4.793,0,0,1-35.83,20.166Zm-.274-7.379a1.5,1.5,0,0,0-1.158.484,2.5,2.5,0,0,0-.569,1.384h3.337v-.192a1.786,1.786,0,0,0-.432-1.238A1.547,1.547,0,0,0-36.1,12.787Zm7.537-1.768.075,1.038a3.136,3.136,0,0,1,2.582-1.2,2.606,2.606,0,0,1,2.125.838,3.912,3.912,0,0,1,.714,2.507V20h-2.4V14.243a1.562,1.562,0,0,0-.332-1.111,1.484,1.484,0,0,0-1.1-.345,1.65,1.65,0,0,0-1.519.865V20h-2.4V11.019Zm10.185-2.208v2.208h1.536v1.76h-1.536v4.482a1.07,1.07,0,0,0,.191.714.959.959,0,0,0,.73.216,3.826,3.826,0,0,0,.706-.058V19.95a4.938,4.938,0,0,1-1.453.216,2.29,2.29,0,0,1-2.573-2.548V12.778h-1.312v-1.76h1.312V8.811Zm7.919,4.458a6.517,6.517,0,0,0-.863-.066,1.757,1.757,0,0,0-1.785.921V20h-2.4V11.019h2.266l.066,1.071a2.223,2.223,0,0,1,2-1.237,2.514,2.514,0,0,1,.747.108Zm5.13,6.9A4.409,4.409,0,0,1-8.55,18.954a4.308,4.308,0,0,1-1.241-3.229v-.232a5.426,5.426,0,0,1,.523-2.42,3.838,3.838,0,0,1,1.482-1.644A4.159,4.159,0,0,1-5.6,10.853a3.727,3.727,0,0,1,2.9,1.162,4.722,4.722,0,0,1,1.058,3.3v.979H-7.359a2.229,2.229,0,0,0,.7,1.411,2.12,2.12,0,0,0,1.482.531,2.589,2.589,0,0,0,2.167-1l1.179,1.32a3.6,3.6,0,0,1-1.461,1.191A4.793,4.793,0,0,1-5.333,20.166Zm-.274-7.379a1.5,1.5,0,0,0-1.158.484,2.5,2.5,0,0,0-.569,1.384H-4v-.192a1.786,1.786,0,0,0-.432-1.238A1.547,1.547,0,0,0-5.607,12.787Zm4.98,2.656a5.264,5.264,0,0,1,.984-3.329,3.187,3.187,0,0,1,2.652-1.262,2.8,2.8,0,0,1,2.3,1.013l.1-.847H7.583V19.7a3.839,3.839,0,0,1-.535,2.05A3.439,3.439,0,0,1,5.541,23.08a5.3,5.3,0,0,1-2.274.457,4.925,4.925,0,0,1-1.926-.394A3.418,3.418,0,0,1-.079,22.125L.984,20.664a2.81,2.81,0,0,0,2.175,1,2.057,2.057,0,0,0,1.486-.51,1.915,1.915,0,0,0,.531-1.448v-.481a2.775,2.775,0,0,1-2.183.938A3.179,3.179,0,0,1,.374,18.9a5.262,5.262,0,0,1-1-3.358Zm2.4.171a3.3,3.3,0,0,0,.49,1.922,1.557,1.557,0,0,0,1.345.7,1.665,1.665,0,0,0,1.569-.826V13.612a1.661,1.661,0,0,0-1.552-.826,1.566,1.566,0,0,0-1.357.709A3.715,3.715,0,0,0,1.772,15.614ZM14.63,20a2.664,2.664,0,0,1-.241-.805,2.9,2.9,0,0,1-2.266.971A3.189,3.189,0,0,1,9.936,19.4a2.456,2.456,0,0,1-.867-1.926,2.538,2.538,0,0,1,1.058-2.191,5.222,5.222,0,0,1,3.059-.772h1.1V14a1.48,1.48,0,0,0-.32-1,1.257,1.257,0,0,0-1.009-.374,1.429,1.429,0,0,0-.95.291.987.987,0,0,0-.344.8h-2.4a2.41,2.41,0,0,1,.481-1.444,3.182,3.182,0,0,1,1.361-1.042,4.961,4.961,0,0,1,1.976-.378,3.92,3.92,0,0,1,2.635.834,2.918,2.918,0,0,1,.975,2.345v3.893a4.294,4.294,0,0,0,.357,1.934V20Zm-1.984-1.668a2.066,2.066,0,0,0,.979-.237,1.554,1.554,0,0,0,.664-.635V15.916h-.9q-1.8,0-1.917,1.245l-.008.141a.96.96,0,0,0,.315.739A1.225,1.225,0,0,0,12.646,18.332Zm13.987-2.739a5.439,5.439,0,0,1-.921,3.366,3.052,3.052,0,0,1-2.573,1.208,2.8,2.8,0,0,1-2.333-1.121L20.7,20H18.54V7.25h2.4v4.574a2.732,2.732,0,0,1,2.183-.971A3.077,3.077,0,0,1,25.7,12.06a5.446,5.446,0,0,1,.934,3.4Zm-2.4-.183a3.593,3.593,0,0,0-.432-1.994,1.458,1.458,0,0,0-1.287-.629,1.582,1.582,0,0,0-1.577.941v3.555a1.6,1.6,0,0,0,1.594.949,1.482,1.482,0,0,0,1.527-1.149A5.944,5.944,0,0,0,24.234,15.409ZM30.642,20H28.235V7.25h2.407Zm6.109.166a4.409,4.409,0,0,1-3.217-1.212,4.308,4.308,0,0,1-1.241-3.229v-.232a5.426,5.426,0,0,1,.523-2.42A3.838,3.838,0,0,1,34.3,11.429a4.159,4.159,0,0,1,2.187-.577,3.727,3.727,0,0,1,2.9,1.162,4.722,4.722,0,0,1,1.058,3.3v.979H34.726a2.229,2.229,0,0,0,.7,1.411,2.12,2.12,0,0,0,1.482.531,2.589,2.589,0,0,0,2.167-1l1.179,1.32a3.6,3.6,0,0,1-1.461,1.191A4.793,4.793,0,0,1,36.752,20.166Zm-.274-7.379a1.5,1.5,0,0,0-1.158.484,2.5,2.5,0,0,0-.569,1.384h3.337v-.192a1.786,1.786,0,0,0-.432-1.238A1.547,1.547,0,0,0,36.478,12.787Z" transform="translate(1066 2317.051)" fill="#12263f"/>
    <path id="Trazado_198224" data-name="Trazado 198224" d="M-34.486-3l2.739-9.089h2.772L-33.182,0h-2.6l-4.192-12.086h2.764Zm11.314,3a2.664,2.664,0,0,1-.241-.805,2.9,2.9,0,0,1-2.266.971A3.189,3.189,0,0,1-27.866-.6a2.456,2.456,0,0,1-.867-1.926,2.538,2.538,0,0,1,1.058-2.191,5.222,5.222,0,0,1,3.059-.772h1.1V-6a1.48,1.48,0,0,0-.32-1,1.257,1.257,0,0,0-1.009-.374,1.429,1.429,0,0,0-.95.291.987.987,0,0,0-.344.8h-2.4a2.41,2.41,0,0,1,.481-1.444A3.182,3.182,0,0,1-26.691-8.77a4.961,4.961,0,0,1,1.976-.378,3.92,3.92,0,0,1,2.635.834A2.918,2.918,0,0,1-21.1-5.968v3.893a4.294,4.294,0,0,0,.357,1.934V0Zm-1.984-1.668a2.066,2.066,0,0,0,.979-.237,1.554,1.554,0,0,0,.664-.635V-4.084h-.9q-1.8,0-1.917,1.245l-.008.141a.96.96,0,0,0,.315.739A1.225,1.225,0,0,0-25.156-1.668ZM-16.73,0h-2.407V-12.75h2.407Zm4.507,0H-14.63V-8.981h2.407Zm-2.548-11.306a1.181,1.181,0,0,1,.361-.888,1.356,1.356,0,0,1,.984-.349,1.36,1.36,0,0,1,.979.349,1.175,1.175,0,0,1,.365.888,1.178,1.178,0,0,1-.369.9,1.363,1.363,0,0,1-.975.349,1.363,1.363,0,0,1-.975-.349A1.178,1.178,0,0,1-14.771-11.306Zm4.15,6.749A5.413,5.413,0,0,1-9.679-7.9,3.057,3.057,0,0,1-7.1-9.147a2.751,2.751,0,0,1,2.167.979V-12.75h2.407V0H-4.694L-4.81-.955A2.823,2.823,0,0,1-7.118.166,3.049,3.049,0,0,1-9.662-1.083,5.587,5.587,0,0,1-10.621-4.557Zm2.4.171a3.565,3.565,0,0,0,.44,1.943A1.432,1.432,0,0,0-6.5-1.768,1.6,1.6,0,0,0-4.935-2.71V-6.271a1.582,1.582,0,0,0-1.552-.942Q-8.222-7.213-8.222-4.386ZM4.536,0A2.664,2.664,0,0,1,4.3-.805,2.9,2.9,0,0,1,2.03.166,3.189,3.189,0,0,1-.158-.6a2.456,2.456,0,0,1-.867-1.926A2.538,2.538,0,0,1,.033-4.715a5.222,5.222,0,0,1,3.059-.772H4.2V-6a1.48,1.48,0,0,0-.32-1,1.257,1.257,0,0,0-1.009-.374,1.429,1.429,0,0,0-.95.291.987.987,0,0,0-.344.8h-2.4A2.41,2.41,0,0,1-.344-7.728,3.182,3.182,0,0,1,1.017-8.77a4.961,4.961,0,0,1,1.976-.378,3.92,3.92,0,0,1,2.635.834A2.918,2.918,0,0,1,6.6-5.968v3.893A4.294,4.294,0,0,0,6.96-.141V0ZM2.552-1.668a2.066,2.066,0,0,0,.979-.237A1.554,1.554,0,0,0,4.2-2.54V-4.084H3.3q-1.8,0-1.917,1.245L1.374-2.7a.96.96,0,0,0,.315.739A1.225,1.225,0,0,0,2.552-1.668Zm9.629-.1a1.573,1.573,0,0,0,1.079-.365,1.28,1.28,0,0,0,.432-.971h2.25a3.077,3.077,0,0,1-.5,1.673A3.286,3.286,0,0,1,14.1-.253a4.2,4.2,0,0,1-1.88.419A3.9,3.9,0,0,1,9.185-1.058,4.845,4.845,0,0,1,8.073-4.441V-4.6a4.79,4.79,0,0,1,1.1-3.312,3.854,3.854,0,0,1,3.03-1.237,3.778,3.778,0,0,1,2.7.959,3.4,3.4,0,0,1,1.033,2.552h-2.25a1.648,1.648,0,0,0-.432-1.139,1.439,1.439,0,0,0-1.1-.438A1.445,1.445,0,0,0,10.9-6.6a3.541,3.541,0,0,0-.427,1.983v.249a3.586,3.586,0,0,0,.423,2A1.463,1.463,0,0,0,12.181-1.768ZM19.843,0H17.436V-8.981h2.407ZM17.295-11.306a1.181,1.181,0,0,1,.361-.888,1.356,1.356,0,0,1,.984-.349,1.36,1.36,0,0,1,.979.349,1.175,1.175,0,0,1,.365.888,1.178,1.178,0,0,1-.369.9,1.363,1.363,0,0,1-.975.349,1.363,1.363,0,0,1-.975-.349A1.178,1.178,0,0,1,17.295-11.306Zm4.15,6.732a5.327,5.327,0,0,1,.515-2.382,3.768,3.768,0,0,1,1.482-1.619,4.323,4.323,0,0,1,2.245-.573,4.09,4.09,0,0,1,2.968,1.112,4.464,4.464,0,0,1,1.282,3.021l.017.614A4.694,4.694,0,0,1,28.8-1.083,4.011,4.011,0,0,1,25.7.166a4.031,4.031,0,0,1-3.1-1.245,4.777,4.777,0,0,1-1.158-3.387Zm2.4.17a3.357,3.357,0,0,0,.481,1.958,1.588,1.588,0,0,0,1.378.678,1.592,1.592,0,0,0,1.361-.669,3.674,3.674,0,0,0,.49-2.141,3.324,3.324,0,0,0-.49-1.945,1.592,1.592,0,0,0-1.378-.69,1.566,1.566,0,0,0-1.361.686A3.735,3.735,0,0,0,23.844-4.4Zm9.795-4.578.075,1.038a3.136,3.136,0,0,1,2.582-1.2,2.606,2.606,0,0,1,2.125.838A3.912,3.912,0,0,1,39.134-5.8V0h-2.4V-5.757A1.562,1.562,0,0,0,36.4-6.868a1.484,1.484,0,0,0-1.1-.345,1.65,1.65,0,0,0-1.519.865V0h-2.4V-8.981ZM-71.179,15.086a12.739,12.739,0,0,1,.506-3.619,9.551,9.551,0,0,1,1.494-3.042,5.579,5.579,0,0,1,2.142-1.839l.465,1.295a5.778,5.778,0,0,0-1.893,2.772,12.837,12.837,0,0,0-.681,4.383v.257a13.082,13.082,0,0,0,.672,4.4,5.89,5.89,0,0,0,1.9,2.814l-.465,1.27a5.581,5.581,0,0,1-2.1-1.789,9.391,9.391,0,0,1-1.49-2.959,12.663,12.663,0,0,1-.548-3.5ZM-64.663,20V12.778H-66v-1.76h1.336v-.764A3.1,3.1,0,0,1-63.8,7.91a3.359,3.359,0,0,1,2.428-.834,5.654,5.654,0,0,1,1.22.165l-.025,1.844a3.058,3.058,0,0,0-.73-.075q-1.353,0-1.353,1.281v.728h1.785v1.76h-1.785V20Zm9.372.166a4.409,4.409,0,0,1-3.217-1.212,4.308,4.308,0,0,1-1.241-3.229v-.232a5.426,5.426,0,0,1,.523-2.42,3.838,3.838,0,0,1,1.482-1.644,4.159,4.159,0,0,1,2.187-.577,3.727,3.727,0,0,1,2.9,1.162,4.722,4.722,0,0,1,1.058,3.3v.979h-5.719a2.229,2.229,0,0,0,.7,1.411,2.12,2.12,0,0,0,1.482.531,2.589,2.589,0,0,0,2.167-1l1.179,1.32a3.6,3.6,0,0,1-1.461,1.191A4.793,4.793,0,0,1-55.292,20.166Zm-.274-7.379a1.5,1.5,0,0,0-1.158.484,2.5,2.5,0,0,0-.569,1.384h3.337v-.192a1.786,1.786,0,0,0-.432-1.238A1.547,1.547,0,0,0-55.565,12.787Zm9.064,5.445a1.573,1.573,0,0,0,1.079-.365,1.28,1.28,0,0,0,.432-.971h2.25a3.077,3.077,0,0,1-.5,1.673,3.286,3.286,0,0,1-1.341,1.179,4.2,4.2,0,0,1-1.88.419A3.9,3.9,0,0,1-49.5,18.942a4.845,4.845,0,0,1-1.112-3.383V15.4a4.79,4.79,0,0,1,1.1-3.312,3.854,3.854,0,0,1,3.03-1.237,3.778,3.778,0,0,1,2.7.959,3.4,3.4,0,0,1,1.033,2.552h-2.25a1.648,1.648,0,0,0-.432-1.139,1.439,1.439,0,0,0-1.1-.438,1.445,1.445,0,0,0-1.266.611,3.541,3.541,0,0,0-.427,1.983v.249a3.586,3.586,0,0,0,.423,2A1.463,1.463,0,0,0-46.5,18.232ZM-39.03,12a2.994,2.994,0,0,1,2.4-1.146q2.922,0,2.963,3.4V20h-2.4V14.3a1.675,1.675,0,0,0-.332-1.144,1.422,1.422,0,0,0-1.1-.37,1.632,1.632,0,0,0-1.527.815V20h-2.4V7.25h2.4Zm12.376,8a2.664,2.664,0,0,1-.241-.805,2.9,2.9,0,0,1-2.266.971,3.189,3.189,0,0,1-2.187-.764,2.456,2.456,0,0,1-.867-1.926,2.538,2.538,0,0,1,1.058-2.191,5.222,5.222,0,0,1,3.059-.772h1.1V14a1.48,1.48,0,0,0-.32-1,1.257,1.257,0,0,0-1.009-.374,1.429,1.429,0,0,0-.95.291.987.987,0,0,0-.344.8h-2.4a2.41,2.41,0,0,1,.481-1.444,3.182,3.182,0,0,1,1.361-1.042,4.961,4.961,0,0,1,1.976-.378,3.92,3.92,0,0,1,2.635.834,2.918,2.918,0,0,1,.975,2.345v3.893a4.294,4.294,0,0,0,.357,1.934V20Zm-1.984-1.668a2.066,2.066,0,0,0,.979-.237,1.554,1.554,0,0,0,.664-.635V15.916h-.9q-1.8,0-1.917,1.245l-.008.141a.96.96,0,0,0,.315.739A1.225,1.225,0,0,0-28.638,18.332Zm6.649,2.706h-1.785l4.449-13.124h1.785Zm13.68-5.445a5.387,5.387,0,0,1-.942,3.324A3.021,3.021,0,0,1-11.8,20.166,2.8,2.8,0,0,1-14,19.22v4.233h-2.4V11.019h2.225l.083.88a2.819,2.819,0,0,1,2.274-1.046A3.041,3.041,0,0,1-9.23,12.081a5.532,5.532,0,0,1,.921,3.387Zm-2.4-.183a3.554,3.554,0,0,0-.444-1.94,1.445,1.445,0,0,0-1.291-.683A1.57,1.57,0,0,0-14,13.652v3.689a1.6,1.6,0,0,0,1.569.891Q-10.708,18.232-10.708,15.409Zm8.932-2.141A6.517,6.517,0,0,0-2.64,13.2a1.757,1.757,0,0,0-1.785.921V20h-2.4V11.019h2.266l.066,1.071a2.223,2.223,0,0,1,2-1.237,2.514,2.514,0,0,1,.747.108Zm.481,2.158A5.327,5.327,0,0,1-.78,13.044,3.768,3.768,0,0,1,.7,11.425a4.323,4.323,0,0,1,2.245-.573,4.09,4.09,0,0,1,2.968,1.112A4.464,4.464,0,0,1,7.2,14.986l.017.614A4.694,4.694,0,0,1,6.06,18.917a4.011,4.011,0,0,1-3.1,1.249,4.031,4.031,0,0,1-3.1-1.245,4.777,4.777,0,0,1-1.158-3.387Zm2.4.17a3.357,3.357,0,0,0,.481,1.958,1.588,1.588,0,0,0,1.378.678,1.592,1.592,0,0,0,1.361-.669,3.674,3.674,0,0,0,.49-2.141,3.324,3.324,0,0,0-.49-1.945,1.592,1.592,0,0,0-1.378-.69,1.566,1.566,0,0,0-1.361.686A3.735,3.735,0,0,0,1.1,15.6Zm15.672,0a5.387,5.387,0,0,1-.942,3.324,3.021,3.021,0,0,1-2.544,1.249,2.8,2.8,0,0,1-2.2-.946v4.233h-2.4V11.019h2.225L11,11.9a2.819,2.819,0,0,1,2.274-1.046,3.041,3.041,0,0,1,2.582,1.229,5.532,5.532,0,0,1,.921,3.387Zm-2.4-.183a3.554,3.554,0,0,0-.444-1.94,1.445,1.445,0,0,0-1.291-.683,1.57,1.57,0,0,0-1.552.866v3.689a1.6,1.6,0,0,0,1.569.891Q14.377,18.232,14.377,15.409ZM20.793,20H18.386V11.019h2.407ZM18.245,8.694a1.181,1.181,0,0,1,.361-.888,1.556,1.556,0,0,1,1.963,0,1.268,1.268,0,0,1,0,1.785,1.539,1.539,0,0,1-1.951,0A1.178,1.178,0,0,1,18.245,8.694ZM26.9,20.166a4.409,4.409,0,0,1-3.217-1.212,4.308,4.308,0,0,1-1.241-3.229v-.232a5.426,5.426,0,0,1,.523-2.42,3.838,3.838,0,0,1,1.482-1.644,4.159,4.159,0,0,1,2.187-.577,3.727,3.727,0,0,1,2.9,1.162,4.722,4.722,0,0,1,1.058,3.3v.979H24.877a2.229,2.229,0,0,0,.7,1.411,2.12,2.12,0,0,0,1.482.531,2.589,2.589,0,0,0,2.167-1l1.179,1.32a3.6,3.6,0,0,1-1.461,1.191A4.793,4.793,0,0,1,26.9,20.166Zm-.274-7.379a1.5,1.5,0,0,0-1.158.484,2.5,2.5,0,0,0-.569,1.384h3.337v-.192a1.786,1.786,0,0,0-.432-1.238A1.547,1.547,0,0,0,26.629,12.787Zm8.2-3.976v2.208h1.536v1.76H34.83v4.482a1.07,1.07,0,0,0,.191.714.959.959,0,0,0,.73.216,3.826,3.826,0,0,0,.706-.058V19.95A4.939,4.939,0,0,1,35,20.166a2.29,2.29,0,0,1-2.573-2.548V12.778H31.12v-1.76h1.312V8.811ZM42.907,20a2.664,2.664,0,0,1-.241-.805,2.9,2.9,0,0,1-2.266.971,3.189,3.189,0,0,1-2.187-.764,2.456,2.456,0,0,1-.867-1.926A2.538,2.538,0,0,1,38.4,15.285a5.222,5.222,0,0,1,3.059-.772h1.1V14a1.48,1.48,0,0,0-.32-1,1.257,1.257,0,0,0-1.009-.374,1.429,1.429,0,0,0-.95.291.987.987,0,0,0-.344.8h-2.4a2.41,2.41,0,0,1,.481-1.444,3.182,3.182,0,0,1,1.361-1.042,4.961,4.961,0,0,1,1.976-.378A3.92,3.92,0,0,1,44,11.687a2.918,2.918,0,0,1,.975,2.345v3.893a4.294,4.294,0,0,0,.357,1.934V20Zm-1.984-1.668a2.066,2.066,0,0,0,.979-.237,1.554,1.554,0,0,0,.664-.635V15.916h-.9q-1.8,0-1.917,1.245l-.008.141a.96.96,0,0,0,.315.739A1.225,1.225,0,0,0,40.923,18.332Zm10.94-5.063A6.517,6.517,0,0,0,51,13.2a1.757,1.757,0,0,0-1.785.921V20h-2.4V11.019h2.266l.066,1.071a2.223,2.223,0,0,1,2-1.237,2.514,2.514,0,0,1,.747.108ZM55.549,20H53.142V11.019h2.407ZM53,8.694a1.181,1.181,0,0,1,.361-.888,1.556,1.556,0,0,1,1.963,0,1.268,1.268,0,0,1,0,1.785,1.539,1.539,0,0,1-1.951,0A1.178,1.178,0,0,1,53,8.694Zm4.15,6.732a5.327,5.327,0,0,1,.515-2.382,3.767,3.767,0,0,1,1.482-1.619,4.323,4.323,0,0,1,2.245-.573,4.09,4.09,0,0,1,2.968,1.112,4.464,4.464,0,0,1,1.282,3.021l.017.614a4.694,4.694,0,0,1-1.154,3.316,4.472,4.472,0,0,1-6.2,0,4.777,4.777,0,0,1-1.158-3.387Zm2.4.17a3.357,3.357,0,0,0,.481,1.958,1.73,1.73,0,0,0,2.739.008,3.674,3.674,0,0,0,.49-2.141,3.324,3.324,0,0,0-.49-1.945,1.592,1.592,0,0,0-1.378-.69,1.566,1.566,0,0,0-1.361.686A3.735,3.735,0,0,0,59.55,15.6Zm11.721-.32a12.088,12.088,0,0,1-.54,3.611,9.8,9.8,0,0,1-1.552,3.063,5.593,5.593,0,0,1-2.167,1.826l-.465-1.27a5.837,5.837,0,0,0,1.859-2.739,12.685,12.685,0,0,0,.706-4.258v-.44a12.971,12.971,0,0,0-.677-4.375,6.084,6.084,0,0,0-1.888-2.839l.465-1.27a5.594,5.594,0,0,1,2.129,1.776,9.675,9.675,0,0,1,1.552,3,12,12,0,0,1,.577,3.544Z" transform="translate(1228.226 2317.051)" fill="#12263f"/>
    <path id="Trazado_198225" data-name="Trazado 198225" d="M0,0H1028.87V5.647H0Z" transform="translate(285.564 2292)" fill="#ffb30b"/>
  </g>
</svg>
