<svg xmlns="http://www.w3.org/2000/svg" width="170" height="169.994" viewBox="0 0 170 169.994">
  <g id="Grupo_129336" data-name="Grupo 129336" transform="translate(-1400.904 -1046.901)">
    <path id="Trazado_189723" data-name="Trazado 189723" d="M1557.668,1186.46c0,13.8-11.432,24.98-25.532,24.98h-92.6c-14.1,0-25.533-11.185-25.533-24.98v-62.423c0-13.8-5.556-22.982,8.546-22.982h109.591c14.1,0,25.532-3.8,25.532,9.992Z" transform="translate(-0.009 -0.042)" fill="#f2f4f5" fill-rule="evenodd"/>
    <g id="Grupo_128889" data-name="Grupo 128889" transform="translate(1400.904 1046.901)">
      <path id="Trazado_189724" data-name="Trazado 189724" d="M1485.955,1216.914q-37.512,0-75.024,0c-6.983,0-9.991-3.011-10.007-9.968-.006-2.741.054-5.482-.017-8.222-.065-2.576,1.05-3.742,3.668-3.774,2.359-.028,5.672,1.115,6.827-.465,1.212-1.656.474-4.786.475-7.273q.024-41.451.011-82.9c0-4.984.274-5.257,5.211-5.261,3.882,0,7.766-.06,11.647.027,1.619.035,2.342-.2,2.392-2.162.225-8.833.307-8.831,9.119-8.831q15.073,0,30.146.005c4.012.006,4.5.521,4.529,4.573.049,6.387.049,6.387,6.3,6.387,5.368,0,10.738.112,16.1-.055,2.156-.067,2.457.824,2.3,2.59-.138,1.5.509,3.1-2.223,3.015-6.729-.208-13.471-.08-20.208-.054-1.022,0-2.385-.506-2.29,1.487.086,1.789,1.34,1.212,2.205,1.218,6.737.041,13.477.116,20.212-.032,2.132-.046,2.478.793,2.3,2.579-.145,1.49.528,3.109-2.21,3.025-6.617-.206-13.247.016-19.868-.116-2.042-.041-2.779.379-2.674,2.587.2,4.216-.009,8.449.083,12.672.056,2.69-.95,4.014-3.786,4q-18.157-.084-36.313,0c-2.818.013-3.866-1.267-3.809-3.977.093-4.337-.157-8.689.09-13.014.157-2.723-1.475-2.119-2.991-2.243-1.734-.142-2.617.091-2.609,2.273q.13,34.77.012,69.542c-.005,1.82.525,2.257,2.288,2.255q58.069-.074,116.135.03c2.7.007,2.227-1.455,2.227-2.989q0-35.286,0-70.571c0-3.065,1.725-4.265,4.626-3.238,1.625.576.814,1.939.816,2.9q.078,31.688.04,63.376c0,3.883-.106,7.768.033,11.646.108,3.031-1.009,4.333-4.169,4.329q-61.664-.084-123.328-.008c-2.871,0-4.149-1.01-4.142-4q.079-38.538,0-77.079c-.006-3.016,1.334-4.109,4.18-3.947,1.823.1,3.655-.018,5.48.03,1.04.027,1.358-.388,1.363-1.41,0-1.073-.44-1.361-1.418-1.353q-5.48.045-10.962,0c-1.044-.01-1.43.413-1.358,1.412.041.569.006,1.142.006,1.713,0,28.091.041,56.182-.068,84.273-.01,2.6.656,3.137,3.176,3.132q65.431-.127,130.864,0c2.568.006,3.158-.61,3.147-3.158-.1-27.177-.063-54.353-.063-81.529,0-1.653-.531-3.3,2.4-3.213,2.543.077,3.157.653,3.148,3.208-.106,26.834.006,53.671-.155,80.5-.021,3.413.747,4.782,4.2,4.149a26.029,26.029,0,0,1,2.737-.035c2.873-.207,4.253.986,4.14,3.976-.115,3.079.019,6.167-.036,9.249-.095,5.373-3.412,8.67-8.856,8.7-8.678.051-17.356.014-26.036.014Zm.289-16.447h-74.335c-5.507,0-5.507,0-5.5,5.47,0,5.364.136,5.494,5.667,5.494h145.587c7.77,0,7.643,0,7.8-7.884.053-2.588-.633-3.154-3.171-3.145C1536.943,1200.508,1511.594,1200.467,1486.244,1200.467Zm-16.792-90.458c0-4.794-.069-9.591.036-14.384.036-1.65-.453-2.11-2.1-2.1q-14.384.109-28.771,0c-1.645-.012-2.11.452-2.1,2.1q.111,14.386,0,28.771c-.013,1.644.452,2.11,2.1,2.1q14.386-.111,28.771,0c1.646.013,2.135-.45,2.1-2.1C1469.383,1119.6,1469.452,1114.8,1469.452,1110.009Z" transform="translate(-1400.904 -1046.933)" fill-rule="evenodd"/>
      <path id="Trazado_189725" data-name="Trazado 189725" d="M1532.564,1112.725c-1.14,0-2.281,0-3.422,0-4.278-.017-4.749-.361-4.739-4.642a2.636,2.636,0,0,0-2.082-2.909c-1.422-.515-2.482-1.071-3.919.352-3.212,3.189-3.554,3.069-6.848-.212-1.779-1.771-3.5-3.607-5.339-5.307-2.045-1.882-2.1-3.669.014-5.455,1.437-1.21,1.946-2.3,1.12-4.354-.859-2.14-2.12-2.272-3.9-2.152-2.545.175-3.839-.962-3.788-3.6q.09-4.62,0-9.241c-.051-2.648,1.253-3.775,3.793-3.6,1.787.124,3.037-.027,3.9-2.157.832-2.063.307-3.143-1.123-4.354-2.111-1.788-2.044-3.565-.007-5.456,2.09-1.938,4.125-3.947,6.045-6.05,1.985-2.173,3.868-2.277,5.692.017,1.276,1.6,2.491,1.628,4.4.934,2.068-.751,2.1-2.037,1.988-3.663-.18-2.7.961-4.053,3.782-3.969q4.445.13,8.9,0c2.819-.083,3.966,1.264,3.786,3.968-.109,1.628-.071,2.9,1.99,3.657,1.907.7,3.122.685,4.4-.924,1.825-2.3,3.707-2.19,5.692-.021,1.923,2.1,3.959,4.111,6.046,6.052,2.029,1.889,2.1,3.671-.013,5.458-1.434,1.213-1.944,2.3-1.122,4.356.855,2.14,2.118,2.275,3.9,2.151,2.547-.176,3.839.964,3.789,3.6q-.088,4.618,0,9.241c.049,2.642-1.253,3.778-3.795,3.6-1.788-.125-3.037.028-3.9,2.159-.834,2.066-.294,3.145,1.132,4.353,2.115,1.795,2.021,3.573,0,5.461-2.167,2.022-4.25,4.14-6.295,6.288-1.8,1.887-3.48,1.916-5.22-.014-1.166-1.291-2.114-2.216-4.314-1.311-2.255.93-2.417,2.229-2.311,4.144.194,3.53-2.194,3.72-4.8,3.608C1534.847,1112.685,1533.706,1112.725,1532.564,1112.725Zm-21.308-15.614c.533.6.929,1.006,1.28,1.45,1.466,1.854,2.864,3.105,4.846.427,1.041-1.408,2.572-1.074,4.03-.355a23.86,23.86,0,0,0,4.985,2.163c2.592.6,3.784,1.949,3.418,4.558-.323,2.312,1.263,1.97,2.564,1.86,1.234-.107,3.3.89,2.932-1.82-.4-2.888,1.089-4.13,3.723-4.681a11.768,11.768,0,0,0,3.751-1.586c2.263-1.427,4.234-1.512,5.978.737,1.695,2.187,2.394-.036,3.3-.816.933-.8,2.465-1.638.537-3.07-2.3-1.71-2.116-3.721-.712-5.97a11.737,11.737,0,0,0,1.581-3.753c.542-2.669,1.852-4.119,4.7-3.678,2.017.314,2.051-1.035,1.761-2.281-.263-1.135,1.256-3.468-1.522-3.163-3.3.363-4.434-1.4-5.118-4.153a15.944,15.944,0,0,0-1.76-4.05c-1.077-1.857-1.077-3.537.676-4.833,1.923-1.419,1.265-2.458-.194-3.611-.7-.555-1.323-1.216-2.161-2-2.176,3.6-4.887,3.753-8.081,1.5a7.968,7.968,0,0,0-3.16-1.227c-2.491-.434-3.632-1.818-3.278-4.276.357-2.476-1.286-2.1-2.729-2.073-1.374.029-3.162-.56-2.794,2,.389,2.685-1.015,3.922-3.533,4.464a13.427,13.427,0,0,0-4.069,1.714c-2.156,1.315-4.058,1.479-5.683-.7-1.529-2.046-2.379-.4-3.341.561s-2.567,1.83-.535,3.343c2.189,1.631,1.97,3.544.67,5.689a13.212,13.212,0,0,0-1.722,4.063c-.521,2.556-1.8,3.893-4.465,3.519-2.581-.362-1.913,1.469-1.976,2.816-.068,1.486-.338,3.06,2.1,2.7,2.473-.358,3.823.83,4.267,3.3a8.035,8.035,0,0,0,1.225,3.165C1515.024,1092.258,1514.783,1094.958,1511.257,1097.111Z" transform="translate(-1400.981 -1046.901)" fill="#050505" fill-rule="evenodd"/>
      <path id="Trazado_189726" data-name="Trazado 189726" d="M1474.957,1159.563c0,5.821-.09,11.643.036,17.463.067,3.024-1,4.357-4.166,4.331q-17.8-.147-35.61,0c-3.168.025-4.18-1.325-4.156-4.341.094-11.756.113-23.513-.008-35.268-.034-3.343,1.345-4.364,4.517-4.334,11.642.111,23.284.035,34.926.05,3.951,0,4.449.538,4.458,4.634C1474.967,1147.921,1474.957,1153.741,1474.957,1159.563Zm-38.382-.5c0,4.911.069,9.825-.038,14.731-.036,1.673.492,2.1,2.116,2.084q14.389-.106,28.78,0c1.669.013,2.1-.491,2.083-2.115q-.107-14.39,0-28.78c.013-1.669-.49-2.094-2.114-2.083q-14.389.108-28.78,0c-1.669-.013-2.119.488-2.083,2.115C1436.641,1149.693,1436.575,1154.378,1436.575,1159.06Z" transform="translate(-1400.927 -1046.971)" fill-rule="evenodd"/>
      <path id="Trazado_189727" data-name="Trazado 189727" d="M1508.045,1120.357c3.369,3.341,5.44-1.434,8.333-1.407,1.4.014,2.542-.349,2.564-2.351.022-2.089,1.912-.933,2.915-1.013.85-.068,2.574-.913,2.467,1.149-.08,1.535.7,1.948,1.979,2.171a16.589,16.589,0,0,1,5.342,2.2c.563.325,1.211,1.116,1.79.48,2.532-2.775,3.275.429,4.666,1.352.322.214.7.976.593,1.113-3.156,3.932,2.276,6.306,1.773,9.75-.035.24.61.858.869.82,2.654-.385,2.146,1.446,2.231,2.976.089,1.624.084,2.95-2.2,2.656-.832-.109-.992.8-1.117,1.465a17.792,17.792,0,0,1-2.457,5.966c-.289.473-.871,1.084-.379,1.51,2.834,2.45-.221,3.3-1.228,4.681-.314.432-.776.934-1.412.538-4.035-2.511-6.511,2.159-10.026,2.359-.437.024-.652,3.156-3.22,2.666-1.415-.271-3.022.277-2.722-2.149.13-1.052-.975-1.1-1.725-1.254a15.7,15.7,0,0,1-5.044-2.03c-1.1-.679-2.033-1.382-3.2.027-1.141,1.377-1.837-.116-2.355-.755-.683-.846-2.77-1.556-1.595-2.78,1.682-1.755.425-2.742-.211-4.111-.667-1.436-1.121-2.971-1.657-4.467-.219-.616-.177-1.648-.975-1.61-3.734.178-2-2.6-2.342-4.224-.084-.394.149-1.23.278-1.239,5.234-.362,2.777-6.126,5.7-8.1.569-.385.144-.989-.125-1.517C1504.779,1123.7,1506.442,1120.446,1508.045,1120.357Zm13.465,30.785a13.7,13.7,0,1,0-13.6-13.8A13.74,13.74,0,0,0,1521.511,1151.142Z" transform="translate(-1400.981 -1046.955)" fill="#050505" fill-rule="evenodd"/>
      <path id="Trazado_189728" data-name="Trazado 189728" d="M1486.248,1200.555c25.351,0,50.7.041,76.049-.065,2.538-.01,3.223.557,3.17,3.145-.161,7.881-.034,7.884-7.8,7.884H1412.077c-5.532,0-5.664-.13-5.668-5.493,0-5.47,0-5.47,5.5-5.47Z" transform="translate(-1400.909 -1047.02)" fill="#f7f9fa" fill-rule="evenodd"/>
      <path id="Trazado_189729" data-name="Trazado 189729" d="M1469.479,1110.013c0,4.8-.069,9.592.036,14.385.036,1.649-.452,2.111-2.1,2.1q-14.384-.111-28.771,0c-1.645.013-2.11-.453-2.1-2.1q.111-14.386,0-28.772c-.013-1.646.452-2.109,2.1-2.1q14.386.111,28.771,0c1.646-.012,2.135.449,2.1,2.1C1469.41,1100.422,1469.479,1105.219,1469.479,1110.013Zm-19.4,6.045c-1.71-2.271-3.308-4.207-4.694-6.283-1.52-2.273-2.472-.235-3.505.4-1.079.659-2.474,1.247-.935,3.042,2.224,2.591,4.132,5.453,6.209,8.172,2.534,3.317,4.095,3.227,6.386-.415,3.826-6.076,7.483-12.262,11.478-18.225,1.439-2.149.55-2.758-1.1-3.822-1.629-1.053-2.457-1.264-3.616.718C1457.1,1105.134,1453.6,1110.459,1450.084,1116.058Z" transform="translate(-1400.932 -1046.937)" fill="#0ddcf1" fill-rule="evenodd"/>
      <path id="Trazado_189730" data-name="Trazado 189730" d="M1511.261,1097.115c3.526-2.153,3.767-4.853,1.5-8.06a8.037,8.037,0,0,1-1.225-3.164c-.443-2.466-1.793-3.655-4.267-3.3-2.436.355-2.166-1.219-2.1-2.705.063-1.347-.6-3.178,1.977-2.816,2.669.374,3.943-.963,4.464-3.52a13.223,13.223,0,0,1,1.721-4.063c1.3-2.146,1.52-4.059-.669-5.69-2.031-1.513-.433-2.377.536-3.343s1.813-2.607,3.341-.561c1.625,2.176,3.526,2.012,5.683.7a13.421,13.421,0,0,1,4.069-1.713c2.518-.543,3.922-1.78,3.533-4.465-.368-2.559,1.42-1.97,2.793-2,1.443-.03,3.087-.4,2.729,2.074-.355,2.458.787,3.842,3.277,4.276a7.973,7.973,0,0,1,3.161,1.227c3.193,2.25,5.905,2.093,8.081-1.5.838.783,1.458,1.444,2.161,2,1.459,1.153,2.116,2.192.194,3.611-1.754,1.3-1.754,2.976-.677,4.833a15.948,15.948,0,0,1,1.76,4.05c.685,2.751,1.822,4.516,5.118,4.153,2.779-.3,1.26,2.027,1.523,3.163.29,1.246.257,2.595-1.76,2.281-2.851-.441-4.161,1.009-4.7,3.678a11.725,11.725,0,0,1-1.581,3.753c-1.4,2.249-1.593,4.261.712,5.97,1.927,1.432.4,2.271-.537,3.07-.91.78-1.61,3-3.3.816-1.744-2.249-3.714-2.164-5.978-.736a11.79,11.79,0,0,1-3.751,1.586c-2.634.552-4.12,1.793-3.723,4.681.371,2.71-1.7,1.713-2.932,1.82-1.3.111-2.886.451-2.564-1.86.365-2.609-.826-3.962-3.419-4.559a23.858,23.858,0,0,1-4.985-2.164c-1.458-.719-2.989-1.053-4.03.355-1.982,2.679-3.38,1.427-4.846-.426C1512.19,1098.121,1511.794,1097.717,1511.261,1097.115Zm2.138-17.3a19.178,19.178,0,1,0,19.1-19.168A19.249,19.249,0,0,0,1513.4,1079.818Z" transform="translate(-1400.985 -1046.905)" fill="#0ddcf1" fill-rule="evenodd"/>
      <path id="Trazado_189731" data-name="Trazado 189731" d="M1436.579,1159.064c0-4.682.067-9.367-.035-14.046-.036-1.627.415-2.128,2.083-2.115q14.388.114,28.779,0c1.624-.011,2.128.415,2.114,2.083q-.114,14.39,0,28.78c.013,1.624-.415,2.128-2.083,2.116q-14.391-.116-28.78,0c-1.624.012-2.152-.412-2.116-2.084C1436.648,1168.889,1436.579,1163.976,1436.579,1159.064Zm29.537,9.782c-.968-1.069-1.481-1.662-2.02-2.228-2.275-2.383-6.179-4.624-6.391-7.173-.219-2.651,3.956-4.841,6.323-7.091,1.663-1.581,1.552-2.421.018-4.018-1.64-1.71-2.582-1.5-4,.129-1.72,1.976-3.752,3.676-5.515,5.62-1.1,1.212-1.837,1.277-2.972.026-1.916-2.111-4.115-3.969-5.988-6.115-1.52-1.744-2.4-.82-3.471.376-.955,1.063-2.414,1.84-.547,3.47,2.06,1.8,3.8,3.969,5.881,5.732,1.732,1.464,1.419,2.381-.1,3.718-2.051,1.808-3.823,3.933-5.865,5.752-1.96,1.746-.114,2.451.75,3.438.916,1.05,1.734,2.105,3.208.442,1.966-2.217,4.217-4.177,6.238-6.351,1.017-1.094,1.691-1.129,2.722-.014,1.938,2.093,3.986,4.088,6.052,6.056.575.547,1.03,1.8,2.153,1.056C1463.8,1170.866,1464.88,1169.852,1466.116,1168.847Z" transform="translate(-1400.932 -1046.976)" fill="#0ddcf1" fill-rule="evenodd"/>
      <path id="Trazado_189732" data-name="Trazado 189732" d="M1521.517,1151.149a13.7,13.7,0,1,1,13.8-13.6A13.743,13.743,0,0,1,1521.517,1151.149Zm11.052-13.8a10.954,10.954,0,1,0-11.028,11.054A11,11,0,0,0,1532.569,1137.35Z" transform="translate(-1400.987 -1046.961)" fill="#0ddcf1" fill-rule="evenodd"/>
      <path id="Trazado_189733" data-name="Trazado 189733" d="M1450.088,1116.062c3.517-5.6,7.016-10.925,10.227-16.416,1.159-1.982,1.987-1.771,3.616-.718,1.645,1.064,2.534,1.673,1.1,3.822-3.995,5.962-7.652,12.148-11.478,18.225-2.291,3.641-3.852,3.732-6.386.415-2.077-2.72-3.985-5.582-6.209-8.173-1.539-1.794-.144-2.382.935-3.042,1.033-.632,1.985-2.67,3.506-.4C1446.779,1111.855,1448.377,1113.792,1450.088,1116.062Z" transform="translate(-1400.935 -1046.941)" fill="#070707" fill-rule="evenodd"/>
      <path id="Trazado_189734" data-name="Trazado 189734" d="M1513.406,1079.825a19.178,19.178,0,1,1,19.083,19.189A19.24,19.24,0,0,1,1513.406,1079.825Zm32.872.3a13.7,13.7,0,1,0-13.985,13.4A13.744,13.744,0,0,0,1546.278,1080.126Z" transform="translate(-1400.992 -1046.912)" fill="#070707" fill-rule="evenodd"/>
      <path id="Trazado_189735" data-name="Trazado 189735" d="M1466.119,1168.85c-1.236,1.005-2.311,2.019-3.522,2.826-1.123.748-1.578-.509-2.153-1.056-2.065-1.968-4.114-3.963-6.052-6.056-1.031-1.115-1.705-1.08-2.722.014-2.021,2.173-4.271,4.134-6.238,6.351-1.474,1.662-2.291.607-3.207-.443-.864-.986-2.71-1.692-.75-3.437,2.042-1.82,3.814-3.944,5.865-5.752,1.516-1.337,1.828-2.254.1-3.718-2.086-1.763-3.822-3.937-5.881-5.732-1.868-1.63-.409-2.407.546-3.47,1.076-1.2,1.951-2.119,3.471-.376,1.874,2.146,4.073,4,5.989,6.115,1.135,1.251,1.873,1.186,2.972-.026,1.763-1.943,3.8-3.644,5.516-5.619,1.417-1.627,2.359-1.838,4-.129,1.534,1.6,1.645,2.437-.018,4.018-2.367,2.25-6.542,4.439-6.323,7.091.212,2.55,4.116,4.79,6.391,7.173C1464.638,1167.188,1465.151,1167.781,1466.119,1168.85Z" transform="translate(-1400.935 -1046.979)" fill="#050505" fill-rule="evenodd"/>
      <path id="Trazado_189736" data-name="Trazado 189736" d="M1532.571,1137.353a10.954,10.954,0,1,1-10.878-10.857A10.994,10.994,0,0,1,1532.571,1137.353Zm-10.687-5.375a5.475,5.475,0,1,0,5.2,5.655A5.53,5.53,0,0,0,1521.884,1131.978Z" transform="translate(-1400.989 -1046.963)" fill="#070707" fill-rule="evenodd"/>
      <path id="Trazado_189737" data-name="Trazado 189737" d="M1546.282,1080.13a13.7,13.7,0,1,1-13.4-13.986A13.751,13.751,0,0,1,1546.282,1080.13Z" transform="translate(-1400.996 -1046.916)" fill="#f2f4f5" fill-rule="evenodd"/>
      <path id="Trazado_189738" data-name="Trazado 189738" d="M1521.888,1131.982a5.476,5.476,0,1,1-5.733,5.117A5.54,5.54,0,0,1,1521.888,1131.982Z" transform="translate(-1400.994 -1046.967)" fill="#f0f2f3" fill-rule="evenodd"/>
    </g>
  </g>
</svg>
