<svg xmlns="http://www.w3.org/2000/svg" width="363" height="317" viewBox="0 0 363 317">
  <g id="Grupo_135031" data-name="Grupo 135031" transform="translate(-968.966 -1748)">
    <g id="Grupo_134861" data-name="Grupo 134861" transform="translate(970.024 1764.711)">
      <g id="Grupo_134843" data-name="Grupo 134843" transform="translate(0 20.576)">
        <rect id="Rectángulo_295074" data-name="Rectángulo 295074" width="120.73" height="125.759" fill="#ececec"/>
        <rect id="Rectángulo_295075" data-name="Rectángulo 295075" width="120.73" height="125.759" transform="translate(4.217)" fill="#f0f0f0"/>
        <rect id="Rectángulo_295076" data-name="Rectángulo 295076" width="114.485" height="119.856" transform="translate(7.262 2.981)" fill="#e1e1e1"/>
        <rect id="Rectángulo_295077" data-name="Rectángulo 295077" width="111.627" height="119.853" transform="translate(7.26 2.98)" fill="#f5f5f5"/>
        <rect id="Rectángulo_295078" data-name="Rectángulo 295078" width="2.267" height="119.856" transform="translate(61.962 2.981)" fill="#ececec"/>
        <path id="Trazado_197350" data-name="Trazado 197350" d="M2088.813,992.331,2057,1112.184h-3.053l31.817-119.853Z" transform="translate(-2039.901 -989.351)" fill="#fff"/>
        <rect id="Rectángulo_295079" data-name="Rectángulo 295079" width="1.943" height="124.001" transform="translate(63.257 1.132)" fill="#f0f0f0"/>
        <path id="Trazado_197351" data-name="Trazado 197351" d="M2078.59,992.331l-30.1,113.425v-62.346l13.555-51.079Z" transform="translate(-2041.226 -989.351)" fill="#fff"/>
        <path id="Trazado_197352" data-name="Trazado 197352" d="M2143.954,1001.011v11.5l-25.878,97.473h-3.053Z" transform="translate(-2025.067 -987.155)" fill="#fff"/>
        <path id="Trazado_197353" data-name="Trazado 197353" d="M2142.747,1019.551V1081.9l-6.208,23.4H2119.99Z" transform="translate(-2023.861 -982.465)" fill="#fff"/>
      </g>
      <g id="Grupo_134850" data-name="Grupo 134850" transform="translate(70.501 127.685)">
        <g id="Grupo_134849" data-name="Grupo 134849">
          <path id="Trazado_197354" data-name="Trazado 197354" d="M2123.677,1122.062h12.255v-.822c0-1.615-1.793-2.9-3.929-2.812l-4.8.2c-1.977.08-3.526,1.314-3.526,2.81Z" transform="translate(-2093.467 -1064.565)" fill="#f0f0f0"/>
          <g id="Grupo_134844" data-name="Grupo 134844" transform="translate(28.635)">
            <path id="Trazado_197355" data-name="Trazado 197355" d="M2143.2,1126.58h16.216l2.58-22.825a1.6,1.6,0,0,0-1.587-1.525h-10.865a1.6,1.6,0,0,0-1.587,1.525Z" transform="translate(-2117.359 -1068.661)" fill="#e7e7e7"/>
            <path id="Trazado_197356" data-name="Trazado 197356" d="M2123.5,1075.438h4.048l4.55,43.11h-4.048a1.391,1.391,0,0,1-1.345-1.225l-4.291-40.66A1.078,1.078,0,0,1,2123.5,1075.438Z" transform="translate(-2122.41 -1075.438)" fill="#e7e7e7"/>
            <path id="Trazado_197357" data-name="Trazado 197357" d="M2129.429,1118.548H2190.1a1.077,1.077,0,0,0,1.085-1.225l-4.292-40.66a1.388,1.388,0,0,0-1.344-1.224H2124.88a1.077,1.077,0,0,0-1.085,1.224l4.292,40.66A1.388,1.388,0,0,0,2129.429,1118.548Z" transform="translate(-2122.075 -1075.438)" fill="#ececec"/>
            <path id="Trazado_197358" data-name="Trazado 197358" d="M2130.2,1114.26h57.214a.94.94,0,0,0,.947-1.069l-3.744-35.475a1.213,1.213,0,0,0-1.173-1.069h-57.214a.94.94,0,0,0-.947,1.069l3.744,35.475A1.213,1.213,0,0,0,2130.2,1114.26Z" transform="translate(-2121.712 -1075.132)" fill="#fafafa"/>
            <path id="Trazado_197359" data-name="Trazado 197359" d="M2142.885,1120.25h19.946a.881.881,0,0,1,.879.886h0a.881.881,0,0,1-.879.885h-19.946a.882.882,0,0,1-.878-.885h0A.882.882,0,0,1,2142.885,1120.25Z" transform="translate(-2117.65 -1064.103)" fill="#e7e7e7"/>
          </g>
          <rect id="Rectángulo_295080" data-name="Rectángulo 295080" width="49.394" height="7.512" transform="translate(54.141 64.918) rotate(180)" fill="#e7e7e7"/>
          <g id="Grupo_134845" data-name="Grupo 134845" transform="translate(140.152 64.918)">
            <path id="Trazado_197360" data-name="Trazado 197360" d="M2214.367,1203.637h1.233a.288.288,0,0,0,.283-.282l1.95-76.105h-5.7l1.949,76.105A.288.288,0,0,0,2214.367,1203.637Z" transform="translate(-2212.135 -1127.25)" fill="#e7e7e7"/>
          </g>
          <g id="Grupo_134846" data-name="Grupo 134846" transform="translate(175.457 64.918)">
            <path id="Trazado_197361" data-name="Trazado 197361" d="M2251.431,1203.636h2.849l-8.04-76.386h-5.7Z" transform="translate(-2240.542 -1127.25)" fill="#f0f0f0"/>
          </g>
          <path id="Trazado_197362" data-name="Trazado 197362" d="M2102.189,1203.636h0l10.92-76.386h-5.7l-8.041,76.386Z" transform="translate(-2099.37 -1062.332)" fill="#e7e7e7"/>
          <rect id="Rectángulo_295081" data-name="Rectángulo 295081" width="144.398" height="7.512" transform="translate(184.45 64.918) rotate(180)" fill="#f5f5f5"/>
          <path id="Trazado_197363" data-name="Trazado 197363" d="M2135.457,1203.637h3.273l0,0,1.211-76.384h-5.7Z" transform="translate(-2090.9 -1062.332)" fill="#f0f0f0"/>
          <g id="Grupo_134848" data-name="Grupo 134848" transform="translate(59.89 53.86)">
            <g id="Grupo_134847" data-name="Grupo 134847" transform="translate(1.233)">
              <path id="Trazado_197364" data-name="Trazado 197364" d="M2172.392,1120.62h1.512a.29.29,0,0,0,.29-.291v-1.614a.29.29,0,0,0-.29-.291h-1.086a.289.289,0,0,0-.278.216l-.427,1.614A.291.291,0,0,0,2172.392,1120.62Z" transform="translate(-2142.829 -1118.425)" fill="#f5f5f5"/>
              <path id="Trazado_197365" data-name="Trazado 197365" d="M2170.71,1120.62h1.512a.291.291,0,0,0,.29-.291v-1.614a.291.291,0,0,0-.29-.291h-1.086a.292.292,0,0,0-.28.216l-.426,1.614A.291.291,0,0,0,2170.71,1120.62Z" transform="translate(-2143.238 -1118.425)" fill="#f5f5f5"/>
              <path id="Trazado_197366" data-name="Trazado 197366" d="M2169.026,1120.62h1.514a.29.29,0,0,0,.288-.291v-1.614a.29.29,0,0,0-.288-.291h-1.086a.289.289,0,0,0-.28.216l-.426,1.614A.29.29,0,0,0,2169.026,1120.62Z" transform="translate(-2143.646 -1118.425)" fill="#f5f5f5"/>
              <path id="Trazado_197367" data-name="Trazado 197367" d="M2167.345,1120.62h1.513a.29.29,0,0,0,.29-.291v-1.614a.29.29,0,0,0-.29-.291h-1.086a.289.289,0,0,0-.279.216l-.427,1.614A.291.291,0,0,0,2167.345,1120.62Z" transform="translate(-2144.055 -1118.425)" fill="#f5f5f5"/>
              <path id="Trazado_197368" data-name="Trazado 197368" d="M2165.661,1120.62h1.514a.29.29,0,0,0,.288-.291v-1.614a.29.29,0,0,0-.288-.291h-1.086a.29.29,0,0,0-.279.216l-.427,1.614A.29.29,0,0,0,2165.661,1120.62Z" transform="translate(-2144.463 -1118.425)" fill="#f5f5f5"/>
              <path id="Trazado_197369" data-name="Trazado 197369" d="M2163.98,1120.62h1.512a.29.29,0,0,0,.29-.291v-1.614a.29.29,0,0,0-.29-.291h-1.086a.289.289,0,0,0-.279.216l-.428,1.614A.291.291,0,0,0,2163.98,1120.62Z" transform="translate(-2144.872 -1118.425)" fill="#f5f5f5"/>
              <path id="Trazado_197370" data-name="Trazado 197370" d="M2162.3,1120.62h1.512a.291.291,0,0,0,.29-.291v-1.614a.291.291,0,0,0-.29-.291h-1.086a.292.292,0,0,0-.28.216l-.426,1.614A.291.291,0,0,0,2162.3,1120.62Z" transform="translate(-2145.28 -1118.425)" fill="#f5f5f5"/>
              <path id="Trazado_197371" data-name="Trazado 197371" d="M2160.615,1120.62h1.513a.29.29,0,0,0,.289-.291v-1.614a.29.29,0,0,0-.289-.291h-1.086a.289.289,0,0,0-.28.216l-.427,1.614A.29.29,0,0,0,2160.615,1120.62Z" transform="translate(-2145.689 -1118.425)" fill="#f5f5f5"/>
              <path id="Trazado_197372" data-name="Trazado 197372" d="M2158.933,1120.62h1.513a.29.29,0,0,0,.289-.291v-1.614a.29.29,0,0,0-.289-.291h-1.086a.289.289,0,0,0-.278.216l-.428,1.614A.291.291,0,0,0,2158.933,1120.62Z" transform="translate(-2146.098 -1118.425)" fill="#f5f5f5"/>
              <path id="Trazado_197373" data-name="Trazado 197373" d="M2157.25,1120.62h1.513a.29.29,0,0,0,.289-.291v-1.614a.29.29,0,0,0-.289-.291h-1.086a.289.289,0,0,0-.28.216l-.426,1.614A.29.29,0,0,0,2157.25,1120.62Z" transform="translate(-2146.506 -1118.425)" fill="#f5f5f5"/>
              <path id="Trazado_197374" data-name="Trazado 197374" d="M2155.568,1120.62h1.512a.29.29,0,0,0,.29-.291v-1.614a.29.29,0,0,0-.29-.291h-1.086a.289.289,0,0,0-.279.216l-.427,1.614A.291.291,0,0,0,2155.568,1120.62Z" transform="translate(-2146.915 -1118.425)" fill="#f5f5f5"/>
              <path id="Trazado_197375" data-name="Trazado 197375" d="M2153.886,1120.62h1.512a.29.29,0,0,0,.289-.291v-1.614a.29.29,0,0,0-.289-.291h-1.086a.292.292,0,0,0-.28.216l-.426,1.614A.291.291,0,0,0,2153.886,1120.62Z" transform="translate(-2147.324 -1118.425)" fill="#f5f5f5"/>
              <path id="Trazado_197376" data-name="Trazado 197376" d="M2152.2,1120.62h1.514a.29.29,0,0,0,.288-.291v-1.614a.29.29,0,0,0-.288-.291h-1.086a.29.29,0,0,0-.28.216l-.426,1.614A.289.289,0,0,0,2152.2,1120.62Z" transform="translate(-2147.732 -1118.425)" fill="#f5f5f5"/>
              <path id="Trazado_197377" data-name="Trazado 197377" d="M2150.521,1120.62h1.512a.29.29,0,0,0,.29-.291v-1.614a.29.29,0,0,0-.29-.291h-1.087a.288.288,0,0,0-.278.216l-.428,1.614A.291.291,0,0,0,2150.521,1120.62Z" transform="translate(-2148.141 -1118.425)" fill="#f5f5f5"/>
              <path id="Trazado_197378" data-name="Trazado 197378" d="M2148.837,1120.62h1.514a.29.29,0,0,0,.289-.291v-1.614a.29.29,0,0,0-.289-.291h-1.086a.29.29,0,0,0-.28.216l-.426,1.614A.291.291,0,0,0,2148.837,1120.62Z" transform="translate(-2148.549 -1118.425)" fill="#f5f5f5"/>
            </g>
            <rect id="Rectángulo_295082" data-name="Rectángulo 295082" width="33.831" height="2.54" transform="translate(33.831 3.638) rotate(180)" fill="#ececec"/>
          </g>
        </g>
      </g>
      <g id="Grupo_134851" data-name="Grupo 134851" transform="translate(193.422 0)">
        <rect id="Rectángulo_295083" data-name="Rectángulo 295083" width="122.465" height="156.33" transform="translate(156.33 0) rotate(90)" fill="#e1e1e1"/>
        <rect id="Rectángulo_295084" data-name="Rectángulo 295084" width="151.997" height="118.097" transform="translate(154.164 120.281) rotate(180)" fill="#ececec"/>
        <line id="Línea_385" data-name="Línea 385" y2="16.469" transform="translate(75.615 23.517)" fill="none" stroke="#e1e1e1" stroke-miterlimit="10" stroke-width="0.778"/>
        <path id="Trazado_197379" data-name="Trazado 197379" d="M2229.221,1058.46v-53.016h68.952v30.412" transform="translate(-2190.754 -965.458)" fill="none" stroke="#e1e1e1" stroke-miterlimit="10" stroke-width="0.778"/>
        <path id="Trazado_197380" data-name="Trazado 197380" d="M2270.345,1045.9v-16.186h37.906v16.751" transform="translate(-2180.766 -959.318)" fill="none" stroke="#e1e1e1" stroke-miterlimit="10" stroke-width="0.778"/>
        <rect id="Rectángulo_295085" data-name="Rectángulo 295085" width="34.871" height="12.102" transform="translate(58.18 17.466)" fill="#f5f5f5"/>
        <rect id="Rectángulo_295086" data-name="Rectángulo 295086" width="33.236" height="13.146" transform="translate(91.315 46.503)" fill="#f5f5f5"/>
        <rect id="Rectángulo_295087" data-name="Rectángulo 295087" width="22.828" height="13.561" transform="translate(78.165 79.803)" fill="#f5f5f5"/>
        <rect id="Rectángulo_295088" data-name="Rectángulo 295088" width="24.446" height="10.301" transform="translate(115.262 81.998)" fill="#f5f5f5"/>
        <rect id="Rectángulo_295089" data-name="Rectángulo 295089" width="37.759" height="17.563" transform="translate(22.425 49.286)" fill="#f5f5f5"/>
        <rect id="Rectángulo_295090" data-name="Rectángulo 295090" width="24.114" height="12.836" transform="translate(26.41 86.584)" fill="#f5f5f5"/>
        <path id="Trazado_197759" data-name="Trazado 197759" d="M0,0,7.392.031l.031,7.392L.031,7.392Z" transform="matrix(0.707, 0.707, -0.707, 0.707, 75.615, 35.164)" fill="#f5f5f5"/>
        <path id="Trazado_197760" data-name="Trazado 197760" d="M0,0,7.392.031l.031,7.392L.031,7.392Z" transform="translate(107.419 65.149) rotate(45)" fill="#f5f5f5"/>
      </g>
      <g id="Grupo_134855" data-name="Grupo 134855" transform="translate(54.079 223.465)">
        <g id="Grupo_134852" data-name="Grupo 134852" transform="translate(5.05 14.978)">
          <path id="Trazado_197381" data-name="Trazado 197381" d="M2119.056,1172.926a2.33,2.33,0,0,0-1.851-3.342,5.012,5.012,0,0,0-1.566-5.444,1.147,1.147,0,0,0-.68-.3,1.3,1.3,0,0,0-.731.324l-4.325,3.131a2.633,2.633,0,0,0-.858.856c-.883,1.727,2.3,3.939.992,5.364-.375.408-.982.494-1.45.789-1.031.648-1.153,2.072-1.633,3.2s-2.153,2-2.793.957c.472-1.079-.957-2.007-2.118-2.144-1.146-.135-2.374-.2-3.017-1.3-1.646,1.452-5.335-2.6-5.251-4.231a3.193,3.193,0,0,0-2.574,2.661,19.421,19.421,0,0,0-.139,4.07c-.041,2.645-.887,5.235-.841,7.879.036,2.057.825,4.341,2.693,5.17a7,7,0,0,0,2.9.392l21.278-.137a3.232,3.232,0,0,0,1.5-.25c.96-.506,1.163-1.777,1.251-2.864q.572-6.991,1.144-13.98Z" transform="translate(-2090.22 -1163.836)" fill="#e1e1e1"/>
        </g>
        <g id="Grupo_134854" data-name="Grupo 134854" transform="translate(2.114 1.395)">
          <g id="Grupo_134853" data-name="Grupo 134853">
            <path id="Trazado_197382" data-name="Trazado 197382" d="M2120.873,1153h-33.015l.271,3.363.194,2.4.5,6.248.287,3.59.381,4.777.163,2.049.053.61.2,2.409.264,3.3.163,2.048.17,2.08.194,2.409.148,1.822.163,2.049.07.892h30.3l.07-.892.163-2.041.148-1.838.194-2.408.17-2.073.164-2.048.264-3.308.194-2.4.046-.61.163-2.049.387-4.777.287-3.582.5-6.256.194-2.4.271-3.363Zm1.985,2.205h0l-.635-.641h.689Zm-.163,2.041-.062.813-2.956,2.979-3.389-3.417,3.033-3.058h.713Zm-.853,10.651-2.165,2.181-3.389-3.417,3.389-3.409,2.343,2.361Zm-31.417-2.284h0l2.343-2.361,3.389,3.409-3.389,3.417-2.156-2.181Zm28.158-3.472-3.389,3.418-3.391-3.418,3.391-3.417Zm-5.329-7.578h3.879l-1.939,1.956Zm.838,12.1-3.382,3.417-3.389-3.417,3.389-3.409Zm-11.256,4.519,3.391-3.409,3.382,3.409-3.382,3.418Zm2.288,4.521-3.389,3.418-3.382-3.411,3.389-3.417Zm5.585-3.409,3.382,3.417-3.382,3.411-3.389-3.418Zm-4.483-6.733-3.391-3.418,3.391-3.417,3.382,3.417Zm-1.1,1.1-3.382,3.417-3.389-3.417,3.389-3.409Zm-7.874-1.1-3.382-3.418,3.382-3.417,3.391,3.417Zm0,2.213,3.391,3.409-3.391,3.418-3.382-3.418Zm3.391,12.458-3.391,3.409-3.382-3.409,3.382-3.418Zm1.094,1.1,3.389,3.417-3.382,3.418-3.389-3.418Zm1.1-1.1,3.391-3.418,3.382,3.418-3.382,3.409Zm7.874,1.1,3.382,3.417-3.382,3.418-3.389-3.418Zm4.484,4.519,3.389,3.418-2.2,2.213H2114l-2.2-2.213Zm-3.391-5.622,3.391-3.418,3.389,3.418-3.389,3.409Zm0-9.049,3.391-3.409,3.389,3.409-3.389,3.418Zm2.288-13.559-3.382,3.417-3.389-3.417,3.032-3.058h.713Zm-7.865-1.1-1.94-1.956h3.871Zm-1.1,1.1-3.382,3.417-3.389-3.417,3.032-3.058h.713Zm-5.933-3.058-1.94,1.956-1.931-1.956Zm-6.066,0,3.032,3.058-3.389,3.417-2.948-2.979-.062-.813,2.653-2.682Zm-2.9,0-.628.634h0l-.055-.634Zm-.209,5.905,1.66,1.673-1.412,1.423Zm.924,11.456-.132-1.619h0l.869.876-.737.743Zm.163,2.057,1.668-1.689,3.389,3.417-3.389,3.411-1.366-1.377Zm.5,6.319-.009-.149.078.079-.069.07Zm.589,7.281-.426-5.24,1-1.009,3.389,3.417-3.389,3.411-.574-.579Zm.31,3.9-.061-.782.326-.328,1.1,1.11Zm1.366-2.213,3.382-3.418,3.391,3.418-2.2,2.213h-2.39Zm6.772,2.213,1.1-1.11,1.1,1.11Zm4.39,0-2.2-2.213,3.391-3.418,3.382,3.418-2.187,2.213Zm4.577,0,1.1-1.11,1.1,1.11Zm10.333,0h-1.366l1.1-1.11.327.328Zm.317-3.9-.582.579-3.389-3.411,3.389-3.417,1,1.009Zm.6-7.437-.015.157-.071-.07.086-.086Zm.194-2.4-1.373,1.377-3.389-3.411,3.389-3.417,1.675,1.689Zm.466-5.81-.746-.752.877-.876Zm.922-11.473-.247,3.113-1.421-1.432,1.668-1.681Z" transform="translate(-2087.857 -1152.995)" fill="#e7e7e7"/>
          </g>
        </g>
        <rect id="Rectángulo_295093" data-name="Rectángulo 295093" width="40.961" height="4.354" rx="1.279" transform="translate(40.961 4.354) rotate(-180)" fill="#f0f0f0"/>
        <rect id="Rectángulo_295094" data-name="Rectángulo 295094" width="35.053" height="4.354" rx="1.279" transform="translate(2.953 39.101)" fill="#f0f0f0"/>
      </g>
      <g id="Grupo_134857" data-name="Grupo 134857" transform="translate(289.872 171.185)">
        <path id="Trazado_197383" data-name="Trazado 197383" d="M2308.281,1171.408l10.286-29.885s-14.266,10.663-14.171-1.159,6.5-2.641,8.722-7.008-6.329-4.32-3.327-10.942,11.529,3.552,13.035-2.314,3.909-8.848,10.119-8.322c0,0,3.357,7.718-.758,13.293s10.178,1.11,8.725,6.718-6.224,10.5-8.326,6.555-4.769,3.619-1.176,5.567-4.7,10.4-6.517,5.969a46.5,46.5,0,0,0-4.669-8.371l-9.479,31.975Z" transform="translate(-2268.947 -1109.761)" fill="#ececec"/>
        <path id="Trazado_197384" data-name="Trazado 197384" d="M2304.608,1167.229l-11.595-19.111s11.469,5.2,9.631-2.961-4.892-.838-7.086-3.521,3.733-3.953.663-8.078-7.445,4.214-9.366.385-4.031-5.528-8.249-4.218c0,0-1.166,5.851,2.517,9.083s-6.876,2.317-5.031,5.977,5.881,6.321,6.744,3.268,3.842,1.778,1.648,3.673,4.809,6.478,5.4,3.136a33.085,33.085,0,0,1,1.977-6.5l11.351,20.681Z" transform="translate(-2275.874 -1105.317)" fill="#e7e7e7"/>
        <path id="Trazado_197385" data-name="Trazado 197385" d="M2310.275,1172.251l-5.31-30.786s12.225,12.683,14,1.143-5.918-3.617-7.4-8.232,6.852-3.2,4.972-10.134-11.8,1.614-12.344-4.346-2.412-9.255-8.552-9.739c0,0-4.49,6.987-1.36,13.083s-10.1-.553-9.566,5.15,4.41,11.24,7.083,7.727,4.078,4.293.267,5.617,2.938,10.888,5.41,6.864a45.816,45.816,0,0,1,5.875-7.411l4.195,32.694Z" transform="translate(-2273.73 -1110.156)" fill="#f5f5f5"/>
        <g id="Grupo_134856" data-name="Grupo 134856" transform="translate(18.145 58.861)">
          <path id="Trazado_197386" data-name="Trazado 197386" d="M2314.981,1194.722h-18.229a2.42,2.42,0,0,1-2.407-2.282l-1.933-31.7a2.424,2.424,0,0,1,2.407-2.58h22.093a2.423,2.423,0,0,1,2.408,2.58l-1.931,31.7A2.421,2.421,0,0,1,2314.981,1194.722Z" transform="translate(-2290.003 -1156.873)" fill="#ececec"/>
          <path id="Trazado_197387" data-name="Trazado 197387" d="M2319.561,1162h-26.676a2.419,2.419,0,0,1-2.4-2.152h0a2.424,2.424,0,0,1,2.4-2.71h26.676a2.425,2.425,0,0,1,2.4,2.71h0A2.419,2.419,0,0,1,2319.561,1162Z" transform="translate(-2290.473 -1157.134)" fill="#f5f5f5"/>
        </g>
      </g>
      <g id="Grupo_134860" data-name="Grupo 134860" transform="translate(165.508 142.482)">
        <path id="Rectángulo_295095" data-name="Rectángulo 295095" d="M0,0H51.305a0,0,0,0,1,0,0V2.831a3.892,3.892,0,0,1-3.892,3.892H3.892A3.892,3.892,0,0,1,0,2.831V0A0,0,0,0,1,0,0Z" transform="translate(58.208 75.189) rotate(180)" fill="#e1e1e1"/>
        <path id="Trazado_197388" data-name="Trazado 197388" d="M2229.575,1182.839l-16.439-1.629v-23.291h-6.515V1181.2l-16.505,1.635a3.217,3.217,0,0,0-2.888,3.211v2.488h45.235v-2.488A3.217,3.217,0,0,0,2229.575,1182.839Z" transform="translate(-2173.039 -1069.372)" fill="#e1e1e1"/>
        <path id="Trazado_197389" data-name="Trazado 197389" d="M2193.719,1185.688a4.26,4.26,0,1,1-4.259-4.294A4.276,4.276,0,0,1,2193.719,1185.688Z" transform="translate(-2173.531 -1063.434)" fill="#e1e1e1"/>
        <path id="Trazado_197390" data-name="Trazado 197390" d="M2218.8,1185.688a4.26,4.26,0,1,0,4.261-4.294A4.277,4.277,0,0,0,2218.8,1185.688Z" transform="translate(-2165.372 -1063.434)" fill="#e1e1e1"/>
        <path id="Rectángulo_295096" data-name="Rectángulo 295096" d="M0,0H8.759a0,0,0,0,1,0,0V17.527a3.217,3.217,0,0,1-3.217,3.217H3.217A3.217,3.217,0,0,1,0,17.527V0A0,0,0,0,1,0,0Z" transform="translate(32.46 72.809)" fill="#e7e7e7"/>
        <path id="Trazado_197391" data-name="Trazado 197391" d="M2198.508,1156.146a288.411,288.411,0,0,0,8.47-60.7,8.484,8.484,0,0,1,8.455-8.194H2230.6a8.492,8.492,0,0,1,8.464,8.486c.06,13.929-.906,42.4-8.7,65.547l-28.866-1.073A3.233,3.233,0,0,1,2198.508,1156.146Z" transform="translate(-2170.325 -1087.248)" fill="#ececec"/>
        <g id="Grupo_134858" data-name="Grupo 134858" transform="translate(0 1.628)">
          <path id="Trazado_197392" data-name="Trazado 197392" d="M2201.771,1159.4a302.979,302.979,0,0,0,9.074-63.294,7.826,7.826,0,0,1,7.8-7.559h13.99a7.834,7.834,0,0,1,7.807,7.829c.054,12.848-.835,41.675-8.024,63.024Z" transform="translate(-2169.506 -1088.547)" fill="#e7e7e7"/>
          <path id="Trazado_197393" data-name="Trazado 197393" d="M2214.077,1129.335s-16.625-3.391-32.674-1.748,7.552,22.782,7.552,22.782h3.314s-12.507-13.4-11.81-16.742,32.193,1.062,32.193,1.062Z" transform="translate(-2175.811 -1078.786)" fill="#e7e7e7"/>
          <path id="Trazado_197394" data-name="Trazado 197394" d="M2231.746,1159.4h-27.222a302.891,302.891,0,0,0,9.078-63.292,7.825,7.825,0,0,1,7.8-7.559h10.561a7.839,7.839,0,0,1,7.811,7.829C2239.825,1109.22,2238.935,1138.05,2231.746,1159.4Z" transform="translate(-2168.838 -1088.547)" fill="#e1e1e1"/>
        </g>
        <g id="Grupo_134859" data-name="Grupo 134859" transform="translate(5.073 71.827)">
          <path id="Trazado_197395" data-name="Trazado 197395" d="M2181.561,1144.575h55.053a1.674,1.674,0,0,1,1.667,1.68h0a1.675,1.675,0,0,1-1.667,1.682h-55.053a1.675,1.675,0,0,1-1.668-1.682h0A1.674,1.674,0,0,1,2181.561,1144.575Z" transform="translate(-2179.893 -1144.575)" fill="#e1e1e1"/>
        </g>
      </g>
    </g>
    <g id="Grupo_134886" data-name="Grupo 134886" transform="translate(1009.56 1748)">
      <path id="Trazado_197396" data-name="Trazado 197396" d="M2237,964.348v308.337a4.486,4.486,0,0,1-4.538,4.505H2078.509a4.02,4.02,0,0,1-4.054-4.135V963.977a3.628,3.628,0,0,1,3.474-3.784h36.554a2.848,2.848,0,0,1,2.6,1.833l1.673,4.155a2.844,2.844,0,0,0,2.6,1.814h68.821a2.816,2.816,0,0,0,2.6-1.784l1.674-4.175a2.855,2.855,0,0,1,2.6-1.843h35.972A4.1,4.1,0,0,1,2237,964.348Z" transform="translate(-2074.455 -960.193)" fill="#ffb30b"/>
      <path id="Trazado_197397" data-name="Trazado 197397" d="M2237,964.348v308.337a4.486,4.486,0,0,1-4.538,4.505H2078.509a4.02,4.02,0,0,1-4.054-4.135V963.977a3.628,3.628,0,0,1,3.474-3.784h36.554a2.848,2.848,0,0,1,2.6,1.833l1.673,4.155a2.844,2.844,0,0,0,2.6,1.814h68.821a2.816,2.816,0,0,0,2.6-1.784l1.674-4.175a2.855,2.855,0,0,1,2.6-1.843h35.972A4.1,4.1,0,0,1,2237,964.348Z" transform="translate(-2074.455 -960.193)" fill="#fff" opacity="0.6" style="isolation: isolate"/>
      <g id="Grupo_134885" data-name="Grupo 134885" transform="translate(7.845 28.769)">
        <g id="Grupo_134864" data-name="Grupo 134864" transform="translate(0 205.281)">
          <path id="Rectángulo_295097" data-name="Rectángulo 295097" d="M2.633,0h34.8a2.633,2.633,0,0,1,2.633,2.633v35.12a2.633,2.633,0,0,1-2.633,2.633H2.634A2.634,2.634,0,0,1,0,37.754V2.633A2.633,2.633,0,0,1,2.633,0Z" transform="translate(0.357)" fill="#fff"/>
          <rect id="Rectángulo_295098" data-name="Rectángulo 295098" width="23.096" height="23.284" transform="translate(8.84 8.552)" fill="#00defc"/>
          <path id="Trazado_197398" data-name="Trazado 197398" d="M2087.879,1153.818V1177.1h23.1v-23.285Zm10.8,11.642-9.74,9.819v-19.639Zm-8.991-10.573h19.481l-9.74,9.818Zm9.74,11.329,9.74,9.818h-19.481Zm.75-.756,9.739-9.819v19.639Z" transform="translate(-2079.04 -1145.267)" fill="#fff" opacity="0.3" style="isolation: isolate"/>
          <g id="Grupo_134863" data-name="Grupo 134863" transform="translate(0 48.823)">
            <rect id="Rectángulo_295099" data-name="Rectángulo 295099" width="40.776" height="4.63" fill="#ffb30b"/>
            <g id="Grupo_134862" data-name="Grupo 134862" transform="translate(0.517 0.807)">
              <path id="Trazado_197399" data-name="Trazado 197399" d="M2082.34,1187.026h-1.157v-.422h2.791v.422h-1.157v2.981h-.478Z" transform="translate(-2081.183 -1186.604)" fill="#fff"/>
            </g>
          </g>
        </g>
        <g id="Grupo_134867" data-name="Grupo 134867" transform="translate(52.333 204.879)">
          <rect id="Rectángulo_295100" data-name="Rectángulo 295100" width="40.062" height="40.387" rx="2.633" transform="translate(0.357)" fill="#fff"/>
          <rect id="Rectángulo_295101" data-name="Rectángulo 295101" width="23.096" height="23.284" transform="translate(8.84 8.552)" fill="#00defc"/>
          <path id="Trazado_197400" data-name="Trazado 197400" d="M2129.986,1153.5v23.285h23.1V1153.5Zm10.8,11.642-9.739,9.819V1155.32Zm-8.991-10.574h19.481l-9.74,9.818Zm9.74,11.329,9.74,9.818h-19.481Zm.748-.756,9.74-9.819v19.639Z" transform="translate(-2121.146 -1144.946)" fill="#fff" opacity="0.3" style="isolation: isolate"/>
          <g id="Grupo_134866" data-name="Grupo 134866" transform="translate(0 48.823)">
            <rect id="Rectángulo_295102" data-name="Rectángulo 295102" width="40.777" height="4.63" fill="#ffb30b"/>
            <g id="Grupo_134865" data-name="Grupo 134865" transform="translate(0.517 0.807)">
              <path id="Trazado_197401" data-name="Trazado 197401" d="M2124.447,1186.705h-1.157v-.422h2.792v.422h-1.157v2.981h-.477Z" transform="translate(-2123.29 -1186.283)" fill="#fff"/>
            </g>
          </g>
        </g>
        <g id="Grupo_134870" data-name="Grupo 134870" transform="translate(104.667 204.476)">
          <path id="Rectángulo_295103" data-name="Rectángulo 295103" d="M2.633,0h34.8a2.634,2.634,0,0,1,2.634,2.634v35.12a2.633,2.633,0,0,1-2.633,2.633H2.633A2.633,2.633,0,0,1,0,37.754V2.633A2.633,2.633,0,0,1,2.633,0Z" transform="translate(0.357)" fill="#fff"/>
          <rect id="Rectángulo_295104" data-name="Rectángulo 295104" width="23.096" height="23.284" transform="translate(8.84 8.552)" fill="#00defc"/>
          <path id="Trazado_197402" data-name="Trazado 197402" d="M2172.093,1153.176v23.285h23.1v-23.285Zm10.8,11.642-9.739,9.819V1155Zm-8.991-10.573h19.481l-9.74,9.818Zm9.74,11.329,9.74,9.818H2173.9Zm.748-.756,9.74-9.819v19.639Z" transform="translate(-2163.254 -1144.625)" fill="#fff" opacity="0.3" style="isolation: isolate"/>
          <g id="Grupo_134869" data-name="Grupo 134869" transform="translate(0 48.823)">
            <rect id="Rectángulo_295105" data-name="Rectángulo 295105" width="40.777" height="4.63" fill="#ffb30b"/>
            <g id="Grupo_134868" data-name="Grupo 134868" transform="translate(0.517 0.807)">
              <path id="Trazado_197403" data-name="Trazado 197403" d="M2166.554,1186.384H2165.4v-.422h2.792v.422h-1.157v2.981h-.478Z" transform="translate(-2165.397 -1185.962)" fill="#fff"/>
            </g>
          </g>
        </g>
        <rect id="Rectángulo_295106" data-name="Rectángulo 295106" width="146.857" height="71.187" rx="1.514" fill="#fff"/>
        <g id="Grupo_134873" data-name="Grupo 134873" transform="translate(3.899 30.471)">
          <g id="Grupo_134871" data-name="Grupo 134871">
            <ellipse id="Elipse_4821" data-name="Elipse 4821" cx="3.253" cy="3.28" rx="3.253" ry="3.28" fill="#ffb30b"/>
            <path id="Trazado_197404" data-name="Trazado 197404" d="M2085.232,1010.439l2.513,1.718v-3.437Z" transform="translate(-2083.581 -1007.159)" fill="#fff"/>
          </g>
          <g id="Grupo_134872" data-name="Grupo 134872" transform="translate(132.552)">
            <ellipse id="Elipse_4822" data-name="Elipse 4822" cx="3.253" cy="3.28" rx="3.253" ry="3.28" fill="#ffb30b"/>
            <path id="Trazado_197405" data-name="Trazado 197405" d="M2194.952,1010.439l-2.513-1.718v3.437Z" transform="translate(-2190.096 -1007.159)" fill="#fff"/>
          </g>
        </g>
        <g id="Grupo_134875" data-name="Grupo 134875" transform="translate(24.377 17.225)">
          <rect id="Rectángulo_295107" data-name="Rectángulo 295107" width="81.943" height="8.235" fill="#00defc"/>
          <rect id="Rectángulo_295108" data-name="Rectángulo 295108" width="81.943" height="8.235" transform="translate(0 10.691)" fill="#00defc"/>
          <rect id="Rectángulo_295109" data-name="Rectángulo 295109" width="67.111" height="8.235" transform="translate(0 22.199)" fill="#00defc"/>
          <g id="Grupo_134874" data-name="Grupo 134874" transform="translate(0.92 1.435)">
            <path id="Trazado_197406" data-name="Trazado 197406" d="M2103.178,998.8h-2.058v-.752h4.966v.752h-2.06v5.3h-.849Z" transform="translate(-2101.12 -998.047)" fill="#fff"/>
          </g>
        </g>
        <g id="Grupo_134876" data-name="Grupo 134876" transform="translate(57.128 65.741)">
          <path id="Trazado_197407" data-name="Trazado 197407" d="M2129.667,1037.1a1.467,1.467,0,1,1-1.467-1.48A1.472,1.472,0,0,1,2129.667,1037.1Z" transform="translate(-2126.732 -1035.623)" fill="#ffb30b"/>
          <path id="Trazado_197408" data-name="Trazado 197408" d="M2135.634,1037.1a1.467,1.467,0,1,1-1.467-1.48A1.472,1.472,0,0,1,2135.634,1037.1Z" transform="translate(-2125.283 -1035.623)" fill="#ffb30b"/>
          <path id="Trazado_197409" data-name="Trazado 197409" d="M2141.6,1037.1a1.467,1.467,0,1,1-1.467-1.48A1.472,1.472,0,0,1,2141.6,1037.1Z" transform="translate(-2123.833 -1035.623)" fill="#ffb30b"/>
          <path id="Trazado_197410" data-name="Trazado 197410" d="M2147.567,1037.1a1.467,1.467,0,1,1-1.467-1.48A1.472,1.472,0,0,1,2147.567,1037.1Z" transform="translate(-2122.385 -1035.623)" fill="#ffb30b"/>
          <path id="Trazado_197411" data-name="Trazado 197411" d="M2153.535,1037.1a1.467,1.467,0,1,1-1.467-1.48A1.472,1.472,0,0,1,2153.535,1037.1Z" transform="translate(-2120.935 -1035.623)" fill="#ffb30b"/>
        </g>
        <rect id="Rectángulo_295110" data-name="Rectángulo 295110" width="146.857" height="11.565" transform="translate(0 81.241)" fill="#fff"/>
        <rect id="Rectángulo_295111" data-name="Rectángulo 295111" width="11.738" height="11.834" transform="translate(135.119 81.106)" fill="#ffb30b"/>
        <g id="Grupo_134880" data-name="Grupo 134880" transform="translate(0 101.75)">
          <rect id="Rectángulo_295112" data-name="Rectángulo 295112" width="135.246" height="44.93" rx="2.024" fill="#fff"/>
          <rect id="Rectángulo_295113" data-name="Rectángulo 295113" width="42.3" height="32.471" transform="translate(6.034 6.229)" fill="#00defc"/>
          <g id="Grupo_134877" data-name="Grupo 134877" transform="translate(6.034 6.23)">
            <path id="Trazado_197412" data-name="Trazado 197412" d="M2085.622,1069.335v32.471h42.3v-32.471Zm40.373.975-19.224,14.65-19.225-14.65Zm-39.406.492,19.38,14.768-19.38,14.767Zm.958,30.028,19.225-14.648L2126,1100.83Zm20.026-15.26,19.381-14.768v29.536Z" transform="translate(-2085.622 -1069.335)" fill="#fff" opacity="0.3" style="isolation: isolate"/>
          </g>
          <g id="Grupo_134879" data-name="Grupo 134879" transform="translate(54.903 6.714)">
            <rect id="Rectángulo_295114" data-name="Rectángulo 295114" width="74.982" height="4.229" fill="#ffb30b"/>
            <rect id="Rectángulo_295115" data-name="Rectángulo 295115" width="74.982" height="4.229" transform="translate(0 7.441)" fill="#ffb30b"/>
            <rect id="Rectángulo_295116" data-name="Rectángulo 295116" width="34.468" height="4.229" transform="translate(0 15.303)" fill="#ffb30b"/>
            <g id="Grupo_134878" data-name="Grupo 134878" transform="translate(0.472 0.737)">
              <path id="Trazado_197413" data-name="Trazado 197413" d="M2126.379,1070.7h-1.058v-.386h2.551v.386h-1.057v2.723h-.436Z" transform="translate(-2125.321 -1070.31)" fill="#fff"/>
            </g>
          </g>
        </g>
        <g id="Grupo_134884" data-name="Grupo 134884" transform="translate(0 150.519)">
          <rect id="Rectángulo_295117" data-name="Rectángulo 295117" width="135.246" height="44.93" rx="2.024" fill="#fff"/>
          <rect id="Rectángulo_295118" data-name="Rectángulo 295118" width="42.3" height="32.471" transform="translate(6.034 6.229)" fill="#00defc"/>
          <g id="Grupo_134881" data-name="Grupo 134881" transform="translate(6.034 6.229)">
            <path id="Trazado_197414" data-name="Trazado 197414" d="M2085.622,1108.258v32.471h42.3v-32.471Zm40.373.976-19.224,14.648-19.225-14.648Zm-39.406.492,19.38,14.767-19.38,14.769Zm.958,30.028,19.225-14.649L2126,1139.755Zm20.026-15.261,19.381-14.767v29.536Z" transform="translate(-2085.622 -1108.258)" fill="#fff" opacity="0.3" style="isolation: isolate"/>
          </g>
          <g id="Grupo_134883" data-name="Grupo 134883" transform="translate(54.903 6.714)">
            <rect id="Rectángulo_295119" data-name="Rectángulo 295119" width="74.982" height="4.229" fill="#ffb30b"/>
            <rect id="Rectángulo_295120" data-name="Rectángulo 295120" width="74.982" height="4.229" transform="translate(0 7.441)" fill="#ffb30b"/>
            <rect id="Rectángulo_295121" data-name="Rectángulo 295121" width="34.468" height="4.229" transform="translate(0 15.303)" fill="#ffb30b"/>
            <g id="Grupo_134882" data-name="Grupo 134882" transform="translate(0.472 0.737)">
              <path id="Trazado_197415" data-name="Trazado 197415" d="M2126.379,1109.619h-1.058v-.386h2.551v.386h-1.057v2.723h-.436Z" transform="translate(-2125.321 -1109.233)" fill="#fff"/>
            </g>
          </g>
        </g>
        <rect id="Rectángulo_295122" data-name="Rectángulo 295122" width="5.228" height="93.652" transform="translate(140.215 101.797)" fill="#fff"/>
        <rect id="Rectángulo_295123" data-name="Rectángulo 295123" width="5.228" height="14.671" transform="translate(140.215 106.886)" fill="#ffb30b"/>
      </g>
      <path id="Trazado_197416" data-name="Trazado 197416" d="M2237,964.35v15.108H2074.455V963.979a3.628,3.628,0,0,1,3.474-3.785h36.552a2.849,2.849,0,0,1,2.6,1.834l1.673,4.155a2.846,2.846,0,0,0,2.6,1.814h68.821a2.815,2.815,0,0,0,2.6-1.785l1.674-4.174a2.855,2.855,0,0,1,2.6-1.844h35.972A4.1,4.1,0,0,1,2237,964.35Z" transform="translate(-2074.455 -960.193)" fill="#00defc"/>
      <path id="Trazado_197417" data-name="Trazado 197417" d="M2074.455,1196.849H2237v15.976a4.487,4.487,0,0,1-4.538,4.507H2078.509a4.02,4.02,0,0,1-4.054-4.136Z" transform="translate(-2074.455 -900.332)" fill="#00defc"/>
    </g>
    <g id="Grupo_134888" data-name="Grupo 134888" transform="translate(971.869 1749.6)">
      <rect id="Rectángulo_295124" data-name="Rectángulo 295124" width="29.473" height="14.464" fill="#00defc"/>
      <g id="Grupo_134887" data-name="Grupo 134887" transform="translate(4.88 3.945)">
        <line id="Línea_386" data-name="Línea 386" x2="19.712" fill="none" stroke="#fff" stroke-linecap="round" stroke-linejoin="round" stroke-width="0.778"/>
        <line id="Línea_387" data-name="Línea 387" x2="19.712" transform="translate(0 3.287)" fill="none" stroke="#fff" stroke-linecap="round" stroke-linejoin="round" stroke-width="0.778"/>
        <line id="Línea_388" data-name="Línea 388" x2="9.856" transform="translate(0 6.573)" fill="none" stroke="#fff" stroke-linecap="round" stroke-linejoin="round" stroke-width="0.778"/>
      </g>
      <line id="Línea_389" data-name="Línea 389" x2="29.09" y2="25.434" transform="translate(20.621 13.87)" fill="none" stroke="#007cff" stroke-miterlimit="10" stroke-width="0.778"/>
      <ellipse id="Elipse_4823" data-name="Elipse 4823" cx="1.758" cy="1.773" rx="1.758" ry="1.773" transform="translate(47.953 37.531)" fill="#ffb30b"/>
    </g>
    <g id="Grupo_134890" data-name="Grupo 134890" transform="translate(968.966 1929.373)">
      <rect id="Rectángulo_295125" data-name="Rectángulo 295125" width="29.473" height="14.464" fill="#00defc"/>
      <g id="Grupo_134889" data-name="Grupo 134889" transform="translate(4.88 3.945)">
        <line id="Línea_390" data-name="Línea 390" x2="19.712" fill="none" stroke="#fff" stroke-linecap="round" stroke-linejoin="round" stroke-width="0.778"/>
        <line id="Línea_391" data-name="Línea 391" x2="19.712" transform="translate(0 3.287)" fill="none" stroke="#fff" stroke-linecap="round" stroke-linejoin="round" stroke-width="0.778"/>
        <line id="Línea_392" data-name="Línea 392" x2="9.856" transform="translate(0 6.573)" fill="none" stroke="#fff" stroke-linecap="round" stroke-linejoin="round" stroke-width="0.778"/>
      </g>
      <ellipse id="Elipse_4824" data-name="Elipse 4824" cx="1.758" cy="1.773" rx="1.758" ry="1.773" transform="translate(47.953 5.46)" fill="#ffb30b"/>
      <line id="Línea_393" data-name="Línea 393" x1="22.009" transform="translate(27.702 7.232)" fill="none" stroke="#007cff" stroke-miterlimit="10" stroke-width="0.778"/>
    </g>
    <g id="Grupo_134892" data-name="Grupo 134892" transform="translate(1142.164 1818.07)">
      <rect id="Rectángulo_295126" data-name="Rectángulo 295126" width="29.473" height="14.464" transform="translate(34.983)" fill="#008597"/>
      <g id="Grupo_134891" data-name="Grupo 134891" transform="translate(39.863 3.945)">
        <line id="Línea_394" data-name="Línea 394" x2="19.712" fill="none" stroke="#fff" stroke-linecap="round" stroke-linejoin="round" stroke-width="0.778"/>
        <line id="Línea_395" data-name="Línea 395" x2="19.712" transform="translate(0 3.287)" fill="none" stroke="#fff" stroke-linecap="round" stroke-linejoin="round" stroke-width="0.778"/>
        <line id="Línea_396" data-name="Línea 396" x2="9.856" transform="translate(0 6.573)" fill="none" stroke="#fff" stroke-linecap="round" stroke-linejoin="round" stroke-width="0.778"/>
      </g>
      <ellipse id="Elipse_4825" data-name="Elipse 4825" cx="1.758" cy="1.773" rx="1.758" ry="1.773" transform="translate(0 41.432)" fill="#ffb30b"/>
      <line id="Línea_397" data-name="Línea 397" y1="32.071" x2="42.504" transform="translate(1.758 11.134)" fill="none" stroke="#007cff" stroke-miterlimit="10" stroke-width="0.778"/>
    </g>
    <g id="Grupo_134894" data-name="Grupo 134894" transform="translate(1145.052 2010.148)">
      <rect id="Rectángulo_295127" data-name="Rectángulo 295127" width="29.473" height="14.464" transform="translate(34.982)" fill="#008597"/>
      <g id="Grupo_134893" data-name="Grupo 134893" transform="translate(39.862 3.945)">
        <line id="Línea_398" data-name="Línea 398" x2="19.712" fill="none" stroke="#fff" stroke-linecap="round" stroke-linejoin="round" stroke-width="0.778"/>
        <line id="Línea_399" data-name="Línea 399" x2="19.712" transform="translate(0 3.287)" fill="none" stroke="#fff" stroke-linecap="round" stroke-linejoin="round" stroke-width="0.778"/>
        <line id="Línea_400" data-name="Línea 400" x2="9.856" transform="translate(0 6.573)" fill="none" stroke="#fff" stroke-linecap="round" stroke-linejoin="round" stroke-width="0.778"/>
      </g>
      <path id="Trazado_197418" data-name="Trazado 197418" d="M2186.987,1175.549a1.758,1.758,0,1,1-1.759-1.773A1.765,1.765,0,0,1,2186.987,1175.549Z" transform="translate(-2183.471 -1168.317)" fill="#ffb30b"/>
      <line id="Línea_401" data-name="Línea 401" x2="35.397" transform="translate(1.758 7.232)" fill="none" stroke="#007cff" stroke-miterlimit="10" stroke-width="0.778"/>
    </g>
    <g id="Grupo_134910" data-name="Grupo 134910" transform="translate(1198.698 1800.192)">
      <g id="Grupo_134895" data-name="Grupo 134895" transform="translate(13.475 57.582)">
        <path id="Trazado_197419" data-name="Trazado 197419" d="M2264.485,1047.806c-3.258.149-16.913,18.635-16.913,18.635l-5.071-6.646s-7.818,15.312-3.951,22.6,24.249-12.635,24.249-12.635Z" transform="translate(-2237.476 -1047.806)" fill="#ffb30b"/>
        <path id="Trazado_197420" data-name="Trazado 197420" d="M2264.487,1047.808l-1.346,14.743-.343,7.207s-3.351,3.274-7.588,6.678c-6.221,5.007-14.358,10.29-16.661,5.959-3.867-7.285,3.952-22.6,3.952-22.6l5.07,6.644.035-.053C2248.38,1065.27,2261.333,1047.947,2264.487,1047.808Z" transform="translate(-2237.476 -1047.806)" fill="#008597"/>
      </g>
      <path id="Trazado_197421" data-name="Trazado 197421" d="M2259.679,1061.063l-.343,7.207s-3.351,3.274-7.588,6.678c-.4-8.654,7.588-21.257,7.588-21.257Z" transform="translate(-2220.539 -988.736)" opacity="0.2" style="isolation: isolate"/>
      <path id="Trazado_197422" data-name="Trazado 197422" d="M2245.872,1062.861l.729,1.407-2.125,8.337s5.861-5.378,2.125-10.646Z" transform="translate(-2222.301 -986.645)" opacity="0.2" style="isolation: isolate"/>
      <g id="Grupo_134896" data-name="Grupo 134896" transform="translate(38.795 57.011)">
        <path id="Trazado_197423" data-name="Trazado 197423" d="M2258.95,1094.141l27.5,2.141s.374-16.56,2.565-25.179c.714-2.789,1.607-5.925,2.741-9.562.481-1.542,1.005-3.17,1.581-4.912.525-1.62,1.1-3.344,1.728-5.155a82.1,82.1,0,0,0-11.5-2.8,88.144,88.144,0,0,0-12.442-1.324c-5.388-.044-11.583.571-11.583.571s-.877.217-1.436,5.968C2257.6,1059.306,2257.833,1074.47,2258.95,1094.141Z" transform="translate(-2257.848 -1047.35)" fill="#ffb30b"/>
        <path id="Trazado_197424" data-name="Trazado 197424" d="M2258.952,1094.137l27.5,2.14s.009-.338.026-.953c.121-3.63.662-16.84,2.534-24.219.507-1.992,1.109-4.166,1.831-6.565.283-.962.584-1.958.911-3,.481-1.542,1.005-3.171,1.581-4.912.525-1.62,1.1-3.344,1.726-5.155-1.495-.485-3.007-.918-4.528-1.317-2.294-.589-4.622-1.083-6.969-1.481a88.307,88.307,0,0,0-12.442-1.326c-3.47-.025-7.277.217-9.545.4-1.255.1-2.037.174-2.037.174s-.876.217-1.434,5.968C2257.595,1059.307,2257.834,1074.466,2258.952,1094.137Z" transform="translate(-2257.848 -1047.35)" fill="#008597"/>
      </g>
      <path id="Trazado_197425" data-name="Trazado 197425" d="M2270.816,1055.327c6.831-.883,8.884-3.829,8.884-3.829-2.791-2.65-2.284-6.565-1.572-9.009a14.036,14.036,0,0,1,.843-2.251l-8.223,1.55a24.071,24.071,0,0,1,.318,3.491,10.632,10.632,0,0,1-.232,2.565c-.56,2.477-1.959,2.512-1.959,2.512C2267.431,1053.074,2270.816,1055.327,2270.816,1055.327Z" transform="translate(-2216.462 -992.139)" fill="#fcb373"/>
      <path id="Trazado_197426" data-name="Trazado 197426" d="M2270.63,1045.279a10.607,10.607,0,0,1-.232,2.565c3.265-.433,5.74-3.067,7.294-5.354a14.021,14.021,0,0,1,.843-2.251l-8.223,1.55A24.036,24.036,0,0,1,2270.63,1045.279Z" transform="translate(-2216.027 -992.139)" opacity="0.2" style="isolation: isolate"/>
      <g id="Grupo_134899" data-name="Grupo 134899" transform="translate(44.044 8.279)">
        <path id="Trazado_197427" data-name="Trazado 197427" d="M2288.753,1015.936h2.385c-.533-2.764-4.079-6.491-7.932-5.5a13.83,13.83,0,0,1,2.229-1.789,8.491,8.491,0,0,0-7.8,2.3c-3.331,3.459-5.075,10.619-2.155,13.418.371.356.828.251,1.324-.167,2.5,3.4,6.013.258,6.628.167.68-.1.145,1.773.145,1.773,2.014.053,2.492-2.572,2.492-2.572l1.914,2.572a5.666,5.666,0,0,0,1.4-5.117l1.743,1.13C2291.475,1017.517,2288.753,1015.936,2288.753,1015.936Z" transform="translate(-2259.175 -1008.457)" fill="#1a2e35"/>
        <path id="Trazado_197428" data-name="Trazado 197428" d="M2262.839,1036.281s-4.046-10.753,6.449-16.026,16.62,2.214,17,9.467-1.913,13.511-5.358,14.755S2262.839,1036.281,2262.839,1036.281Z" transform="translate(-2262.072 -1005.92)" fill="#1a2e35"/>
        <path id="Trazado_197429" data-name="Trazado 197429" d="M2271.049,1023.918c-7.082,1.031-8.813,5.185-8.279,12.618.669,9.288,3.628,15.527,12.2,12.273C2286.614,1044.391,2282.81,1022.205,2271.049,1023.918Z" transform="translate(-2261.924 -1004.57)" fill="#fcb373"/>
        <path id="Trazado_197430" data-name="Trazado 197430" d="M2266.71,1033.119a15.323,15.323,0,0,1-1.637,3.261,1.958,1.958,0,0,0,1.982.535Z" transform="translate(-2261.343 -1002.218)" fill="#ec873e"/>
        <g id="Grupo_134897" data-name="Grupo 134897" transform="translate(9.031 28.196)">
          <path id="Trazado_197431" data-name="Trazado 197431" d="M2269.813,1032.382c.071.589.443,1.027.833.98s.647-.563.577-1.15-.443-1.027-.833-.98S2269.742,1031.794,2269.813,1032.382Z" transform="translate(-2269.226 -1030.892)" fill="#1a2e35"/>
          <path id="Trazado_197432" data-name="Trazado 197432" d="M2270.668,1031.308l-1.33-.349S2270.1,1031.96,2270.668,1031.308Z" transform="translate(-2269.338 -1030.96)" fill="#1a2e35"/>
        </g>
        <g id="Grupo_134898" data-name="Grupo 134898" transform="translate(1.76 28.956)">
          <path id="Trazado_197433" data-name="Trazado 197433" d="M2263.962,1032.989c.07.589.442,1.027.831.98s.647-.562.578-1.151-.444-1.027-.833-.98S2263.892,1032.4,2263.962,1032.989Z" transform="translate(-2263.376 -1031.5)" fill="#1a2e35"/>
          <path id="Trazado_197434" data-name="Trazado 197434" d="M2264.816,1031.914l-1.328-.347S2264.249,1032.567,2264.816,1031.914Z" transform="translate(-2263.488 -1031.567)" fill="#1a2e35"/>
        </g>
        <path id="Trazado_197435" data-name="Trazado 197435" d="M2269.3,1028.232a3.7,3.7,0,0,1,3.227.633" transform="translate(-2260.316 -1003.487)" fill="none" stroke="#1a2e35" stroke-linecap="round" stroke-linejoin="round" stroke-width="0.551"/>
        <path id="Trazado_197436" data-name="Trazado 197436" d="M2265.657,1028.57a3.323,3.323,0,0,0-2.738,1" transform="translate(-2261.866 -1003.376)" fill="none" stroke="#1a2e35" stroke-linecap="round" stroke-linejoin="round" stroke-width="0.551"/>
        <path id="Trazado_197437" data-name="Trazado 197437" d="M2280.58,1035.436s-4.152-5.384-4.3-9.985c0,0-14.862-3.736-13.5,10.724,0,0-3.2-12.551,8.935-14.608,12.114-2.053,14.655,15.906,9.134,22.171C2280.853,1043.738,2283.154,1038.806,2280.58,1035.436Z" transform="translate(-2261.991 -1005.181)" fill="#1a2e35"/>
        <path id="Trazado_197438" data-name="Trazado 197438" d="M2276.273,1034.616a3.158,3.158,0,0,1,2.934-3.349c2.229-.078,3.926,4.313-1.377,6.2C2277.07,1037.738,2276.518,1037.03,2276.273,1034.616Z" transform="translate(-2258.625 -1002.687)" fill="#fcb373"/>
        <path id="Trazado_197439" data-name="Trazado 197439" d="M2267.878,1039.652a3.809,3.809,0,0,0,3.916-2.6" transform="translate(-2260.662 -1001.223)" fill="none" stroke="#1a2e35" stroke-linecap="round" stroke-linejoin="round" stroke-width="0.551"/>
      </g>
      <g id="Grupo_134900" data-name="Grupo 134900" transform="translate(24.291 53.261)">
        <path id="Trazado_197440" data-name="Trazado 197440" d="M2257.4,1060.887a.7.7,0,0,1-.71.8h-7.854a.916.916,0,0,1-.888-.8l-1.754-15.626a.793.793,0,0,1,.71-.9h7.853a1.022,1.022,0,0,1,.889.9Z" transform="translate(-2246.177 -1044.358)" fill="#1a2e35"/>
        <path id="Trazado_197441" data-name="Trazado 197441" d="M2254.774,1045.16l1.777,15.776a.6.6,0,0,1-.617.747h-6.659c-.447,0-1.265-.248-1.316-.693l-1.776-15.829c-.051-.446.712-.8,1.159-.8H2254A.812.812,0,0,1,2254.774,1045.16Z" transform="translate(-2246.179 -1044.358)" fill="#fff" opacity="0.5"/>
      </g>
      <path id="Trazado_197442" data-name="Trazado 197442" d="M2241.97,1061.436l4.093-7a23.361,23.361,0,0,1,.347-4.548c.358-.866,4.367-2.82,5.156-2.528s1.074,7.514.358,8.486a10.737,10.737,0,0,1-3.223,2.055l.171,1.372-2.391,7.291Z" transform="translate(-2222.91 -990.345)" fill="#fcb373"/>
      <path id="Trazado_197443" data-name="Trazado 197443" d="M2240.645,1058.232l1.361-1.372,6.444,7.291-.918,2.887Z" transform="translate(-2223.232 -987.934)" fill="#ffb30b"/>
      <path id="Trazado_197444" data-name="Trazado 197444" d="M2266.914,1069.545s7.579,17.4,17.356,23.04c.121-3.628.663-16.838,2.535-24.219.507-1.992,1.108-4.166,1.83-6.566l-2.982-3.612s-2.062,6.445-1.151,12.041l-11.4-7.043Z" transform="translate(-2216.852 -987.599)" opacity="0.2" style="isolation: isolate"/>
      <path id="Trazado_197445" data-name="Trazado 197445" d="M2276.914,1067.248l-9.305-7.36a32.958,32.958,0,0,0-1.975-4.635c-.567-.685-8.725-3.72-9.4-3.8s-.041,6.738,1.021,7.9,7.591,3.445,7.591,3.445l9.743,9.25Z" transform="translate(-2219.515 -989.302)" fill="#fcb373"/>
      <g id="Grupo_134901" data-name="Grupo 134901" transform="translate(50.744 61.135)">
        <path id="Trazado_197446" data-name="Trazado 197446" d="M2292.726,1050.642c5.464,2.76,7.895,33.871-1.594,39.244s-23.668-18.9-23.668-18.9l5.509-5.893s11.551,9.749,12.946,8.854-.191-10.423-.191-10.423-1.625-2.884,1.793-7.416S2292.726,1050.642,2292.726,1050.642Z" transform="translate(-2267.463 -1050.642)" fill="#ffb30b"/>
        <path id="Trazado_197447" data-name="Trazado 197447" d="M2292.726,1050.642c5.464,2.76,7.895,33.871-1.594,39.244s-23.668-18.9-23.668-18.9l5.509-5.893s11.551,9.749,12.946,8.854-.191-10.423-.191-10.423-1.625-2.884,1.793-7.416S2292.726,1050.642,2292.726,1050.642Z" transform="translate(-2267.463 -1050.642)" fill="#008597"/>
      </g>
      <path id="Trazado_197448" data-name="Trazado 197448" d="M2267.7,1070.649l-1.649-1,6.188-9.145,2.272,1.277Z" transform="translate(-2217.062 -987.012)" fill="#ffb30b"/>
      <path id="Trazado_197449" data-name="Trazado 197449" d="M2260.845,1047.751a5.208,5.208,0,0,0,1.134,3.1,7.437,7.437,0,0,0,1.831,1.664c1.761,1.178,4.528,2.209,8.8,2.78a26.44,26.44,0,0,0,7.063.06,19.163,19.163,0,0,0,3.034-.667,14.984,14.984,0,0,0,7.1-4.531q-2.269-.584-4.58-1.03c-.4-.086-.79-.166-1.186-.234s-.8-.147-1.2-.217a88.311,88.311,0,0,0-12.442-1.326c-1.5-.008-3.059.026-4.536.088-.644.034-1.28.06-1.882.1C2262.777,1047.6,2261.7,1047.682,2260.845,1047.751Z" transform="translate(-2218.325 -990.339)" fill="#fcb373"/>
      <path id="Trazado_197450" data-name="Trazado 197450" d="M2275.992,1055.044a19.162,19.162,0,0,0,3.034-.667,10.167,10.167,0,0,1,2.517-5.561c-.4-.086-.79-.165-1.186-.234C2278,1050.255,2276.62,1053.3,2275.992,1055.044Z" transform="translate(-2214.647 -990.028)" fill="#1a2e35"/>
      <path id="Trazado_197451" data-name="Trazado 197451" d="M2261.757,1050.834a7.438,7.438,0,0,0,1.831,1.664,7.922,7.922,0,0,1,2.045-5.076c-.644.034-1.28.06-1.882.1A10.534,10.534,0,0,0,2261.757,1050.834Z" transform="translate(-2218.104 -990.322)" fill="#1a2e35"/>
      <g id="Grupo_134903" data-name="Grupo 134903" transform="translate(34.697)">
        <path id="Trazado_197452" data-name="Trazado 197452" d="M2257.271,1001.849h9.96a2.731,2.731,0,0,1,2.719,2.742v7.843a2.73,2.73,0,0,1-2.719,2.741h-3.662l-1.318,3.23-1.319-3.23h-3.662a2.73,2.73,0,0,1-2.719-2.741v-7.843A2.731,2.731,0,0,1,2257.271,1001.849Z" transform="translate(-2254.551 -1001.849)" fill="#008597"/>
        <g id="Grupo_134902" data-name="Grupo 134902" transform="translate(3.973 2.45)">
          <path id="Trazado_197453" data-name="Trazado 197453" d="M2265.192,1008.142l-1.887-.028a15.153,15.153,0,0,1-.441-4.283,3.428,3.428,0,0,0-.973.021c-.317.094-.417,3.378-.417,3.378a28.171,28.171,0,0,0-3.58-.073c-.116.093-.142.6-.145.96a.431.431,0,0,0,.348.43l.117.022.174,3.267a.475.475,0,0,0,.469.452l3.168.02a1.537,1.537,0,0,0,.88-.269l.344-.236,1.954.135Z" transform="translate(-2257.748 -1003.805)" fill="#ffb30b"/>
          <path id="Trazado_197454" data-name="Trazado 197454" d="M2265.192,1008.142l-1.887-.028a15.153,15.153,0,0,1-.441-4.283,3.428,3.428,0,0,0-.973.021c-.317.094-.417,3.378-.417,3.378a28.171,28.171,0,0,0-3.58-.073c-.116.093-.142.6-.145.96a.431.431,0,0,0,.348.43l.117.022.174,3.267a.475.475,0,0,0,.469.452l3.168.02a1.537,1.537,0,0,0,.88-.269l.344-.236,1.954.135Z" transform="translate(-2257.748 -1003.805)" fill="#00defc"/>
        </g>
      </g>
      <path id="Trazado_197455" data-name="Trazado 197455" d="M2237.95,1206.965l5.793,1.013,2.376-7.821,2.168-7.178-6.68-2.31-1.939,8.627Z" transform="translate(-2223.886 -954.088)" fill="#fd897b"/>
      <g id="Grupo_134905" data-name="Grupo 134905" transform="translate(0 250.01)">
        <path id="Trazado_197456" data-name="Trazado 197456" d="M2247.8,1204.668c.1-.635-7.837-1.511-7.837-1.511s-5.7,4.017-10.579,4.29-2.76,3.517,2.481,4.433l12.966,2.266C2248.552,1214.8,2246.784,1211.25,2247.8,1204.668Z" transform="translate(-2226.634 -1200.939)" fill="#1a2e35"/>
        <g id="Grupo_134904" data-name="Grupo 134904" transform="translate(8.033)">
          <path id="Trazado_197457" data-name="Trazado 197457" d="M2233.25,1204.563a.751.751,0,0,1-.043-.862.856.856,0,0,1,.514-.452,3.319,3.319,0,0,1,1.792.118c-.578-.449-1.064-.956-1.014-1.368.032-.269.245-.458.633-.564a1.234,1.234,0,0,1,1.019.15c.984.623,1.321,2.546,1.336,2.636a.207.207,0,0,1,0,.093h0a.162.162,0,0,1-.022.049h0a.215.215,0,0,1-.053.058h0a.224.224,0,0,1-.068.033,12.523,12.523,0,0,1-2.844.461A1.679,1.679,0,0,1,2233.25,1204.563Zm.613-.922a.441.441,0,0,0-.272.232c-.133.292-.049.388-.022.42.317.367,1.83.19,3.073-.093A5.252,5.252,0,0,0,2233.862,1203.641Zm1.38-1.8c-.117.031-.313.1-.326.209-.042.353.973,1.154,2.057,1.8a3.468,3.468,0,0,0-1.049-1.906.809.809,0,0,0-.44-.134A.929.929,0,0,0,2235.242,1201.837Z" transform="translate(-2233.098 -1201.387)" fill="#ffb30b"/>
        </g>
      </g>
      <path id="Trazado_197458" data-name="Trazado 197458" d="M2239.307,1199.465l6.455.841,2.182-7.257-6.672-2.349Z" transform="translate(-2223.557 -954.081)" opacity="0.2" style="isolation: isolate"/>
      <path id="Trazado_197459" data-name="Trazado 197459" d="M2269.069,1209h5.883l.966-8.111.874-7.442-6.983-1.125-.4,8.83Z" transform="translate(-2216.329 -953.669)" fill="#fd897b"/>
      <path id="Trazado_197460" data-name="Trazado 197460" d="M2278.749,1205.4c-.017-.642-7.984-.138-7.984-.138s-4.9,4.937-9.665,6.046-2.1,3.939,3.222,3.939h13.166C2281.27,1215.251,2278.906,1212.061,2278.749,1205.4Z" transform="translate(-2218.866 -950.443)" fill="#1a2e35"/>
      <g id="Grupo_134906" data-name="Grupo 134906" transform="translate(46.769 253.121)">
        <path id="Trazado_197461" data-name="Trazado 197461" d="M2264.5,1207.4a.754.754,0,0,1-.192-.841.849.849,0,0,1,.426-.534,3.275,3.275,0,0,1,1.786-.193c-.647-.343-1.215-.759-1.239-1.174-.016-.269.16-.492.523-.663a1.238,1.238,0,0,1,1.031-.027c1.081.445,1.75,2.287,1.778,2.364a.206.206,0,0,1-.008.159.182.182,0,0,1-.029.044h0a.192.192,0,0,1-.071.054,10.052,10.052,0,0,1-3.3,1A1.108,1.108,0,0,1,2264.5,1207.4Zm.443-1.014a.436.436,0,0,0-.228.276c-.079.31.02.391.052.417.375.306,1.836-.129,3.01-.621A5.26,5.26,0,0,0,2264.941,1206.387Zm1.041-2.015c-.109.051-.289.154-.283.263.02.356,1.16.97,2.34,1.413a3.475,3.475,0,0,0-1.367-1.7.821.821,0,0,0-.69.02Z" transform="translate(-2264.264 -1203.87)" fill="#ffb30b"/>
      </g>
      <path id="Trazado_197462" data-name="Trazado 197462" d="M2269.346,1201.327l6.5-.283.874-7.522-6.983-1.165Z" transform="translate(-2216.261 -953.661)" opacity="0.2" style="isolation: isolate"/>
      <g id="Grupo_134907" data-name="Grupo 134907" transform="translate(15.205 102.041)">
        <path id="Trazado_197463" data-name="Trazado 197463" d="M2238.868,1222.081l9.523,1.663c9.611-23.708,16.447-43.5,21.274-59.92,2.6-8.861,4.627-16.741,6.184-23.733l-.436,25.81v58.626h9.672c23.526-111.089,6.854-136.476,6.854-136.476l-28.144-4.761a124.794,124.794,0,0,0-2.358,15.6l-1.27,9.214-11,56.251Z" transform="translate(-2238.868 -1083.29)" fill="#ffb30b"/>
        <path id="Trazado_197464" data-name="Trazado 197464" d="M2238.868,1222.081l9.523,1.663c9.611-23.708,16.447-43.5,21.274-59.92,2.6-8.861,4.627-16.741,6.184-23.733l-.436,25.81v58.626h9.672c23.526-111.089,6.854-136.476,6.854-136.476l-28.144-4.761a124.794,124.794,0,0,0-2.358,15.6l-1.27,9.214-11,56.251Z" transform="translate(-2238.868 -1083.29)" fill="#fff" opacity="0.6" style="isolation: isolate"/>
      </g>
      <path id="Trazado_197465" data-name="Trazado 197465" d="M2250.041,1195.242l-11.813-3.878.16,4.975,9.77,3.085Z" transform="translate(-2223.819 -953.912)" fill="#ffb30b"/>
      <path id="Trazado_197466" data-name="Trazado 197466" d="M2279.476,1195.251l-12.314-1.785,1.031,4.872,10.163,1.356Z" transform="translate(-2216.792 -953.38)" fill="#ffb30b"/>
      <path id="Trazado_197467" data-name="Trazado 197467" d="M2287.177,1084.36v4.16l-28.7-2.179v-4.92Z" transform="translate(-2218.901 -981.722)" fill="#1a2e35"/>
      <path id="Trazado_197468" data-name="Trazado 197468" d="M2263.472,1086.943l6.276.557.427-4.712-6.276-.556Z" transform="translate(-2217.688 -981.517)" fill="#fff"/>
      <g id="Grupo_134908" data-name="Grupo 134908" transform="translate(58.27 100.889)">
        <path id="Trazado_197469" data-name="Trazado 197469" d="M2273.518,1089.55l1.423.072.37-7.18-1.423-.072Z" transform="translate(-2273.518 -1082.371)" fill="#ffb30b"/>
        <path id="Trazado_197470" data-name="Trazado 197470" d="M2273.518,1089.55l1.423.072.37-7.18-1.423-.072Z" transform="translate(-2273.518 -1082.371)" fill="#fff" opacity="0.6" style="isolation: isolate"/>
      </g>
      <g id="Grupo_134909" data-name="Grupo 134909" transform="translate(40.736 98.983)">
        <path id="Trazado_197471" data-name="Trazado 197471" d="M2259.41,1088.029l1.424.072.37-7.18-1.423-.072Z" transform="translate(-2259.41 -1080.849)" fill="#ffb30b"/>
        <path id="Trazado_197472" data-name="Trazado 197472" d="M2259.41,1088.029l1.424.072.37-7.18-1.423-.072Z" transform="translate(-2259.41 -1080.849)" fill="#fff" opacity="0.6" style="isolation: isolate"/>
      </g>
      <path id="Trazado_197473" data-name="Trazado 197473" d="M2263.647,1157.354c2.6-8.861,4.627-16.741,6.184-23.733a216.628,216.628,0,0,0-1.817-24.75S2263.891,1140.794,2263.647,1157.354Z" transform="translate(-2217.646 -974.778)" opacity="0.2" style="isolation: isolate"/>
    </g>
  </g>
</svg>
