<svg xmlns="http://www.w3.org/2000/svg" width="85" height="85" viewBox="0 0 85 85">
  <g id="investigacion" transform="translate(0.001 -0.001)">
    <path id="Trazado_197739" data-name="Trazado 197739" d="M400.445,272.977a2.491,2.491,0,0,1-3.522,0l-16.317-16.317,3.522-3.522,16.317,16.317a2.491,2.491,0,0,1,0,3.522Zm0,0" transform="translate(-317.42 -211.112)" fill="#727997"/>
    <path id="Trazado_197740" data-name="Trazado 197740" d="M7.5,62.5H59.795v73.379H7.5Zm0,0" transform="translate(-6.256 -52.123)" fill="#f3f9ff"/>
    <path id="Trazado_197741" data-name="Trazado 197741" d="M40,307.727h9.961v26.894H40Zm0,0" transform="translate(-33.36 -256.639)" fill="#ffb30b"/>
    <path id="Trazado_197742" data-name="Trazado 197742" d="M134,247.727h9.961v36.855H134Zm0,0" transform="translate(-111.755 -206.6)" fill="#0058ba"/>
    <path id="Trazado_197743" data-name="Trazado 197743" d="M230,269.727h9.961v33.2H230Zm0,0" transform="translate(-191.817 -224.948)" fill="#00e1ff"/>
    <path id="Trazado_197744" data-name="Trazado 197744" d="M70,307.727h4.98v26.894H70Zm0,0" transform="translate(-58.38 -256.639)" fill="#d69609"/>
    <path id="Trazado_197745" data-name="Trazado 197745" d="M164,247.727h4.98v36.855H164Zm0,0" transform="translate(-136.774 -206.6)" fill="#084a93"/>
    <path id="Trazado_197746" data-name="Trazado 197746" d="M260,269.727h4.98v33.2H260Zm0,0" transform="translate(-216.837 -224.948)" fill="#00b6cf"/>
    <path id="Trazado_197747" data-name="Trazado 197747" d="M181.974,15.235a26.4,26.4,0,1,0,0,37.329,26.4,26.4,0,0,0,0-37.329Zm0,0" transform="translate(-114.185 -6.257)" fill="#727997"/>
    <path id="Trazado_197748" data-name="Trazado 197748" d="M203.522,74.11a21.416,21.416,0,1,1,0-30.287A21.44,21.44,0,0,1,203.522,74.11Zm0,0" transform="translate(-139.253 -31.324)" fill="#d6ebfc"/>
    <path id="Trazado_197749" data-name="Trazado 197749" d="M298.547,43.827a21.384,21.384,0,0,0-17.633-6.118,21.4,21.4,0,0,1,0,42.523,21.408,21.408,0,0,0,17.633-36.4Zm0,0" transform="translate(-234.279 -31.328)" fill="#b9ddfc"/>
    <path id="Trazado_197750" data-name="Trazado 197750" d="M83.908,57.135,71.134,44.359a27.65,27.65,0,0,0,1.108-31.9,1.245,1.245,0,1,0-2.08,1.369,25.175,25.175,0,1,1-3.252-3.988l.068.069a1.245,1.245,0,0,0,1.767-1.755l-.071-.072a27.672,27.672,0,0,0-39.092,0q-.508.508-.983,1.035H1.244A1.245,1.245,0,0,0,0,10.365v5.507a1.245,1.245,0,1,0,2.49,0V11.611H26.6A27.428,27.428,0,0,0,24.145,15.8H8.632a1.245,1.245,0,0,0,0,2.49H23.114a27.584,27.584,0,0,0-.894,3.044H8.632a1.245,1.245,0,1,0,0,2.49H21.76a27.824,27.824,0,0,0-.251,3.043H8.632a1.245,1.245,0,0,0,0,2.491H21.553A27.669,27.669,0,0,0,24.34,39.875H22.246A1.245,1.245,0,0,0,21,41.121v36.86a1.245,1.245,0,0,0,1.245,1.246h9.961a1.245,1.245,0,0,0,1.245-1.246V50.407a27.434,27.434,0,0,0,3.486,2.041V77.982a1.246,1.246,0,0,0,1.245,1.246h9.961a1.245,1.245,0,0,0,1.245-1.246V55.263a28.092,28.092,0,0,0,2.906-.179V74.318a1.245,1.245,0,1,0,2.49,0V54.684a27.455,27.455,0,0,0,11.066-5.039L78.623,62.418a3.736,3.736,0,0,0,5.285-5.283Zm-52.946,19.6H23.491V42.366h2.243a27.658,27.658,0,0,0,3.846,4.816q.673.673,1.381,1.289Zm8.467,0V53.52A27.717,27.717,0,0,0,46.9,55.175V76.736Zm42.718-16.08a1.245,1.245,0,0,1-1.762,0L67.771,48.042c.305-.28.606-.565.9-.86s.581-.595.861-.9L82.146,58.9a1.246,1.246,0,0,1,0,1.761Zm0,0"/>
    <path id="Trazado_197751" data-name="Trazado 197751" d="M53.541,179.027a1.245,1.245,0,0,0-1.245,1.245V183.1H2.49V121.854a1.245,1.245,0,1,0-2.49,0v62.487a1.245,1.245,0,0,0,1.245,1.245h52.3a1.245,1.245,0,0,0,1.245-1.245v-4.068A1.245,1.245,0,0,0,53.541,179.027Zm0,0" transform="translate(-0.001 -100.585)"/>
    <path id="Trazado_197752" data-name="Trazado 197752" d="M32.5,301.44v26.9a1.245,1.245,0,0,0,1.245,1.245h9.962a1.245,1.245,0,0,0,1.245-1.245v-26.9a1.245,1.245,0,0,0-1.245-1.245H33.745A1.245,1.245,0,0,0,32.5,301.44Zm2.49,1.246h7.471v24.408H34.99Zm0,0" transform="translate(-27.105 -250.357)"/>
    <path id="Trazado_197753" data-name="Trazado 197753" d="M55.056,197.671a1.245,1.245,0,0,0,0-2.491h-9.31a1.245,1.245,0,0,0,0,2.491Zm0,0" transform="translate(-37.113 -162.777)"/>
    <path id="Trazado_197754" data-name="Trazado 197754" d="M182.129,29.988a22.628,22.628,0,1,0,16.024,6.628,22.507,22.507,0,0,0-16.024-6.628Zm14.263,36.92a20.2,20.2,0,1,1,5.9-14.265A20.032,20.032,0,0,1,196.392,66.908Zm0,0" transform="translate(-133.002 -25.009)"/>
  </g>
</svg>
