<svg xmlns="http://www.w3.org/2000/svg" xmlns:xlink="http://www.w3.org/1999/xlink" width="400" height="214" viewBox="0 0 400 214">
  <defs>
    <clipPath id="clip-path">
      <rect id="Rectángulo_295145" data-name="Rectángulo 295145" width="400" height="214" transform="translate(-11857.151 -11244)" fill="#fff" stroke="#707070" stroke-width="1"/>
    </clipPath>
  </defs>
  <g id="Enmascarar_grupo_121" data-name="Enmascarar grupo 121" transform="translate(11857.151 11244)" clip-path="url(#clip-path)">
    <g id="Design_stats-rafiki" data-name="Design stats-rafiki" transform="translate(-11864.263 -11254.944)">
      <g id="freepik--background-complete--inject-54" transform="translate(0 0)">
        <rect id="Rectángulo_295129" data-name="Rectángulo 295129" width="420.912" height="0.21" transform="translate(0 275.613)" fill="#ebebeb"/>
        <rect id="Rectángulo_295130" data-name="Rectángulo 295130" width="27.881" height="0.21" transform="translate(44.162 283.627)" fill="#ebebeb"/>
        <rect id="Rectángulo_295131" data-name="Rectángulo 295131" width="22.216" height="0.21" transform="translate(129.17 281.346)" fill="#ebebeb"/>
        <rect id="Rectángulo_295132" data-name="Rectángulo 295132" width="38.657" height="0.21" transform="translate(75.739 288.594)" fill="#ebebeb"/>
        <rect id="Rectángulo_295133" data-name="Rectángulo 295133" width="18.183" height="0.21" transform="translate(360.553 290.034)" fill="#ebebeb"/>
        <rect id="Rectángulo_295134" data-name="Rectángulo 295134" width="26.913" height="0.21" transform="translate(329.549 290.034)" fill="#ebebeb"/>
        <rect id="Rectángulo_295135" data-name="Rectángulo 295135" width="46.401" height="0.21" transform="translate(233.362 286.481)" fill="#ebebeb"/>
        <path id="Trazado_197474" data-name="Trazado 197474" d="M205.556,293.068H43.008a4.807,4.807,0,0,1-4.8-4.807V59.765A4.807,4.807,0,0,1,43.008,55H205.556a4.807,4.807,0,0,1,4.807,4.807V288.261A4.807,4.807,0,0,1,205.556,293.068ZM43.008,55.168a4.6,4.6,0,0,0-4.588,4.6v228.5a4.6,4.6,0,0,0,4.588,4.6H205.556a4.6,4.6,0,0,0,4.6-4.6V59.765a4.6,4.6,0,0,0-4.6-4.6Z" transform="translate(-6.044 -55)" fill="#ebebeb"/>
        <path id="Trazado_197475" data-name="Trazado 197475" d="M421.863,293.068H259.307a4.815,4.815,0,0,1-4.807-4.807V59.765A4.815,4.815,0,0,1,259.307,55H421.863a4.807,4.807,0,0,1,4.79,4.765v228.5A4.807,4.807,0,0,1,421.863,293.068ZM259.307,55.168a4.6,4.6,0,0,0-4.6,4.6v228.5a4.6,4.6,0,0,0,4.6,4.6H421.863a4.6,4.6,0,0,0,4.6-4.6V59.765a4.6,4.6,0,0,0-4.6-4.6Z" transform="translate(-40.256 -55)" fill="#ebebeb"/>
        <rect id="Rectángulo_295136" data-name="Rectángulo 295136" width="227.764" height="126.804" transform="translate(268.27 138.775) rotate(180)" fill="#e0e0e0"/>
        <g id="Grupo_134958" data-name="Grupo 134958" transform="translate(24.258 11.971)">
          <rect id="Rectángulo_295137" data-name="Rectángulo 295137" width="239.12" height="126.804" transform="translate(239.12 126.804) rotate(180)" fill="#f5f5f5"/>
          <rect id="Rectángulo_295138" data-name="Rectángulo 295138" width="118.983" height="231.308" transform="translate(235.206 3.906) rotate(90)" fill="#fff"/>
          <path id="Trazado_197476" data-name="Trazado 197476" d="M215.464,192.852,171.79,73.86h72.077l43.674,118.992Z" transform="translate(-73.911 -69.955)" fill="#f5f5f5"/>
          <path id="Trazado_197477" data-name="Trazado 197477" d="M133.054,192.852,89.38,73.86h54.373l43.665,118.992Z" transform="translate(-60.875 -69.955)" fill="#f5f5f5"/>
        </g>
        <rect id="Rectángulo_295139" data-name="Rectángulo 295139" width="12.964" height="87.238" transform="translate(377.053 271.682) rotate(180)" fill="#f0f0f0"/>
        <rect id="Rectángulo_295140" data-name="Rectángulo 295140" width="142.361" height="3.931" transform="translate(374.553 275.613) rotate(180)" fill="#f0f0f0"/>
        <rect id="Rectángulo_295141" data-name="Rectángulo 295141" width="134.38" height="87.238" transform="translate(229.709 184.435)" fill="#f5f5f5"/>
        <rect id="Rectángulo_295142" data-name="Rectángulo 295142" width="13.25" height="3.435" transform="translate(378.686 184.435) rotate(180)" fill="#f0f0f0"/>
        <rect id="Rectángulo_295143" data-name="Rectángulo 295143" width="137.352" height="3.435" transform="translate(228.075 181.009)" fill="#fafafa"/>
        <path id="Trazado_197478" data-name="Trazado 197478" d="M403.537,316.777H278.29V282.54H403.537Zm-124.186-1.019H402.476V283.6H279.351Z" transform="translate(-44.019 -90.991)" fill="#e0e0e0"/>
        <path id="Trazado_197479" data-name="Trazado 197479" d="M403.537,362.936H278.29V329.17H403.537Zm-124.186-1.078H402.476V330.231H279.351Z" transform="translate(-44.019 -98.367)" fill="#e0e0e0"/>
        <path id="Trazado_197480" data-name="Trazado 197480" d="M307.539,290.126H383.1a1.4,1.4,0,0,0,1.4-1.4h0a1.4,1.4,0,0,0-1.4-1.389H307.539a1.389,1.389,0,0,0-1.389,1.389h0a1.389,1.389,0,0,0,1.389,1.4Z" transform="translate(-48.425 -91.751)" fill="#e0e0e0"/>
        <path id="Trazado_197481" data-name="Trazado 197481" d="M307.539,336.765H383.1a1.406,1.406,0,0,0,1.4-1.4h0a1.406,1.406,0,0,0-1.4-1.4H307.539a1.4,1.4,0,0,0-1.389,1.4h0a1.4,1.4,0,0,0,1.389,1.4Z" transform="translate(-48.425 -99.126)" fill="#e0e0e0"/>
        <path id="Trazado_197483" data-name="Trazado 197483" d="M121.3,328.76h2.492l9.807,45.155h-2.492Z" transform="translate(-19.187 -98.302)" fill="#e0e0e0"/>
        <path id="Trazado_197484" data-name="Trazado 197484" d="M110.19,328.76h2.492l9.807,45.155H120Z" transform="translate(-17.429 -98.302)" fill="#e0e0e0"/>
        <g id="Grupo_134959" data-name="Grupo 134959" transform="translate(24.079 157.877)">
          <path id="Trazado_197482" data-name="Trazado 197482" d="M127.706,258.12H105.945a17.283,17.283,0,0,0-16.559,13.2l-5.75,24-11.786-.042h0a11.786,11.786,0,0,0-11.583,9.529L58.7,313.032a6.061,6.061,0,0,0-4.992,4.554h58.33A17.274,17.274,0,0,0,128.582,304.4l8.25-34.464a9.386,9.386,0,0,0-9.125-11.819ZM70.555,312.965h-8.73l1.465-7.576a8.671,8.671,0,0,1,8.5-7.038H82.871l-1.4,5.842A11.44,11.44,0,0,1,70.555,312.965Z" transform="translate(-52.245 -258.12)" fill="#e6e6e6"/>
          <path id="Trazado_197485" data-name="Trazado 197485" d="M64.269,328.76H61.777L51.97,373.915h2.492Z" transform="translate(-51.97 -269.293)" fill="#e0e0e0"/>
          <path id="Trazado_197486" data-name="Trazado 197486" d="M75.379,328.76H72.887L63.08,373.915h2.492Z" transform="translate(-53.727 -269.293)" fill="#e0e0e0"/>
          <path id="Trazado_197487" data-name="Trazado 197487" d="M223.687,258.12H201.935a17.283,17.283,0,0,0-16.559,13.2l-5.75,24-11.786-.042h0a11.735,11.735,0,0,0-11.524,9.528l-1.574,8.226a6.086,6.086,0,0,0-4.992,4.554h58.3A17.283,17.283,0,0,0,224.6,304.4l8.25-34.464a9.386,9.386,0,0,0-9.159-11.819Zm-57.151,54.845h-8.73l1.465-7.576a8.679,8.679,0,0,1,8.511-7.038h11.087l-1.406,5.842A11.423,11.423,0,0,1,166.536,312.965Z" transform="translate(-67.436 -258.119)" fill="#e6e6e6"/>
          <path id="Trazado_197488" data-name="Trazado 197488" d="M217.27,328.76h2.5l9.807,45.155h-2.492Z" transform="translate(-78.116 -269.293)" fill="#e0e0e0"/>
          <path id="Trazado_197489" data-name="Trazado 197489" d="M206.16,328.76h2.492l9.816,45.155h-2.492Z" transform="translate(-76.359 -269.293)" fill="#e0e0e0"/>
          <path id="Trazado_197490" data-name="Trazado 197490" d="M160.249,328.76h-2.492l-9.807,45.155h2.492Z" transform="translate(-67.151 -269.293)" fill="#e0e0e0"/>
          <path id="Trazado_197491" data-name="Trazado 197491" d="M171.359,328.76h-2.492l-9.807,45.155h2.492Z" transform="translate(-68.908 -269.293)" fill="#e0e0e0"/>
        </g>
        <path id="Trazado_197492" data-name="Trazado 197492" d="M360.15,263.169h40.66l3.3-36.249H363.45Z" transform="translate(-56.967 -82.194)" fill="#e6e6e6"/>
        <path id="Trazado_197493" data-name="Trazado 197493" d="M358.51,263.169h40.66l3.292-36.249H361.81Z" transform="translate(-56.708 -82.194)" fill="#f0f0f0"/>
        <path id="Trazado_197494" data-name="Trazado 197494" d="M396.339,259.906l2.568-28.226H366.278l-2.568,28.226Z" transform="translate(-57.53 -82.946)" fill="#fff"/>
        <path id="Trazado_197495" data-name="Trazado 197495" d="M348.518,238.53l-2.408,26.475h19.48l2.416-26.475Z" transform="translate(-54.746 -84.03)" fill="#e6e6e6"/>
        <path id="Trazado_197496" data-name="Trazado 197496" d="M347.318,238.53l-2.408,26.475H364.4l2.408-26.475Z" transform="translate(-54.556 -84.03)" fill="#f0f0f0"/>
        <path id="Trazado_197497" data-name="Trazado 197497" d="M350.587,242.01l-1.877,20.608h13.621l1.877-20.608Z" transform="translate(-55.157 -84.58)" fill="#fff"/>
      </g>
      <g id="freepik--design-stats--inject-54" transform="translate(111.793 24.573)">
        <path id="Trazado_197498" data-name="Trazado 197498" d="M364.142,276.84H142.38a9.513,9.513,0,0,1-9.563-10.1l8.275-169.207a10.708,10.708,0,0,1,10.556-10.1H373.41a9.5,9.5,0,0,1,9.563,10.1L374.7,266.739A10.716,10.716,0,0,1,364.142,276.84Z" transform="translate(-132.798 -84.702)" fill="#084a93"/>
        <path id="Trazado_197499" data-name="Trazado 197499" d="M364.142,276.84H142.38a9.513,9.513,0,0,1-9.563-10.1l8.275-169.207a10.708,10.708,0,0,1,10.556-10.1H373.41a9.5,9.5,0,0,1,9.563,10.1L374.7,266.739A10.716,10.716,0,0,1,364.142,276.84Z" transform="translate(-132.798 -84.702)" fill="#fff" opacity="0.7"/>
        <path id="Trazado_197500" data-name="Trazado 197500" d="M428.012,88.9a11.146,11.146,0,0,0-4.3-2.946l.3-.791a12.266,12.266,0,0,1,4.622,3.165Z" transform="translate(-178.813 -84.343)" fill="#084a93"/>
        <rect id="Rectángulo_295144" data-name="Rectángulo 295144" width="17.729" height="0.842" transform="translate(222.992)" fill="#084a93"/>
        <path id="Trazado_197501" data-name="Trazado 197501" d="M374.968,87.49H153.206a10.708,10.708,0,0,0-10.556,10.1h241.9a9.5,9.5,0,0,0-9.58-10.1Z" transform="translate(-134.357 -84.712)" fill="#084a93"/>
        <path id="Trazado_197502" data-name="Trazado 197502" d="M140.858,268.587l7.694-156.47a4.984,4.984,0,0,1,4.925-4.7h219a4.428,4.428,0,0,1,4.47,4.7L369.3,268.6a4.992,4.992,0,0,1-4.933,4.706H145.328a4.436,4.436,0,0,1-4.47-4.714Z" transform="translate(-134.072 -87.864)" fill="#fff"/>
        <path id="Trazado_197503" data-name="Trazado 197503" d="M175.578,167.186h-10.1a1.6,1.6,0,0,1-1.616-1.684l.842-17.678a1.8,1.8,0,0,1,1.785-1.684h10.1a1.6,1.6,0,0,1,1.625,1.684l-.842,17.678A1.8,1.8,0,0,1,175.578,167.186Z" transform="translate(-137.711 -93.989)" fill="#ffb30b" opacity="0.3"/>
        <path id="Trazado_197504" data-name="Trazado 197504" d="M199.6,166.585h-10.1a1.616,1.616,0,0,1-1.625-1.684l1.019-20.877a1.818,1.818,0,0,1,1.793-1.684h10.1a1.616,1.616,0,0,1,1.625,1.684L201.389,164.9a1.818,1.818,0,0,1-1.793,1.684Z" transform="translate(-141.509 -93.388)" fill="#ffb30b" opacity="0.3"/>
        <path id="Trazado_197505" data-name="Trazado 197505" d="M223.616,166.175h-10.1a1.616,1.616,0,0,1-1.625-1.684l1.128-23.058a1.818,1.818,0,0,1,1.793-1.684h10.1a1.616,1.616,0,0,1,1.625,1.684l-1.086,23.032a1.818,1.818,0,0,1-1.835,1.709Z" transform="translate(-145.308 -92.978)" fill="#ffb30b" opacity="0.3"/>
        <path id="Trazado_197506" data-name="Trazado 197506" d="M247.648,165.8h-10.1a1.608,1.608,0,0,1-1.616-1.684l1.221-25.036a1.818,1.818,0,0,1,1.793-1.684h10.1a1.616,1.616,0,0,1,1.625,1.684l-1.212,25.011A1.8,1.8,0,0,1,247.648,165.8Z" transform="translate(-149.111 -92.607)" fill="#ffb30b" opacity="0.3"/>
        <path id="Trazado_197507" data-name="Trazado 197507" d="M271.666,164.369h-10.1a1.616,1.616,0,0,1-1.625-1.684l1.6-32.671a1.81,1.81,0,0,1,1.793-1.684h10.1a1.616,1.616,0,0,1,1.625,1.684l-1.6,32.646a1.818,1.818,0,0,1-1.793,1.709Z" transform="translate(-152.909 -91.172)" fill="#ffb30b"/>
        <path id="Trazado_197508" data-name="Trazado 197508" d="M270.393,123.714l.96-1.532a.547.547,0,0,0-.463-.842h-1.776a.547.547,0,0,0-.48.842l.842,1.532a.539.539,0,0,0,.918,0Z" transform="translate(-154.27 -90.066)" fill="#263238"/>
        <path id="Trazado_197509" data-name="Trazado 197509" d="M295.686,165.337h-10.1a1.616,1.616,0,0,1-1.625-1.684l1.347-27.519a1.818,1.818,0,0,1,1.793-1.684h10.1a1.616,1.616,0,0,1,1.625,1.684l-1.364,27.494a1.81,1.81,0,0,1-1.776,1.709Z" transform="translate(-156.708 -92.14)" fill="#ffb30b" opacity="0.3"/>
        <path id="Trazado_197510" data-name="Trazado 197510" d="M277.517,177.451H164.03a.522.522,0,0,1-.53-.556h0a.6.6,0,0,1,.589-.556H277.567a.522.522,0,0,1,.53.556h0A.581.581,0,0,1,277.517,177.451Z" transform="translate(-137.654 -98.766)" fill="#263238" opacity="0.1"/>
        <path id="Trazado_197511" data-name="Trazado 197511" d="M308.54,266.436l7.307-149.255a.556.556,0,0,1,.556-.53h.051a.5.5,0,0,1,.505.53l-7.3,149.255a.573.573,0,0,1-.556.539h-.059a.514.514,0,0,1-.505-.539Z" transform="translate(-160.596 -89.324)" fill="#263238" opacity="0.1"/>
        <path id="Trazado_197512" data-name="Trazado 197512" d="M351.912,146.342a17.081,17.081,0,0,0,2.02,11.786l-5,3.115a22.805,22.805,0,0,1-2.685-15.65,24.985,24.985,0,0,1,23.226-20.313v5.741a18.806,18.806,0,0,0-17.56,15.321Z" transform="translate(-166.499 -90.689)" fill="#ffb30b"/>
        <path id="Trazado_197513" data-name="Trazado 197513" d="M395.875,139.736l-5.421,2.189a16.567,16.567,0,0,0-13.469-10.775,17.064,17.064,0,0,0-3.064-.143v-5.741a22.342,22.342,0,0,1,21.955,14.471Z" transform="translate(-170.938 -90.683)" fill="#ffb30b" opacity="0.3"/>
        <path id="Trazado_197514" data-name="Trazado 197514" d="M392.973,154.491c-2.323,12.745-14.648,21.829-27.309,20.136A22.014,22.014,0,0,1,349.51,163.97l5-3.081a16.559,16.559,0,0,0,12.19,8.048,18.739,18.739,0,0,0,20.608-15.153,17.257,17.257,0,0,0-.741-9.075l5.421-2.189a23.007,23.007,0,0,1,.985,11.971Z" transform="translate(-167.077 -93.416)" fill="#00defc"/>
        <path id="Trazado_197515" data-name="Trazado 197515" d="M349.634,128.8a.429.429,0,0,1-.311-.126l-3.729-3.931H332.781a.421.421,0,1,1,0-.842H345.77a.4.4,0,0,1,.3.135l3.864,4.058a.413.413,0,0,1-.3.707Z" transform="translate(-164.364 -90.471)" fill="#263238"/>
        <path id="Trazado_197516" data-name="Trazado 197516" d="M379.5,207.2a17.039,17.039,0,0,0-11.786-2.315l-.623-5.682a22.83,22.83,0,0,1,15.582,3.064c9.42,5.842,12.981,17.914,8.418,28.479l-5.261-2.054A17.054,17.054,0,0,0,379.5,207.2Z" transform="translate(-169.858 -102.336)" fill="#ffb30b" opacity="0.3"/>
        <path id="Trazado_197517" data-name="Trazado 197517" d="M368.27,251.362l.387-5.75a18.663,18.663,0,0,0,15.877-8.561,18.31,18.31,0,0,0,1.49-2.761l5.261,2.054a24.417,24.417,0,0,1-1.97,3.67,24.817,24.817,0,0,1-21.046,11.348Z" transform="translate(-170.044 -107.932)" fill="#00defc"/>
        <path id="Trazado_197518" data-name="Trazado 197518" d="M352.664,242.479c-10.691-6.625-13.587-21.147-6.423-32.158A24.935,24.935,0,0,1,363.2,199.26l.623,5.682a18.773,18.773,0,0,0-12.8,8.342c-5.438,8.368-3.266,19.236,4.849,24.27a16.837,16.837,0,0,0,8.679,2.525l-.387,5.75a22.46,22.46,0,0,1-11.5-3.35Z" transform="translate(-165.937 -102.391)" fill="#ffb30b"/>
        <path id="Trazado_197519" data-name="Trazado 197519" d="M346.024,202.488a.438.438,0,0,1-.3-.135l-3.738-3.931H329.171a.421.421,0,1,1,0-.842h13a.438.438,0,0,1,.3.135l3.856,4.058a.421.421,0,0,1,0,.6A.455.455,0,0,1,346.024,202.488Z" transform="translate(-163.793 -102.126)" fill="#263238"/>
        <path id="Trazado_197520" data-name="Trazado 197520" d="M334.8,279.41h-4.26a2.29,2.29,0,0,0-2.248,2.147l-.21,4.268a2.029,2.029,0,0,0,2.046,2.147h4.26a2.29,2.29,0,0,0,2.256-2.147l.21-4.268a2.037,2.037,0,0,0-2.054-2.147Z" transform="translate(-163.686 -115.069)" fill="#084a93"/>
        <path id="Trazado_197521" data-name="Trazado 197521" d="M363.177,279.41h-4.26a2.29,2.29,0,0,0-2.256,2.18l-.2,4.268A2.029,2.029,0,0,0,358.5,288h4.31a2.29,2.29,0,0,0,2.248-2.147l.211-4.268a2.029,2.029,0,0,0-2.088-2.18Z" transform="translate(-168.175 -115.069)" fill="#263238"/>
        <path id="Trazado_197522" data-name="Trazado 197522" d="M391.566,279.41H387.3a2.29,2.29,0,0,0-2.248,2.147l-.21,4.268a2.029,2.029,0,0,0,2.037,2.147h4.268a2.281,2.281,0,0,0,2.248-2.172l.21-4.268a2.029,2.029,0,0,0-2.037-2.121Z" transform="translate(-172.665 -115.069)" fill="#084a93" opacity="0.3"/>
        <path id="Trazado_197523" data-name="Trazado 197523" d="M215.9,229.038h-.157a.7.7,0,0,1-.408-.186.292.292,0,0,1-.075-.319c4.414-11.962,13.778-24.219,24.813-24.615,7.379-.269,11.584,3.7,16.455,8.292,3.526,3.308,7.509,7.054,13.347,9.883a18.063,18.063,0,0,0,12.2,1.507c9.076-2.113,17.761-11.634,22.671-24.842a.745.745,0,0,1,.81-.32c.361.056.583.289.5.522-5.08,13.68-13.869,23.192-23.507,25.432a19.891,19.891,0,0,1-13.425-1.625c-6.007-2.9-10.056-6.735-13.634-10.1-4.858-4.563-8.671-8.157-15.306-7.93-10.3.37-19.249,12.307-23.507,23.967a.459.459,0,0,1-.276.272A.957.957,0,0,1,215.9,229.038Z" transform="translate(-171.839 -102.259)" fill="#00defc"/>
        <path id="Trazado_197524" data-name="Trazado 197524" d="M268.63,233.6H166.643a6.381,6.381,0,0,1-6.415-6.735l1.49-29.7a7.13,7.13,0,0,1,7.038-6.735H270.7a6.381,6.381,0,0,1,6.415,6.735l-1.448,29.691a7.13,7.13,0,0,1-7.038,6.743Zm-99.916-42.3a6.28,6.28,0,0,0-6.2,5.893l-1.448,29.691a5.531,5.531,0,0,0,5.573,5.893H268.63a6.28,6.28,0,0,0,6.2-5.893l1.456-29.691A5.548,5.548,0,0,0,270.7,191.3Z" transform="translate(-137.135 -100.995)" fill="#263238" opacity="0.1"/>
        <path id="Trazado_197525" data-name="Trazado 197525" d="M190.616,199.736H174.133a1.844,1.844,0,0,1-1.844-1.945,2.02,2.02,0,0,1,2-1.911h16.475a1.844,1.844,0,0,1,1.852,1.945A2.029,2.029,0,0,1,190.616,199.736Zm-16.331-3.014a1.179,1.179,0,0,0-1.153,1.1.993.993,0,0,0,.269.758,1.035,1.035,0,0,0,.732.311h16.483a1.187,1.187,0,0,0,1.153-1.1,1,1,0,0,0-.278-.758.977.977,0,0,0-.732-.311Z" transform="translate(-139.044 -101.857)" fill="#263238" opacity="0.1"/>
        <path id="Trazado_197526" data-name="Trazado 197526" d="M175.457,230.2H171.18l-.21,4.276h4.276Z" transform="translate(-138.836 -107.285)" fill="#00defc"/>
        <path id="Trazado_197527" data-name="Trazado 197527" d="M179.709,292.434h-8.721a2.761,2.761,0,0,1-2.778-2.913l.429-8.73a3.106,3.106,0,0,1,3.056-2.921h8.73a2.753,2.753,0,0,1,2.77,2.921l-.421,8.73a3.115,3.115,0,0,1-3.064,2.913Z" transform="translate(-138.399 -114.825)" fill="#084a93" opacity="0.3"/>
        <path id="Trazado_197528" data-name="Trazado 197528" d="M216.939,288.561h-22.5a2.391,2.391,0,0,1-2.408-2.525,2.652,2.652,0,0,1,2.618-2.526h22.494a2.408,2.408,0,0,1,2.416,2.526A2.652,2.652,0,0,1,216.939,288.561Zm-22.292-4.209a1.818,1.818,0,0,0-1.785,1.684,1.608,1.608,0,0,0,.429,1.17,1.574,1.574,0,0,0,1.145.48h22.5A1.793,1.793,0,0,0,218.715,286a1.524,1.524,0,0,0-.429-1.17,1.557,1.557,0,0,0-1.145-.488Z" transform="translate(-142.167 -115.718)" fill="#263238" opacity="0.1"/>
        <path id="Trazado_197529" data-name="Trazado 197529" d="M176.924,288.652h0a.421.421,0,0,1-.4-.438l.185-3.729a.4.4,0,0,1,.438-.4.421.421,0,0,1,.4.438l-.185,3.729A.421.421,0,0,1,176.924,288.652Z" transform="translate(-139.714 -115.809)" fill="#084a93"/>
        <path id="Trazado_197530" data-name="Trazado 197530" d="M175.01,286.1a.438.438,0,0,1-.3-.135.421.421,0,0,1,0-.6l1.8-1.684a.43.43,0,0,1,.3-.118.455.455,0,0,1,.295.135l1.633,1.684a.423.423,0,0,1-.615.581l-1.339-1.414-1.5,1.431A.455.455,0,0,1,175.01,286.1Z" transform="translate(-139.407 -115.727)" fill="#084a93"/>
        <path id="Trazado_197531" data-name="Trazado 197531" d="M247.936,277.87h-8.721a3.115,3.115,0,0,0-3.064,2.921l-.421,8.73a2.753,2.753,0,0,0,2.77,2.913h8.73a3.106,3.106,0,0,0,3.056-2.913l.429-8.73a2.761,2.761,0,0,0-2.778-2.921Z" transform="translate(-149.079 -114.825)" fill="#263238" opacity="0.4"/>
        <path id="Trazado_197532" data-name="Trazado 197532" d="M284.449,288.561H261.956a2.408,2.408,0,0,1-2.416-2.525,2.652,2.652,0,0,1,2.618-2.526h22.5a2.416,2.416,0,0,1,2.416,2.526,2.66,2.66,0,0,1-2.627,2.525Zm-22.292-4.209a1.81,1.81,0,0,0-1.776,1.684,1.607,1.607,0,0,0,.429,1.17,1.566,1.566,0,0,0,1.145.48h22.493A1.8,1.8,0,0,0,286.234,286a1.566,1.566,0,0,0-1.574-1.684Z" transform="translate(-152.845 -115.718)" fill="#263238" opacity="0.1"/>
        <path id="Trazado_197533" data-name="Trazado 197533" d="M244.454,288.141h0a.421.421,0,0,1-.4-.438l.185-3.729a.4.4,0,0,1,.438-.4.429.429,0,0,1,.4.446l-.185,3.721a.421.421,0,0,1-.438.4Z" transform="translate(-150.395 -115.727)" fill="#fff"/>
        <path id="Trazado_197534" data-name="Trazado 197534" d="M244.124,289.031h0a.446.446,0,0,1-.295-.126l-1.633-1.684a.423.423,0,1,1,.6-.6l1.339,1.414,1.5-1.431a.421.421,0,0,1,.6,0,.413.413,0,0,1,0,.589l-1.8,1.726a.446.446,0,0,1-.3.109Z" transform="translate(-150.083 -116.188)" fill="#fff"/>
      </g>
      <g id="freepik--Character--inject-54" transform="translate(58.028 24.573)">
        <path id="Trazado_197535" data-name="Trazado 197535" d="M112.53,115.313c-4.151,5.406-4.919,12.857-4.68,16.665.291,4.721-5.884,4.939-4.151,13.158,1.484,7.118-2.843,9.339-2.739,14.911.228,12.919,11.819,16.738,33.434,12.919s8.633-23.555,11.518-31.327.6-25.993-5.188-25.174C141.356,102.747,120.862,104.531,112.53,115.313Z" transform="translate(-83.658 -106.7)" fill="#263238"/>
        <path id="Trazado_197536" data-name="Trazado 197536" d="M120.216,171.246c-.145,2.625-.425,4.991-.768,7.471s-.789,4.887-1.339,7.316-1.173,4.877-1.94,7.264a58.814,58.814,0,0,1-2.833,7.264l-.239.519a5.188,5.188,0,0,1-6.62,2.656,40.375,40.375,0,0,1-4.151-1.992c-1.318-.706-2.532-1.494-3.756-2.262s-2.376-1.629-3.518-2.5a43.373,43.373,0,0,1-3.331-2.781,3.175,3.175,0,0,1,2.833-5.313h.1c1.328.3,2.667.7,3.974,1.038l3.891,1.141,3.787,1.11c1.224.353,2.449.654,3.538.892l-6.869,3.175c.674-1.93,1.224-3.995,1.743-6.112s.9-4.306,1.287-6.506.706-4.431,1.038-6.672.56-4.545.8-6.631v-.114a6.248,6.248,0,1,1,12.452,1.038Z" transform="translate(-84.039 -104.524)" fill="#b55b52"/>
        <path id="Trazado_197537" data-name="Trazado 197537" d="M91.149,184.588l-2.553-.9a2.5,2.5,0,0,0-3.206,1.567l-.975,2.916a2.49,2.49,0,0,0,1.214,3l3.2,1.681s5.188,3.985,7.793,1.546l1.422-4.151-3.85-3.746a8.457,8.457,0,0,0-3.04-1.909Z" transform="translate(-84.286 -103.806)" fill="#b55b52"/>
        <path id="Trazado_197538" data-name="Trazado 197538" d="M118.471,157.24c-7.648,1.442-9.266,4.566-14.9,16.177,1.7,7.637,16.219,14.351,16.219,14.351S131.079,167.119,118.471,157.24Z" transform="translate(-83.56 -104.796)" fill="#263238"/>
        <path id="Trazado_197539" data-name="Trazado 197539" d="M130.752,410.585c4.794-6.392,5.188-8.156,8.208-11.518a32.217,32.217,0,0,1,5.6-5.137c2.013-1.629.809-3.985-1.038-4.981-1.442-.768-3.03-1.453-4.773-2.47l-7.907,6.454c.778,3.663-.851,11.3-4.151,16.385C124.277,412.961,128.833,413.138,130.752,410.585Z" transform="translate(-82.715 -96.162)" fill="#263238"/>
        <path id="Trazado_197540" data-name="Trazado 197540" d="M108.566,213.27s-7.367,51.7-12.857,86.967a40.386,40.386,0,0,0,1.951,20.421c9.391,25.018,33.734,79.412,33.734,79.412,1.121,1.1,7.855-5.3,8.509-7.066,0,0-8.415-68.745-21.5-84.155,26.7-55.079,26.284-95.579,26.284-95.579Z" transform="translate(-83.876 -102.686)" fill="#084a93"/>
        <g id="Grupo_134957" data-name="Grupo 134957" transform="translate(33.624 112.12)" opacity="0.2">
          <path id="Trazado_197541" data-name="Trazado 197541" d="M143.754,214.75l-19.716,1.38s-3.819,56.781-4.638,88.617C141.284,257.907,143.526,222.387,143.754,214.75Z" transform="translate(-116.588 -214.75)"/>
          <path id="Trazado_197542" data-name="Trazado 197542" d="M119.388,307.76c-.27,16.323-1.09,37.563-2.7,57.186,4.991,11.487,9.484,21.646,11.944,27.166,2.366-6.838,5-15,7.378-23.659C132.7,348.478,126.9,319.672,119.388,307.76Z" transform="translate(-116.69 -211.247)"/>
        </g>
        <path id="Trazado_197543" data-name="Trazado 197543" d="M126.724,391.032c.6.882,1.65,2.47,2.376,3.673a.851.851,0,0,0,1.214.2,74.593,74.593,0,0,0,9.339-7.9.955.955,0,0,0,.239-1.038l-1.588-3.611a.851.851,0,0,0-1.328-.249l-9.962,7.689A.944.944,0,0,0,126.724,391.032Z" transform="translate(-82.692 -96.335)" fill="#084a93"/>
        <path id="Trazado_197544" data-name="Trazado 197544" d="M126.724,391.032c.6.882,1.65,2.47,2.376,3.673a.851.851,0,0,0,1.214.2,74.593,74.593,0,0,0,9.339-7.9.955.955,0,0,0,.239-1.038l-1.588-3.611a.851.851,0,0,0-1.328-.249l-9.962,7.689A.944.944,0,0,0,126.724,391.032Z" transform="translate(-82.692 -96.335)" fill="#fff" opacity="0.3"/>
        <path id="Trazado_197545" data-name="Trazado 197545" d="M104.165,412.448c7.533,1.494,10.439,1.961,14.735,2.667,3.673.591,4.358,1.2,7.264,1.723,2.449.425,3.321-1.816,3.673-4.535.187-1.359.519-4.711.9-6.89l-11.674-.623c-2.781,2.532-10.2,3.362-14.673,3.113C100.149,407.571,101.166,411.846,104.165,412.448Z" transform="translate(-83.636 -95.472)" fill="#263238"/>
        <path id="Trazado_197546" data-name="Trazado 197546" d="M118.557,213.27s3.87,66.411,4.586,96.5c.737,31.6.135,80.938-5.593,101.961,1.567,1.038,8.831,1.038,12.618-.062,0,0,23.586-66.929,14.7-100.5,17.879-73.944,7.264-91.408,4.286-97.872Z" transform="translate(-83.033 -102.686)" fill="#084a93"/>
        <path id="Trazado_197547" data-name="Trazado 197547" d="M118.577,400.388a34,34,0,0,1-1.712,4.151.726.726,0,0,0,.425,1.11c4.037,1.038,10.491.654,12.556.488a1.183,1.183,0,0,0,.944-.654l1.857-3.881a.716.716,0,0,0-.581-1.1l-12.348-.892A1.193,1.193,0,0,0,118.577,400.388Z" transform="translate(-83.064 -95.668)" fill="#084a93"/>
        <path id="Trazado_197548" data-name="Trazado 197548" d="M118.577,400.388a34,34,0,0,1-1.712,4.151.726.726,0,0,0,.425,1.11c4.037,1.038,10.491.654,12.556.488a1.183,1.183,0,0,0,.944-.654l1.857-3.881a.716.716,0,0,0-.581-1.1l-12.348-.892A1.193,1.193,0,0,0,118.577,400.388Z" transform="translate(-83.064 -95.668)" fill="#fff" opacity="0.3"/>
        <path id="Trazado_197549" data-name="Trazado 197549" d="M149.31,156.736c-1.65-.166-3.383-.311-5.188-.394a132.234,132.234,0,0,0-18.813,0c-2.075.187-4.151.446-6.226.726a15.565,15.565,0,0,0-13.3,14.683c-.125,4.078.757,10.231,1.608,19.934,1.121,12.649-1.961,19.083.737,23.742,5.282,5.022,29.532,2.511,41.434,0h0c3.58-4.607-3.424-16.6,7.969-46.135C159.853,163.388,155.453,157.359,149.31,156.736Z" transform="translate(-83.477 -104.843)" fill="#263238"/>
        <path id="Trazado_197550" data-name="Trazado 197550" d="M124.05,166.117c-.218.778-.664,1.318-1.038,1.224s-.446-.8-.228-1.567.674-1.318,1.038-1.224S124.279,165.349,124.05,166.117Z" transform="translate(-82.841 -104.521)" fill="#fff"/>
        <path id="Trazado_197551" data-name="Trazado 197551" d="M122.587,172.285c-.1.8-.467,1.411-.82,1.359s-.55-.716-.457-1.515.467-1.4.809-1.359S122.681,171.486,122.587,172.285Z" transform="translate(-82.892 -104.287)" fill="#fff"/>
        <path id="Trazado_197552" data-name="Trazado 197552" d="M139.52,136.54c-.187,6.226-.986,16.5,2.947,20.535,0,0-5.738-.861-17.91,6.672-3.528-5.064-.913-6.672-.913-6.672a6.05,6.05,0,0,0,4.607-8.55Z" transform="translate(-82.839 -105.576)" fill="#b55b52"/>
        <path id="Trazado_197553" data-name="Trazado 197553" d="M127,161.562c4.016.571,5.271,6.62,5.271,6.62s9.629-6.807,12.68-11.611a39.008,39.008,0,0,1-3.518-2.231S129.293,159.248,127,161.562Z" transform="translate(-82.677 -104.905)" fill="#fff"/>
        <path id="Trazado_197554" data-name="Trazado 197554" d="M123.458,160.858s-3.186.7-4.784,5.126c-.913-8.831,3.269-9.65,3.269-9.65a5.188,5.188,0,0,1,3.632-.519A4.286,4.286,0,0,0,123.458,160.858Z" transform="translate(-82.996 -104.855)" fill="#fff"/>
        <path id="Trazado_197555" data-name="Trazado 197555" d="M132.273,144.47l-1.588.965-2.636,2.8a5.967,5.967,0,0,1,.249,4.555c3.009-1.162,6.039-3.518,6.838-6.06h0a1.951,1.951,0,0,0-2.864-2.262Z" transform="translate(-82.638 -105.288)" opacity="0.2"/>
        <path id="Trazado_197556" data-name="Trazado 197556" d="M137.936,122.73c2.9,9.515,4.317,13.49,1.546,20.214-4.151,10.138-16.125,12.161-21.718,3.839-5.022-7.5-8.914-21.791-1.473-29.324a12.732,12.732,0,0,1,21.646,5.271Z" transform="translate(-83.237 -106.449)" fill="#b55b52"/>
        <path id="Trazado_197557" data-name="Trazado 197557" d="M127.27,117.11c-2.438,6.5,3.341,14.579,11.611,13.957,3.85-7.357,1.515-12.981-.54-15.274S130.062,113.1,127.27,117.11Z" transform="translate(-82.688 -106.422)" fill="#263238" opacity="0.4"/>
        <path id="Trazado_197558" data-name="Trazado 197558" d="M138.889,117.137c-1.11,7.876-26.678,3-28.069,10.9C110.758,117.718,122.286,103.938,138.889,117.137Z" transform="translate(-83.287 -106.511)" fill="#263238"/>
        <path id="Trazado_197559" data-name="Trazado 197559" d="M124.969,131.79c.27.789.1,1.6-.384,1.806s-1.11-.259-1.39-1.038-.1-1.6.384-1.816S124.689,131.012,124.969,131.79Z" transform="translate(-82.826 -105.796)" fill="#263238"/>
        <path id="Trazado_197560" data-name="Trazado 197560" d="M115.729,134.679c.28.789.114,1.6-.374,1.806s-1.11-.259-1.39-1.038-.1-1.6.384-1.806S115.459,133.891,115.729,134.679Z" transform="translate(-83.173 -105.687)" fill="#263238"/>
        <path id="Trazado_197561" data-name="Trazado 197561" d="M114.622,133.58l-1.982.228S114.051,134.887,114.622,133.58Z" transform="translate(-83.218 -105.687)" fill="#263238"/>
        <path id="Trazado_197562" data-name="Trazado 197562" d="M118.282,134.21a24.457,24.457,0,0,1-.892,6.174,3.331,3.331,0,0,0,2.854-.623Z" transform="translate(-83.039 -105.664)" fill="#a02724"/>
        <path id="Trazado_197563" data-name="Trazado 197563" d="M122.6,142.2a7.845,7.845,0,0,1-1.318.415.218.218,0,0,1-.27-.187.259.259,0,0,1,.2-.291,6.942,6.942,0,0,0,4.732-3.7.239.239,0,1,1,.436.176A7.264,7.264,0,0,1,122.6,142.2Z" transform="translate(-82.903 -105.512)" fill="#263238"/>
        <path id="Trazado_197564" data-name="Trazado 197564" d="M143.067,130.431a6.817,6.817,0,0,1-1.951,5.188c-1.723,1.6-3.819-.239-4.379-2.9-.5-2.387-.208-6.1,2.075-6.641S143.005,127.868,143.067,130.431Z" transform="translate(-82.318 -105.973)" fill="#b55b52"/>
        <path id="Trazado_197565" data-name="Trazado 197565" d="M124.866,127.447a.436.436,0,0,1-.353-.083,3.57,3.57,0,0,0-3.341-.6.436.436,0,0,1-.591-.28.529.529,0,0,1,.3-.643,4.483,4.483,0,0,1,4.223.716.5.5,0,0,1,.073.7A.56.56,0,0,1,124.866,127.447Z" transform="translate(-82.92 -105.988)" fill="#263238"/>
        <path id="Trazado_197566" data-name="Trazado 197566" d="M111.474,132.231a.467.467,0,0,1-.353,0,.477.477,0,0,1-.27-.623,5.189,5.189,0,0,1,3.175-3.238.457.457,0,0,1,.56.363.529.529,0,0,1-.363.6,4.047,4.047,0,0,0-2.49,2.584A.519.519,0,0,1,111.474,132.231Z" transform="translate(-83.287 -105.884)" fill="#263238"/>
        <path id="Trazado_197567" data-name="Trazado 197567" d="M123.852,130.7l-1.982.218S123.312,132.049,123.852,130.7Z" transform="translate(-82.871 -105.796)" fill="#263238"/>
        <path id="Trazado_197568" data-name="Trazado 197568" d="M155.134,178.049v2.221a17.828,17.828,0,0,1-.166,1.972,37.352,37.352,0,0,1-.623,3.86,36.319,36.319,0,0,1-2.459,7.554,29.719,29.719,0,0,1-4.379,7.025,26.108,26.108,0,0,1-6.434,5.572l-.374.228a4.153,4.153,0,0,1-1.038.436,9.734,9.734,0,0,1-5.4,0,16.272,16.272,0,0,1-3.362-1.37,29.441,29.441,0,0,1-4.836-3.393,45.042,45.042,0,0,1-3.9-3.787,46.388,46.388,0,0,1-3.393-4.151,3.113,3.113,0,0,1,4.151-4.535l.114.073,4.151,2.439c1.38.789,2.76,1.567,4.151,2.241a25.942,25.942,0,0,0,3.85,1.619,4.472,4.472,0,0,0,1.38.259c.3,0,.28-.187-.436,0l-1.359.664a16.716,16.716,0,0,0,3.331-3.559,16.52,16.52,0,0,0,1.3-2.158,19.8,19.8,0,0,0,1.09-2.376,31.34,31.34,0,0,0,1.5-5.251c.187-.913.322-1.837.446-2.76.052-.467.1-.924.145-1.38l.083-1.152v-.55a6.228,6.228,0,0,1,12.452.353Z" transform="translate(-83.012 -104.25)" fill="#b55b52"/>
        <path id="Trazado_197569" data-name="Trazado 197569" d="M117.409,198.936H94.933a4.545,4.545,0,0,1-4.441-3.3l-2.75-14.258c-.353-1.806,1.038-3.269,3.175-3.269h22.465a4.524,4.524,0,0,1,4.441,3.269l2.76,14.258C120.926,197.473,119.5,198.936,117.409,198.936Z" transform="translate(-84.158 -104.01)" fill="#084a93"/>
        <path id="Trazado_197570" data-name="Trazado 197570" d="M116.675,197.961H94.884a3.538,3.538,0,0,1-3.455-2.47l-2.688-13.874a1.619,1.619,0,0,1,.332-1.359,2.418,2.418,0,0,1,1.9-.768h21.791a3.559,3.559,0,0,1,3.455,2.459l2.677,13.874a1.577,1.577,0,0,1-.322,1.359,2.439,2.439,0,0,1-1.9.778ZM90.92,179.75a2.179,2.179,0,0,0-1.7.675,1.37,1.37,0,0,0-.27,1.152l2.677,13.863a3.279,3.279,0,0,0,3.206,2.221h21.791a2.127,2.127,0,0,0,1.691-.685,1.318,1.318,0,0,0,.28-1.141L115.99,182a3.269,3.269,0,0,0-3.2-2.252Z" transform="translate(-84.12 -103.958)" fill="#fff"/>
        <path id="Trazado_197571" data-name="Trazado 197571" d="M117.023,185.107l-2.636-.664a2.5,2.5,0,0,0-3.04,1.868l-.685,3a2.49,2.49,0,0,0,1.494,2.864l3.341,1.37s5.593,3.455,7.917.789l1.038-4.275-4.151-3.362A8.3,8.3,0,0,0,117.023,185.107Z" transform="translate(-83.295 -103.774)" fill="#b55b52"/>
        <path id="Trazado_197572" data-name="Trazado 197572" d="M148.492,156.76c9.1.54,11.9,10.034,8.872,27.3-1.473,6.485-19.653-2.376-19.653-2.376S137.077,163.235,148.492,156.76Z" transform="translate(-82.274 -104.814)" fill="#263238"/>
      </g>
    </g>
  </g>
</svg>
